M48
; DRILL file {KiCad 5.1.5-52549c5~86~ubuntu18.04.1} date Mon 27 Apr 2020 04:28:23 BST
; FORMAT={-:-/ absolute / inch / decimal}
; #@! TF.CreationDate,2020-04-27T04:28:23+01:00
; #@! TF.GenerationSoftware,Kicad,Pcbnew,5.1.5-52549c5~86~ubuntu18.04.1
; #@! TF.FileFunction,NonPlated,1,2,NPTH
FMAT,2
INCH
T1C0.0197
T2C0.0630
T3C0.1693
%
G90
G05
T1
X3.1004Y-3.2776
X3.1004Y-3.3366
X3.1299Y-3.2776
X3.1299Y-3.3366
X3.1594Y-3.2776
X3.1594Y-3.3366
X4.2421Y-3.2776
X4.2421Y-3.3366
X4.2717Y-3.2776
X4.2717Y-3.3366
X4.3012Y-3.2776
X4.3012Y-3.3366
X2.1161Y-3.2776
X2.1161Y-3.3366
X2.1457Y-3.2776
X2.1457Y-3.3366
X2.1752Y-3.2776
X2.1752Y-3.3366
X4.2421Y-3.4327
X4.2421Y-3.4917
X4.2717Y-3.4327
X4.2717Y-3.4917
X4.3012Y-3.4327
X4.3012Y-3.4917
X3.1004Y-3.4327
X3.1004Y-3.4917
X3.1299Y-3.4327
X3.1299Y-3.4917
X3.1594Y-3.4327
X3.1594Y-3.4917
X2.1161Y-3.4327
X2.1161Y-3.4917
X2.1457Y-3.4327
X2.1457Y-3.4917
X2.1752Y-3.4327
X2.1752Y-3.4917
T2
X3.4252Y-3.1594
X2.9921Y-3.6122
T3
X2.5984Y-4.8425
X2.2047Y-4.8425
X4.2126Y-1.9291
X3.8189Y-1.9291
T0
M30
