G04 #@! TF.GenerationSoftware,KiCad,Pcbnew,5.1.5-52549c5~86~ubuntu18.04.1*
G04 #@! TF.CreationDate,2020-04-27T04:28:22+01:00*
G04 #@! TF.ProjectId,polariser_drive,706f6c61-7269-4736-9572-5f6472697665,rev?*
G04 #@! TF.SameCoordinates,Original*
G04 #@! TF.FileFunction,Soldermask,Bot*
G04 #@! TF.FilePolarity,Negative*
%FSLAX46Y46*%
G04 Gerber Fmt 4.6, Leading zero omitted, Abs format (unit mm)*
G04 Created by KiCad (PCBNEW 5.1.5-52549c5~86~ubuntu18.04.1) date 2020-04-27 04:28:22*
%MOMM*%
%LPD*%
G04 APERTURE LIST*
%ADD10C,0.100000*%
G04 APERTURE END LIST*
D10*
G36*
X111331694Y-129598633D02*
G01*
X111504095Y-129650931D01*
X111662983Y-129735858D01*
X111802249Y-129850151D01*
X111916542Y-129989417D01*
X112001469Y-130148305D01*
X112053767Y-130320706D01*
X112071425Y-130500000D01*
X112053767Y-130679294D01*
X112001469Y-130851695D01*
X111916542Y-131010583D01*
X111802249Y-131149849D01*
X111662983Y-131264142D01*
X111504095Y-131349069D01*
X111331694Y-131401367D01*
X111197331Y-131414600D01*
X110802669Y-131414600D01*
X110668306Y-131401367D01*
X110495905Y-131349069D01*
X110337017Y-131264142D01*
X110197751Y-131149849D01*
X110083458Y-131010583D01*
X109998531Y-130851695D01*
X109946233Y-130679294D01*
X109928575Y-130500000D01*
X109946233Y-130320706D01*
X109998531Y-130148305D01*
X110083458Y-129989417D01*
X110197751Y-129850151D01*
X110337017Y-129735858D01*
X110495905Y-129650931D01*
X110668306Y-129598633D01*
X110802669Y-129585400D01*
X111197331Y-129585400D01*
X111331694Y-129598633D01*
G37*
G36*
X88471694Y-129598633D02*
G01*
X88644095Y-129650931D01*
X88802983Y-129735858D01*
X88942249Y-129850151D01*
X89056542Y-129989417D01*
X89141469Y-130148305D01*
X89193767Y-130320706D01*
X89211425Y-130500000D01*
X89193767Y-130679294D01*
X89141469Y-130851695D01*
X89056542Y-131010583D01*
X88942249Y-131149849D01*
X88802983Y-131264142D01*
X88644095Y-131349069D01*
X88471694Y-131401367D01*
X88337331Y-131414600D01*
X87942669Y-131414600D01*
X87808306Y-131401367D01*
X87635905Y-131349069D01*
X87477017Y-131264142D01*
X87337751Y-131149849D01*
X87223458Y-131010583D01*
X87138531Y-130851695D01*
X87086233Y-130679294D01*
X87068575Y-130500000D01*
X87086233Y-130320706D01*
X87138531Y-130148305D01*
X87223458Y-129989417D01*
X87337751Y-129850151D01*
X87477017Y-129735858D01*
X87635905Y-129650931D01*
X87808306Y-129598633D01*
X87942669Y-129585400D01*
X88337331Y-129585400D01*
X88471694Y-129598633D01*
G37*
G36*
X88471694Y-127058633D02*
G01*
X88644095Y-127110931D01*
X88802983Y-127195858D01*
X88942249Y-127310151D01*
X89056542Y-127449417D01*
X89141469Y-127608305D01*
X89193767Y-127780706D01*
X89211425Y-127960000D01*
X89193767Y-128139294D01*
X89141469Y-128311695D01*
X89056542Y-128470583D01*
X88942249Y-128609849D01*
X88802983Y-128724142D01*
X88644095Y-128809069D01*
X88471694Y-128861367D01*
X88337331Y-128874600D01*
X87942669Y-128874600D01*
X87808306Y-128861367D01*
X87635905Y-128809069D01*
X87477017Y-128724142D01*
X87337751Y-128609849D01*
X87223458Y-128470583D01*
X87138531Y-128311695D01*
X87086233Y-128139294D01*
X87068575Y-127960000D01*
X87086233Y-127780706D01*
X87138531Y-127608305D01*
X87223458Y-127449417D01*
X87337751Y-127310151D01*
X87477017Y-127195858D01*
X87635905Y-127110931D01*
X87808306Y-127058633D01*
X87942669Y-127045400D01*
X88337331Y-127045400D01*
X88471694Y-127058633D01*
G37*
G36*
X111331694Y-127058633D02*
G01*
X111504095Y-127110931D01*
X111662983Y-127195858D01*
X111802249Y-127310151D01*
X111916542Y-127449417D01*
X112001469Y-127608305D01*
X112053767Y-127780706D01*
X112071425Y-127960000D01*
X112053767Y-128139294D01*
X112001469Y-128311695D01*
X111916542Y-128470583D01*
X111802249Y-128609849D01*
X111662983Y-128724142D01*
X111504095Y-128809069D01*
X111331694Y-128861367D01*
X111197331Y-128874600D01*
X110802669Y-128874600D01*
X110668306Y-128861367D01*
X110495905Y-128809069D01*
X110337017Y-128724142D01*
X110197751Y-128609849D01*
X110083458Y-128470583D01*
X109998531Y-128311695D01*
X109946233Y-128139294D01*
X109928575Y-127960000D01*
X109946233Y-127780706D01*
X109998531Y-127608305D01*
X110083458Y-127449417D01*
X110197751Y-127310151D01*
X110337017Y-127195858D01*
X110495905Y-127110931D01*
X110668306Y-127058633D01*
X110802669Y-127045400D01*
X111197331Y-127045400D01*
X111331694Y-127058633D01*
G37*
G36*
X111331694Y-124518633D02*
G01*
X111504095Y-124570931D01*
X111662983Y-124655858D01*
X111802249Y-124770151D01*
X111916542Y-124909417D01*
X112001469Y-125068305D01*
X112053767Y-125240706D01*
X112071425Y-125420000D01*
X112053767Y-125599294D01*
X112001469Y-125771695D01*
X111916542Y-125930583D01*
X111802249Y-126069849D01*
X111662983Y-126184142D01*
X111504095Y-126269069D01*
X111331694Y-126321367D01*
X111197331Y-126334600D01*
X110802669Y-126334600D01*
X110668306Y-126321367D01*
X110495905Y-126269069D01*
X110337017Y-126184142D01*
X110197751Y-126069849D01*
X110083458Y-125930583D01*
X109998531Y-125771695D01*
X109946233Y-125599294D01*
X109928575Y-125420000D01*
X109946233Y-125240706D01*
X109998531Y-125068305D01*
X110083458Y-124909417D01*
X110197751Y-124770151D01*
X110337017Y-124655858D01*
X110495905Y-124570931D01*
X110668306Y-124518633D01*
X110802669Y-124505400D01*
X111197331Y-124505400D01*
X111331694Y-124518633D01*
G37*
G36*
X88471694Y-124518633D02*
G01*
X88644095Y-124570931D01*
X88802983Y-124655858D01*
X88942249Y-124770151D01*
X89056542Y-124909417D01*
X89141469Y-125068305D01*
X89193767Y-125240706D01*
X89211425Y-125420000D01*
X89193767Y-125599294D01*
X89141469Y-125771695D01*
X89056542Y-125930583D01*
X88942249Y-126069849D01*
X88802983Y-126184142D01*
X88644095Y-126269069D01*
X88471694Y-126321367D01*
X88337331Y-126334600D01*
X87942669Y-126334600D01*
X87808306Y-126321367D01*
X87635905Y-126269069D01*
X87477017Y-126184142D01*
X87337751Y-126069849D01*
X87223458Y-125930583D01*
X87138531Y-125771695D01*
X87086233Y-125599294D01*
X87068575Y-125420000D01*
X87086233Y-125240706D01*
X87138531Y-125068305D01*
X87223458Y-124909417D01*
X87337751Y-124770151D01*
X87477017Y-124655858D01*
X87635905Y-124570931D01*
X87808306Y-124518633D01*
X87942669Y-124505400D01*
X88337331Y-124505400D01*
X88471694Y-124518633D01*
G37*
G36*
X66642007Y-120883582D02*
G01*
X67042563Y-121049498D01*
X67042565Y-121049499D01*
X67403056Y-121290371D01*
X67709629Y-121596944D01*
X67950501Y-121957435D01*
X67950502Y-121957437D01*
X68116418Y-122357993D01*
X68201000Y-122783219D01*
X68201000Y-123216781D01*
X68116418Y-123642007D01*
X67950502Y-124042563D01*
X67950501Y-124042565D01*
X67709629Y-124403056D01*
X67403056Y-124709629D01*
X67042565Y-124950501D01*
X67042564Y-124950502D01*
X67042563Y-124950502D01*
X66642007Y-125116418D01*
X66216781Y-125201000D01*
X65783219Y-125201000D01*
X65357993Y-125116418D01*
X64957437Y-124950502D01*
X64957436Y-124950502D01*
X64957435Y-124950501D01*
X64596944Y-124709629D01*
X64290371Y-124403056D01*
X64049499Y-124042565D01*
X64049498Y-124042563D01*
X63883582Y-123642007D01*
X63799000Y-123216781D01*
X63799000Y-122783219D01*
X63883582Y-122357993D01*
X64049498Y-121957437D01*
X64049499Y-121957435D01*
X64290371Y-121596944D01*
X64596944Y-121290371D01*
X64957435Y-121049499D01*
X64957437Y-121049498D01*
X65357993Y-120883582D01*
X65783219Y-120799000D01*
X66216781Y-120799000D01*
X66642007Y-120883582D01*
G37*
G36*
X56642007Y-120883582D02*
G01*
X57042563Y-121049498D01*
X57042565Y-121049499D01*
X57403056Y-121290371D01*
X57709629Y-121596944D01*
X57950501Y-121957435D01*
X57950502Y-121957437D01*
X58116418Y-122357993D01*
X58201000Y-122783219D01*
X58201000Y-123216781D01*
X58116418Y-123642007D01*
X57950502Y-124042563D01*
X57950501Y-124042565D01*
X57709629Y-124403056D01*
X57403056Y-124709629D01*
X57042565Y-124950501D01*
X57042564Y-124950502D01*
X57042563Y-124950502D01*
X56642007Y-125116418D01*
X56216781Y-125201000D01*
X55783219Y-125201000D01*
X55357993Y-125116418D01*
X54957437Y-124950502D01*
X54957436Y-124950502D01*
X54957435Y-124950501D01*
X54596944Y-124709629D01*
X54290371Y-124403056D01*
X54049499Y-124042565D01*
X54049498Y-124042563D01*
X53883582Y-123642007D01*
X53799000Y-123216781D01*
X53799000Y-122783219D01*
X53883582Y-122357993D01*
X54049498Y-121957437D01*
X54049499Y-121957435D01*
X54290371Y-121596944D01*
X54596944Y-121290371D01*
X54957435Y-121049499D01*
X54957437Y-121049498D01*
X55357993Y-120883582D01*
X55783219Y-120799000D01*
X56216781Y-120799000D01*
X56642007Y-120883582D01*
G37*
G36*
X111331694Y-121978633D02*
G01*
X111504095Y-122030931D01*
X111662983Y-122115858D01*
X111802249Y-122230151D01*
X111916542Y-122369417D01*
X112001469Y-122528305D01*
X112053767Y-122700706D01*
X112071425Y-122880000D01*
X112053767Y-123059294D01*
X112001469Y-123231695D01*
X111916542Y-123390583D01*
X111802249Y-123529849D01*
X111662983Y-123644142D01*
X111504095Y-123729069D01*
X111331694Y-123781367D01*
X111197331Y-123794600D01*
X110802669Y-123794600D01*
X110668306Y-123781367D01*
X110495905Y-123729069D01*
X110337017Y-123644142D01*
X110197751Y-123529849D01*
X110083458Y-123390583D01*
X109998531Y-123231695D01*
X109946233Y-123059294D01*
X109928575Y-122880000D01*
X109946233Y-122700706D01*
X109998531Y-122528305D01*
X110083458Y-122369417D01*
X110197751Y-122230151D01*
X110337017Y-122115858D01*
X110495905Y-122030931D01*
X110668306Y-121978633D01*
X110802669Y-121965400D01*
X111197331Y-121965400D01*
X111331694Y-121978633D01*
G37*
G36*
X88471694Y-121978633D02*
G01*
X88644095Y-122030931D01*
X88802983Y-122115858D01*
X88942249Y-122230151D01*
X89056542Y-122369417D01*
X89141469Y-122528305D01*
X89193767Y-122700706D01*
X89211425Y-122880000D01*
X89193767Y-123059294D01*
X89141469Y-123231695D01*
X89056542Y-123390583D01*
X88942249Y-123529849D01*
X88802983Y-123644142D01*
X88644095Y-123729069D01*
X88471694Y-123781367D01*
X88337331Y-123794600D01*
X87942669Y-123794600D01*
X87808306Y-123781367D01*
X87635905Y-123729069D01*
X87477017Y-123644142D01*
X87337751Y-123529849D01*
X87223458Y-123390583D01*
X87138531Y-123231695D01*
X87086233Y-123059294D01*
X87068575Y-122880000D01*
X87086233Y-122700706D01*
X87138531Y-122528305D01*
X87223458Y-122369417D01*
X87337751Y-122230151D01*
X87477017Y-122115858D01*
X87635905Y-122030931D01*
X87808306Y-121978633D01*
X87942669Y-121965400D01*
X88337331Y-121965400D01*
X88471694Y-121978633D01*
G37*
G36*
X88471694Y-119438633D02*
G01*
X88644095Y-119490931D01*
X88802983Y-119575858D01*
X88942249Y-119690151D01*
X89056542Y-119829417D01*
X89141469Y-119988305D01*
X89193767Y-120160706D01*
X89211425Y-120340000D01*
X89193767Y-120519294D01*
X89141469Y-120691695D01*
X89056542Y-120850583D01*
X88942249Y-120989849D01*
X88802983Y-121104142D01*
X88644095Y-121189069D01*
X88471694Y-121241367D01*
X88337331Y-121254600D01*
X87942669Y-121254600D01*
X87808306Y-121241367D01*
X87635905Y-121189069D01*
X87477017Y-121104142D01*
X87337751Y-120989849D01*
X87223458Y-120850583D01*
X87138531Y-120691695D01*
X87086233Y-120519294D01*
X87068575Y-120340000D01*
X87086233Y-120160706D01*
X87138531Y-119988305D01*
X87223458Y-119829417D01*
X87337751Y-119690151D01*
X87477017Y-119575858D01*
X87635905Y-119490931D01*
X87808306Y-119438633D01*
X87942669Y-119425400D01*
X88337331Y-119425400D01*
X88471694Y-119438633D01*
G37*
G36*
X111331694Y-119438633D02*
G01*
X111504095Y-119490931D01*
X111662983Y-119575858D01*
X111802249Y-119690151D01*
X111916542Y-119829417D01*
X112001469Y-119988305D01*
X112053767Y-120160706D01*
X112071425Y-120340000D01*
X112053767Y-120519294D01*
X112001469Y-120691695D01*
X111916542Y-120850583D01*
X111802249Y-120989849D01*
X111662983Y-121104142D01*
X111504095Y-121189069D01*
X111331694Y-121241367D01*
X111197331Y-121254600D01*
X110802669Y-121254600D01*
X110668306Y-121241367D01*
X110495905Y-121189069D01*
X110337017Y-121104142D01*
X110197751Y-120989849D01*
X110083458Y-120850583D01*
X109998531Y-120691695D01*
X109946233Y-120519294D01*
X109928575Y-120340000D01*
X109946233Y-120160706D01*
X109998531Y-119988305D01*
X110083458Y-119829417D01*
X110197751Y-119690151D01*
X110337017Y-119575858D01*
X110495905Y-119490931D01*
X110668306Y-119438633D01*
X110802669Y-119425400D01*
X111197331Y-119425400D01*
X111331694Y-119438633D01*
G37*
G36*
X111331694Y-116898633D02*
G01*
X111504095Y-116950931D01*
X111662983Y-117035858D01*
X111802249Y-117150151D01*
X111916542Y-117289417D01*
X112001469Y-117448305D01*
X112053767Y-117620706D01*
X112071425Y-117800000D01*
X112053767Y-117979294D01*
X112001469Y-118151695D01*
X111916542Y-118310583D01*
X111802249Y-118449849D01*
X111662983Y-118564142D01*
X111504095Y-118649069D01*
X111331694Y-118701367D01*
X111197331Y-118714600D01*
X110802669Y-118714600D01*
X110668306Y-118701367D01*
X110495905Y-118649069D01*
X110337017Y-118564142D01*
X110197751Y-118449849D01*
X110083458Y-118310583D01*
X109998531Y-118151695D01*
X109946233Y-117979294D01*
X109928575Y-117800000D01*
X109946233Y-117620706D01*
X109998531Y-117448305D01*
X110083458Y-117289417D01*
X110197751Y-117150151D01*
X110337017Y-117035858D01*
X110495905Y-116950931D01*
X110668306Y-116898633D01*
X110802669Y-116885400D01*
X111197331Y-116885400D01*
X111331694Y-116898633D01*
G37*
G36*
X88471694Y-116898633D02*
G01*
X88644095Y-116950931D01*
X88802983Y-117035858D01*
X88942249Y-117150151D01*
X89056542Y-117289417D01*
X89141469Y-117448305D01*
X89193767Y-117620706D01*
X89211425Y-117800000D01*
X89193767Y-117979294D01*
X89141469Y-118151695D01*
X89056542Y-118310583D01*
X88942249Y-118449849D01*
X88802983Y-118564142D01*
X88644095Y-118649069D01*
X88471694Y-118701367D01*
X88337331Y-118714600D01*
X87942669Y-118714600D01*
X87808306Y-118701367D01*
X87635905Y-118649069D01*
X87477017Y-118564142D01*
X87337751Y-118449849D01*
X87223458Y-118310583D01*
X87138531Y-118151695D01*
X87086233Y-117979294D01*
X87068575Y-117800000D01*
X87086233Y-117620706D01*
X87138531Y-117448305D01*
X87223458Y-117289417D01*
X87337751Y-117150151D01*
X87477017Y-117035858D01*
X87635905Y-116950931D01*
X87808306Y-116898633D01*
X87942669Y-116885400D01*
X88337331Y-116885400D01*
X88471694Y-116898633D01*
G37*
G36*
X111331694Y-114358633D02*
G01*
X111504095Y-114410931D01*
X111662983Y-114495858D01*
X111802249Y-114610151D01*
X111916542Y-114749417D01*
X112001469Y-114908305D01*
X112053767Y-115080706D01*
X112071425Y-115260000D01*
X112053767Y-115439294D01*
X112001469Y-115611695D01*
X111916542Y-115770583D01*
X111802249Y-115909849D01*
X111662983Y-116024142D01*
X111504095Y-116109069D01*
X111331694Y-116161367D01*
X111197331Y-116174600D01*
X110802669Y-116174600D01*
X110668306Y-116161367D01*
X110495905Y-116109069D01*
X110337017Y-116024142D01*
X110197751Y-115909849D01*
X110083458Y-115770583D01*
X109998531Y-115611695D01*
X109946233Y-115439294D01*
X109928575Y-115260000D01*
X109946233Y-115080706D01*
X109998531Y-114908305D01*
X110083458Y-114749417D01*
X110197751Y-114610151D01*
X110337017Y-114495858D01*
X110495905Y-114410931D01*
X110668306Y-114358633D01*
X110802669Y-114345400D01*
X111197331Y-114345400D01*
X111331694Y-114358633D01*
G37*
G36*
X88471694Y-114358633D02*
G01*
X88644095Y-114410931D01*
X88802983Y-114495858D01*
X88942249Y-114610151D01*
X89056542Y-114749417D01*
X89141469Y-114908305D01*
X89193767Y-115080706D01*
X89211425Y-115260000D01*
X89193767Y-115439294D01*
X89141469Y-115611695D01*
X89056542Y-115770583D01*
X88942249Y-115909849D01*
X88802983Y-116024142D01*
X88644095Y-116109069D01*
X88471694Y-116161367D01*
X88337331Y-116174600D01*
X87942669Y-116174600D01*
X87808306Y-116161367D01*
X87635905Y-116109069D01*
X87477017Y-116024142D01*
X87337751Y-115909849D01*
X87223458Y-115770583D01*
X87138531Y-115611695D01*
X87086233Y-115439294D01*
X87068575Y-115260000D01*
X87086233Y-115080706D01*
X87138531Y-114908305D01*
X87223458Y-114749417D01*
X87337751Y-114610151D01*
X87477017Y-114495858D01*
X87635905Y-114410931D01*
X87808306Y-114358633D01*
X87942669Y-114345400D01*
X88337331Y-114345400D01*
X88471694Y-114358633D01*
G37*
G36*
X79001666Y-113196030D02*
G01*
X79150966Y-113225727D01*
X79314938Y-113293647D01*
X79462508Y-113392250D01*
X79588007Y-113517749D01*
X79686610Y-113665319D01*
X79754530Y-113829291D01*
X79789154Y-114003362D01*
X79789154Y-114180844D01*
X79754530Y-114354915D01*
X79686610Y-114518887D01*
X79588007Y-114666457D01*
X79462508Y-114791956D01*
X79314938Y-114890559D01*
X79150966Y-114958479D01*
X79001666Y-114988176D01*
X78976896Y-114993103D01*
X78799412Y-114993103D01*
X78774642Y-114988176D01*
X78625342Y-114958479D01*
X78461370Y-114890559D01*
X78313800Y-114791956D01*
X78188301Y-114666457D01*
X78089698Y-114518887D01*
X78021778Y-114354915D01*
X77987154Y-114180844D01*
X77987154Y-114003362D01*
X78021778Y-113829291D01*
X78089698Y-113665319D01*
X78188301Y-113517749D01*
X78313800Y-113392250D01*
X78461370Y-113293647D01*
X78625342Y-113225727D01*
X78774642Y-113196030D01*
X78799412Y-113191103D01*
X78976896Y-113191103D01*
X79001666Y-113196030D01*
G37*
G36*
X111331694Y-111818633D02*
G01*
X111504095Y-111870931D01*
X111662983Y-111955858D01*
X111802249Y-112070151D01*
X111916542Y-112209417D01*
X112001469Y-112368305D01*
X112053767Y-112540706D01*
X112071425Y-112720000D01*
X112053767Y-112899294D01*
X112001469Y-113071695D01*
X111916542Y-113230583D01*
X111802249Y-113369849D01*
X111662983Y-113484142D01*
X111504095Y-113569069D01*
X111331694Y-113621367D01*
X111197331Y-113634600D01*
X110802669Y-113634600D01*
X110668306Y-113621367D01*
X110495905Y-113569069D01*
X110337017Y-113484142D01*
X110197751Y-113369849D01*
X110083458Y-113230583D01*
X109998531Y-113071695D01*
X109946233Y-112899294D01*
X109928575Y-112720000D01*
X109946233Y-112540706D01*
X109998531Y-112368305D01*
X110083458Y-112209417D01*
X110197751Y-112070151D01*
X110337017Y-111955858D01*
X110495905Y-111870931D01*
X110668306Y-111818633D01*
X110802669Y-111805400D01*
X111197331Y-111805400D01*
X111331694Y-111818633D01*
G37*
G36*
X88471694Y-111818633D02*
G01*
X88644095Y-111870931D01*
X88802983Y-111955858D01*
X88942249Y-112070151D01*
X89056542Y-112209417D01*
X89141469Y-112368305D01*
X89193767Y-112540706D01*
X89211425Y-112720000D01*
X89193767Y-112899294D01*
X89141469Y-113071695D01*
X89056542Y-113230583D01*
X88942249Y-113369849D01*
X88802983Y-113484142D01*
X88644095Y-113569069D01*
X88471694Y-113621367D01*
X88337331Y-113634600D01*
X87942669Y-113634600D01*
X87808306Y-113621367D01*
X87635905Y-113569069D01*
X87477017Y-113484142D01*
X87337751Y-113369849D01*
X87223458Y-113230583D01*
X87138531Y-113071695D01*
X87086233Y-112899294D01*
X87068575Y-112720000D01*
X87086233Y-112540706D01*
X87138531Y-112368305D01*
X87223458Y-112209417D01*
X87337751Y-112070151D01*
X87477017Y-111955858D01*
X87635905Y-111870931D01*
X87808306Y-111818633D01*
X87942669Y-111805400D01*
X88337331Y-111805400D01*
X88471694Y-111818633D01*
G37*
G36*
X77205614Y-111399978D02*
G01*
X77354914Y-111429675D01*
X77518886Y-111497595D01*
X77666456Y-111596198D01*
X77791955Y-111721697D01*
X77890558Y-111869267D01*
X77958478Y-112033239D01*
X77993102Y-112207310D01*
X77993102Y-112384792D01*
X77958478Y-112558863D01*
X77890558Y-112722835D01*
X77791955Y-112870405D01*
X77666456Y-112995904D01*
X77518886Y-113094507D01*
X77354914Y-113162427D01*
X77210746Y-113191103D01*
X77180844Y-113197051D01*
X77003360Y-113197051D01*
X76973458Y-113191103D01*
X76829290Y-113162427D01*
X76665318Y-113094507D01*
X76517748Y-112995904D01*
X76392249Y-112870405D01*
X76293646Y-112722835D01*
X76225726Y-112558863D01*
X76191102Y-112384792D01*
X76191102Y-112207310D01*
X76225726Y-112033239D01*
X76293646Y-111869267D01*
X76392249Y-111721697D01*
X76517748Y-111596198D01*
X76665318Y-111497595D01*
X76829290Y-111429675D01*
X76978590Y-111399978D01*
X77003360Y-111395051D01*
X77180844Y-111395051D01*
X77205614Y-111399978D01*
G37*
G36*
X75409563Y-109603927D02*
G01*
X75558863Y-109633624D01*
X75722835Y-109701544D01*
X75870405Y-109800147D01*
X75995904Y-109925646D01*
X76094507Y-110073216D01*
X76162427Y-110237188D01*
X76197051Y-110411259D01*
X76197051Y-110588741D01*
X76162427Y-110762812D01*
X76094507Y-110926784D01*
X75995904Y-111074354D01*
X75870405Y-111199853D01*
X75722835Y-111298456D01*
X75558863Y-111366376D01*
X75414700Y-111395051D01*
X75384793Y-111401000D01*
X75207309Y-111401000D01*
X75177402Y-111395051D01*
X75033239Y-111366376D01*
X74869267Y-111298456D01*
X74721697Y-111199853D01*
X74596198Y-111074354D01*
X74497595Y-110926784D01*
X74429675Y-110762812D01*
X74395051Y-110588741D01*
X74395051Y-110411259D01*
X74429675Y-110237188D01*
X74497595Y-110073216D01*
X74596198Y-109925646D01*
X74721697Y-109800147D01*
X74869267Y-109701544D01*
X75033239Y-109633624D01*
X75182539Y-109603927D01*
X75207309Y-109599000D01*
X75384793Y-109599000D01*
X75409563Y-109603927D01*
G37*
G36*
X111331694Y-109278633D02*
G01*
X111504095Y-109330931D01*
X111662983Y-109415858D01*
X111802249Y-109530151D01*
X111916542Y-109669417D01*
X112001469Y-109828305D01*
X112053767Y-110000706D01*
X112071425Y-110180000D01*
X112053767Y-110359294D01*
X112001469Y-110531695D01*
X111916542Y-110690583D01*
X111802249Y-110829849D01*
X111662983Y-110944142D01*
X111504095Y-111029069D01*
X111331694Y-111081367D01*
X111197331Y-111094600D01*
X110802669Y-111094600D01*
X110668306Y-111081367D01*
X110495905Y-111029069D01*
X110337017Y-110944142D01*
X110197751Y-110829849D01*
X110083458Y-110690583D01*
X109998531Y-110531695D01*
X109946233Y-110359294D01*
X109928575Y-110180000D01*
X109946233Y-110000706D01*
X109998531Y-109828305D01*
X110083458Y-109669417D01*
X110197751Y-109530151D01*
X110337017Y-109415858D01*
X110495905Y-109330931D01*
X110668306Y-109278633D01*
X110802669Y-109265400D01*
X111197331Y-109265400D01*
X111331694Y-109278633D01*
G37*
G36*
X88471694Y-109278633D02*
G01*
X88644095Y-109330931D01*
X88802983Y-109415858D01*
X88942249Y-109530151D01*
X89056542Y-109669417D01*
X89141469Y-109828305D01*
X89193767Y-110000706D01*
X89211425Y-110180000D01*
X89193767Y-110359294D01*
X89141469Y-110531695D01*
X89056542Y-110690583D01*
X88942249Y-110829849D01*
X88802983Y-110944142D01*
X88644095Y-111029069D01*
X88471694Y-111081367D01*
X88337331Y-111094600D01*
X87942669Y-111094600D01*
X87808306Y-111081367D01*
X87635905Y-111029069D01*
X87477017Y-110944142D01*
X87337751Y-110829849D01*
X87223458Y-110690583D01*
X87138531Y-110531695D01*
X87086233Y-110359294D01*
X87068575Y-110180000D01*
X87086233Y-110000706D01*
X87138531Y-109828305D01*
X87223458Y-109669417D01*
X87337751Y-109530151D01*
X87477017Y-109415858D01*
X87635905Y-109330931D01*
X87808306Y-109278633D01*
X87942669Y-109265400D01*
X88337331Y-109265400D01*
X88471694Y-109278633D01*
G37*
G36*
X74774206Y-108703949D02*
G01*
X73500000Y-109978155D01*
X72225794Y-108703949D01*
X73500000Y-107429743D01*
X74774206Y-108703949D01*
G37*
G36*
X111331694Y-106738633D02*
G01*
X111504095Y-106790931D01*
X111662983Y-106875858D01*
X111802249Y-106990151D01*
X111916542Y-107129417D01*
X112001469Y-107288305D01*
X112053767Y-107460706D01*
X112071425Y-107640000D01*
X112053767Y-107819294D01*
X112001469Y-107991695D01*
X111916542Y-108150583D01*
X111802249Y-108289849D01*
X111662983Y-108404142D01*
X111504095Y-108489069D01*
X111331694Y-108541367D01*
X111197331Y-108554600D01*
X110802669Y-108554600D01*
X110668306Y-108541367D01*
X110495905Y-108489069D01*
X110337017Y-108404142D01*
X110197751Y-108289849D01*
X110083458Y-108150583D01*
X109998531Y-107991695D01*
X109946233Y-107819294D01*
X109928575Y-107640000D01*
X109946233Y-107460706D01*
X109998531Y-107288305D01*
X110083458Y-107129417D01*
X110197751Y-106990151D01*
X110337017Y-106875858D01*
X110495905Y-106790931D01*
X110668306Y-106738633D01*
X110802669Y-106725400D01*
X111197331Y-106725400D01*
X111331694Y-106738633D01*
G37*
G36*
X88471694Y-106738633D02*
G01*
X88644095Y-106790931D01*
X88802983Y-106875858D01*
X88942249Y-106990151D01*
X89056542Y-107129417D01*
X89141469Y-107288305D01*
X89193767Y-107460706D01*
X89211425Y-107640000D01*
X89193767Y-107819294D01*
X89141469Y-107991695D01*
X89056542Y-108150583D01*
X88942249Y-108289849D01*
X88802983Y-108404142D01*
X88644095Y-108489069D01*
X88471694Y-108541367D01*
X88337331Y-108554600D01*
X87942669Y-108554600D01*
X87808306Y-108541367D01*
X87635905Y-108489069D01*
X87477017Y-108404142D01*
X87337751Y-108289849D01*
X87223458Y-108150583D01*
X87138531Y-107991695D01*
X87086233Y-107819294D01*
X87068575Y-107640000D01*
X87086233Y-107460706D01*
X87138531Y-107288305D01*
X87223458Y-107129417D01*
X87337751Y-106990151D01*
X87477017Y-106875858D01*
X87635905Y-106790931D01*
X87808306Y-106738633D01*
X87942669Y-106725400D01*
X88337331Y-106725400D01*
X88471694Y-106738633D01*
G37*
G36*
X88471694Y-104198633D02*
G01*
X88644095Y-104250931D01*
X88802983Y-104335858D01*
X88942249Y-104450151D01*
X89056542Y-104589417D01*
X89141469Y-104748305D01*
X89193767Y-104920706D01*
X89211425Y-105100000D01*
X89193767Y-105279294D01*
X89141469Y-105451695D01*
X89056542Y-105610583D01*
X88942249Y-105749849D01*
X88802983Y-105864142D01*
X88644095Y-105949069D01*
X88471694Y-106001367D01*
X88337331Y-106014600D01*
X87942669Y-106014600D01*
X87808306Y-106001367D01*
X87635905Y-105949069D01*
X87477017Y-105864142D01*
X87337751Y-105749849D01*
X87223458Y-105610583D01*
X87138531Y-105451695D01*
X87086233Y-105279294D01*
X87068575Y-105100000D01*
X87086233Y-104920706D01*
X87138531Y-104748305D01*
X87223458Y-104589417D01*
X87337751Y-104450151D01*
X87477017Y-104335858D01*
X87635905Y-104250931D01*
X87808306Y-104198633D01*
X87942669Y-104185400D01*
X88337331Y-104185400D01*
X88471694Y-104198633D01*
G37*
G36*
X111331694Y-104198633D02*
G01*
X111504095Y-104250931D01*
X111662983Y-104335858D01*
X111802249Y-104450151D01*
X111916542Y-104589417D01*
X112001469Y-104748305D01*
X112053767Y-104920706D01*
X112071425Y-105100000D01*
X112053767Y-105279294D01*
X112001469Y-105451695D01*
X111916542Y-105610583D01*
X111802249Y-105749849D01*
X111662983Y-105864142D01*
X111504095Y-105949069D01*
X111331694Y-106001367D01*
X111197331Y-106014600D01*
X110802669Y-106014600D01*
X110668306Y-106001367D01*
X110495905Y-105949069D01*
X110337017Y-105864142D01*
X110197751Y-105749849D01*
X110083458Y-105610583D01*
X109998531Y-105451695D01*
X109946233Y-105279294D01*
X109928575Y-105100000D01*
X109946233Y-104920706D01*
X109998531Y-104748305D01*
X110083458Y-104589417D01*
X110197751Y-104450151D01*
X110337017Y-104335858D01*
X110495905Y-104250931D01*
X110668306Y-104198633D01*
X110802669Y-104185400D01*
X111197331Y-104185400D01*
X111331694Y-104198633D01*
G37*
G36*
X88471694Y-101658633D02*
G01*
X88644095Y-101710931D01*
X88802983Y-101795858D01*
X88942249Y-101910151D01*
X89056542Y-102049417D01*
X89141469Y-102208305D01*
X89193767Y-102380706D01*
X89211425Y-102560000D01*
X89193767Y-102739294D01*
X89141469Y-102911695D01*
X89056542Y-103070583D01*
X88942249Y-103209849D01*
X88802983Y-103324142D01*
X88644095Y-103409069D01*
X88471694Y-103461367D01*
X88337331Y-103474600D01*
X87942669Y-103474600D01*
X87808306Y-103461367D01*
X87635905Y-103409069D01*
X87477017Y-103324142D01*
X87337751Y-103209849D01*
X87223458Y-103070583D01*
X87138531Y-102911695D01*
X87086233Y-102739294D01*
X87068575Y-102560000D01*
X87086233Y-102380706D01*
X87138531Y-102208305D01*
X87223458Y-102049417D01*
X87337751Y-101910151D01*
X87477017Y-101795858D01*
X87635905Y-101710931D01*
X87808306Y-101658633D01*
X87942669Y-101645400D01*
X88337331Y-101645400D01*
X88471694Y-101658633D01*
G37*
G36*
X111331694Y-101658633D02*
G01*
X111504095Y-101710931D01*
X111662983Y-101795858D01*
X111802249Y-101910151D01*
X111916542Y-102049417D01*
X112001469Y-102208305D01*
X112053767Y-102380706D01*
X112071425Y-102560000D01*
X112053767Y-102739294D01*
X112001469Y-102911695D01*
X111916542Y-103070583D01*
X111802249Y-103209849D01*
X111662983Y-103324142D01*
X111504095Y-103409069D01*
X111331694Y-103461367D01*
X111197331Y-103474600D01*
X110802669Y-103474600D01*
X110668306Y-103461367D01*
X110495905Y-103409069D01*
X110337017Y-103324142D01*
X110197751Y-103209849D01*
X110083458Y-103070583D01*
X109998531Y-102911695D01*
X109946233Y-102739294D01*
X109928575Y-102560000D01*
X109946233Y-102380706D01*
X109998531Y-102208305D01*
X110083458Y-102049417D01*
X110197751Y-101910151D01*
X110337017Y-101795858D01*
X110495905Y-101710931D01*
X110668306Y-101658633D01*
X110802669Y-101645400D01*
X111197331Y-101645400D01*
X111331694Y-101658633D01*
G37*
G36*
X77101000Y-102101000D02*
G01*
X74899000Y-102101000D01*
X74899000Y-99899000D01*
X77101000Y-99899000D01*
X77101000Y-102101000D01*
G37*
G36*
X111331694Y-99118633D02*
G01*
X111504095Y-99170931D01*
X111662983Y-99255858D01*
X111802249Y-99370151D01*
X111916542Y-99509417D01*
X112001469Y-99668305D01*
X112053767Y-99840706D01*
X112071425Y-100020000D01*
X112053767Y-100199294D01*
X112001469Y-100371695D01*
X111916542Y-100530583D01*
X111802249Y-100669849D01*
X111662983Y-100784142D01*
X111504095Y-100869069D01*
X111331694Y-100921367D01*
X111197331Y-100934600D01*
X110802669Y-100934600D01*
X110668306Y-100921367D01*
X110495905Y-100869069D01*
X110337017Y-100784142D01*
X110197751Y-100669849D01*
X110083458Y-100530583D01*
X109998531Y-100371695D01*
X109946233Y-100199294D01*
X109928575Y-100020000D01*
X109946233Y-99840706D01*
X109998531Y-99668305D01*
X110083458Y-99509417D01*
X110197751Y-99370151D01*
X110337017Y-99255858D01*
X110495905Y-99170931D01*
X110668306Y-99118633D01*
X110802669Y-99105400D01*
X111197331Y-99105400D01*
X111331694Y-99118633D01*
G37*
G36*
X88471694Y-99118633D02*
G01*
X88644095Y-99170931D01*
X88802983Y-99255858D01*
X88942249Y-99370151D01*
X89056542Y-99509417D01*
X89141469Y-99668305D01*
X89193767Y-99840706D01*
X89211425Y-100020000D01*
X89193767Y-100199294D01*
X89141469Y-100371695D01*
X89056542Y-100530583D01*
X88942249Y-100669849D01*
X88802983Y-100784142D01*
X88644095Y-100869069D01*
X88471694Y-100921367D01*
X88337331Y-100934600D01*
X87942669Y-100934600D01*
X87808306Y-100921367D01*
X87635905Y-100869069D01*
X87477017Y-100784142D01*
X87337751Y-100669849D01*
X87223458Y-100530583D01*
X87138531Y-100371695D01*
X87086233Y-100199294D01*
X87068575Y-100020000D01*
X87086233Y-99840706D01*
X87138531Y-99668305D01*
X87223458Y-99509417D01*
X87337751Y-99370151D01*
X87477017Y-99255858D01*
X87635905Y-99170931D01*
X87808306Y-99118633D01*
X87942669Y-99105400D01*
X88337331Y-99105400D01*
X88471694Y-99118633D01*
G37*
G36*
X80877618Y-97958420D02*
G01*
X80968404Y-97985960D01*
X81000336Y-97995646D01*
X81113425Y-98056094D01*
X81212554Y-98137446D01*
X81293906Y-98236575D01*
X81354354Y-98349664D01*
X81354355Y-98349668D01*
X81391580Y-98472382D01*
X81401000Y-98568027D01*
X81401000Y-99831973D01*
X81391580Y-99927618D01*
X81364040Y-100018404D01*
X81354354Y-100050336D01*
X81293906Y-100163425D01*
X81212554Y-100262553D01*
X81113424Y-100343906D01*
X81000335Y-100404354D01*
X80968403Y-100414040D01*
X80877617Y-100441580D01*
X80750000Y-100454149D01*
X80622382Y-100441580D01*
X80531596Y-100414040D01*
X80499664Y-100404354D01*
X80386575Y-100343906D01*
X80287447Y-100262554D01*
X80206094Y-100163424D01*
X80145646Y-100050335D01*
X80135960Y-100018403D01*
X80108420Y-99927617D01*
X80099000Y-99831972D01*
X80099001Y-98568027D01*
X80108421Y-98472382D01*
X80145646Y-98349668D01*
X80145647Y-98349664D01*
X80206095Y-98236575D01*
X80287447Y-98137446D01*
X80386576Y-98056094D01*
X80499665Y-97995646D01*
X80531597Y-97985960D01*
X80622383Y-97958420D01*
X80750000Y-97945851D01*
X80877618Y-97958420D01*
G37*
G36*
X71377618Y-97958420D02*
G01*
X71468404Y-97985960D01*
X71500336Y-97995646D01*
X71613425Y-98056094D01*
X71712554Y-98137446D01*
X71793906Y-98236575D01*
X71854354Y-98349664D01*
X71854355Y-98349668D01*
X71891580Y-98472382D01*
X71901000Y-98568027D01*
X71901000Y-99831973D01*
X71891580Y-99927618D01*
X71864040Y-100018404D01*
X71854354Y-100050336D01*
X71793906Y-100163425D01*
X71712554Y-100262553D01*
X71613424Y-100343906D01*
X71500335Y-100404354D01*
X71468403Y-100414040D01*
X71377617Y-100441580D01*
X71250000Y-100454149D01*
X71122382Y-100441580D01*
X71031596Y-100414040D01*
X70999664Y-100404354D01*
X70886575Y-100343906D01*
X70787447Y-100262554D01*
X70706094Y-100163424D01*
X70645646Y-100050335D01*
X70635960Y-100018403D01*
X70608420Y-99927617D01*
X70599000Y-99831972D01*
X70599001Y-98568027D01*
X70608421Y-98472382D01*
X70645646Y-98349668D01*
X70645647Y-98349664D01*
X70706095Y-98236575D01*
X70787447Y-98137446D01*
X70886576Y-98056094D01*
X70999665Y-97995646D01*
X71031597Y-97985960D01*
X71122383Y-97958420D01*
X71250000Y-97945851D01*
X71377618Y-97958420D01*
G37*
G36*
X88471694Y-96578633D02*
G01*
X88644095Y-96630931D01*
X88802983Y-96715858D01*
X88942249Y-96830151D01*
X89056542Y-96969417D01*
X89141469Y-97128305D01*
X89193767Y-97300706D01*
X89211425Y-97480000D01*
X89193767Y-97659294D01*
X89141469Y-97831695D01*
X89056542Y-97990583D01*
X88942249Y-98129849D01*
X88802983Y-98244142D01*
X88644095Y-98329069D01*
X88471694Y-98381367D01*
X88337331Y-98394600D01*
X87942669Y-98394600D01*
X87808306Y-98381367D01*
X87635905Y-98329069D01*
X87477017Y-98244142D01*
X87337751Y-98129849D01*
X87223458Y-97990583D01*
X87138531Y-97831695D01*
X87086233Y-97659294D01*
X87068575Y-97480000D01*
X87086233Y-97300706D01*
X87138531Y-97128305D01*
X87223458Y-96969417D01*
X87337751Y-96830151D01*
X87477017Y-96715858D01*
X87635905Y-96630931D01*
X87808306Y-96578633D01*
X87942669Y-96565400D01*
X88337331Y-96565400D01*
X88471694Y-96578633D01*
G37*
G36*
X111331694Y-96578633D02*
G01*
X111504095Y-96630931D01*
X111662983Y-96715858D01*
X111802249Y-96830151D01*
X111916542Y-96969417D01*
X112001469Y-97128305D01*
X112053767Y-97300706D01*
X112071425Y-97480000D01*
X112053767Y-97659294D01*
X112001469Y-97831695D01*
X111916542Y-97990583D01*
X111802249Y-98129849D01*
X111662983Y-98244142D01*
X111504095Y-98329069D01*
X111331694Y-98381367D01*
X111197331Y-98394600D01*
X110802669Y-98394600D01*
X110668306Y-98381367D01*
X110495905Y-98329069D01*
X110337017Y-98244142D01*
X110197751Y-98129849D01*
X110083458Y-97990583D01*
X109998531Y-97831695D01*
X109946233Y-97659294D01*
X109928575Y-97480000D01*
X109946233Y-97300706D01*
X109998531Y-97128305D01*
X110083458Y-96969417D01*
X110197751Y-96830151D01*
X110337017Y-96715858D01*
X110495905Y-96630931D01*
X110668306Y-96578633D01*
X110802669Y-96565400D01*
X111197331Y-96565400D01*
X111331694Y-96578633D01*
G37*
G36*
X76960443Y-94105519D02*
G01*
X77026627Y-94112037D01*
X77196466Y-94163557D01*
X77352991Y-94247222D01*
X77388729Y-94276552D01*
X77490186Y-94359814D01*
X77573448Y-94461271D01*
X77602778Y-94497009D01*
X77686443Y-94653534D01*
X77737963Y-94823373D01*
X77755359Y-95000000D01*
X77737963Y-95176627D01*
X77686443Y-95346466D01*
X77602778Y-95502991D01*
X77573448Y-95538729D01*
X77490186Y-95640186D01*
X77388729Y-95723448D01*
X77352991Y-95752778D01*
X77196466Y-95836443D01*
X77026627Y-95887963D01*
X76960443Y-95894481D01*
X76894260Y-95901000D01*
X75105740Y-95901000D01*
X75039557Y-95894481D01*
X74973373Y-95887963D01*
X74803534Y-95836443D01*
X74647009Y-95752778D01*
X74611271Y-95723448D01*
X74509814Y-95640186D01*
X74426552Y-95538729D01*
X74397222Y-95502991D01*
X74313557Y-95346466D01*
X74262037Y-95176627D01*
X74244641Y-95000000D01*
X74262037Y-94823373D01*
X74313557Y-94653534D01*
X74397222Y-94497009D01*
X74426552Y-94461271D01*
X74509814Y-94359814D01*
X74611271Y-94276552D01*
X74647009Y-94247222D01*
X74803534Y-94163557D01*
X74973373Y-94112037D01*
X75039557Y-94105519D01*
X75105740Y-94099000D01*
X76894260Y-94099000D01*
X76960443Y-94105519D01*
G37*
G36*
X111331694Y-94038633D02*
G01*
X111504095Y-94090931D01*
X111662983Y-94175858D01*
X111802249Y-94290151D01*
X111916542Y-94429417D01*
X112001469Y-94588305D01*
X112053767Y-94760706D01*
X112071425Y-94940000D01*
X112053767Y-95119294D01*
X112001469Y-95291695D01*
X111916542Y-95450583D01*
X111802249Y-95589849D01*
X111662983Y-95704142D01*
X111504095Y-95789069D01*
X111331694Y-95841367D01*
X111197331Y-95854600D01*
X110802669Y-95854600D01*
X110668306Y-95841367D01*
X110495905Y-95789069D01*
X110337017Y-95704142D01*
X110197751Y-95589849D01*
X110083458Y-95450583D01*
X109998531Y-95291695D01*
X109946233Y-95119294D01*
X109928575Y-94940000D01*
X109946233Y-94760706D01*
X109998531Y-94588305D01*
X110083458Y-94429417D01*
X110197751Y-94290151D01*
X110337017Y-94175858D01*
X110495905Y-94090931D01*
X110668306Y-94038633D01*
X110802669Y-94025400D01*
X111197331Y-94025400D01*
X111331694Y-94038633D01*
G37*
G36*
X88471694Y-94038633D02*
G01*
X88644095Y-94090931D01*
X88802983Y-94175858D01*
X88942249Y-94290151D01*
X89056542Y-94429417D01*
X89141469Y-94588305D01*
X89193767Y-94760706D01*
X89211425Y-94940000D01*
X89193767Y-95119294D01*
X89141469Y-95291695D01*
X89056542Y-95450583D01*
X88942249Y-95589849D01*
X88802983Y-95704142D01*
X88644095Y-95789069D01*
X88471694Y-95841367D01*
X88337331Y-95854600D01*
X87942669Y-95854600D01*
X87808306Y-95841367D01*
X87635905Y-95789069D01*
X87477017Y-95704142D01*
X87337751Y-95589849D01*
X87223458Y-95450583D01*
X87138531Y-95291695D01*
X87086233Y-95119294D01*
X87068575Y-94940000D01*
X87086233Y-94760706D01*
X87138531Y-94588305D01*
X87223458Y-94429417D01*
X87337751Y-94290151D01*
X87477017Y-94175858D01*
X87635905Y-94090931D01*
X87808306Y-94038633D01*
X87942669Y-94025400D01*
X88337331Y-94025400D01*
X88471694Y-94038633D01*
G37*
G36*
X80877618Y-93258420D02*
G01*
X80968404Y-93285960D01*
X81000336Y-93295646D01*
X81113425Y-93356094D01*
X81212554Y-93437446D01*
X81293906Y-93536575D01*
X81354354Y-93649664D01*
X81354355Y-93649668D01*
X81391580Y-93772382D01*
X81401000Y-93868027D01*
X81401000Y-95131973D01*
X81391580Y-95227618D01*
X81372142Y-95291695D01*
X81354354Y-95350336D01*
X81293906Y-95463425D01*
X81212554Y-95562553D01*
X81113424Y-95643906D01*
X81000335Y-95704354D01*
X80968403Y-95714040D01*
X80877617Y-95741580D01*
X80750000Y-95754149D01*
X80622382Y-95741580D01*
X80531596Y-95714040D01*
X80499664Y-95704354D01*
X80386575Y-95643906D01*
X80287447Y-95562554D01*
X80206094Y-95463424D01*
X80145646Y-95350335D01*
X80127858Y-95291695D01*
X80108420Y-95227617D01*
X80099000Y-95131972D01*
X80099001Y-93868027D01*
X80108421Y-93772382D01*
X80145646Y-93649668D01*
X80145647Y-93649664D01*
X80206095Y-93536575D01*
X80287447Y-93437446D01*
X80386576Y-93356094D01*
X80499665Y-93295646D01*
X80531597Y-93285960D01*
X80622383Y-93258420D01*
X80750000Y-93245851D01*
X80877618Y-93258420D01*
G37*
G36*
X71377618Y-93258420D02*
G01*
X71468404Y-93285960D01*
X71500336Y-93295646D01*
X71613425Y-93356094D01*
X71712554Y-93437446D01*
X71793906Y-93536575D01*
X71854354Y-93649664D01*
X71854355Y-93649668D01*
X71891580Y-93772382D01*
X71901000Y-93868027D01*
X71901000Y-95131973D01*
X71891580Y-95227618D01*
X71872142Y-95291695D01*
X71854354Y-95350336D01*
X71793906Y-95463425D01*
X71712554Y-95562553D01*
X71613424Y-95643906D01*
X71500335Y-95704354D01*
X71468403Y-95714040D01*
X71377617Y-95741580D01*
X71250000Y-95754149D01*
X71122382Y-95741580D01*
X71031596Y-95714040D01*
X70999664Y-95704354D01*
X70886575Y-95643906D01*
X70787447Y-95562554D01*
X70706094Y-95463424D01*
X70645646Y-95350335D01*
X70627858Y-95291695D01*
X70608420Y-95227617D01*
X70599000Y-95131972D01*
X70599001Y-93868027D01*
X70608421Y-93772382D01*
X70645646Y-93649668D01*
X70645647Y-93649664D01*
X70706095Y-93536575D01*
X70787447Y-93437446D01*
X70886576Y-93356094D01*
X70999665Y-93295646D01*
X71031597Y-93285960D01*
X71122383Y-93258420D01*
X71250000Y-93245851D01*
X71377618Y-93258420D01*
G37*
G36*
X76248228Y-90931703D02*
G01*
X76403100Y-90995853D01*
X76542481Y-91088985D01*
X76661015Y-91207519D01*
X76754147Y-91346900D01*
X76818297Y-91501772D01*
X76851000Y-91666184D01*
X76851000Y-91833816D01*
X76818297Y-91998228D01*
X76754147Y-92153100D01*
X76661015Y-92292481D01*
X76542481Y-92411015D01*
X76403100Y-92504147D01*
X76248228Y-92568297D01*
X76083816Y-92601000D01*
X75916184Y-92601000D01*
X75751772Y-92568297D01*
X75596900Y-92504147D01*
X75457519Y-92411015D01*
X75338985Y-92292481D01*
X75245853Y-92153100D01*
X75181703Y-91998228D01*
X75149000Y-91833816D01*
X75149000Y-91666184D01*
X75181703Y-91501772D01*
X75245853Y-91346900D01*
X75338985Y-91207519D01*
X75457519Y-91088985D01*
X75596900Y-90995853D01*
X75751772Y-90931703D01*
X75916184Y-90899000D01*
X76083816Y-90899000D01*
X76248228Y-90931703D01*
G37*
G36*
X53837797Y-88400567D02*
G01*
X53892575Y-88423257D01*
X53892577Y-88423258D01*
X53941876Y-88456198D01*
X53983802Y-88498124D01*
X54016742Y-88547423D01*
X54021067Y-88553896D01*
X54036612Y-88572838D01*
X54055554Y-88588383D01*
X54077165Y-88599934D01*
X54100614Y-88607047D01*
X54125000Y-88609449D01*
X54149386Y-88607047D01*
X54172835Y-88599934D01*
X54194446Y-88588383D01*
X54213388Y-88572838D01*
X54228933Y-88553896D01*
X54233258Y-88547423D01*
X54266198Y-88498124D01*
X54308124Y-88456198D01*
X54357423Y-88423258D01*
X54357425Y-88423257D01*
X54412203Y-88400567D01*
X54470353Y-88389000D01*
X54529647Y-88389000D01*
X54587797Y-88400567D01*
X54642575Y-88423257D01*
X54642577Y-88423258D01*
X54691876Y-88456198D01*
X54733802Y-88498124D01*
X54766742Y-88547423D01*
X54771067Y-88553896D01*
X54786612Y-88572838D01*
X54805554Y-88588383D01*
X54827165Y-88599934D01*
X54850614Y-88607047D01*
X54875000Y-88609449D01*
X54899386Y-88607047D01*
X54922835Y-88599934D01*
X54944446Y-88588383D01*
X54963388Y-88572838D01*
X54978933Y-88553896D01*
X54983258Y-88547423D01*
X55016198Y-88498124D01*
X55058124Y-88456198D01*
X55107423Y-88423258D01*
X55107425Y-88423257D01*
X55162203Y-88400567D01*
X55220353Y-88389000D01*
X55279647Y-88389000D01*
X55337797Y-88400567D01*
X55392575Y-88423257D01*
X55392577Y-88423258D01*
X55441876Y-88456198D01*
X55483802Y-88498124D01*
X55516742Y-88547423D01*
X55516743Y-88547425D01*
X55539433Y-88602203D01*
X55551000Y-88660353D01*
X55551000Y-88719647D01*
X55539433Y-88777797D01*
X55519423Y-88826104D01*
X55516742Y-88832577D01*
X55483802Y-88881876D01*
X55441876Y-88923802D01*
X55392577Y-88956742D01*
X55392576Y-88956743D01*
X55392575Y-88956743D01*
X55337797Y-88979433D01*
X55279647Y-88991000D01*
X55220353Y-88991000D01*
X55162203Y-88979433D01*
X55107425Y-88956743D01*
X55107424Y-88956743D01*
X55107423Y-88956742D01*
X55058124Y-88923802D01*
X55016198Y-88881876D01*
X54983258Y-88832577D01*
X54983257Y-88832575D01*
X54978933Y-88826104D01*
X54963388Y-88807162D01*
X54944446Y-88791617D01*
X54922835Y-88780066D01*
X54899386Y-88772953D01*
X54875000Y-88770551D01*
X54850614Y-88772953D01*
X54827165Y-88780066D01*
X54805554Y-88791617D01*
X54786612Y-88807162D01*
X54771067Y-88826104D01*
X54766743Y-88832575D01*
X54766742Y-88832577D01*
X54733802Y-88881876D01*
X54691876Y-88923802D01*
X54642577Y-88956742D01*
X54642576Y-88956743D01*
X54642575Y-88956743D01*
X54587797Y-88979433D01*
X54529647Y-88991000D01*
X54470353Y-88991000D01*
X54412203Y-88979433D01*
X54357425Y-88956743D01*
X54357424Y-88956743D01*
X54357423Y-88956742D01*
X54308124Y-88923802D01*
X54266198Y-88881876D01*
X54233258Y-88832577D01*
X54233257Y-88832575D01*
X54228933Y-88826104D01*
X54213388Y-88807162D01*
X54194446Y-88791617D01*
X54172835Y-88780066D01*
X54149386Y-88772953D01*
X54125000Y-88770551D01*
X54100614Y-88772953D01*
X54077165Y-88780066D01*
X54055554Y-88791617D01*
X54036612Y-88807162D01*
X54021067Y-88826104D01*
X54016743Y-88832575D01*
X54016742Y-88832577D01*
X53983802Y-88881876D01*
X53941876Y-88923802D01*
X53892577Y-88956742D01*
X53892576Y-88956743D01*
X53892575Y-88956743D01*
X53837797Y-88979433D01*
X53779647Y-88991000D01*
X53720353Y-88991000D01*
X53662203Y-88979433D01*
X53607425Y-88956743D01*
X53607424Y-88956743D01*
X53607423Y-88956742D01*
X53558124Y-88923802D01*
X53516198Y-88881876D01*
X53483258Y-88832577D01*
X53480577Y-88826104D01*
X53460567Y-88777797D01*
X53449000Y-88719647D01*
X53449000Y-88660353D01*
X53460567Y-88602203D01*
X53483257Y-88547425D01*
X53483258Y-88547423D01*
X53516198Y-88498124D01*
X53558124Y-88456198D01*
X53607423Y-88423258D01*
X53607425Y-88423257D01*
X53662203Y-88400567D01*
X53720353Y-88389000D01*
X53779647Y-88389000D01*
X53837797Y-88400567D01*
G37*
G36*
X78837797Y-88400567D02*
G01*
X78892575Y-88423257D01*
X78892577Y-88423258D01*
X78941876Y-88456198D01*
X78983802Y-88498124D01*
X79016742Y-88547423D01*
X79021067Y-88553896D01*
X79036612Y-88572838D01*
X79055554Y-88588383D01*
X79077165Y-88599934D01*
X79100614Y-88607047D01*
X79125000Y-88609449D01*
X79149386Y-88607047D01*
X79172835Y-88599934D01*
X79194446Y-88588383D01*
X79213388Y-88572838D01*
X79228933Y-88553896D01*
X79233258Y-88547423D01*
X79266198Y-88498124D01*
X79308124Y-88456198D01*
X79357423Y-88423258D01*
X79357425Y-88423257D01*
X79412203Y-88400567D01*
X79470353Y-88389000D01*
X79529647Y-88389000D01*
X79587797Y-88400567D01*
X79642575Y-88423257D01*
X79642577Y-88423258D01*
X79691876Y-88456198D01*
X79733802Y-88498124D01*
X79766742Y-88547423D01*
X79771067Y-88553896D01*
X79786612Y-88572838D01*
X79805554Y-88588383D01*
X79827165Y-88599934D01*
X79850614Y-88607047D01*
X79875000Y-88609449D01*
X79899386Y-88607047D01*
X79922835Y-88599934D01*
X79944446Y-88588383D01*
X79963388Y-88572838D01*
X79978933Y-88553896D01*
X79983258Y-88547423D01*
X80016198Y-88498124D01*
X80058124Y-88456198D01*
X80107423Y-88423258D01*
X80107425Y-88423257D01*
X80162203Y-88400567D01*
X80220353Y-88389000D01*
X80279647Y-88389000D01*
X80337797Y-88400567D01*
X80392575Y-88423257D01*
X80392577Y-88423258D01*
X80441876Y-88456198D01*
X80483802Y-88498124D01*
X80516742Y-88547423D01*
X80516743Y-88547425D01*
X80539433Y-88602203D01*
X80551000Y-88660353D01*
X80551000Y-88719647D01*
X80539433Y-88777797D01*
X80519423Y-88826104D01*
X80516742Y-88832577D01*
X80483802Y-88881876D01*
X80441876Y-88923802D01*
X80392577Y-88956742D01*
X80392576Y-88956743D01*
X80392575Y-88956743D01*
X80337797Y-88979433D01*
X80279647Y-88991000D01*
X80220353Y-88991000D01*
X80162203Y-88979433D01*
X80107425Y-88956743D01*
X80107424Y-88956743D01*
X80107423Y-88956742D01*
X80058124Y-88923802D01*
X80016198Y-88881876D01*
X79983258Y-88832577D01*
X79983257Y-88832575D01*
X79978933Y-88826104D01*
X79963388Y-88807162D01*
X79944446Y-88791617D01*
X79922835Y-88780066D01*
X79899386Y-88772953D01*
X79875000Y-88770551D01*
X79850614Y-88772953D01*
X79827165Y-88780066D01*
X79805554Y-88791617D01*
X79786612Y-88807162D01*
X79771067Y-88826104D01*
X79766743Y-88832575D01*
X79766742Y-88832577D01*
X79733802Y-88881876D01*
X79691876Y-88923802D01*
X79642577Y-88956742D01*
X79642576Y-88956743D01*
X79642575Y-88956743D01*
X79587797Y-88979433D01*
X79529647Y-88991000D01*
X79470353Y-88991000D01*
X79412203Y-88979433D01*
X79357425Y-88956743D01*
X79357424Y-88956743D01*
X79357423Y-88956742D01*
X79308124Y-88923802D01*
X79266198Y-88881876D01*
X79233258Y-88832577D01*
X79233257Y-88832575D01*
X79228933Y-88826104D01*
X79213388Y-88807162D01*
X79194446Y-88791617D01*
X79172835Y-88780066D01*
X79149386Y-88772953D01*
X79125000Y-88770551D01*
X79100614Y-88772953D01*
X79077165Y-88780066D01*
X79055554Y-88791617D01*
X79036612Y-88807162D01*
X79021067Y-88826104D01*
X79016743Y-88832575D01*
X79016742Y-88832577D01*
X78983802Y-88881876D01*
X78941876Y-88923802D01*
X78892577Y-88956742D01*
X78892576Y-88956743D01*
X78892575Y-88956743D01*
X78837797Y-88979433D01*
X78779647Y-88991000D01*
X78720353Y-88991000D01*
X78662203Y-88979433D01*
X78607425Y-88956743D01*
X78607424Y-88956743D01*
X78607423Y-88956742D01*
X78558124Y-88923802D01*
X78516198Y-88881876D01*
X78483258Y-88832577D01*
X78480577Y-88826104D01*
X78460567Y-88777797D01*
X78449000Y-88719647D01*
X78449000Y-88660353D01*
X78460567Y-88602203D01*
X78483257Y-88547425D01*
X78483258Y-88547423D01*
X78516198Y-88498124D01*
X78558124Y-88456198D01*
X78607423Y-88423258D01*
X78607425Y-88423257D01*
X78662203Y-88400567D01*
X78720353Y-88389000D01*
X78779647Y-88389000D01*
X78837797Y-88400567D01*
G37*
G36*
X107837797Y-88400567D02*
G01*
X107892575Y-88423257D01*
X107892577Y-88423258D01*
X107941876Y-88456198D01*
X107983802Y-88498124D01*
X108016742Y-88547423D01*
X108021067Y-88553896D01*
X108036612Y-88572838D01*
X108055554Y-88588383D01*
X108077165Y-88599934D01*
X108100614Y-88607047D01*
X108125000Y-88609449D01*
X108149386Y-88607047D01*
X108172835Y-88599934D01*
X108194446Y-88588383D01*
X108213388Y-88572838D01*
X108228933Y-88553896D01*
X108233258Y-88547423D01*
X108266198Y-88498124D01*
X108308124Y-88456198D01*
X108357423Y-88423258D01*
X108357425Y-88423257D01*
X108412203Y-88400567D01*
X108470353Y-88389000D01*
X108529647Y-88389000D01*
X108587797Y-88400567D01*
X108642575Y-88423257D01*
X108642577Y-88423258D01*
X108691876Y-88456198D01*
X108733802Y-88498124D01*
X108766742Y-88547423D01*
X108771067Y-88553896D01*
X108786612Y-88572838D01*
X108805554Y-88588383D01*
X108827165Y-88599934D01*
X108850614Y-88607047D01*
X108875000Y-88609449D01*
X108899386Y-88607047D01*
X108922835Y-88599934D01*
X108944446Y-88588383D01*
X108963388Y-88572838D01*
X108978933Y-88553896D01*
X108983258Y-88547423D01*
X109016198Y-88498124D01*
X109058124Y-88456198D01*
X109107423Y-88423258D01*
X109107425Y-88423257D01*
X109162203Y-88400567D01*
X109220353Y-88389000D01*
X109279647Y-88389000D01*
X109337797Y-88400567D01*
X109392575Y-88423257D01*
X109392577Y-88423258D01*
X109441876Y-88456198D01*
X109483802Y-88498124D01*
X109516742Y-88547423D01*
X109516743Y-88547425D01*
X109539433Y-88602203D01*
X109551000Y-88660353D01*
X109551000Y-88719647D01*
X109539433Y-88777797D01*
X109519423Y-88826104D01*
X109516742Y-88832577D01*
X109483802Y-88881876D01*
X109441876Y-88923802D01*
X109392577Y-88956742D01*
X109392576Y-88956743D01*
X109392575Y-88956743D01*
X109337797Y-88979433D01*
X109279647Y-88991000D01*
X109220353Y-88991000D01*
X109162203Y-88979433D01*
X109107425Y-88956743D01*
X109107424Y-88956743D01*
X109107423Y-88956742D01*
X109058124Y-88923802D01*
X109016198Y-88881876D01*
X108983258Y-88832577D01*
X108983257Y-88832575D01*
X108978933Y-88826104D01*
X108963388Y-88807162D01*
X108944446Y-88791617D01*
X108922835Y-88780066D01*
X108899386Y-88772953D01*
X108875000Y-88770551D01*
X108850614Y-88772953D01*
X108827165Y-88780066D01*
X108805554Y-88791617D01*
X108786612Y-88807162D01*
X108771067Y-88826104D01*
X108766743Y-88832575D01*
X108766742Y-88832577D01*
X108733802Y-88881876D01*
X108691876Y-88923802D01*
X108642577Y-88956742D01*
X108642576Y-88956743D01*
X108642575Y-88956743D01*
X108587797Y-88979433D01*
X108529647Y-88991000D01*
X108470353Y-88991000D01*
X108412203Y-88979433D01*
X108357425Y-88956743D01*
X108357424Y-88956743D01*
X108357423Y-88956742D01*
X108308124Y-88923802D01*
X108266198Y-88881876D01*
X108233258Y-88832577D01*
X108233257Y-88832575D01*
X108228933Y-88826104D01*
X108213388Y-88807162D01*
X108194446Y-88791617D01*
X108172835Y-88780066D01*
X108149386Y-88772953D01*
X108125000Y-88770551D01*
X108100614Y-88772953D01*
X108077165Y-88780066D01*
X108055554Y-88791617D01*
X108036612Y-88807162D01*
X108021067Y-88826104D01*
X108016743Y-88832575D01*
X108016742Y-88832577D01*
X107983802Y-88881876D01*
X107941876Y-88923802D01*
X107892577Y-88956742D01*
X107892576Y-88956743D01*
X107892575Y-88956743D01*
X107837797Y-88979433D01*
X107779647Y-88991000D01*
X107720353Y-88991000D01*
X107662203Y-88979433D01*
X107607425Y-88956743D01*
X107607424Y-88956743D01*
X107607423Y-88956742D01*
X107558124Y-88923802D01*
X107516198Y-88881876D01*
X107483258Y-88832577D01*
X107480577Y-88826104D01*
X107460567Y-88777797D01*
X107449000Y-88719647D01*
X107449000Y-88660353D01*
X107460567Y-88602203D01*
X107483257Y-88547425D01*
X107483258Y-88547423D01*
X107516198Y-88498124D01*
X107558124Y-88456198D01*
X107607423Y-88423258D01*
X107607425Y-88423257D01*
X107662203Y-88400567D01*
X107720353Y-88389000D01*
X107779647Y-88389000D01*
X107837797Y-88400567D01*
G37*
G36*
X53837797Y-86900567D02*
G01*
X53892575Y-86923257D01*
X53892577Y-86923258D01*
X53941876Y-86956198D01*
X53983802Y-86998124D01*
X54016742Y-87047423D01*
X54021067Y-87053896D01*
X54036612Y-87072838D01*
X54055554Y-87088383D01*
X54077165Y-87099934D01*
X54100614Y-87107047D01*
X54125000Y-87109449D01*
X54149386Y-87107047D01*
X54172835Y-87099934D01*
X54194446Y-87088383D01*
X54213388Y-87072838D01*
X54228933Y-87053896D01*
X54233258Y-87047423D01*
X54266198Y-86998124D01*
X54308124Y-86956198D01*
X54357423Y-86923258D01*
X54357425Y-86923257D01*
X54412203Y-86900567D01*
X54470353Y-86889000D01*
X54529647Y-86889000D01*
X54587797Y-86900567D01*
X54642575Y-86923257D01*
X54642577Y-86923258D01*
X54691876Y-86956198D01*
X54733802Y-86998124D01*
X54766742Y-87047423D01*
X54771067Y-87053896D01*
X54786612Y-87072838D01*
X54805554Y-87088383D01*
X54827165Y-87099934D01*
X54850614Y-87107047D01*
X54875000Y-87109449D01*
X54899386Y-87107047D01*
X54922835Y-87099934D01*
X54944446Y-87088383D01*
X54963388Y-87072838D01*
X54978933Y-87053896D01*
X54983258Y-87047423D01*
X55016198Y-86998124D01*
X55058124Y-86956198D01*
X55107423Y-86923258D01*
X55107425Y-86923257D01*
X55162203Y-86900567D01*
X55220353Y-86889000D01*
X55279647Y-86889000D01*
X55337797Y-86900567D01*
X55392575Y-86923257D01*
X55392577Y-86923258D01*
X55441876Y-86956198D01*
X55483802Y-86998124D01*
X55516742Y-87047423D01*
X55516743Y-87047425D01*
X55539433Y-87102203D01*
X55551000Y-87160353D01*
X55551000Y-87219647D01*
X55539433Y-87277797D01*
X55519423Y-87326104D01*
X55516742Y-87332577D01*
X55483802Y-87381876D01*
X55441876Y-87423802D01*
X55392577Y-87456742D01*
X55392576Y-87456743D01*
X55392575Y-87456743D01*
X55337797Y-87479433D01*
X55279647Y-87491000D01*
X55220353Y-87491000D01*
X55162203Y-87479433D01*
X55107425Y-87456743D01*
X55107424Y-87456743D01*
X55107423Y-87456742D01*
X55058124Y-87423802D01*
X55016198Y-87381876D01*
X54983258Y-87332577D01*
X54983257Y-87332575D01*
X54978933Y-87326104D01*
X54963388Y-87307162D01*
X54944446Y-87291617D01*
X54922835Y-87280066D01*
X54899386Y-87272953D01*
X54875000Y-87270551D01*
X54850614Y-87272953D01*
X54827165Y-87280066D01*
X54805554Y-87291617D01*
X54786612Y-87307162D01*
X54771067Y-87326104D01*
X54766743Y-87332575D01*
X54766742Y-87332577D01*
X54733802Y-87381876D01*
X54691876Y-87423802D01*
X54642577Y-87456742D01*
X54642576Y-87456743D01*
X54642575Y-87456743D01*
X54587797Y-87479433D01*
X54529647Y-87491000D01*
X54470353Y-87491000D01*
X54412203Y-87479433D01*
X54357425Y-87456743D01*
X54357424Y-87456743D01*
X54357423Y-87456742D01*
X54308124Y-87423802D01*
X54266198Y-87381876D01*
X54233258Y-87332577D01*
X54233257Y-87332575D01*
X54228933Y-87326104D01*
X54213388Y-87307162D01*
X54194446Y-87291617D01*
X54172835Y-87280066D01*
X54149386Y-87272953D01*
X54125000Y-87270551D01*
X54100614Y-87272953D01*
X54077165Y-87280066D01*
X54055554Y-87291617D01*
X54036612Y-87307162D01*
X54021067Y-87326104D01*
X54016743Y-87332575D01*
X54016742Y-87332577D01*
X53983802Y-87381876D01*
X53941876Y-87423802D01*
X53892577Y-87456742D01*
X53892576Y-87456743D01*
X53892575Y-87456743D01*
X53837797Y-87479433D01*
X53779647Y-87491000D01*
X53720353Y-87491000D01*
X53662203Y-87479433D01*
X53607425Y-87456743D01*
X53607424Y-87456743D01*
X53607423Y-87456742D01*
X53558124Y-87423802D01*
X53516198Y-87381876D01*
X53483258Y-87332577D01*
X53480577Y-87326104D01*
X53460567Y-87277797D01*
X53449000Y-87219647D01*
X53449000Y-87160353D01*
X53460567Y-87102203D01*
X53483257Y-87047425D01*
X53483258Y-87047423D01*
X53516198Y-86998124D01*
X53558124Y-86956198D01*
X53607423Y-86923258D01*
X53607425Y-86923257D01*
X53662203Y-86900567D01*
X53720353Y-86889000D01*
X53779647Y-86889000D01*
X53837797Y-86900567D01*
G37*
G36*
X78837797Y-86900567D02*
G01*
X78892575Y-86923257D01*
X78892577Y-86923258D01*
X78941876Y-86956198D01*
X78983802Y-86998124D01*
X79016742Y-87047423D01*
X79021067Y-87053896D01*
X79036612Y-87072838D01*
X79055554Y-87088383D01*
X79077165Y-87099934D01*
X79100614Y-87107047D01*
X79125000Y-87109449D01*
X79149386Y-87107047D01*
X79172835Y-87099934D01*
X79194446Y-87088383D01*
X79213388Y-87072838D01*
X79228933Y-87053896D01*
X79233258Y-87047423D01*
X79266198Y-86998124D01*
X79308124Y-86956198D01*
X79357423Y-86923258D01*
X79357425Y-86923257D01*
X79412203Y-86900567D01*
X79470353Y-86889000D01*
X79529647Y-86889000D01*
X79587797Y-86900567D01*
X79642575Y-86923257D01*
X79642577Y-86923258D01*
X79691876Y-86956198D01*
X79733802Y-86998124D01*
X79766742Y-87047423D01*
X79771067Y-87053896D01*
X79786612Y-87072838D01*
X79805554Y-87088383D01*
X79827165Y-87099934D01*
X79850614Y-87107047D01*
X79875000Y-87109449D01*
X79899386Y-87107047D01*
X79922835Y-87099934D01*
X79944446Y-87088383D01*
X79963388Y-87072838D01*
X79978933Y-87053896D01*
X79983258Y-87047423D01*
X80016198Y-86998124D01*
X80058124Y-86956198D01*
X80107423Y-86923258D01*
X80107425Y-86923257D01*
X80162203Y-86900567D01*
X80220353Y-86889000D01*
X80279647Y-86889000D01*
X80337797Y-86900567D01*
X80392575Y-86923257D01*
X80392577Y-86923258D01*
X80441876Y-86956198D01*
X80483802Y-86998124D01*
X80516742Y-87047423D01*
X80516743Y-87047425D01*
X80539433Y-87102203D01*
X80551000Y-87160353D01*
X80551000Y-87219647D01*
X80539433Y-87277797D01*
X80519423Y-87326104D01*
X80516742Y-87332577D01*
X80483802Y-87381876D01*
X80441876Y-87423802D01*
X80392577Y-87456742D01*
X80392576Y-87456743D01*
X80392575Y-87456743D01*
X80337797Y-87479433D01*
X80279647Y-87491000D01*
X80220353Y-87491000D01*
X80162203Y-87479433D01*
X80107425Y-87456743D01*
X80107424Y-87456743D01*
X80107423Y-87456742D01*
X80058124Y-87423802D01*
X80016198Y-87381876D01*
X79983258Y-87332577D01*
X79983257Y-87332575D01*
X79978933Y-87326104D01*
X79963388Y-87307162D01*
X79944446Y-87291617D01*
X79922835Y-87280066D01*
X79899386Y-87272953D01*
X79875000Y-87270551D01*
X79850614Y-87272953D01*
X79827165Y-87280066D01*
X79805554Y-87291617D01*
X79786612Y-87307162D01*
X79771067Y-87326104D01*
X79766743Y-87332575D01*
X79766742Y-87332577D01*
X79733802Y-87381876D01*
X79691876Y-87423802D01*
X79642577Y-87456742D01*
X79642576Y-87456743D01*
X79642575Y-87456743D01*
X79587797Y-87479433D01*
X79529647Y-87491000D01*
X79470353Y-87491000D01*
X79412203Y-87479433D01*
X79357425Y-87456743D01*
X79357424Y-87456743D01*
X79357423Y-87456742D01*
X79308124Y-87423802D01*
X79266198Y-87381876D01*
X79233258Y-87332577D01*
X79233257Y-87332575D01*
X79228933Y-87326104D01*
X79213388Y-87307162D01*
X79194446Y-87291617D01*
X79172835Y-87280066D01*
X79149386Y-87272953D01*
X79125000Y-87270551D01*
X79100614Y-87272953D01*
X79077165Y-87280066D01*
X79055554Y-87291617D01*
X79036612Y-87307162D01*
X79021067Y-87326104D01*
X79016743Y-87332575D01*
X79016742Y-87332577D01*
X78983802Y-87381876D01*
X78941876Y-87423802D01*
X78892577Y-87456742D01*
X78892576Y-87456743D01*
X78892575Y-87456743D01*
X78837797Y-87479433D01*
X78779647Y-87491000D01*
X78720353Y-87491000D01*
X78662203Y-87479433D01*
X78607425Y-87456743D01*
X78607424Y-87456743D01*
X78607423Y-87456742D01*
X78558124Y-87423802D01*
X78516198Y-87381876D01*
X78483258Y-87332577D01*
X78480577Y-87326104D01*
X78460567Y-87277797D01*
X78449000Y-87219647D01*
X78449000Y-87160353D01*
X78460567Y-87102203D01*
X78483257Y-87047425D01*
X78483258Y-87047423D01*
X78516198Y-86998124D01*
X78558124Y-86956198D01*
X78607423Y-86923258D01*
X78607425Y-86923257D01*
X78662203Y-86900567D01*
X78720353Y-86889000D01*
X78779647Y-86889000D01*
X78837797Y-86900567D01*
G37*
G36*
X107837797Y-86900567D02*
G01*
X107892575Y-86923257D01*
X107892577Y-86923258D01*
X107941876Y-86956198D01*
X107983802Y-86998124D01*
X108016742Y-87047423D01*
X108021067Y-87053896D01*
X108036612Y-87072838D01*
X108055554Y-87088383D01*
X108077165Y-87099934D01*
X108100614Y-87107047D01*
X108125000Y-87109449D01*
X108149386Y-87107047D01*
X108172835Y-87099934D01*
X108194446Y-87088383D01*
X108213388Y-87072838D01*
X108228933Y-87053896D01*
X108233258Y-87047423D01*
X108266198Y-86998124D01*
X108308124Y-86956198D01*
X108357423Y-86923258D01*
X108357425Y-86923257D01*
X108412203Y-86900567D01*
X108470353Y-86889000D01*
X108529647Y-86889000D01*
X108587797Y-86900567D01*
X108642575Y-86923257D01*
X108642577Y-86923258D01*
X108691876Y-86956198D01*
X108733802Y-86998124D01*
X108766742Y-87047423D01*
X108771067Y-87053896D01*
X108786612Y-87072838D01*
X108805554Y-87088383D01*
X108827165Y-87099934D01*
X108850614Y-87107047D01*
X108875000Y-87109449D01*
X108899386Y-87107047D01*
X108922835Y-87099934D01*
X108944446Y-87088383D01*
X108963388Y-87072838D01*
X108978933Y-87053896D01*
X108983258Y-87047423D01*
X109016198Y-86998124D01*
X109058124Y-86956198D01*
X109107423Y-86923258D01*
X109107425Y-86923257D01*
X109162203Y-86900567D01*
X109220353Y-86889000D01*
X109279647Y-86889000D01*
X109337797Y-86900567D01*
X109392575Y-86923257D01*
X109392577Y-86923258D01*
X109441876Y-86956198D01*
X109483802Y-86998124D01*
X109516742Y-87047423D01*
X109516743Y-87047425D01*
X109539433Y-87102203D01*
X109551000Y-87160353D01*
X109551000Y-87219647D01*
X109539433Y-87277797D01*
X109519423Y-87326104D01*
X109516742Y-87332577D01*
X109483802Y-87381876D01*
X109441876Y-87423802D01*
X109392577Y-87456742D01*
X109392576Y-87456743D01*
X109392575Y-87456743D01*
X109337797Y-87479433D01*
X109279647Y-87491000D01*
X109220353Y-87491000D01*
X109162203Y-87479433D01*
X109107425Y-87456743D01*
X109107424Y-87456743D01*
X109107423Y-87456742D01*
X109058124Y-87423802D01*
X109016198Y-87381876D01*
X108983258Y-87332577D01*
X108983257Y-87332575D01*
X108978933Y-87326104D01*
X108963388Y-87307162D01*
X108944446Y-87291617D01*
X108922835Y-87280066D01*
X108899386Y-87272953D01*
X108875000Y-87270551D01*
X108850614Y-87272953D01*
X108827165Y-87280066D01*
X108805554Y-87291617D01*
X108786612Y-87307162D01*
X108771067Y-87326104D01*
X108766743Y-87332575D01*
X108766742Y-87332577D01*
X108733802Y-87381876D01*
X108691876Y-87423802D01*
X108642577Y-87456742D01*
X108642576Y-87456743D01*
X108642575Y-87456743D01*
X108587797Y-87479433D01*
X108529647Y-87491000D01*
X108470353Y-87491000D01*
X108412203Y-87479433D01*
X108357425Y-87456743D01*
X108357424Y-87456743D01*
X108357423Y-87456742D01*
X108308124Y-87423802D01*
X108266198Y-87381876D01*
X108233258Y-87332577D01*
X108233257Y-87332575D01*
X108228933Y-87326104D01*
X108213388Y-87307162D01*
X108194446Y-87291617D01*
X108172835Y-87280066D01*
X108149386Y-87272953D01*
X108125000Y-87270551D01*
X108100614Y-87272953D01*
X108077165Y-87280066D01*
X108055554Y-87291617D01*
X108036612Y-87307162D01*
X108021067Y-87326104D01*
X108016743Y-87332575D01*
X108016742Y-87332577D01*
X107983802Y-87381876D01*
X107941876Y-87423802D01*
X107892577Y-87456742D01*
X107892576Y-87456743D01*
X107892575Y-87456743D01*
X107837797Y-87479433D01*
X107779647Y-87491000D01*
X107720353Y-87491000D01*
X107662203Y-87479433D01*
X107607425Y-87456743D01*
X107607424Y-87456743D01*
X107607423Y-87456742D01*
X107558124Y-87423802D01*
X107516198Y-87381876D01*
X107483258Y-87332577D01*
X107480577Y-87326104D01*
X107460567Y-87277797D01*
X107449000Y-87219647D01*
X107449000Y-87160353D01*
X107460567Y-87102203D01*
X107483257Y-87047425D01*
X107483258Y-87047423D01*
X107516198Y-86998124D01*
X107558124Y-86956198D01*
X107607423Y-86923258D01*
X107607425Y-86923257D01*
X107662203Y-86900567D01*
X107720353Y-86889000D01*
X107779647Y-86889000D01*
X107837797Y-86900567D01*
G37*
G36*
X107837797Y-84460567D02*
G01*
X107892575Y-84483257D01*
X107892577Y-84483258D01*
X107941876Y-84516198D01*
X107983802Y-84558124D01*
X108016742Y-84607423D01*
X108021067Y-84613896D01*
X108036612Y-84632838D01*
X108055554Y-84648383D01*
X108077165Y-84659934D01*
X108100614Y-84667047D01*
X108125000Y-84669449D01*
X108149386Y-84667047D01*
X108172835Y-84659934D01*
X108194446Y-84648383D01*
X108213388Y-84632838D01*
X108228933Y-84613896D01*
X108233258Y-84607423D01*
X108266198Y-84558124D01*
X108308124Y-84516198D01*
X108357423Y-84483258D01*
X108357425Y-84483257D01*
X108412203Y-84460567D01*
X108470353Y-84449000D01*
X108529647Y-84449000D01*
X108587797Y-84460567D01*
X108642575Y-84483257D01*
X108642577Y-84483258D01*
X108691876Y-84516198D01*
X108733802Y-84558124D01*
X108766742Y-84607423D01*
X108771067Y-84613896D01*
X108786612Y-84632838D01*
X108805554Y-84648383D01*
X108827165Y-84659934D01*
X108850614Y-84667047D01*
X108875000Y-84669449D01*
X108899386Y-84667047D01*
X108922835Y-84659934D01*
X108944446Y-84648383D01*
X108963388Y-84632838D01*
X108978933Y-84613896D01*
X108983258Y-84607423D01*
X109016198Y-84558124D01*
X109058124Y-84516198D01*
X109107423Y-84483258D01*
X109107425Y-84483257D01*
X109162203Y-84460567D01*
X109220353Y-84449000D01*
X109279647Y-84449000D01*
X109337797Y-84460567D01*
X109392575Y-84483257D01*
X109392577Y-84483258D01*
X109441876Y-84516198D01*
X109483802Y-84558124D01*
X109516742Y-84607423D01*
X109516743Y-84607425D01*
X109539433Y-84662203D01*
X109551000Y-84720353D01*
X109551000Y-84779647D01*
X109539433Y-84837797D01*
X109519423Y-84886104D01*
X109516742Y-84892577D01*
X109483802Y-84941876D01*
X109441876Y-84983802D01*
X109392577Y-85016742D01*
X109392576Y-85016743D01*
X109392575Y-85016743D01*
X109337797Y-85039433D01*
X109279647Y-85051000D01*
X109220353Y-85051000D01*
X109162203Y-85039433D01*
X109107425Y-85016743D01*
X109107424Y-85016743D01*
X109107423Y-85016742D01*
X109058124Y-84983802D01*
X109016198Y-84941876D01*
X108983258Y-84892577D01*
X108983257Y-84892575D01*
X108978933Y-84886104D01*
X108963388Y-84867162D01*
X108944446Y-84851617D01*
X108922835Y-84840066D01*
X108899386Y-84832953D01*
X108875000Y-84830551D01*
X108850614Y-84832953D01*
X108827165Y-84840066D01*
X108805554Y-84851617D01*
X108786612Y-84867162D01*
X108771067Y-84886104D01*
X108766743Y-84892575D01*
X108766742Y-84892577D01*
X108733802Y-84941876D01*
X108691876Y-84983802D01*
X108642577Y-85016742D01*
X108642576Y-85016743D01*
X108642575Y-85016743D01*
X108587797Y-85039433D01*
X108529647Y-85051000D01*
X108470353Y-85051000D01*
X108412203Y-85039433D01*
X108357425Y-85016743D01*
X108357424Y-85016743D01*
X108357423Y-85016742D01*
X108308124Y-84983802D01*
X108266198Y-84941876D01*
X108233258Y-84892577D01*
X108233257Y-84892575D01*
X108228933Y-84886104D01*
X108213388Y-84867162D01*
X108194446Y-84851617D01*
X108172835Y-84840066D01*
X108149386Y-84832953D01*
X108125000Y-84830551D01*
X108100614Y-84832953D01*
X108077165Y-84840066D01*
X108055554Y-84851617D01*
X108036612Y-84867162D01*
X108021067Y-84886104D01*
X108016743Y-84892575D01*
X108016742Y-84892577D01*
X107983802Y-84941876D01*
X107941876Y-84983802D01*
X107892577Y-85016742D01*
X107892576Y-85016743D01*
X107892575Y-85016743D01*
X107837797Y-85039433D01*
X107779647Y-85051000D01*
X107720353Y-85051000D01*
X107662203Y-85039433D01*
X107607425Y-85016743D01*
X107607424Y-85016743D01*
X107607423Y-85016742D01*
X107558124Y-84983802D01*
X107516198Y-84941876D01*
X107483258Y-84892577D01*
X107480577Y-84886104D01*
X107460567Y-84837797D01*
X107449000Y-84779647D01*
X107449000Y-84720353D01*
X107460567Y-84662203D01*
X107483257Y-84607425D01*
X107483258Y-84607423D01*
X107516198Y-84558124D01*
X107558124Y-84516198D01*
X107607423Y-84483258D01*
X107607425Y-84483257D01*
X107662203Y-84460567D01*
X107720353Y-84449000D01*
X107779647Y-84449000D01*
X107837797Y-84460567D01*
G37*
G36*
X53837797Y-84460567D02*
G01*
X53892575Y-84483257D01*
X53892577Y-84483258D01*
X53941876Y-84516198D01*
X53983802Y-84558124D01*
X54016742Y-84607423D01*
X54021067Y-84613896D01*
X54036612Y-84632838D01*
X54055554Y-84648383D01*
X54077165Y-84659934D01*
X54100614Y-84667047D01*
X54125000Y-84669449D01*
X54149386Y-84667047D01*
X54172835Y-84659934D01*
X54194446Y-84648383D01*
X54213388Y-84632838D01*
X54228933Y-84613896D01*
X54233258Y-84607423D01*
X54266198Y-84558124D01*
X54308124Y-84516198D01*
X54357423Y-84483258D01*
X54357425Y-84483257D01*
X54412203Y-84460567D01*
X54470353Y-84449000D01*
X54529647Y-84449000D01*
X54587797Y-84460567D01*
X54642575Y-84483257D01*
X54642577Y-84483258D01*
X54691876Y-84516198D01*
X54733802Y-84558124D01*
X54766742Y-84607423D01*
X54771067Y-84613896D01*
X54786612Y-84632838D01*
X54805554Y-84648383D01*
X54827165Y-84659934D01*
X54850614Y-84667047D01*
X54875000Y-84669449D01*
X54899386Y-84667047D01*
X54922835Y-84659934D01*
X54944446Y-84648383D01*
X54963388Y-84632838D01*
X54978933Y-84613896D01*
X54983258Y-84607423D01*
X55016198Y-84558124D01*
X55058124Y-84516198D01*
X55107423Y-84483258D01*
X55107425Y-84483257D01*
X55162203Y-84460567D01*
X55220353Y-84449000D01*
X55279647Y-84449000D01*
X55337797Y-84460567D01*
X55392575Y-84483257D01*
X55392577Y-84483258D01*
X55441876Y-84516198D01*
X55483802Y-84558124D01*
X55516742Y-84607423D01*
X55516743Y-84607425D01*
X55539433Y-84662203D01*
X55551000Y-84720353D01*
X55551000Y-84779647D01*
X55539433Y-84837797D01*
X55519423Y-84886104D01*
X55516742Y-84892577D01*
X55483802Y-84941876D01*
X55441876Y-84983802D01*
X55392577Y-85016742D01*
X55392576Y-85016743D01*
X55392575Y-85016743D01*
X55337797Y-85039433D01*
X55279647Y-85051000D01*
X55220353Y-85051000D01*
X55162203Y-85039433D01*
X55107425Y-85016743D01*
X55107424Y-85016743D01*
X55107423Y-85016742D01*
X55058124Y-84983802D01*
X55016198Y-84941876D01*
X54983258Y-84892577D01*
X54983257Y-84892575D01*
X54978933Y-84886104D01*
X54963388Y-84867162D01*
X54944446Y-84851617D01*
X54922835Y-84840066D01*
X54899386Y-84832953D01*
X54875000Y-84830551D01*
X54850614Y-84832953D01*
X54827165Y-84840066D01*
X54805554Y-84851617D01*
X54786612Y-84867162D01*
X54771067Y-84886104D01*
X54766743Y-84892575D01*
X54766742Y-84892577D01*
X54733802Y-84941876D01*
X54691876Y-84983802D01*
X54642577Y-85016742D01*
X54642576Y-85016743D01*
X54642575Y-85016743D01*
X54587797Y-85039433D01*
X54529647Y-85051000D01*
X54470353Y-85051000D01*
X54412203Y-85039433D01*
X54357425Y-85016743D01*
X54357424Y-85016743D01*
X54357423Y-85016742D01*
X54308124Y-84983802D01*
X54266198Y-84941876D01*
X54233258Y-84892577D01*
X54233257Y-84892575D01*
X54228933Y-84886104D01*
X54213388Y-84867162D01*
X54194446Y-84851617D01*
X54172835Y-84840066D01*
X54149386Y-84832953D01*
X54125000Y-84830551D01*
X54100614Y-84832953D01*
X54077165Y-84840066D01*
X54055554Y-84851617D01*
X54036612Y-84867162D01*
X54021067Y-84886104D01*
X54016743Y-84892575D01*
X54016742Y-84892577D01*
X53983802Y-84941876D01*
X53941876Y-84983802D01*
X53892577Y-85016742D01*
X53892576Y-85016743D01*
X53892575Y-85016743D01*
X53837797Y-85039433D01*
X53779647Y-85051000D01*
X53720353Y-85051000D01*
X53662203Y-85039433D01*
X53607425Y-85016743D01*
X53607424Y-85016743D01*
X53607423Y-85016742D01*
X53558124Y-84983802D01*
X53516198Y-84941876D01*
X53483258Y-84892577D01*
X53480577Y-84886104D01*
X53460567Y-84837797D01*
X53449000Y-84779647D01*
X53449000Y-84720353D01*
X53460567Y-84662203D01*
X53483257Y-84607425D01*
X53483258Y-84607423D01*
X53516198Y-84558124D01*
X53558124Y-84516198D01*
X53607423Y-84483258D01*
X53607425Y-84483257D01*
X53662203Y-84460567D01*
X53720353Y-84449000D01*
X53779647Y-84449000D01*
X53837797Y-84460567D01*
G37*
G36*
X78837797Y-84460567D02*
G01*
X78892575Y-84483257D01*
X78892577Y-84483258D01*
X78941876Y-84516198D01*
X78983802Y-84558124D01*
X79016742Y-84607423D01*
X79021067Y-84613896D01*
X79036612Y-84632838D01*
X79055554Y-84648383D01*
X79077165Y-84659934D01*
X79100614Y-84667047D01*
X79125000Y-84669449D01*
X79149386Y-84667047D01*
X79172835Y-84659934D01*
X79194446Y-84648383D01*
X79213388Y-84632838D01*
X79228933Y-84613896D01*
X79233258Y-84607423D01*
X79266198Y-84558124D01*
X79308124Y-84516198D01*
X79357423Y-84483258D01*
X79357425Y-84483257D01*
X79412203Y-84460567D01*
X79470353Y-84449000D01*
X79529647Y-84449000D01*
X79587797Y-84460567D01*
X79642575Y-84483257D01*
X79642577Y-84483258D01*
X79691876Y-84516198D01*
X79733802Y-84558124D01*
X79766742Y-84607423D01*
X79771067Y-84613896D01*
X79786612Y-84632838D01*
X79805554Y-84648383D01*
X79827165Y-84659934D01*
X79850614Y-84667047D01*
X79875000Y-84669449D01*
X79899386Y-84667047D01*
X79922835Y-84659934D01*
X79944446Y-84648383D01*
X79963388Y-84632838D01*
X79978933Y-84613896D01*
X79983258Y-84607423D01*
X80016198Y-84558124D01*
X80058124Y-84516198D01*
X80107423Y-84483258D01*
X80107425Y-84483257D01*
X80162203Y-84460567D01*
X80220353Y-84449000D01*
X80279647Y-84449000D01*
X80337797Y-84460567D01*
X80392575Y-84483257D01*
X80392577Y-84483258D01*
X80441876Y-84516198D01*
X80483802Y-84558124D01*
X80516742Y-84607423D01*
X80516743Y-84607425D01*
X80539433Y-84662203D01*
X80551000Y-84720353D01*
X80551000Y-84779647D01*
X80539433Y-84837797D01*
X80519423Y-84886104D01*
X80516742Y-84892577D01*
X80483802Y-84941876D01*
X80441876Y-84983802D01*
X80392577Y-85016742D01*
X80392576Y-85016743D01*
X80392575Y-85016743D01*
X80337797Y-85039433D01*
X80279647Y-85051000D01*
X80220353Y-85051000D01*
X80162203Y-85039433D01*
X80107425Y-85016743D01*
X80107424Y-85016743D01*
X80107423Y-85016742D01*
X80058124Y-84983802D01*
X80016198Y-84941876D01*
X79983258Y-84892577D01*
X79983257Y-84892575D01*
X79978933Y-84886104D01*
X79963388Y-84867162D01*
X79944446Y-84851617D01*
X79922835Y-84840066D01*
X79899386Y-84832953D01*
X79875000Y-84830551D01*
X79850614Y-84832953D01*
X79827165Y-84840066D01*
X79805554Y-84851617D01*
X79786612Y-84867162D01*
X79771067Y-84886104D01*
X79766743Y-84892575D01*
X79766742Y-84892577D01*
X79733802Y-84941876D01*
X79691876Y-84983802D01*
X79642577Y-85016742D01*
X79642576Y-85016743D01*
X79642575Y-85016743D01*
X79587797Y-85039433D01*
X79529647Y-85051000D01*
X79470353Y-85051000D01*
X79412203Y-85039433D01*
X79357425Y-85016743D01*
X79357424Y-85016743D01*
X79357423Y-85016742D01*
X79308124Y-84983802D01*
X79266198Y-84941876D01*
X79233258Y-84892577D01*
X79233257Y-84892575D01*
X79228933Y-84886104D01*
X79213388Y-84867162D01*
X79194446Y-84851617D01*
X79172835Y-84840066D01*
X79149386Y-84832953D01*
X79125000Y-84830551D01*
X79100614Y-84832953D01*
X79077165Y-84840066D01*
X79055554Y-84851617D01*
X79036612Y-84867162D01*
X79021067Y-84886104D01*
X79016743Y-84892575D01*
X79016742Y-84892577D01*
X78983802Y-84941876D01*
X78941876Y-84983802D01*
X78892577Y-85016742D01*
X78892576Y-85016743D01*
X78892575Y-85016743D01*
X78837797Y-85039433D01*
X78779647Y-85051000D01*
X78720353Y-85051000D01*
X78662203Y-85039433D01*
X78607425Y-85016743D01*
X78607424Y-85016743D01*
X78607423Y-85016742D01*
X78558124Y-84983802D01*
X78516198Y-84941876D01*
X78483258Y-84892577D01*
X78480577Y-84886104D01*
X78460567Y-84837797D01*
X78449000Y-84779647D01*
X78449000Y-84720353D01*
X78460567Y-84662203D01*
X78483257Y-84607425D01*
X78483258Y-84607423D01*
X78516198Y-84558124D01*
X78558124Y-84516198D01*
X78607423Y-84483258D01*
X78607425Y-84483257D01*
X78662203Y-84460567D01*
X78720353Y-84449000D01*
X78779647Y-84449000D01*
X78837797Y-84460567D01*
G37*
G36*
X78837797Y-82960567D02*
G01*
X78892575Y-82983257D01*
X78892577Y-82983258D01*
X78941876Y-83016198D01*
X78983802Y-83058124D01*
X79016742Y-83107423D01*
X79021067Y-83113896D01*
X79036612Y-83132838D01*
X79055554Y-83148383D01*
X79077165Y-83159934D01*
X79100614Y-83167047D01*
X79125000Y-83169449D01*
X79149386Y-83167047D01*
X79172835Y-83159934D01*
X79194446Y-83148383D01*
X79213388Y-83132838D01*
X79228933Y-83113896D01*
X79233258Y-83107423D01*
X79266198Y-83058124D01*
X79308124Y-83016198D01*
X79357423Y-82983258D01*
X79357425Y-82983257D01*
X79412203Y-82960567D01*
X79470353Y-82949000D01*
X79529647Y-82949000D01*
X79587797Y-82960567D01*
X79642575Y-82983257D01*
X79642577Y-82983258D01*
X79691876Y-83016198D01*
X79733802Y-83058124D01*
X79766742Y-83107423D01*
X79771067Y-83113896D01*
X79786612Y-83132838D01*
X79805554Y-83148383D01*
X79827165Y-83159934D01*
X79850614Y-83167047D01*
X79875000Y-83169449D01*
X79899386Y-83167047D01*
X79922835Y-83159934D01*
X79944446Y-83148383D01*
X79963388Y-83132838D01*
X79978933Y-83113896D01*
X79983258Y-83107423D01*
X80016198Y-83058124D01*
X80058124Y-83016198D01*
X80107423Y-82983258D01*
X80107425Y-82983257D01*
X80162203Y-82960567D01*
X80220353Y-82949000D01*
X80279647Y-82949000D01*
X80337797Y-82960567D01*
X80392575Y-82983257D01*
X80392577Y-82983258D01*
X80441876Y-83016198D01*
X80483802Y-83058124D01*
X80516742Y-83107423D01*
X80516743Y-83107425D01*
X80539433Y-83162203D01*
X80551000Y-83220353D01*
X80551000Y-83279647D01*
X80539433Y-83337797D01*
X80519423Y-83386104D01*
X80516742Y-83392577D01*
X80483802Y-83441876D01*
X80441876Y-83483802D01*
X80392577Y-83516742D01*
X80392576Y-83516743D01*
X80392575Y-83516743D01*
X80337797Y-83539433D01*
X80279647Y-83551000D01*
X80220353Y-83551000D01*
X80162203Y-83539433D01*
X80107425Y-83516743D01*
X80107424Y-83516743D01*
X80107423Y-83516742D01*
X80058124Y-83483802D01*
X80016198Y-83441876D01*
X79983258Y-83392577D01*
X79983257Y-83392575D01*
X79978933Y-83386104D01*
X79963388Y-83367162D01*
X79944446Y-83351617D01*
X79922835Y-83340066D01*
X79899386Y-83332953D01*
X79875000Y-83330551D01*
X79850614Y-83332953D01*
X79827165Y-83340066D01*
X79805554Y-83351617D01*
X79786612Y-83367162D01*
X79771067Y-83386104D01*
X79766743Y-83392575D01*
X79766742Y-83392577D01*
X79733802Y-83441876D01*
X79691876Y-83483802D01*
X79642577Y-83516742D01*
X79642576Y-83516743D01*
X79642575Y-83516743D01*
X79587797Y-83539433D01*
X79529647Y-83551000D01*
X79470353Y-83551000D01*
X79412203Y-83539433D01*
X79357425Y-83516743D01*
X79357424Y-83516743D01*
X79357423Y-83516742D01*
X79308124Y-83483802D01*
X79266198Y-83441876D01*
X79233258Y-83392577D01*
X79233257Y-83392575D01*
X79228933Y-83386104D01*
X79213388Y-83367162D01*
X79194446Y-83351617D01*
X79172835Y-83340066D01*
X79149386Y-83332953D01*
X79125000Y-83330551D01*
X79100614Y-83332953D01*
X79077165Y-83340066D01*
X79055554Y-83351617D01*
X79036612Y-83367162D01*
X79021067Y-83386104D01*
X79016743Y-83392575D01*
X79016742Y-83392577D01*
X78983802Y-83441876D01*
X78941876Y-83483802D01*
X78892577Y-83516742D01*
X78892576Y-83516743D01*
X78892575Y-83516743D01*
X78837797Y-83539433D01*
X78779647Y-83551000D01*
X78720353Y-83551000D01*
X78662203Y-83539433D01*
X78607425Y-83516743D01*
X78607424Y-83516743D01*
X78607423Y-83516742D01*
X78558124Y-83483802D01*
X78516198Y-83441876D01*
X78483258Y-83392577D01*
X78480577Y-83386104D01*
X78460567Y-83337797D01*
X78449000Y-83279647D01*
X78449000Y-83220353D01*
X78460567Y-83162203D01*
X78483257Y-83107425D01*
X78483258Y-83107423D01*
X78516198Y-83058124D01*
X78558124Y-83016198D01*
X78607423Y-82983258D01*
X78607425Y-82983257D01*
X78662203Y-82960567D01*
X78720353Y-82949000D01*
X78779647Y-82949000D01*
X78837797Y-82960567D01*
G37*
G36*
X53837797Y-82960567D02*
G01*
X53892575Y-82983257D01*
X53892577Y-82983258D01*
X53941876Y-83016198D01*
X53983802Y-83058124D01*
X54016742Y-83107423D01*
X54021067Y-83113896D01*
X54036612Y-83132838D01*
X54055554Y-83148383D01*
X54077165Y-83159934D01*
X54100614Y-83167047D01*
X54125000Y-83169449D01*
X54149386Y-83167047D01*
X54172835Y-83159934D01*
X54194446Y-83148383D01*
X54213388Y-83132838D01*
X54228933Y-83113896D01*
X54233258Y-83107423D01*
X54266198Y-83058124D01*
X54308124Y-83016198D01*
X54357423Y-82983258D01*
X54357425Y-82983257D01*
X54412203Y-82960567D01*
X54470353Y-82949000D01*
X54529647Y-82949000D01*
X54587797Y-82960567D01*
X54642575Y-82983257D01*
X54642577Y-82983258D01*
X54691876Y-83016198D01*
X54733802Y-83058124D01*
X54766742Y-83107423D01*
X54771067Y-83113896D01*
X54786612Y-83132838D01*
X54805554Y-83148383D01*
X54827165Y-83159934D01*
X54850614Y-83167047D01*
X54875000Y-83169449D01*
X54899386Y-83167047D01*
X54922835Y-83159934D01*
X54944446Y-83148383D01*
X54963388Y-83132838D01*
X54978933Y-83113896D01*
X54983258Y-83107423D01*
X55016198Y-83058124D01*
X55058124Y-83016198D01*
X55107423Y-82983258D01*
X55107425Y-82983257D01*
X55162203Y-82960567D01*
X55220353Y-82949000D01*
X55279647Y-82949000D01*
X55337797Y-82960567D01*
X55392575Y-82983257D01*
X55392577Y-82983258D01*
X55441876Y-83016198D01*
X55483802Y-83058124D01*
X55516742Y-83107423D01*
X55516743Y-83107425D01*
X55539433Y-83162203D01*
X55551000Y-83220353D01*
X55551000Y-83279647D01*
X55539433Y-83337797D01*
X55519423Y-83386104D01*
X55516742Y-83392577D01*
X55483802Y-83441876D01*
X55441876Y-83483802D01*
X55392577Y-83516742D01*
X55392576Y-83516743D01*
X55392575Y-83516743D01*
X55337797Y-83539433D01*
X55279647Y-83551000D01*
X55220353Y-83551000D01*
X55162203Y-83539433D01*
X55107425Y-83516743D01*
X55107424Y-83516743D01*
X55107423Y-83516742D01*
X55058124Y-83483802D01*
X55016198Y-83441876D01*
X54983258Y-83392577D01*
X54983257Y-83392575D01*
X54978933Y-83386104D01*
X54963388Y-83367162D01*
X54944446Y-83351617D01*
X54922835Y-83340066D01*
X54899386Y-83332953D01*
X54875000Y-83330551D01*
X54850614Y-83332953D01*
X54827165Y-83340066D01*
X54805554Y-83351617D01*
X54786612Y-83367162D01*
X54771067Y-83386104D01*
X54766743Y-83392575D01*
X54766742Y-83392577D01*
X54733802Y-83441876D01*
X54691876Y-83483802D01*
X54642577Y-83516742D01*
X54642576Y-83516743D01*
X54642575Y-83516743D01*
X54587797Y-83539433D01*
X54529647Y-83551000D01*
X54470353Y-83551000D01*
X54412203Y-83539433D01*
X54357425Y-83516743D01*
X54357424Y-83516743D01*
X54357423Y-83516742D01*
X54308124Y-83483802D01*
X54266198Y-83441876D01*
X54233258Y-83392577D01*
X54233257Y-83392575D01*
X54228933Y-83386104D01*
X54213388Y-83367162D01*
X54194446Y-83351617D01*
X54172835Y-83340066D01*
X54149386Y-83332953D01*
X54125000Y-83330551D01*
X54100614Y-83332953D01*
X54077165Y-83340066D01*
X54055554Y-83351617D01*
X54036612Y-83367162D01*
X54021067Y-83386104D01*
X54016743Y-83392575D01*
X54016742Y-83392577D01*
X53983802Y-83441876D01*
X53941876Y-83483802D01*
X53892577Y-83516742D01*
X53892576Y-83516743D01*
X53892575Y-83516743D01*
X53837797Y-83539433D01*
X53779647Y-83551000D01*
X53720353Y-83551000D01*
X53662203Y-83539433D01*
X53607425Y-83516743D01*
X53607424Y-83516743D01*
X53607423Y-83516742D01*
X53558124Y-83483802D01*
X53516198Y-83441876D01*
X53483258Y-83392577D01*
X53480577Y-83386104D01*
X53460567Y-83337797D01*
X53449000Y-83279647D01*
X53449000Y-83220353D01*
X53460567Y-83162203D01*
X53483257Y-83107425D01*
X53483258Y-83107423D01*
X53516198Y-83058124D01*
X53558124Y-83016198D01*
X53607423Y-82983258D01*
X53607425Y-82983257D01*
X53662203Y-82960567D01*
X53720353Y-82949000D01*
X53779647Y-82949000D01*
X53837797Y-82960567D01*
G37*
G36*
X107837797Y-82960567D02*
G01*
X107892575Y-82983257D01*
X107892577Y-82983258D01*
X107941876Y-83016198D01*
X107983802Y-83058124D01*
X108016742Y-83107423D01*
X108021067Y-83113896D01*
X108036612Y-83132838D01*
X108055554Y-83148383D01*
X108077165Y-83159934D01*
X108100614Y-83167047D01*
X108125000Y-83169449D01*
X108149386Y-83167047D01*
X108172835Y-83159934D01*
X108194446Y-83148383D01*
X108213388Y-83132838D01*
X108228933Y-83113896D01*
X108233258Y-83107423D01*
X108266198Y-83058124D01*
X108308124Y-83016198D01*
X108357423Y-82983258D01*
X108357425Y-82983257D01*
X108412203Y-82960567D01*
X108470353Y-82949000D01*
X108529647Y-82949000D01*
X108587797Y-82960567D01*
X108642575Y-82983257D01*
X108642577Y-82983258D01*
X108691876Y-83016198D01*
X108733802Y-83058124D01*
X108766742Y-83107423D01*
X108771067Y-83113896D01*
X108786612Y-83132838D01*
X108805554Y-83148383D01*
X108827165Y-83159934D01*
X108850614Y-83167047D01*
X108875000Y-83169449D01*
X108899386Y-83167047D01*
X108922835Y-83159934D01*
X108944446Y-83148383D01*
X108963388Y-83132838D01*
X108978933Y-83113896D01*
X108983258Y-83107423D01*
X109016198Y-83058124D01*
X109058124Y-83016198D01*
X109107423Y-82983258D01*
X109107425Y-82983257D01*
X109162203Y-82960567D01*
X109220353Y-82949000D01*
X109279647Y-82949000D01*
X109337797Y-82960567D01*
X109392575Y-82983257D01*
X109392577Y-82983258D01*
X109441876Y-83016198D01*
X109483802Y-83058124D01*
X109516742Y-83107423D01*
X109516743Y-83107425D01*
X109539433Y-83162203D01*
X109551000Y-83220353D01*
X109551000Y-83279647D01*
X109539433Y-83337797D01*
X109519423Y-83386104D01*
X109516742Y-83392577D01*
X109483802Y-83441876D01*
X109441876Y-83483802D01*
X109392577Y-83516742D01*
X109392576Y-83516743D01*
X109392575Y-83516743D01*
X109337797Y-83539433D01*
X109279647Y-83551000D01*
X109220353Y-83551000D01*
X109162203Y-83539433D01*
X109107425Y-83516743D01*
X109107424Y-83516743D01*
X109107423Y-83516742D01*
X109058124Y-83483802D01*
X109016198Y-83441876D01*
X108983258Y-83392577D01*
X108983257Y-83392575D01*
X108978933Y-83386104D01*
X108963388Y-83367162D01*
X108944446Y-83351617D01*
X108922835Y-83340066D01*
X108899386Y-83332953D01*
X108875000Y-83330551D01*
X108850614Y-83332953D01*
X108827165Y-83340066D01*
X108805554Y-83351617D01*
X108786612Y-83367162D01*
X108771067Y-83386104D01*
X108766743Y-83392575D01*
X108766742Y-83392577D01*
X108733802Y-83441876D01*
X108691876Y-83483802D01*
X108642577Y-83516742D01*
X108642576Y-83516743D01*
X108642575Y-83516743D01*
X108587797Y-83539433D01*
X108529647Y-83551000D01*
X108470353Y-83551000D01*
X108412203Y-83539433D01*
X108357425Y-83516743D01*
X108357424Y-83516743D01*
X108357423Y-83516742D01*
X108308124Y-83483802D01*
X108266198Y-83441876D01*
X108233258Y-83392577D01*
X108233257Y-83392575D01*
X108228933Y-83386104D01*
X108213388Y-83367162D01*
X108194446Y-83351617D01*
X108172835Y-83340066D01*
X108149386Y-83332953D01*
X108125000Y-83330551D01*
X108100614Y-83332953D01*
X108077165Y-83340066D01*
X108055554Y-83351617D01*
X108036612Y-83367162D01*
X108021067Y-83386104D01*
X108016743Y-83392575D01*
X108016742Y-83392577D01*
X107983802Y-83441876D01*
X107941876Y-83483802D01*
X107892577Y-83516742D01*
X107892576Y-83516743D01*
X107892575Y-83516743D01*
X107837797Y-83539433D01*
X107779647Y-83551000D01*
X107720353Y-83551000D01*
X107662203Y-83539433D01*
X107607425Y-83516743D01*
X107607424Y-83516743D01*
X107607423Y-83516742D01*
X107558124Y-83483802D01*
X107516198Y-83441876D01*
X107483258Y-83392577D01*
X107480577Y-83386104D01*
X107460567Y-83337797D01*
X107449000Y-83279647D01*
X107449000Y-83220353D01*
X107460567Y-83162203D01*
X107483257Y-83107425D01*
X107483258Y-83107423D01*
X107516198Y-83058124D01*
X107558124Y-83016198D01*
X107607423Y-82983258D01*
X107607425Y-82983257D01*
X107662203Y-82960567D01*
X107720353Y-82949000D01*
X107779647Y-82949000D01*
X107837797Y-82960567D01*
G37*
G36*
X87248228Y-79431703D02*
G01*
X87403100Y-79495853D01*
X87542481Y-79588985D01*
X87661015Y-79707519D01*
X87754147Y-79846900D01*
X87818297Y-80001772D01*
X87851000Y-80166184D01*
X87851000Y-80333816D01*
X87818297Y-80498228D01*
X87754147Y-80653100D01*
X87661015Y-80792481D01*
X87542481Y-80911015D01*
X87403100Y-81004147D01*
X87248228Y-81068297D01*
X87083816Y-81101000D01*
X86916184Y-81101000D01*
X86751772Y-81068297D01*
X86596900Y-81004147D01*
X86457519Y-80911015D01*
X86338985Y-80792481D01*
X86245853Y-80653100D01*
X86181703Y-80498228D01*
X86149000Y-80333816D01*
X86149000Y-80166184D01*
X86181703Y-80001772D01*
X86245853Y-79846900D01*
X86338985Y-79707519D01*
X86457519Y-79588985D01*
X86596900Y-79495853D01*
X86751772Y-79431703D01*
X86916184Y-79399000D01*
X87083816Y-79399000D01*
X87248228Y-79431703D01*
G37*
G36*
X91877617Y-76258420D02*
G01*
X91968403Y-76285960D01*
X92000335Y-76295646D01*
X92113424Y-76356094D01*
X92212554Y-76437447D01*
X92293906Y-76536575D01*
X92354354Y-76649664D01*
X92355527Y-76653532D01*
X92391580Y-76772382D01*
X92401000Y-76868027D01*
X92401000Y-78131973D01*
X92391580Y-78227618D01*
X92364040Y-78318404D01*
X92354354Y-78350336D01*
X92293906Y-78463425D01*
X92212554Y-78562554D01*
X92113425Y-78643906D01*
X92000336Y-78704354D01*
X91968404Y-78714040D01*
X91877618Y-78741580D01*
X91750000Y-78754149D01*
X91622383Y-78741580D01*
X91531597Y-78714040D01*
X91499665Y-78704354D01*
X91386576Y-78643906D01*
X91287447Y-78562554D01*
X91206095Y-78463425D01*
X91145647Y-78350336D01*
X91135961Y-78318404D01*
X91108421Y-78227618D01*
X91099001Y-78131973D01*
X91099000Y-76868028D01*
X91108420Y-76772383D01*
X91135960Y-76681597D01*
X91145646Y-76649665D01*
X91206094Y-76536576D01*
X91287447Y-76437446D01*
X91386575Y-76356094D01*
X91499664Y-76295646D01*
X91531596Y-76285960D01*
X91622382Y-76258420D01*
X91750000Y-76245851D01*
X91877617Y-76258420D01*
G37*
G36*
X82377617Y-76258420D02*
G01*
X82468403Y-76285960D01*
X82500335Y-76295646D01*
X82613424Y-76356094D01*
X82712554Y-76437447D01*
X82793906Y-76536575D01*
X82854354Y-76649664D01*
X82855527Y-76653532D01*
X82891580Y-76772382D01*
X82901000Y-76868027D01*
X82901000Y-78131973D01*
X82891580Y-78227618D01*
X82864040Y-78318404D01*
X82854354Y-78350336D01*
X82793906Y-78463425D01*
X82712554Y-78562554D01*
X82613425Y-78643906D01*
X82500336Y-78704354D01*
X82468404Y-78714040D01*
X82377618Y-78741580D01*
X82250000Y-78754149D01*
X82122383Y-78741580D01*
X82031597Y-78714040D01*
X81999665Y-78704354D01*
X81886576Y-78643906D01*
X81787447Y-78562554D01*
X81706095Y-78463425D01*
X81645647Y-78350336D01*
X81635961Y-78318404D01*
X81608421Y-78227618D01*
X81599001Y-78131973D01*
X81599000Y-76868028D01*
X81608420Y-76772383D01*
X81635960Y-76681597D01*
X81645646Y-76649665D01*
X81706094Y-76536576D01*
X81787447Y-76437446D01*
X81886575Y-76356094D01*
X81999664Y-76295646D01*
X82031596Y-76285960D01*
X82122382Y-76258420D01*
X82250000Y-76245851D01*
X82377617Y-76258420D01*
G37*
G36*
X52331694Y-76158633D02*
G01*
X52504095Y-76210931D01*
X52662983Y-76295858D01*
X52802249Y-76410151D01*
X52916542Y-76549417D01*
X53001469Y-76708305D01*
X53053767Y-76880706D01*
X53071425Y-77060000D01*
X53053767Y-77239294D01*
X53001469Y-77411695D01*
X52916542Y-77570583D01*
X52802249Y-77709849D01*
X52662983Y-77824142D01*
X52504095Y-77909069D01*
X52331694Y-77961367D01*
X52197331Y-77974600D01*
X51802669Y-77974600D01*
X51668306Y-77961367D01*
X51495905Y-77909069D01*
X51337017Y-77824142D01*
X51197751Y-77709849D01*
X51083458Y-77570583D01*
X50998531Y-77411695D01*
X50946233Y-77239294D01*
X50928575Y-77060000D01*
X50946233Y-76880706D01*
X50998531Y-76708305D01*
X51083458Y-76549417D01*
X51197751Y-76410151D01*
X51337017Y-76295858D01*
X51495905Y-76210931D01*
X51668306Y-76158633D01*
X51802669Y-76145400D01*
X52197331Y-76145400D01*
X52331694Y-76158633D01*
G37*
G36*
X75191694Y-76158633D02*
G01*
X75364095Y-76210931D01*
X75522983Y-76295858D01*
X75662249Y-76410151D01*
X75776542Y-76549417D01*
X75861469Y-76708305D01*
X75913767Y-76880706D01*
X75931425Y-77060000D01*
X75913767Y-77239294D01*
X75861469Y-77411695D01*
X75776542Y-77570583D01*
X75662249Y-77709849D01*
X75522983Y-77824142D01*
X75364095Y-77909069D01*
X75191694Y-77961367D01*
X75057331Y-77974600D01*
X74662669Y-77974600D01*
X74528306Y-77961367D01*
X74355905Y-77909069D01*
X74197017Y-77824142D01*
X74057751Y-77709849D01*
X73943458Y-77570583D01*
X73858531Y-77411695D01*
X73806233Y-77239294D01*
X73788575Y-77060000D01*
X73806233Y-76880706D01*
X73858531Y-76708305D01*
X73943458Y-76549417D01*
X74057751Y-76410151D01*
X74197017Y-76295858D01*
X74355905Y-76210931D01*
X74528306Y-76158633D01*
X74662669Y-76145400D01*
X75057331Y-76145400D01*
X75191694Y-76158633D01*
G37*
G36*
X87960443Y-76105519D02*
G01*
X88026627Y-76112037D01*
X88196466Y-76163557D01*
X88352991Y-76247222D01*
X88388729Y-76276552D01*
X88490186Y-76359814D01*
X88573448Y-76461271D01*
X88602778Y-76497009D01*
X88686443Y-76653534D01*
X88737963Y-76823373D01*
X88755359Y-77000000D01*
X88737963Y-77176627D01*
X88686443Y-77346466D01*
X88602778Y-77502991D01*
X88573448Y-77538729D01*
X88490186Y-77640186D01*
X88405300Y-77709849D01*
X88352991Y-77752778D01*
X88196466Y-77836443D01*
X88026627Y-77887963D01*
X87960442Y-77894482D01*
X87894260Y-77901000D01*
X86105740Y-77901000D01*
X86039558Y-77894482D01*
X85973373Y-77887963D01*
X85803534Y-77836443D01*
X85647009Y-77752778D01*
X85594700Y-77709849D01*
X85509814Y-77640186D01*
X85426552Y-77538729D01*
X85397222Y-77502991D01*
X85313557Y-77346466D01*
X85262037Y-77176627D01*
X85244641Y-77000000D01*
X85262037Y-76823373D01*
X85313557Y-76653534D01*
X85397222Y-76497009D01*
X85426552Y-76461271D01*
X85509814Y-76359814D01*
X85611271Y-76276552D01*
X85647009Y-76247222D01*
X85803534Y-76163557D01*
X85973373Y-76112037D01*
X86039557Y-76105519D01*
X86105740Y-76099000D01*
X87894260Y-76099000D01*
X87960443Y-76105519D01*
G37*
G36*
X52331694Y-73618633D02*
G01*
X52504095Y-73670931D01*
X52662983Y-73755858D01*
X52802249Y-73870151D01*
X52916542Y-74009417D01*
X53001469Y-74168305D01*
X53053767Y-74340706D01*
X53071425Y-74520000D01*
X53053767Y-74699294D01*
X53001469Y-74871695D01*
X52916542Y-75030583D01*
X52802249Y-75169849D01*
X52662983Y-75284142D01*
X52504095Y-75369069D01*
X52331694Y-75421367D01*
X52197331Y-75434600D01*
X51802669Y-75434600D01*
X51668306Y-75421367D01*
X51495905Y-75369069D01*
X51337017Y-75284142D01*
X51197751Y-75169849D01*
X51083458Y-75030583D01*
X50998531Y-74871695D01*
X50946233Y-74699294D01*
X50928575Y-74520000D01*
X50946233Y-74340706D01*
X50998531Y-74168305D01*
X51083458Y-74009417D01*
X51197751Y-73870151D01*
X51337017Y-73755858D01*
X51495905Y-73670931D01*
X51668306Y-73618633D01*
X51802669Y-73605400D01*
X52197331Y-73605400D01*
X52331694Y-73618633D01*
G37*
G36*
X75191694Y-73618633D02*
G01*
X75364095Y-73670931D01*
X75522983Y-73755858D01*
X75662249Y-73870151D01*
X75776542Y-74009417D01*
X75861469Y-74168305D01*
X75913767Y-74340706D01*
X75931425Y-74520000D01*
X75913767Y-74699294D01*
X75861469Y-74871695D01*
X75776542Y-75030583D01*
X75662249Y-75169849D01*
X75522983Y-75284142D01*
X75364095Y-75369069D01*
X75191694Y-75421367D01*
X75057331Y-75434600D01*
X74662669Y-75434600D01*
X74528306Y-75421367D01*
X74355905Y-75369069D01*
X74197017Y-75284142D01*
X74057751Y-75169849D01*
X73943458Y-75030583D01*
X73858531Y-74871695D01*
X73806233Y-74699294D01*
X73788575Y-74520000D01*
X73806233Y-74340706D01*
X73858531Y-74168305D01*
X73943458Y-74009417D01*
X74057751Y-73870151D01*
X74197017Y-73755858D01*
X74355905Y-73670931D01*
X74528306Y-73618633D01*
X74662669Y-73605400D01*
X75057331Y-73605400D01*
X75191694Y-73618633D01*
G37*
G36*
X82377617Y-71558420D02*
G01*
X82468403Y-71585960D01*
X82500335Y-71595646D01*
X82613424Y-71656094D01*
X82712554Y-71737447D01*
X82793906Y-71836575D01*
X82854354Y-71949664D01*
X82863556Y-71980000D01*
X82891580Y-72072382D01*
X82901000Y-72168027D01*
X82901000Y-73431973D01*
X82891580Y-73527618D01*
X82867985Y-73605400D01*
X82854354Y-73650336D01*
X82793906Y-73763425D01*
X82712554Y-73862554D01*
X82613425Y-73943906D01*
X82500336Y-74004354D01*
X82483645Y-74009417D01*
X82377618Y-74041580D01*
X82250000Y-74054149D01*
X82122383Y-74041580D01*
X82016356Y-74009417D01*
X81999665Y-74004354D01*
X81886576Y-73943906D01*
X81787447Y-73862554D01*
X81706095Y-73763425D01*
X81645647Y-73650336D01*
X81632016Y-73605400D01*
X81608421Y-73527618D01*
X81599001Y-73431973D01*
X81599000Y-72168028D01*
X81608420Y-72072383D01*
X81645645Y-71949669D01*
X81645646Y-71949665D01*
X81706094Y-71836576D01*
X81787447Y-71737446D01*
X81886575Y-71656094D01*
X81999664Y-71595646D01*
X82031596Y-71585960D01*
X82122382Y-71558420D01*
X82250000Y-71545851D01*
X82377617Y-71558420D01*
G37*
G36*
X91877617Y-71558420D02*
G01*
X91968403Y-71585960D01*
X92000335Y-71595646D01*
X92113424Y-71656094D01*
X92212554Y-71737447D01*
X92293906Y-71836575D01*
X92354354Y-71949664D01*
X92363556Y-71980000D01*
X92391580Y-72072382D01*
X92401000Y-72168027D01*
X92401000Y-73431973D01*
X92391580Y-73527618D01*
X92367985Y-73605400D01*
X92354354Y-73650336D01*
X92293906Y-73763425D01*
X92212554Y-73862554D01*
X92113425Y-73943906D01*
X92000336Y-74004354D01*
X91983645Y-74009417D01*
X91877618Y-74041580D01*
X91750000Y-74054149D01*
X91622383Y-74041580D01*
X91516356Y-74009417D01*
X91499665Y-74004354D01*
X91386576Y-73943906D01*
X91287447Y-73862554D01*
X91206095Y-73763425D01*
X91145647Y-73650336D01*
X91132016Y-73605400D01*
X91108421Y-73527618D01*
X91099001Y-73431973D01*
X91099000Y-72168028D01*
X91108420Y-72072383D01*
X91145645Y-71949669D01*
X91145646Y-71949665D01*
X91206094Y-71836576D01*
X91287447Y-71737446D01*
X91386575Y-71656094D01*
X91499664Y-71595646D01*
X91531596Y-71585960D01*
X91622382Y-71558420D01*
X91750000Y-71545851D01*
X91877617Y-71558420D01*
G37*
G36*
X52331694Y-71078633D02*
G01*
X52504095Y-71130931D01*
X52662983Y-71215858D01*
X52802249Y-71330151D01*
X52916542Y-71469417D01*
X53001469Y-71628305D01*
X53053767Y-71800706D01*
X53071425Y-71980000D01*
X53053767Y-72159294D01*
X53001469Y-72331695D01*
X52916542Y-72490583D01*
X52802249Y-72629849D01*
X52662983Y-72744142D01*
X52504095Y-72829069D01*
X52331694Y-72881367D01*
X52197331Y-72894600D01*
X51802669Y-72894600D01*
X51668306Y-72881367D01*
X51495905Y-72829069D01*
X51337017Y-72744142D01*
X51197751Y-72629849D01*
X51083458Y-72490583D01*
X50998531Y-72331695D01*
X50946233Y-72159294D01*
X50928575Y-71980000D01*
X50946233Y-71800706D01*
X50998531Y-71628305D01*
X51083458Y-71469417D01*
X51197751Y-71330151D01*
X51337017Y-71215858D01*
X51495905Y-71130931D01*
X51668306Y-71078633D01*
X51802669Y-71065400D01*
X52197331Y-71065400D01*
X52331694Y-71078633D01*
G37*
G36*
X75191694Y-71078633D02*
G01*
X75364095Y-71130931D01*
X75522983Y-71215858D01*
X75662249Y-71330151D01*
X75776542Y-71469417D01*
X75861469Y-71628305D01*
X75913767Y-71800706D01*
X75931425Y-71980000D01*
X75913767Y-72159294D01*
X75861469Y-72331695D01*
X75776542Y-72490583D01*
X75662249Y-72629849D01*
X75522983Y-72744142D01*
X75364095Y-72829069D01*
X75191694Y-72881367D01*
X75057331Y-72894600D01*
X74662669Y-72894600D01*
X74528306Y-72881367D01*
X74355905Y-72829069D01*
X74197017Y-72744142D01*
X74057751Y-72629849D01*
X73943458Y-72490583D01*
X73858531Y-72331695D01*
X73806233Y-72159294D01*
X73788575Y-71980000D01*
X73806233Y-71800706D01*
X73858531Y-71628305D01*
X73943458Y-71469417D01*
X74057751Y-71330151D01*
X74197017Y-71215858D01*
X74355905Y-71130931D01*
X74528306Y-71078633D01*
X74662669Y-71065400D01*
X75057331Y-71065400D01*
X75191694Y-71078633D01*
G37*
G36*
X88101000Y-72101000D02*
G01*
X85899000Y-72101000D01*
X85899000Y-69899000D01*
X88101000Y-69899000D01*
X88101000Y-72101000D01*
G37*
G36*
X75191694Y-68538633D02*
G01*
X75364095Y-68590931D01*
X75522983Y-68675858D01*
X75662249Y-68790151D01*
X75776542Y-68929417D01*
X75861469Y-69088305D01*
X75913767Y-69260706D01*
X75931425Y-69440000D01*
X75913767Y-69619294D01*
X75861469Y-69791695D01*
X75776542Y-69950583D01*
X75662249Y-70089849D01*
X75522983Y-70204142D01*
X75364095Y-70289069D01*
X75191694Y-70341367D01*
X75057331Y-70354600D01*
X74662669Y-70354600D01*
X74528306Y-70341367D01*
X74355905Y-70289069D01*
X74197017Y-70204142D01*
X74057751Y-70089849D01*
X73943458Y-69950583D01*
X73858531Y-69791695D01*
X73806233Y-69619294D01*
X73788575Y-69440000D01*
X73806233Y-69260706D01*
X73858531Y-69088305D01*
X73943458Y-68929417D01*
X74057751Y-68790151D01*
X74197017Y-68675858D01*
X74355905Y-68590931D01*
X74528306Y-68538633D01*
X74662669Y-68525400D01*
X75057331Y-68525400D01*
X75191694Y-68538633D01*
G37*
G36*
X52331694Y-68538633D02*
G01*
X52504095Y-68590931D01*
X52662983Y-68675858D01*
X52802249Y-68790151D01*
X52916542Y-68929417D01*
X53001469Y-69088305D01*
X53053767Y-69260706D01*
X53071425Y-69440000D01*
X53053767Y-69619294D01*
X53001469Y-69791695D01*
X52916542Y-69950583D01*
X52802249Y-70089849D01*
X52662983Y-70204142D01*
X52504095Y-70289069D01*
X52331694Y-70341367D01*
X52197331Y-70354600D01*
X51802669Y-70354600D01*
X51668306Y-70341367D01*
X51495905Y-70289069D01*
X51337017Y-70204142D01*
X51197751Y-70089849D01*
X51083458Y-69950583D01*
X50998531Y-69791695D01*
X50946233Y-69619294D01*
X50928575Y-69440000D01*
X50946233Y-69260706D01*
X50998531Y-69088305D01*
X51083458Y-68929417D01*
X51197751Y-68790151D01*
X51337017Y-68675858D01*
X51495905Y-68590931D01*
X51668306Y-68538633D01*
X51802669Y-68525400D01*
X52197331Y-68525400D01*
X52331694Y-68538633D01*
G37*
G36*
X52331694Y-65998633D02*
G01*
X52504095Y-66050931D01*
X52662983Y-66135858D01*
X52802249Y-66250151D01*
X52916542Y-66389417D01*
X53001469Y-66548305D01*
X53053767Y-66720706D01*
X53071425Y-66900000D01*
X53053767Y-67079294D01*
X53001469Y-67251695D01*
X52916542Y-67410583D01*
X52802249Y-67549849D01*
X52662983Y-67664142D01*
X52504095Y-67749069D01*
X52331694Y-67801367D01*
X52197331Y-67814600D01*
X51802669Y-67814600D01*
X51668306Y-67801367D01*
X51495905Y-67749069D01*
X51337017Y-67664142D01*
X51197751Y-67549849D01*
X51083458Y-67410583D01*
X50998531Y-67251695D01*
X50946233Y-67079294D01*
X50928575Y-66900000D01*
X50946233Y-66720706D01*
X50998531Y-66548305D01*
X51083458Y-66389417D01*
X51197751Y-66250151D01*
X51337017Y-66135858D01*
X51495905Y-66050931D01*
X51668306Y-65998633D01*
X51802669Y-65985400D01*
X52197331Y-65985400D01*
X52331694Y-65998633D01*
G37*
G36*
X75191694Y-65998633D02*
G01*
X75364095Y-66050931D01*
X75522983Y-66135858D01*
X75662249Y-66250151D01*
X75776542Y-66389417D01*
X75861469Y-66548305D01*
X75913767Y-66720706D01*
X75931425Y-66900000D01*
X75913767Y-67079294D01*
X75861469Y-67251695D01*
X75776542Y-67410583D01*
X75662249Y-67549849D01*
X75522983Y-67664142D01*
X75364095Y-67749069D01*
X75191694Y-67801367D01*
X75057331Y-67814600D01*
X74662669Y-67814600D01*
X74528306Y-67801367D01*
X74355905Y-67749069D01*
X74197017Y-67664142D01*
X74057751Y-67549849D01*
X73943458Y-67410583D01*
X73858531Y-67251695D01*
X73806233Y-67079294D01*
X73788575Y-66900000D01*
X73806233Y-66720706D01*
X73858531Y-66548305D01*
X73943458Y-66389417D01*
X74057751Y-66250151D01*
X74197017Y-66135858D01*
X74355905Y-66050931D01*
X74528306Y-65998633D01*
X74662669Y-65985400D01*
X75057331Y-65985400D01*
X75191694Y-65998633D01*
G37*
G36*
X52331694Y-63458633D02*
G01*
X52504095Y-63510931D01*
X52662983Y-63595858D01*
X52802249Y-63710151D01*
X52916542Y-63849417D01*
X53001469Y-64008305D01*
X53053767Y-64180706D01*
X53071425Y-64360000D01*
X53053767Y-64539294D01*
X53001469Y-64711695D01*
X52916542Y-64870583D01*
X52802249Y-65009849D01*
X52662983Y-65124142D01*
X52504095Y-65209069D01*
X52331694Y-65261367D01*
X52197331Y-65274600D01*
X51802669Y-65274600D01*
X51668306Y-65261367D01*
X51495905Y-65209069D01*
X51337017Y-65124142D01*
X51197751Y-65009849D01*
X51083458Y-64870583D01*
X50998531Y-64711695D01*
X50946233Y-64539294D01*
X50928575Y-64360000D01*
X50946233Y-64180706D01*
X50998531Y-64008305D01*
X51083458Y-63849417D01*
X51197751Y-63710151D01*
X51337017Y-63595858D01*
X51495905Y-63510931D01*
X51668306Y-63458633D01*
X51802669Y-63445400D01*
X52197331Y-63445400D01*
X52331694Y-63458633D01*
G37*
G36*
X75191694Y-63458633D02*
G01*
X75364095Y-63510931D01*
X75522983Y-63595858D01*
X75662249Y-63710151D01*
X75776542Y-63849417D01*
X75861469Y-64008305D01*
X75913767Y-64180706D01*
X75931425Y-64360000D01*
X75913767Y-64539294D01*
X75861469Y-64711695D01*
X75776542Y-64870583D01*
X75662249Y-65009849D01*
X75522983Y-65124142D01*
X75364095Y-65209069D01*
X75191694Y-65261367D01*
X75057331Y-65274600D01*
X74662669Y-65274600D01*
X74528306Y-65261367D01*
X74355905Y-65209069D01*
X74197017Y-65124142D01*
X74057751Y-65009849D01*
X73943458Y-64870583D01*
X73858531Y-64711695D01*
X73806233Y-64539294D01*
X73788575Y-64360000D01*
X73806233Y-64180706D01*
X73858531Y-64008305D01*
X73943458Y-63849417D01*
X74057751Y-63710151D01*
X74197017Y-63595858D01*
X74355905Y-63510931D01*
X74528306Y-63458633D01*
X74662669Y-63445400D01*
X75057331Y-63445400D01*
X75191694Y-63458633D01*
G37*
G36*
X90774206Y-63296051D02*
G01*
X89500000Y-64570257D01*
X88225794Y-63296051D01*
X89500000Y-62021845D01*
X90774206Y-63296051D01*
G37*
G36*
X75191694Y-60918633D02*
G01*
X75364095Y-60970931D01*
X75522983Y-61055858D01*
X75662249Y-61170151D01*
X75776542Y-61309417D01*
X75861469Y-61468305D01*
X75913767Y-61640706D01*
X75931425Y-61820000D01*
X75913767Y-61999294D01*
X75861469Y-62171695D01*
X75776542Y-62330583D01*
X75662249Y-62469849D01*
X75522983Y-62584142D01*
X75364095Y-62669069D01*
X75191694Y-62721367D01*
X75057331Y-62734600D01*
X74662669Y-62734600D01*
X74528306Y-62721367D01*
X74355905Y-62669069D01*
X74197017Y-62584142D01*
X74057751Y-62469849D01*
X73943458Y-62330583D01*
X73858531Y-62171695D01*
X73806233Y-61999294D01*
X73788575Y-61820000D01*
X73806233Y-61640706D01*
X73858531Y-61468305D01*
X73943458Y-61309417D01*
X74057751Y-61170151D01*
X74197017Y-61055858D01*
X74355905Y-60970931D01*
X74528306Y-60918633D01*
X74662669Y-60905400D01*
X75057331Y-60905400D01*
X75191694Y-60918633D01*
G37*
G36*
X52331694Y-60918633D02*
G01*
X52504095Y-60970931D01*
X52662983Y-61055858D01*
X52802249Y-61170151D01*
X52916542Y-61309417D01*
X53001469Y-61468305D01*
X53053767Y-61640706D01*
X53071425Y-61820000D01*
X53053767Y-61999294D01*
X53001469Y-62171695D01*
X52916542Y-62330583D01*
X52802249Y-62469849D01*
X52662983Y-62584142D01*
X52504095Y-62669069D01*
X52331694Y-62721367D01*
X52197331Y-62734600D01*
X51802669Y-62734600D01*
X51668306Y-62721367D01*
X51495905Y-62669069D01*
X51337017Y-62584142D01*
X51197751Y-62469849D01*
X51083458Y-62330583D01*
X50998531Y-62171695D01*
X50946233Y-61999294D01*
X50928575Y-61820000D01*
X50946233Y-61640706D01*
X50998531Y-61468305D01*
X51083458Y-61309417D01*
X51197751Y-61170151D01*
X51337017Y-61055858D01*
X51495905Y-60970931D01*
X51668306Y-60918633D01*
X51802669Y-60905400D01*
X52197331Y-60905400D01*
X52331694Y-60918633D01*
G37*
G36*
X87817461Y-60603927D02*
G01*
X87966761Y-60633624D01*
X88130733Y-60701544D01*
X88278303Y-60800147D01*
X88403802Y-60925646D01*
X88502405Y-61073216D01*
X88570325Y-61237188D01*
X88604949Y-61411259D01*
X88604949Y-61588741D01*
X88570325Y-61762812D01*
X88502405Y-61926784D01*
X88403802Y-62074354D01*
X88278303Y-62199853D01*
X88130733Y-62298456D01*
X87966761Y-62366376D01*
X87817461Y-62396073D01*
X87792691Y-62401000D01*
X87615207Y-62401000D01*
X87590437Y-62396073D01*
X87441137Y-62366376D01*
X87277165Y-62298456D01*
X87129595Y-62199853D01*
X87004096Y-62074354D01*
X86905493Y-61926784D01*
X86837573Y-61762812D01*
X86802949Y-61588741D01*
X86802949Y-61411259D01*
X86837573Y-61237188D01*
X86905493Y-61073216D01*
X87004096Y-60925646D01*
X87129595Y-60800147D01*
X87277165Y-60701544D01*
X87441137Y-60633624D01*
X87590437Y-60603927D01*
X87615207Y-60599000D01*
X87792691Y-60599000D01*
X87817461Y-60603927D01*
G37*
G36*
X86021410Y-58807876D02*
G01*
X86170710Y-58837573D01*
X86334682Y-58905493D01*
X86482252Y-59004096D01*
X86607751Y-59129595D01*
X86706354Y-59277165D01*
X86774274Y-59441137D01*
X86808898Y-59615208D01*
X86808898Y-59792690D01*
X86774274Y-59966761D01*
X86706354Y-60130733D01*
X86607751Y-60278303D01*
X86482252Y-60403802D01*
X86334682Y-60502405D01*
X86170710Y-60570325D01*
X86026547Y-60599000D01*
X85996640Y-60604949D01*
X85819156Y-60604949D01*
X85789249Y-60599000D01*
X85645086Y-60570325D01*
X85481114Y-60502405D01*
X85333544Y-60403802D01*
X85208045Y-60278303D01*
X85109442Y-60130733D01*
X85041522Y-59966761D01*
X85006898Y-59792690D01*
X85006898Y-59615208D01*
X85041522Y-59441137D01*
X85109442Y-59277165D01*
X85208045Y-59129595D01*
X85333544Y-59004096D01*
X85481114Y-58905493D01*
X85645086Y-58837573D01*
X85794386Y-58807876D01*
X85819156Y-58802949D01*
X85996640Y-58802949D01*
X86021410Y-58807876D01*
G37*
G36*
X75191694Y-58378633D02*
G01*
X75364095Y-58430931D01*
X75522983Y-58515858D01*
X75662249Y-58630151D01*
X75776542Y-58769417D01*
X75861469Y-58928305D01*
X75913767Y-59100706D01*
X75931425Y-59280000D01*
X75913767Y-59459294D01*
X75861469Y-59631695D01*
X75776542Y-59790583D01*
X75662249Y-59929849D01*
X75522983Y-60044142D01*
X75364095Y-60129069D01*
X75191694Y-60181367D01*
X75057331Y-60194600D01*
X74662669Y-60194600D01*
X74528306Y-60181367D01*
X74355905Y-60129069D01*
X74197017Y-60044142D01*
X74057751Y-59929849D01*
X73943458Y-59790583D01*
X73858531Y-59631695D01*
X73806233Y-59459294D01*
X73788575Y-59280000D01*
X73806233Y-59100706D01*
X73858531Y-58928305D01*
X73943458Y-58769417D01*
X74057751Y-58630151D01*
X74197017Y-58515858D01*
X74355905Y-58430931D01*
X74528306Y-58378633D01*
X74662669Y-58365400D01*
X75057331Y-58365400D01*
X75191694Y-58378633D01*
G37*
G36*
X52331694Y-58378633D02*
G01*
X52504095Y-58430931D01*
X52662983Y-58515858D01*
X52802249Y-58630151D01*
X52916542Y-58769417D01*
X53001469Y-58928305D01*
X53053767Y-59100706D01*
X53071425Y-59280000D01*
X53053767Y-59459294D01*
X53001469Y-59631695D01*
X52916542Y-59790583D01*
X52802249Y-59929849D01*
X52662983Y-60044142D01*
X52504095Y-60129069D01*
X52331694Y-60181367D01*
X52197331Y-60194600D01*
X51802669Y-60194600D01*
X51668306Y-60181367D01*
X51495905Y-60129069D01*
X51337017Y-60044142D01*
X51197751Y-59929849D01*
X51083458Y-59790583D01*
X50998531Y-59631695D01*
X50946233Y-59459294D01*
X50928575Y-59280000D01*
X50946233Y-59100706D01*
X50998531Y-58928305D01*
X51083458Y-58769417D01*
X51197751Y-58630151D01*
X51337017Y-58515858D01*
X51495905Y-58430931D01*
X51668306Y-58378633D01*
X51802669Y-58365400D01*
X52197331Y-58365400D01*
X52331694Y-58378633D01*
G37*
G36*
X84225358Y-57011824D02*
G01*
X84374658Y-57041521D01*
X84538630Y-57109441D01*
X84686200Y-57208044D01*
X84811699Y-57333543D01*
X84910302Y-57481113D01*
X84978222Y-57645085D01*
X85012846Y-57819156D01*
X85012846Y-57996638D01*
X84978222Y-58170709D01*
X84910302Y-58334681D01*
X84811699Y-58482251D01*
X84686200Y-58607750D01*
X84538630Y-58706353D01*
X84374658Y-58774273D01*
X84230490Y-58802949D01*
X84200588Y-58808897D01*
X84023104Y-58808897D01*
X83993202Y-58802949D01*
X83849034Y-58774273D01*
X83685062Y-58706353D01*
X83537492Y-58607750D01*
X83411993Y-58482251D01*
X83313390Y-58334681D01*
X83245470Y-58170709D01*
X83210846Y-57996638D01*
X83210846Y-57819156D01*
X83245470Y-57645085D01*
X83313390Y-57481113D01*
X83411993Y-57333543D01*
X83537492Y-57208044D01*
X83685062Y-57109441D01*
X83849034Y-57041521D01*
X83998334Y-57011824D01*
X84023104Y-57006897D01*
X84200588Y-57006897D01*
X84225358Y-57011824D01*
G37*
G36*
X75191694Y-55838633D02*
G01*
X75364095Y-55890931D01*
X75522983Y-55975858D01*
X75662249Y-56090151D01*
X75776542Y-56229417D01*
X75861469Y-56388305D01*
X75913767Y-56560706D01*
X75931425Y-56740000D01*
X75913767Y-56919294D01*
X75861469Y-57091695D01*
X75776542Y-57250583D01*
X75662249Y-57389849D01*
X75522983Y-57504142D01*
X75364095Y-57589069D01*
X75191694Y-57641367D01*
X75057331Y-57654600D01*
X74662669Y-57654600D01*
X74528306Y-57641367D01*
X74355905Y-57589069D01*
X74197017Y-57504142D01*
X74057751Y-57389849D01*
X73943458Y-57250583D01*
X73858531Y-57091695D01*
X73806233Y-56919294D01*
X73788575Y-56740000D01*
X73806233Y-56560706D01*
X73858531Y-56388305D01*
X73943458Y-56229417D01*
X74057751Y-56090151D01*
X74197017Y-55975858D01*
X74355905Y-55890931D01*
X74528306Y-55838633D01*
X74662669Y-55825400D01*
X75057331Y-55825400D01*
X75191694Y-55838633D01*
G37*
G36*
X52331694Y-55838633D02*
G01*
X52504095Y-55890931D01*
X52662983Y-55975858D01*
X52802249Y-56090151D01*
X52916542Y-56229417D01*
X53001469Y-56388305D01*
X53053767Y-56560706D01*
X53071425Y-56740000D01*
X53053767Y-56919294D01*
X53001469Y-57091695D01*
X52916542Y-57250583D01*
X52802249Y-57389849D01*
X52662983Y-57504142D01*
X52504095Y-57589069D01*
X52331694Y-57641367D01*
X52197331Y-57654600D01*
X51802669Y-57654600D01*
X51668306Y-57641367D01*
X51495905Y-57589069D01*
X51337017Y-57504142D01*
X51197751Y-57389849D01*
X51083458Y-57250583D01*
X50998531Y-57091695D01*
X50946233Y-56919294D01*
X50928575Y-56740000D01*
X50946233Y-56560706D01*
X50998531Y-56388305D01*
X51083458Y-56229417D01*
X51197751Y-56090151D01*
X51337017Y-55975858D01*
X51495905Y-55890931D01*
X51668306Y-55838633D01*
X51802669Y-55825400D01*
X52197331Y-55825400D01*
X52331694Y-55838633D01*
G37*
G36*
X52331694Y-53298633D02*
G01*
X52504095Y-53350931D01*
X52662983Y-53435858D01*
X52802249Y-53550151D01*
X52916542Y-53689417D01*
X53001469Y-53848305D01*
X53053767Y-54020706D01*
X53071425Y-54200000D01*
X53053767Y-54379294D01*
X53001469Y-54551695D01*
X52916542Y-54710583D01*
X52802249Y-54849849D01*
X52662983Y-54964142D01*
X52504095Y-55049069D01*
X52331694Y-55101367D01*
X52197331Y-55114600D01*
X51802669Y-55114600D01*
X51668306Y-55101367D01*
X51495905Y-55049069D01*
X51337017Y-54964142D01*
X51197751Y-54849849D01*
X51083458Y-54710583D01*
X50998531Y-54551695D01*
X50946233Y-54379294D01*
X50928575Y-54200000D01*
X50946233Y-54020706D01*
X50998531Y-53848305D01*
X51083458Y-53689417D01*
X51197751Y-53550151D01*
X51337017Y-53435858D01*
X51495905Y-53350931D01*
X51668306Y-53298633D01*
X51802669Y-53285400D01*
X52197331Y-53285400D01*
X52331694Y-53298633D01*
G37*
G36*
X75191694Y-53298633D02*
G01*
X75364095Y-53350931D01*
X75522983Y-53435858D01*
X75662249Y-53550151D01*
X75776542Y-53689417D01*
X75861469Y-53848305D01*
X75913767Y-54020706D01*
X75931425Y-54200000D01*
X75913767Y-54379294D01*
X75861469Y-54551695D01*
X75776542Y-54710583D01*
X75662249Y-54849849D01*
X75522983Y-54964142D01*
X75364095Y-55049069D01*
X75191694Y-55101367D01*
X75057331Y-55114600D01*
X74662669Y-55114600D01*
X74528306Y-55101367D01*
X74355905Y-55049069D01*
X74197017Y-54964142D01*
X74057751Y-54849849D01*
X73943458Y-54710583D01*
X73858531Y-54551695D01*
X73806233Y-54379294D01*
X73788575Y-54200000D01*
X73806233Y-54020706D01*
X73858531Y-53848305D01*
X73943458Y-53689417D01*
X74057751Y-53550151D01*
X74197017Y-53435858D01*
X74355905Y-53350931D01*
X74528306Y-53298633D01*
X74662669Y-53285400D01*
X75057331Y-53285400D01*
X75191694Y-53298633D01*
G37*
G36*
X52331694Y-50758633D02*
G01*
X52504095Y-50810931D01*
X52662983Y-50895858D01*
X52802249Y-51010151D01*
X52916542Y-51149417D01*
X53001469Y-51308305D01*
X53053767Y-51480706D01*
X53071425Y-51660000D01*
X53053767Y-51839294D01*
X53001469Y-52011695D01*
X52916542Y-52170583D01*
X52802249Y-52309849D01*
X52662983Y-52424142D01*
X52504095Y-52509069D01*
X52331694Y-52561367D01*
X52197331Y-52574600D01*
X51802669Y-52574600D01*
X51668306Y-52561367D01*
X51495905Y-52509069D01*
X51337017Y-52424142D01*
X51197751Y-52309849D01*
X51083458Y-52170583D01*
X50998531Y-52011695D01*
X50946233Y-51839294D01*
X50928575Y-51660000D01*
X50946233Y-51480706D01*
X50998531Y-51308305D01*
X51083458Y-51149417D01*
X51197751Y-51010151D01*
X51337017Y-50895858D01*
X51495905Y-50810931D01*
X51668306Y-50758633D01*
X51802669Y-50745400D01*
X52197331Y-50745400D01*
X52331694Y-50758633D01*
G37*
G36*
X75191694Y-50758633D02*
G01*
X75364095Y-50810931D01*
X75522983Y-50895858D01*
X75662249Y-51010151D01*
X75776542Y-51149417D01*
X75861469Y-51308305D01*
X75913767Y-51480706D01*
X75931425Y-51660000D01*
X75913767Y-51839294D01*
X75861469Y-52011695D01*
X75776542Y-52170583D01*
X75662249Y-52309849D01*
X75522983Y-52424142D01*
X75364095Y-52509069D01*
X75191694Y-52561367D01*
X75057331Y-52574600D01*
X74662669Y-52574600D01*
X74528306Y-52561367D01*
X74355905Y-52509069D01*
X74197017Y-52424142D01*
X74057751Y-52309849D01*
X73943458Y-52170583D01*
X73858531Y-52011695D01*
X73806233Y-51839294D01*
X73788575Y-51660000D01*
X73806233Y-51480706D01*
X73858531Y-51308305D01*
X73943458Y-51149417D01*
X74057751Y-51010151D01*
X74197017Y-50895858D01*
X74355905Y-50810931D01*
X74528306Y-50758633D01*
X74662669Y-50745400D01*
X75057331Y-50745400D01*
X75191694Y-50758633D01*
G37*
G36*
X97642007Y-46883582D02*
G01*
X98042563Y-47049498D01*
X98042565Y-47049499D01*
X98403056Y-47290371D01*
X98709629Y-47596944D01*
X98950501Y-47957435D01*
X98950502Y-47957437D01*
X99116418Y-48357993D01*
X99201000Y-48783219D01*
X99201000Y-49216781D01*
X99116418Y-49642007D01*
X98953800Y-50034600D01*
X98950501Y-50042565D01*
X98709629Y-50403056D01*
X98403056Y-50709629D01*
X98042565Y-50950501D01*
X98042564Y-50950502D01*
X98042563Y-50950502D01*
X97642007Y-51116418D01*
X97216781Y-51201000D01*
X96783219Y-51201000D01*
X96357993Y-51116418D01*
X95957437Y-50950502D01*
X95957436Y-50950502D01*
X95957435Y-50950501D01*
X95596944Y-50709629D01*
X95290371Y-50403056D01*
X95049499Y-50042565D01*
X95046200Y-50034600D01*
X94883582Y-49642007D01*
X94799000Y-49216781D01*
X94799000Y-48783219D01*
X94883582Y-48357993D01*
X95049498Y-47957437D01*
X95049499Y-47957435D01*
X95290371Y-47596944D01*
X95596944Y-47290371D01*
X95957435Y-47049499D01*
X95957437Y-47049498D01*
X96357993Y-46883582D01*
X96783219Y-46799000D01*
X97216781Y-46799000D01*
X97642007Y-46883582D01*
G37*
G36*
X107642007Y-46883582D02*
G01*
X108042563Y-47049498D01*
X108042565Y-47049499D01*
X108403056Y-47290371D01*
X108709629Y-47596944D01*
X108950501Y-47957435D01*
X108950502Y-47957437D01*
X109116418Y-48357993D01*
X109201000Y-48783219D01*
X109201000Y-49216781D01*
X109116418Y-49642007D01*
X108953800Y-50034600D01*
X108950501Y-50042565D01*
X108709629Y-50403056D01*
X108403056Y-50709629D01*
X108042565Y-50950501D01*
X108042564Y-50950502D01*
X108042563Y-50950502D01*
X107642007Y-51116418D01*
X107216781Y-51201000D01*
X106783219Y-51201000D01*
X106357993Y-51116418D01*
X105957437Y-50950502D01*
X105957436Y-50950502D01*
X105957435Y-50950501D01*
X105596944Y-50709629D01*
X105290371Y-50403056D01*
X105049499Y-50042565D01*
X105046200Y-50034600D01*
X104883582Y-49642007D01*
X104799000Y-49216781D01*
X104799000Y-48783219D01*
X104883582Y-48357993D01*
X105049498Y-47957437D01*
X105049499Y-47957435D01*
X105290371Y-47596944D01*
X105596944Y-47290371D01*
X105957435Y-47049499D01*
X105957437Y-47049498D01*
X106357993Y-46883582D01*
X106783219Y-46799000D01*
X107216781Y-46799000D01*
X107642007Y-46883582D01*
G37*
G36*
X75191694Y-48218633D02*
G01*
X75364095Y-48270931D01*
X75522983Y-48355858D01*
X75662249Y-48470151D01*
X75776542Y-48609417D01*
X75861469Y-48768305D01*
X75913767Y-48940706D01*
X75931425Y-49120000D01*
X75913767Y-49299294D01*
X75861469Y-49471695D01*
X75776542Y-49630583D01*
X75662249Y-49769849D01*
X75522983Y-49884142D01*
X75364095Y-49969069D01*
X75191694Y-50021367D01*
X75057331Y-50034600D01*
X74662669Y-50034600D01*
X74528306Y-50021367D01*
X74355905Y-49969069D01*
X74197017Y-49884142D01*
X74057751Y-49769849D01*
X73943458Y-49630583D01*
X73858531Y-49471695D01*
X73806233Y-49299294D01*
X73788575Y-49120000D01*
X73806233Y-48940706D01*
X73858531Y-48768305D01*
X73943458Y-48609417D01*
X74057751Y-48470151D01*
X74197017Y-48355858D01*
X74355905Y-48270931D01*
X74528306Y-48218633D01*
X74662669Y-48205400D01*
X75057331Y-48205400D01*
X75191694Y-48218633D01*
G37*
G36*
X52331694Y-48218633D02*
G01*
X52504095Y-48270931D01*
X52662983Y-48355858D01*
X52802249Y-48470151D01*
X52916542Y-48609417D01*
X53001469Y-48768305D01*
X53053767Y-48940706D01*
X53071425Y-49120000D01*
X53053767Y-49299294D01*
X53001469Y-49471695D01*
X52916542Y-49630583D01*
X52802249Y-49769849D01*
X52662983Y-49884142D01*
X52504095Y-49969069D01*
X52331694Y-50021367D01*
X52197331Y-50034600D01*
X51802669Y-50034600D01*
X51668306Y-50021367D01*
X51495905Y-49969069D01*
X51337017Y-49884142D01*
X51197751Y-49769849D01*
X51083458Y-49630583D01*
X50998531Y-49471695D01*
X50946233Y-49299294D01*
X50928575Y-49120000D01*
X50946233Y-48940706D01*
X50998531Y-48768305D01*
X51083458Y-48609417D01*
X51197751Y-48470151D01*
X51337017Y-48355858D01*
X51495905Y-48270931D01*
X51668306Y-48218633D01*
X51802669Y-48205400D01*
X52197331Y-48205400D01*
X52331694Y-48218633D01*
G37*
G36*
X75191694Y-45678633D02*
G01*
X75364095Y-45730931D01*
X75522983Y-45815858D01*
X75662249Y-45930151D01*
X75776542Y-46069417D01*
X75861469Y-46228305D01*
X75913767Y-46400706D01*
X75931425Y-46580000D01*
X75913767Y-46759294D01*
X75861469Y-46931695D01*
X75776542Y-47090583D01*
X75662249Y-47229849D01*
X75522983Y-47344142D01*
X75364095Y-47429069D01*
X75191694Y-47481367D01*
X75057331Y-47494600D01*
X74662669Y-47494600D01*
X74528306Y-47481367D01*
X74355905Y-47429069D01*
X74197017Y-47344142D01*
X74057751Y-47229849D01*
X73943458Y-47090583D01*
X73858531Y-46931695D01*
X73806233Y-46759294D01*
X73788575Y-46580000D01*
X73806233Y-46400706D01*
X73858531Y-46228305D01*
X73943458Y-46069417D01*
X74057751Y-45930151D01*
X74197017Y-45815858D01*
X74355905Y-45730931D01*
X74528306Y-45678633D01*
X74662669Y-45665400D01*
X75057331Y-45665400D01*
X75191694Y-45678633D01*
G37*
G36*
X52331694Y-45678633D02*
G01*
X52504095Y-45730931D01*
X52662983Y-45815858D01*
X52802249Y-45930151D01*
X52916542Y-46069417D01*
X53001469Y-46228305D01*
X53053767Y-46400706D01*
X53071425Y-46580000D01*
X53053767Y-46759294D01*
X53001469Y-46931695D01*
X52916542Y-47090583D01*
X52802249Y-47229849D01*
X52662983Y-47344142D01*
X52504095Y-47429069D01*
X52331694Y-47481367D01*
X52197331Y-47494600D01*
X51802669Y-47494600D01*
X51668306Y-47481367D01*
X51495905Y-47429069D01*
X51337017Y-47344142D01*
X51197751Y-47229849D01*
X51083458Y-47090583D01*
X50998531Y-46931695D01*
X50946233Y-46759294D01*
X50928575Y-46580000D01*
X50946233Y-46400706D01*
X50998531Y-46228305D01*
X51083458Y-46069417D01*
X51197751Y-45930151D01*
X51337017Y-45815858D01*
X51495905Y-45730931D01*
X51668306Y-45678633D01*
X51802669Y-45665400D01*
X52197331Y-45665400D01*
X52331694Y-45678633D01*
G37*
G36*
X75191694Y-43138633D02*
G01*
X75364095Y-43190931D01*
X75522983Y-43275858D01*
X75662249Y-43390151D01*
X75776542Y-43529417D01*
X75861469Y-43688305D01*
X75913767Y-43860706D01*
X75931425Y-44040000D01*
X75913767Y-44219294D01*
X75861469Y-44391695D01*
X75776542Y-44550583D01*
X75662249Y-44689849D01*
X75522983Y-44804142D01*
X75364095Y-44889069D01*
X75191694Y-44941367D01*
X75057331Y-44954600D01*
X74662669Y-44954600D01*
X74528306Y-44941367D01*
X74355905Y-44889069D01*
X74197017Y-44804142D01*
X74057751Y-44689849D01*
X73943458Y-44550583D01*
X73858531Y-44391695D01*
X73806233Y-44219294D01*
X73788575Y-44040000D01*
X73806233Y-43860706D01*
X73858531Y-43688305D01*
X73943458Y-43529417D01*
X74057751Y-43390151D01*
X74197017Y-43275858D01*
X74355905Y-43190931D01*
X74528306Y-43138633D01*
X74662669Y-43125400D01*
X75057331Y-43125400D01*
X75191694Y-43138633D01*
G37*
G36*
X52331694Y-43138633D02*
G01*
X52504095Y-43190931D01*
X52662983Y-43275858D01*
X52802249Y-43390151D01*
X52916542Y-43529417D01*
X53001469Y-43688305D01*
X53053767Y-43860706D01*
X53071425Y-44040000D01*
X53053767Y-44219294D01*
X53001469Y-44391695D01*
X52916542Y-44550583D01*
X52802249Y-44689849D01*
X52662983Y-44804142D01*
X52504095Y-44889069D01*
X52331694Y-44941367D01*
X52197331Y-44954600D01*
X51802669Y-44954600D01*
X51668306Y-44941367D01*
X51495905Y-44889069D01*
X51337017Y-44804142D01*
X51197751Y-44689849D01*
X51083458Y-44550583D01*
X50998531Y-44391695D01*
X50946233Y-44219294D01*
X50928575Y-44040000D01*
X50946233Y-43860706D01*
X50998531Y-43688305D01*
X51083458Y-43529417D01*
X51197751Y-43390151D01*
X51337017Y-43275858D01*
X51495905Y-43190931D01*
X51668306Y-43138633D01*
X51802669Y-43125400D01*
X52197331Y-43125400D01*
X52331694Y-43138633D01*
G37*
G36*
X52331694Y-40598633D02*
G01*
X52504095Y-40650931D01*
X52662983Y-40735858D01*
X52802249Y-40850151D01*
X52916542Y-40989417D01*
X53001469Y-41148305D01*
X53053767Y-41320706D01*
X53071425Y-41500000D01*
X53053767Y-41679294D01*
X53001469Y-41851695D01*
X52916542Y-42010583D01*
X52802249Y-42149849D01*
X52662983Y-42264142D01*
X52504095Y-42349069D01*
X52331694Y-42401367D01*
X52197331Y-42414600D01*
X51802669Y-42414600D01*
X51668306Y-42401367D01*
X51495905Y-42349069D01*
X51337017Y-42264142D01*
X51197751Y-42149849D01*
X51083458Y-42010583D01*
X50998531Y-41851695D01*
X50946233Y-41679294D01*
X50928575Y-41500000D01*
X50946233Y-41320706D01*
X50998531Y-41148305D01*
X51083458Y-40989417D01*
X51197751Y-40850151D01*
X51337017Y-40735858D01*
X51495905Y-40650931D01*
X51668306Y-40598633D01*
X51802669Y-40585400D01*
X52197331Y-40585400D01*
X52331694Y-40598633D01*
G37*
G36*
X75191694Y-40598633D02*
G01*
X75364095Y-40650931D01*
X75522983Y-40735858D01*
X75662249Y-40850151D01*
X75776542Y-40989417D01*
X75861469Y-41148305D01*
X75913767Y-41320706D01*
X75931425Y-41500000D01*
X75913767Y-41679294D01*
X75861469Y-41851695D01*
X75776542Y-42010583D01*
X75662249Y-42149849D01*
X75522983Y-42264142D01*
X75364095Y-42349069D01*
X75191694Y-42401367D01*
X75057331Y-42414600D01*
X74662669Y-42414600D01*
X74528306Y-42401367D01*
X74355905Y-42349069D01*
X74197017Y-42264142D01*
X74057751Y-42149849D01*
X73943458Y-42010583D01*
X73858531Y-41851695D01*
X73806233Y-41679294D01*
X73788575Y-41500000D01*
X73806233Y-41320706D01*
X73858531Y-41148305D01*
X73943458Y-40989417D01*
X74057751Y-40850151D01*
X74197017Y-40735858D01*
X74355905Y-40650931D01*
X74528306Y-40598633D01*
X74662669Y-40585400D01*
X75057331Y-40585400D01*
X75191694Y-40598633D01*
G37*
M02*
