G04 #@! TF.GenerationSoftware,KiCad,Pcbnew,5.1.5-52549c5~86~ubuntu18.04.1*
G04 #@! TF.CreationDate,2020-04-27T04:28:22+01:00*
G04 #@! TF.ProjectId,polariser_drive,706f6c61-7269-4736-9572-5f6472697665,rev?*
G04 #@! TF.SameCoordinates,Original*
G04 #@! TF.FileFunction,Profile,NP*
%FSLAX46Y46*%
G04 Gerber Fmt 4.6, Leading zero omitted, Abs format (unit mm)*
G04 Created by KiCad (PCBNEW 5.1.5-52549c5~86~ubuntu18.04.1) date 2020-04-27 04:28:22*
%MOMM*%
%LPD*%
G04 APERTURE LIST*
%ADD10C,0.050000*%
G04 APERTURE END LIST*
D10*
X113500000Y-132500000D02*
X113500000Y-126000000D01*
X113500000Y-46000000D02*
X113500000Y-45500000D01*
X49500000Y-39500000D02*
G75*
G02X52500000Y-36500000I3000000J0D01*
G01*
X49500000Y-39500000D02*
X49500000Y-80000000D01*
X77500000Y-83000000D02*
X56500000Y-83000000D01*
X113500000Y-80000000D02*
G75*
G02X110500000Y-83000000I-3000000J0D01*
G01*
X75000000Y-36500000D02*
X52500000Y-36500000D01*
X52500000Y-83000000D02*
G75*
G02X49500000Y-80000000I0J3000000D01*
G01*
X106500000Y-83000000D02*
X81500000Y-83000000D01*
X110500000Y-42500000D02*
G75*
G02X113500000Y-45500000I0J-3000000D01*
G01*
X113500000Y-46000000D02*
X113500000Y-80000000D01*
X102500000Y-42500000D02*
X110500000Y-42500000D01*
X81000000Y-42500000D02*
X102500000Y-42500000D01*
X75000000Y-36500000D02*
G75*
G02X78000000Y-39500000I0J-3000000D01*
G01*
X81000000Y-42500000D02*
G75*
G02X78000000Y-39500000I0J3000000D01*
G01*
X52500000Y-87000000D02*
G75*
G02X52500000Y-89000000I0J-1000000D01*
G01*
X56500000Y-89000000D02*
G75*
G02X56500000Y-87000000I0J1000000D01*
G01*
X106500000Y-87000000D02*
X106500000Y-85000000D01*
X106500000Y-87000000D02*
G75*
G02X106500000Y-89000000I0J-1000000D01*
G01*
X77500000Y-83000000D02*
G75*
G02X77500000Y-85000000I0J-1000000D01*
G01*
X81500000Y-85000000D02*
X81500000Y-87000000D01*
X77500000Y-87000000D02*
G75*
G02X77500000Y-89000000I0J-1000000D01*
G01*
X81500000Y-89000000D02*
G75*
G02X81500000Y-87000000I0J1000000D01*
G01*
X81500000Y-85000000D02*
G75*
G02X81500000Y-83000000I0J1000000D01*
G01*
X77500000Y-87000000D02*
X77500000Y-85000000D01*
X106500000Y-83000000D02*
G75*
G02X106500000Y-85000000I0J-1000000D01*
G01*
X110500000Y-85000000D02*
X110500000Y-87000000D01*
X56500000Y-85000000D02*
G75*
G02X56500000Y-83000000I0J1000000D01*
G01*
X52500000Y-83000000D02*
G75*
G02X52500000Y-85000000I0J-1000000D01*
G01*
X110500000Y-89000000D02*
G75*
G02X110500000Y-87000000I0J1000000D01*
G01*
X110500000Y-85000000D02*
G75*
G02X110500000Y-83000000I0J1000000D01*
G01*
X56500000Y-85000000D02*
X56500000Y-87000000D01*
X52500000Y-87000000D02*
X52500000Y-85000000D01*
X81500000Y-89000000D02*
X106500000Y-89000000D01*
X49500000Y-126500000D02*
X49500000Y-92000000D01*
X82000000Y-129500000D02*
X60500000Y-129500000D01*
X60500000Y-129500000D02*
X52500000Y-129500000D01*
X52500000Y-129500000D02*
G75*
G02X49500000Y-126500000I0J3000000D01*
G01*
X82000000Y-129500000D02*
G75*
G02X85000000Y-132500000I0J-3000000D01*
G01*
X88000000Y-135500000D02*
G75*
G02X85000000Y-132500000I0J3000000D01*
G01*
X56500000Y-89000000D02*
X77500000Y-89000000D01*
X110500000Y-89000000D02*
G75*
G02X113500000Y-92000000I0J-3000000D01*
G01*
X113500000Y-126000000D02*
X113500000Y-92000000D01*
X113500000Y-132500000D02*
G75*
G02X110500000Y-135500000I-3000000J0D01*
G01*
X88000000Y-135500000D02*
X110500000Y-135500000D01*
X49500000Y-92000000D02*
G75*
G02X52500000Y-89000000I3000000J0D01*
G01*
M02*
