G04 #@! TF.GenerationSoftware,KiCad,Pcbnew,5.1.5-52549c5~84~ubuntu18.04.1*
G04 #@! TF.CreationDate,2020-03-16T02:25:55+00:00*
G04 #@! TF.ProjectId,polariser_drive,706f6c61-7269-4736-9572-5f6472697665,rev?*
G04 #@! TF.SameCoordinates,Original*
G04 #@! TF.FileFunction,Soldermask,Top*
G04 #@! TF.FilePolarity,Negative*
%FSLAX46Y46*%
G04 Gerber Fmt 4.6, Leading zero omitted, Abs format (unit mm)*
G04 Created by KiCad (PCBNEW 5.1.5-52549c5~84~ubuntu18.04.1) date 2020-03-16 02:25:55*
%MOMM*%
%LPD*%
G04 APERTURE LIST*
%ADD10C,0.100000*%
G04 APERTURE END LIST*
D10*
G36*
X109716703Y-72711486D02*
G01*
X110007883Y-72832097D01*
X110269940Y-73007198D01*
X110492802Y-73230060D01*
X110667903Y-73492117D01*
X110788514Y-73783297D01*
X110850000Y-74092412D01*
X110850000Y-74407588D01*
X110788514Y-74716703D01*
X110667903Y-75007883D01*
X110492802Y-75269940D01*
X110269940Y-75492802D01*
X110007883Y-75667903D01*
X109716703Y-75788514D01*
X109407588Y-75850000D01*
X109092412Y-75850000D01*
X108783297Y-75788514D01*
X108492117Y-75667903D01*
X108230060Y-75492802D01*
X108007198Y-75269940D01*
X107832097Y-75007883D01*
X107711486Y-74716703D01*
X107650000Y-74407588D01*
X107650000Y-74092412D01*
X107711486Y-73783297D01*
X107832097Y-73492117D01*
X108007198Y-73230060D01*
X108230060Y-73007198D01*
X108492117Y-72832097D01*
X108783297Y-72711486D01*
X109092412Y-72650000D01*
X109407588Y-72650000D01*
X109716703Y-72711486D01*
G37*
G36*
X88466703Y-72711486D02*
G01*
X88757883Y-72832097D01*
X89019940Y-73007198D01*
X89242802Y-73230060D01*
X89417903Y-73492117D01*
X89538514Y-73783297D01*
X89600000Y-74092412D01*
X89600000Y-74407588D01*
X89538514Y-74716703D01*
X89417903Y-75007883D01*
X89242802Y-75269940D01*
X89019940Y-75492802D01*
X88757883Y-75667903D01*
X88466703Y-75788514D01*
X88157588Y-75850000D01*
X87842412Y-75850000D01*
X87533297Y-75788514D01*
X87242117Y-75667903D01*
X86980060Y-75492802D01*
X86757198Y-75269940D01*
X86582097Y-75007883D01*
X86461486Y-74716703D01*
X86400000Y-74407588D01*
X86400000Y-74092412D01*
X86461486Y-73783297D01*
X86582097Y-73492117D01*
X86757198Y-73230060D01*
X86980060Y-73007198D01*
X87242117Y-72832097D01*
X87533297Y-72711486D01*
X87842412Y-72650000D01*
X88157588Y-72650000D01*
X88466703Y-72711486D01*
G37*
G36*
X87471694Y-69098633D02*
G01*
X87644095Y-69150931D01*
X87802983Y-69235858D01*
X87942249Y-69350151D01*
X88056542Y-69489417D01*
X88141469Y-69648305D01*
X88193767Y-69820706D01*
X88211425Y-70000000D01*
X88193767Y-70179294D01*
X88141469Y-70351695D01*
X88056542Y-70510583D01*
X87942249Y-70649849D01*
X87802983Y-70764142D01*
X87644095Y-70849069D01*
X87471694Y-70901367D01*
X87337331Y-70914600D01*
X86942669Y-70914600D01*
X86808306Y-70901367D01*
X86635905Y-70849069D01*
X86477017Y-70764142D01*
X86337751Y-70649849D01*
X86223458Y-70510583D01*
X86138531Y-70351695D01*
X86086233Y-70179294D01*
X86068575Y-70000000D01*
X86086233Y-69820706D01*
X86138531Y-69648305D01*
X86223458Y-69489417D01*
X86337751Y-69350151D01*
X86477017Y-69235858D01*
X86635905Y-69150931D01*
X86808306Y-69098633D01*
X86942669Y-69085400D01*
X87337331Y-69085400D01*
X87471694Y-69098633D01*
G37*
G36*
X110331694Y-69098633D02*
G01*
X110504095Y-69150931D01*
X110662983Y-69235858D01*
X110802249Y-69350151D01*
X110916542Y-69489417D01*
X111001469Y-69648305D01*
X111053767Y-69820706D01*
X111071425Y-70000000D01*
X111053767Y-70179294D01*
X111001469Y-70351695D01*
X110916542Y-70510583D01*
X110802249Y-70649849D01*
X110662983Y-70764142D01*
X110504095Y-70849069D01*
X110331694Y-70901367D01*
X110197331Y-70914600D01*
X109802669Y-70914600D01*
X109668306Y-70901367D01*
X109495905Y-70849069D01*
X109337017Y-70764142D01*
X109197751Y-70649849D01*
X109083458Y-70510583D01*
X108998531Y-70351695D01*
X108946233Y-70179294D01*
X108928575Y-70000000D01*
X108946233Y-69820706D01*
X108998531Y-69648305D01*
X109083458Y-69489417D01*
X109197751Y-69350151D01*
X109337017Y-69235858D01*
X109495905Y-69150931D01*
X109668306Y-69098633D01*
X109802669Y-69085400D01*
X110197331Y-69085400D01*
X110331694Y-69098633D01*
G37*
G36*
X110331694Y-66558633D02*
G01*
X110504095Y-66610931D01*
X110662983Y-66695858D01*
X110802249Y-66810151D01*
X110916542Y-66949417D01*
X111001469Y-67108305D01*
X111053767Y-67280706D01*
X111071425Y-67460000D01*
X111053767Y-67639294D01*
X111001469Y-67811695D01*
X110916542Y-67970583D01*
X110802249Y-68109849D01*
X110662983Y-68224142D01*
X110504095Y-68309069D01*
X110331694Y-68361367D01*
X110197331Y-68374600D01*
X109802669Y-68374600D01*
X109668306Y-68361367D01*
X109495905Y-68309069D01*
X109337017Y-68224142D01*
X109197751Y-68109849D01*
X109083458Y-67970583D01*
X108998531Y-67811695D01*
X108946233Y-67639294D01*
X108928575Y-67460000D01*
X108946233Y-67280706D01*
X108998531Y-67108305D01*
X109083458Y-66949417D01*
X109197751Y-66810151D01*
X109337017Y-66695858D01*
X109495905Y-66610931D01*
X109668306Y-66558633D01*
X109802669Y-66545400D01*
X110197331Y-66545400D01*
X110331694Y-66558633D01*
G37*
G36*
X87471694Y-66558633D02*
G01*
X87644095Y-66610931D01*
X87802983Y-66695858D01*
X87942249Y-66810151D01*
X88056542Y-66949417D01*
X88141469Y-67108305D01*
X88193767Y-67280706D01*
X88211425Y-67460000D01*
X88193767Y-67639294D01*
X88141469Y-67811695D01*
X88056542Y-67970583D01*
X87942249Y-68109849D01*
X87802983Y-68224142D01*
X87644095Y-68309069D01*
X87471694Y-68361367D01*
X87337331Y-68374600D01*
X86942669Y-68374600D01*
X86808306Y-68361367D01*
X86635905Y-68309069D01*
X86477017Y-68224142D01*
X86337751Y-68109849D01*
X86223458Y-67970583D01*
X86138531Y-67811695D01*
X86086233Y-67639294D01*
X86068575Y-67460000D01*
X86086233Y-67280706D01*
X86138531Y-67108305D01*
X86223458Y-66949417D01*
X86337751Y-66810151D01*
X86477017Y-66695858D01*
X86635905Y-66610931D01*
X86808306Y-66558633D01*
X86942669Y-66545400D01*
X87337331Y-66545400D01*
X87471694Y-66558633D01*
G37*
G36*
X110331694Y-64018633D02*
G01*
X110504095Y-64070931D01*
X110662983Y-64155858D01*
X110802249Y-64270151D01*
X110916542Y-64409417D01*
X111001469Y-64568305D01*
X111053767Y-64740706D01*
X111071425Y-64920000D01*
X111053767Y-65099294D01*
X111001469Y-65271695D01*
X110916542Y-65430583D01*
X110802249Y-65569849D01*
X110662983Y-65684142D01*
X110504095Y-65769069D01*
X110331694Y-65821367D01*
X110197331Y-65834600D01*
X109802669Y-65834600D01*
X109668306Y-65821367D01*
X109495905Y-65769069D01*
X109337017Y-65684142D01*
X109197751Y-65569849D01*
X109083458Y-65430583D01*
X108998531Y-65271695D01*
X108946233Y-65099294D01*
X108928575Y-64920000D01*
X108946233Y-64740706D01*
X108998531Y-64568305D01*
X109083458Y-64409417D01*
X109197751Y-64270151D01*
X109337017Y-64155858D01*
X109495905Y-64070931D01*
X109668306Y-64018633D01*
X109802669Y-64005400D01*
X110197331Y-64005400D01*
X110331694Y-64018633D01*
G37*
G36*
X87471694Y-64018633D02*
G01*
X87644095Y-64070931D01*
X87802983Y-64155858D01*
X87942249Y-64270151D01*
X88056542Y-64409417D01*
X88141469Y-64568305D01*
X88193767Y-64740706D01*
X88211425Y-64920000D01*
X88193767Y-65099294D01*
X88141469Y-65271695D01*
X88056542Y-65430583D01*
X87942249Y-65569849D01*
X87802983Y-65684142D01*
X87644095Y-65769069D01*
X87471694Y-65821367D01*
X87337331Y-65834600D01*
X86942669Y-65834600D01*
X86808306Y-65821367D01*
X86635905Y-65769069D01*
X86477017Y-65684142D01*
X86337751Y-65569849D01*
X86223458Y-65430583D01*
X86138531Y-65271695D01*
X86086233Y-65099294D01*
X86068575Y-64920000D01*
X86086233Y-64740706D01*
X86138531Y-64568305D01*
X86223458Y-64409417D01*
X86337751Y-64270151D01*
X86477017Y-64155858D01*
X86635905Y-64070931D01*
X86808306Y-64018633D01*
X86942669Y-64005400D01*
X87337331Y-64005400D01*
X87471694Y-64018633D01*
G37*
G36*
X65642007Y-60383582D02*
G01*
X66042563Y-60549498D01*
X66042565Y-60549499D01*
X66403056Y-60790371D01*
X66709629Y-61096944D01*
X66910442Y-61397483D01*
X66950502Y-61457437D01*
X67116418Y-61857993D01*
X67201000Y-62283219D01*
X67201000Y-62716781D01*
X67116418Y-63142007D01*
X66950502Y-63542563D01*
X66950501Y-63542565D01*
X66709629Y-63903056D01*
X66403056Y-64209629D01*
X66042565Y-64450501D01*
X66042564Y-64450502D01*
X66042563Y-64450502D01*
X65642007Y-64616418D01*
X65216781Y-64701000D01*
X64783219Y-64701000D01*
X64357993Y-64616418D01*
X63957437Y-64450502D01*
X63957436Y-64450502D01*
X63957435Y-64450501D01*
X63596944Y-64209629D01*
X63290371Y-63903056D01*
X63049499Y-63542565D01*
X63049498Y-63542563D01*
X62883582Y-63142007D01*
X62799000Y-62716781D01*
X62799000Y-62283219D01*
X62883582Y-61857993D01*
X63049498Y-61457437D01*
X63089558Y-61397483D01*
X63290371Y-61096944D01*
X63596944Y-60790371D01*
X63957435Y-60549499D01*
X63957437Y-60549498D01*
X64357993Y-60383582D01*
X64783219Y-60299000D01*
X65216781Y-60299000D01*
X65642007Y-60383582D01*
G37*
G36*
X55642007Y-60383582D02*
G01*
X56042563Y-60549498D01*
X56042565Y-60549499D01*
X56403056Y-60790371D01*
X56709629Y-61096944D01*
X56910442Y-61397483D01*
X56950502Y-61457437D01*
X57116418Y-61857993D01*
X57201000Y-62283219D01*
X57201000Y-62716781D01*
X57116418Y-63142007D01*
X56950502Y-63542563D01*
X56950501Y-63542565D01*
X56709629Y-63903056D01*
X56403056Y-64209629D01*
X56042565Y-64450501D01*
X56042564Y-64450502D01*
X56042563Y-64450502D01*
X55642007Y-64616418D01*
X55216781Y-64701000D01*
X54783219Y-64701000D01*
X54357993Y-64616418D01*
X53957437Y-64450502D01*
X53957436Y-64450502D01*
X53957435Y-64450501D01*
X53596944Y-64209629D01*
X53290371Y-63903056D01*
X53049499Y-63542565D01*
X53049498Y-63542563D01*
X52883582Y-63142007D01*
X52799000Y-62716781D01*
X52799000Y-62283219D01*
X52883582Y-61857993D01*
X53049498Y-61457437D01*
X53089558Y-61397483D01*
X53290371Y-61096944D01*
X53596944Y-60790371D01*
X53957435Y-60549499D01*
X53957437Y-60549498D01*
X54357993Y-60383582D01*
X54783219Y-60299000D01*
X55216781Y-60299000D01*
X55642007Y-60383582D01*
G37*
G36*
X87471694Y-61478633D02*
G01*
X87644095Y-61530931D01*
X87802983Y-61615858D01*
X87942249Y-61730151D01*
X88056542Y-61869417D01*
X88141469Y-62028305D01*
X88193767Y-62200706D01*
X88211425Y-62380000D01*
X88193767Y-62559294D01*
X88141469Y-62731695D01*
X88056542Y-62890583D01*
X87942249Y-63029849D01*
X87802983Y-63144142D01*
X87644095Y-63229069D01*
X87471694Y-63281367D01*
X87337331Y-63294600D01*
X86942669Y-63294600D01*
X86808306Y-63281367D01*
X86635905Y-63229069D01*
X86477017Y-63144142D01*
X86337751Y-63029849D01*
X86223458Y-62890583D01*
X86138531Y-62731695D01*
X86086233Y-62559294D01*
X86068575Y-62380000D01*
X86086233Y-62200706D01*
X86138531Y-62028305D01*
X86223458Y-61869417D01*
X86337751Y-61730151D01*
X86477017Y-61615858D01*
X86635905Y-61530931D01*
X86808306Y-61478633D01*
X86942669Y-61465400D01*
X87337331Y-61465400D01*
X87471694Y-61478633D01*
G37*
G36*
X110331694Y-61478633D02*
G01*
X110504095Y-61530931D01*
X110662983Y-61615858D01*
X110802249Y-61730151D01*
X110916542Y-61869417D01*
X111001469Y-62028305D01*
X111053767Y-62200706D01*
X111071425Y-62380000D01*
X111053767Y-62559294D01*
X111001469Y-62731695D01*
X110916542Y-62890583D01*
X110802249Y-63029849D01*
X110662983Y-63144142D01*
X110504095Y-63229069D01*
X110331694Y-63281367D01*
X110197331Y-63294600D01*
X109802669Y-63294600D01*
X109668306Y-63281367D01*
X109495905Y-63229069D01*
X109337017Y-63144142D01*
X109197751Y-63029849D01*
X109083458Y-62890583D01*
X108998531Y-62731695D01*
X108946233Y-62559294D01*
X108928575Y-62380000D01*
X108946233Y-62200706D01*
X108998531Y-62028305D01*
X109083458Y-61869417D01*
X109197751Y-61730151D01*
X109337017Y-61615858D01*
X109495905Y-61530931D01*
X109668306Y-61478633D01*
X109802669Y-61465400D01*
X110197331Y-61465400D01*
X110331694Y-61478633D01*
G37*
G36*
X75584468Y-61341065D02*
G01*
X75623138Y-61352796D01*
X75658777Y-61371846D01*
X75690017Y-61397483D01*
X75715654Y-61428723D01*
X75734704Y-61464362D01*
X75746435Y-61503032D01*
X75751000Y-61549388D01*
X75751000Y-62200612D01*
X75746435Y-62246968D01*
X75734704Y-62285638D01*
X75715654Y-62321277D01*
X75690017Y-62352517D01*
X75658777Y-62378154D01*
X75623138Y-62397204D01*
X75584468Y-62408935D01*
X75538112Y-62413500D01*
X74461888Y-62413500D01*
X74415532Y-62408935D01*
X74376862Y-62397204D01*
X74341223Y-62378154D01*
X74309983Y-62352517D01*
X74284346Y-62321277D01*
X74265296Y-62285638D01*
X74253565Y-62246968D01*
X74249000Y-62200612D01*
X74249000Y-61549388D01*
X74253565Y-61503032D01*
X74265296Y-61464362D01*
X74284346Y-61428723D01*
X74309983Y-61397483D01*
X74341223Y-61371846D01*
X74376862Y-61352796D01*
X74415532Y-61341065D01*
X74461888Y-61336500D01*
X75538112Y-61336500D01*
X75584468Y-61341065D01*
G37*
G36*
X80584468Y-61341065D02*
G01*
X80623138Y-61352796D01*
X80658777Y-61371846D01*
X80690017Y-61397483D01*
X80715654Y-61428723D01*
X80734704Y-61464362D01*
X80746435Y-61503032D01*
X80751000Y-61549388D01*
X80751000Y-62200612D01*
X80746435Y-62246968D01*
X80734704Y-62285638D01*
X80715654Y-62321277D01*
X80690017Y-62352517D01*
X80658777Y-62378154D01*
X80623138Y-62397204D01*
X80584468Y-62408935D01*
X80538112Y-62413500D01*
X79461888Y-62413500D01*
X79415532Y-62408935D01*
X79376862Y-62397204D01*
X79341223Y-62378154D01*
X79309983Y-62352517D01*
X79284346Y-62321277D01*
X79265296Y-62285638D01*
X79253565Y-62246968D01*
X79249000Y-62200612D01*
X79249000Y-61549388D01*
X79253565Y-61503032D01*
X79265296Y-61464362D01*
X79284346Y-61428723D01*
X79309983Y-61397483D01*
X79341223Y-61371846D01*
X79376862Y-61352796D01*
X79415532Y-61341065D01*
X79461888Y-61336500D01*
X80538112Y-61336500D01*
X80584468Y-61341065D01*
G37*
G36*
X87471694Y-58938633D02*
G01*
X87644095Y-58990931D01*
X87802983Y-59075858D01*
X87942249Y-59190151D01*
X88056542Y-59329417D01*
X88141469Y-59488305D01*
X88193767Y-59660706D01*
X88211425Y-59840000D01*
X88193767Y-60019294D01*
X88141469Y-60191695D01*
X88056542Y-60350583D01*
X87942249Y-60489849D01*
X87802983Y-60604142D01*
X87644095Y-60689069D01*
X87471694Y-60741367D01*
X87337331Y-60754600D01*
X86942669Y-60754600D01*
X86808306Y-60741367D01*
X86635905Y-60689069D01*
X86477017Y-60604142D01*
X86337751Y-60489849D01*
X86223458Y-60350583D01*
X86138531Y-60191695D01*
X86086233Y-60019294D01*
X86068575Y-59840000D01*
X86086233Y-59660706D01*
X86138531Y-59488305D01*
X86223458Y-59329417D01*
X86337751Y-59190151D01*
X86477017Y-59075858D01*
X86635905Y-58990931D01*
X86808306Y-58938633D01*
X86942669Y-58925400D01*
X87337331Y-58925400D01*
X87471694Y-58938633D01*
G37*
G36*
X110331694Y-58938633D02*
G01*
X110504095Y-58990931D01*
X110662983Y-59075858D01*
X110802249Y-59190151D01*
X110916542Y-59329417D01*
X111001469Y-59488305D01*
X111053767Y-59660706D01*
X111071425Y-59840000D01*
X111053767Y-60019294D01*
X111001469Y-60191695D01*
X110916542Y-60350583D01*
X110802249Y-60489849D01*
X110662983Y-60604142D01*
X110504095Y-60689069D01*
X110331694Y-60741367D01*
X110197331Y-60754600D01*
X109802669Y-60754600D01*
X109668306Y-60741367D01*
X109495905Y-60689069D01*
X109337017Y-60604142D01*
X109197751Y-60489849D01*
X109083458Y-60350583D01*
X108998531Y-60191695D01*
X108946233Y-60019294D01*
X108928575Y-59840000D01*
X108946233Y-59660706D01*
X108998531Y-59488305D01*
X109083458Y-59329417D01*
X109197751Y-59190151D01*
X109337017Y-59075858D01*
X109495905Y-58990931D01*
X109668306Y-58938633D01*
X109802669Y-58925400D01*
X110197331Y-58925400D01*
X110331694Y-58938633D01*
G37*
G36*
X80584468Y-59466065D02*
G01*
X80623138Y-59477796D01*
X80658777Y-59496846D01*
X80690017Y-59522483D01*
X80715654Y-59553723D01*
X80734704Y-59589362D01*
X80746435Y-59628032D01*
X80751000Y-59674388D01*
X80751000Y-60325612D01*
X80746435Y-60371968D01*
X80734704Y-60410638D01*
X80715654Y-60446277D01*
X80690017Y-60477517D01*
X80658777Y-60503154D01*
X80623138Y-60522204D01*
X80584468Y-60533935D01*
X80538112Y-60538500D01*
X79461888Y-60538500D01*
X79415532Y-60533935D01*
X79376862Y-60522204D01*
X79341223Y-60503154D01*
X79309983Y-60477517D01*
X79284346Y-60446277D01*
X79265296Y-60410638D01*
X79253565Y-60371968D01*
X79249000Y-60325612D01*
X79249000Y-59674388D01*
X79253565Y-59628032D01*
X79265296Y-59589362D01*
X79284346Y-59553723D01*
X79309983Y-59522483D01*
X79341223Y-59496846D01*
X79376862Y-59477796D01*
X79415532Y-59466065D01*
X79461888Y-59461500D01*
X80538112Y-59461500D01*
X80584468Y-59466065D01*
G37*
G36*
X75584468Y-59466065D02*
G01*
X75623138Y-59477796D01*
X75658777Y-59496846D01*
X75690017Y-59522483D01*
X75715654Y-59553723D01*
X75734704Y-59589362D01*
X75746435Y-59628032D01*
X75751000Y-59674388D01*
X75751000Y-60325612D01*
X75746435Y-60371968D01*
X75734704Y-60410638D01*
X75715654Y-60446277D01*
X75690017Y-60477517D01*
X75658777Y-60503154D01*
X75623138Y-60522204D01*
X75584468Y-60533935D01*
X75538112Y-60538500D01*
X74461888Y-60538500D01*
X74415532Y-60533935D01*
X74376862Y-60522204D01*
X74341223Y-60503154D01*
X74309983Y-60477517D01*
X74284346Y-60446277D01*
X74265296Y-60410638D01*
X74253565Y-60371968D01*
X74249000Y-60325612D01*
X74249000Y-59674388D01*
X74253565Y-59628032D01*
X74265296Y-59589362D01*
X74284346Y-59553723D01*
X74309983Y-59522483D01*
X74341223Y-59496846D01*
X74376862Y-59477796D01*
X74415532Y-59466065D01*
X74461888Y-59461500D01*
X75538112Y-59461500D01*
X75584468Y-59466065D01*
G37*
G36*
X110331694Y-56398633D02*
G01*
X110504095Y-56450931D01*
X110662983Y-56535858D01*
X110802249Y-56650151D01*
X110916542Y-56789417D01*
X111001469Y-56948305D01*
X111053767Y-57120706D01*
X111071425Y-57300000D01*
X111053767Y-57479294D01*
X111001469Y-57651695D01*
X110916542Y-57810583D01*
X110802249Y-57949849D01*
X110662983Y-58064142D01*
X110504095Y-58149069D01*
X110331694Y-58201367D01*
X110197331Y-58214600D01*
X109802669Y-58214600D01*
X109668306Y-58201367D01*
X109495905Y-58149069D01*
X109337017Y-58064142D01*
X109197751Y-57949849D01*
X109083458Y-57810583D01*
X108998531Y-57651695D01*
X108946233Y-57479294D01*
X108928575Y-57300000D01*
X108946233Y-57120706D01*
X108998531Y-56948305D01*
X109083458Y-56789417D01*
X109197751Y-56650151D01*
X109337017Y-56535858D01*
X109495905Y-56450931D01*
X109668306Y-56398633D01*
X109802669Y-56385400D01*
X110197331Y-56385400D01*
X110331694Y-56398633D01*
G37*
G36*
X87471694Y-56398633D02*
G01*
X87644095Y-56450931D01*
X87802983Y-56535858D01*
X87942249Y-56650151D01*
X88056542Y-56789417D01*
X88141469Y-56948305D01*
X88193767Y-57120706D01*
X88211425Y-57300000D01*
X88193767Y-57479294D01*
X88141469Y-57651695D01*
X88056542Y-57810583D01*
X87942249Y-57949849D01*
X87802983Y-58064142D01*
X87644095Y-58149069D01*
X87471694Y-58201367D01*
X87337331Y-58214600D01*
X86942669Y-58214600D01*
X86808306Y-58201367D01*
X86635905Y-58149069D01*
X86477017Y-58064142D01*
X86337751Y-57949849D01*
X86223458Y-57810583D01*
X86138531Y-57651695D01*
X86086233Y-57479294D01*
X86068575Y-57300000D01*
X86086233Y-57120706D01*
X86138531Y-56948305D01*
X86223458Y-56789417D01*
X86337751Y-56650151D01*
X86477017Y-56535858D01*
X86635905Y-56450931D01*
X86808306Y-56398633D01*
X86942669Y-56385400D01*
X87337331Y-56385400D01*
X87471694Y-56398633D01*
G37*
G36*
X110331694Y-53858633D02*
G01*
X110504095Y-53910931D01*
X110662983Y-53995858D01*
X110802249Y-54110151D01*
X110916542Y-54249417D01*
X111001469Y-54408305D01*
X111053767Y-54580706D01*
X111071425Y-54760000D01*
X111053767Y-54939294D01*
X111001469Y-55111695D01*
X110916542Y-55270583D01*
X110802249Y-55409849D01*
X110662983Y-55524142D01*
X110504095Y-55609069D01*
X110331694Y-55661367D01*
X110197331Y-55674600D01*
X109802669Y-55674600D01*
X109668306Y-55661367D01*
X109495905Y-55609069D01*
X109337017Y-55524142D01*
X109197751Y-55409849D01*
X109083458Y-55270583D01*
X108998531Y-55111695D01*
X108946233Y-54939294D01*
X108928575Y-54760000D01*
X108946233Y-54580706D01*
X108998531Y-54408305D01*
X109083458Y-54249417D01*
X109197751Y-54110151D01*
X109337017Y-53995858D01*
X109495905Y-53910931D01*
X109668306Y-53858633D01*
X109802669Y-53845400D01*
X110197331Y-53845400D01*
X110331694Y-53858633D01*
G37*
G36*
X87471694Y-53858633D02*
G01*
X87644095Y-53910931D01*
X87802983Y-53995858D01*
X87942249Y-54110151D01*
X88056542Y-54249417D01*
X88141469Y-54408305D01*
X88193767Y-54580706D01*
X88211425Y-54760000D01*
X88193767Y-54939294D01*
X88141469Y-55111695D01*
X88056542Y-55270583D01*
X87942249Y-55409849D01*
X87802983Y-55524142D01*
X87644095Y-55609069D01*
X87471694Y-55661367D01*
X87337331Y-55674600D01*
X86942669Y-55674600D01*
X86808306Y-55661367D01*
X86635905Y-55609069D01*
X86477017Y-55524142D01*
X86337751Y-55409849D01*
X86223458Y-55270583D01*
X86138531Y-55111695D01*
X86086233Y-54939294D01*
X86068575Y-54760000D01*
X86086233Y-54580706D01*
X86138531Y-54408305D01*
X86223458Y-54249417D01*
X86337751Y-54110151D01*
X86477017Y-53995858D01*
X86635905Y-53910931D01*
X86808306Y-53858633D01*
X86942669Y-53845400D01*
X87337331Y-53845400D01*
X87471694Y-53858633D01*
G37*
G36*
X51416242Y-53653404D02*
G01*
X51453337Y-53664657D01*
X51487515Y-53682925D01*
X51517481Y-53707519D01*
X51542075Y-53737485D01*
X51560343Y-53771663D01*
X51571596Y-53808758D01*
X51576000Y-53853474D01*
X51576000Y-54746526D01*
X51571596Y-54791242D01*
X51560343Y-54828337D01*
X51542075Y-54862515D01*
X51517481Y-54892481D01*
X51487515Y-54917075D01*
X51453337Y-54935343D01*
X51416242Y-54946596D01*
X51371526Y-54951000D01*
X49878474Y-54951000D01*
X49833758Y-54946596D01*
X49796663Y-54935343D01*
X49762485Y-54917075D01*
X49732519Y-54892481D01*
X49707925Y-54862515D01*
X49689657Y-54828337D01*
X49678404Y-54791242D01*
X49674000Y-54746526D01*
X49674000Y-53853474D01*
X49678404Y-53808758D01*
X49689657Y-53771663D01*
X49707925Y-53737485D01*
X49732519Y-53707519D01*
X49762485Y-53682925D01*
X49796663Y-53664657D01*
X49833758Y-53653404D01*
X49878474Y-53649000D01*
X51371526Y-53649000D01*
X51416242Y-53653404D01*
G37*
G36*
X60233642Y-52229781D02*
G01*
X60379414Y-52290162D01*
X60379416Y-52290163D01*
X60510608Y-52377822D01*
X60622178Y-52489392D01*
X60677171Y-52571696D01*
X60709838Y-52620586D01*
X60770219Y-52766358D01*
X60801000Y-52921107D01*
X60801000Y-53078893D01*
X60770219Y-53233642D01*
X60709838Y-53379414D01*
X60709837Y-53379416D01*
X60622178Y-53510608D01*
X60510608Y-53622178D01*
X60379416Y-53709837D01*
X60379415Y-53709838D01*
X60379414Y-53709838D01*
X60233642Y-53770219D01*
X60078893Y-53801000D01*
X59921107Y-53801000D01*
X59766358Y-53770219D01*
X59620586Y-53709838D01*
X59620585Y-53709838D01*
X59620584Y-53709837D01*
X59489392Y-53622178D01*
X59377822Y-53510608D01*
X59290163Y-53379416D01*
X59290162Y-53379414D01*
X59229781Y-53233642D01*
X59199000Y-53078893D01*
X59199000Y-52921107D01*
X59229781Y-52766358D01*
X59290162Y-52620586D01*
X59322829Y-52571696D01*
X59377822Y-52489392D01*
X59489392Y-52377822D01*
X59620584Y-52290163D01*
X59620586Y-52290162D01*
X59766358Y-52229781D01*
X59921107Y-52199000D01*
X60078893Y-52199000D01*
X60233642Y-52229781D01*
G37*
G36*
X55234928Y-52651764D02*
G01*
X55256009Y-52658160D01*
X55275445Y-52668548D01*
X55292476Y-52682524D01*
X55306452Y-52699555D01*
X55316840Y-52718991D01*
X55323236Y-52740072D01*
X55326000Y-52768140D01*
X55326000Y-53231860D01*
X55323236Y-53259928D01*
X55316840Y-53281009D01*
X55306452Y-53300445D01*
X55292476Y-53317476D01*
X55275445Y-53331452D01*
X55256009Y-53341840D01*
X55234928Y-53348236D01*
X55206860Y-53351000D01*
X53843140Y-53351000D01*
X53815072Y-53348236D01*
X53793991Y-53341840D01*
X53774555Y-53331452D01*
X53757524Y-53317476D01*
X53743548Y-53300445D01*
X53733160Y-53281009D01*
X53726764Y-53259928D01*
X53724000Y-53231860D01*
X53724000Y-52768140D01*
X53726764Y-52740072D01*
X53733160Y-52718991D01*
X53743548Y-52699555D01*
X53757524Y-52682524D01*
X53774555Y-52668548D01*
X53793991Y-52658160D01*
X53815072Y-52651764D01*
X53843140Y-52649000D01*
X55206860Y-52649000D01*
X55234928Y-52651764D01*
G37*
G36*
X87471694Y-51318633D02*
G01*
X87644095Y-51370931D01*
X87802983Y-51455858D01*
X87942249Y-51570151D01*
X88056542Y-51709417D01*
X88141469Y-51868305D01*
X88193767Y-52040706D01*
X88211425Y-52220000D01*
X88193767Y-52399294D01*
X88141469Y-52571695D01*
X88056542Y-52730583D01*
X87942249Y-52869849D01*
X87802983Y-52984142D01*
X87644095Y-53069069D01*
X87471694Y-53121367D01*
X87337331Y-53134600D01*
X86942669Y-53134600D01*
X86808306Y-53121367D01*
X86635905Y-53069069D01*
X86477017Y-52984142D01*
X86337751Y-52869849D01*
X86223458Y-52730583D01*
X86138531Y-52571695D01*
X86086233Y-52399294D01*
X86068575Y-52220000D01*
X86086233Y-52040706D01*
X86138531Y-51868305D01*
X86223458Y-51709417D01*
X86337751Y-51570151D01*
X86477017Y-51455858D01*
X86635905Y-51370931D01*
X86808306Y-51318633D01*
X86942669Y-51305400D01*
X87337331Y-51305400D01*
X87471694Y-51318633D01*
G37*
G36*
X110331694Y-51318633D02*
G01*
X110504095Y-51370931D01*
X110662983Y-51455858D01*
X110802249Y-51570151D01*
X110916542Y-51709417D01*
X111001469Y-51868305D01*
X111053767Y-52040706D01*
X111071425Y-52220000D01*
X111053767Y-52399294D01*
X111001469Y-52571695D01*
X110916542Y-52730583D01*
X110802249Y-52869849D01*
X110662983Y-52984142D01*
X110504095Y-53069069D01*
X110331694Y-53121367D01*
X110197331Y-53134600D01*
X109802669Y-53134600D01*
X109668306Y-53121367D01*
X109495905Y-53069069D01*
X109337017Y-52984142D01*
X109197751Y-52869849D01*
X109083458Y-52730583D01*
X108998531Y-52571695D01*
X108946233Y-52399294D01*
X108928575Y-52220000D01*
X108946233Y-52040706D01*
X108998531Y-51868305D01*
X109083458Y-51709417D01*
X109197751Y-51570151D01*
X109337017Y-51455858D01*
X109495905Y-51370931D01*
X109668306Y-51318633D01*
X109802669Y-51305400D01*
X110197331Y-51305400D01*
X110331694Y-51318633D01*
G37*
G36*
X55234928Y-51651764D02*
G01*
X55256009Y-51658160D01*
X55275445Y-51668548D01*
X55292476Y-51682524D01*
X55306452Y-51699555D01*
X55316840Y-51718991D01*
X55323236Y-51740072D01*
X55326000Y-51768140D01*
X55326000Y-52231860D01*
X55323236Y-52259928D01*
X55316840Y-52281009D01*
X55306452Y-52300445D01*
X55292476Y-52317476D01*
X55275445Y-52331452D01*
X55256009Y-52341840D01*
X55234928Y-52348236D01*
X55206860Y-52351000D01*
X53843140Y-52351000D01*
X53815072Y-52348236D01*
X53793991Y-52341840D01*
X53774555Y-52331452D01*
X53757524Y-52317476D01*
X53743548Y-52300445D01*
X53733160Y-52281009D01*
X53726764Y-52259928D01*
X53724000Y-52231860D01*
X53724000Y-51768140D01*
X53726764Y-51740072D01*
X53733160Y-51718991D01*
X53743548Y-51699555D01*
X53757524Y-51682524D01*
X53774555Y-51668548D01*
X53793991Y-51658160D01*
X53815072Y-51651764D01*
X53843140Y-51649000D01*
X55206860Y-51649000D01*
X55234928Y-51651764D01*
G37*
G36*
X62733642Y-50729781D02*
G01*
X62879414Y-50790162D01*
X62879416Y-50790163D01*
X63010608Y-50877822D01*
X63122178Y-50989392D01*
X63209837Y-51120584D01*
X63209838Y-51120586D01*
X63270219Y-51266358D01*
X63301000Y-51421107D01*
X63301000Y-51578893D01*
X63270219Y-51733642D01*
X63209838Y-51879414D01*
X63209837Y-51879416D01*
X63122178Y-52010608D01*
X63010608Y-52122178D01*
X62879416Y-52209837D01*
X62879415Y-52209838D01*
X62879414Y-52209838D01*
X62733642Y-52270219D01*
X62578893Y-52301000D01*
X62421107Y-52301000D01*
X62266358Y-52270219D01*
X62120586Y-52209838D01*
X62120585Y-52209838D01*
X62120584Y-52209837D01*
X61989392Y-52122178D01*
X61877822Y-52010608D01*
X61790163Y-51879416D01*
X61790162Y-51879414D01*
X61729781Y-51733642D01*
X61699000Y-51578893D01*
X61699000Y-51421107D01*
X61729781Y-51266358D01*
X61790162Y-51120586D01*
X61790163Y-51120584D01*
X61877822Y-50989392D01*
X61989392Y-50877822D01*
X62120584Y-50790163D01*
X62120586Y-50790162D01*
X62266358Y-50729781D01*
X62421107Y-50699000D01*
X62578893Y-50699000D01*
X62733642Y-50729781D01*
G37*
G36*
X55234928Y-50651764D02*
G01*
X55256009Y-50658160D01*
X55275445Y-50668548D01*
X55292476Y-50682524D01*
X55306452Y-50699555D01*
X55316840Y-50718991D01*
X55323236Y-50740072D01*
X55326000Y-50768140D01*
X55326000Y-51231860D01*
X55323236Y-51259928D01*
X55316840Y-51281009D01*
X55306452Y-51300445D01*
X55292476Y-51317476D01*
X55275445Y-51331452D01*
X55256009Y-51341840D01*
X55234928Y-51348236D01*
X55206860Y-51351000D01*
X53843140Y-51351000D01*
X53815072Y-51348236D01*
X53793991Y-51341840D01*
X53774555Y-51331452D01*
X53757524Y-51317476D01*
X53743548Y-51300445D01*
X53733160Y-51281009D01*
X53726764Y-51259928D01*
X53724000Y-51231860D01*
X53724000Y-50768140D01*
X53726764Y-50740072D01*
X53733160Y-50718991D01*
X53743548Y-50699555D01*
X53757524Y-50682524D01*
X53774555Y-50668548D01*
X53793991Y-50658160D01*
X53815072Y-50651764D01*
X53843140Y-50649000D01*
X55206860Y-50649000D01*
X55234928Y-50651764D01*
G37*
G36*
X60233642Y-49229781D02*
G01*
X60379414Y-49290162D01*
X60379416Y-49290163D01*
X60510608Y-49377822D01*
X60622178Y-49489392D01*
X60629738Y-49500707D01*
X60709838Y-49620586D01*
X60770219Y-49766358D01*
X60801000Y-49921107D01*
X60801000Y-50078893D01*
X60770219Y-50233642D01*
X60709838Y-50379414D01*
X60709837Y-50379416D01*
X60622178Y-50510608D01*
X60510608Y-50622178D01*
X60379416Y-50709837D01*
X60379415Y-50709838D01*
X60379414Y-50709838D01*
X60233642Y-50770219D01*
X60078893Y-50801000D01*
X59921107Y-50801000D01*
X59766358Y-50770219D01*
X59620586Y-50709838D01*
X59620585Y-50709838D01*
X59620584Y-50709837D01*
X59489392Y-50622178D01*
X59377822Y-50510608D01*
X59290163Y-50379416D01*
X59290162Y-50379414D01*
X59229781Y-50233642D01*
X59199000Y-50078893D01*
X59199000Y-49921107D01*
X59229781Y-49766358D01*
X59290162Y-49620586D01*
X59370262Y-49500707D01*
X59377822Y-49489392D01*
X59489392Y-49377822D01*
X59620584Y-49290163D01*
X59620586Y-49290162D01*
X59766358Y-49229781D01*
X59921107Y-49199000D01*
X60078893Y-49199000D01*
X60233642Y-49229781D01*
G37*
G36*
X110331694Y-48778633D02*
G01*
X110504095Y-48830931D01*
X110662983Y-48915858D01*
X110802249Y-49030151D01*
X110916542Y-49169417D01*
X111001469Y-49328305D01*
X111053767Y-49500706D01*
X111071425Y-49680000D01*
X111053767Y-49859294D01*
X111001469Y-50031695D01*
X110916542Y-50190583D01*
X110802249Y-50329849D01*
X110662983Y-50444142D01*
X110504095Y-50529069D01*
X110331694Y-50581367D01*
X110197331Y-50594600D01*
X109802669Y-50594600D01*
X109668306Y-50581367D01*
X109495905Y-50529069D01*
X109337017Y-50444142D01*
X109197751Y-50329849D01*
X109083458Y-50190583D01*
X108998531Y-50031695D01*
X108946233Y-49859294D01*
X108928575Y-49680000D01*
X108946233Y-49500706D01*
X108998531Y-49328305D01*
X109083458Y-49169417D01*
X109197751Y-49030151D01*
X109337017Y-48915858D01*
X109495905Y-48830931D01*
X109668306Y-48778633D01*
X109802669Y-48765400D01*
X110197331Y-48765400D01*
X110331694Y-48778633D01*
G37*
G36*
X87471694Y-48778633D02*
G01*
X87644095Y-48830931D01*
X87802983Y-48915858D01*
X87942249Y-49030151D01*
X88056542Y-49169417D01*
X88141469Y-49328305D01*
X88193767Y-49500706D01*
X88211425Y-49680000D01*
X88193767Y-49859294D01*
X88141469Y-50031695D01*
X88056542Y-50190583D01*
X87942249Y-50329849D01*
X87802983Y-50444142D01*
X87644095Y-50529069D01*
X87471694Y-50581367D01*
X87337331Y-50594600D01*
X86942669Y-50594600D01*
X86808306Y-50581367D01*
X86635905Y-50529069D01*
X86477017Y-50444142D01*
X86337751Y-50329849D01*
X86223458Y-50190583D01*
X86138531Y-50031695D01*
X86086233Y-49859294D01*
X86068575Y-49680000D01*
X86086233Y-49500706D01*
X86138531Y-49328305D01*
X86223458Y-49169417D01*
X86337751Y-49030151D01*
X86477017Y-48915858D01*
X86635905Y-48830931D01*
X86808306Y-48778633D01*
X86942669Y-48765400D01*
X87337331Y-48765400D01*
X87471694Y-48778633D01*
G37*
G36*
X55234928Y-49651764D02*
G01*
X55256009Y-49658160D01*
X55275445Y-49668548D01*
X55292476Y-49682524D01*
X55306452Y-49699555D01*
X55316840Y-49718991D01*
X55323236Y-49740072D01*
X55326000Y-49768140D01*
X55326000Y-50231860D01*
X55323236Y-50259928D01*
X55316840Y-50281009D01*
X55306452Y-50300445D01*
X55292476Y-50317476D01*
X55275445Y-50331452D01*
X55256009Y-50341840D01*
X55234928Y-50348236D01*
X55206860Y-50351000D01*
X53843140Y-50351000D01*
X53815072Y-50348236D01*
X53793991Y-50341840D01*
X53774555Y-50331452D01*
X53757524Y-50317476D01*
X53743548Y-50300445D01*
X53733160Y-50281009D01*
X53726764Y-50259928D01*
X53724000Y-50231860D01*
X53724000Y-49768140D01*
X53726764Y-49740072D01*
X53733160Y-49718991D01*
X53743548Y-49699555D01*
X53757524Y-49682524D01*
X53774555Y-49668548D01*
X53793991Y-49658160D01*
X53815072Y-49651764D01*
X53843140Y-49649000D01*
X55206860Y-49649000D01*
X55234928Y-49651764D01*
G37*
G36*
X55234928Y-48651764D02*
G01*
X55256009Y-48658160D01*
X55275445Y-48668548D01*
X55292476Y-48682524D01*
X55306452Y-48699555D01*
X55316840Y-48718991D01*
X55323236Y-48740072D01*
X55326000Y-48768140D01*
X55326000Y-49231860D01*
X55323236Y-49259928D01*
X55316840Y-49281009D01*
X55306452Y-49300445D01*
X55292476Y-49317476D01*
X55275445Y-49331452D01*
X55256009Y-49341840D01*
X55234928Y-49348236D01*
X55206860Y-49351000D01*
X53843140Y-49351000D01*
X53815072Y-49348236D01*
X53793991Y-49341840D01*
X53774555Y-49331452D01*
X53757524Y-49317476D01*
X53743548Y-49300445D01*
X53733160Y-49281009D01*
X53726764Y-49259928D01*
X53724000Y-49231860D01*
X53724000Y-48768140D01*
X53726764Y-48740072D01*
X53733160Y-48718991D01*
X53743548Y-48699555D01*
X53757524Y-48682524D01*
X53774555Y-48668548D01*
X53793991Y-48658160D01*
X53815072Y-48651764D01*
X53843140Y-48649000D01*
X55206860Y-48649000D01*
X55234928Y-48651764D01*
G37*
G36*
X62733642Y-47729781D02*
G01*
X62878658Y-47789849D01*
X62879416Y-47790163D01*
X63010608Y-47877822D01*
X63122178Y-47989392D01*
X63156906Y-48041367D01*
X63209838Y-48120586D01*
X63270219Y-48266358D01*
X63301000Y-48421107D01*
X63301000Y-48578893D01*
X63270219Y-48733642D01*
X63246766Y-48790262D01*
X63209837Y-48879416D01*
X63122178Y-49010608D01*
X63010608Y-49122178D01*
X62879416Y-49209837D01*
X62879415Y-49209838D01*
X62879414Y-49209838D01*
X62733642Y-49270219D01*
X62578893Y-49301000D01*
X62421107Y-49301000D01*
X62266358Y-49270219D01*
X62120586Y-49209838D01*
X62120585Y-49209838D01*
X62120584Y-49209837D01*
X61989392Y-49122178D01*
X61877822Y-49010608D01*
X61790163Y-48879416D01*
X61753234Y-48790262D01*
X61729781Y-48733642D01*
X61699000Y-48578893D01*
X61699000Y-48421107D01*
X61729781Y-48266358D01*
X61790162Y-48120586D01*
X61843094Y-48041367D01*
X61877822Y-47989392D01*
X61989392Y-47877822D01*
X62120584Y-47790163D01*
X62121342Y-47789849D01*
X62266358Y-47729781D01*
X62421107Y-47699000D01*
X62578893Y-47699000D01*
X62733642Y-47729781D01*
G37*
G36*
X55234928Y-47651764D02*
G01*
X55256009Y-47658160D01*
X55275445Y-47668548D01*
X55292476Y-47682524D01*
X55306452Y-47699555D01*
X55316840Y-47718991D01*
X55323236Y-47740072D01*
X55326000Y-47768140D01*
X55326000Y-48231860D01*
X55323236Y-48259928D01*
X55316840Y-48281009D01*
X55306452Y-48300445D01*
X55292476Y-48317476D01*
X55275445Y-48331452D01*
X55256009Y-48341840D01*
X55234928Y-48348236D01*
X55206860Y-48351000D01*
X53843140Y-48351000D01*
X53815072Y-48348236D01*
X53793991Y-48341840D01*
X53774555Y-48331452D01*
X53757524Y-48317476D01*
X53743548Y-48300445D01*
X53733160Y-48281009D01*
X53726764Y-48259928D01*
X53724000Y-48231860D01*
X53724000Y-47768140D01*
X53726764Y-47740072D01*
X53733160Y-47718991D01*
X53743548Y-47699555D01*
X53757524Y-47682524D01*
X53774555Y-47668548D01*
X53793991Y-47658160D01*
X53815072Y-47651764D01*
X53843140Y-47649000D01*
X55206860Y-47649000D01*
X55234928Y-47651764D01*
G37*
G36*
X110331694Y-46238633D02*
G01*
X110504095Y-46290931D01*
X110662983Y-46375858D01*
X110802249Y-46490151D01*
X110916542Y-46629417D01*
X111001469Y-46788305D01*
X111053767Y-46960706D01*
X111071425Y-47140000D01*
X111053767Y-47319294D01*
X111001469Y-47491695D01*
X110916542Y-47650583D01*
X110802249Y-47789849D01*
X110662983Y-47904142D01*
X110504095Y-47989069D01*
X110331694Y-48041367D01*
X110197331Y-48054600D01*
X109802669Y-48054600D01*
X109668306Y-48041367D01*
X109495905Y-47989069D01*
X109337017Y-47904142D01*
X109197751Y-47789849D01*
X109083458Y-47650583D01*
X108998531Y-47491695D01*
X108946233Y-47319294D01*
X108928575Y-47140000D01*
X108946233Y-46960706D01*
X108998531Y-46788305D01*
X109083458Y-46629417D01*
X109197751Y-46490151D01*
X109337017Y-46375858D01*
X109495905Y-46290931D01*
X109668306Y-46238633D01*
X109802669Y-46225400D01*
X110197331Y-46225400D01*
X110331694Y-46238633D01*
G37*
G36*
X87471694Y-46238633D02*
G01*
X87644095Y-46290931D01*
X87802983Y-46375858D01*
X87942249Y-46490151D01*
X88056542Y-46629417D01*
X88141469Y-46788305D01*
X88193767Y-46960706D01*
X88211425Y-47140000D01*
X88193767Y-47319294D01*
X88141469Y-47491695D01*
X88056542Y-47650583D01*
X87942249Y-47789849D01*
X87802983Y-47904142D01*
X87644095Y-47989069D01*
X87471694Y-48041367D01*
X87337331Y-48054600D01*
X86942669Y-48054600D01*
X86808306Y-48041367D01*
X86635905Y-47989069D01*
X86477017Y-47904142D01*
X86337751Y-47789849D01*
X86223458Y-47650583D01*
X86138531Y-47491695D01*
X86086233Y-47319294D01*
X86068575Y-47140000D01*
X86086233Y-46960706D01*
X86138531Y-46788305D01*
X86223458Y-46629417D01*
X86337751Y-46490151D01*
X86477017Y-46375858D01*
X86635905Y-46290931D01*
X86808306Y-46238633D01*
X86942669Y-46225400D01*
X87337331Y-46225400D01*
X87471694Y-46238633D01*
G37*
G36*
X60233642Y-46229781D02*
G01*
X60379414Y-46290162D01*
X60379416Y-46290163D01*
X60510608Y-46377822D01*
X60622178Y-46489392D01*
X60709837Y-46620584D01*
X60709838Y-46620586D01*
X60770219Y-46766358D01*
X60801000Y-46921107D01*
X60801000Y-47078893D01*
X60770219Y-47233642D01*
X60709838Y-47379414D01*
X60709837Y-47379416D01*
X60622178Y-47510608D01*
X60510608Y-47622178D01*
X60379416Y-47709837D01*
X60379415Y-47709838D01*
X60379414Y-47709838D01*
X60233642Y-47770219D01*
X60078893Y-47801000D01*
X59921107Y-47801000D01*
X59766358Y-47770219D01*
X59620586Y-47709838D01*
X59620585Y-47709838D01*
X59620584Y-47709837D01*
X59489392Y-47622178D01*
X59377822Y-47510608D01*
X59290163Y-47379416D01*
X59290162Y-47379414D01*
X59229781Y-47233642D01*
X59199000Y-47078893D01*
X59199000Y-46921107D01*
X59229781Y-46766358D01*
X59290162Y-46620586D01*
X59290163Y-46620584D01*
X59377822Y-46489392D01*
X59489392Y-46377822D01*
X59620584Y-46290163D01*
X59620586Y-46290162D01*
X59766358Y-46229781D01*
X59921107Y-46199000D01*
X60078893Y-46199000D01*
X60233642Y-46229781D01*
G37*
G36*
X55234928Y-46651764D02*
G01*
X55256009Y-46658160D01*
X55275445Y-46668548D01*
X55292476Y-46682524D01*
X55306452Y-46699555D01*
X55316840Y-46718991D01*
X55323236Y-46740072D01*
X55326000Y-46768140D01*
X55326000Y-47231860D01*
X55323236Y-47259928D01*
X55316840Y-47281009D01*
X55306452Y-47300445D01*
X55292476Y-47317476D01*
X55275445Y-47331452D01*
X55256009Y-47341840D01*
X55234928Y-47348236D01*
X55206860Y-47351000D01*
X53843140Y-47351000D01*
X53815072Y-47348236D01*
X53793991Y-47341840D01*
X53774555Y-47331452D01*
X53757524Y-47317476D01*
X53743548Y-47300445D01*
X53733160Y-47281009D01*
X53726764Y-47259928D01*
X53724000Y-47231860D01*
X53724000Y-46768140D01*
X53726764Y-46740072D01*
X53733160Y-46718991D01*
X53743548Y-46699555D01*
X53757524Y-46682524D01*
X53774555Y-46668548D01*
X53793991Y-46658160D01*
X53815072Y-46651764D01*
X53843140Y-46649000D01*
X55206860Y-46649000D01*
X55234928Y-46651764D01*
G37*
G36*
X101326000Y-46681000D02*
G01*
X100574000Y-46681000D01*
X100574000Y-45519000D01*
X101326000Y-45519000D01*
X101326000Y-46681000D01*
G37*
G36*
X99426000Y-46681000D02*
G01*
X98674000Y-46681000D01*
X98674000Y-45519000D01*
X99426000Y-45519000D01*
X99426000Y-46681000D01*
G37*
G36*
X55234928Y-45651764D02*
G01*
X55256009Y-45658160D01*
X55275445Y-45668548D01*
X55292476Y-45682524D01*
X55306452Y-45699555D01*
X55316840Y-45718991D01*
X55323236Y-45740072D01*
X55326000Y-45768140D01*
X55326000Y-46231860D01*
X55323236Y-46259928D01*
X55316840Y-46281009D01*
X55306452Y-46300445D01*
X55292476Y-46317476D01*
X55275445Y-46331452D01*
X55256009Y-46341840D01*
X55234928Y-46348236D01*
X55206860Y-46351000D01*
X53843140Y-46351000D01*
X53815072Y-46348236D01*
X53793991Y-46341840D01*
X53774555Y-46331452D01*
X53757524Y-46317476D01*
X53743548Y-46300445D01*
X53733160Y-46281009D01*
X53726764Y-46259928D01*
X53724000Y-46231860D01*
X53724000Y-45768140D01*
X53726764Y-45740072D01*
X53733160Y-45718991D01*
X53743548Y-45699555D01*
X53757524Y-45682524D01*
X53774555Y-45668548D01*
X53793991Y-45658160D01*
X53815072Y-45651764D01*
X53843140Y-45649000D01*
X55206860Y-45649000D01*
X55234928Y-45651764D01*
G37*
G36*
X87471694Y-43698633D02*
G01*
X87644095Y-43750931D01*
X87802983Y-43835858D01*
X87942249Y-43950151D01*
X88056542Y-44089417D01*
X88141469Y-44248305D01*
X88193767Y-44420706D01*
X88211425Y-44600000D01*
X88193767Y-44779294D01*
X88141469Y-44951695D01*
X88056542Y-45110583D01*
X87942249Y-45249849D01*
X87802983Y-45364142D01*
X87644095Y-45449069D01*
X87471694Y-45501367D01*
X87337331Y-45514600D01*
X86942669Y-45514600D01*
X86808306Y-45501367D01*
X86635905Y-45449069D01*
X86477017Y-45364142D01*
X86337751Y-45249849D01*
X86223458Y-45110583D01*
X86138531Y-44951695D01*
X86086233Y-44779294D01*
X86068575Y-44600000D01*
X86086233Y-44420706D01*
X86138531Y-44248305D01*
X86223458Y-44089417D01*
X86337751Y-43950151D01*
X86477017Y-43835858D01*
X86635905Y-43750931D01*
X86808306Y-43698633D01*
X86942669Y-43685400D01*
X87337331Y-43685400D01*
X87471694Y-43698633D01*
G37*
G36*
X110331694Y-43698633D02*
G01*
X110504095Y-43750931D01*
X110662983Y-43835858D01*
X110802249Y-43950151D01*
X110916542Y-44089417D01*
X111001469Y-44248305D01*
X111053767Y-44420706D01*
X111071425Y-44600000D01*
X111053767Y-44779294D01*
X111001469Y-44951695D01*
X110916542Y-45110583D01*
X110802249Y-45249849D01*
X110662983Y-45364142D01*
X110504095Y-45449069D01*
X110331694Y-45501367D01*
X110197331Y-45514600D01*
X109802669Y-45514600D01*
X109668306Y-45501367D01*
X109495905Y-45449069D01*
X109337017Y-45364142D01*
X109197751Y-45249849D01*
X109083458Y-45110583D01*
X108998531Y-44951695D01*
X108946233Y-44779294D01*
X108928575Y-44600000D01*
X108946233Y-44420706D01*
X108998531Y-44248305D01*
X109083458Y-44089417D01*
X109197751Y-43950151D01*
X109337017Y-43835858D01*
X109495905Y-43750931D01*
X109668306Y-43698633D01*
X109802669Y-43685400D01*
X110197331Y-43685400D01*
X110331694Y-43698633D01*
G37*
G36*
X55234928Y-44651764D02*
G01*
X55256009Y-44658160D01*
X55275445Y-44668548D01*
X55292476Y-44682524D01*
X55306452Y-44699555D01*
X55316840Y-44718991D01*
X55323236Y-44740072D01*
X55326000Y-44768140D01*
X55326000Y-45231860D01*
X55323236Y-45259928D01*
X55316840Y-45281009D01*
X55306452Y-45300445D01*
X55292476Y-45317476D01*
X55275445Y-45331452D01*
X55256009Y-45341840D01*
X55234928Y-45348236D01*
X55206860Y-45351000D01*
X53843140Y-45351000D01*
X53815072Y-45348236D01*
X53793991Y-45341840D01*
X53774555Y-45331452D01*
X53757524Y-45317476D01*
X53743548Y-45300445D01*
X53733160Y-45281009D01*
X53726764Y-45259928D01*
X53724000Y-45231860D01*
X53724000Y-44768140D01*
X53726764Y-44740072D01*
X53733160Y-44718991D01*
X53743548Y-44699555D01*
X53757524Y-44682524D01*
X53774555Y-44668548D01*
X53793991Y-44658160D01*
X53815072Y-44651764D01*
X53843140Y-44649000D01*
X55206860Y-44649000D01*
X55234928Y-44651764D01*
G37*
G36*
X101326000Y-44481000D02*
G01*
X98674000Y-44481000D01*
X98674000Y-43319000D01*
X101326000Y-43319000D01*
X101326000Y-44481000D01*
G37*
G36*
X51416242Y-43053404D02*
G01*
X51453337Y-43064657D01*
X51487515Y-43082925D01*
X51517481Y-43107519D01*
X51542075Y-43137485D01*
X51560343Y-43171663D01*
X51571596Y-43208758D01*
X51576000Y-43253474D01*
X51576000Y-44146526D01*
X51571596Y-44191242D01*
X51560343Y-44228337D01*
X51542075Y-44262515D01*
X51517481Y-44292481D01*
X51487515Y-44317075D01*
X51453337Y-44335343D01*
X51416242Y-44346596D01*
X51371526Y-44351000D01*
X49878474Y-44351000D01*
X49833758Y-44346596D01*
X49796663Y-44335343D01*
X49762485Y-44317075D01*
X49732519Y-44292481D01*
X49707925Y-44262515D01*
X49689657Y-44228337D01*
X49678404Y-44191242D01*
X49674000Y-44146526D01*
X49674000Y-43253474D01*
X49678404Y-43208758D01*
X49689657Y-43171663D01*
X49707925Y-43137485D01*
X49732519Y-43107519D01*
X49762485Y-43082925D01*
X49796663Y-43064657D01*
X49833758Y-43053404D01*
X49878474Y-43049000D01*
X51371526Y-43049000D01*
X51416242Y-43053404D01*
G37*
G36*
X110331694Y-41158633D02*
G01*
X110504095Y-41210931D01*
X110662983Y-41295858D01*
X110802249Y-41410151D01*
X110916542Y-41549417D01*
X111001469Y-41708305D01*
X111053767Y-41880706D01*
X111071425Y-42060000D01*
X111053767Y-42239294D01*
X111001469Y-42411695D01*
X110916542Y-42570583D01*
X110802249Y-42709849D01*
X110662983Y-42824142D01*
X110504095Y-42909069D01*
X110331694Y-42961367D01*
X110197331Y-42974600D01*
X109802669Y-42974600D01*
X109668306Y-42961367D01*
X109495905Y-42909069D01*
X109337017Y-42824142D01*
X109197751Y-42709849D01*
X109083458Y-42570583D01*
X108998531Y-42411695D01*
X108946233Y-42239294D01*
X108928575Y-42060000D01*
X108946233Y-41880706D01*
X108998531Y-41708305D01*
X109083458Y-41549417D01*
X109197751Y-41410151D01*
X109337017Y-41295858D01*
X109495905Y-41210931D01*
X109668306Y-41158633D01*
X109802669Y-41145400D01*
X110197331Y-41145400D01*
X110331694Y-41158633D01*
G37*
G36*
X87471694Y-41158633D02*
G01*
X87644095Y-41210931D01*
X87802983Y-41295858D01*
X87942249Y-41410151D01*
X88056542Y-41549417D01*
X88141469Y-41708305D01*
X88193767Y-41880706D01*
X88211425Y-42060000D01*
X88193767Y-42239294D01*
X88141469Y-42411695D01*
X88056542Y-42570583D01*
X87942249Y-42709849D01*
X87802983Y-42824142D01*
X87644095Y-42909069D01*
X87471694Y-42961367D01*
X87337331Y-42974600D01*
X86942669Y-42974600D01*
X86808306Y-42961367D01*
X86635905Y-42909069D01*
X86477017Y-42824142D01*
X86337751Y-42709849D01*
X86223458Y-42570583D01*
X86138531Y-42411695D01*
X86086233Y-42239294D01*
X86068575Y-42060000D01*
X86086233Y-41880706D01*
X86138531Y-41708305D01*
X86223458Y-41549417D01*
X86337751Y-41410151D01*
X86477017Y-41295858D01*
X86635905Y-41210931D01*
X86808306Y-41158633D01*
X86942669Y-41145400D01*
X87337331Y-41145400D01*
X87471694Y-41158633D01*
G37*
G36*
X76101000Y-41601000D02*
G01*
X73899000Y-41601000D01*
X73899000Y-39399000D01*
X76101000Y-39399000D01*
X76101000Y-41601000D01*
G37*
G36*
X87471694Y-38618633D02*
G01*
X87644095Y-38670931D01*
X87802983Y-38755858D01*
X87942249Y-38870151D01*
X88056542Y-39009417D01*
X88141469Y-39168305D01*
X88193767Y-39340706D01*
X88211425Y-39520000D01*
X88193767Y-39699294D01*
X88141469Y-39871695D01*
X88056542Y-40030583D01*
X87942249Y-40169849D01*
X87802983Y-40284142D01*
X87644095Y-40369069D01*
X87471694Y-40421367D01*
X87337331Y-40434600D01*
X86942669Y-40434600D01*
X86808306Y-40421367D01*
X86635905Y-40369069D01*
X86477017Y-40284142D01*
X86337751Y-40169849D01*
X86223458Y-40030583D01*
X86138531Y-39871695D01*
X86086233Y-39699294D01*
X86068575Y-39520000D01*
X86086233Y-39340706D01*
X86138531Y-39168305D01*
X86223458Y-39009417D01*
X86337751Y-38870151D01*
X86477017Y-38755858D01*
X86635905Y-38670931D01*
X86808306Y-38618633D01*
X86942669Y-38605400D01*
X87337331Y-38605400D01*
X87471694Y-38618633D01*
G37*
G36*
X110331694Y-38618633D02*
G01*
X110504095Y-38670931D01*
X110662983Y-38755858D01*
X110802249Y-38870151D01*
X110916542Y-39009417D01*
X111001469Y-39168305D01*
X111053767Y-39340706D01*
X111071425Y-39520000D01*
X111053767Y-39699294D01*
X111001469Y-39871695D01*
X110916542Y-40030583D01*
X110802249Y-40169849D01*
X110662983Y-40284142D01*
X110504095Y-40369069D01*
X110331694Y-40421367D01*
X110197331Y-40434600D01*
X109802669Y-40434600D01*
X109668306Y-40421367D01*
X109495905Y-40369069D01*
X109337017Y-40284142D01*
X109197751Y-40169849D01*
X109083458Y-40030583D01*
X108998531Y-39871695D01*
X108946233Y-39699294D01*
X108928575Y-39520000D01*
X108946233Y-39340706D01*
X108998531Y-39168305D01*
X109083458Y-39009417D01*
X109197751Y-38870151D01*
X109337017Y-38755858D01*
X109495905Y-38670931D01*
X109668306Y-38618633D01*
X109802669Y-38605400D01*
X110197331Y-38605400D01*
X110331694Y-38618633D01*
G37*
G36*
X98088674Y-38928465D02*
G01*
X98126367Y-38939899D01*
X98161103Y-38958466D01*
X98191548Y-38983452D01*
X98216534Y-39013897D01*
X98235101Y-39048633D01*
X98246535Y-39086326D01*
X98251000Y-39131661D01*
X98251000Y-39968339D01*
X98246535Y-40013674D01*
X98235101Y-40051367D01*
X98216534Y-40086103D01*
X98191548Y-40116548D01*
X98161103Y-40141534D01*
X98126367Y-40160101D01*
X98088674Y-40171535D01*
X98043339Y-40176000D01*
X96956661Y-40176000D01*
X96911326Y-40171535D01*
X96873633Y-40160101D01*
X96838897Y-40141534D01*
X96808452Y-40116548D01*
X96783466Y-40086103D01*
X96764899Y-40051367D01*
X96753465Y-40013674D01*
X96749000Y-39968339D01*
X96749000Y-39131661D01*
X96753465Y-39086326D01*
X96764899Y-39048633D01*
X96783466Y-39013897D01*
X96808452Y-38983452D01*
X96838897Y-38958466D01*
X96873633Y-38939899D01*
X96911326Y-38928465D01*
X96956661Y-38924000D01*
X98043339Y-38924000D01*
X98088674Y-38928465D01*
G37*
G36*
X103088674Y-38928465D02*
G01*
X103126367Y-38939899D01*
X103161103Y-38958466D01*
X103191548Y-38983452D01*
X103216534Y-39013897D01*
X103235101Y-39048633D01*
X103246535Y-39086326D01*
X103251000Y-39131661D01*
X103251000Y-39968339D01*
X103246535Y-40013674D01*
X103235101Y-40051367D01*
X103216534Y-40086103D01*
X103191548Y-40116548D01*
X103161103Y-40141534D01*
X103126367Y-40160101D01*
X103088674Y-40171535D01*
X103043339Y-40176000D01*
X101956661Y-40176000D01*
X101911326Y-40171535D01*
X101873633Y-40160101D01*
X101838897Y-40141534D01*
X101808452Y-40116548D01*
X101783466Y-40086103D01*
X101764899Y-40051367D01*
X101753465Y-40013674D01*
X101749000Y-39968339D01*
X101749000Y-39131661D01*
X101753465Y-39086326D01*
X101764899Y-39048633D01*
X101783466Y-39013897D01*
X101808452Y-38983452D01*
X101838897Y-38958466D01*
X101873633Y-38939899D01*
X101911326Y-38928465D01*
X101956661Y-38924000D01*
X103043339Y-38924000D01*
X103088674Y-38928465D01*
G37*
G36*
X70377618Y-37458420D02*
G01*
X70468404Y-37485960D01*
X70500336Y-37495646D01*
X70613425Y-37556094D01*
X70712554Y-37637446D01*
X70793906Y-37736575D01*
X70854354Y-37849664D01*
X70854355Y-37849668D01*
X70891580Y-37972382D01*
X70901000Y-38068027D01*
X70901000Y-39331973D01*
X70891580Y-39427618D01*
X70864040Y-39518404D01*
X70854354Y-39550336D01*
X70793906Y-39663425D01*
X70712554Y-39762553D01*
X70613424Y-39843906D01*
X70500335Y-39904354D01*
X70468403Y-39914040D01*
X70377617Y-39941580D01*
X70250000Y-39954149D01*
X70122382Y-39941580D01*
X70031596Y-39914040D01*
X69999664Y-39904354D01*
X69886575Y-39843906D01*
X69787447Y-39762554D01*
X69706094Y-39663424D01*
X69645646Y-39550335D01*
X69635960Y-39518403D01*
X69608420Y-39427617D01*
X69599000Y-39331972D01*
X69599001Y-38068027D01*
X69608421Y-37972382D01*
X69645646Y-37849668D01*
X69645647Y-37849664D01*
X69706095Y-37736575D01*
X69787447Y-37637446D01*
X69886576Y-37556094D01*
X69999665Y-37495646D01*
X70031597Y-37485960D01*
X70122383Y-37458420D01*
X70250000Y-37445851D01*
X70377618Y-37458420D01*
G37*
G36*
X79877618Y-37458420D02*
G01*
X79968404Y-37485960D01*
X80000336Y-37495646D01*
X80113425Y-37556094D01*
X80212554Y-37637446D01*
X80293906Y-37736575D01*
X80354354Y-37849664D01*
X80354355Y-37849668D01*
X80391580Y-37972382D01*
X80401000Y-38068027D01*
X80401000Y-39331973D01*
X80391580Y-39427618D01*
X80364040Y-39518404D01*
X80354354Y-39550336D01*
X80293906Y-39663425D01*
X80212554Y-39762553D01*
X80113424Y-39843906D01*
X80000335Y-39904354D01*
X79968403Y-39914040D01*
X79877617Y-39941580D01*
X79750000Y-39954149D01*
X79622382Y-39941580D01*
X79531596Y-39914040D01*
X79499664Y-39904354D01*
X79386575Y-39843906D01*
X79287447Y-39762554D01*
X79206094Y-39663424D01*
X79145646Y-39550335D01*
X79135960Y-39518403D01*
X79108420Y-39427617D01*
X79099000Y-39331972D01*
X79099001Y-38068027D01*
X79108421Y-37972382D01*
X79145646Y-37849668D01*
X79145647Y-37849664D01*
X79206095Y-37736575D01*
X79287447Y-37637446D01*
X79386576Y-37556094D01*
X79499665Y-37495646D01*
X79531597Y-37485960D01*
X79622383Y-37458420D01*
X79750000Y-37445851D01*
X79877618Y-37458420D01*
G37*
G36*
X51551000Y-39551000D02*
G01*
X48449000Y-39551000D01*
X48449000Y-36449000D01*
X51551000Y-36449000D01*
X51551000Y-39551000D01*
G37*
G36*
X98088674Y-36878465D02*
G01*
X98126367Y-36889899D01*
X98161103Y-36908466D01*
X98191548Y-36933452D01*
X98216534Y-36963897D01*
X98235101Y-36998633D01*
X98246535Y-37036326D01*
X98251000Y-37081661D01*
X98251000Y-37918339D01*
X98246535Y-37963674D01*
X98235101Y-38001367D01*
X98216534Y-38036103D01*
X98191548Y-38066548D01*
X98161103Y-38091534D01*
X98126367Y-38110101D01*
X98088674Y-38121535D01*
X98043339Y-38126000D01*
X96956661Y-38126000D01*
X96911326Y-38121535D01*
X96873633Y-38110101D01*
X96838897Y-38091534D01*
X96808452Y-38066548D01*
X96783466Y-38036103D01*
X96764899Y-38001367D01*
X96753465Y-37963674D01*
X96749000Y-37918339D01*
X96749000Y-37081661D01*
X96753465Y-37036326D01*
X96764899Y-36998633D01*
X96783466Y-36963897D01*
X96808452Y-36933452D01*
X96838897Y-36908466D01*
X96873633Y-36889899D01*
X96911326Y-36878465D01*
X96956661Y-36874000D01*
X98043339Y-36874000D01*
X98088674Y-36878465D01*
G37*
G36*
X103088674Y-36878465D02*
G01*
X103126367Y-36889899D01*
X103161103Y-36908466D01*
X103191548Y-36933452D01*
X103216534Y-36963897D01*
X103235101Y-36998633D01*
X103246535Y-37036326D01*
X103251000Y-37081661D01*
X103251000Y-37918339D01*
X103246535Y-37963674D01*
X103235101Y-38001367D01*
X103216534Y-38036103D01*
X103191548Y-38066548D01*
X103161103Y-38091534D01*
X103126367Y-38110101D01*
X103088674Y-38121535D01*
X103043339Y-38126000D01*
X101956661Y-38126000D01*
X101911326Y-38121535D01*
X101873633Y-38110101D01*
X101838897Y-38091534D01*
X101808452Y-38066548D01*
X101783466Y-38036103D01*
X101764899Y-38001367D01*
X101753465Y-37963674D01*
X101749000Y-37918339D01*
X101749000Y-37081661D01*
X101753465Y-37036326D01*
X101764899Y-36998633D01*
X101783466Y-36963897D01*
X101808452Y-36933452D01*
X101838897Y-36908466D01*
X101873633Y-36889899D01*
X101911326Y-36878465D01*
X101956661Y-36874000D01*
X103043339Y-36874000D01*
X103088674Y-36878465D01*
G37*
G36*
X110331694Y-36078633D02*
G01*
X110504095Y-36130931D01*
X110662983Y-36215858D01*
X110802249Y-36330151D01*
X110916542Y-36469417D01*
X111001469Y-36628305D01*
X111053767Y-36800706D01*
X111071425Y-36980000D01*
X111053767Y-37159294D01*
X111001469Y-37331695D01*
X110916542Y-37490583D01*
X110802249Y-37629849D01*
X110662983Y-37744142D01*
X110504095Y-37829069D01*
X110331694Y-37881367D01*
X110197331Y-37894600D01*
X109802669Y-37894600D01*
X109668306Y-37881367D01*
X109495905Y-37829069D01*
X109337017Y-37744142D01*
X109197751Y-37629849D01*
X109083458Y-37490583D01*
X108998531Y-37331695D01*
X108946233Y-37159294D01*
X108928575Y-36980000D01*
X108946233Y-36800706D01*
X108998531Y-36628305D01*
X109083458Y-36469417D01*
X109197751Y-36330151D01*
X109337017Y-36215858D01*
X109495905Y-36130931D01*
X109668306Y-36078633D01*
X109802669Y-36065400D01*
X110197331Y-36065400D01*
X110331694Y-36078633D01*
G37*
G36*
X87471694Y-36078633D02*
G01*
X87644095Y-36130931D01*
X87802983Y-36215858D01*
X87942249Y-36330151D01*
X88056542Y-36469417D01*
X88141469Y-36628305D01*
X88193767Y-36800706D01*
X88211425Y-36980000D01*
X88193767Y-37159294D01*
X88141469Y-37331695D01*
X88056542Y-37490583D01*
X87942249Y-37629849D01*
X87802983Y-37744142D01*
X87644095Y-37829069D01*
X87471694Y-37881367D01*
X87337331Y-37894600D01*
X86942669Y-37894600D01*
X86808306Y-37881367D01*
X86635905Y-37829069D01*
X86477017Y-37744142D01*
X86337751Y-37629849D01*
X86223458Y-37490583D01*
X86138531Y-37331695D01*
X86086233Y-37159294D01*
X86068575Y-36980000D01*
X86086233Y-36800706D01*
X86138531Y-36628305D01*
X86223458Y-36469417D01*
X86337751Y-36330151D01*
X86477017Y-36215858D01*
X86635905Y-36130931D01*
X86808306Y-36078633D01*
X86942669Y-36065400D01*
X87337331Y-36065400D01*
X87471694Y-36078633D01*
G37*
G36*
X75960443Y-33605519D02*
G01*
X76026627Y-33612037D01*
X76196466Y-33663557D01*
X76352991Y-33747222D01*
X76386296Y-33774555D01*
X76490186Y-33859814D01*
X76573448Y-33961271D01*
X76602778Y-33997009D01*
X76686443Y-34153534D01*
X76737963Y-34323373D01*
X76755359Y-34500000D01*
X76737963Y-34676627D01*
X76686443Y-34846466D01*
X76602778Y-35002991D01*
X76573448Y-35038729D01*
X76490186Y-35140186D01*
X76408942Y-35206860D01*
X76352991Y-35252778D01*
X76196466Y-35336443D01*
X76026627Y-35387963D01*
X75960443Y-35394481D01*
X75894260Y-35401000D01*
X74105740Y-35401000D01*
X74039557Y-35394481D01*
X73973373Y-35387963D01*
X73803534Y-35336443D01*
X73647009Y-35252778D01*
X73591058Y-35206860D01*
X73509814Y-35140186D01*
X73426552Y-35038729D01*
X73397222Y-35002991D01*
X73313557Y-34846466D01*
X73262037Y-34676627D01*
X73244641Y-34500000D01*
X73262037Y-34323373D01*
X73313557Y-34153534D01*
X73397222Y-33997009D01*
X73426552Y-33961271D01*
X73509814Y-33859814D01*
X73613704Y-33774555D01*
X73647009Y-33747222D01*
X73803534Y-33663557D01*
X73973373Y-33612037D01*
X74039557Y-33605519D01*
X74105740Y-33599000D01*
X75894260Y-33599000D01*
X75960443Y-33605519D01*
G37*
G36*
X110331694Y-33538633D02*
G01*
X110504095Y-33590931D01*
X110662983Y-33675858D01*
X110802249Y-33790151D01*
X110916542Y-33929417D01*
X111001469Y-34088305D01*
X111053767Y-34260706D01*
X111071425Y-34440000D01*
X111053767Y-34619294D01*
X111001469Y-34791695D01*
X110916542Y-34950583D01*
X110802249Y-35089849D01*
X110662983Y-35204142D01*
X110504095Y-35289069D01*
X110331694Y-35341367D01*
X110197331Y-35354600D01*
X109802669Y-35354600D01*
X109668306Y-35341367D01*
X109495905Y-35289069D01*
X109337017Y-35204142D01*
X109197751Y-35089849D01*
X109083458Y-34950583D01*
X108998531Y-34791695D01*
X108946233Y-34619294D01*
X108928575Y-34440000D01*
X108946233Y-34260706D01*
X108998531Y-34088305D01*
X109083458Y-33929417D01*
X109197751Y-33790151D01*
X109337017Y-33675858D01*
X109495905Y-33590931D01*
X109668306Y-33538633D01*
X109802669Y-33525400D01*
X110197331Y-33525400D01*
X110331694Y-33538633D01*
G37*
G36*
X87471694Y-33538633D02*
G01*
X87644095Y-33590931D01*
X87802983Y-33675858D01*
X87942249Y-33790151D01*
X88056542Y-33929417D01*
X88141469Y-34088305D01*
X88193767Y-34260706D01*
X88211425Y-34440000D01*
X88193767Y-34619294D01*
X88141469Y-34791695D01*
X88056542Y-34950583D01*
X87942249Y-35089849D01*
X87802983Y-35204142D01*
X87644095Y-35289069D01*
X87471694Y-35341367D01*
X87337331Y-35354600D01*
X86942669Y-35354600D01*
X86808306Y-35341367D01*
X86635905Y-35289069D01*
X86477017Y-35204142D01*
X86337751Y-35089849D01*
X86223458Y-34950583D01*
X86138531Y-34791695D01*
X86086233Y-34619294D01*
X86068575Y-34440000D01*
X86086233Y-34260706D01*
X86138531Y-34088305D01*
X86223458Y-33929417D01*
X86337751Y-33790151D01*
X86477017Y-33675858D01*
X86635905Y-33590931D01*
X86808306Y-33538633D01*
X86942669Y-33525400D01*
X87337331Y-33525400D01*
X87471694Y-33538633D01*
G37*
G36*
X59759928Y-33726764D02*
G01*
X59781009Y-33733160D01*
X59800445Y-33743548D01*
X59817476Y-33757524D01*
X59831452Y-33774555D01*
X59841840Y-33793991D01*
X59848236Y-33815072D01*
X59851000Y-33843140D01*
X59851000Y-35206860D01*
X59848236Y-35234928D01*
X59841840Y-35256009D01*
X59831452Y-35275445D01*
X59817476Y-35292476D01*
X59800445Y-35306452D01*
X59781009Y-35316840D01*
X59759928Y-35323236D01*
X59731860Y-35326000D01*
X59268140Y-35326000D01*
X59240072Y-35323236D01*
X59218991Y-35316840D01*
X59199555Y-35306452D01*
X59182524Y-35292476D01*
X59168548Y-35275445D01*
X59158160Y-35256009D01*
X59151764Y-35234928D01*
X59149000Y-35206860D01*
X59149000Y-33843140D01*
X59151764Y-33815072D01*
X59158160Y-33793991D01*
X59168548Y-33774555D01*
X59182524Y-33757524D01*
X59199555Y-33743548D01*
X59218991Y-33733160D01*
X59240072Y-33726764D01*
X59268140Y-33724000D01*
X59731860Y-33724000D01*
X59759928Y-33726764D01*
G37*
G36*
X61759928Y-33726764D02*
G01*
X61781009Y-33733160D01*
X61800445Y-33743548D01*
X61817476Y-33757524D01*
X61831452Y-33774555D01*
X61841840Y-33793991D01*
X61848236Y-33815072D01*
X61851000Y-33843140D01*
X61851000Y-35206860D01*
X61848236Y-35234928D01*
X61841840Y-35256009D01*
X61831452Y-35275445D01*
X61817476Y-35292476D01*
X61800445Y-35306452D01*
X61781009Y-35316840D01*
X61759928Y-35323236D01*
X61731860Y-35326000D01*
X61268140Y-35326000D01*
X61240072Y-35323236D01*
X61218991Y-35316840D01*
X61199555Y-35306452D01*
X61182524Y-35292476D01*
X61168548Y-35275445D01*
X61158160Y-35256009D01*
X61151764Y-35234928D01*
X61149000Y-35206860D01*
X61149000Y-33843140D01*
X61151764Y-33815072D01*
X61158160Y-33793991D01*
X61168548Y-33774555D01*
X61182524Y-33757524D01*
X61199555Y-33743548D01*
X61218991Y-33733160D01*
X61240072Y-33726764D01*
X61268140Y-33724000D01*
X61731860Y-33724000D01*
X61759928Y-33726764D01*
G37*
G36*
X60759928Y-33726764D02*
G01*
X60781009Y-33733160D01*
X60800445Y-33743548D01*
X60817476Y-33757524D01*
X60831452Y-33774555D01*
X60841840Y-33793991D01*
X60848236Y-33815072D01*
X60851000Y-33843140D01*
X60851000Y-35206860D01*
X60848236Y-35234928D01*
X60841840Y-35256009D01*
X60831452Y-35275445D01*
X60817476Y-35292476D01*
X60800445Y-35306452D01*
X60781009Y-35316840D01*
X60759928Y-35323236D01*
X60731860Y-35326000D01*
X60268140Y-35326000D01*
X60240072Y-35323236D01*
X60218991Y-35316840D01*
X60199555Y-35306452D01*
X60182524Y-35292476D01*
X60168548Y-35275445D01*
X60158160Y-35256009D01*
X60151764Y-35234928D01*
X60149000Y-35206860D01*
X60149000Y-33843140D01*
X60151764Y-33815072D01*
X60158160Y-33793991D01*
X60168548Y-33774555D01*
X60182524Y-33757524D01*
X60199555Y-33743548D01*
X60218991Y-33733160D01*
X60240072Y-33726764D01*
X60268140Y-33724000D01*
X60731860Y-33724000D01*
X60759928Y-33726764D01*
G37*
G36*
X58759928Y-33726764D02*
G01*
X58781009Y-33733160D01*
X58800445Y-33743548D01*
X58817476Y-33757524D01*
X58831452Y-33774555D01*
X58841840Y-33793991D01*
X58848236Y-33815072D01*
X58851000Y-33843140D01*
X58851000Y-35206860D01*
X58848236Y-35234928D01*
X58841840Y-35256009D01*
X58831452Y-35275445D01*
X58817476Y-35292476D01*
X58800445Y-35306452D01*
X58781009Y-35316840D01*
X58759928Y-35323236D01*
X58731860Y-35326000D01*
X58268140Y-35326000D01*
X58240072Y-35323236D01*
X58218991Y-35316840D01*
X58199555Y-35306452D01*
X58182524Y-35292476D01*
X58168548Y-35275445D01*
X58158160Y-35256009D01*
X58151764Y-35234928D01*
X58149000Y-35206860D01*
X58149000Y-33843140D01*
X58151764Y-33815072D01*
X58158160Y-33793991D01*
X58168548Y-33774555D01*
X58182524Y-33757524D01*
X58199555Y-33743548D01*
X58218991Y-33733160D01*
X58240072Y-33726764D01*
X58268140Y-33724000D01*
X58731860Y-33724000D01*
X58759928Y-33726764D01*
G37*
G36*
X56759928Y-33726764D02*
G01*
X56781009Y-33733160D01*
X56800445Y-33743548D01*
X56817476Y-33757524D01*
X56831452Y-33774555D01*
X56841840Y-33793991D01*
X56848236Y-33815072D01*
X56851000Y-33843140D01*
X56851000Y-35206860D01*
X56848236Y-35234928D01*
X56841840Y-35256009D01*
X56831452Y-35275445D01*
X56817476Y-35292476D01*
X56800445Y-35306452D01*
X56781009Y-35316840D01*
X56759928Y-35323236D01*
X56731860Y-35326000D01*
X56268140Y-35326000D01*
X56240072Y-35323236D01*
X56218991Y-35316840D01*
X56199555Y-35306452D01*
X56182524Y-35292476D01*
X56168548Y-35275445D01*
X56158160Y-35256009D01*
X56151764Y-35234928D01*
X56149000Y-35206860D01*
X56149000Y-33843140D01*
X56151764Y-33815072D01*
X56158160Y-33793991D01*
X56168548Y-33774555D01*
X56182524Y-33757524D01*
X56199555Y-33743548D01*
X56218991Y-33733160D01*
X56240072Y-33726764D01*
X56268140Y-33724000D01*
X56731860Y-33724000D01*
X56759928Y-33726764D01*
G37*
G36*
X55759928Y-33726764D02*
G01*
X55781009Y-33733160D01*
X55800445Y-33743548D01*
X55817476Y-33757524D01*
X55831452Y-33774555D01*
X55841840Y-33793991D01*
X55848236Y-33815072D01*
X55851000Y-33843140D01*
X55851000Y-35206860D01*
X55848236Y-35234928D01*
X55841840Y-35256009D01*
X55831452Y-35275445D01*
X55817476Y-35292476D01*
X55800445Y-35306452D01*
X55781009Y-35316840D01*
X55759928Y-35323236D01*
X55731860Y-35326000D01*
X55268140Y-35326000D01*
X55240072Y-35323236D01*
X55218991Y-35316840D01*
X55199555Y-35306452D01*
X55182524Y-35292476D01*
X55168548Y-35275445D01*
X55158160Y-35256009D01*
X55151764Y-35234928D01*
X55149000Y-35206860D01*
X55149000Y-33843140D01*
X55151764Y-33815072D01*
X55158160Y-33793991D01*
X55168548Y-33774555D01*
X55182524Y-33757524D01*
X55199555Y-33743548D01*
X55218991Y-33733160D01*
X55240072Y-33726764D01*
X55268140Y-33724000D01*
X55731860Y-33724000D01*
X55759928Y-33726764D01*
G37*
G36*
X54759928Y-33726764D02*
G01*
X54781009Y-33733160D01*
X54800445Y-33743548D01*
X54817476Y-33757524D01*
X54831452Y-33774555D01*
X54841840Y-33793991D01*
X54848236Y-33815072D01*
X54851000Y-33843140D01*
X54851000Y-35206860D01*
X54848236Y-35234928D01*
X54841840Y-35256009D01*
X54831452Y-35275445D01*
X54817476Y-35292476D01*
X54800445Y-35306452D01*
X54781009Y-35316840D01*
X54759928Y-35323236D01*
X54731860Y-35326000D01*
X54268140Y-35326000D01*
X54240072Y-35323236D01*
X54218991Y-35316840D01*
X54199555Y-35306452D01*
X54182524Y-35292476D01*
X54168548Y-35275445D01*
X54158160Y-35256009D01*
X54151764Y-35234928D01*
X54149000Y-35206860D01*
X54149000Y-33843140D01*
X54151764Y-33815072D01*
X54158160Y-33793991D01*
X54168548Y-33774555D01*
X54182524Y-33757524D01*
X54199555Y-33743548D01*
X54218991Y-33733160D01*
X54240072Y-33726764D01*
X54268140Y-33724000D01*
X54731860Y-33724000D01*
X54759928Y-33726764D01*
G37*
G36*
X53759928Y-33726764D02*
G01*
X53781009Y-33733160D01*
X53800445Y-33743548D01*
X53817476Y-33757524D01*
X53831452Y-33774555D01*
X53841840Y-33793991D01*
X53848236Y-33815072D01*
X53851000Y-33843140D01*
X53851000Y-35206860D01*
X53848236Y-35234928D01*
X53841840Y-35256009D01*
X53831452Y-35275445D01*
X53817476Y-35292476D01*
X53800445Y-35306452D01*
X53781009Y-35316840D01*
X53759928Y-35323236D01*
X53731860Y-35326000D01*
X53268140Y-35326000D01*
X53240072Y-35323236D01*
X53218991Y-35316840D01*
X53199555Y-35306452D01*
X53182524Y-35292476D01*
X53168548Y-35275445D01*
X53158160Y-35256009D01*
X53151764Y-35234928D01*
X53149000Y-35206860D01*
X53149000Y-33843140D01*
X53151764Y-33815072D01*
X53158160Y-33793991D01*
X53168548Y-33774555D01*
X53182524Y-33757524D01*
X53199555Y-33743548D01*
X53218991Y-33733160D01*
X53240072Y-33726764D01*
X53268140Y-33724000D01*
X53731860Y-33724000D01*
X53759928Y-33726764D01*
G37*
G36*
X57759928Y-33726764D02*
G01*
X57781009Y-33733160D01*
X57800445Y-33743548D01*
X57817476Y-33757524D01*
X57831452Y-33774555D01*
X57841840Y-33793991D01*
X57848236Y-33815072D01*
X57851000Y-33843140D01*
X57851000Y-35206860D01*
X57848236Y-35234928D01*
X57841840Y-35256009D01*
X57831452Y-35275445D01*
X57817476Y-35292476D01*
X57800445Y-35306452D01*
X57781009Y-35316840D01*
X57759928Y-35323236D01*
X57731860Y-35326000D01*
X57268140Y-35326000D01*
X57240072Y-35323236D01*
X57218991Y-35316840D01*
X57199555Y-35306452D01*
X57182524Y-35292476D01*
X57168548Y-35275445D01*
X57158160Y-35256009D01*
X57151764Y-35234928D01*
X57149000Y-35206860D01*
X57149000Y-33843140D01*
X57151764Y-33815072D01*
X57158160Y-33793991D01*
X57168548Y-33774555D01*
X57182524Y-33757524D01*
X57199555Y-33743548D01*
X57218991Y-33733160D01*
X57240072Y-33726764D01*
X57268140Y-33724000D01*
X57731860Y-33724000D01*
X57759928Y-33726764D01*
G37*
G36*
X79877618Y-32758420D02*
G01*
X79968404Y-32785960D01*
X80000336Y-32795646D01*
X80113425Y-32856094D01*
X80212554Y-32937446D01*
X80293906Y-33036575D01*
X80354354Y-33149664D01*
X80354355Y-33149668D01*
X80391580Y-33272382D01*
X80401000Y-33368027D01*
X80401000Y-34631973D01*
X80391580Y-34727618D01*
X80372142Y-34791695D01*
X80354354Y-34850336D01*
X80293906Y-34963425D01*
X80212554Y-35062553D01*
X80113424Y-35143906D01*
X80000335Y-35204354D01*
X79968403Y-35214040D01*
X79877617Y-35241580D01*
X79750000Y-35254149D01*
X79622382Y-35241580D01*
X79531596Y-35214040D01*
X79499664Y-35204354D01*
X79386575Y-35143906D01*
X79287447Y-35062554D01*
X79206094Y-34963424D01*
X79145646Y-34850335D01*
X79127858Y-34791695D01*
X79108420Y-34727617D01*
X79099000Y-34631972D01*
X79099001Y-33368027D01*
X79108421Y-33272382D01*
X79145646Y-33149668D01*
X79145647Y-33149664D01*
X79206095Y-33036575D01*
X79287447Y-32937446D01*
X79386576Y-32856094D01*
X79499665Y-32795646D01*
X79531597Y-32785960D01*
X79622383Y-32758420D01*
X79750000Y-32745851D01*
X79877618Y-32758420D01*
G37*
G36*
X70377618Y-32758420D02*
G01*
X70468404Y-32785960D01*
X70500336Y-32795646D01*
X70613425Y-32856094D01*
X70712554Y-32937446D01*
X70793906Y-33036575D01*
X70854354Y-33149664D01*
X70854355Y-33149668D01*
X70891580Y-33272382D01*
X70901000Y-33368027D01*
X70901000Y-34631973D01*
X70891580Y-34727618D01*
X70872142Y-34791695D01*
X70854354Y-34850336D01*
X70793906Y-34963425D01*
X70712554Y-35062553D01*
X70613424Y-35143906D01*
X70500335Y-35204354D01*
X70468403Y-35214040D01*
X70377617Y-35241580D01*
X70250000Y-35254149D01*
X70122382Y-35241580D01*
X70031596Y-35214040D01*
X69999664Y-35204354D01*
X69886575Y-35143906D01*
X69787447Y-35062554D01*
X69706094Y-34963424D01*
X69645646Y-34850335D01*
X69627858Y-34791695D01*
X69608420Y-34727617D01*
X69599000Y-34631972D01*
X69599001Y-33368027D01*
X69608421Y-33272382D01*
X69645646Y-33149668D01*
X69645647Y-33149664D01*
X69706095Y-33036575D01*
X69787447Y-32937446D01*
X69886576Y-32856094D01*
X69999665Y-32795646D01*
X70031597Y-32785960D01*
X70122383Y-32758420D01*
X70250000Y-32745851D01*
X70377618Y-32758420D01*
G37*
G36*
X88466703Y-29081486D02*
G01*
X88757883Y-29202097D01*
X89019940Y-29377198D01*
X89242802Y-29600060D01*
X89417903Y-29862117D01*
X89538514Y-30153297D01*
X89600000Y-30462412D01*
X89600000Y-30777588D01*
X89538514Y-31086703D01*
X89417903Y-31377883D01*
X89242802Y-31639940D01*
X89019940Y-31862802D01*
X88757883Y-32037903D01*
X88466703Y-32158514D01*
X88157588Y-32220000D01*
X87842412Y-32220000D01*
X87533297Y-32158514D01*
X87242117Y-32037903D01*
X86980060Y-31862802D01*
X86757198Y-31639940D01*
X86582097Y-31377883D01*
X86461486Y-31086703D01*
X86400000Y-30777588D01*
X86400000Y-30462412D01*
X86461486Y-30153297D01*
X86582097Y-29862117D01*
X86757198Y-29600060D01*
X86980060Y-29377198D01*
X87242117Y-29202097D01*
X87533297Y-29081486D01*
X87842412Y-29020000D01*
X88157588Y-29020000D01*
X88466703Y-29081486D01*
G37*
G36*
X109666703Y-29081486D02*
G01*
X109957883Y-29202097D01*
X110219940Y-29377198D01*
X110442802Y-29600060D01*
X110617903Y-29862117D01*
X110738514Y-30153297D01*
X110800000Y-30462412D01*
X110800000Y-30777588D01*
X110738514Y-31086703D01*
X110617903Y-31377883D01*
X110442802Y-31639940D01*
X110219940Y-31862802D01*
X109957883Y-32037903D01*
X109666703Y-32158514D01*
X109357588Y-32220000D01*
X109042412Y-32220000D01*
X108733297Y-32158514D01*
X108442117Y-32037903D01*
X108180060Y-31862802D01*
X107957198Y-31639940D01*
X107782097Y-31377883D01*
X107661486Y-31086703D01*
X107600000Y-30777588D01*
X107600000Y-30462412D01*
X107661486Y-30153297D01*
X107782097Y-29862117D01*
X107957198Y-29600060D01*
X108180060Y-29377198D01*
X108442117Y-29202097D01*
X108733297Y-29081486D01*
X109042412Y-29020000D01*
X109357588Y-29020000D01*
X109666703Y-29081486D01*
G37*
G36*
X75248228Y-30431703D02*
G01*
X75403100Y-30495853D01*
X75542481Y-30588985D01*
X75661015Y-30707519D01*
X75754147Y-30846900D01*
X75818297Y-31001772D01*
X75851000Y-31166184D01*
X75851000Y-31333816D01*
X75818297Y-31498228D01*
X75754147Y-31653100D01*
X75661015Y-31792481D01*
X75542481Y-31911015D01*
X75403100Y-32004147D01*
X75248228Y-32068297D01*
X75083816Y-32101000D01*
X74916184Y-32101000D01*
X74751772Y-32068297D01*
X74596900Y-32004147D01*
X74457519Y-31911015D01*
X74338985Y-31792481D01*
X74245853Y-31653100D01*
X74181703Y-31498228D01*
X74149000Y-31333816D01*
X74149000Y-31166184D01*
X74181703Y-31001772D01*
X74245853Y-30846900D01*
X74338985Y-30707519D01*
X74457519Y-30588985D01*
X74596900Y-30495853D01*
X74751772Y-30431703D01*
X74916184Y-30399000D01*
X75083816Y-30399000D01*
X75248228Y-30431703D01*
G37*
G36*
X63291242Y-29678404D02*
G01*
X63328337Y-29689657D01*
X63362515Y-29707925D01*
X63392481Y-29732519D01*
X63417075Y-29762485D01*
X63435343Y-29796663D01*
X63446596Y-29833758D01*
X63451000Y-29878474D01*
X63451000Y-31371526D01*
X63446596Y-31416242D01*
X63435343Y-31453337D01*
X63417075Y-31487515D01*
X63392481Y-31517481D01*
X63362515Y-31542075D01*
X63328337Y-31560343D01*
X63291242Y-31571596D01*
X63246526Y-31576000D01*
X62353474Y-31576000D01*
X62308758Y-31571596D01*
X62271663Y-31560343D01*
X62237485Y-31542075D01*
X62207519Y-31517481D01*
X62182925Y-31487515D01*
X62164657Y-31453337D01*
X62153404Y-31416242D01*
X62149000Y-31371526D01*
X62149000Y-29878474D01*
X62153404Y-29833758D01*
X62164657Y-29796663D01*
X62182925Y-29762485D01*
X62207519Y-29732519D01*
X62237485Y-29707925D01*
X62271663Y-29689657D01*
X62308758Y-29678404D01*
X62353474Y-29674000D01*
X63246526Y-29674000D01*
X63291242Y-29678404D01*
G37*
G36*
X52691242Y-29678404D02*
G01*
X52728337Y-29689657D01*
X52762515Y-29707925D01*
X52792481Y-29732519D01*
X52817075Y-29762485D01*
X52835343Y-29796663D01*
X52846596Y-29833758D01*
X52851000Y-29878474D01*
X52851000Y-31371526D01*
X52846596Y-31416242D01*
X52835343Y-31453337D01*
X52817075Y-31487515D01*
X52792481Y-31517481D01*
X52762515Y-31542075D01*
X52728337Y-31560343D01*
X52691242Y-31571596D01*
X52646526Y-31576000D01*
X51753474Y-31576000D01*
X51708758Y-31571596D01*
X51671663Y-31560343D01*
X51637485Y-31542075D01*
X51607519Y-31517481D01*
X51582925Y-31487515D01*
X51564657Y-31453337D01*
X51553404Y-31416242D01*
X51549000Y-31371526D01*
X51549000Y-29878474D01*
X51553404Y-29833758D01*
X51564657Y-29796663D01*
X51582925Y-29762485D01*
X51607519Y-29732519D01*
X51637485Y-29707925D01*
X51671663Y-29689657D01*
X51708758Y-29678404D01*
X51753474Y-29674000D01*
X52646526Y-29674000D01*
X52691242Y-29678404D01*
G37*
M02*
