G04 #@! TF.GenerationSoftware,KiCad,Pcbnew,5.1.5-52549c5~86~ubuntu18.04.1*
G04 #@! TF.CreationDate,2020-04-27T18:24:23+01:00*
G04 #@! TF.ProjectId,polariser_drive,706f6c61-7269-4736-9572-5f6472697665,rev?*
G04 #@! TF.SameCoordinates,Original*
G04 #@! TF.FileFunction,Legend,Top*
G04 #@! TF.FilePolarity,Positive*
%FSLAX46Y46*%
G04 Gerber Fmt 4.6, Leading zero omitted, Abs format (unit mm)*
G04 Created by KiCad (PCBNEW 5.1.5-52549c5~86~ubuntu18.04.1) date 2020-04-27 18:24:23*
%MOMM*%
%LPD*%
G04 APERTURE LIST*
%ADD10C,0.120000*%
%ADD11C,0.180000*%
%ADD12C,0.150000*%
%ADD13C,0.200000*%
%ADD14C,0.300000*%
%ADD15C,0.127000*%
G04 APERTURE END LIST*
D10*
X103400000Y-93000000D02*
X103400000Y-89200000D01*
X95800000Y-93000000D02*
X103400000Y-93000000D01*
X95800000Y-89200000D02*
X95800000Y-93000000D01*
X67200000Y-79000000D02*
X67200000Y-82800000D01*
X59600000Y-79000000D02*
X67200000Y-79000000D01*
X59600000Y-82800000D02*
X59600000Y-79000000D01*
D11*
X56507142Y-55157142D02*
X57150000Y-55157142D01*
X57278571Y-55200000D01*
X57364285Y-55285714D01*
X57407142Y-55414285D01*
X57407142Y-55500000D01*
X57407142Y-54300000D02*
X57407142Y-54728571D01*
X56507142Y-54728571D01*
X57321428Y-53485714D02*
X57364285Y-53528571D01*
X57407142Y-53657142D01*
X57407142Y-53742857D01*
X57364285Y-53871428D01*
X57278571Y-53957142D01*
X57192857Y-54000000D01*
X57021428Y-54042857D01*
X56892857Y-54042857D01*
X56721428Y-54000000D01*
X56635714Y-53957142D01*
X56550000Y-53871428D01*
X56507142Y-53742857D01*
X56507142Y-53657142D01*
X56550000Y-53528571D01*
X56592857Y-53485714D01*
X56507142Y-52842857D02*
X57150000Y-52842857D01*
X57278571Y-52885714D01*
X57364285Y-52971428D01*
X57407142Y-53100000D01*
X57407142Y-53185714D01*
X57407142Y-51985714D02*
X57407142Y-52414285D01*
X56507142Y-52414285D01*
X57321428Y-51171428D02*
X57364285Y-51214285D01*
X57407142Y-51342857D01*
X57407142Y-51428571D01*
X57364285Y-51557142D01*
X57278571Y-51642857D01*
X57192857Y-51685714D01*
X57021428Y-51728571D01*
X56892857Y-51728571D01*
X56721428Y-51685714D01*
X56635714Y-51642857D01*
X56550000Y-51557142D01*
X56507142Y-51428571D01*
X56507142Y-51342857D01*
X56550000Y-51214285D01*
X56592857Y-51171428D01*
X56507142Y-50528571D02*
X57150000Y-50528571D01*
X57278571Y-50571428D01*
X57364285Y-50657142D01*
X57407142Y-50785714D01*
X57407142Y-50871428D01*
X57407142Y-49671428D02*
X57407142Y-50100000D01*
X56507142Y-50100000D01*
X57321428Y-48857142D02*
X57364285Y-48900000D01*
X57407142Y-49028571D01*
X57407142Y-49114285D01*
X57364285Y-49242857D01*
X57278571Y-49328571D01*
X57192857Y-49371428D01*
X57021428Y-49414285D01*
X56892857Y-49414285D01*
X56721428Y-49371428D01*
X56635714Y-49328571D01*
X56550000Y-49242857D01*
X56507142Y-49114285D01*
X56507142Y-49028571D01*
X56550000Y-48900000D01*
X56592857Y-48857142D01*
X56507142Y-48214285D02*
X57150000Y-48214285D01*
X57278571Y-48257142D01*
X57364285Y-48342857D01*
X57407142Y-48471428D01*
X57407142Y-48557142D01*
X57407142Y-47357142D02*
X57407142Y-47785714D01*
X56507142Y-47785714D01*
X57321428Y-46542857D02*
X57364285Y-46585714D01*
X57407142Y-46714285D01*
X57407142Y-46800000D01*
X57364285Y-46928571D01*
X57278571Y-47014285D01*
X57192857Y-47057142D01*
X57021428Y-47100000D01*
X56892857Y-47100000D01*
X56721428Y-47057142D01*
X56635714Y-47014285D01*
X56550000Y-46928571D01*
X56507142Y-46800000D01*
X56507142Y-46714285D01*
X56550000Y-46585714D01*
X56592857Y-46542857D01*
D10*
X91000000Y-55000000D02*
X89500000Y-54000000D01*
X91000000Y-54000000D02*
X91000000Y-56000000D01*
D12*
X96095238Y-58809523D02*
X96047619Y-58952380D01*
X96047619Y-59190476D01*
X96095238Y-59285714D01*
X96142857Y-59333333D01*
X96238095Y-59380952D01*
X96333333Y-59380952D01*
X96428571Y-59333333D01*
X96476190Y-59285714D01*
X96523809Y-59190476D01*
X96571428Y-59000000D01*
X96619047Y-58904761D01*
X96666666Y-58857142D01*
X96761904Y-58809523D01*
X96857142Y-58809523D01*
X96952380Y-58857142D01*
X97000000Y-58904761D01*
X97047619Y-59000000D01*
X97047619Y-59238095D01*
X97000000Y-59380952D01*
X96142857Y-60380952D02*
X96095238Y-60333333D01*
X96047619Y-60190476D01*
X96047619Y-60095238D01*
X96095238Y-59952380D01*
X96190476Y-59857142D01*
X96285714Y-59809523D01*
X96476190Y-59761904D01*
X96619047Y-59761904D01*
X96809523Y-59809523D01*
X96904761Y-59857142D01*
X97000000Y-59952380D01*
X97047619Y-60095238D01*
X97047619Y-60190476D01*
X97000000Y-60333333D01*
X96952380Y-60380952D01*
X96047619Y-61285714D02*
X96047619Y-60809523D01*
X97047619Y-60809523D01*
D13*
X107321428Y-70070476D02*
X108821428Y-70070476D01*
X107750000Y-70337142D01*
X108821428Y-70603809D01*
X107321428Y-70603809D01*
X108821428Y-71137142D02*
X108821428Y-71289523D01*
X108750000Y-71365714D01*
X108607142Y-71441904D01*
X108321428Y-71480000D01*
X107821428Y-71480000D01*
X107535714Y-71441904D01*
X107392857Y-71365714D01*
X107321428Y-71289523D01*
X107321428Y-71137142D01*
X107392857Y-71060952D01*
X107535714Y-70984761D01*
X107821428Y-70946666D01*
X108321428Y-70946666D01*
X108607142Y-70984761D01*
X108750000Y-71060952D01*
X108821428Y-71137142D01*
X108821428Y-71708571D02*
X108821428Y-72165714D01*
X107321428Y-71937142D02*
X108821428Y-71937142D01*
X108821428Y-72584761D02*
X108821428Y-72737142D01*
X108750000Y-72813333D01*
X108607142Y-72889523D01*
X108321428Y-72927619D01*
X107821428Y-72927619D01*
X107535714Y-72889523D01*
X107392857Y-72813333D01*
X107321428Y-72737142D01*
X107321428Y-72584761D01*
X107392857Y-72508571D01*
X107535714Y-72432380D01*
X107821428Y-72394285D01*
X108321428Y-72394285D01*
X108607142Y-72432380D01*
X108750000Y-72508571D01*
X108821428Y-72584761D01*
X107321428Y-73727619D02*
X108035714Y-73460952D01*
X107321428Y-73270476D02*
X108821428Y-73270476D01*
X108821428Y-73575238D01*
X108750000Y-73651428D01*
X108678571Y-73689523D01*
X108535714Y-73727619D01*
X108321428Y-73727619D01*
X108178571Y-73689523D01*
X108107142Y-73651428D01*
X108035714Y-73575238D01*
X108035714Y-73270476D01*
X107321428Y-75099047D02*
X107321428Y-74641904D01*
X107321428Y-74870476D02*
X108821428Y-74870476D01*
X108607142Y-74794285D01*
X108464285Y-74718095D01*
X108392857Y-74641904D01*
X105679523Y-67071428D02*
X105679523Y-68571428D01*
X105412857Y-67500000D01*
X105146190Y-68571428D01*
X105146190Y-67071428D01*
X104612857Y-68571428D02*
X104460476Y-68571428D01*
X104384285Y-68500000D01*
X104308095Y-68357142D01*
X104270000Y-68071428D01*
X104270000Y-67571428D01*
X104308095Y-67285714D01*
X104384285Y-67142857D01*
X104460476Y-67071428D01*
X104612857Y-67071428D01*
X104689047Y-67142857D01*
X104765238Y-67285714D01*
X104803333Y-67571428D01*
X104803333Y-68071428D01*
X104765238Y-68357142D01*
X104689047Y-68500000D01*
X104612857Y-68571428D01*
X104041428Y-68571428D02*
X103584285Y-68571428D01*
X103812857Y-67071428D02*
X103812857Y-68571428D01*
X103165238Y-68571428D02*
X103012857Y-68571428D01*
X102936666Y-68500000D01*
X102860476Y-68357142D01*
X102822380Y-68071428D01*
X102822380Y-67571428D01*
X102860476Y-67285714D01*
X102936666Y-67142857D01*
X103012857Y-67071428D01*
X103165238Y-67071428D01*
X103241428Y-67142857D01*
X103317619Y-67285714D01*
X103355714Y-67571428D01*
X103355714Y-68071428D01*
X103317619Y-68357142D01*
X103241428Y-68500000D01*
X103165238Y-68571428D01*
X102022380Y-67071428D02*
X102289047Y-67785714D01*
X102479523Y-67071428D02*
X102479523Y-68571428D01*
X102174761Y-68571428D01*
X102098571Y-68500000D01*
X102060476Y-68428571D01*
X102022380Y-68285714D01*
X102022380Y-68071428D01*
X102060476Y-67928571D01*
X102098571Y-67857142D01*
X102174761Y-67785714D01*
X102479523Y-67785714D01*
X101108095Y-68428571D02*
X101070000Y-68500000D01*
X100993809Y-68571428D01*
X100803333Y-68571428D01*
X100727142Y-68500000D01*
X100689047Y-68428571D01*
X100650952Y-68285714D01*
X100650952Y-68142857D01*
X100689047Y-67928571D01*
X101146190Y-67071428D01*
X100650952Y-67071428D01*
D10*
X91999999Y-55999999D02*
G75*
G02X89499999Y-57499999I-3499999J2999999D01*
G01*
X93095146Y-56063432D02*
G75*
G02X88999999Y-58499999I-4595146J3063432D01*
G01*
X89500000Y-55000000D02*
X88000000Y-55000000D01*
X92500000Y-55000000D02*
X91000000Y-55000000D01*
X89500000Y-54000000D02*
X89500000Y-56000000D01*
X89500000Y-56000000D02*
X91000000Y-55000000D01*
D12*
X105547619Y-61309523D02*
X105547619Y-60833333D01*
X105071428Y-60785714D01*
X105119047Y-60833333D01*
X105166666Y-60928571D01*
X105166666Y-61166666D01*
X105119047Y-61261904D01*
X105071428Y-61309523D01*
X104976190Y-61357142D01*
X104738095Y-61357142D01*
X104642857Y-61309523D01*
X104595238Y-61261904D01*
X104547619Y-61166666D01*
X104547619Y-60928571D01*
X104595238Y-60833333D01*
X104642857Y-60785714D01*
X105547619Y-61642857D02*
X104547619Y-61976190D01*
X105547619Y-62309523D01*
X105500000Y-63738095D02*
X105547619Y-63642857D01*
X105547619Y-63500000D01*
X105500000Y-63357142D01*
X105404761Y-63261904D01*
X105309523Y-63214285D01*
X105119047Y-63166666D01*
X104976190Y-63166666D01*
X104785714Y-63214285D01*
X104690476Y-63261904D01*
X104595238Y-63357142D01*
X104547619Y-63500000D01*
X104547619Y-63595238D01*
X104595238Y-63738095D01*
X104642857Y-63785714D01*
X104976190Y-63785714D01*
X104976190Y-63595238D01*
X104547619Y-64214285D02*
X105547619Y-64214285D01*
X104547619Y-64785714D01*
X105547619Y-64785714D01*
X104547619Y-65261904D02*
X105547619Y-65261904D01*
X105547619Y-65500000D01*
X105500000Y-65642857D01*
X105404761Y-65738095D01*
X105309523Y-65785714D01*
X105119047Y-65833333D01*
X104976190Y-65833333D01*
X104785714Y-65785714D01*
X104690476Y-65738095D01*
X104595238Y-65642857D01*
X104547619Y-65500000D01*
X104547619Y-65261904D01*
X96095238Y-61785714D02*
X96047619Y-61928571D01*
X96047619Y-62166666D01*
X96095238Y-62261904D01*
X96142857Y-62309523D01*
X96238095Y-62357142D01*
X96333333Y-62357142D01*
X96428571Y-62309523D01*
X96476190Y-62261904D01*
X96523809Y-62166666D01*
X96571428Y-61976190D01*
X96619047Y-61880952D01*
X96666666Y-61833333D01*
X96761904Y-61785714D01*
X96857142Y-61785714D01*
X96952380Y-61833333D01*
X97000000Y-61880952D01*
X97047619Y-61976190D01*
X97047619Y-62214285D01*
X97000000Y-62357142D01*
X96047619Y-62785714D02*
X97047619Y-62785714D01*
X97047619Y-63023809D01*
X97000000Y-63166666D01*
X96904761Y-63261904D01*
X96809523Y-63309523D01*
X96619047Y-63357142D01*
X96476190Y-63357142D01*
X96285714Y-63309523D01*
X96190476Y-63261904D01*
X96095238Y-63166666D01*
X96047619Y-63023809D01*
X96047619Y-62785714D01*
X96333333Y-63738095D02*
X96333333Y-64214285D01*
X96047619Y-63642857D02*
X97047619Y-63976190D01*
X96047619Y-64309523D01*
X80372619Y-51940357D02*
X80372619Y-52092738D01*
X80325000Y-52168928D01*
X80229761Y-52245119D01*
X80039285Y-52283214D01*
X79705952Y-52283214D01*
X79515476Y-52245119D01*
X79420238Y-52168928D01*
X79372619Y-52092738D01*
X79372619Y-51940357D01*
X79420238Y-51864166D01*
X79515476Y-51787976D01*
X79705952Y-51749880D01*
X80039285Y-51749880D01*
X80229761Y-51787976D01*
X80325000Y-51864166D01*
X80372619Y-51940357D01*
X80372619Y-52511785D02*
X79372619Y-52778452D01*
X80372619Y-53045119D01*
X79896428Y-53311785D02*
X79896428Y-53578452D01*
X79372619Y-53692738D02*
X79372619Y-53311785D01*
X80372619Y-53311785D01*
X80372619Y-53692738D01*
X79372619Y-54492738D02*
X79848809Y-54226071D01*
X79372619Y-54035595D02*
X80372619Y-54035595D01*
X80372619Y-54340357D01*
X80325000Y-54416547D01*
X80277380Y-54454642D01*
X80182142Y-54492738D01*
X80039285Y-54492738D01*
X79944047Y-54454642D01*
X79896428Y-54416547D01*
X79848809Y-54340357D01*
X79848809Y-54035595D01*
X80372619Y-54721309D02*
X79372619Y-54987976D01*
X80372619Y-55254642D01*
X79372619Y-55521309D02*
X80372619Y-55521309D01*
X79896428Y-55902261D02*
X79896428Y-56168928D01*
X79372619Y-56283214D02*
X79372619Y-55902261D01*
X80372619Y-55902261D01*
X80372619Y-56283214D01*
X80372619Y-56549880D02*
X79372619Y-56740357D01*
X80086904Y-56892738D01*
X79372619Y-57045119D01*
X80372619Y-57235595D01*
X79372619Y-58149880D02*
X80372619Y-58149880D01*
X80372619Y-58454642D01*
X80325000Y-58530833D01*
X80277380Y-58568928D01*
X80182142Y-58607023D01*
X80039285Y-58607023D01*
X79944047Y-58568928D01*
X79896428Y-58530833D01*
X79848809Y-58454642D01*
X79848809Y-58149880D01*
X80372619Y-59102261D02*
X80372619Y-59254642D01*
X80325000Y-59330833D01*
X80229761Y-59407023D01*
X80039285Y-59445119D01*
X79705952Y-59445119D01*
X79515476Y-59407023D01*
X79420238Y-59330833D01*
X79372619Y-59254642D01*
X79372619Y-59102261D01*
X79420238Y-59026071D01*
X79515476Y-58949880D01*
X79705952Y-58911785D01*
X80039285Y-58911785D01*
X80229761Y-58949880D01*
X80325000Y-59026071D01*
X80372619Y-59102261D01*
X79372619Y-60168928D02*
X79372619Y-59787976D01*
X80372619Y-59787976D01*
X79658333Y-60397500D02*
X79658333Y-60778452D01*
X79372619Y-60321309D02*
X80372619Y-60587976D01*
X79372619Y-60854642D01*
X79372619Y-61578452D02*
X79848809Y-61311785D01*
X79372619Y-61121309D02*
X80372619Y-61121309D01*
X80372619Y-61426071D01*
X80325000Y-61502261D01*
X80277380Y-61540357D01*
X80182142Y-61578452D01*
X80039285Y-61578452D01*
X79944047Y-61540357D01*
X79896428Y-61502261D01*
X79848809Y-61426071D01*
X79848809Y-61121309D01*
X79372619Y-61921309D02*
X80372619Y-61921309D01*
X79420238Y-62264166D02*
X79372619Y-62378452D01*
X79372619Y-62568928D01*
X79420238Y-62645119D01*
X79467857Y-62683214D01*
X79563095Y-62721309D01*
X79658333Y-62721309D01*
X79753571Y-62683214D01*
X79801190Y-62645119D01*
X79848809Y-62568928D01*
X79896428Y-62416547D01*
X79944047Y-62340357D01*
X79991666Y-62302261D01*
X80086904Y-62264166D01*
X80182142Y-62264166D01*
X80277380Y-62302261D01*
X80325000Y-62340357D01*
X80372619Y-62416547D01*
X80372619Y-62607023D01*
X80325000Y-62721309D01*
X79896428Y-63064166D02*
X79896428Y-63330833D01*
X79372619Y-63445119D02*
X79372619Y-63064166D01*
X80372619Y-63064166D01*
X80372619Y-63445119D01*
X79372619Y-64245119D02*
X79848809Y-63978452D01*
X79372619Y-63787976D02*
X80372619Y-63787976D01*
X80372619Y-64092738D01*
X80325000Y-64168928D01*
X80277380Y-64207023D01*
X80182142Y-64245119D01*
X80039285Y-64245119D01*
X79944047Y-64207023D01*
X79896428Y-64168928D01*
X79848809Y-64092738D01*
X79848809Y-63787976D01*
X79372619Y-65197500D02*
X80372619Y-65197500D01*
X80372619Y-65387976D01*
X80325000Y-65502261D01*
X80229761Y-65578452D01*
X80134523Y-65616547D01*
X79944047Y-65654642D01*
X79801190Y-65654642D01*
X79610714Y-65616547D01*
X79515476Y-65578452D01*
X79420238Y-65502261D01*
X79372619Y-65387976D01*
X79372619Y-65197500D01*
X79372619Y-66454642D02*
X79848809Y-66187976D01*
X79372619Y-65997500D02*
X80372619Y-65997500D01*
X80372619Y-66302261D01*
X80325000Y-66378452D01*
X80277380Y-66416547D01*
X80182142Y-66454642D01*
X80039285Y-66454642D01*
X79944047Y-66416547D01*
X79896428Y-66378452D01*
X79848809Y-66302261D01*
X79848809Y-65997500D01*
X79372619Y-66797500D02*
X80372619Y-66797500D01*
X80372619Y-67064166D02*
X79372619Y-67330833D01*
X80372619Y-67597500D01*
X79896428Y-67864166D02*
X79896428Y-68130833D01*
X79372619Y-68245119D02*
X79372619Y-67864166D01*
X80372619Y-67864166D01*
X80372619Y-68245119D01*
X79896428Y-69464166D02*
X79848809Y-69578452D01*
X79801190Y-69616547D01*
X79705952Y-69654642D01*
X79563095Y-69654642D01*
X79467857Y-69616547D01*
X79420238Y-69578452D01*
X79372619Y-69502261D01*
X79372619Y-69197500D01*
X80372619Y-69197500D01*
X80372619Y-69464166D01*
X80325000Y-69540357D01*
X80277380Y-69578452D01*
X80182142Y-69616547D01*
X80086904Y-69616547D01*
X79991666Y-69578452D01*
X79944047Y-69540357D01*
X79896428Y-69464166D01*
X79896428Y-69197500D01*
X80372619Y-70149880D02*
X80372619Y-70302261D01*
X80325000Y-70378452D01*
X80229761Y-70454642D01*
X80039285Y-70492738D01*
X79705952Y-70492738D01*
X79515476Y-70454642D01*
X79420238Y-70378452D01*
X79372619Y-70302261D01*
X79372619Y-70149880D01*
X79420238Y-70073690D01*
X79515476Y-69997500D01*
X79705952Y-69959404D01*
X80039285Y-69959404D01*
X80229761Y-69997500D01*
X80325000Y-70073690D01*
X80372619Y-70149880D01*
X79658333Y-70797500D02*
X79658333Y-71178452D01*
X79372619Y-70721309D02*
X80372619Y-70987976D01*
X79372619Y-71254642D01*
X79372619Y-71978452D02*
X79848809Y-71711785D01*
X79372619Y-71521309D02*
X80372619Y-71521309D01*
X80372619Y-71826071D01*
X80325000Y-71902261D01*
X80277380Y-71940357D01*
X80182142Y-71978452D01*
X80039285Y-71978452D01*
X79944047Y-71940357D01*
X79896428Y-71902261D01*
X79848809Y-71826071D01*
X79848809Y-71521309D01*
X79372619Y-72321309D02*
X80372619Y-72321309D01*
X80372619Y-72511785D01*
X80325000Y-72626071D01*
X80229761Y-72702261D01*
X80134523Y-72740357D01*
X79944047Y-72778452D01*
X79801190Y-72778452D01*
X79610714Y-72740357D01*
X79515476Y-72702261D01*
X79420238Y-72626071D01*
X79372619Y-72511785D01*
X79372619Y-72321309D01*
X78722619Y-51787976D02*
X77913095Y-51787976D01*
X77817857Y-51826071D01*
X77770238Y-51864166D01*
X77722619Y-51940357D01*
X77722619Y-52092738D01*
X77770238Y-52168928D01*
X77817857Y-52207023D01*
X77913095Y-52245119D01*
X78722619Y-52245119D01*
X77770238Y-52587976D02*
X77722619Y-52702261D01*
X77722619Y-52892738D01*
X77770238Y-52968928D01*
X77817857Y-53007023D01*
X77913095Y-53045119D01*
X78008333Y-53045119D01*
X78103571Y-53007023D01*
X78151190Y-52968928D01*
X78198809Y-52892738D01*
X78246428Y-52740357D01*
X78294047Y-52664166D01*
X78341666Y-52626071D01*
X78436904Y-52587976D01*
X78532142Y-52587976D01*
X78627380Y-52626071D01*
X78675000Y-52664166D01*
X78722619Y-52740357D01*
X78722619Y-52930833D01*
X78675000Y-53045119D01*
X78246428Y-53387976D02*
X78246428Y-53654642D01*
X77722619Y-53768928D02*
X77722619Y-53387976D01*
X78722619Y-53387976D01*
X78722619Y-53768928D01*
X78722619Y-54873690D02*
X78722619Y-55026071D01*
X78675000Y-55102261D01*
X78579761Y-55178452D01*
X78389285Y-55216547D01*
X78055952Y-55216547D01*
X77865476Y-55178452D01*
X77770238Y-55102261D01*
X77722619Y-55026071D01*
X77722619Y-54873690D01*
X77770238Y-54797500D01*
X77865476Y-54721309D01*
X78055952Y-54683214D01*
X78389285Y-54683214D01*
X78579761Y-54721309D01*
X78675000Y-54797500D01*
X78722619Y-54873690D01*
X77722619Y-55559404D02*
X78722619Y-55559404D01*
X77722619Y-56016547D01*
X78722619Y-56016547D01*
X77722619Y-56778452D02*
X77722619Y-56397500D01*
X78722619Y-56397500D01*
X78198809Y-57197500D02*
X77722619Y-57197500D01*
X78722619Y-56930833D02*
X78198809Y-57197500D01*
X78722619Y-57464166D01*
X78722619Y-58492738D02*
X78722619Y-58645119D01*
X78675000Y-58721309D01*
X78579761Y-58797500D01*
X78389285Y-58835595D01*
X78055952Y-58835595D01*
X77865476Y-58797500D01*
X77770238Y-58721309D01*
X77722619Y-58645119D01*
X77722619Y-58492738D01*
X77770238Y-58416547D01*
X77865476Y-58340357D01*
X78055952Y-58302261D01*
X78389285Y-58302261D01*
X78579761Y-58340357D01*
X78675000Y-58416547D01*
X78722619Y-58492738D01*
X77722619Y-59178452D02*
X78722619Y-59178452D01*
X77722619Y-59635595D01*
X78722619Y-59635595D01*
X78722619Y-60549880D02*
X78722619Y-61045119D01*
X78341666Y-60778452D01*
X78341666Y-60892738D01*
X78294047Y-60968928D01*
X78246428Y-61007023D01*
X78151190Y-61045119D01*
X77913095Y-61045119D01*
X77817857Y-61007023D01*
X77770238Y-60968928D01*
X77722619Y-60892738D01*
X77722619Y-60664166D01*
X77770238Y-60587976D01*
X77817857Y-60549880D01*
X78722619Y-61273690D02*
X77722619Y-61540357D01*
X78722619Y-61807023D01*
X78722619Y-61997500D02*
X78722619Y-62492738D01*
X78341666Y-62226071D01*
X78341666Y-62340357D01*
X78294047Y-62416547D01*
X78246428Y-62454642D01*
X78151190Y-62492738D01*
X77913095Y-62492738D01*
X77817857Y-62454642D01*
X77770238Y-62416547D01*
X77722619Y-62340357D01*
X77722619Y-62111785D01*
X77770238Y-62035595D01*
X77817857Y-61997500D01*
X77722619Y-63445119D02*
X78722619Y-63445119D01*
X78627380Y-63787976D02*
X78675000Y-63826071D01*
X78722619Y-63902261D01*
X78722619Y-64092738D01*
X78675000Y-64168928D01*
X78627380Y-64207023D01*
X78532142Y-64245119D01*
X78436904Y-64245119D01*
X78294047Y-64207023D01*
X77722619Y-63749880D01*
X77722619Y-64245119D01*
X77817857Y-65045119D02*
X77770238Y-65007023D01*
X77722619Y-64892738D01*
X77722619Y-64816547D01*
X77770238Y-64702261D01*
X77865476Y-64626071D01*
X77960714Y-64587976D01*
X78151190Y-64549880D01*
X78294047Y-64549880D01*
X78484523Y-64587976D01*
X78579761Y-64626071D01*
X78675000Y-64702261D01*
X78722619Y-64816547D01*
X78722619Y-64892738D01*
X78675000Y-65007023D01*
X78627380Y-65045119D01*
X78246428Y-66264166D02*
X78198809Y-66378452D01*
X78151190Y-66416547D01*
X78055952Y-66454642D01*
X77913095Y-66454642D01*
X77817857Y-66416547D01*
X77770238Y-66378452D01*
X77722619Y-66302261D01*
X77722619Y-65997500D01*
X78722619Y-65997500D01*
X78722619Y-66264166D01*
X78675000Y-66340357D01*
X78627380Y-66378452D01*
X78532142Y-66416547D01*
X78436904Y-66416547D01*
X78341666Y-66378452D01*
X78294047Y-66340357D01*
X78246428Y-66264166D01*
X78246428Y-65997500D01*
X78722619Y-66797500D02*
X77913095Y-66797500D01*
X77817857Y-66835595D01*
X77770238Y-66873690D01*
X77722619Y-66949880D01*
X77722619Y-67102261D01*
X77770238Y-67178452D01*
X77817857Y-67216547D01*
X77913095Y-67254642D01*
X78722619Y-67254642D01*
X77770238Y-67597500D02*
X77722619Y-67711785D01*
X77722619Y-67902261D01*
X77770238Y-67978452D01*
X77817857Y-68016547D01*
X77913095Y-68054642D01*
X78008333Y-68054642D01*
X78103571Y-68016547D01*
X78151190Y-67978452D01*
X78198809Y-67902261D01*
X78246428Y-67749880D01*
X78294047Y-67673690D01*
X78341666Y-67635595D01*
X78436904Y-67597500D01*
X78532142Y-67597500D01*
X78627380Y-67635595D01*
X78675000Y-67673690D01*
X78722619Y-67749880D01*
X78722619Y-67940357D01*
X78675000Y-68054642D01*
X77817857Y-69464166D02*
X77770238Y-69426071D01*
X77722619Y-69311785D01*
X77722619Y-69235595D01*
X77770238Y-69121309D01*
X77865476Y-69045119D01*
X77960714Y-69007023D01*
X78151190Y-68968928D01*
X78294047Y-68968928D01*
X78484523Y-69007023D01*
X78579761Y-69045119D01*
X78675000Y-69121309D01*
X78722619Y-69235595D01*
X78722619Y-69311785D01*
X78675000Y-69426071D01*
X78627380Y-69464166D01*
X78722619Y-69959404D02*
X78722619Y-70111785D01*
X78675000Y-70187976D01*
X78579761Y-70264166D01*
X78389285Y-70302261D01*
X78055952Y-70302261D01*
X77865476Y-70264166D01*
X77770238Y-70187976D01*
X77722619Y-70111785D01*
X77722619Y-69959404D01*
X77770238Y-69883214D01*
X77865476Y-69807023D01*
X78055952Y-69768928D01*
X78389285Y-69768928D01*
X78579761Y-69807023D01*
X78675000Y-69883214D01*
X78722619Y-69959404D01*
X77722619Y-70645119D02*
X78722619Y-70645119D01*
X78008333Y-70911785D01*
X78722619Y-71178452D01*
X77722619Y-71178452D01*
X77722619Y-71559404D02*
X78722619Y-71559404D01*
X78722619Y-71864166D01*
X78675000Y-71940357D01*
X78627380Y-71978452D01*
X78532142Y-72016547D01*
X78389285Y-72016547D01*
X78294047Y-71978452D01*
X78246428Y-71940357D01*
X78198809Y-71864166D01*
X78198809Y-71559404D01*
X78008333Y-72321309D02*
X78008333Y-72702261D01*
X77722619Y-72245119D02*
X78722619Y-72511785D01*
X77722619Y-72778452D01*
X78722619Y-72930833D02*
X78722619Y-73387976D01*
X77722619Y-73159404D02*
X78722619Y-73159404D01*
X77722619Y-73654642D02*
X78722619Y-73654642D01*
X78246428Y-74302261D02*
X78198809Y-74416547D01*
X78151190Y-74454642D01*
X78055952Y-74492738D01*
X77913095Y-74492738D01*
X77817857Y-74454642D01*
X77770238Y-74416547D01*
X77722619Y-74340357D01*
X77722619Y-74035595D01*
X78722619Y-74035595D01*
X78722619Y-74302261D01*
X78675000Y-74378452D01*
X78627380Y-74416547D01*
X78532142Y-74454642D01*
X78436904Y-74454642D01*
X78341666Y-74416547D01*
X78294047Y-74378452D01*
X78246428Y-74302261D01*
X78246428Y-74035595D01*
X77722619Y-75216547D02*
X77722619Y-74835595D01*
X78722619Y-74835595D01*
X78246428Y-75483214D02*
X78246428Y-75749880D01*
X77722619Y-75864166D02*
X77722619Y-75483214D01*
X78722619Y-75483214D01*
X78722619Y-75864166D01*
X77722619Y-76816547D02*
X78722619Y-76816547D01*
X78008333Y-77083214D01*
X78722619Y-77349880D01*
X77722619Y-77349880D01*
X78722619Y-77883214D02*
X78722619Y-78035595D01*
X78675000Y-78111785D01*
X78579761Y-78187976D01*
X78389285Y-78226071D01*
X78055952Y-78226071D01*
X77865476Y-78187976D01*
X77770238Y-78111785D01*
X77722619Y-78035595D01*
X77722619Y-77883214D01*
X77770238Y-77807023D01*
X77865476Y-77730833D01*
X78055952Y-77692738D01*
X78389285Y-77692738D01*
X78579761Y-77730833D01*
X78675000Y-77807023D01*
X78722619Y-77883214D01*
X78722619Y-78454642D02*
X78722619Y-78911785D01*
X77722619Y-78683214D02*
X78722619Y-78683214D01*
X78722619Y-79330833D02*
X78722619Y-79483214D01*
X78675000Y-79559404D01*
X78579761Y-79635595D01*
X78389285Y-79673690D01*
X78055952Y-79673690D01*
X77865476Y-79635595D01*
X77770238Y-79559404D01*
X77722619Y-79483214D01*
X77722619Y-79330833D01*
X77770238Y-79254642D01*
X77865476Y-79178452D01*
X78055952Y-79140357D01*
X78389285Y-79140357D01*
X78579761Y-79178452D01*
X78675000Y-79254642D01*
X78722619Y-79330833D01*
X77722619Y-80473690D02*
X78198809Y-80207023D01*
X77722619Y-80016547D02*
X78722619Y-80016547D01*
X78722619Y-80321309D01*
X78675000Y-80397500D01*
X78627380Y-80435595D01*
X78532142Y-80473690D01*
X78389285Y-80473690D01*
X78294047Y-80435595D01*
X78246428Y-80397500D01*
X78198809Y-80321309D01*
X78198809Y-80016547D01*
X77770238Y-80778452D02*
X77722619Y-80892738D01*
X77722619Y-81083214D01*
X77770238Y-81159404D01*
X77817857Y-81197500D01*
X77913095Y-81235595D01*
X78008333Y-81235595D01*
X78103571Y-81197500D01*
X78151190Y-81159404D01*
X78198809Y-81083214D01*
X78246428Y-80930833D01*
X78294047Y-80854642D01*
X78341666Y-80816547D01*
X78436904Y-80778452D01*
X78532142Y-80778452D01*
X78627380Y-80816547D01*
X78675000Y-80854642D01*
X78722619Y-80930833D01*
X78722619Y-81121309D01*
X78675000Y-81235595D01*
D14*
X70096428Y-52250000D02*
X71596428Y-52250000D01*
X70096428Y-52964285D02*
X71596428Y-52964285D01*
X70096428Y-53821428D01*
X71596428Y-53821428D01*
X70167857Y-54464285D02*
X70096428Y-54678571D01*
X70096428Y-55035714D01*
X70167857Y-55178571D01*
X70239285Y-55250000D01*
X70382142Y-55321428D01*
X70525000Y-55321428D01*
X70667857Y-55250000D01*
X70739285Y-55178571D01*
X70810714Y-55035714D01*
X70882142Y-54750000D01*
X70953571Y-54607142D01*
X71025000Y-54535714D01*
X71167857Y-54464285D01*
X71310714Y-54464285D01*
X71453571Y-54535714D01*
X71525000Y-54607142D01*
X71596428Y-54750000D01*
X71596428Y-55107142D01*
X71525000Y-55321428D01*
X70882142Y-55964285D02*
X70882142Y-56464285D01*
X70096428Y-56678571D02*
X70096428Y-55964285D01*
X71596428Y-55964285D01*
X71596428Y-56678571D01*
X70096428Y-58178571D02*
X70810714Y-57678571D01*
X70096428Y-57321428D02*
X71596428Y-57321428D01*
X71596428Y-57892857D01*
X71525000Y-58035714D01*
X71453571Y-58107142D01*
X71310714Y-58178571D01*
X71096428Y-58178571D01*
X70953571Y-58107142D01*
X70882142Y-58035714D01*
X70810714Y-57892857D01*
X70810714Y-57321428D01*
X71596428Y-58607142D02*
X71596428Y-59464285D01*
X70096428Y-59035714D02*
X71596428Y-59035714D01*
X71596428Y-61392857D02*
X71596428Y-61678571D01*
X71525000Y-61821428D01*
X71382142Y-61964285D01*
X71096428Y-62035714D01*
X70596428Y-62035714D01*
X70310714Y-61964285D01*
X70167857Y-61821428D01*
X70096428Y-61678571D01*
X70096428Y-61392857D01*
X70167857Y-61250000D01*
X70310714Y-61107142D01*
X70596428Y-61035714D01*
X71096428Y-61035714D01*
X71382142Y-61107142D01*
X71525000Y-61250000D01*
X71596428Y-61392857D01*
X70096428Y-62678571D02*
X71596428Y-62678571D01*
X70096428Y-63535714D01*
X71596428Y-63535714D01*
X70096428Y-64964285D02*
X70096428Y-64250000D01*
X71596428Y-64250000D01*
X70810714Y-65750000D02*
X70096428Y-65750000D01*
X71596428Y-65250000D02*
X70810714Y-65750000D01*
X71596428Y-66250000D01*
X70239285Y-66750000D02*
X70167857Y-66821428D01*
X70096428Y-66750000D01*
X70167857Y-66678571D01*
X70239285Y-66750000D01*
X70096428Y-66750000D01*
X71025000Y-66750000D02*
X70953571Y-66821428D01*
X70882142Y-66750000D01*
X70953571Y-66678571D01*
X71025000Y-66750000D01*
X70882142Y-66750000D01*
X67546428Y-46178571D02*
X69046428Y-46178571D01*
X67546428Y-47035714D01*
X69046428Y-47035714D01*
X69046428Y-48035714D02*
X69046428Y-48321428D01*
X68975000Y-48464285D01*
X68832142Y-48607142D01*
X68546428Y-48678571D01*
X68046428Y-48678571D01*
X67760714Y-48607142D01*
X67617857Y-48464285D01*
X67546428Y-48321428D01*
X67546428Y-48035714D01*
X67617857Y-47892857D01*
X67760714Y-47750000D01*
X68046428Y-47678571D01*
X68546428Y-47678571D01*
X68832142Y-47750000D01*
X68975000Y-47892857D01*
X69046428Y-48035714D01*
X67546428Y-49321428D02*
X69046428Y-49321428D01*
X69046428Y-49678571D01*
X68975000Y-49892857D01*
X68832142Y-50035714D01*
X68689285Y-50107142D01*
X68403571Y-50178571D01*
X68189285Y-50178571D01*
X67903571Y-50107142D01*
X67760714Y-50035714D01*
X67617857Y-49892857D01*
X67546428Y-49678571D01*
X67546428Y-49321428D01*
X68332142Y-50821428D02*
X68332142Y-51321428D01*
X67546428Y-51535714D02*
X67546428Y-50821428D01*
X69046428Y-50821428D01*
X69046428Y-51535714D01*
X67546428Y-52178571D02*
X69046428Y-52178571D01*
X67975000Y-52678571D01*
X69046428Y-53178571D01*
X67546428Y-53178571D01*
X67689285Y-54750000D02*
X67617857Y-54678571D01*
X67546428Y-54464285D01*
X67546428Y-54321428D01*
X67617857Y-54107142D01*
X67760714Y-53964285D01*
X67903571Y-53892857D01*
X68189285Y-53821428D01*
X68403571Y-53821428D01*
X68689285Y-53892857D01*
X68832142Y-53964285D01*
X68975000Y-54107142D01*
X69046428Y-54321428D01*
X69046428Y-54464285D01*
X68975000Y-54678571D01*
X68903571Y-54750000D01*
X69046428Y-55392857D02*
X67832142Y-55392857D01*
X67689285Y-55464285D01*
X67617857Y-55535714D01*
X67546428Y-55678571D01*
X67546428Y-55964285D01*
X67617857Y-56107142D01*
X67689285Y-56178571D01*
X67832142Y-56250000D01*
X69046428Y-56250000D01*
X68332142Y-58107142D02*
X68332142Y-58607142D01*
X67546428Y-58821428D02*
X67546428Y-58107142D01*
X69046428Y-58107142D01*
X69046428Y-58821428D01*
X67617857Y-59392857D02*
X67546428Y-59607142D01*
X67546428Y-59964285D01*
X67617857Y-60107142D01*
X67689285Y-60178571D01*
X67832142Y-60250000D01*
X67975000Y-60250000D01*
X68117857Y-60178571D01*
X68189285Y-60107142D01*
X68260714Y-59964285D01*
X68332142Y-59678571D01*
X68403571Y-59535714D01*
X68475000Y-59464285D01*
X68617857Y-59392857D01*
X68760714Y-59392857D01*
X68903571Y-59464285D01*
X68975000Y-59535714D01*
X69046428Y-59678571D01*
X69046428Y-60035714D01*
X68975000Y-60250000D01*
X67546428Y-60892857D02*
X69046428Y-60892857D01*
X69046428Y-61464285D01*
X68975000Y-61607142D01*
X68903571Y-61678571D01*
X68760714Y-61750000D01*
X68546428Y-61750000D01*
X68403571Y-61678571D01*
X68332142Y-61607142D01*
X68260714Y-61464285D01*
X68260714Y-60892857D01*
X68403571Y-62607142D02*
X68475000Y-62464285D01*
X68546428Y-62392857D01*
X68689285Y-62321428D01*
X68760714Y-62321428D01*
X68903571Y-62392857D01*
X68975000Y-62464285D01*
X69046428Y-62607142D01*
X69046428Y-62892857D01*
X68975000Y-63035714D01*
X68903571Y-63107142D01*
X68760714Y-63178571D01*
X68689285Y-63178571D01*
X68546428Y-63107142D01*
X68475000Y-63035714D01*
X68403571Y-62892857D01*
X68403571Y-62607142D01*
X68332142Y-62464285D01*
X68260714Y-62392857D01*
X68117857Y-62321428D01*
X67832142Y-62321428D01*
X67689285Y-62392857D01*
X67617857Y-62464285D01*
X67546428Y-62607142D01*
X67546428Y-62892857D01*
X67617857Y-63035714D01*
X67689285Y-63107142D01*
X67832142Y-63178571D01*
X68117857Y-63178571D01*
X68260714Y-63107142D01*
X68332142Y-63035714D01*
X68403571Y-62892857D01*
X68903571Y-63750000D02*
X68975000Y-63821428D01*
X69046428Y-63964285D01*
X69046428Y-64321428D01*
X68975000Y-64464285D01*
X68903571Y-64535714D01*
X68760714Y-64607142D01*
X68617857Y-64607142D01*
X68403571Y-64535714D01*
X67546428Y-63678571D01*
X67546428Y-64607142D01*
X69046428Y-65892857D02*
X69046428Y-65607142D01*
X68975000Y-65464285D01*
X68903571Y-65392857D01*
X68689285Y-65250000D01*
X68403571Y-65178571D01*
X67832142Y-65178571D01*
X67689285Y-65250000D01*
X67617857Y-65321428D01*
X67546428Y-65464285D01*
X67546428Y-65750000D01*
X67617857Y-65892857D01*
X67689285Y-65964285D01*
X67832142Y-66035714D01*
X68189285Y-66035714D01*
X68332142Y-65964285D01*
X68403571Y-65892857D01*
X68475000Y-65750000D01*
X68475000Y-65464285D01*
X68403571Y-65321428D01*
X68332142Y-65250000D01*
X68189285Y-65178571D01*
X69046428Y-67321428D02*
X69046428Y-67035714D01*
X68975000Y-66892857D01*
X68903571Y-66821428D01*
X68689285Y-66678571D01*
X68403571Y-66607142D01*
X67832142Y-66607142D01*
X67689285Y-66678571D01*
X67617857Y-66750000D01*
X67546428Y-66892857D01*
X67546428Y-67178571D01*
X67617857Y-67321428D01*
X67689285Y-67392857D01*
X67832142Y-67464285D01*
X68189285Y-67464285D01*
X68332142Y-67392857D01*
X68403571Y-67321428D01*
X68475000Y-67178571D01*
X68475000Y-66892857D01*
X68403571Y-66750000D01*
X68332142Y-66678571D01*
X68189285Y-66607142D01*
X68546428Y-68107142D02*
X68117857Y-69250000D01*
X67689285Y-68107142D01*
X69046428Y-70250000D02*
X69046428Y-70392857D01*
X68975000Y-70535714D01*
X68903571Y-70607142D01*
X68760714Y-70678571D01*
X68475000Y-70750000D01*
X68117857Y-70750000D01*
X67832142Y-70678571D01*
X67689285Y-70607142D01*
X67617857Y-70535714D01*
X67546428Y-70392857D01*
X67546428Y-70250000D01*
X67617857Y-70107142D01*
X67689285Y-70035714D01*
X67832142Y-69964285D01*
X68117857Y-69892857D01*
X68475000Y-69892857D01*
X68760714Y-69964285D01*
X68903571Y-70035714D01*
X68975000Y-70107142D01*
X69046428Y-70250000D01*
X67689285Y-71392857D02*
X67617857Y-71464285D01*
X67546428Y-71392857D01*
X67617857Y-71321428D01*
X67689285Y-71392857D01*
X67546428Y-71392857D01*
X67546428Y-72178571D02*
X67546428Y-72464285D01*
X67617857Y-72607142D01*
X67689285Y-72678571D01*
X67903571Y-72821428D01*
X68189285Y-72892857D01*
X68760714Y-72892857D01*
X68903571Y-72821428D01*
X68975000Y-72750000D01*
X69046428Y-72607142D01*
X69046428Y-72321428D01*
X68975000Y-72178571D01*
X68903571Y-72107142D01*
X68760714Y-72035714D01*
X68403571Y-72035714D01*
X68260714Y-72107142D01*
X68189285Y-72178571D01*
X68117857Y-72321428D01*
X68117857Y-72607142D01*
X68189285Y-72750000D01*
X68260714Y-72821428D01*
X68403571Y-72892857D01*
D12*
X94835595Y-71302380D02*
X94835595Y-70302380D01*
X95073690Y-70302380D01*
X95216547Y-70350000D01*
X95311785Y-70445238D01*
X95359404Y-70540476D01*
X95407023Y-70730952D01*
X95407023Y-70873809D01*
X95359404Y-71064285D01*
X95311785Y-71159523D01*
X95216547Y-71254761D01*
X95073690Y-71302380D01*
X94835595Y-71302380D01*
X95787976Y-71254761D02*
X95930833Y-71302380D01*
X96168928Y-71302380D01*
X96264166Y-71254761D01*
X96311785Y-71207142D01*
X96359404Y-71111904D01*
X96359404Y-71016666D01*
X96311785Y-70921428D01*
X96264166Y-70873809D01*
X96168928Y-70826190D01*
X95978452Y-70778571D01*
X95883214Y-70730952D01*
X95835595Y-70683333D01*
X95787976Y-70588095D01*
X95787976Y-70492857D01*
X95835595Y-70397619D01*
X95883214Y-70350000D01*
X95978452Y-70302380D01*
X96216547Y-70302380D01*
X96359404Y-70350000D01*
X97311785Y-70350000D02*
X97216547Y-70302380D01*
X97073690Y-70302380D01*
X96930833Y-70350000D01*
X96835595Y-70445238D01*
X96787976Y-70540476D01*
X96740357Y-70730952D01*
X96740357Y-70873809D01*
X96787976Y-71064285D01*
X96835595Y-71159523D01*
X96930833Y-71254761D01*
X97073690Y-71302380D01*
X97168928Y-71302380D01*
X97311785Y-71254761D01*
X97359404Y-71207142D01*
X97359404Y-70873809D01*
X97168928Y-70873809D01*
X97787976Y-71207142D02*
X97835595Y-71254761D01*
X97787976Y-71302380D01*
X97740357Y-71254761D01*
X97787976Y-71207142D01*
X97787976Y-71302380D01*
X97787976Y-70683333D02*
X97835595Y-70730952D01*
X97787976Y-70778571D01*
X97740357Y-70730952D01*
X97787976Y-70683333D01*
X97787976Y-70778571D01*
X98930833Y-70302380D02*
X99168928Y-71302380D01*
X99359404Y-70588095D01*
X99549880Y-71302380D01*
X99787976Y-70302380D01*
X100168928Y-71302380D02*
X100168928Y-70302380D01*
X100502261Y-71016666D01*
X100835595Y-70302380D01*
X100835595Y-71302380D01*
X95026071Y-71952380D02*
X95216547Y-71952380D01*
X95311785Y-72000000D01*
X95407023Y-72095238D01*
X95454642Y-72285714D01*
X95454642Y-72619047D01*
X95407023Y-72809523D01*
X95311785Y-72904761D01*
X95216547Y-72952380D01*
X95026071Y-72952380D01*
X94930833Y-72904761D01*
X94835595Y-72809523D01*
X94787976Y-72619047D01*
X94787976Y-72285714D01*
X94835595Y-72095238D01*
X94930833Y-72000000D01*
X95026071Y-71952380D01*
X95787976Y-72952380D02*
X96311785Y-72285714D01*
X95787976Y-72285714D02*
X96311785Y-72952380D01*
X96549880Y-72285714D02*
X96930833Y-72285714D01*
X96692738Y-72952380D02*
X96692738Y-72095238D01*
X96740357Y-72000000D01*
X96835595Y-71952380D01*
X96930833Y-71952380D01*
X97407023Y-72952380D02*
X97311785Y-72904761D01*
X97264166Y-72857142D01*
X97216547Y-72761904D01*
X97216547Y-72476190D01*
X97264166Y-72380952D01*
X97311785Y-72333333D01*
X97407023Y-72285714D01*
X97549880Y-72285714D01*
X97645119Y-72333333D01*
X97692738Y-72380952D01*
X97740357Y-72476190D01*
X97740357Y-72761904D01*
X97692738Y-72857142D01*
X97645119Y-72904761D01*
X97549880Y-72952380D01*
X97407023Y-72952380D01*
X98168928Y-72952380D02*
X98168928Y-72285714D01*
X98168928Y-72476190D02*
X98216547Y-72380952D01*
X98264166Y-72333333D01*
X98359404Y-72285714D01*
X98454642Y-72285714D01*
X99216547Y-72952380D02*
X99216547Y-71952380D01*
X99216547Y-72904761D02*
X99121309Y-72952380D01*
X98930833Y-72952380D01*
X98835595Y-72904761D01*
X98787976Y-72857142D01*
X98740357Y-72761904D01*
X98740357Y-72476190D01*
X98787976Y-72380952D01*
X98835595Y-72333333D01*
X98930833Y-72285714D01*
X99121309Y-72285714D01*
X99216547Y-72333333D01*
X100311785Y-71952380D02*
X100645119Y-72952380D01*
X100978452Y-71952380D01*
X101787976Y-72952380D02*
X101311785Y-72952380D01*
X101311785Y-71952380D01*
X102692738Y-72857142D02*
X102645119Y-72904761D01*
X102502261Y-72952380D01*
X102407023Y-72952380D01*
X102264166Y-72904761D01*
X102168928Y-72809523D01*
X102121309Y-72714285D01*
X102073690Y-72523809D01*
X102073690Y-72380952D01*
X102121309Y-72190476D01*
X102168928Y-72095238D01*
X102264166Y-72000000D01*
X102407023Y-71952380D01*
X102502261Y-71952380D01*
X102645119Y-72000000D01*
X102692738Y-72047619D01*
X94692738Y-73602380D02*
X95026071Y-74602380D01*
X95359404Y-73602380D01*
X95692738Y-74078571D02*
X96026071Y-74078571D01*
X96168928Y-74602380D02*
X95692738Y-74602380D01*
X95692738Y-73602380D01*
X96168928Y-73602380D01*
X97168928Y-74602380D02*
X96835595Y-74126190D01*
X96597500Y-74602380D02*
X96597500Y-73602380D01*
X96978452Y-73602380D01*
X97073690Y-73650000D01*
X97121309Y-73697619D01*
X97168928Y-73792857D01*
X97168928Y-73935714D01*
X97121309Y-74030952D01*
X97073690Y-74078571D01*
X96978452Y-74126190D01*
X96597500Y-74126190D01*
X98311785Y-73697619D02*
X98359404Y-73650000D01*
X98454642Y-73602380D01*
X98692738Y-73602380D01*
X98787976Y-73650000D01*
X98835595Y-73697619D01*
X98883214Y-73792857D01*
X98883214Y-73888095D01*
X98835595Y-74030952D01*
X98264166Y-74602380D01*
X98883214Y-74602380D01*
D10*
X94206321Y-56112539D02*
G75*
G02X88500000Y-59500000I-5706321J3112539D01*
G01*
D12*
X104547619Y-57880952D02*
X104547619Y-57309523D01*
X104547619Y-57595238D02*
X105547619Y-57595238D01*
X105404761Y-57500000D01*
X105309523Y-57404761D01*
X105261904Y-57309523D01*
X105452380Y-58261904D02*
X105500000Y-58309523D01*
X105547619Y-58404761D01*
X105547619Y-58642857D01*
X105500000Y-58738095D01*
X105452380Y-58785714D01*
X105357142Y-58833333D01*
X105261904Y-58833333D01*
X105119047Y-58785714D01*
X104547619Y-58214285D01*
X104547619Y-58833333D01*
X105547619Y-59119047D02*
X104547619Y-59452380D01*
X105547619Y-59785714D01*
D13*
X57570476Y-104928571D02*
X57570476Y-103428571D01*
X57837142Y-104500000D01*
X58103809Y-103428571D01*
X58103809Y-104928571D01*
X58637142Y-103428571D02*
X58789523Y-103428571D01*
X58865714Y-103500000D01*
X58941904Y-103642857D01*
X58980000Y-103928571D01*
X58980000Y-104428571D01*
X58941904Y-104714285D01*
X58865714Y-104857142D01*
X58789523Y-104928571D01*
X58637142Y-104928571D01*
X58560952Y-104857142D01*
X58484761Y-104714285D01*
X58446666Y-104428571D01*
X58446666Y-103928571D01*
X58484761Y-103642857D01*
X58560952Y-103500000D01*
X58637142Y-103428571D01*
X59208571Y-103428571D02*
X59665714Y-103428571D01*
X59437142Y-104928571D02*
X59437142Y-103428571D01*
X60084761Y-103428571D02*
X60237142Y-103428571D01*
X60313333Y-103500000D01*
X60389523Y-103642857D01*
X60427619Y-103928571D01*
X60427619Y-104428571D01*
X60389523Y-104714285D01*
X60313333Y-104857142D01*
X60237142Y-104928571D01*
X60084761Y-104928571D01*
X60008571Y-104857142D01*
X59932380Y-104714285D01*
X59894285Y-104428571D01*
X59894285Y-103928571D01*
X59932380Y-103642857D01*
X60008571Y-103500000D01*
X60084761Y-103428571D01*
X61227619Y-104928571D02*
X60960952Y-104214285D01*
X60770476Y-104928571D02*
X60770476Y-103428571D01*
X61075238Y-103428571D01*
X61151428Y-103500000D01*
X61189523Y-103571428D01*
X61227619Y-103714285D01*
X61227619Y-103928571D01*
X61189523Y-104071428D01*
X61151428Y-104142857D01*
X61075238Y-104214285D01*
X60770476Y-104214285D01*
X62141904Y-103571428D02*
X62180000Y-103500000D01*
X62256190Y-103428571D01*
X62446666Y-103428571D01*
X62522857Y-103500000D01*
X62560952Y-103571428D01*
X62599047Y-103714285D01*
X62599047Y-103857142D01*
X62560952Y-104071428D01*
X62103809Y-104928571D01*
X62599047Y-104928571D01*
X55678571Y-101929523D02*
X54178571Y-101929523D01*
X55250000Y-101662857D01*
X54178571Y-101396190D01*
X55678571Y-101396190D01*
X54178571Y-100862857D02*
X54178571Y-100710476D01*
X54250000Y-100634285D01*
X54392857Y-100558095D01*
X54678571Y-100520000D01*
X55178571Y-100520000D01*
X55464285Y-100558095D01*
X55607142Y-100634285D01*
X55678571Y-100710476D01*
X55678571Y-100862857D01*
X55607142Y-100939047D01*
X55464285Y-101015238D01*
X55178571Y-101053333D01*
X54678571Y-101053333D01*
X54392857Y-101015238D01*
X54250000Y-100939047D01*
X54178571Y-100862857D01*
X54178571Y-100291428D02*
X54178571Y-99834285D01*
X55678571Y-100062857D02*
X54178571Y-100062857D01*
X54178571Y-99415238D02*
X54178571Y-99262857D01*
X54250000Y-99186666D01*
X54392857Y-99110476D01*
X54678571Y-99072380D01*
X55178571Y-99072380D01*
X55464285Y-99110476D01*
X55607142Y-99186666D01*
X55678571Y-99262857D01*
X55678571Y-99415238D01*
X55607142Y-99491428D01*
X55464285Y-99567619D01*
X55178571Y-99605714D01*
X54678571Y-99605714D01*
X54392857Y-99567619D01*
X54250000Y-99491428D01*
X54178571Y-99415238D01*
X55678571Y-98272380D02*
X54964285Y-98539047D01*
X55678571Y-98729523D02*
X54178571Y-98729523D01*
X54178571Y-98424761D01*
X54250000Y-98348571D01*
X54321428Y-98310476D01*
X54464285Y-98272380D01*
X54678571Y-98272380D01*
X54821428Y-98310476D01*
X54892857Y-98348571D01*
X54964285Y-98424761D01*
X54964285Y-98729523D01*
X55678571Y-96900952D02*
X55678571Y-97358095D01*
X55678571Y-97129523D02*
X54178571Y-97129523D01*
X54392857Y-97205714D01*
X54535714Y-97281904D01*
X54607142Y-97358095D01*
D12*
X66904761Y-113190476D02*
X66952380Y-113047619D01*
X66952380Y-112809523D01*
X66904761Y-112714285D01*
X66857142Y-112666666D01*
X66761904Y-112619047D01*
X66666666Y-112619047D01*
X66571428Y-112666666D01*
X66523809Y-112714285D01*
X66476190Y-112809523D01*
X66428571Y-113000000D01*
X66380952Y-113095238D01*
X66333333Y-113142857D01*
X66238095Y-113190476D01*
X66142857Y-113190476D01*
X66047619Y-113142857D01*
X66000000Y-113095238D01*
X65952380Y-113000000D01*
X65952380Y-112761904D01*
X66000000Y-112619047D01*
X66857142Y-111619047D02*
X66904761Y-111666666D01*
X66952380Y-111809523D01*
X66952380Y-111904761D01*
X66904761Y-112047619D01*
X66809523Y-112142857D01*
X66714285Y-112190476D01*
X66523809Y-112238095D01*
X66380952Y-112238095D01*
X66190476Y-112190476D01*
X66095238Y-112142857D01*
X66000000Y-112047619D01*
X65952380Y-111904761D01*
X65952380Y-111809523D01*
X66000000Y-111666666D01*
X66047619Y-111619047D01*
X66952380Y-110714285D02*
X66952380Y-111190476D01*
X65952380Y-111190476D01*
D14*
X92903571Y-119750000D02*
X91403571Y-119750000D01*
X92903571Y-119035714D02*
X91403571Y-119035714D01*
X92903571Y-118178571D01*
X91403571Y-118178571D01*
X92832142Y-117535714D02*
X92903571Y-117321428D01*
X92903571Y-116964285D01*
X92832142Y-116821428D01*
X92760714Y-116750000D01*
X92617857Y-116678571D01*
X92475000Y-116678571D01*
X92332142Y-116750000D01*
X92260714Y-116821428D01*
X92189285Y-116964285D01*
X92117857Y-117250000D01*
X92046428Y-117392857D01*
X91975000Y-117464285D01*
X91832142Y-117535714D01*
X91689285Y-117535714D01*
X91546428Y-117464285D01*
X91475000Y-117392857D01*
X91403571Y-117250000D01*
X91403571Y-116892857D01*
X91475000Y-116678571D01*
X92117857Y-116035714D02*
X92117857Y-115535714D01*
X92903571Y-115321428D02*
X92903571Y-116035714D01*
X91403571Y-116035714D01*
X91403571Y-115321428D01*
X92903571Y-113821428D02*
X92189285Y-114321428D01*
X92903571Y-114678571D02*
X91403571Y-114678571D01*
X91403571Y-114107142D01*
X91475000Y-113964285D01*
X91546428Y-113892857D01*
X91689285Y-113821428D01*
X91903571Y-113821428D01*
X92046428Y-113892857D01*
X92117857Y-113964285D01*
X92189285Y-114107142D01*
X92189285Y-114678571D01*
X91403571Y-113392857D02*
X91403571Y-112535714D01*
X92903571Y-112964285D02*
X91403571Y-112964285D01*
X91403571Y-110607142D02*
X91403571Y-110321428D01*
X91475000Y-110178571D01*
X91617857Y-110035714D01*
X91903571Y-109964285D01*
X92403571Y-109964285D01*
X92689285Y-110035714D01*
X92832142Y-110178571D01*
X92903571Y-110321428D01*
X92903571Y-110607142D01*
X92832142Y-110750000D01*
X92689285Y-110892857D01*
X92403571Y-110964285D01*
X91903571Y-110964285D01*
X91617857Y-110892857D01*
X91475000Y-110750000D01*
X91403571Y-110607142D01*
X92903571Y-109321428D02*
X91403571Y-109321428D01*
X92903571Y-108464285D01*
X91403571Y-108464285D01*
X92903571Y-107035714D02*
X92903571Y-107750000D01*
X91403571Y-107750000D01*
X92189285Y-106250000D02*
X92903571Y-106250000D01*
X91403571Y-106750000D02*
X92189285Y-106250000D01*
X91403571Y-105750000D01*
X92760714Y-105250000D02*
X92832142Y-105178571D01*
X92903571Y-105250000D01*
X92832142Y-105321428D01*
X92760714Y-105250000D01*
X92903571Y-105250000D01*
X91975000Y-105250000D02*
X92046428Y-105178571D01*
X92117857Y-105250000D01*
X92046428Y-105321428D01*
X91975000Y-105250000D01*
X92117857Y-105250000D01*
X95453571Y-125821428D02*
X93953571Y-125821428D01*
X95453571Y-124964285D01*
X93953571Y-124964285D01*
X93953571Y-123964285D02*
X93953571Y-123678571D01*
X94025000Y-123535714D01*
X94167857Y-123392857D01*
X94453571Y-123321428D01*
X94953571Y-123321428D01*
X95239285Y-123392857D01*
X95382142Y-123535714D01*
X95453571Y-123678571D01*
X95453571Y-123964285D01*
X95382142Y-124107142D01*
X95239285Y-124250000D01*
X94953571Y-124321428D01*
X94453571Y-124321428D01*
X94167857Y-124250000D01*
X94025000Y-124107142D01*
X93953571Y-123964285D01*
X95453571Y-122678571D02*
X93953571Y-122678571D01*
X93953571Y-122321428D01*
X94025000Y-122107142D01*
X94167857Y-121964285D01*
X94310714Y-121892857D01*
X94596428Y-121821428D01*
X94810714Y-121821428D01*
X95096428Y-121892857D01*
X95239285Y-121964285D01*
X95382142Y-122107142D01*
X95453571Y-122321428D01*
X95453571Y-122678571D01*
X94667857Y-121178571D02*
X94667857Y-120678571D01*
X95453571Y-120464285D02*
X95453571Y-121178571D01*
X93953571Y-121178571D01*
X93953571Y-120464285D01*
X95453571Y-119821428D02*
X93953571Y-119821428D01*
X95025000Y-119321428D01*
X93953571Y-118821428D01*
X95453571Y-118821428D01*
X95310714Y-117250000D02*
X95382142Y-117321428D01*
X95453571Y-117535714D01*
X95453571Y-117678571D01*
X95382142Y-117892857D01*
X95239285Y-118035714D01*
X95096428Y-118107142D01*
X94810714Y-118178571D01*
X94596428Y-118178571D01*
X94310714Y-118107142D01*
X94167857Y-118035714D01*
X94025000Y-117892857D01*
X93953571Y-117678571D01*
X93953571Y-117535714D01*
X94025000Y-117321428D01*
X94096428Y-117250000D01*
X93953571Y-116607142D02*
X95167857Y-116607142D01*
X95310714Y-116535714D01*
X95382142Y-116464285D01*
X95453571Y-116321428D01*
X95453571Y-116035714D01*
X95382142Y-115892857D01*
X95310714Y-115821428D01*
X95167857Y-115750000D01*
X93953571Y-115750000D01*
X94667857Y-113892857D02*
X94667857Y-113392857D01*
X95453571Y-113178571D02*
X95453571Y-113892857D01*
X93953571Y-113892857D01*
X93953571Y-113178571D01*
X95382142Y-112607142D02*
X95453571Y-112392857D01*
X95453571Y-112035714D01*
X95382142Y-111892857D01*
X95310714Y-111821428D01*
X95167857Y-111750000D01*
X95025000Y-111750000D01*
X94882142Y-111821428D01*
X94810714Y-111892857D01*
X94739285Y-112035714D01*
X94667857Y-112321428D01*
X94596428Y-112464285D01*
X94525000Y-112535714D01*
X94382142Y-112607142D01*
X94239285Y-112607142D01*
X94096428Y-112535714D01*
X94025000Y-112464285D01*
X93953571Y-112321428D01*
X93953571Y-111964285D01*
X94025000Y-111750000D01*
X95453571Y-111107142D02*
X93953571Y-111107142D01*
X93953571Y-110535714D01*
X94025000Y-110392857D01*
X94096428Y-110321428D01*
X94239285Y-110250000D01*
X94453571Y-110250000D01*
X94596428Y-110321428D01*
X94667857Y-110392857D01*
X94739285Y-110535714D01*
X94739285Y-111107142D01*
X94596428Y-109392857D02*
X94525000Y-109535714D01*
X94453571Y-109607142D01*
X94310714Y-109678571D01*
X94239285Y-109678571D01*
X94096428Y-109607142D01*
X94025000Y-109535714D01*
X93953571Y-109392857D01*
X93953571Y-109107142D01*
X94025000Y-108964285D01*
X94096428Y-108892857D01*
X94239285Y-108821428D01*
X94310714Y-108821428D01*
X94453571Y-108892857D01*
X94525000Y-108964285D01*
X94596428Y-109107142D01*
X94596428Y-109392857D01*
X94667857Y-109535714D01*
X94739285Y-109607142D01*
X94882142Y-109678571D01*
X95167857Y-109678571D01*
X95310714Y-109607142D01*
X95382142Y-109535714D01*
X95453571Y-109392857D01*
X95453571Y-109107142D01*
X95382142Y-108964285D01*
X95310714Y-108892857D01*
X95167857Y-108821428D01*
X94882142Y-108821428D01*
X94739285Y-108892857D01*
X94667857Y-108964285D01*
X94596428Y-109107142D01*
X94096428Y-108250000D02*
X94025000Y-108178571D01*
X93953571Y-108035714D01*
X93953571Y-107678571D01*
X94025000Y-107535714D01*
X94096428Y-107464285D01*
X94239285Y-107392857D01*
X94382142Y-107392857D01*
X94596428Y-107464285D01*
X95453571Y-108321428D01*
X95453571Y-107392857D01*
X93953571Y-106107142D02*
X93953571Y-106392857D01*
X94025000Y-106535714D01*
X94096428Y-106607142D01*
X94310714Y-106750000D01*
X94596428Y-106821428D01*
X95167857Y-106821428D01*
X95310714Y-106750000D01*
X95382142Y-106678571D01*
X95453571Y-106535714D01*
X95453571Y-106250000D01*
X95382142Y-106107142D01*
X95310714Y-106035714D01*
X95167857Y-105964285D01*
X94810714Y-105964285D01*
X94667857Y-106035714D01*
X94596428Y-106107142D01*
X94525000Y-106250000D01*
X94525000Y-106535714D01*
X94596428Y-106678571D01*
X94667857Y-106750000D01*
X94810714Y-106821428D01*
X93953571Y-104678571D02*
X93953571Y-104964285D01*
X94025000Y-105107142D01*
X94096428Y-105178571D01*
X94310714Y-105321428D01*
X94596428Y-105392857D01*
X95167857Y-105392857D01*
X95310714Y-105321428D01*
X95382142Y-105250000D01*
X95453571Y-105107142D01*
X95453571Y-104821428D01*
X95382142Y-104678571D01*
X95310714Y-104607142D01*
X95167857Y-104535714D01*
X94810714Y-104535714D01*
X94667857Y-104607142D01*
X94596428Y-104678571D01*
X94525000Y-104821428D01*
X94525000Y-105107142D01*
X94596428Y-105250000D01*
X94667857Y-105321428D01*
X94810714Y-105392857D01*
X94453571Y-103892857D02*
X94882142Y-102750000D01*
X95310714Y-103892857D01*
X93953571Y-101750000D02*
X93953571Y-101607142D01*
X94025000Y-101464285D01*
X94096428Y-101392857D01*
X94239285Y-101321428D01*
X94525000Y-101250000D01*
X94882142Y-101250000D01*
X95167857Y-101321428D01*
X95310714Y-101392857D01*
X95382142Y-101464285D01*
X95453571Y-101607142D01*
X95453571Y-101750000D01*
X95382142Y-101892857D01*
X95310714Y-101964285D01*
X95167857Y-102035714D01*
X94882142Y-102107142D01*
X94525000Y-102107142D01*
X94239285Y-102035714D01*
X94096428Y-101964285D01*
X94025000Y-101892857D01*
X93953571Y-101750000D01*
X95310714Y-100607142D02*
X95382142Y-100535714D01*
X95453571Y-100607142D01*
X95382142Y-100678571D01*
X95310714Y-100607142D01*
X95453571Y-100607142D01*
X95453571Y-99821428D02*
X95453571Y-99535714D01*
X95382142Y-99392857D01*
X95310714Y-99321428D01*
X95096428Y-99178571D01*
X94810714Y-99107142D01*
X94239285Y-99107142D01*
X94096428Y-99178571D01*
X94025000Y-99250000D01*
X93953571Y-99392857D01*
X93953571Y-99678571D01*
X94025000Y-99821428D01*
X94096428Y-99892857D01*
X94239285Y-99964285D01*
X94596428Y-99964285D01*
X94739285Y-99892857D01*
X94810714Y-99821428D01*
X94882142Y-99678571D01*
X94882142Y-99392857D01*
X94810714Y-99250000D01*
X94739285Y-99178571D01*
X94596428Y-99107142D01*
D12*
X68164404Y-100697619D02*
X68164404Y-101697619D01*
X67926309Y-101697619D01*
X67783452Y-101650000D01*
X67688214Y-101554761D01*
X67640595Y-101459523D01*
X67592976Y-101269047D01*
X67592976Y-101126190D01*
X67640595Y-100935714D01*
X67688214Y-100840476D01*
X67783452Y-100745238D01*
X67926309Y-100697619D01*
X68164404Y-100697619D01*
X67212023Y-100745238D02*
X67069166Y-100697619D01*
X66831071Y-100697619D01*
X66735833Y-100745238D01*
X66688214Y-100792857D01*
X66640595Y-100888095D01*
X66640595Y-100983333D01*
X66688214Y-101078571D01*
X66735833Y-101126190D01*
X66831071Y-101173809D01*
X67021547Y-101221428D01*
X67116785Y-101269047D01*
X67164404Y-101316666D01*
X67212023Y-101411904D01*
X67212023Y-101507142D01*
X67164404Y-101602380D01*
X67116785Y-101650000D01*
X67021547Y-101697619D01*
X66783452Y-101697619D01*
X66640595Y-101650000D01*
X65688214Y-101650000D02*
X65783452Y-101697619D01*
X65926309Y-101697619D01*
X66069166Y-101650000D01*
X66164404Y-101554761D01*
X66212023Y-101459523D01*
X66259642Y-101269047D01*
X66259642Y-101126190D01*
X66212023Y-100935714D01*
X66164404Y-100840476D01*
X66069166Y-100745238D01*
X65926309Y-100697619D01*
X65831071Y-100697619D01*
X65688214Y-100745238D01*
X65640595Y-100792857D01*
X65640595Y-101126190D01*
X65831071Y-101126190D01*
X65212023Y-100792857D02*
X65164404Y-100745238D01*
X65212023Y-100697619D01*
X65259642Y-100745238D01*
X65212023Y-100792857D01*
X65212023Y-100697619D01*
X65212023Y-101316666D02*
X65164404Y-101269047D01*
X65212023Y-101221428D01*
X65259642Y-101269047D01*
X65212023Y-101316666D01*
X65212023Y-101221428D01*
X64069166Y-101697619D02*
X63831071Y-100697619D01*
X63640595Y-101411904D01*
X63450119Y-100697619D01*
X63212023Y-101697619D01*
X62831071Y-100697619D02*
X62831071Y-101697619D01*
X62497738Y-100983333D01*
X62164404Y-101697619D01*
X62164404Y-100697619D01*
X67973928Y-100047619D02*
X67783452Y-100047619D01*
X67688214Y-100000000D01*
X67592976Y-99904761D01*
X67545357Y-99714285D01*
X67545357Y-99380952D01*
X67592976Y-99190476D01*
X67688214Y-99095238D01*
X67783452Y-99047619D01*
X67973928Y-99047619D01*
X68069166Y-99095238D01*
X68164404Y-99190476D01*
X68212023Y-99380952D01*
X68212023Y-99714285D01*
X68164404Y-99904761D01*
X68069166Y-100000000D01*
X67973928Y-100047619D01*
X67212023Y-99047619D02*
X66688214Y-99714285D01*
X67212023Y-99714285D02*
X66688214Y-99047619D01*
X66450119Y-99714285D02*
X66069166Y-99714285D01*
X66307261Y-99047619D02*
X66307261Y-99904761D01*
X66259642Y-100000000D01*
X66164404Y-100047619D01*
X66069166Y-100047619D01*
X65592976Y-99047619D02*
X65688214Y-99095238D01*
X65735833Y-99142857D01*
X65783452Y-99238095D01*
X65783452Y-99523809D01*
X65735833Y-99619047D01*
X65688214Y-99666666D01*
X65592976Y-99714285D01*
X65450119Y-99714285D01*
X65354880Y-99666666D01*
X65307261Y-99619047D01*
X65259642Y-99523809D01*
X65259642Y-99238095D01*
X65307261Y-99142857D01*
X65354880Y-99095238D01*
X65450119Y-99047619D01*
X65592976Y-99047619D01*
X64831071Y-99047619D02*
X64831071Y-99714285D01*
X64831071Y-99523809D02*
X64783452Y-99619047D01*
X64735833Y-99666666D01*
X64640595Y-99714285D01*
X64545357Y-99714285D01*
X63783452Y-99047619D02*
X63783452Y-100047619D01*
X63783452Y-99095238D02*
X63878690Y-99047619D01*
X64069166Y-99047619D01*
X64164404Y-99095238D01*
X64212023Y-99142857D01*
X64259642Y-99238095D01*
X64259642Y-99523809D01*
X64212023Y-99619047D01*
X64164404Y-99666666D01*
X64069166Y-99714285D01*
X63878690Y-99714285D01*
X63783452Y-99666666D01*
X62688214Y-100047619D02*
X62354880Y-99047619D01*
X62021547Y-100047619D01*
X61212023Y-99047619D02*
X61688214Y-99047619D01*
X61688214Y-100047619D01*
X60307261Y-99142857D02*
X60354880Y-99095238D01*
X60497738Y-99047619D01*
X60592976Y-99047619D01*
X60735833Y-99095238D01*
X60831071Y-99190476D01*
X60878690Y-99285714D01*
X60926309Y-99476190D01*
X60926309Y-99619047D01*
X60878690Y-99809523D01*
X60831071Y-99904761D01*
X60735833Y-100000000D01*
X60592976Y-100047619D01*
X60497738Y-100047619D01*
X60354880Y-100000000D01*
X60307261Y-99952380D01*
X68307261Y-98397619D02*
X67973928Y-97397619D01*
X67640595Y-98397619D01*
X67307261Y-97921428D02*
X66973928Y-97921428D01*
X66831071Y-97397619D02*
X67307261Y-97397619D01*
X67307261Y-98397619D01*
X66831071Y-98397619D01*
X65831071Y-97397619D02*
X66164404Y-97873809D01*
X66402500Y-97397619D02*
X66402500Y-98397619D01*
X66021547Y-98397619D01*
X65926309Y-98350000D01*
X65878690Y-98302380D01*
X65831071Y-98207142D01*
X65831071Y-98064285D01*
X65878690Y-97969047D01*
X65926309Y-97921428D01*
X66021547Y-97873809D01*
X66402500Y-97873809D01*
X64688214Y-98302380D02*
X64640595Y-98350000D01*
X64545357Y-98397619D01*
X64307261Y-98397619D01*
X64212023Y-98350000D01*
X64164404Y-98302380D01*
X64116785Y-98207142D01*
X64116785Y-98111904D01*
X64164404Y-97969047D01*
X64735833Y-97397619D01*
X64116785Y-97397619D01*
X82627380Y-120059642D02*
X82627380Y-119907261D01*
X82675000Y-119831071D01*
X82770238Y-119754880D01*
X82960714Y-119716785D01*
X83294047Y-119716785D01*
X83484523Y-119754880D01*
X83579761Y-119831071D01*
X83627380Y-119907261D01*
X83627380Y-120059642D01*
X83579761Y-120135833D01*
X83484523Y-120212023D01*
X83294047Y-120250119D01*
X82960714Y-120250119D01*
X82770238Y-120212023D01*
X82675000Y-120135833D01*
X82627380Y-120059642D01*
X82627380Y-119488214D02*
X83627380Y-119221547D01*
X82627380Y-118954880D01*
X83103571Y-118688214D02*
X83103571Y-118421547D01*
X83627380Y-118307261D02*
X83627380Y-118688214D01*
X82627380Y-118688214D01*
X82627380Y-118307261D01*
X83627380Y-117507261D02*
X83151190Y-117773928D01*
X83627380Y-117964404D02*
X82627380Y-117964404D01*
X82627380Y-117659642D01*
X82675000Y-117583452D01*
X82722619Y-117545357D01*
X82817857Y-117507261D01*
X82960714Y-117507261D01*
X83055952Y-117545357D01*
X83103571Y-117583452D01*
X83151190Y-117659642D01*
X83151190Y-117964404D01*
X82627380Y-117278690D02*
X83627380Y-117012023D01*
X82627380Y-116745357D01*
X83627380Y-116478690D02*
X82627380Y-116478690D01*
X83103571Y-116097738D02*
X83103571Y-115831071D01*
X83627380Y-115716785D02*
X83627380Y-116097738D01*
X82627380Y-116097738D01*
X82627380Y-115716785D01*
X82627380Y-115450119D02*
X83627380Y-115259642D01*
X82913095Y-115107261D01*
X83627380Y-114954880D01*
X82627380Y-114764404D01*
X83627380Y-113850119D02*
X82627380Y-113850119D01*
X82627380Y-113545357D01*
X82675000Y-113469166D01*
X82722619Y-113431071D01*
X82817857Y-113392976D01*
X82960714Y-113392976D01*
X83055952Y-113431071D01*
X83103571Y-113469166D01*
X83151190Y-113545357D01*
X83151190Y-113850119D01*
X82627380Y-112897738D02*
X82627380Y-112745357D01*
X82675000Y-112669166D01*
X82770238Y-112592976D01*
X82960714Y-112554880D01*
X83294047Y-112554880D01*
X83484523Y-112592976D01*
X83579761Y-112669166D01*
X83627380Y-112745357D01*
X83627380Y-112897738D01*
X83579761Y-112973928D01*
X83484523Y-113050119D01*
X83294047Y-113088214D01*
X82960714Y-113088214D01*
X82770238Y-113050119D01*
X82675000Y-112973928D01*
X82627380Y-112897738D01*
X83627380Y-111831071D02*
X83627380Y-112212023D01*
X82627380Y-112212023D01*
X83341666Y-111602500D02*
X83341666Y-111221547D01*
X83627380Y-111678690D02*
X82627380Y-111412023D01*
X83627380Y-111145357D01*
X83627380Y-110421547D02*
X83151190Y-110688214D01*
X83627380Y-110878690D02*
X82627380Y-110878690D01*
X82627380Y-110573928D01*
X82675000Y-110497738D01*
X82722619Y-110459642D01*
X82817857Y-110421547D01*
X82960714Y-110421547D01*
X83055952Y-110459642D01*
X83103571Y-110497738D01*
X83151190Y-110573928D01*
X83151190Y-110878690D01*
X83627380Y-110078690D02*
X82627380Y-110078690D01*
X83579761Y-109735833D02*
X83627380Y-109621547D01*
X83627380Y-109431071D01*
X83579761Y-109354880D01*
X83532142Y-109316785D01*
X83436904Y-109278690D01*
X83341666Y-109278690D01*
X83246428Y-109316785D01*
X83198809Y-109354880D01*
X83151190Y-109431071D01*
X83103571Y-109583452D01*
X83055952Y-109659642D01*
X83008333Y-109697738D01*
X82913095Y-109735833D01*
X82817857Y-109735833D01*
X82722619Y-109697738D01*
X82675000Y-109659642D01*
X82627380Y-109583452D01*
X82627380Y-109392976D01*
X82675000Y-109278690D01*
X83103571Y-108935833D02*
X83103571Y-108669166D01*
X83627380Y-108554880D02*
X83627380Y-108935833D01*
X82627380Y-108935833D01*
X82627380Y-108554880D01*
X83627380Y-107754880D02*
X83151190Y-108021547D01*
X83627380Y-108212023D02*
X82627380Y-108212023D01*
X82627380Y-107907261D01*
X82675000Y-107831071D01*
X82722619Y-107792976D01*
X82817857Y-107754880D01*
X82960714Y-107754880D01*
X83055952Y-107792976D01*
X83103571Y-107831071D01*
X83151190Y-107907261D01*
X83151190Y-108212023D01*
X83627380Y-106802500D02*
X82627380Y-106802500D01*
X82627380Y-106612023D01*
X82675000Y-106497738D01*
X82770238Y-106421547D01*
X82865476Y-106383452D01*
X83055952Y-106345357D01*
X83198809Y-106345357D01*
X83389285Y-106383452D01*
X83484523Y-106421547D01*
X83579761Y-106497738D01*
X83627380Y-106612023D01*
X83627380Y-106802500D01*
X83627380Y-105545357D02*
X83151190Y-105812023D01*
X83627380Y-106002500D02*
X82627380Y-106002500D01*
X82627380Y-105697738D01*
X82675000Y-105621547D01*
X82722619Y-105583452D01*
X82817857Y-105545357D01*
X82960714Y-105545357D01*
X83055952Y-105583452D01*
X83103571Y-105621547D01*
X83151190Y-105697738D01*
X83151190Y-106002500D01*
X83627380Y-105202500D02*
X82627380Y-105202500D01*
X82627380Y-104935833D02*
X83627380Y-104669166D01*
X82627380Y-104402500D01*
X83103571Y-104135833D02*
X83103571Y-103869166D01*
X83627380Y-103754880D02*
X83627380Y-104135833D01*
X82627380Y-104135833D01*
X82627380Y-103754880D01*
X83103571Y-102535833D02*
X83151190Y-102421547D01*
X83198809Y-102383452D01*
X83294047Y-102345357D01*
X83436904Y-102345357D01*
X83532142Y-102383452D01*
X83579761Y-102421547D01*
X83627380Y-102497738D01*
X83627380Y-102802500D01*
X82627380Y-102802500D01*
X82627380Y-102535833D01*
X82675000Y-102459642D01*
X82722619Y-102421547D01*
X82817857Y-102383452D01*
X82913095Y-102383452D01*
X83008333Y-102421547D01*
X83055952Y-102459642D01*
X83103571Y-102535833D01*
X83103571Y-102802500D01*
X82627380Y-101850119D02*
X82627380Y-101697738D01*
X82675000Y-101621547D01*
X82770238Y-101545357D01*
X82960714Y-101507261D01*
X83294047Y-101507261D01*
X83484523Y-101545357D01*
X83579761Y-101621547D01*
X83627380Y-101697738D01*
X83627380Y-101850119D01*
X83579761Y-101926309D01*
X83484523Y-102002500D01*
X83294047Y-102040595D01*
X82960714Y-102040595D01*
X82770238Y-102002500D01*
X82675000Y-101926309D01*
X82627380Y-101850119D01*
X83341666Y-101202500D02*
X83341666Y-100821547D01*
X83627380Y-101278690D02*
X82627380Y-101012023D01*
X83627380Y-100745357D01*
X83627380Y-100021547D02*
X83151190Y-100288214D01*
X83627380Y-100478690D02*
X82627380Y-100478690D01*
X82627380Y-100173928D01*
X82675000Y-100097738D01*
X82722619Y-100059642D01*
X82817857Y-100021547D01*
X82960714Y-100021547D01*
X83055952Y-100059642D01*
X83103571Y-100097738D01*
X83151190Y-100173928D01*
X83151190Y-100478690D01*
X83627380Y-99678690D02*
X82627380Y-99678690D01*
X82627380Y-99488214D01*
X82675000Y-99373928D01*
X82770238Y-99297738D01*
X82865476Y-99259642D01*
X83055952Y-99221547D01*
X83198809Y-99221547D01*
X83389285Y-99259642D01*
X83484523Y-99297738D01*
X83579761Y-99373928D01*
X83627380Y-99488214D01*
X83627380Y-99678690D01*
X84277380Y-120212023D02*
X85086904Y-120212023D01*
X85182142Y-120173928D01*
X85229761Y-120135833D01*
X85277380Y-120059642D01*
X85277380Y-119907261D01*
X85229761Y-119831071D01*
X85182142Y-119792976D01*
X85086904Y-119754880D01*
X84277380Y-119754880D01*
X85229761Y-119412023D02*
X85277380Y-119297738D01*
X85277380Y-119107261D01*
X85229761Y-119031071D01*
X85182142Y-118992976D01*
X85086904Y-118954880D01*
X84991666Y-118954880D01*
X84896428Y-118992976D01*
X84848809Y-119031071D01*
X84801190Y-119107261D01*
X84753571Y-119259642D01*
X84705952Y-119335833D01*
X84658333Y-119373928D01*
X84563095Y-119412023D01*
X84467857Y-119412023D01*
X84372619Y-119373928D01*
X84325000Y-119335833D01*
X84277380Y-119259642D01*
X84277380Y-119069166D01*
X84325000Y-118954880D01*
X84753571Y-118612023D02*
X84753571Y-118345357D01*
X85277380Y-118231071D02*
X85277380Y-118612023D01*
X84277380Y-118612023D01*
X84277380Y-118231071D01*
X84277380Y-117126309D02*
X84277380Y-116973928D01*
X84325000Y-116897738D01*
X84420238Y-116821547D01*
X84610714Y-116783452D01*
X84944047Y-116783452D01*
X85134523Y-116821547D01*
X85229761Y-116897738D01*
X85277380Y-116973928D01*
X85277380Y-117126309D01*
X85229761Y-117202500D01*
X85134523Y-117278690D01*
X84944047Y-117316785D01*
X84610714Y-117316785D01*
X84420238Y-117278690D01*
X84325000Y-117202500D01*
X84277380Y-117126309D01*
X85277380Y-116440595D02*
X84277380Y-116440595D01*
X85277380Y-115983452D01*
X84277380Y-115983452D01*
X85277380Y-115221547D02*
X85277380Y-115602500D01*
X84277380Y-115602500D01*
X84801190Y-114802500D02*
X85277380Y-114802500D01*
X84277380Y-115069166D02*
X84801190Y-114802500D01*
X84277380Y-114535833D01*
X84277380Y-113507261D02*
X84277380Y-113354880D01*
X84325000Y-113278690D01*
X84420238Y-113202500D01*
X84610714Y-113164404D01*
X84944047Y-113164404D01*
X85134523Y-113202500D01*
X85229761Y-113278690D01*
X85277380Y-113354880D01*
X85277380Y-113507261D01*
X85229761Y-113583452D01*
X85134523Y-113659642D01*
X84944047Y-113697738D01*
X84610714Y-113697738D01*
X84420238Y-113659642D01*
X84325000Y-113583452D01*
X84277380Y-113507261D01*
X85277380Y-112821547D02*
X84277380Y-112821547D01*
X85277380Y-112364404D01*
X84277380Y-112364404D01*
X84277380Y-111450119D02*
X84277380Y-110954880D01*
X84658333Y-111221547D01*
X84658333Y-111107261D01*
X84705952Y-111031071D01*
X84753571Y-110992976D01*
X84848809Y-110954880D01*
X85086904Y-110954880D01*
X85182142Y-110992976D01*
X85229761Y-111031071D01*
X85277380Y-111107261D01*
X85277380Y-111335833D01*
X85229761Y-111412023D01*
X85182142Y-111450119D01*
X84277380Y-110726309D02*
X85277380Y-110459642D01*
X84277380Y-110192976D01*
X84277380Y-110002500D02*
X84277380Y-109507261D01*
X84658333Y-109773928D01*
X84658333Y-109659642D01*
X84705952Y-109583452D01*
X84753571Y-109545357D01*
X84848809Y-109507261D01*
X85086904Y-109507261D01*
X85182142Y-109545357D01*
X85229761Y-109583452D01*
X85277380Y-109659642D01*
X85277380Y-109888214D01*
X85229761Y-109964404D01*
X85182142Y-110002500D01*
X85277380Y-108554880D02*
X84277380Y-108554880D01*
X84372619Y-108212023D02*
X84325000Y-108173928D01*
X84277380Y-108097738D01*
X84277380Y-107907261D01*
X84325000Y-107831071D01*
X84372619Y-107792976D01*
X84467857Y-107754880D01*
X84563095Y-107754880D01*
X84705952Y-107792976D01*
X85277380Y-108250119D01*
X85277380Y-107754880D01*
X85182142Y-106954880D02*
X85229761Y-106992976D01*
X85277380Y-107107261D01*
X85277380Y-107183452D01*
X85229761Y-107297738D01*
X85134523Y-107373928D01*
X85039285Y-107412023D01*
X84848809Y-107450119D01*
X84705952Y-107450119D01*
X84515476Y-107412023D01*
X84420238Y-107373928D01*
X84325000Y-107297738D01*
X84277380Y-107183452D01*
X84277380Y-107107261D01*
X84325000Y-106992976D01*
X84372619Y-106954880D01*
X84753571Y-105735833D02*
X84801190Y-105621547D01*
X84848809Y-105583452D01*
X84944047Y-105545357D01*
X85086904Y-105545357D01*
X85182142Y-105583452D01*
X85229761Y-105621547D01*
X85277380Y-105697738D01*
X85277380Y-106002500D01*
X84277380Y-106002500D01*
X84277380Y-105735833D01*
X84325000Y-105659642D01*
X84372619Y-105621547D01*
X84467857Y-105583452D01*
X84563095Y-105583452D01*
X84658333Y-105621547D01*
X84705952Y-105659642D01*
X84753571Y-105735833D01*
X84753571Y-106002500D01*
X84277380Y-105202500D02*
X85086904Y-105202500D01*
X85182142Y-105164404D01*
X85229761Y-105126309D01*
X85277380Y-105050119D01*
X85277380Y-104897738D01*
X85229761Y-104821547D01*
X85182142Y-104783452D01*
X85086904Y-104745357D01*
X84277380Y-104745357D01*
X85229761Y-104402500D02*
X85277380Y-104288214D01*
X85277380Y-104097738D01*
X85229761Y-104021547D01*
X85182142Y-103983452D01*
X85086904Y-103945357D01*
X84991666Y-103945357D01*
X84896428Y-103983452D01*
X84848809Y-104021547D01*
X84801190Y-104097738D01*
X84753571Y-104250119D01*
X84705952Y-104326309D01*
X84658333Y-104364404D01*
X84563095Y-104402500D01*
X84467857Y-104402500D01*
X84372619Y-104364404D01*
X84325000Y-104326309D01*
X84277380Y-104250119D01*
X84277380Y-104059642D01*
X84325000Y-103945357D01*
X85182142Y-102535833D02*
X85229761Y-102573928D01*
X85277380Y-102688214D01*
X85277380Y-102764404D01*
X85229761Y-102878690D01*
X85134523Y-102954880D01*
X85039285Y-102992976D01*
X84848809Y-103031071D01*
X84705952Y-103031071D01*
X84515476Y-102992976D01*
X84420238Y-102954880D01*
X84325000Y-102878690D01*
X84277380Y-102764404D01*
X84277380Y-102688214D01*
X84325000Y-102573928D01*
X84372619Y-102535833D01*
X84277380Y-102040595D02*
X84277380Y-101888214D01*
X84325000Y-101812023D01*
X84420238Y-101735833D01*
X84610714Y-101697738D01*
X84944047Y-101697738D01*
X85134523Y-101735833D01*
X85229761Y-101812023D01*
X85277380Y-101888214D01*
X85277380Y-102040595D01*
X85229761Y-102116785D01*
X85134523Y-102192976D01*
X84944047Y-102231071D01*
X84610714Y-102231071D01*
X84420238Y-102192976D01*
X84325000Y-102116785D01*
X84277380Y-102040595D01*
X85277380Y-101354880D02*
X84277380Y-101354880D01*
X84991666Y-101088214D01*
X84277380Y-100821547D01*
X85277380Y-100821547D01*
X85277380Y-100440595D02*
X84277380Y-100440595D01*
X84277380Y-100135833D01*
X84325000Y-100059642D01*
X84372619Y-100021547D01*
X84467857Y-99983452D01*
X84610714Y-99983452D01*
X84705952Y-100021547D01*
X84753571Y-100059642D01*
X84801190Y-100135833D01*
X84801190Y-100440595D01*
X84991666Y-99678690D02*
X84991666Y-99297738D01*
X85277380Y-99754880D02*
X84277380Y-99488214D01*
X85277380Y-99221547D01*
X84277380Y-99069166D02*
X84277380Y-98612023D01*
X85277380Y-98840595D02*
X84277380Y-98840595D01*
X85277380Y-98345357D02*
X84277380Y-98345357D01*
X84753571Y-97697738D02*
X84801190Y-97583452D01*
X84848809Y-97545357D01*
X84944047Y-97507261D01*
X85086904Y-97507261D01*
X85182142Y-97545357D01*
X85229761Y-97583452D01*
X85277380Y-97659642D01*
X85277380Y-97964404D01*
X84277380Y-97964404D01*
X84277380Y-97697738D01*
X84325000Y-97621547D01*
X84372619Y-97583452D01*
X84467857Y-97545357D01*
X84563095Y-97545357D01*
X84658333Y-97583452D01*
X84705952Y-97621547D01*
X84753571Y-97697738D01*
X84753571Y-97964404D01*
X85277380Y-96783452D02*
X85277380Y-97164404D01*
X84277380Y-97164404D01*
X84753571Y-96516785D02*
X84753571Y-96250119D01*
X85277380Y-96135833D02*
X85277380Y-96516785D01*
X84277380Y-96516785D01*
X84277380Y-96135833D01*
X85277380Y-95183452D02*
X84277380Y-95183452D01*
X84991666Y-94916785D01*
X84277380Y-94650119D01*
X85277380Y-94650119D01*
X84277380Y-94116785D02*
X84277380Y-93964404D01*
X84325000Y-93888214D01*
X84420238Y-93812023D01*
X84610714Y-93773928D01*
X84944047Y-93773928D01*
X85134523Y-93812023D01*
X85229761Y-93888214D01*
X85277380Y-93964404D01*
X85277380Y-94116785D01*
X85229761Y-94192976D01*
X85134523Y-94269166D01*
X84944047Y-94307261D01*
X84610714Y-94307261D01*
X84420238Y-94269166D01*
X84325000Y-94192976D01*
X84277380Y-94116785D01*
X84277380Y-93545357D02*
X84277380Y-93088214D01*
X85277380Y-93316785D02*
X84277380Y-93316785D01*
X84277380Y-92669166D02*
X84277380Y-92516785D01*
X84325000Y-92440595D01*
X84420238Y-92364404D01*
X84610714Y-92326309D01*
X84944047Y-92326309D01*
X85134523Y-92364404D01*
X85229761Y-92440595D01*
X85277380Y-92516785D01*
X85277380Y-92669166D01*
X85229761Y-92745357D01*
X85134523Y-92821547D01*
X84944047Y-92859642D01*
X84610714Y-92859642D01*
X84420238Y-92821547D01*
X84325000Y-92745357D01*
X84277380Y-92669166D01*
X85277380Y-91526309D02*
X84801190Y-91792976D01*
X85277380Y-91983452D02*
X84277380Y-91983452D01*
X84277380Y-91678690D01*
X84325000Y-91602500D01*
X84372619Y-91564404D01*
X84467857Y-91526309D01*
X84610714Y-91526309D01*
X84705952Y-91564404D01*
X84753571Y-91602500D01*
X84801190Y-91678690D01*
X84801190Y-91983452D01*
X85229761Y-91221547D02*
X85277380Y-91107261D01*
X85277380Y-90916785D01*
X85229761Y-90840595D01*
X85182142Y-90802500D01*
X85086904Y-90764404D01*
X84991666Y-90764404D01*
X84896428Y-90802500D01*
X84848809Y-90840595D01*
X84801190Y-90916785D01*
X84753571Y-91069166D01*
X84705952Y-91145357D01*
X84658333Y-91183452D01*
X84563095Y-91221547D01*
X84467857Y-91221547D01*
X84372619Y-91183452D01*
X84325000Y-91145357D01*
X84277380Y-91069166D01*
X84277380Y-90878690D01*
X84325000Y-90764404D01*
X66904761Y-110214285D02*
X66952380Y-110071428D01*
X66952380Y-109833333D01*
X66904761Y-109738095D01*
X66857142Y-109690476D01*
X66761904Y-109642857D01*
X66666666Y-109642857D01*
X66571428Y-109690476D01*
X66523809Y-109738095D01*
X66476190Y-109833333D01*
X66428571Y-110023809D01*
X66380952Y-110119047D01*
X66333333Y-110166666D01*
X66238095Y-110214285D01*
X66142857Y-110214285D01*
X66047619Y-110166666D01*
X66000000Y-110119047D01*
X65952380Y-110023809D01*
X65952380Y-109785714D01*
X66000000Y-109642857D01*
X66952380Y-109214285D02*
X65952380Y-109214285D01*
X65952380Y-108976190D01*
X66000000Y-108833333D01*
X66095238Y-108738095D01*
X66190476Y-108690476D01*
X66380952Y-108642857D01*
X66523809Y-108642857D01*
X66714285Y-108690476D01*
X66809523Y-108738095D01*
X66904761Y-108833333D01*
X66952380Y-108976190D01*
X66952380Y-109214285D01*
X66666666Y-108261904D02*
X66666666Y-107785714D01*
X66952380Y-108357142D02*
X65952380Y-108023809D01*
X66952380Y-107690476D01*
X57500000Y-108261904D02*
X57452380Y-108357142D01*
X57452380Y-108500000D01*
X57500000Y-108642857D01*
X57595238Y-108738095D01*
X57690476Y-108785714D01*
X57880952Y-108833333D01*
X58023809Y-108833333D01*
X58214285Y-108785714D01*
X58309523Y-108738095D01*
X58404761Y-108642857D01*
X58452380Y-108500000D01*
X58452380Y-108404761D01*
X58404761Y-108261904D01*
X58357142Y-108214285D01*
X58023809Y-108214285D01*
X58023809Y-108404761D01*
X58452380Y-107785714D02*
X57452380Y-107785714D01*
X58452380Y-107214285D01*
X57452380Y-107214285D01*
X58452380Y-106738095D02*
X57452380Y-106738095D01*
X57452380Y-106500000D01*
X57500000Y-106357142D01*
X57595238Y-106261904D01*
X57690476Y-106214285D01*
X57880952Y-106166666D01*
X58023809Y-106166666D01*
X58214285Y-106214285D01*
X58309523Y-106261904D01*
X58404761Y-106357142D01*
X58452380Y-106500000D01*
X58452380Y-106738095D01*
X57452380Y-110690476D02*
X57452380Y-111166666D01*
X57928571Y-111214285D01*
X57880952Y-111166666D01*
X57833333Y-111071428D01*
X57833333Y-110833333D01*
X57880952Y-110738095D01*
X57928571Y-110690476D01*
X58023809Y-110642857D01*
X58261904Y-110642857D01*
X58357142Y-110690476D01*
X58404761Y-110738095D01*
X58452380Y-110833333D01*
X58452380Y-111071428D01*
X58404761Y-111166666D01*
X58357142Y-111214285D01*
X57452380Y-110357142D02*
X58452380Y-110023809D01*
X57452380Y-109690476D01*
X58452380Y-114119047D02*
X58452380Y-114690476D01*
X58452380Y-114404761D02*
X57452380Y-114404761D01*
X57595238Y-114500000D01*
X57690476Y-114595238D01*
X57738095Y-114690476D01*
X57547619Y-113738095D02*
X57500000Y-113690476D01*
X57452380Y-113595238D01*
X57452380Y-113357142D01*
X57500000Y-113261904D01*
X57547619Y-113214285D01*
X57642857Y-113166666D01*
X57738095Y-113166666D01*
X57880952Y-113214285D01*
X58452380Y-113785714D01*
X58452380Y-113166666D01*
X57452380Y-112880952D02*
X58452380Y-112547619D01*
X57452380Y-112214285D01*
D10*
X68793679Y-115887461D02*
G75*
G02X74500000Y-112500000I5706321J-3112539D01*
G01*
X69904854Y-115936568D02*
G75*
G02X74000001Y-113500001I4595146J-3063432D01*
G01*
X71000001Y-116000001D02*
G75*
G02X73500001Y-114500001I3499999J-2999999D01*
G01*
X70500000Y-117000000D02*
X72000000Y-117000000D01*
X73500000Y-117000000D02*
X75000000Y-117000000D01*
X72000000Y-118000000D02*
X72000000Y-116000000D01*
X72000000Y-117000000D02*
X73500000Y-118000000D01*
X73500000Y-116000000D02*
X72000000Y-117000000D01*
X73500000Y-118000000D02*
X73500000Y-116000000D01*
X80000000Y-83000000D02*
G75*
G02X80500000Y-83500000I0J-500000D01*
G01*
X82500000Y-83500000D02*
G75*
G02X83000000Y-83000000I500000J0D01*
G01*
X80500000Y-88500000D02*
G75*
G02X80000000Y-89000000I-500000J0D01*
G01*
X83000000Y-89000000D02*
G75*
G02X82500000Y-88500000I0J500000D01*
G01*
X80500000Y-88500000D02*
X80500000Y-83500000D01*
X82500000Y-88500000D02*
X82500000Y-83500000D01*
X52500000Y-83000000D02*
G75*
G02X53000000Y-83500000I0J-500000D01*
G01*
X55000000Y-83500000D02*
G75*
G02X55500000Y-83000000I500000J0D01*
G01*
X53000000Y-88500000D02*
G75*
G02X52500000Y-89000000I-500000J0D01*
G01*
X55500000Y-89000000D02*
G75*
G02X55000000Y-88500000I0J500000D01*
G01*
X53000000Y-88500000D02*
X53000000Y-83500000D01*
X55000000Y-88500000D02*
X55000000Y-83500000D01*
X110000000Y-88500000D02*
X110000000Y-83500000D01*
X108000000Y-88500000D02*
X108000000Y-83500000D01*
X110500000Y-89000000D02*
G75*
G02X110000000Y-88500000I0J500000D01*
G01*
X108000000Y-88500000D02*
G75*
G02X107500000Y-89000000I-500000J0D01*
G01*
X110000000Y-83500000D02*
G75*
G02X110500000Y-83000000I500000J0D01*
G01*
X107500000Y-83000000D02*
G75*
G02X108000000Y-83500000I0J-500000D01*
G01*
X109750000Y-58250000D02*
X108750000Y-57250000D01*
X109750000Y-66250000D02*
X108750000Y-67250000D01*
X109750000Y-58250000D02*
X109750000Y-66250000D01*
X53250000Y-113750000D02*
X54250000Y-114750000D01*
X53250000Y-105750000D02*
X54250000Y-104750000D01*
X53250000Y-113750000D02*
X53250000Y-105750000D01*
X106750000Y-79000000D02*
X107750000Y-78000000D01*
X98750000Y-79000000D02*
X97750000Y-78000000D01*
X106750000Y-79000000D02*
X98750000Y-79000000D01*
X56250000Y-93000000D02*
X55250000Y-94000000D01*
X64250000Y-93000000D02*
X65250000Y-94000000D01*
X56250000Y-93000000D02*
X64250000Y-93000000D01*
D12*
X50730000Y-42770000D02*
X50730000Y-78330000D01*
X50730000Y-78330000D02*
X53270000Y-78330000D01*
X53270000Y-78330000D02*
X53270000Y-42770000D01*
X53550000Y-39950000D02*
X53550000Y-41500000D01*
X53270000Y-42770000D02*
X50730000Y-42770000D01*
X50450000Y-41500000D02*
X50450000Y-39950000D01*
X50450000Y-39950000D02*
X53550000Y-39950000D01*
X73590000Y-78330000D02*
X76130000Y-78330000D01*
X73590000Y-40230000D02*
X73590000Y-78330000D01*
X76130000Y-40230000D02*
X73590000Y-40230000D01*
X76130000Y-78330000D02*
X76130000Y-40230000D01*
D10*
X63610000Y-67400000D02*
X63610000Y-65600000D01*
X60390000Y-65600000D02*
X60390000Y-68050000D01*
X60210000Y-72713748D02*
X60210000Y-73236252D01*
X58790000Y-72713748D02*
X58790000Y-73236252D01*
X65410000Y-72372936D02*
X65410000Y-73577064D01*
X63590000Y-72372936D02*
X63590000Y-73577064D01*
D15*
X82000000Y-79300000D02*
X82000000Y-83000000D01*
X82000000Y-83000000D02*
X92000000Y-83000000D01*
X92000000Y-83000000D02*
X92000000Y-79200000D01*
X82000000Y-75900000D02*
X82000000Y-74500000D01*
X82000000Y-71200000D02*
X82000000Y-70000000D01*
X82000000Y-70000000D02*
X85650000Y-70000000D01*
X88350000Y-70000000D02*
X92000000Y-70000000D01*
X92000000Y-70000000D02*
X92000000Y-71200000D01*
X92000000Y-75900000D02*
X92000000Y-74400000D01*
D14*
X87050000Y-69150000D02*
G75*
G03X87050000Y-69150000I-100000J0D01*
G01*
D10*
X102950000Y-64500000D02*
G75*
G03X102950000Y-64500000I-950000J0D01*
G01*
X100450000Y-63000000D02*
G75*
G03X100450000Y-63000000I-950000J0D01*
G01*
X102950000Y-61500000D02*
G75*
G03X102950000Y-61500000I-950000J0D01*
G01*
X100450000Y-60000000D02*
G75*
G03X100450000Y-60000000I-950000J0D01*
G01*
X102950000Y-58500000D02*
G75*
G03X102950000Y-58500000I-950000J0D01*
G01*
X86290000Y-50303922D02*
X86290000Y-50821078D01*
X87710000Y-50303922D02*
X87710000Y-50821078D01*
X81290000Y-50303922D02*
X81290000Y-50821078D01*
X82710000Y-50303922D02*
X82710000Y-50821078D01*
X89897936Y-66340000D02*
X91102064Y-66340000D01*
X89897936Y-68160000D02*
X91102064Y-68160000D01*
X84111846Y-56026993D02*
X82230942Y-57907897D01*
X89542426Y-61457573D02*
X84111846Y-56026993D01*
X87661522Y-63338477D02*
X82230942Y-57907897D01*
X89542426Y-61457573D02*
X87661522Y-63338477D01*
X90440452Y-62355599D02*
X91380904Y-63296051D01*
X91380904Y-63296051D02*
X90440452Y-64236503D01*
D14*
X76150000Y-102850000D02*
G75*
G03X76150000Y-102850000I-100000J0D01*
G01*
D15*
X71000000Y-96100000D02*
X71000000Y-97600000D01*
X71000000Y-102000000D02*
X71000000Y-100800000D01*
X74650000Y-102000000D02*
X71000000Y-102000000D01*
X81000000Y-102000000D02*
X77350000Y-102000000D01*
X81000000Y-100800000D02*
X81000000Y-102000000D01*
X81000000Y-96100000D02*
X81000000Y-97500000D01*
X71000000Y-89000000D02*
X71000000Y-92800000D01*
X81000000Y-89000000D02*
X71000000Y-89000000D01*
X81000000Y-92700000D02*
X81000000Y-89000000D01*
D10*
X61950000Y-110500000D02*
G75*
G03X61950000Y-110500000I-950000J0D01*
G01*
X61950000Y-107500000D02*
G75*
G03X61950000Y-107500000I-950000J0D01*
G01*
X73102064Y-103840000D02*
X71897936Y-103840000D01*
X73102064Y-105660000D02*
X71897936Y-105660000D01*
X99410000Y-99627064D02*
X99410000Y-98422936D01*
X97590000Y-99627064D02*
X97590000Y-98422936D01*
D12*
X112270000Y-129230000D02*
X112270000Y-93670000D01*
X112270000Y-93670000D02*
X109730000Y-93670000D01*
X109730000Y-93670000D02*
X109730000Y-129230000D01*
X109450000Y-132050000D02*
X109450000Y-130500000D01*
X109730000Y-129230000D02*
X112270000Y-129230000D01*
X112550000Y-130500000D02*
X112550000Y-132050000D01*
X112550000Y-132050000D02*
X109450000Y-132050000D01*
X89410000Y-93670000D02*
X86870000Y-93670000D01*
X89410000Y-131770000D02*
X89410000Y-93670000D01*
X86870000Y-131770000D02*
X89410000Y-131770000D01*
X86870000Y-93670000D02*
X86870000Y-131770000D01*
D10*
X71619096Y-108703949D02*
X72559548Y-107763497D01*
X72559548Y-109644401D02*
X71619096Y-108703949D01*
X73457574Y-110542427D02*
X75338478Y-108661523D01*
X75338478Y-108661523D02*
X80769058Y-114092103D01*
X73457574Y-110542427D02*
X78888154Y-115973007D01*
X78888154Y-115973007D02*
X80769058Y-114092103D01*
X64450000Y-109000000D02*
G75*
G03X64450000Y-109000000I-950000J0D01*
G01*
X64450000Y-112000000D02*
G75*
G03X64450000Y-112000000I-950000J0D01*
G01*
X61950000Y-113500000D02*
G75*
G03X61950000Y-113500000I-950000J0D01*
G01*
X102610000Y-106400000D02*
X102610000Y-103950000D01*
X99390000Y-104600000D02*
X99390000Y-106400000D01*
X75290000Y-121696078D02*
X75290000Y-121178922D01*
X76710000Y-121696078D02*
X76710000Y-121178922D01*
X80290000Y-121696078D02*
X80290000Y-121178922D01*
X81710000Y-121696078D02*
X81710000Y-121178922D01*
X104210000Y-99286252D02*
X104210000Y-98763748D01*
X102790000Y-99286252D02*
X102790000Y-98763748D01*
D12*
X103702380Y-55583333D02*
X104416666Y-55583333D01*
X104559523Y-55630952D01*
X104654761Y-55726190D01*
X104702380Y-55869047D01*
X104702380Y-55964285D01*
X103702380Y-55202380D02*
X103702380Y-54583333D01*
X104083333Y-54916666D01*
X104083333Y-54773809D01*
X104130952Y-54678571D01*
X104178571Y-54630952D01*
X104273809Y-54583333D01*
X104511904Y-54583333D01*
X104607142Y-54630952D01*
X104654761Y-54678571D01*
X104702380Y-54773809D01*
X104702380Y-55059523D01*
X104654761Y-55154761D01*
X104607142Y-55202380D01*
X58202380Y-117083333D02*
X58916666Y-117083333D01*
X59059523Y-117130952D01*
X59154761Y-117226190D01*
X59202380Y-117369047D01*
X59202380Y-117464285D01*
X58202380Y-116702380D02*
X58202380Y-116083333D01*
X58583333Y-116416666D01*
X58583333Y-116273809D01*
X58630952Y-116178571D01*
X58678571Y-116130952D01*
X58773809Y-116083333D01*
X59011904Y-116083333D01*
X59107142Y-116130952D01*
X59154761Y-116178571D01*
X59202380Y-116273809D01*
X59202380Y-116559523D01*
X59154761Y-116654761D01*
X59107142Y-116702380D01*
X103016666Y-73752380D02*
X103016666Y-74466666D01*
X102969047Y-74609523D01*
X102873809Y-74704761D01*
X102730952Y-74752380D01*
X102635714Y-74752380D01*
X103445238Y-73847619D02*
X103492857Y-73800000D01*
X103588095Y-73752380D01*
X103826190Y-73752380D01*
X103921428Y-73800000D01*
X103969047Y-73847619D01*
X104016666Y-73942857D01*
X104016666Y-74038095D01*
X103969047Y-74180952D01*
X103397619Y-74752380D01*
X104016666Y-74752380D01*
X59316666Y-97152380D02*
X59316666Y-97866666D01*
X59269047Y-98009523D01*
X59173809Y-98104761D01*
X59030952Y-98152380D01*
X58935714Y-98152380D01*
X59745238Y-97247619D02*
X59792857Y-97200000D01*
X59888095Y-97152380D01*
X60126190Y-97152380D01*
X60221428Y-97200000D01*
X60269047Y-97247619D01*
X60316666Y-97342857D01*
X60316666Y-97438095D01*
X60269047Y-97580952D01*
X59697619Y-98152380D01*
X60316666Y-98152380D01*
X68952380Y-79761904D02*
X69761904Y-79761904D01*
X69857142Y-79714285D01*
X69904761Y-79666666D01*
X69952380Y-79571428D01*
X69952380Y-79380952D01*
X69904761Y-79285714D01*
X69857142Y-79238095D01*
X69761904Y-79190476D01*
X68952380Y-79190476D01*
X69047619Y-78761904D02*
X69000000Y-78714285D01*
X68952380Y-78619047D01*
X68952380Y-78380952D01*
X69000000Y-78285714D01*
X69047619Y-78238095D01*
X69142857Y-78190476D01*
X69238095Y-78190476D01*
X69380952Y-78238095D01*
X69952380Y-78809523D01*
X69952380Y-78190476D01*
X58552380Y-67261904D02*
X59361904Y-67261904D01*
X59457142Y-67214285D01*
X59504761Y-67166666D01*
X59552380Y-67071428D01*
X59552380Y-66880952D01*
X59504761Y-66785714D01*
X59457142Y-66738095D01*
X59361904Y-66690476D01*
X58552380Y-66690476D01*
X59552380Y-65690476D02*
X59552380Y-66261904D01*
X59552380Y-65976190D02*
X58552380Y-65976190D01*
X58695238Y-66071428D01*
X58790476Y-66166666D01*
X58838095Y-66261904D01*
X61507142Y-73141666D02*
X61554761Y-73189285D01*
X61602380Y-73332142D01*
X61602380Y-73427380D01*
X61554761Y-73570238D01*
X61459523Y-73665476D01*
X61364285Y-73713095D01*
X61173809Y-73760714D01*
X61030952Y-73760714D01*
X60840476Y-73713095D01*
X60745238Y-73665476D01*
X60650000Y-73570238D01*
X60602380Y-73427380D01*
X60602380Y-73332142D01*
X60650000Y-73189285D01*
X60697619Y-73141666D01*
X60697619Y-72760714D02*
X60650000Y-72713095D01*
X60602380Y-72617857D01*
X60602380Y-72379761D01*
X60650000Y-72284523D01*
X60697619Y-72236904D01*
X60792857Y-72189285D01*
X60888095Y-72189285D01*
X61030952Y-72236904D01*
X61602380Y-72808333D01*
X61602380Y-72189285D01*
X66677142Y-73141666D02*
X66724761Y-73189285D01*
X66772380Y-73332142D01*
X66772380Y-73427380D01*
X66724761Y-73570238D01*
X66629523Y-73665476D01*
X66534285Y-73713095D01*
X66343809Y-73760714D01*
X66200952Y-73760714D01*
X66010476Y-73713095D01*
X65915238Y-73665476D01*
X65820000Y-73570238D01*
X65772380Y-73427380D01*
X65772380Y-73332142D01*
X65820000Y-73189285D01*
X65867619Y-73141666D01*
X66772380Y-72189285D02*
X66772380Y-72760714D01*
X66772380Y-72475000D02*
X65772380Y-72475000D01*
X65915238Y-72570238D01*
X66010476Y-72665476D01*
X66058095Y-72760714D01*
X92952380Y-75833333D02*
X93666666Y-75833333D01*
X93809523Y-75880952D01*
X93904761Y-75976190D01*
X93952380Y-76119047D01*
X93952380Y-76214285D01*
X93952380Y-74833333D02*
X93952380Y-75404761D01*
X93952380Y-75119047D02*
X92952380Y-75119047D01*
X93095238Y-75214285D01*
X93190476Y-75309523D01*
X93238095Y-75404761D01*
X103100380Y-65761904D02*
X103100380Y-65190476D01*
X104100380Y-65476190D02*
X103100380Y-65476190D01*
X104100380Y-64857142D02*
X103100380Y-64857142D01*
X103100380Y-64476190D01*
X103148000Y-64380952D01*
X103195619Y-64333333D01*
X103290857Y-64285714D01*
X103433714Y-64285714D01*
X103528952Y-64333333D01*
X103576571Y-64380952D01*
X103624190Y-64476190D01*
X103624190Y-64857142D01*
X104100380Y-63333333D02*
X104100380Y-63904761D01*
X104100380Y-63619047D02*
X103100380Y-63619047D01*
X103243238Y-63714285D01*
X103338476Y-63809523D01*
X103386095Y-63904761D01*
X97304380Y-64261904D02*
X97304380Y-63690476D01*
X98304380Y-63976190D02*
X97304380Y-63976190D01*
X98304380Y-63357142D02*
X97304380Y-63357142D01*
X97304380Y-62976190D01*
X97352000Y-62880952D01*
X97399619Y-62833333D01*
X97494857Y-62785714D01*
X97637714Y-62785714D01*
X97732952Y-62833333D01*
X97780571Y-62880952D01*
X97828190Y-62976190D01*
X97828190Y-63357142D01*
X97304380Y-61880952D02*
X97304380Y-62357142D01*
X97780571Y-62404761D01*
X97732952Y-62357142D01*
X97685333Y-62261904D01*
X97685333Y-62023809D01*
X97732952Y-61928571D01*
X97780571Y-61880952D01*
X97875809Y-61833333D01*
X98113904Y-61833333D01*
X98209142Y-61880952D01*
X98256761Y-61928571D01*
X98304380Y-62023809D01*
X98304380Y-62261904D01*
X98256761Y-62357142D01*
X98209142Y-62404761D01*
X103100380Y-62761904D02*
X103100380Y-62190476D01*
X104100380Y-62476190D02*
X103100380Y-62476190D01*
X104100380Y-61857142D02*
X103100380Y-61857142D01*
X103100380Y-61476190D01*
X103148000Y-61380952D01*
X103195619Y-61333333D01*
X103290857Y-61285714D01*
X103433714Y-61285714D01*
X103528952Y-61333333D01*
X103576571Y-61380952D01*
X103624190Y-61476190D01*
X103624190Y-61857142D01*
X103195619Y-60904761D02*
X103148000Y-60857142D01*
X103100380Y-60761904D01*
X103100380Y-60523809D01*
X103148000Y-60428571D01*
X103195619Y-60380952D01*
X103290857Y-60333333D01*
X103386095Y-60333333D01*
X103528952Y-60380952D01*
X104100380Y-60952380D01*
X104100380Y-60333333D01*
X97304380Y-61261904D02*
X97304380Y-60690476D01*
X98304380Y-60976190D02*
X97304380Y-60976190D01*
X98304380Y-60357142D02*
X97304380Y-60357142D01*
X97304380Y-59976190D01*
X97352000Y-59880952D01*
X97399619Y-59833333D01*
X97494857Y-59785714D01*
X97637714Y-59785714D01*
X97732952Y-59833333D01*
X97780571Y-59880952D01*
X97828190Y-59976190D01*
X97828190Y-60357142D01*
X97637714Y-58928571D02*
X98304380Y-58928571D01*
X97256761Y-59166666D02*
X97971047Y-59404761D01*
X97971047Y-58785714D01*
X103100380Y-59761904D02*
X103100380Y-59190476D01*
X104100380Y-59476190D02*
X103100380Y-59476190D01*
X104100380Y-58857142D02*
X103100380Y-58857142D01*
X103100380Y-58476190D01*
X103148000Y-58380952D01*
X103195619Y-58333333D01*
X103290857Y-58285714D01*
X103433714Y-58285714D01*
X103528952Y-58333333D01*
X103576571Y-58380952D01*
X103624190Y-58476190D01*
X103624190Y-58857142D01*
X103100380Y-57952380D02*
X103100380Y-57333333D01*
X103481333Y-57666666D01*
X103481333Y-57523809D01*
X103528952Y-57428571D01*
X103576571Y-57380952D01*
X103671809Y-57333333D01*
X103909904Y-57333333D01*
X104005142Y-57380952D01*
X104052761Y-57428571D01*
X104100380Y-57523809D01*
X104100380Y-57809523D01*
X104052761Y-57904761D01*
X104005142Y-57952380D01*
X100952380Y-49761904D02*
X99952380Y-49761904D01*
X100428571Y-49761904D02*
X100428571Y-49190476D01*
X100952380Y-49190476D02*
X99952380Y-49190476D01*
X100952380Y-48190476D02*
X100952380Y-48761904D01*
X100952380Y-48476190D02*
X99952380Y-48476190D01*
X100095238Y-48571428D01*
X100190476Y-48666666D01*
X100238095Y-48761904D01*
X110952380Y-49761904D02*
X109952380Y-49761904D01*
X110428571Y-49761904D02*
X110428571Y-49190476D01*
X110952380Y-49190476D02*
X109952380Y-49190476D01*
X110047619Y-48761904D02*
X110000000Y-48714285D01*
X109952380Y-48619047D01*
X109952380Y-48380952D01*
X110000000Y-48285714D01*
X110047619Y-48238095D01*
X110142857Y-48190476D01*
X110238095Y-48190476D01*
X110380952Y-48238095D01*
X110952380Y-48809523D01*
X110952380Y-48190476D01*
X89102380Y-50729166D02*
X88626190Y-51062500D01*
X89102380Y-51300595D02*
X88102380Y-51300595D01*
X88102380Y-50919642D01*
X88150000Y-50824404D01*
X88197619Y-50776785D01*
X88292857Y-50729166D01*
X88435714Y-50729166D01*
X88530952Y-50776785D01*
X88578571Y-50824404D01*
X88626190Y-50919642D01*
X88626190Y-51300595D01*
X88102380Y-50395833D02*
X88102380Y-49776785D01*
X88483333Y-50110119D01*
X88483333Y-49967261D01*
X88530952Y-49872023D01*
X88578571Y-49824404D01*
X88673809Y-49776785D01*
X88911904Y-49776785D01*
X89007142Y-49824404D01*
X89054761Y-49872023D01*
X89102380Y-49967261D01*
X89102380Y-50252976D01*
X89054761Y-50348214D01*
X89007142Y-50395833D01*
X84102380Y-50729166D02*
X83626190Y-51062500D01*
X84102380Y-51300595D02*
X83102380Y-51300595D01*
X83102380Y-50919642D01*
X83150000Y-50824404D01*
X83197619Y-50776785D01*
X83292857Y-50729166D01*
X83435714Y-50729166D01*
X83530952Y-50776785D01*
X83578571Y-50824404D01*
X83626190Y-50919642D01*
X83626190Y-51300595D01*
X83197619Y-50348214D02*
X83150000Y-50300595D01*
X83102380Y-50205357D01*
X83102380Y-49967261D01*
X83150000Y-49872023D01*
X83197619Y-49824404D01*
X83292857Y-49776785D01*
X83388095Y-49776785D01*
X83530952Y-49824404D01*
X84102380Y-50395833D01*
X84102380Y-49776785D01*
X90166666Y-68928571D02*
X89833333Y-68928571D01*
X89833333Y-69452380D02*
X89833333Y-68452380D01*
X90309523Y-68452380D01*
X91214285Y-69452380D02*
X90642857Y-69452380D01*
X90928571Y-69452380D02*
X90928571Y-68452380D01*
X90833333Y-68595238D01*
X90738095Y-68690476D01*
X90642857Y-68738095D01*
X84877071Y-55348477D02*
X85382147Y-55853553D01*
X85449491Y-55988240D01*
X85449491Y-56122927D01*
X85382147Y-56257614D01*
X85314804Y-56324957D01*
X85752537Y-54944416D02*
X86223941Y-55415820D01*
X85314804Y-54843400D02*
X85651521Y-55516835D01*
X86089254Y-55079103D01*
X68952380Y-96833333D02*
X69666666Y-96833333D01*
X69809523Y-96880952D01*
X69904761Y-96976190D01*
X69952380Y-97119047D01*
X69952380Y-97214285D01*
X69952380Y-95833333D02*
X69952380Y-96404761D01*
X69952380Y-96119047D02*
X68952380Y-96119047D01*
X69095238Y-96214285D01*
X69190476Y-96309523D01*
X69238095Y-96404761D01*
X58804380Y-111761904D02*
X58804380Y-111190476D01*
X59804380Y-111476190D02*
X58804380Y-111476190D01*
X59804380Y-110857142D02*
X58804380Y-110857142D01*
X58804380Y-110476190D01*
X58852000Y-110380952D01*
X58899619Y-110333333D01*
X58994857Y-110285714D01*
X59137714Y-110285714D01*
X59232952Y-110333333D01*
X59280571Y-110380952D01*
X59328190Y-110476190D01*
X59328190Y-110857142D01*
X58899619Y-109904761D02*
X58852000Y-109857142D01*
X58804380Y-109761904D01*
X58804380Y-109523809D01*
X58852000Y-109428571D01*
X58899619Y-109380952D01*
X58994857Y-109333333D01*
X59090095Y-109333333D01*
X59232952Y-109380952D01*
X59804380Y-109952380D01*
X59804380Y-109333333D01*
X58804380Y-108761904D02*
X58804380Y-108190476D01*
X59804380Y-108476190D02*
X58804380Y-108476190D01*
X59804380Y-107857142D02*
X58804380Y-107857142D01*
X58804380Y-107476190D01*
X58852000Y-107380952D01*
X58899619Y-107333333D01*
X58994857Y-107285714D01*
X59137714Y-107285714D01*
X59232952Y-107333333D01*
X59280571Y-107380952D01*
X59328190Y-107476190D01*
X59328190Y-107857142D01*
X59804380Y-106333333D02*
X59804380Y-106904761D01*
X59804380Y-106619047D02*
X58804380Y-106619047D01*
X58947238Y-106714285D01*
X59042476Y-106809523D01*
X59090095Y-106904761D01*
X72166666Y-102928571D02*
X71833333Y-102928571D01*
X71833333Y-103452380D02*
X71833333Y-102452380D01*
X72309523Y-102452380D01*
X73214285Y-103452380D02*
X72642857Y-103452380D01*
X72928571Y-103452380D02*
X72928571Y-102452380D01*
X72833333Y-102595238D01*
X72738095Y-102690476D01*
X72642857Y-102738095D01*
X97037142Y-99191666D02*
X97084761Y-99239285D01*
X97132380Y-99382142D01*
X97132380Y-99477380D01*
X97084761Y-99620238D01*
X96989523Y-99715476D01*
X96894285Y-99763095D01*
X96703809Y-99810714D01*
X96560952Y-99810714D01*
X96370476Y-99763095D01*
X96275238Y-99715476D01*
X96180000Y-99620238D01*
X96132380Y-99477380D01*
X96132380Y-99382142D01*
X96180000Y-99239285D01*
X96227619Y-99191666D01*
X97132380Y-98239285D02*
X97132380Y-98810714D01*
X97132380Y-98525000D02*
X96132380Y-98525000D01*
X96275238Y-98620238D01*
X96370476Y-98715476D01*
X96418095Y-98810714D01*
X92952380Y-93761904D02*
X93761904Y-93761904D01*
X93857142Y-93714285D01*
X93904761Y-93666666D01*
X93952380Y-93571428D01*
X93952380Y-93380952D01*
X93904761Y-93285714D01*
X93857142Y-93238095D01*
X93761904Y-93190476D01*
X92952380Y-93190476D01*
X93047619Y-92761904D02*
X93000000Y-92714285D01*
X92952380Y-92619047D01*
X92952380Y-92380952D01*
X93000000Y-92285714D01*
X93047619Y-92238095D01*
X93142857Y-92190476D01*
X93238095Y-92190476D01*
X93380952Y-92238095D01*
X93952380Y-92809523D01*
X93952380Y-92190476D01*
X76877073Y-116348477D02*
X77382149Y-116853553D01*
X77449493Y-116988240D01*
X77449493Y-117122927D01*
X77382149Y-117257614D01*
X77314806Y-117324957D01*
X77752539Y-115944416D02*
X78223943Y-116415820D01*
X77314806Y-115843400D02*
X77651523Y-116516835D01*
X78089256Y-116079103D01*
X52952380Y-123761904D02*
X51952380Y-123761904D01*
X52428571Y-123761904D02*
X52428571Y-123190476D01*
X52952380Y-123190476D02*
X51952380Y-123190476D01*
X52047619Y-122761904D02*
X52000000Y-122714285D01*
X51952380Y-122619047D01*
X51952380Y-122380952D01*
X52000000Y-122285714D01*
X52047619Y-122238095D01*
X52142857Y-122190476D01*
X52238095Y-122190476D01*
X52380952Y-122238095D01*
X52952380Y-122809523D01*
X52952380Y-122190476D01*
X62952380Y-123761904D02*
X61952380Y-123761904D01*
X62428571Y-123761904D02*
X62428571Y-123190476D01*
X62952380Y-123190476D02*
X61952380Y-123190476D01*
X62952380Y-122190476D02*
X62952380Y-122761904D01*
X62952380Y-122476190D02*
X61952380Y-122476190D01*
X62095238Y-122571428D01*
X62190476Y-122666666D01*
X62238095Y-122761904D01*
X64600380Y-110261904D02*
X64600380Y-109690476D01*
X65600380Y-109976190D02*
X64600380Y-109976190D01*
X65600380Y-109357142D02*
X64600380Y-109357142D01*
X64600380Y-108976190D01*
X64648000Y-108880952D01*
X64695619Y-108833333D01*
X64790857Y-108785714D01*
X64933714Y-108785714D01*
X65028952Y-108833333D01*
X65076571Y-108880952D01*
X65124190Y-108976190D01*
X65124190Y-109357142D01*
X64600380Y-107880952D02*
X64600380Y-108357142D01*
X65076571Y-108404761D01*
X65028952Y-108357142D01*
X64981333Y-108261904D01*
X64981333Y-108023809D01*
X65028952Y-107928571D01*
X65076571Y-107880952D01*
X65171809Y-107833333D01*
X65409904Y-107833333D01*
X65505142Y-107880952D01*
X65552761Y-107928571D01*
X65600380Y-108023809D01*
X65600380Y-108261904D01*
X65552761Y-108357142D01*
X65505142Y-108404761D01*
X64600380Y-113261904D02*
X64600380Y-112690476D01*
X65600380Y-112976190D02*
X64600380Y-112976190D01*
X65600380Y-112357142D02*
X64600380Y-112357142D01*
X64600380Y-111976190D01*
X64648000Y-111880952D01*
X64695619Y-111833333D01*
X64790857Y-111785714D01*
X64933714Y-111785714D01*
X65028952Y-111833333D01*
X65076571Y-111880952D01*
X65124190Y-111976190D01*
X65124190Y-112357142D01*
X64933714Y-110928571D02*
X65600380Y-110928571D01*
X64552761Y-111166666D02*
X65267047Y-111404761D01*
X65267047Y-110785714D01*
X58804380Y-114761904D02*
X58804380Y-114190476D01*
X59804380Y-114476190D02*
X58804380Y-114476190D01*
X59804380Y-113857142D02*
X58804380Y-113857142D01*
X58804380Y-113476190D01*
X58852000Y-113380952D01*
X58899619Y-113333333D01*
X58994857Y-113285714D01*
X59137714Y-113285714D01*
X59232952Y-113333333D01*
X59280571Y-113380952D01*
X59328190Y-113476190D01*
X59328190Y-113857142D01*
X58804380Y-112952380D02*
X58804380Y-112333333D01*
X59185333Y-112666666D01*
X59185333Y-112523809D01*
X59232952Y-112428571D01*
X59280571Y-112380952D01*
X59375809Y-112333333D01*
X59613904Y-112333333D01*
X59709142Y-112380952D01*
X59756761Y-112428571D01*
X59804380Y-112523809D01*
X59804380Y-112809523D01*
X59756761Y-112904761D01*
X59709142Y-112952380D01*
X103352380Y-106261904D02*
X104161904Y-106261904D01*
X104257142Y-106214285D01*
X104304761Y-106166666D01*
X104352380Y-106071428D01*
X104352380Y-105880952D01*
X104304761Y-105785714D01*
X104257142Y-105738095D01*
X104161904Y-105690476D01*
X103352380Y-105690476D01*
X104352380Y-104690476D02*
X104352380Y-105261904D01*
X104352380Y-104976190D02*
X103352380Y-104976190D01*
X103495238Y-105071428D01*
X103590476Y-105166666D01*
X103638095Y-105261904D01*
X74802380Y-121604166D02*
X74326190Y-121937500D01*
X74802380Y-122175595D02*
X73802380Y-122175595D01*
X73802380Y-121794642D01*
X73850000Y-121699404D01*
X73897619Y-121651785D01*
X73992857Y-121604166D01*
X74135714Y-121604166D01*
X74230952Y-121651785D01*
X74278571Y-121699404D01*
X74326190Y-121794642D01*
X74326190Y-122175595D01*
X73802380Y-121270833D02*
X73802380Y-120651785D01*
X74183333Y-120985119D01*
X74183333Y-120842261D01*
X74230952Y-120747023D01*
X74278571Y-120699404D01*
X74373809Y-120651785D01*
X74611904Y-120651785D01*
X74707142Y-120699404D01*
X74754761Y-120747023D01*
X74802380Y-120842261D01*
X74802380Y-121127976D01*
X74754761Y-121223214D01*
X74707142Y-121270833D01*
X79802380Y-121604166D02*
X79326190Y-121937500D01*
X79802380Y-122175595D02*
X78802380Y-122175595D01*
X78802380Y-121794642D01*
X78850000Y-121699404D01*
X78897619Y-121651785D01*
X78992857Y-121604166D01*
X79135714Y-121604166D01*
X79230952Y-121651785D01*
X79278571Y-121699404D01*
X79326190Y-121794642D01*
X79326190Y-122175595D01*
X78897619Y-121223214D02*
X78850000Y-121175595D01*
X78802380Y-121080357D01*
X78802380Y-120842261D01*
X78850000Y-120747023D01*
X78897619Y-120699404D01*
X78992857Y-120651785D01*
X79088095Y-120651785D01*
X79230952Y-120699404D01*
X79802380Y-121270833D01*
X79802380Y-120651785D01*
X102207142Y-99191666D02*
X102254761Y-99239285D01*
X102302380Y-99382142D01*
X102302380Y-99477380D01*
X102254761Y-99620238D01*
X102159523Y-99715476D01*
X102064285Y-99763095D01*
X101873809Y-99810714D01*
X101730952Y-99810714D01*
X101540476Y-99763095D01*
X101445238Y-99715476D01*
X101350000Y-99620238D01*
X101302380Y-99477380D01*
X101302380Y-99382142D01*
X101350000Y-99239285D01*
X101397619Y-99191666D01*
X101397619Y-98810714D02*
X101350000Y-98763095D01*
X101302380Y-98667857D01*
X101302380Y-98429761D01*
X101350000Y-98334523D01*
X101397619Y-98286904D01*
X101492857Y-98239285D01*
X101588095Y-98239285D01*
X101730952Y-98286904D01*
X102302380Y-98858333D01*
X102302380Y-98239285D01*
M02*
