G04 #@! TF.GenerationSoftware,KiCad,Pcbnew,5.1.5-52549c5~84~ubuntu18.04.1*
G04 #@! TF.CreationDate,2020-03-16T02:25:55+00:00*
G04 #@! TF.ProjectId,polariser_drive,706f6c61-7269-4736-9572-5f6472697665,rev?*
G04 #@! TF.SameCoordinates,Original*
G04 #@! TF.FileFunction,Legend,Top*
G04 #@! TF.FilePolarity,Positive*
%FSLAX46Y46*%
G04 Gerber Fmt 4.6, Leading zero omitted, Abs format (unit mm)*
G04 Created by KiCad (PCBNEW 5.1.5-52549c5~84~ubuntu18.04.1) date 2020-03-16 02:25:55*
%MOMM*%
%LPD*%
G04 APERTURE LIST*
%ADD10C,0.250000*%
%ADD11C,0.150000*%
%ADD12C,0.300000*%
%ADD13C,0.120000*%
%ADD14C,0.127000*%
G04 APERTURE END LIST*
D10*
X49400595Y-57428571D02*
X49400595Y-55928571D01*
X49733928Y-57000000D01*
X50067261Y-55928571D01*
X50067261Y-57428571D01*
X50733928Y-55928571D02*
X50924404Y-55928571D01*
X51019642Y-56000000D01*
X51114880Y-56142857D01*
X51162500Y-56428571D01*
X51162500Y-56928571D01*
X51114880Y-57214285D01*
X51019642Y-57357142D01*
X50924404Y-57428571D01*
X50733928Y-57428571D01*
X50638690Y-57357142D01*
X50543452Y-57214285D01*
X50495833Y-56928571D01*
X50495833Y-56428571D01*
X50543452Y-56142857D01*
X50638690Y-56000000D01*
X50733928Y-55928571D01*
X51448214Y-55928571D02*
X52019642Y-55928571D01*
X51733928Y-57428571D02*
X51733928Y-55928571D01*
X52543452Y-55928571D02*
X52733928Y-55928571D01*
X52829166Y-56000000D01*
X52924404Y-56142857D01*
X52972023Y-56428571D01*
X52972023Y-56928571D01*
X52924404Y-57214285D01*
X52829166Y-57357142D01*
X52733928Y-57428571D01*
X52543452Y-57428571D01*
X52448214Y-57357142D01*
X52352976Y-57214285D01*
X52305357Y-56928571D01*
X52305357Y-56428571D01*
X52352976Y-56142857D01*
X52448214Y-56000000D01*
X52543452Y-55928571D01*
X53972023Y-57428571D02*
X53638690Y-56714285D01*
X53400595Y-57428571D02*
X53400595Y-55928571D01*
X53781547Y-55928571D01*
X53876785Y-56000000D01*
X53924404Y-56071428D01*
X53972023Y-56214285D01*
X53972023Y-56428571D01*
X53924404Y-56571428D01*
X53876785Y-56642857D01*
X53781547Y-56714285D01*
X53400595Y-56714285D01*
X55114880Y-56071428D02*
X55162500Y-56000000D01*
X55257738Y-55928571D01*
X55495833Y-55928571D01*
X55591071Y-56000000D01*
X55638690Y-56071428D01*
X55686309Y-56214285D01*
X55686309Y-56357142D01*
X55638690Y-56571428D01*
X55067261Y-57428571D01*
X55686309Y-57428571D01*
X65928571Y-35599404D02*
X64428571Y-35599404D01*
X65500000Y-35266071D01*
X64428571Y-34932738D01*
X65928571Y-34932738D01*
X64428571Y-34266071D02*
X64428571Y-34075595D01*
X64500000Y-33980357D01*
X64642857Y-33885119D01*
X64928571Y-33837500D01*
X65428571Y-33837500D01*
X65714285Y-33885119D01*
X65857142Y-33980357D01*
X65928571Y-34075595D01*
X65928571Y-34266071D01*
X65857142Y-34361309D01*
X65714285Y-34456547D01*
X65428571Y-34504166D01*
X64928571Y-34504166D01*
X64642857Y-34456547D01*
X64500000Y-34361309D01*
X64428571Y-34266071D01*
X64428571Y-33551785D02*
X64428571Y-32980357D01*
X65928571Y-33266071D02*
X64428571Y-33266071D01*
X64428571Y-32456547D02*
X64428571Y-32266071D01*
X64500000Y-32170833D01*
X64642857Y-32075595D01*
X64928571Y-32027976D01*
X65428571Y-32027976D01*
X65714285Y-32075595D01*
X65857142Y-32170833D01*
X65928571Y-32266071D01*
X65928571Y-32456547D01*
X65857142Y-32551785D01*
X65714285Y-32647023D01*
X65428571Y-32694642D01*
X64928571Y-32694642D01*
X64642857Y-32647023D01*
X64500000Y-32551785D01*
X64428571Y-32456547D01*
X65928571Y-31027976D02*
X65214285Y-31361309D01*
X65928571Y-31599404D02*
X64428571Y-31599404D01*
X64428571Y-31218452D01*
X64500000Y-31123214D01*
X64571428Y-31075595D01*
X64714285Y-31027976D01*
X64928571Y-31027976D01*
X65071428Y-31075595D01*
X65142857Y-31123214D01*
X65214285Y-31218452D01*
X65214285Y-31599404D01*
X65928571Y-29313690D02*
X65928571Y-29885119D01*
X65928571Y-29599404D02*
X64428571Y-29599404D01*
X64642857Y-29694642D01*
X64785714Y-29789880D01*
X64857142Y-29885119D01*
D11*
X65904761Y-52690476D02*
X65952380Y-52547619D01*
X65952380Y-52309523D01*
X65904761Y-52214285D01*
X65857142Y-52166666D01*
X65761904Y-52119047D01*
X65666666Y-52119047D01*
X65571428Y-52166666D01*
X65523809Y-52214285D01*
X65476190Y-52309523D01*
X65428571Y-52500000D01*
X65380952Y-52595238D01*
X65333333Y-52642857D01*
X65238095Y-52690476D01*
X65142857Y-52690476D01*
X65047619Y-52642857D01*
X65000000Y-52595238D01*
X64952380Y-52500000D01*
X64952380Y-52261904D01*
X65000000Y-52119047D01*
X65857142Y-51119047D02*
X65904761Y-51166666D01*
X65952380Y-51309523D01*
X65952380Y-51404761D01*
X65904761Y-51547619D01*
X65809523Y-51642857D01*
X65714285Y-51690476D01*
X65523809Y-51738095D01*
X65380952Y-51738095D01*
X65190476Y-51690476D01*
X65095238Y-51642857D01*
X65000000Y-51547619D01*
X64952380Y-51404761D01*
X64952380Y-51309523D01*
X65000000Y-51166666D01*
X65047619Y-51119047D01*
X65952380Y-50214285D02*
X65952380Y-50690476D01*
X64952380Y-50690476D01*
D12*
X91903571Y-59250000D02*
X90403571Y-59250000D01*
X91903571Y-58535714D02*
X90403571Y-58535714D01*
X91903571Y-57678571D01*
X90403571Y-57678571D01*
X91832142Y-57035714D02*
X91903571Y-56821428D01*
X91903571Y-56464285D01*
X91832142Y-56321428D01*
X91760714Y-56250000D01*
X91617857Y-56178571D01*
X91475000Y-56178571D01*
X91332142Y-56250000D01*
X91260714Y-56321428D01*
X91189285Y-56464285D01*
X91117857Y-56750000D01*
X91046428Y-56892857D01*
X90975000Y-56964285D01*
X90832142Y-57035714D01*
X90689285Y-57035714D01*
X90546428Y-56964285D01*
X90475000Y-56892857D01*
X90403571Y-56750000D01*
X90403571Y-56392857D01*
X90475000Y-56178571D01*
X91117857Y-55535714D02*
X91117857Y-55035714D01*
X91903571Y-54821428D02*
X91903571Y-55535714D01*
X90403571Y-55535714D01*
X90403571Y-54821428D01*
X91903571Y-53321428D02*
X91189285Y-53821428D01*
X91903571Y-54178571D02*
X90403571Y-54178571D01*
X90403571Y-53607142D01*
X90475000Y-53464285D01*
X90546428Y-53392857D01*
X90689285Y-53321428D01*
X90903571Y-53321428D01*
X91046428Y-53392857D01*
X91117857Y-53464285D01*
X91189285Y-53607142D01*
X91189285Y-54178571D01*
X90403571Y-52892857D02*
X90403571Y-52035714D01*
X91903571Y-52464285D02*
X90403571Y-52464285D01*
X90403571Y-50107142D02*
X90403571Y-49821428D01*
X90475000Y-49678571D01*
X90617857Y-49535714D01*
X90903571Y-49464285D01*
X91403571Y-49464285D01*
X91689285Y-49535714D01*
X91832142Y-49678571D01*
X91903571Y-49821428D01*
X91903571Y-50107142D01*
X91832142Y-50250000D01*
X91689285Y-50392857D01*
X91403571Y-50464285D01*
X90903571Y-50464285D01*
X90617857Y-50392857D01*
X90475000Y-50250000D01*
X90403571Y-50107142D01*
X91903571Y-48821428D02*
X90403571Y-48821428D01*
X91903571Y-47964285D01*
X90403571Y-47964285D01*
X91903571Y-46535714D02*
X91903571Y-47250000D01*
X90403571Y-47250000D01*
X91189285Y-45750000D02*
X91903571Y-45750000D01*
X90403571Y-46250000D02*
X91189285Y-45750000D01*
X90403571Y-45250000D01*
X91760714Y-44750000D02*
X91832142Y-44678571D01*
X91903571Y-44750000D01*
X91832142Y-44821428D01*
X91760714Y-44750000D01*
X91903571Y-44750000D01*
X90975000Y-44750000D02*
X91046428Y-44678571D01*
X91117857Y-44750000D01*
X91046428Y-44821428D01*
X90975000Y-44750000D01*
X91117857Y-44750000D01*
X94453571Y-65321428D02*
X92953571Y-65321428D01*
X94453571Y-64464285D01*
X92953571Y-64464285D01*
X92953571Y-63464285D02*
X92953571Y-63178571D01*
X93025000Y-63035714D01*
X93167857Y-62892857D01*
X93453571Y-62821428D01*
X93953571Y-62821428D01*
X94239285Y-62892857D01*
X94382142Y-63035714D01*
X94453571Y-63178571D01*
X94453571Y-63464285D01*
X94382142Y-63607142D01*
X94239285Y-63750000D01*
X93953571Y-63821428D01*
X93453571Y-63821428D01*
X93167857Y-63750000D01*
X93025000Y-63607142D01*
X92953571Y-63464285D01*
X94453571Y-62178571D02*
X92953571Y-62178571D01*
X92953571Y-61821428D01*
X93025000Y-61607142D01*
X93167857Y-61464285D01*
X93310714Y-61392857D01*
X93596428Y-61321428D01*
X93810714Y-61321428D01*
X94096428Y-61392857D01*
X94239285Y-61464285D01*
X94382142Y-61607142D01*
X94453571Y-61821428D01*
X94453571Y-62178571D01*
X93667857Y-60678571D02*
X93667857Y-60178571D01*
X94453571Y-59964285D02*
X94453571Y-60678571D01*
X92953571Y-60678571D01*
X92953571Y-59964285D01*
X94453571Y-59321428D02*
X92953571Y-59321428D01*
X94025000Y-58821428D01*
X92953571Y-58321428D01*
X94453571Y-58321428D01*
X94310714Y-56750000D02*
X94382142Y-56821428D01*
X94453571Y-57035714D01*
X94453571Y-57178571D01*
X94382142Y-57392857D01*
X94239285Y-57535714D01*
X94096428Y-57607142D01*
X93810714Y-57678571D01*
X93596428Y-57678571D01*
X93310714Y-57607142D01*
X93167857Y-57535714D01*
X93025000Y-57392857D01*
X92953571Y-57178571D01*
X92953571Y-57035714D01*
X93025000Y-56821428D01*
X93096428Y-56750000D01*
X92953571Y-56107142D02*
X94167857Y-56107142D01*
X94310714Y-56035714D01*
X94382142Y-55964285D01*
X94453571Y-55821428D01*
X94453571Y-55535714D01*
X94382142Y-55392857D01*
X94310714Y-55321428D01*
X94167857Y-55250000D01*
X92953571Y-55250000D01*
X93667857Y-53392857D02*
X93667857Y-52892857D01*
X94453571Y-52678571D02*
X94453571Y-53392857D01*
X92953571Y-53392857D01*
X92953571Y-52678571D01*
X94382142Y-52107142D02*
X94453571Y-51892857D01*
X94453571Y-51535714D01*
X94382142Y-51392857D01*
X94310714Y-51321428D01*
X94167857Y-51250000D01*
X94025000Y-51250000D01*
X93882142Y-51321428D01*
X93810714Y-51392857D01*
X93739285Y-51535714D01*
X93667857Y-51821428D01*
X93596428Y-51964285D01*
X93525000Y-52035714D01*
X93382142Y-52107142D01*
X93239285Y-52107142D01*
X93096428Y-52035714D01*
X93025000Y-51964285D01*
X92953571Y-51821428D01*
X92953571Y-51464285D01*
X93025000Y-51250000D01*
X94453571Y-50607142D02*
X92953571Y-50607142D01*
X92953571Y-50035714D01*
X93025000Y-49892857D01*
X93096428Y-49821428D01*
X93239285Y-49750000D01*
X93453571Y-49750000D01*
X93596428Y-49821428D01*
X93667857Y-49892857D01*
X93739285Y-50035714D01*
X93739285Y-50607142D01*
X93596428Y-48892857D02*
X93525000Y-49035714D01*
X93453571Y-49107142D01*
X93310714Y-49178571D01*
X93239285Y-49178571D01*
X93096428Y-49107142D01*
X93025000Y-49035714D01*
X92953571Y-48892857D01*
X92953571Y-48607142D01*
X93025000Y-48464285D01*
X93096428Y-48392857D01*
X93239285Y-48321428D01*
X93310714Y-48321428D01*
X93453571Y-48392857D01*
X93525000Y-48464285D01*
X93596428Y-48607142D01*
X93596428Y-48892857D01*
X93667857Y-49035714D01*
X93739285Y-49107142D01*
X93882142Y-49178571D01*
X94167857Y-49178571D01*
X94310714Y-49107142D01*
X94382142Y-49035714D01*
X94453571Y-48892857D01*
X94453571Y-48607142D01*
X94382142Y-48464285D01*
X94310714Y-48392857D01*
X94167857Y-48321428D01*
X93882142Y-48321428D01*
X93739285Y-48392857D01*
X93667857Y-48464285D01*
X93596428Y-48607142D01*
X93096428Y-47750000D02*
X93025000Y-47678571D01*
X92953571Y-47535714D01*
X92953571Y-47178571D01*
X93025000Y-47035714D01*
X93096428Y-46964285D01*
X93239285Y-46892857D01*
X93382142Y-46892857D01*
X93596428Y-46964285D01*
X94453571Y-47821428D01*
X94453571Y-46892857D01*
X92953571Y-45607142D02*
X92953571Y-45892857D01*
X93025000Y-46035714D01*
X93096428Y-46107142D01*
X93310714Y-46250000D01*
X93596428Y-46321428D01*
X94167857Y-46321428D01*
X94310714Y-46250000D01*
X94382142Y-46178571D01*
X94453571Y-46035714D01*
X94453571Y-45750000D01*
X94382142Y-45607142D01*
X94310714Y-45535714D01*
X94167857Y-45464285D01*
X93810714Y-45464285D01*
X93667857Y-45535714D01*
X93596428Y-45607142D01*
X93525000Y-45750000D01*
X93525000Y-46035714D01*
X93596428Y-46178571D01*
X93667857Y-46250000D01*
X93810714Y-46321428D01*
X92953571Y-44178571D02*
X92953571Y-44464285D01*
X93025000Y-44607142D01*
X93096428Y-44678571D01*
X93310714Y-44821428D01*
X93596428Y-44892857D01*
X94167857Y-44892857D01*
X94310714Y-44821428D01*
X94382142Y-44750000D01*
X94453571Y-44607142D01*
X94453571Y-44321428D01*
X94382142Y-44178571D01*
X94310714Y-44107142D01*
X94167857Y-44035714D01*
X93810714Y-44035714D01*
X93667857Y-44107142D01*
X93596428Y-44178571D01*
X93525000Y-44321428D01*
X93525000Y-44607142D01*
X93596428Y-44750000D01*
X93667857Y-44821428D01*
X93810714Y-44892857D01*
X93453571Y-43392857D02*
X93882142Y-42250000D01*
X94310714Y-43392857D01*
X92953571Y-41250000D02*
X92953571Y-41107142D01*
X93025000Y-40964285D01*
X93096428Y-40892857D01*
X93239285Y-40821428D01*
X93525000Y-40750000D01*
X93882142Y-40750000D01*
X94167857Y-40821428D01*
X94310714Y-40892857D01*
X94382142Y-40964285D01*
X94453571Y-41107142D01*
X94453571Y-41250000D01*
X94382142Y-41392857D01*
X94310714Y-41464285D01*
X94167857Y-41535714D01*
X93882142Y-41607142D01*
X93525000Y-41607142D01*
X93239285Y-41535714D01*
X93096428Y-41464285D01*
X93025000Y-41392857D01*
X92953571Y-41250000D01*
X94310714Y-40107142D02*
X94382142Y-40035714D01*
X94453571Y-40107142D01*
X94382142Y-40178571D01*
X94310714Y-40107142D01*
X94453571Y-40107142D01*
X94453571Y-39321428D02*
X94453571Y-39035714D01*
X94382142Y-38892857D01*
X94310714Y-38821428D01*
X94096428Y-38678571D01*
X93810714Y-38607142D01*
X93239285Y-38607142D01*
X93096428Y-38678571D01*
X93025000Y-38750000D01*
X92953571Y-38892857D01*
X92953571Y-39178571D01*
X93025000Y-39321428D01*
X93096428Y-39392857D01*
X93239285Y-39464285D01*
X93596428Y-39464285D01*
X93739285Y-39392857D01*
X93810714Y-39321428D01*
X93882142Y-39178571D01*
X93882142Y-38892857D01*
X93810714Y-38750000D01*
X93739285Y-38678571D01*
X93596428Y-38607142D01*
D11*
X75302380Y-53164404D02*
X74302380Y-53164404D01*
X74302380Y-52926309D01*
X74350000Y-52783452D01*
X74445238Y-52688214D01*
X74540476Y-52640595D01*
X74730952Y-52592976D01*
X74873809Y-52592976D01*
X75064285Y-52640595D01*
X75159523Y-52688214D01*
X75254761Y-52783452D01*
X75302380Y-52926309D01*
X75302380Y-53164404D01*
X75254761Y-52212023D02*
X75302380Y-52069166D01*
X75302380Y-51831071D01*
X75254761Y-51735833D01*
X75207142Y-51688214D01*
X75111904Y-51640595D01*
X75016666Y-51640595D01*
X74921428Y-51688214D01*
X74873809Y-51735833D01*
X74826190Y-51831071D01*
X74778571Y-52021547D01*
X74730952Y-52116785D01*
X74683333Y-52164404D01*
X74588095Y-52212023D01*
X74492857Y-52212023D01*
X74397619Y-52164404D01*
X74350000Y-52116785D01*
X74302380Y-52021547D01*
X74302380Y-51783452D01*
X74350000Y-51640595D01*
X74350000Y-50688214D02*
X74302380Y-50783452D01*
X74302380Y-50926309D01*
X74350000Y-51069166D01*
X74445238Y-51164404D01*
X74540476Y-51212023D01*
X74730952Y-51259642D01*
X74873809Y-51259642D01*
X75064285Y-51212023D01*
X75159523Y-51164404D01*
X75254761Y-51069166D01*
X75302380Y-50926309D01*
X75302380Y-50831071D01*
X75254761Y-50688214D01*
X75207142Y-50640595D01*
X74873809Y-50640595D01*
X74873809Y-50831071D01*
X75207142Y-50212023D02*
X75254761Y-50164404D01*
X75302380Y-50212023D01*
X75254761Y-50259642D01*
X75207142Y-50212023D01*
X75302380Y-50212023D01*
X74683333Y-50212023D02*
X74730952Y-50164404D01*
X74778571Y-50212023D01*
X74730952Y-50259642D01*
X74683333Y-50212023D01*
X74778571Y-50212023D01*
X74302380Y-49069166D02*
X75302380Y-48831071D01*
X74588095Y-48640595D01*
X75302380Y-48450119D01*
X74302380Y-48212023D01*
X75302380Y-47831071D02*
X74302380Y-47831071D01*
X75016666Y-47497738D01*
X74302380Y-47164404D01*
X75302380Y-47164404D01*
X75952380Y-52973928D02*
X75952380Y-52783452D01*
X76000000Y-52688214D01*
X76095238Y-52592976D01*
X76285714Y-52545357D01*
X76619047Y-52545357D01*
X76809523Y-52592976D01*
X76904761Y-52688214D01*
X76952380Y-52783452D01*
X76952380Y-52973928D01*
X76904761Y-53069166D01*
X76809523Y-53164404D01*
X76619047Y-53212023D01*
X76285714Y-53212023D01*
X76095238Y-53164404D01*
X76000000Y-53069166D01*
X75952380Y-52973928D01*
X76952380Y-52212023D02*
X76285714Y-51688214D01*
X76285714Y-52212023D02*
X76952380Y-51688214D01*
X76285714Y-51450119D02*
X76285714Y-51069166D01*
X76952380Y-51307261D02*
X76095238Y-51307261D01*
X76000000Y-51259642D01*
X75952380Y-51164404D01*
X75952380Y-51069166D01*
X76952380Y-50592976D02*
X76904761Y-50688214D01*
X76857142Y-50735833D01*
X76761904Y-50783452D01*
X76476190Y-50783452D01*
X76380952Y-50735833D01*
X76333333Y-50688214D01*
X76285714Y-50592976D01*
X76285714Y-50450119D01*
X76333333Y-50354880D01*
X76380952Y-50307261D01*
X76476190Y-50259642D01*
X76761904Y-50259642D01*
X76857142Y-50307261D01*
X76904761Y-50354880D01*
X76952380Y-50450119D01*
X76952380Y-50592976D01*
X76952380Y-49831071D02*
X76285714Y-49831071D01*
X76476190Y-49831071D02*
X76380952Y-49783452D01*
X76333333Y-49735833D01*
X76285714Y-49640595D01*
X76285714Y-49545357D01*
X76952380Y-48783452D02*
X75952380Y-48783452D01*
X76904761Y-48783452D02*
X76952380Y-48878690D01*
X76952380Y-49069166D01*
X76904761Y-49164404D01*
X76857142Y-49212023D01*
X76761904Y-49259642D01*
X76476190Y-49259642D01*
X76380952Y-49212023D01*
X76333333Y-49164404D01*
X76285714Y-49069166D01*
X76285714Y-48878690D01*
X76333333Y-48783452D01*
X75952380Y-47688214D02*
X76952380Y-47354880D01*
X75952380Y-47021547D01*
X76952380Y-46212023D02*
X76952380Y-46688214D01*
X75952380Y-46688214D01*
X76857142Y-45307261D02*
X76904761Y-45354880D01*
X76952380Y-45497738D01*
X76952380Y-45592976D01*
X76904761Y-45735833D01*
X76809523Y-45831071D01*
X76714285Y-45878690D01*
X76523809Y-45926309D01*
X76380952Y-45926309D01*
X76190476Y-45878690D01*
X76095238Y-45831071D01*
X76000000Y-45735833D01*
X75952380Y-45592976D01*
X75952380Y-45497738D01*
X76000000Y-45354880D01*
X76047619Y-45307261D01*
X77602380Y-53307261D02*
X78602380Y-52973928D01*
X77602380Y-52640595D01*
X78078571Y-52307261D02*
X78078571Y-51973928D01*
X78602380Y-51831071D02*
X78602380Y-52307261D01*
X77602380Y-52307261D01*
X77602380Y-51831071D01*
X78602380Y-50831071D02*
X78126190Y-51164404D01*
X78602380Y-51402500D02*
X77602380Y-51402500D01*
X77602380Y-51021547D01*
X77650000Y-50926309D01*
X77697619Y-50878690D01*
X77792857Y-50831071D01*
X77935714Y-50831071D01*
X78030952Y-50878690D01*
X78078571Y-50926309D01*
X78126190Y-51021547D01*
X78126190Y-51402500D01*
X78602380Y-49116785D02*
X78602380Y-49688214D01*
X78602380Y-49402500D02*
X77602380Y-49402500D01*
X77745238Y-49497738D01*
X77840476Y-49592976D01*
X77888095Y-49688214D01*
X81627380Y-59559642D02*
X81627380Y-59407261D01*
X81675000Y-59331071D01*
X81770238Y-59254880D01*
X81960714Y-59216785D01*
X82294047Y-59216785D01*
X82484523Y-59254880D01*
X82579761Y-59331071D01*
X82627380Y-59407261D01*
X82627380Y-59559642D01*
X82579761Y-59635833D01*
X82484523Y-59712023D01*
X82294047Y-59750119D01*
X81960714Y-59750119D01*
X81770238Y-59712023D01*
X81675000Y-59635833D01*
X81627380Y-59559642D01*
X81627380Y-58988214D02*
X82627380Y-58721547D01*
X81627380Y-58454880D01*
X82103571Y-58188214D02*
X82103571Y-57921547D01*
X82627380Y-57807261D02*
X82627380Y-58188214D01*
X81627380Y-58188214D01*
X81627380Y-57807261D01*
X82627380Y-57007261D02*
X82151190Y-57273928D01*
X82627380Y-57464404D02*
X81627380Y-57464404D01*
X81627380Y-57159642D01*
X81675000Y-57083452D01*
X81722619Y-57045357D01*
X81817857Y-57007261D01*
X81960714Y-57007261D01*
X82055952Y-57045357D01*
X82103571Y-57083452D01*
X82151190Y-57159642D01*
X82151190Y-57464404D01*
X81627380Y-56778690D02*
X82627380Y-56512023D01*
X81627380Y-56245357D01*
X82627380Y-55978690D02*
X81627380Y-55978690D01*
X82103571Y-55597738D02*
X82103571Y-55331071D01*
X82627380Y-55216785D02*
X82627380Y-55597738D01*
X81627380Y-55597738D01*
X81627380Y-55216785D01*
X81627380Y-54950119D02*
X82627380Y-54759642D01*
X81913095Y-54607261D01*
X82627380Y-54454880D01*
X81627380Y-54264404D01*
X82627380Y-53350119D02*
X81627380Y-53350119D01*
X81627380Y-53045357D01*
X81675000Y-52969166D01*
X81722619Y-52931071D01*
X81817857Y-52892976D01*
X81960714Y-52892976D01*
X82055952Y-52931071D01*
X82103571Y-52969166D01*
X82151190Y-53045357D01*
X82151190Y-53350119D01*
X81627380Y-52397738D02*
X81627380Y-52245357D01*
X81675000Y-52169166D01*
X81770238Y-52092976D01*
X81960714Y-52054880D01*
X82294047Y-52054880D01*
X82484523Y-52092976D01*
X82579761Y-52169166D01*
X82627380Y-52245357D01*
X82627380Y-52397738D01*
X82579761Y-52473928D01*
X82484523Y-52550119D01*
X82294047Y-52588214D01*
X81960714Y-52588214D01*
X81770238Y-52550119D01*
X81675000Y-52473928D01*
X81627380Y-52397738D01*
X82627380Y-51331071D02*
X82627380Y-51712023D01*
X81627380Y-51712023D01*
X82341666Y-51102500D02*
X82341666Y-50721547D01*
X82627380Y-51178690D02*
X81627380Y-50912023D01*
X82627380Y-50645357D01*
X82627380Y-49921547D02*
X82151190Y-50188214D01*
X82627380Y-50378690D02*
X81627380Y-50378690D01*
X81627380Y-50073928D01*
X81675000Y-49997738D01*
X81722619Y-49959642D01*
X81817857Y-49921547D01*
X81960714Y-49921547D01*
X82055952Y-49959642D01*
X82103571Y-49997738D01*
X82151190Y-50073928D01*
X82151190Y-50378690D01*
X82627380Y-49578690D02*
X81627380Y-49578690D01*
X82579761Y-49235833D02*
X82627380Y-49121547D01*
X82627380Y-48931071D01*
X82579761Y-48854880D01*
X82532142Y-48816785D01*
X82436904Y-48778690D01*
X82341666Y-48778690D01*
X82246428Y-48816785D01*
X82198809Y-48854880D01*
X82151190Y-48931071D01*
X82103571Y-49083452D01*
X82055952Y-49159642D01*
X82008333Y-49197738D01*
X81913095Y-49235833D01*
X81817857Y-49235833D01*
X81722619Y-49197738D01*
X81675000Y-49159642D01*
X81627380Y-49083452D01*
X81627380Y-48892976D01*
X81675000Y-48778690D01*
X82103571Y-48435833D02*
X82103571Y-48169166D01*
X82627380Y-48054880D02*
X82627380Y-48435833D01*
X81627380Y-48435833D01*
X81627380Y-48054880D01*
X82627380Y-47254880D02*
X82151190Y-47521547D01*
X82627380Y-47712023D02*
X81627380Y-47712023D01*
X81627380Y-47407261D01*
X81675000Y-47331071D01*
X81722619Y-47292976D01*
X81817857Y-47254880D01*
X81960714Y-47254880D01*
X82055952Y-47292976D01*
X82103571Y-47331071D01*
X82151190Y-47407261D01*
X82151190Y-47712023D01*
X82627380Y-46302500D02*
X81627380Y-46302500D01*
X81627380Y-46112023D01*
X81675000Y-45997738D01*
X81770238Y-45921547D01*
X81865476Y-45883452D01*
X82055952Y-45845357D01*
X82198809Y-45845357D01*
X82389285Y-45883452D01*
X82484523Y-45921547D01*
X82579761Y-45997738D01*
X82627380Y-46112023D01*
X82627380Y-46302500D01*
X82627380Y-45045357D02*
X82151190Y-45312023D01*
X82627380Y-45502500D02*
X81627380Y-45502500D01*
X81627380Y-45197738D01*
X81675000Y-45121547D01*
X81722619Y-45083452D01*
X81817857Y-45045357D01*
X81960714Y-45045357D01*
X82055952Y-45083452D01*
X82103571Y-45121547D01*
X82151190Y-45197738D01*
X82151190Y-45502500D01*
X82627380Y-44702500D02*
X81627380Y-44702500D01*
X81627380Y-44435833D02*
X82627380Y-44169166D01*
X81627380Y-43902500D01*
X82103571Y-43635833D02*
X82103571Y-43369166D01*
X82627380Y-43254880D02*
X82627380Y-43635833D01*
X81627380Y-43635833D01*
X81627380Y-43254880D01*
X82103571Y-42035833D02*
X82151190Y-41921547D01*
X82198809Y-41883452D01*
X82294047Y-41845357D01*
X82436904Y-41845357D01*
X82532142Y-41883452D01*
X82579761Y-41921547D01*
X82627380Y-41997738D01*
X82627380Y-42302500D01*
X81627380Y-42302500D01*
X81627380Y-42035833D01*
X81675000Y-41959642D01*
X81722619Y-41921547D01*
X81817857Y-41883452D01*
X81913095Y-41883452D01*
X82008333Y-41921547D01*
X82055952Y-41959642D01*
X82103571Y-42035833D01*
X82103571Y-42302500D01*
X81627380Y-41350119D02*
X81627380Y-41197738D01*
X81675000Y-41121547D01*
X81770238Y-41045357D01*
X81960714Y-41007261D01*
X82294047Y-41007261D01*
X82484523Y-41045357D01*
X82579761Y-41121547D01*
X82627380Y-41197738D01*
X82627380Y-41350119D01*
X82579761Y-41426309D01*
X82484523Y-41502500D01*
X82294047Y-41540595D01*
X81960714Y-41540595D01*
X81770238Y-41502500D01*
X81675000Y-41426309D01*
X81627380Y-41350119D01*
X82341666Y-40702500D02*
X82341666Y-40321547D01*
X82627380Y-40778690D02*
X81627380Y-40512023D01*
X82627380Y-40245357D01*
X82627380Y-39521547D02*
X82151190Y-39788214D01*
X82627380Y-39978690D02*
X81627380Y-39978690D01*
X81627380Y-39673928D01*
X81675000Y-39597738D01*
X81722619Y-39559642D01*
X81817857Y-39521547D01*
X81960714Y-39521547D01*
X82055952Y-39559642D01*
X82103571Y-39597738D01*
X82151190Y-39673928D01*
X82151190Y-39978690D01*
X82627380Y-39178690D02*
X81627380Y-39178690D01*
X81627380Y-38988214D01*
X81675000Y-38873928D01*
X81770238Y-38797738D01*
X81865476Y-38759642D01*
X82055952Y-38721547D01*
X82198809Y-38721547D01*
X82389285Y-38759642D01*
X82484523Y-38797738D01*
X82579761Y-38873928D01*
X82627380Y-38988214D01*
X82627380Y-39178690D01*
X83277380Y-59712023D02*
X84086904Y-59712023D01*
X84182142Y-59673928D01*
X84229761Y-59635833D01*
X84277380Y-59559642D01*
X84277380Y-59407261D01*
X84229761Y-59331071D01*
X84182142Y-59292976D01*
X84086904Y-59254880D01*
X83277380Y-59254880D01*
X84229761Y-58912023D02*
X84277380Y-58797738D01*
X84277380Y-58607261D01*
X84229761Y-58531071D01*
X84182142Y-58492976D01*
X84086904Y-58454880D01*
X83991666Y-58454880D01*
X83896428Y-58492976D01*
X83848809Y-58531071D01*
X83801190Y-58607261D01*
X83753571Y-58759642D01*
X83705952Y-58835833D01*
X83658333Y-58873928D01*
X83563095Y-58912023D01*
X83467857Y-58912023D01*
X83372619Y-58873928D01*
X83325000Y-58835833D01*
X83277380Y-58759642D01*
X83277380Y-58569166D01*
X83325000Y-58454880D01*
X83753571Y-58112023D02*
X83753571Y-57845357D01*
X84277380Y-57731071D02*
X84277380Y-58112023D01*
X83277380Y-58112023D01*
X83277380Y-57731071D01*
X83277380Y-56626309D02*
X83277380Y-56473928D01*
X83325000Y-56397738D01*
X83420238Y-56321547D01*
X83610714Y-56283452D01*
X83944047Y-56283452D01*
X84134523Y-56321547D01*
X84229761Y-56397738D01*
X84277380Y-56473928D01*
X84277380Y-56626309D01*
X84229761Y-56702500D01*
X84134523Y-56778690D01*
X83944047Y-56816785D01*
X83610714Y-56816785D01*
X83420238Y-56778690D01*
X83325000Y-56702500D01*
X83277380Y-56626309D01*
X84277380Y-55940595D02*
X83277380Y-55940595D01*
X84277380Y-55483452D01*
X83277380Y-55483452D01*
X84277380Y-54721547D02*
X84277380Y-55102500D01*
X83277380Y-55102500D01*
X83801190Y-54302500D02*
X84277380Y-54302500D01*
X83277380Y-54569166D02*
X83801190Y-54302500D01*
X83277380Y-54035833D01*
X83277380Y-53007261D02*
X83277380Y-52854880D01*
X83325000Y-52778690D01*
X83420238Y-52702500D01*
X83610714Y-52664404D01*
X83944047Y-52664404D01*
X84134523Y-52702500D01*
X84229761Y-52778690D01*
X84277380Y-52854880D01*
X84277380Y-53007261D01*
X84229761Y-53083452D01*
X84134523Y-53159642D01*
X83944047Y-53197738D01*
X83610714Y-53197738D01*
X83420238Y-53159642D01*
X83325000Y-53083452D01*
X83277380Y-53007261D01*
X84277380Y-52321547D02*
X83277380Y-52321547D01*
X84277380Y-51864404D01*
X83277380Y-51864404D01*
X83277380Y-50950119D02*
X83277380Y-50454880D01*
X83658333Y-50721547D01*
X83658333Y-50607261D01*
X83705952Y-50531071D01*
X83753571Y-50492976D01*
X83848809Y-50454880D01*
X84086904Y-50454880D01*
X84182142Y-50492976D01*
X84229761Y-50531071D01*
X84277380Y-50607261D01*
X84277380Y-50835833D01*
X84229761Y-50912023D01*
X84182142Y-50950119D01*
X83277380Y-50226309D02*
X84277380Y-49959642D01*
X83277380Y-49692976D01*
X83277380Y-49502500D02*
X83277380Y-49007261D01*
X83658333Y-49273928D01*
X83658333Y-49159642D01*
X83705952Y-49083452D01*
X83753571Y-49045357D01*
X83848809Y-49007261D01*
X84086904Y-49007261D01*
X84182142Y-49045357D01*
X84229761Y-49083452D01*
X84277380Y-49159642D01*
X84277380Y-49388214D01*
X84229761Y-49464404D01*
X84182142Y-49502500D01*
X84277380Y-48054880D02*
X83277380Y-48054880D01*
X83372619Y-47712023D02*
X83325000Y-47673928D01*
X83277380Y-47597738D01*
X83277380Y-47407261D01*
X83325000Y-47331071D01*
X83372619Y-47292976D01*
X83467857Y-47254880D01*
X83563095Y-47254880D01*
X83705952Y-47292976D01*
X84277380Y-47750119D01*
X84277380Y-47254880D01*
X84182142Y-46454880D02*
X84229761Y-46492976D01*
X84277380Y-46607261D01*
X84277380Y-46683452D01*
X84229761Y-46797738D01*
X84134523Y-46873928D01*
X84039285Y-46912023D01*
X83848809Y-46950119D01*
X83705952Y-46950119D01*
X83515476Y-46912023D01*
X83420238Y-46873928D01*
X83325000Y-46797738D01*
X83277380Y-46683452D01*
X83277380Y-46607261D01*
X83325000Y-46492976D01*
X83372619Y-46454880D01*
X83753571Y-45235833D02*
X83801190Y-45121547D01*
X83848809Y-45083452D01*
X83944047Y-45045357D01*
X84086904Y-45045357D01*
X84182142Y-45083452D01*
X84229761Y-45121547D01*
X84277380Y-45197738D01*
X84277380Y-45502500D01*
X83277380Y-45502500D01*
X83277380Y-45235833D01*
X83325000Y-45159642D01*
X83372619Y-45121547D01*
X83467857Y-45083452D01*
X83563095Y-45083452D01*
X83658333Y-45121547D01*
X83705952Y-45159642D01*
X83753571Y-45235833D01*
X83753571Y-45502500D01*
X83277380Y-44702500D02*
X84086904Y-44702500D01*
X84182142Y-44664404D01*
X84229761Y-44626309D01*
X84277380Y-44550119D01*
X84277380Y-44397738D01*
X84229761Y-44321547D01*
X84182142Y-44283452D01*
X84086904Y-44245357D01*
X83277380Y-44245357D01*
X84229761Y-43902500D02*
X84277380Y-43788214D01*
X84277380Y-43597738D01*
X84229761Y-43521547D01*
X84182142Y-43483452D01*
X84086904Y-43445357D01*
X83991666Y-43445357D01*
X83896428Y-43483452D01*
X83848809Y-43521547D01*
X83801190Y-43597738D01*
X83753571Y-43750119D01*
X83705952Y-43826309D01*
X83658333Y-43864404D01*
X83563095Y-43902500D01*
X83467857Y-43902500D01*
X83372619Y-43864404D01*
X83325000Y-43826309D01*
X83277380Y-43750119D01*
X83277380Y-43559642D01*
X83325000Y-43445357D01*
X84182142Y-42035833D02*
X84229761Y-42073928D01*
X84277380Y-42188214D01*
X84277380Y-42264404D01*
X84229761Y-42378690D01*
X84134523Y-42454880D01*
X84039285Y-42492976D01*
X83848809Y-42531071D01*
X83705952Y-42531071D01*
X83515476Y-42492976D01*
X83420238Y-42454880D01*
X83325000Y-42378690D01*
X83277380Y-42264404D01*
X83277380Y-42188214D01*
X83325000Y-42073928D01*
X83372619Y-42035833D01*
X83277380Y-41540595D02*
X83277380Y-41388214D01*
X83325000Y-41312023D01*
X83420238Y-41235833D01*
X83610714Y-41197738D01*
X83944047Y-41197738D01*
X84134523Y-41235833D01*
X84229761Y-41312023D01*
X84277380Y-41388214D01*
X84277380Y-41540595D01*
X84229761Y-41616785D01*
X84134523Y-41692976D01*
X83944047Y-41731071D01*
X83610714Y-41731071D01*
X83420238Y-41692976D01*
X83325000Y-41616785D01*
X83277380Y-41540595D01*
X84277380Y-40854880D02*
X83277380Y-40854880D01*
X83991666Y-40588214D01*
X83277380Y-40321547D01*
X84277380Y-40321547D01*
X84277380Y-39940595D02*
X83277380Y-39940595D01*
X83277380Y-39635833D01*
X83325000Y-39559642D01*
X83372619Y-39521547D01*
X83467857Y-39483452D01*
X83610714Y-39483452D01*
X83705952Y-39521547D01*
X83753571Y-39559642D01*
X83801190Y-39635833D01*
X83801190Y-39940595D01*
X83991666Y-39178690D02*
X83991666Y-38797738D01*
X84277380Y-39254880D02*
X83277380Y-38988214D01*
X84277380Y-38721547D01*
X83277380Y-38569166D02*
X83277380Y-38112023D01*
X84277380Y-38340595D02*
X83277380Y-38340595D01*
X84277380Y-37845357D02*
X83277380Y-37845357D01*
X83753571Y-37197738D02*
X83801190Y-37083452D01*
X83848809Y-37045357D01*
X83944047Y-37007261D01*
X84086904Y-37007261D01*
X84182142Y-37045357D01*
X84229761Y-37083452D01*
X84277380Y-37159642D01*
X84277380Y-37464404D01*
X83277380Y-37464404D01*
X83277380Y-37197738D01*
X83325000Y-37121547D01*
X83372619Y-37083452D01*
X83467857Y-37045357D01*
X83563095Y-37045357D01*
X83658333Y-37083452D01*
X83705952Y-37121547D01*
X83753571Y-37197738D01*
X83753571Y-37464404D01*
X84277380Y-36283452D02*
X84277380Y-36664404D01*
X83277380Y-36664404D01*
X83753571Y-36016785D02*
X83753571Y-35750119D01*
X84277380Y-35635833D02*
X84277380Y-36016785D01*
X83277380Y-36016785D01*
X83277380Y-35635833D01*
X84277380Y-34683452D02*
X83277380Y-34683452D01*
X83991666Y-34416785D01*
X83277380Y-34150119D01*
X84277380Y-34150119D01*
X83277380Y-33616785D02*
X83277380Y-33464404D01*
X83325000Y-33388214D01*
X83420238Y-33312023D01*
X83610714Y-33273928D01*
X83944047Y-33273928D01*
X84134523Y-33312023D01*
X84229761Y-33388214D01*
X84277380Y-33464404D01*
X84277380Y-33616785D01*
X84229761Y-33692976D01*
X84134523Y-33769166D01*
X83944047Y-33807261D01*
X83610714Y-33807261D01*
X83420238Y-33769166D01*
X83325000Y-33692976D01*
X83277380Y-33616785D01*
X83277380Y-33045357D02*
X83277380Y-32588214D01*
X84277380Y-32816785D02*
X83277380Y-32816785D01*
X83277380Y-32169166D02*
X83277380Y-32016785D01*
X83325000Y-31940595D01*
X83420238Y-31864404D01*
X83610714Y-31826309D01*
X83944047Y-31826309D01*
X84134523Y-31864404D01*
X84229761Y-31940595D01*
X84277380Y-32016785D01*
X84277380Y-32169166D01*
X84229761Y-32245357D01*
X84134523Y-32321547D01*
X83944047Y-32359642D01*
X83610714Y-32359642D01*
X83420238Y-32321547D01*
X83325000Y-32245357D01*
X83277380Y-32169166D01*
X84277380Y-31026309D02*
X83801190Y-31292976D01*
X84277380Y-31483452D02*
X83277380Y-31483452D01*
X83277380Y-31178690D01*
X83325000Y-31102500D01*
X83372619Y-31064404D01*
X83467857Y-31026309D01*
X83610714Y-31026309D01*
X83705952Y-31064404D01*
X83753571Y-31102500D01*
X83801190Y-31178690D01*
X83801190Y-31483452D01*
X84229761Y-30721547D02*
X84277380Y-30607261D01*
X84277380Y-30416785D01*
X84229761Y-30340595D01*
X84182142Y-30302500D01*
X84086904Y-30264404D01*
X83991666Y-30264404D01*
X83896428Y-30302500D01*
X83848809Y-30340595D01*
X83801190Y-30416785D01*
X83753571Y-30569166D01*
X83705952Y-30645357D01*
X83658333Y-30683452D01*
X83563095Y-30721547D01*
X83467857Y-30721547D01*
X83372619Y-30683452D01*
X83325000Y-30645357D01*
X83277380Y-30569166D01*
X83277380Y-30378690D01*
X83325000Y-30264404D01*
X65904761Y-49714285D02*
X65952380Y-49571428D01*
X65952380Y-49333333D01*
X65904761Y-49238095D01*
X65857142Y-49190476D01*
X65761904Y-49142857D01*
X65666666Y-49142857D01*
X65571428Y-49190476D01*
X65523809Y-49238095D01*
X65476190Y-49333333D01*
X65428571Y-49523809D01*
X65380952Y-49619047D01*
X65333333Y-49666666D01*
X65238095Y-49714285D01*
X65142857Y-49714285D01*
X65047619Y-49666666D01*
X65000000Y-49619047D01*
X64952380Y-49523809D01*
X64952380Y-49285714D01*
X65000000Y-49142857D01*
X65952380Y-48714285D02*
X64952380Y-48714285D01*
X64952380Y-48476190D01*
X65000000Y-48333333D01*
X65095238Y-48238095D01*
X65190476Y-48190476D01*
X65380952Y-48142857D01*
X65523809Y-48142857D01*
X65714285Y-48190476D01*
X65809523Y-48238095D01*
X65904761Y-48333333D01*
X65952380Y-48476190D01*
X65952380Y-48714285D01*
X65666666Y-47761904D02*
X65666666Y-47285714D01*
X65952380Y-47857142D02*
X64952380Y-47523809D01*
X65952380Y-47190476D01*
X56500000Y-47761904D02*
X56452380Y-47857142D01*
X56452380Y-48000000D01*
X56500000Y-48142857D01*
X56595238Y-48238095D01*
X56690476Y-48285714D01*
X56880952Y-48333333D01*
X57023809Y-48333333D01*
X57214285Y-48285714D01*
X57309523Y-48238095D01*
X57404761Y-48142857D01*
X57452380Y-48000000D01*
X57452380Y-47904761D01*
X57404761Y-47761904D01*
X57357142Y-47714285D01*
X57023809Y-47714285D01*
X57023809Y-47904761D01*
X57452380Y-47285714D02*
X56452380Y-47285714D01*
X57452380Y-46714285D01*
X56452380Y-46714285D01*
X57452380Y-46238095D02*
X56452380Y-46238095D01*
X56452380Y-46000000D01*
X56500000Y-45857142D01*
X56595238Y-45761904D01*
X56690476Y-45714285D01*
X56880952Y-45666666D01*
X57023809Y-45666666D01*
X57214285Y-45714285D01*
X57309523Y-45761904D01*
X57404761Y-45857142D01*
X57452380Y-46000000D01*
X57452380Y-46238095D01*
X56452380Y-50190476D02*
X56452380Y-50666666D01*
X56928571Y-50714285D01*
X56880952Y-50666666D01*
X56833333Y-50571428D01*
X56833333Y-50333333D01*
X56880952Y-50238095D01*
X56928571Y-50190476D01*
X57023809Y-50142857D01*
X57261904Y-50142857D01*
X57357142Y-50190476D01*
X57404761Y-50238095D01*
X57452380Y-50333333D01*
X57452380Y-50571428D01*
X57404761Y-50666666D01*
X57357142Y-50714285D01*
X56452380Y-49857142D02*
X57452380Y-49523809D01*
X56452380Y-49190476D01*
X57452380Y-53619047D02*
X57452380Y-54190476D01*
X57452380Y-53904761D02*
X56452380Y-53904761D01*
X56595238Y-54000000D01*
X56690476Y-54095238D01*
X56738095Y-54190476D01*
X56547619Y-53238095D02*
X56500000Y-53190476D01*
X56452380Y-53095238D01*
X56452380Y-52857142D01*
X56500000Y-52761904D01*
X56547619Y-52714285D01*
X56642857Y-52666666D01*
X56738095Y-52666666D01*
X56880952Y-52714285D01*
X57452380Y-53285714D01*
X57452380Y-52666666D01*
X56452380Y-52380952D02*
X57452380Y-52047619D01*
X56452380Y-51714285D01*
D13*
X69612539Y-46793679D02*
G75*
G02X73000000Y-52500000I-3112539J-5706321D01*
G01*
X69563432Y-47904854D02*
G75*
G02X71999999Y-52000001I-3063432J-4595146D01*
G01*
X69499999Y-49000001D02*
G75*
G02X70999999Y-51500001I-2999999J-3499999D01*
G01*
X68500000Y-48500000D02*
X68500000Y-50000000D01*
X68500000Y-51500000D02*
X68500000Y-53000000D01*
X67500000Y-50000000D02*
X69500000Y-50000000D01*
X68500000Y-50000000D02*
X67500000Y-51500000D01*
X69500000Y-51500000D02*
X68500000Y-50000000D01*
X67500000Y-51500000D02*
X69500000Y-51500000D01*
X48915000Y-54610000D02*
X49465000Y-54610000D01*
X48915000Y-43390000D02*
X48915000Y-54610000D01*
X49465000Y-43390000D02*
X48915000Y-43390000D01*
X54485000Y-54610000D02*
X54485000Y-53560000D01*
X51785000Y-54610000D02*
X54485000Y-54610000D01*
X54485000Y-44440000D02*
X55275000Y-44440000D01*
X54485000Y-43390000D02*
X54485000Y-44440000D01*
X51785000Y-43390000D02*
X54485000Y-43390000D01*
D11*
X85870000Y-33170000D02*
X85870000Y-71270000D01*
X85870000Y-71270000D02*
X88410000Y-71270000D01*
X88410000Y-71270000D02*
X88410000Y-33170000D01*
X88410000Y-33170000D02*
X85870000Y-33170000D01*
X111550000Y-71550000D02*
X108450000Y-71550000D01*
X111550000Y-70000000D02*
X111550000Y-71550000D01*
X108730000Y-68730000D02*
X111270000Y-68730000D01*
X108450000Y-71550000D02*
X108450000Y-70000000D01*
X108730000Y-33170000D02*
X108730000Y-68730000D01*
X111270000Y-33170000D02*
X108730000Y-33170000D01*
X111270000Y-68730000D02*
X111270000Y-33170000D01*
D13*
X63450000Y-48500000D02*
G75*
G03X63450000Y-48500000I-950000J0D01*
G01*
X63450000Y-51500000D02*
G75*
G03X63450000Y-51500000I-950000J0D01*
G01*
X60950000Y-53000000D02*
G75*
G03X60950000Y-53000000I-950000J0D01*
G01*
X60950000Y-50000000D02*
G75*
G03X60950000Y-50000000I-950000J0D01*
G01*
X60950000Y-47000000D02*
G75*
G03X60950000Y-47000000I-950000J0D01*
G01*
X48300000Y-36300000D02*
X51700000Y-36300000D01*
X48300000Y-39700000D02*
X48300000Y-36300000D01*
X51700000Y-39700000D02*
X48300000Y-39700000D01*
X51700000Y-36300000D02*
X51700000Y-39700000D01*
X101610000Y-45900000D02*
X101610000Y-43450000D01*
X98390000Y-44100000D02*
X98390000Y-45900000D01*
X75710000Y-61196078D02*
X75710000Y-60678922D01*
X74290000Y-61196078D02*
X74290000Y-60678922D01*
X80710000Y-61196078D02*
X80710000Y-60678922D01*
X79290000Y-61196078D02*
X79290000Y-60678922D01*
X51890000Y-28915000D02*
X51890000Y-29465000D01*
X63110000Y-28915000D02*
X51890000Y-28915000D01*
X63110000Y-29465000D02*
X63110000Y-28915000D01*
X51890000Y-34485000D02*
X52940000Y-34485000D01*
X51890000Y-31785000D02*
X51890000Y-34485000D01*
X62060000Y-34485000D02*
X62060000Y-35275000D01*
X63110000Y-34485000D02*
X62060000Y-34485000D01*
X63110000Y-31785000D02*
X63110000Y-34485000D01*
D12*
X75150000Y-42350000D02*
G75*
G03X75150000Y-42350000I-100000J0D01*
G01*
D14*
X70000000Y-35600000D02*
X70000000Y-37100000D01*
X70000000Y-41500000D02*
X70000000Y-40300000D01*
X73650000Y-41500000D02*
X70000000Y-41500000D01*
X80000000Y-41500000D02*
X76350000Y-41500000D01*
X80000000Y-40300000D02*
X80000000Y-41500000D01*
X80000000Y-35600000D02*
X80000000Y-37000000D01*
X70000000Y-28500000D02*
X70000000Y-32300000D01*
X80000000Y-28500000D02*
X70000000Y-28500000D01*
X80000000Y-32200000D02*
X80000000Y-28500000D01*
D13*
X103210000Y-38786252D02*
X103210000Y-38263748D01*
X101790000Y-38786252D02*
X101790000Y-38263748D01*
X98210000Y-38786252D02*
X98210000Y-38263748D01*
X96790000Y-38786252D02*
X96790000Y-38263748D01*
D11*
X52166666Y-41202380D02*
X52166666Y-41916666D01*
X52119047Y-42059523D01*
X52023809Y-42154761D01*
X51880952Y-42202380D01*
X51785714Y-42202380D01*
X52547619Y-41202380D02*
X53166666Y-41202380D01*
X52833333Y-41583333D01*
X52976190Y-41583333D01*
X53071428Y-41630952D01*
X53119047Y-41678571D01*
X53166666Y-41773809D01*
X53166666Y-42011904D01*
X53119047Y-42107142D01*
X53071428Y-42154761D01*
X52976190Y-42202380D01*
X52690476Y-42202380D01*
X52595238Y-42154761D01*
X52547619Y-42107142D01*
X51952380Y-63261904D02*
X50952380Y-63261904D01*
X51428571Y-63261904D02*
X51428571Y-62690476D01*
X51952380Y-62690476D02*
X50952380Y-62690476D01*
X51047619Y-62261904D02*
X51000000Y-62214285D01*
X50952380Y-62119047D01*
X50952380Y-61880952D01*
X51000000Y-61785714D01*
X51047619Y-61738095D01*
X51142857Y-61690476D01*
X51238095Y-61690476D01*
X51380952Y-61738095D01*
X51952380Y-62309523D01*
X51952380Y-61690476D01*
X61952380Y-63261904D02*
X60952380Y-63261904D01*
X61428571Y-63261904D02*
X61428571Y-62690476D01*
X61952380Y-62690476D02*
X60952380Y-62690476D01*
X61952380Y-61690476D02*
X61952380Y-62261904D01*
X61952380Y-61976190D02*
X60952380Y-61976190D01*
X61095238Y-62071428D01*
X61190476Y-62166666D01*
X61238095Y-62261904D01*
X91952380Y-33261904D02*
X92761904Y-33261904D01*
X92857142Y-33214285D01*
X92904761Y-33166666D01*
X92952380Y-33071428D01*
X92952380Y-32880952D01*
X92904761Y-32785714D01*
X92857142Y-32738095D01*
X92761904Y-32690476D01*
X91952380Y-32690476D01*
X92047619Y-32261904D02*
X92000000Y-32214285D01*
X91952380Y-32119047D01*
X91952380Y-31880952D01*
X92000000Y-31785714D01*
X92047619Y-31738095D01*
X92142857Y-31690476D01*
X92238095Y-31690476D01*
X92380952Y-31738095D01*
X92952380Y-32309523D01*
X92952380Y-31690476D01*
X63600380Y-49761904D02*
X63600380Y-49190476D01*
X64600380Y-49476190D02*
X63600380Y-49476190D01*
X64600380Y-48857142D02*
X63600380Y-48857142D01*
X63600380Y-48476190D01*
X63648000Y-48380952D01*
X63695619Y-48333333D01*
X63790857Y-48285714D01*
X63933714Y-48285714D01*
X64028952Y-48333333D01*
X64076571Y-48380952D01*
X64124190Y-48476190D01*
X64124190Y-48857142D01*
X63600380Y-47380952D02*
X63600380Y-47857142D01*
X64076571Y-47904761D01*
X64028952Y-47857142D01*
X63981333Y-47761904D01*
X63981333Y-47523809D01*
X64028952Y-47428571D01*
X64076571Y-47380952D01*
X64171809Y-47333333D01*
X64409904Y-47333333D01*
X64505142Y-47380952D01*
X64552761Y-47428571D01*
X64600380Y-47523809D01*
X64600380Y-47761904D01*
X64552761Y-47857142D01*
X64505142Y-47904761D01*
X63600380Y-52761904D02*
X63600380Y-52190476D01*
X64600380Y-52476190D02*
X63600380Y-52476190D01*
X64600380Y-51857142D02*
X63600380Y-51857142D01*
X63600380Y-51476190D01*
X63648000Y-51380952D01*
X63695619Y-51333333D01*
X63790857Y-51285714D01*
X63933714Y-51285714D01*
X64028952Y-51333333D01*
X64076571Y-51380952D01*
X64124190Y-51476190D01*
X64124190Y-51857142D01*
X63933714Y-50428571D02*
X64600380Y-50428571D01*
X63552761Y-50666666D02*
X64267047Y-50904761D01*
X64267047Y-50285714D01*
X57804380Y-54261904D02*
X57804380Y-53690476D01*
X58804380Y-53976190D02*
X57804380Y-53976190D01*
X58804380Y-53357142D02*
X57804380Y-53357142D01*
X57804380Y-52976190D01*
X57852000Y-52880952D01*
X57899619Y-52833333D01*
X57994857Y-52785714D01*
X58137714Y-52785714D01*
X58232952Y-52833333D01*
X58280571Y-52880952D01*
X58328190Y-52976190D01*
X58328190Y-53357142D01*
X57804380Y-52452380D02*
X57804380Y-51833333D01*
X58185333Y-52166666D01*
X58185333Y-52023809D01*
X58232952Y-51928571D01*
X58280571Y-51880952D01*
X58375809Y-51833333D01*
X58613904Y-51833333D01*
X58709142Y-51880952D01*
X58756761Y-51928571D01*
X58804380Y-52023809D01*
X58804380Y-52309523D01*
X58756761Y-52404761D01*
X58709142Y-52452380D01*
X57804380Y-51261904D02*
X57804380Y-50690476D01*
X58804380Y-50976190D02*
X57804380Y-50976190D01*
X58804380Y-50357142D02*
X57804380Y-50357142D01*
X57804380Y-49976190D01*
X57852000Y-49880952D01*
X57899619Y-49833333D01*
X57994857Y-49785714D01*
X58137714Y-49785714D01*
X58232952Y-49833333D01*
X58280571Y-49880952D01*
X58328190Y-49976190D01*
X58328190Y-50357142D01*
X57899619Y-49404761D02*
X57852000Y-49357142D01*
X57804380Y-49261904D01*
X57804380Y-49023809D01*
X57852000Y-48928571D01*
X57899619Y-48880952D01*
X57994857Y-48833333D01*
X58090095Y-48833333D01*
X58232952Y-48880952D01*
X58804380Y-49452380D01*
X58804380Y-48833333D01*
X57804380Y-48261904D02*
X57804380Y-47690476D01*
X58804380Y-47976190D02*
X57804380Y-47976190D01*
X58804380Y-47357142D02*
X57804380Y-47357142D01*
X57804380Y-46976190D01*
X57852000Y-46880952D01*
X57899619Y-46833333D01*
X57994857Y-46785714D01*
X58137714Y-46785714D01*
X58232952Y-46833333D01*
X58280571Y-46880952D01*
X58328190Y-46976190D01*
X58328190Y-47357142D01*
X58804380Y-45833333D02*
X58804380Y-46404761D01*
X58804380Y-46119047D02*
X57804380Y-46119047D01*
X57947238Y-46214285D01*
X58042476Y-46309523D01*
X58090095Y-46404761D01*
X51850380Y-39261904D02*
X51850380Y-38690476D01*
X52850380Y-38976190D02*
X51850380Y-38976190D01*
X52850380Y-38357142D02*
X51850380Y-38357142D01*
X51850380Y-37976190D01*
X51898000Y-37880952D01*
X51945619Y-37833333D01*
X52040857Y-37785714D01*
X52183714Y-37785714D01*
X52278952Y-37833333D01*
X52326571Y-37880952D01*
X52374190Y-37976190D01*
X52374190Y-38357142D01*
X51850380Y-36928571D02*
X51850380Y-37119047D01*
X51898000Y-37214285D01*
X51945619Y-37261904D01*
X52088476Y-37357142D01*
X52278952Y-37404761D01*
X52659904Y-37404761D01*
X52755142Y-37357142D01*
X52802761Y-37309523D01*
X52850380Y-37214285D01*
X52850380Y-37023809D01*
X52802761Y-36928571D01*
X52755142Y-36880952D01*
X52659904Y-36833333D01*
X52421809Y-36833333D01*
X52326571Y-36880952D01*
X52278952Y-36928571D01*
X52231333Y-37023809D01*
X52231333Y-37214285D01*
X52278952Y-37309523D01*
X52326571Y-37357142D01*
X52421809Y-37404761D01*
X102352380Y-45761904D02*
X103161904Y-45761904D01*
X103257142Y-45714285D01*
X103304761Y-45666666D01*
X103352380Y-45571428D01*
X103352380Y-45380952D01*
X103304761Y-45285714D01*
X103257142Y-45238095D01*
X103161904Y-45190476D01*
X102352380Y-45190476D01*
X103352380Y-44190476D02*
X103352380Y-44761904D01*
X103352380Y-44476190D02*
X102352380Y-44476190D01*
X102495238Y-44571428D01*
X102590476Y-44666666D01*
X102638095Y-44761904D01*
X73802380Y-61104166D02*
X73326190Y-61437500D01*
X73802380Y-61675595D02*
X72802380Y-61675595D01*
X72802380Y-61294642D01*
X72850000Y-61199404D01*
X72897619Y-61151785D01*
X72992857Y-61104166D01*
X73135714Y-61104166D01*
X73230952Y-61151785D01*
X73278571Y-61199404D01*
X73326190Y-61294642D01*
X73326190Y-61675595D01*
X72802380Y-60770833D02*
X72802380Y-60151785D01*
X73183333Y-60485119D01*
X73183333Y-60342261D01*
X73230952Y-60247023D01*
X73278571Y-60199404D01*
X73373809Y-60151785D01*
X73611904Y-60151785D01*
X73707142Y-60199404D01*
X73754761Y-60247023D01*
X73802380Y-60342261D01*
X73802380Y-60627976D01*
X73754761Y-60723214D01*
X73707142Y-60770833D01*
X78802380Y-61104166D02*
X78326190Y-61437500D01*
X78802380Y-61675595D02*
X77802380Y-61675595D01*
X77802380Y-61294642D01*
X77850000Y-61199404D01*
X77897619Y-61151785D01*
X77992857Y-61104166D01*
X78135714Y-61104166D01*
X78230952Y-61151785D01*
X78278571Y-61199404D01*
X78326190Y-61294642D01*
X78326190Y-61675595D01*
X77897619Y-60723214D02*
X77850000Y-60675595D01*
X77802380Y-60580357D01*
X77802380Y-60342261D01*
X77850000Y-60247023D01*
X77897619Y-60199404D01*
X77992857Y-60151785D01*
X78088095Y-60151785D01*
X78230952Y-60199404D01*
X78802380Y-60770833D01*
X78802380Y-60151785D01*
X49702380Y-32833333D02*
X50416666Y-32833333D01*
X50559523Y-32880952D01*
X50654761Y-32976190D01*
X50702380Y-33119047D01*
X50702380Y-33214285D01*
X49797619Y-32404761D02*
X49750000Y-32357142D01*
X49702380Y-32261904D01*
X49702380Y-32023809D01*
X49750000Y-31928571D01*
X49797619Y-31880952D01*
X49892857Y-31833333D01*
X49988095Y-31833333D01*
X50130952Y-31880952D01*
X50702380Y-32452380D01*
X50702380Y-31833333D01*
X67952380Y-31808333D02*
X68666666Y-31808333D01*
X68809523Y-31855952D01*
X68904761Y-31951190D01*
X68952380Y-32094047D01*
X68952380Y-32189285D01*
X68952380Y-30808333D02*
X68952380Y-31379761D01*
X68952380Y-31094047D02*
X67952380Y-31094047D01*
X68095238Y-31189285D01*
X68190476Y-31284523D01*
X68238095Y-31379761D01*
X101207142Y-38691666D02*
X101254761Y-38739285D01*
X101302380Y-38882142D01*
X101302380Y-38977380D01*
X101254761Y-39120238D01*
X101159523Y-39215476D01*
X101064285Y-39263095D01*
X100873809Y-39310714D01*
X100730952Y-39310714D01*
X100540476Y-39263095D01*
X100445238Y-39215476D01*
X100350000Y-39120238D01*
X100302380Y-38977380D01*
X100302380Y-38882142D01*
X100350000Y-38739285D01*
X100397619Y-38691666D01*
X100397619Y-38310714D02*
X100350000Y-38263095D01*
X100302380Y-38167857D01*
X100302380Y-37929761D01*
X100350000Y-37834523D01*
X100397619Y-37786904D01*
X100492857Y-37739285D01*
X100588095Y-37739285D01*
X100730952Y-37786904D01*
X101302380Y-38358333D01*
X101302380Y-37739285D01*
X96207142Y-38691666D02*
X96254761Y-38739285D01*
X96302380Y-38882142D01*
X96302380Y-38977380D01*
X96254761Y-39120238D01*
X96159523Y-39215476D01*
X96064285Y-39263095D01*
X95873809Y-39310714D01*
X95730952Y-39310714D01*
X95540476Y-39263095D01*
X95445238Y-39215476D01*
X95350000Y-39120238D01*
X95302380Y-38977380D01*
X95302380Y-38882142D01*
X95350000Y-38739285D01*
X95397619Y-38691666D01*
X96302380Y-37739285D02*
X96302380Y-38310714D01*
X96302380Y-38025000D02*
X95302380Y-38025000D01*
X95445238Y-38120238D01*
X95540476Y-38215476D01*
X95588095Y-38310714D01*
M02*
