M48
; DRILL file {KiCad 5.1.5-52549c5~84~ubuntu18.04.1} date Mon 16 Mar 2020 02:25:58 GMT
; FORMAT={-:-/ absolute / inch / decimal}
; #@! TF.CreationDate,2020-03-16T02:25:58+00:00
; #@! TF.GenerationSoftware,Kicad,Pcbnew,5.1.5-52549c5~84~ubuntu18.04.1
; #@! TF.FileFunction,Plated,1,2,PTH
FMAT,2
INCH
T1C0.0157
T2C0.0315
T3C0.0400
T4C0.0551
%
G90
G05
T1
X2.0866Y-1.9685
X2.126Y-1.4961
X2.1949Y-1.7323
X2.2047Y-2.0276
X2.2146Y-1.7717
X2.2343Y-1.7323
X2.3228Y-1.6634
X2.3327Y-1.7224
X2.3332Y-1.7623
X2.3504Y-1.5925
X2.372Y-1.6634
X2.3858Y-1.628
X2.4114Y-1.7913
X2.4213Y-1.4272
X2.4213Y-1.6634
X2.4213Y-1.9685
X2.4508Y-1.7913
X2.4606Y-1.4075
X2.4606Y-1.4469
X2.4606Y-1.8504
X2.5984Y-1.811
X2.5984Y-2.0079
X2.6181Y-1.1811
X2.6181Y-1.3386
X2.628Y-2.2047
X2.6772Y-1.1811
X2.6772Y-1.3386
X2.6772Y-1.8898
X2.7067Y-2.2835
X2.7559Y-1.811
X2.7559Y-2.0866
X2.8346Y-2.1654
X2.8543Y-2.6575
X2.8937Y-2.3031
X2.9528Y-2.3031
X2.9528Y-2.6575
X3.0315Y-1.752
X3.0315Y-2.4409
X3.0512Y-2.6575
X3.1004Y-1.8701
X3.1496Y-2.6575
X3.1693Y-1.811
X3.1693Y-2.1654
X3.248Y-2.6575
X3.3071Y-2.4016
X3.6417Y-1.9685
X3.6417Y-2.0669
X3.6417Y-2.6575
X3.6417Y-2.7559
X3.7992Y-1.3976
X3.8386Y-1.3976
X3.8671Y-1.7028
X3.878Y-1.3976
X3.8976Y-1.6339
X3.9567Y-1.8898
X3.9764Y-1.6339
X3.9961Y-1.3976
X4.0354Y-1.3976
X4.0748Y-1.3976
X4.1339Y-1.9685
X4.1339Y-2.0669
X4.1339Y-2.6575
X4.1339Y-2.7559
T3
X3.4307Y-1.3559
X3.4307Y-1.4559
X3.4307Y-1.5559
X3.4307Y-1.6559
X3.4307Y-1.7559
X3.4307Y-1.8559
X3.4307Y-1.9559
X3.4307Y-2.0559
X3.4307Y-2.1559
X3.4307Y-2.2559
X3.4307Y-2.3559
X3.4307Y-2.4559
X3.4307Y-2.5559
X3.4307Y-2.6559
X3.4307Y-2.7559
X4.3307Y-1.3559
X4.3307Y-1.4559
X4.3307Y-1.5559
X4.3307Y-1.6559
X4.3307Y-1.7559
X4.3307Y-1.8559
X4.3307Y-1.9559
X4.3307Y-2.0559
X4.3307Y-2.1559
X4.3307Y-2.2559
X4.3307Y-2.3559
X4.3307Y-2.4559
X4.3307Y-2.5559
X4.3307Y-2.6559
X4.3307Y-2.7559
T4
X2.9528Y-1.5945
T2
G00X2.7657Y-1.315
M15
G01X2.7657Y-1.3622
M16
G05
G00X2.7657Y-1.5
M15
G01X2.7657Y-1.5472
M16
G05
G00X2.9961Y-1.3583
M15
G01X2.9094Y-1.3583
M16
G05
G00X3.1398Y-1.315
M15
G01X3.1398Y-1.3622
M16
G05
G00X3.1398Y-1.5
M15
G01X3.1398Y-1.5472
M16
G05
T0
M30
