G04 #@! TF.GenerationSoftware,KiCad,Pcbnew,5.1.5-52549c5~86~ubuntu18.04.1*
G04 #@! TF.CreationDate,2020-04-27T18:24:23+01:00*
G04 #@! TF.ProjectId,polariser_drive,706f6c61-7269-4736-9572-5f6472697665,rev?*
G04 #@! TF.SameCoordinates,Original*
G04 #@! TF.FileFunction,Paste,Top*
G04 #@! TF.FilePolarity,Positive*
%FSLAX46Y46*%
G04 Gerber Fmt 4.6, Leading zero omitted, Abs format (unit mm)*
G04 Created by KiCad (PCBNEW 5.1.5-52549c5~86~ubuntu18.04.1) date 2020-04-27 18:24:23*
%MOMM*%
%LPD*%
G04 APERTURE LIST*
%ADD10C,0.100000*%
%ADD11R,3.000000X0.700000*%
%ADD12R,0.700000X3.000000*%
%ADD13C,3.200000*%
%ADD14R,0.650000X1.060000*%
G04 APERTURE END LIST*
D10*
G36*
X111573513Y-68753611D02*
G01*
X111646318Y-68764411D01*
X111717714Y-68782295D01*
X111787013Y-68807090D01*
X111853548Y-68838559D01*
X111916678Y-68876398D01*
X111975795Y-68920242D01*
X112030330Y-68969670D01*
X112079758Y-69024205D01*
X112123602Y-69083322D01*
X112161441Y-69146452D01*
X112192910Y-69212987D01*
X112217705Y-69282286D01*
X112235589Y-69353682D01*
X112246389Y-69426487D01*
X112250000Y-69500000D01*
X112250000Y-71000000D01*
X112246389Y-71073513D01*
X112235589Y-71146318D01*
X112217705Y-71217714D01*
X112192910Y-71287013D01*
X112161441Y-71353548D01*
X112123602Y-71416678D01*
X112079758Y-71475795D01*
X112030330Y-71530330D01*
X111975795Y-71579758D01*
X111916678Y-71623602D01*
X111853548Y-71661441D01*
X111787013Y-71692910D01*
X111717714Y-71717705D01*
X111646318Y-71735589D01*
X111573513Y-71746389D01*
X111500000Y-71750000D01*
X110000000Y-71750000D01*
X109926487Y-71746389D01*
X109853682Y-71735589D01*
X109782286Y-71717705D01*
X109712987Y-71692910D01*
X109646452Y-71661441D01*
X109583322Y-71623602D01*
X109524205Y-71579758D01*
X109469670Y-71530330D01*
X109420242Y-71475795D01*
X109376398Y-71416678D01*
X109338559Y-71353548D01*
X109307090Y-71287013D01*
X109282295Y-71217714D01*
X109264411Y-71146318D01*
X109253611Y-71073513D01*
X109250000Y-71000000D01*
X109250000Y-69500000D01*
X109253611Y-69426487D01*
X109264411Y-69353682D01*
X109282295Y-69282286D01*
X109307090Y-69212987D01*
X109338559Y-69146452D01*
X109376398Y-69083322D01*
X109420242Y-69024205D01*
X109469670Y-68969670D01*
X109524205Y-68920242D01*
X109583322Y-68876398D01*
X109646452Y-68838559D01*
X109712987Y-68807090D01*
X109782286Y-68782295D01*
X109853682Y-68764411D01*
X109926487Y-68753611D01*
X110000000Y-68750000D01*
X111500000Y-68750000D01*
X111573513Y-68753611D01*
G37*
G36*
X111573513Y-52753611D02*
G01*
X111646318Y-52764411D01*
X111717714Y-52782295D01*
X111787013Y-52807090D01*
X111853548Y-52838559D01*
X111916678Y-52876398D01*
X111975795Y-52920242D01*
X112030330Y-52969670D01*
X112079758Y-53024205D01*
X112123602Y-53083322D01*
X112161441Y-53146452D01*
X112192910Y-53212987D01*
X112217705Y-53282286D01*
X112235589Y-53353682D01*
X112246389Y-53426487D01*
X112250000Y-53500000D01*
X112250000Y-55000000D01*
X112246389Y-55073513D01*
X112235589Y-55146318D01*
X112217705Y-55217714D01*
X112192910Y-55287013D01*
X112161441Y-55353548D01*
X112123602Y-55416678D01*
X112079758Y-55475795D01*
X112030330Y-55530330D01*
X111975795Y-55579758D01*
X111916678Y-55623602D01*
X111853548Y-55661441D01*
X111787013Y-55692910D01*
X111717714Y-55717705D01*
X111646318Y-55735589D01*
X111573513Y-55746389D01*
X111500000Y-55750000D01*
X110000000Y-55750000D01*
X109926487Y-55746389D01*
X109853682Y-55735589D01*
X109782286Y-55717705D01*
X109712987Y-55692910D01*
X109646452Y-55661441D01*
X109583322Y-55623602D01*
X109524205Y-55579758D01*
X109469670Y-55530330D01*
X109420242Y-55475795D01*
X109376398Y-55416678D01*
X109338559Y-55353548D01*
X109307090Y-55287013D01*
X109282295Y-55217714D01*
X109264411Y-55146318D01*
X109253611Y-55073513D01*
X109250000Y-55000000D01*
X109250000Y-53500000D01*
X109253611Y-53426487D01*
X109264411Y-53353682D01*
X109282295Y-53282286D01*
X109307090Y-53212987D01*
X109338559Y-53146452D01*
X109376398Y-53083322D01*
X109420242Y-53024205D01*
X109469670Y-52969670D01*
X109524205Y-52920242D01*
X109583322Y-52876398D01*
X109646452Y-52838559D01*
X109712987Y-52807090D01*
X109782286Y-52782295D01*
X109853682Y-52764411D01*
X109926487Y-52753611D01*
X110000000Y-52750000D01*
X111500000Y-52750000D01*
X111573513Y-52753611D01*
G37*
D11*
X107750000Y-58250000D03*
X107750000Y-59250000D03*
X107750000Y-60250000D03*
X107750000Y-61250000D03*
X107750000Y-62250000D03*
X107750000Y-63250000D03*
X107750000Y-64250000D03*
X107750000Y-65250000D03*
X107750000Y-66250000D03*
D10*
G36*
X53073513Y-100253611D02*
G01*
X53146318Y-100264411D01*
X53217714Y-100282295D01*
X53287013Y-100307090D01*
X53353548Y-100338559D01*
X53416678Y-100376398D01*
X53475795Y-100420242D01*
X53530330Y-100469670D01*
X53579758Y-100524205D01*
X53623602Y-100583322D01*
X53661441Y-100646452D01*
X53692910Y-100712987D01*
X53717705Y-100782286D01*
X53735589Y-100853682D01*
X53746389Y-100926487D01*
X53750000Y-101000000D01*
X53750000Y-102500000D01*
X53746389Y-102573513D01*
X53735589Y-102646318D01*
X53717705Y-102717714D01*
X53692910Y-102787013D01*
X53661441Y-102853548D01*
X53623602Y-102916678D01*
X53579758Y-102975795D01*
X53530330Y-103030330D01*
X53475795Y-103079758D01*
X53416678Y-103123602D01*
X53353548Y-103161441D01*
X53287013Y-103192910D01*
X53217714Y-103217705D01*
X53146318Y-103235589D01*
X53073513Y-103246389D01*
X53000000Y-103250000D01*
X51500000Y-103250000D01*
X51426487Y-103246389D01*
X51353682Y-103235589D01*
X51282286Y-103217705D01*
X51212987Y-103192910D01*
X51146452Y-103161441D01*
X51083322Y-103123602D01*
X51024205Y-103079758D01*
X50969670Y-103030330D01*
X50920242Y-102975795D01*
X50876398Y-102916678D01*
X50838559Y-102853548D01*
X50807090Y-102787013D01*
X50782295Y-102717714D01*
X50764411Y-102646318D01*
X50753611Y-102573513D01*
X50750000Y-102500000D01*
X50750000Y-101000000D01*
X50753611Y-100926487D01*
X50764411Y-100853682D01*
X50782295Y-100782286D01*
X50807090Y-100712987D01*
X50838559Y-100646452D01*
X50876398Y-100583322D01*
X50920242Y-100524205D01*
X50969670Y-100469670D01*
X51024205Y-100420242D01*
X51083322Y-100376398D01*
X51146452Y-100338559D01*
X51212987Y-100307090D01*
X51282286Y-100282295D01*
X51353682Y-100264411D01*
X51426487Y-100253611D01*
X51500000Y-100250000D01*
X53000000Y-100250000D01*
X53073513Y-100253611D01*
G37*
G36*
X53073513Y-116253611D02*
G01*
X53146318Y-116264411D01*
X53217714Y-116282295D01*
X53287013Y-116307090D01*
X53353548Y-116338559D01*
X53416678Y-116376398D01*
X53475795Y-116420242D01*
X53530330Y-116469670D01*
X53579758Y-116524205D01*
X53623602Y-116583322D01*
X53661441Y-116646452D01*
X53692910Y-116712987D01*
X53717705Y-116782286D01*
X53735589Y-116853682D01*
X53746389Y-116926487D01*
X53750000Y-117000000D01*
X53750000Y-118500000D01*
X53746389Y-118573513D01*
X53735589Y-118646318D01*
X53717705Y-118717714D01*
X53692910Y-118787013D01*
X53661441Y-118853548D01*
X53623602Y-118916678D01*
X53579758Y-118975795D01*
X53530330Y-119030330D01*
X53475795Y-119079758D01*
X53416678Y-119123602D01*
X53353548Y-119161441D01*
X53287013Y-119192910D01*
X53217714Y-119217705D01*
X53146318Y-119235589D01*
X53073513Y-119246389D01*
X53000000Y-119250000D01*
X51500000Y-119250000D01*
X51426487Y-119246389D01*
X51353682Y-119235589D01*
X51282286Y-119217705D01*
X51212987Y-119192910D01*
X51146452Y-119161441D01*
X51083322Y-119123602D01*
X51024205Y-119079758D01*
X50969670Y-119030330D01*
X50920242Y-118975795D01*
X50876398Y-118916678D01*
X50838559Y-118853548D01*
X50807090Y-118787013D01*
X50782295Y-118717714D01*
X50764411Y-118646318D01*
X50753611Y-118573513D01*
X50750000Y-118500000D01*
X50750000Y-117000000D01*
X50753611Y-116926487D01*
X50764411Y-116853682D01*
X50782295Y-116782286D01*
X50807090Y-116712987D01*
X50838559Y-116646452D01*
X50876398Y-116583322D01*
X50920242Y-116524205D01*
X50969670Y-116469670D01*
X51024205Y-116420242D01*
X51083322Y-116376398D01*
X51146452Y-116338559D01*
X51212987Y-116307090D01*
X51282286Y-116282295D01*
X51353682Y-116264411D01*
X51426487Y-116253611D01*
X51500000Y-116250000D01*
X53000000Y-116250000D01*
X53073513Y-116253611D01*
G37*
D11*
X55250000Y-113750000D03*
X55250000Y-112750000D03*
X55250000Y-111750000D03*
X55250000Y-110750000D03*
X55250000Y-109750000D03*
X55250000Y-108750000D03*
X55250000Y-107750000D03*
X55250000Y-106750000D03*
X55250000Y-105750000D03*
D10*
G36*
X95573513Y-78503611D02*
G01*
X95646318Y-78514411D01*
X95717714Y-78532295D01*
X95787013Y-78557090D01*
X95853548Y-78588559D01*
X95916678Y-78626398D01*
X95975795Y-78670242D01*
X96030330Y-78719670D01*
X96079758Y-78774205D01*
X96123602Y-78833322D01*
X96161441Y-78896452D01*
X96192910Y-78962987D01*
X96217705Y-79032286D01*
X96235589Y-79103682D01*
X96246389Y-79176487D01*
X96250000Y-79250000D01*
X96250000Y-80750000D01*
X96246389Y-80823513D01*
X96235589Y-80896318D01*
X96217705Y-80967714D01*
X96192910Y-81037013D01*
X96161441Y-81103548D01*
X96123602Y-81166678D01*
X96079758Y-81225795D01*
X96030330Y-81280330D01*
X95975795Y-81329758D01*
X95916678Y-81373602D01*
X95853548Y-81411441D01*
X95787013Y-81442910D01*
X95717714Y-81467705D01*
X95646318Y-81485589D01*
X95573513Y-81496389D01*
X95500000Y-81500000D01*
X94000000Y-81500000D01*
X93926487Y-81496389D01*
X93853682Y-81485589D01*
X93782286Y-81467705D01*
X93712987Y-81442910D01*
X93646452Y-81411441D01*
X93583322Y-81373602D01*
X93524205Y-81329758D01*
X93469670Y-81280330D01*
X93420242Y-81225795D01*
X93376398Y-81166678D01*
X93338559Y-81103548D01*
X93307090Y-81037013D01*
X93282295Y-80967714D01*
X93264411Y-80896318D01*
X93253611Y-80823513D01*
X93250000Y-80750000D01*
X93250000Y-79250000D01*
X93253611Y-79176487D01*
X93264411Y-79103682D01*
X93282295Y-79032286D01*
X93307090Y-78962987D01*
X93338559Y-78896452D01*
X93376398Y-78833322D01*
X93420242Y-78774205D01*
X93469670Y-78719670D01*
X93524205Y-78670242D01*
X93583322Y-78626398D01*
X93646452Y-78588559D01*
X93712987Y-78557090D01*
X93782286Y-78532295D01*
X93853682Y-78514411D01*
X93926487Y-78503611D01*
X94000000Y-78500000D01*
X95500000Y-78500000D01*
X95573513Y-78503611D01*
G37*
G36*
X111573513Y-78503611D02*
G01*
X111646318Y-78514411D01*
X111717714Y-78532295D01*
X111787013Y-78557090D01*
X111853548Y-78588559D01*
X111916678Y-78626398D01*
X111975795Y-78670242D01*
X112030330Y-78719670D01*
X112079758Y-78774205D01*
X112123602Y-78833322D01*
X112161441Y-78896452D01*
X112192910Y-78962987D01*
X112217705Y-79032286D01*
X112235589Y-79103682D01*
X112246389Y-79176487D01*
X112250000Y-79250000D01*
X112250000Y-80750000D01*
X112246389Y-80823513D01*
X112235589Y-80896318D01*
X112217705Y-80967714D01*
X112192910Y-81037013D01*
X112161441Y-81103548D01*
X112123602Y-81166678D01*
X112079758Y-81225795D01*
X112030330Y-81280330D01*
X111975795Y-81329758D01*
X111916678Y-81373602D01*
X111853548Y-81411441D01*
X111787013Y-81442910D01*
X111717714Y-81467705D01*
X111646318Y-81485589D01*
X111573513Y-81496389D01*
X111500000Y-81500000D01*
X110000000Y-81500000D01*
X109926487Y-81496389D01*
X109853682Y-81485589D01*
X109782286Y-81467705D01*
X109712987Y-81442910D01*
X109646452Y-81411441D01*
X109583322Y-81373602D01*
X109524205Y-81329758D01*
X109469670Y-81280330D01*
X109420242Y-81225795D01*
X109376398Y-81166678D01*
X109338559Y-81103548D01*
X109307090Y-81037013D01*
X109282295Y-80967714D01*
X109264411Y-80896318D01*
X109253611Y-80823513D01*
X109250000Y-80750000D01*
X109250000Y-79250000D01*
X109253611Y-79176487D01*
X109264411Y-79103682D01*
X109282295Y-79032286D01*
X109307090Y-78962987D01*
X109338559Y-78896452D01*
X109376398Y-78833322D01*
X109420242Y-78774205D01*
X109469670Y-78719670D01*
X109524205Y-78670242D01*
X109583322Y-78626398D01*
X109646452Y-78588559D01*
X109712987Y-78557090D01*
X109782286Y-78532295D01*
X109853682Y-78514411D01*
X109926487Y-78503611D01*
X110000000Y-78500000D01*
X111500000Y-78500000D01*
X111573513Y-78503611D01*
G37*
D12*
X106750000Y-77000000D03*
X105750000Y-77000000D03*
X104750000Y-77000000D03*
X103750000Y-77000000D03*
X102750000Y-77000000D03*
X101750000Y-77000000D03*
X100750000Y-77000000D03*
X99750000Y-77000000D03*
X98750000Y-77000000D03*
D10*
G36*
X69073513Y-90503611D02*
G01*
X69146318Y-90514411D01*
X69217714Y-90532295D01*
X69287013Y-90557090D01*
X69353548Y-90588559D01*
X69416678Y-90626398D01*
X69475795Y-90670242D01*
X69530330Y-90719670D01*
X69579758Y-90774205D01*
X69623602Y-90833322D01*
X69661441Y-90896452D01*
X69692910Y-90962987D01*
X69717705Y-91032286D01*
X69735589Y-91103682D01*
X69746389Y-91176487D01*
X69750000Y-91250000D01*
X69750000Y-92750000D01*
X69746389Y-92823513D01*
X69735589Y-92896318D01*
X69717705Y-92967714D01*
X69692910Y-93037013D01*
X69661441Y-93103548D01*
X69623602Y-93166678D01*
X69579758Y-93225795D01*
X69530330Y-93280330D01*
X69475795Y-93329758D01*
X69416678Y-93373602D01*
X69353548Y-93411441D01*
X69287013Y-93442910D01*
X69217714Y-93467705D01*
X69146318Y-93485589D01*
X69073513Y-93496389D01*
X69000000Y-93500000D01*
X67500000Y-93500000D01*
X67426487Y-93496389D01*
X67353682Y-93485589D01*
X67282286Y-93467705D01*
X67212987Y-93442910D01*
X67146452Y-93411441D01*
X67083322Y-93373602D01*
X67024205Y-93329758D01*
X66969670Y-93280330D01*
X66920242Y-93225795D01*
X66876398Y-93166678D01*
X66838559Y-93103548D01*
X66807090Y-93037013D01*
X66782295Y-92967714D01*
X66764411Y-92896318D01*
X66753611Y-92823513D01*
X66750000Y-92750000D01*
X66750000Y-91250000D01*
X66753611Y-91176487D01*
X66764411Y-91103682D01*
X66782295Y-91032286D01*
X66807090Y-90962987D01*
X66838559Y-90896452D01*
X66876398Y-90833322D01*
X66920242Y-90774205D01*
X66969670Y-90719670D01*
X67024205Y-90670242D01*
X67083322Y-90626398D01*
X67146452Y-90588559D01*
X67212987Y-90557090D01*
X67282286Y-90532295D01*
X67353682Y-90514411D01*
X67426487Y-90503611D01*
X67500000Y-90500000D01*
X69000000Y-90500000D01*
X69073513Y-90503611D01*
G37*
G36*
X53073513Y-90503611D02*
G01*
X53146318Y-90514411D01*
X53217714Y-90532295D01*
X53287013Y-90557090D01*
X53353548Y-90588559D01*
X53416678Y-90626398D01*
X53475795Y-90670242D01*
X53530330Y-90719670D01*
X53579758Y-90774205D01*
X53623602Y-90833322D01*
X53661441Y-90896452D01*
X53692910Y-90962987D01*
X53717705Y-91032286D01*
X53735589Y-91103682D01*
X53746389Y-91176487D01*
X53750000Y-91250000D01*
X53750000Y-92750000D01*
X53746389Y-92823513D01*
X53735589Y-92896318D01*
X53717705Y-92967714D01*
X53692910Y-93037013D01*
X53661441Y-93103548D01*
X53623602Y-93166678D01*
X53579758Y-93225795D01*
X53530330Y-93280330D01*
X53475795Y-93329758D01*
X53416678Y-93373602D01*
X53353548Y-93411441D01*
X53287013Y-93442910D01*
X53217714Y-93467705D01*
X53146318Y-93485589D01*
X53073513Y-93496389D01*
X53000000Y-93500000D01*
X51500000Y-93500000D01*
X51426487Y-93496389D01*
X51353682Y-93485589D01*
X51282286Y-93467705D01*
X51212987Y-93442910D01*
X51146452Y-93411441D01*
X51083322Y-93373602D01*
X51024205Y-93329758D01*
X50969670Y-93280330D01*
X50920242Y-93225795D01*
X50876398Y-93166678D01*
X50838559Y-93103548D01*
X50807090Y-93037013D01*
X50782295Y-92967714D01*
X50764411Y-92896318D01*
X50753611Y-92823513D01*
X50750000Y-92750000D01*
X50750000Y-91250000D01*
X50753611Y-91176487D01*
X50764411Y-91103682D01*
X50782295Y-91032286D01*
X50807090Y-90962987D01*
X50838559Y-90896452D01*
X50876398Y-90833322D01*
X50920242Y-90774205D01*
X50969670Y-90719670D01*
X51024205Y-90670242D01*
X51083322Y-90626398D01*
X51146452Y-90588559D01*
X51212987Y-90557090D01*
X51282286Y-90532295D01*
X51353682Y-90514411D01*
X51426487Y-90503611D01*
X51500000Y-90500000D01*
X53000000Y-90500000D01*
X53073513Y-90503611D01*
G37*
D12*
X56250000Y-95000000D03*
X57250000Y-95000000D03*
X58250000Y-95000000D03*
X59250000Y-95000000D03*
X60250000Y-95000000D03*
X61250000Y-95000000D03*
X62250000Y-95000000D03*
X63250000Y-95000000D03*
X64250000Y-95000000D03*
D13*
X52800000Y-80880000D03*
X74000000Y-80880000D03*
X74000000Y-37250000D03*
X52750000Y-37250000D03*
D14*
X61050000Y-67600000D03*
X62000000Y-67600000D03*
X62950000Y-67600000D03*
X62950000Y-65400000D03*
X61050000Y-65400000D03*
D10*
G36*
X59974505Y-71376204D02*
G01*
X59998773Y-71379804D01*
X60022572Y-71385765D01*
X60045671Y-71394030D01*
X60067850Y-71404520D01*
X60088893Y-71417132D01*
X60108599Y-71431747D01*
X60126777Y-71448223D01*
X60143253Y-71466401D01*
X60157868Y-71486107D01*
X60170480Y-71507150D01*
X60180970Y-71529329D01*
X60189235Y-71552428D01*
X60195196Y-71576227D01*
X60198796Y-71600495D01*
X60200000Y-71624999D01*
X60200000Y-72275001D01*
X60198796Y-72299505D01*
X60195196Y-72323773D01*
X60189235Y-72347572D01*
X60180970Y-72370671D01*
X60170480Y-72392850D01*
X60157868Y-72413893D01*
X60143253Y-72433599D01*
X60126777Y-72451777D01*
X60108599Y-72468253D01*
X60088893Y-72482868D01*
X60067850Y-72495480D01*
X60045671Y-72505970D01*
X60022572Y-72514235D01*
X59998773Y-72520196D01*
X59974505Y-72523796D01*
X59950001Y-72525000D01*
X59049999Y-72525000D01*
X59025495Y-72523796D01*
X59001227Y-72520196D01*
X58977428Y-72514235D01*
X58954329Y-72505970D01*
X58932150Y-72495480D01*
X58911107Y-72482868D01*
X58891401Y-72468253D01*
X58873223Y-72451777D01*
X58856747Y-72433599D01*
X58842132Y-72413893D01*
X58829520Y-72392850D01*
X58819030Y-72370671D01*
X58810765Y-72347572D01*
X58804804Y-72323773D01*
X58801204Y-72299505D01*
X58800000Y-72275001D01*
X58800000Y-71624999D01*
X58801204Y-71600495D01*
X58804804Y-71576227D01*
X58810765Y-71552428D01*
X58819030Y-71529329D01*
X58829520Y-71507150D01*
X58842132Y-71486107D01*
X58856747Y-71466401D01*
X58873223Y-71448223D01*
X58891401Y-71431747D01*
X58911107Y-71417132D01*
X58932150Y-71404520D01*
X58954329Y-71394030D01*
X58977428Y-71385765D01*
X59001227Y-71379804D01*
X59025495Y-71376204D01*
X59049999Y-71375000D01*
X59950001Y-71375000D01*
X59974505Y-71376204D01*
G37*
G36*
X59974505Y-73426204D02*
G01*
X59998773Y-73429804D01*
X60022572Y-73435765D01*
X60045671Y-73444030D01*
X60067850Y-73454520D01*
X60088893Y-73467132D01*
X60108599Y-73481747D01*
X60126777Y-73498223D01*
X60143253Y-73516401D01*
X60157868Y-73536107D01*
X60170480Y-73557150D01*
X60180970Y-73579329D01*
X60189235Y-73602428D01*
X60195196Y-73626227D01*
X60198796Y-73650495D01*
X60200000Y-73674999D01*
X60200000Y-74325001D01*
X60198796Y-74349505D01*
X60195196Y-74373773D01*
X60189235Y-74397572D01*
X60180970Y-74420671D01*
X60170480Y-74442850D01*
X60157868Y-74463893D01*
X60143253Y-74483599D01*
X60126777Y-74501777D01*
X60108599Y-74518253D01*
X60088893Y-74532868D01*
X60067850Y-74545480D01*
X60045671Y-74555970D01*
X60022572Y-74564235D01*
X59998773Y-74570196D01*
X59974505Y-74573796D01*
X59950001Y-74575000D01*
X59049999Y-74575000D01*
X59025495Y-74573796D01*
X59001227Y-74570196D01*
X58977428Y-74564235D01*
X58954329Y-74555970D01*
X58932150Y-74545480D01*
X58911107Y-74532868D01*
X58891401Y-74518253D01*
X58873223Y-74501777D01*
X58856747Y-74483599D01*
X58842132Y-74463893D01*
X58829520Y-74442850D01*
X58819030Y-74420671D01*
X58810765Y-74397572D01*
X58804804Y-74373773D01*
X58801204Y-74349505D01*
X58800000Y-74325001D01*
X58800000Y-73674999D01*
X58801204Y-73650495D01*
X58804804Y-73626227D01*
X58810765Y-73602428D01*
X58819030Y-73579329D01*
X58829520Y-73557150D01*
X58842132Y-73536107D01*
X58856747Y-73516401D01*
X58873223Y-73498223D01*
X58891401Y-73481747D01*
X58911107Y-73467132D01*
X58932150Y-73454520D01*
X58954329Y-73444030D01*
X58977428Y-73435765D01*
X59001227Y-73429804D01*
X59025495Y-73426204D01*
X59049999Y-73425000D01*
X59950001Y-73425000D01*
X59974505Y-73426204D01*
G37*
G36*
X65149504Y-70776204D02*
G01*
X65173773Y-70779804D01*
X65197571Y-70785765D01*
X65220671Y-70794030D01*
X65242849Y-70804520D01*
X65263893Y-70817133D01*
X65283598Y-70831747D01*
X65301777Y-70848223D01*
X65318253Y-70866402D01*
X65332867Y-70886107D01*
X65345480Y-70907151D01*
X65355970Y-70929329D01*
X65364235Y-70952429D01*
X65370196Y-70976227D01*
X65373796Y-71000496D01*
X65375000Y-71025000D01*
X65375000Y-71950000D01*
X65373796Y-71974504D01*
X65370196Y-71998773D01*
X65364235Y-72022571D01*
X65355970Y-72045671D01*
X65345480Y-72067849D01*
X65332867Y-72088893D01*
X65318253Y-72108598D01*
X65301777Y-72126777D01*
X65283598Y-72143253D01*
X65263893Y-72157867D01*
X65242849Y-72170480D01*
X65220671Y-72180970D01*
X65197571Y-72189235D01*
X65173773Y-72195196D01*
X65149504Y-72198796D01*
X65125000Y-72200000D01*
X63875000Y-72200000D01*
X63850496Y-72198796D01*
X63826227Y-72195196D01*
X63802429Y-72189235D01*
X63779329Y-72180970D01*
X63757151Y-72170480D01*
X63736107Y-72157867D01*
X63716402Y-72143253D01*
X63698223Y-72126777D01*
X63681747Y-72108598D01*
X63667133Y-72088893D01*
X63654520Y-72067849D01*
X63644030Y-72045671D01*
X63635765Y-72022571D01*
X63629804Y-71998773D01*
X63626204Y-71974504D01*
X63625000Y-71950000D01*
X63625000Y-71025000D01*
X63626204Y-71000496D01*
X63629804Y-70976227D01*
X63635765Y-70952429D01*
X63644030Y-70929329D01*
X63654520Y-70907151D01*
X63667133Y-70886107D01*
X63681747Y-70866402D01*
X63698223Y-70848223D01*
X63716402Y-70831747D01*
X63736107Y-70817133D01*
X63757151Y-70804520D01*
X63779329Y-70794030D01*
X63802429Y-70785765D01*
X63826227Y-70779804D01*
X63850496Y-70776204D01*
X63875000Y-70775000D01*
X65125000Y-70775000D01*
X65149504Y-70776204D01*
G37*
G36*
X65149504Y-73751204D02*
G01*
X65173773Y-73754804D01*
X65197571Y-73760765D01*
X65220671Y-73769030D01*
X65242849Y-73779520D01*
X65263893Y-73792133D01*
X65283598Y-73806747D01*
X65301777Y-73823223D01*
X65318253Y-73841402D01*
X65332867Y-73861107D01*
X65345480Y-73882151D01*
X65355970Y-73904329D01*
X65364235Y-73927429D01*
X65370196Y-73951227D01*
X65373796Y-73975496D01*
X65375000Y-74000000D01*
X65375000Y-74925000D01*
X65373796Y-74949504D01*
X65370196Y-74973773D01*
X65364235Y-74997571D01*
X65355970Y-75020671D01*
X65345480Y-75042849D01*
X65332867Y-75063893D01*
X65318253Y-75083598D01*
X65301777Y-75101777D01*
X65283598Y-75118253D01*
X65263893Y-75132867D01*
X65242849Y-75145480D01*
X65220671Y-75155970D01*
X65197571Y-75164235D01*
X65173773Y-75170196D01*
X65149504Y-75173796D01*
X65125000Y-75175000D01*
X63875000Y-75175000D01*
X63850496Y-75173796D01*
X63826227Y-75170196D01*
X63802429Y-75164235D01*
X63779329Y-75155970D01*
X63757151Y-75145480D01*
X63736107Y-75132867D01*
X63716402Y-75118253D01*
X63698223Y-75101777D01*
X63681747Y-75083598D01*
X63667133Y-75063893D01*
X63654520Y-75042849D01*
X63644030Y-75020671D01*
X63635765Y-74997571D01*
X63629804Y-74973773D01*
X63626204Y-74949504D01*
X63625000Y-74925000D01*
X63625000Y-74000000D01*
X63626204Y-73975496D01*
X63629804Y-73951227D01*
X63635765Y-73927429D01*
X63644030Y-73904329D01*
X63654520Y-73882151D01*
X63667133Y-73861107D01*
X63681747Y-73841402D01*
X63698223Y-73823223D01*
X63716402Y-73806747D01*
X63736107Y-73792133D01*
X63757151Y-73779520D01*
X63779329Y-73769030D01*
X63802429Y-73760765D01*
X63826227Y-73754804D01*
X63850496Y-73751204D01*
X63875000Y-73750000D01*
X65125000Y-73750000D01*
X65149504Y-73751204D01*
G37*
G36*
X87480142Y-51013674D02*
G01*
X87503803Y-51017184D01*
X87527007Y-51022996D01*
X87549529Y-51031054D01*
X87571153Y-51041282D01*
X87591670Y-51053579D01*
X87610883Y-51067829D01*
X87628607Y-51083893D01*
X87644671Y-51101617D01*
X87658921Y-51120830D01*
X87671218Y-51141347D01*
X87681446Y-51162971D01*
X87689504Y-51185493D01*
X87695316Y-51208697D01*
X87698826Y-51232358D01*
X87700000Y-51256250D01*
X87700000Y-51743750D01*
X87698826Y-51767642D01*
X87695316Y-51791303D01*
X87689504Y-51814507D01*
X87681446Y-51837029D01*
X87671218Y-51858653D01*
X87658921Y-51879170D01*
X87644671Y-51898383D01*
X87628607Y-51916107D01*
X87610883Y-51932171D01*
X87591670Y-51946421D01*
X87571153Y-51958718D01*
X87549529Y-51968946D01*
X87527007Y-51977004D01*
X87503803Y-51982816D01*
X87480142Y-51986326D01*
X87456250Y-51987500D01*
X86543750Y-51987500D01*
X86519858Y-51986326D01*
X86496197Y-51982816D01*
X86472993Y-51977004D01*
X86450471Y-51968946D01*
X86428847Y-51958718D01*
X86408330Y-51946421D01*
X86389117Y-51932171D01*
X86371393Y-51916107D01*
X86355329Y-51898383D01*
X86341079Y-51879170D01*
X86328782Y-51858653D01*
X86318554Y-51837029D01*
X86310496Y-51814507D01*
X86304684Y-51791303D01*
X86301174Y-51767642D01*
X86300000Y-51743750D01*
X86300000Y-51256250D01*
X86301174Y-51232358D01*
X86304684Y-51208697D01*
X86310496Y-51185493D01*
X86318554Y-51162971D01*
X86328782Y-51141347D01*
X86341079Y-51120830D01*
X86355329Y-51101617D01*
X86371393Y-51083893D01*
X86389117Y-51067829D01*
X86408330Y-51053579D01*
X86428847Y-51041282D01*
X86450471Y-51031054D01*
X86472993Y-51022996D01*
X86496197Y-51017184D01*
X86519858Y-51013674D01*
X86543750Y-51012500D01*
X87456250Y-51012500D01*
X87480142Y-51013674D01*
G37*
G36*
X87480142Y-49138674D02*
G01*
X87503803Y-49142184D01*
X87527007Y-49147996D01*
X87549529Y-49156054D01*
X87571153Y-49166282D01*
X87591670Y-49178579D01*
X87610883Y-49192829D01*
X87628607Y-49208893D01*
X87644671Y-49226617D01*
X87658921Y-49245830D01*
X87671218Y-49266347D01*
X87681446Y-49287971D01*
X87689504Y-49310493D01*
X87695316Y-49333697D01*
X87698826Y-49357358D01*
X87700000Y-49381250D01*
X87700000Y-49868750D01*
X87698826Y-49892642D01*
X87695316Y-49916303D01*
X87689504Y-49939507D01*
X87681446Y-49962029D01*
X87671218Y-49983653D01*
X87658921Y-50004170D01*
X87644671Y-50023383D01*
X87628607Y-50041107D01*
X87610883Y-50057171D01*
X87591670Y-50071421D01*
X87571153Y-50083718D01*
X87549529Y-50093946D01*
X87527007Y-50102004D01*
X87503803Y-50107816D01*
X87480142Y-50111326D01*
X87456250Y-50112500D01*
X86543750Y-50112500D01*
X86519858Y-50111326D01*
X86496197Y-50107816D01*
X86472993Y-50102004D01*
X86450471Y-50093946D01*
X86428847Y-50083718D01*
X86408330Y-50071421D01*
X86389117Y-50057171D01*
X86371393Y-50041107D01*
X86355329Y-50023383D01*
X86341079Y-50004170D01*
X86328782Y-49983653D01*
X86318554Y-49962029D01*
X86310496Y-49939507D01*
X86304684Y-49916303D01*
X86301174Y-49892642D01*
X86300000Y-49868750D01*
X86300000Y-49381250D01*
X86301174Y-49357358D01*
X86304684Y-49333697D01*
X86310496Y-49310493D01*
X86318554Y-49287971D01*
X86328782Y-49266347D01*
X86341079Y-49245830D01*
X86355329Y-49226617D01*
X86371393Y-49208893D01*
X86389117Y-49192829D01*
X86408330Y-49178579D01*
X86428847Y-49166282D01*
X86450471Y-49156054D01*
X86472993Y-49147996D01*
X86496197Y-49142184D01*
X86519858Y-49138674D01*
X86543750Y-49137500D01*
X87456250Y-49137500D01*
X87480142Y-49138674D01*
G37*
G36*
X82480142Y-51013674D02*
G01*
X82503803Y-51017184D01*
X82527007Y-51022996D01*
X82549529Y-51031054D01*
X82571153Y-51041282D01*
X82591670Y-51053579D01*
X82610883Y-51067829D01*
X82628607Y-51083893D01*
X82644671Y-51101617D01*
X82658921Y-51120830D01*
X82671218Y-51141347D01*
X82681446Y-51162971D01*
X82689504Y-51185493D01*
X82695316Y-51208697D01*
X82698826Y-51232358D01*
X82700000Y-51256250D01*
X82700000Y-51743750D01*
X82698826Y-51767642D01*
X82695316Y-51791303D01*
X82689504Y-51814507D01*
X82681446Y-51837029D01*
X82671218Y-51858653D01*
X82658921Y-51879170D01*
X82644671Y-51898383D01*
X82628607Y-51916107D01*
X82610883Y-51932171D01*
X82591670Y-51946421D01*
X82571153Y-51958718D01*
X82549529Y-51968946D01*
X82527007Y-51977004D01*
X82503803Y-51982816D01*
X82480142Y-51986326D01*
X82456250Y-51987500D01*
X81543750Y-51987500D01*
X81519858Y-51986326D01*
X81496197Y-51982816D01*
X81472993Y-51977004D01*
X81450471Y-51968946D01*
X81428847Y-51958718D01*
X81408330Y-51946421D01*
X81389117Y-51932171D01*
X81371393Y-51916107D01*
X81355329Y-51898383D01*
X81341079Y-51879170D01*
X81328782Y-51858653D01*
X81318554Y-51837029D01*
X81310496Y-51814507D01*
X81304684Y-51791303D01*
X81301174Y-51767642D01*
X81300000Y-51743750D01*
X81300000Y-51256250D01*
X81301174Y-51232358D01*
X81304684Y-51208697D01*
X81310496Y-51185493D01*
X81318554Y-51162971D01*
X81328782Y-51141347D01*
X81341079Y-51120830D01*
X81355329Y-51101617D01*
X81371393Y-51083893D01*
X81389117Y-51067829D01*
X81408330Y-51053579D01*
X81428847Y-51041282D01*
X81450471Y-51031054D01*
X81472993Y-51022996D01*
X81496197Y-51017184D01*
X81519858Y-51013674D01*
X81543750Y-51012500D01*
X82456250Y-51012500D01*
X82480142Y-51013674D01*
G37*
G36*
X82480142Y-49138674D02*
G01*
X82503803Y-49142184D01*
X82527007Y-49147996D01*
X82549529Y-49156054D01*
X82571153Y-49166282D01*
X82591670Y-49178579D01*
X82610883Y-49192829D01*
X82628607Y-49208893D01*
X82644671Y-49226617D01*
X82658921Y-49245830D01*
X82671218Y-49266347D01*
X82681446Y-49287971D01*
X82689504Y-49310493D01*
X82695316Y-49333697D01*
X82698826Y-49357358D01*
X82700000Y-49381250D01*
X82700000Y-49868750D01*
X82698826Y-49892642D01*
X82695316Y-49916303D01*
X82689504Y-49939507D01*
X82681446Y-49962029D01*
X82671218Y-49983653D01*
X82658921Y-50004170D01*
X82644671Y-50023383D01*
X82628607Y-50041107D01*
X82610883Y-50057171D01*
X82591670Y-50071421D01*
X82571153Y-50083718D01*
X82549529Y-50093946D01*
X82527007Y-50102004D01*
X82503803Y-50107816D01*
X82480142Y-50111326D01*
X82456250Y-50112500D01*
X81543750Y-50112500D01*
X81519858Y-50111326D01*
X81496197Y-50107816D01*
X81472993Y-50102004D01*
X81450471Y-50093946D01*
X81428847Y-50083718D01*
X81408330Y-50071421D01*
X81389117Y-50057171D01*
X81371393Y-50041107D01*
X81355329Y-50023383D01*
X81341079Y-50004170D01*
X81328782Y-49983653D01*
X81318554Y-49962029D01*
X81310496Y-49939507D01*
X81304684Y-49916303D01*
X81301174Y-49892642D01*
X81300000Y-49868750D01*
X81300000Y-49381250D01*
X81301174Y-49357358D01*
X81304684Y-49333697D01*
X81310496Y-49310493D01*
X81318554Y-49287971D01*
X81328782Y-49266347D01*
X81341079Y-49245830D01*
X81355329Y-49226617D01*
X81371393Y-49208893D01*
X81389117Y-49192829D01*
X81408330Y-49178579D01*
X81428847Y-49166282D01*
X81450471Y-49156054D01*
X81472993Y-49147996D01*
X81496197Y-49142184D01*
X81519858Y-49138674D01*
X81543750Y-49137500D01*
X82456250Y-49137500D01*
X82480142Y-49138674D01*
G37*
G36*
X89499504Y-66376204D02*
G01*
X89523773Y-66379804D01*
X89547571Y-66385765D01*
X89570671Y-66394030D01*
X89592849Y-66404520D01*
X89613893Y-66417133D01*
X89633598Y-66431747D01*
X89651777Y-66448223D01*
X89668253Y-66466402D01*
X89682867Y-66486107D01*
X89695480Y-66507151D01*
X89705970Y-66529329D01*
X89714235Y-66552429D01*
X89720196Y-66576227D01*
X89723796Y-66600496D01*
X89725000Y-66625000D01*
X89725000Y-67875000D01*
X89723796Y-67899504D01*
X89720196Y-67923773D01*
X89714235Y-67947571D01*
X89705970Y-67970671D01*
X89695480Y-67992849D01*
X89682867Y-68013893D01*
X89668253Y-68033598D01*
X89651777Y-68051777D01*
X89633598Y-68068253D01*
X89613893Y-68082867D01*
X89592849Y-68095480D01*
X89570671Y-68105970D01*
X89547571Y-68114235D01*
X89523773Y-68120196D01*
X89499504Y-68123796D01*
X89475000Y-68125000D01*
X88550000Y-68125000D01*
X88525496Y-68123796D01*
X88501227Y-68120196D01*
X88477429Y-68114235D01*
X88454329Y-68105970D01*
X88432151Y-68095480D01*
X88411107Y-68082867D01*
X88391402Y-68068253D01*
X88373223Y-68051777D01*
X88356747Y-68033598D01*
X88342133Y-68013893D01*
X88329520Y-67992849D01*
X88319030Y-67970671D01*
X88310765Y-67947571D01*
X88304804Y-67923773D01*
X88301204Y-67899504D01*
X88300000Y-67875000D01*
X88300000Y-66625000D01*
X88301204Y-66600496D01*
X88304804Y-66576227D01*
X88310765Y-66552429D01*
X88319030Y-66529329D01*
X88329520Y-66507151D01*
X88342133Y-66486107D01*
X88356747Y-66466402D01*
X88373223Y-66448223D01*
X88391402Y-66431747D01*
X88411107Y-66417133D01*
X88432151Y-66404520D01*
X88454329Y-66394030D01*
X88477429Y-66385765D01*
X88501227Y-66379804D01*
X88525496Y-66376204D01*
X88550000Y-66375000D01*
X89475000Y-66375000D01*
X89499504Y-66376204D01*
G37*
G36*
X92474504Y-66376204D02*
G01*
X92498773Y-66379804D01*
X92522571Y-66385765D01*
X92545671Y-66394030D01*
X92567849Y-66404520D01*
X92588893Y-66417133D01*
X92608598Y-66431747D01*
X92626777Y-66448223D01*
X92643253Y-66466402D01*
X92657867Y-66486107D01*
X92670480Y-66507151D01*
X92680970Y-66529329D01*
X92689235Y-66552429D01*
X92695196Y-66576227D01*
X92698796Y-66600496D01*
X92700000Y-66625000D01*
X92700000Y-67875000D01*
X92698796Y-67899504D01*
X92695196Y-67923773D01*
X92689235Y-67947571D01*
X92680970Y-67970671D01*
X92670480Y-67992849D01*
X92657867Y-68013893D01*
X92643253Y-68033598D01*
X92626777Y-68051777D01*
X92608598Y-68068253D01*
X92588893Y-68082867D01*
X92567849Y-68095480D01*
X92545671Y-68105970D01*
X92522571Y-68114235D01*
X92498773Y-68120196D01*
X92474504Y-68123796D01*
X92450000Y-68125000D01*
X91525000Y-68125000D01*
X91500496Y-68123796D01*
X91476227Y-68120196D01*
X91452429Y-68114235D01*
X91429329Y-68105970D01*
X91407151Y-68095480D01*
X91386107Y-68082867D01*
X91366402Y-68068253D01*
X91348223Y-68051777D01*
X91331747Y-68033598D01*
X91317133Y-68013893D01*
X91304520Y-67992849D01*
X91294030Y-67970671D01*
X91285765Y-67947571D01*
X91279804Y-67923773D01*
X91276204Y-67899504D01*
X91275000Y-67875000D01*
X91275000Y-66625000D01*
X91276204Y-66600496D01*
X91279804Y-66576227D01*
X91285765Y-66552429D01*
X91294030Y-66529329D01*
X91304520Y-66507151D01*
X91317133Y-66486107D01*
X91331747Y-66466402D01*
X91348223Y-66448223D01*
X91366402Y-66431747D01*
X91386107Y-66417133D01*
X91407151Y-66404520D01*
X91429329Y-66394030D01*
X91452429Y-66385765D01*
X91476227Y-66379804D01*
X91500496Y-66376204D01*
X91525000Y-66375000D01*
X92450000Y-66375000D01*
X92474504Y-66376204D01*
G37*
G36*
X71499504Y-103876204D02*
G01*
X71523773Y-103879804D01*
X71547571Y-103885765D01*
X71570671Y-103894030D01*
X71592849Y-103904520D01*
X71613893Y-103917133D01*
X71633598Y-103931747D01*
X71651777Y-103948223D01*
X71668253Y-103966402D01*
X71682867Y-103986107D01*
X71695480Y-104007151D01*
X71705970Y-104029329D01*
X71714235Y-104052429D01*
X71720196Y-104076227D01*
X71723796Y-104100496D01*
X71725000Y-104125000D01*
X71725000Y-105375000D01*
X71723796Y-105399504D01*
X71720196Y-105423773D01*
X71714235Y-105447571D01*
X71705970Y-105470671D01*
X71695480Y-105492849D01*
X71682867Y-105513893D01*
X71668253Y-105533598D01*
X71651777Y-105551777D01*
X71633598Y-105568253D01*
X71613893Y-105582867D01*
X71592849Y-105595480D01*
X71570671Y-105605970D01*
X71547571Y-105614235D01*
X71523773Y-105620196D01*
X71499504Y-105623796D01*
X71475000Y-105625000D01*
X70550000Y-105625000D01*
X70525496Y-105623796D01*
X70501227Y-105620196D01*
X70477429Y-105614235D01*
X70454329Y-105605970D01*
X70432151Y-105595480D01*
X70411107Y-105582867D01*
X70391402Y-105568253D01*
X70373223Y-105551777D01*
X70356747Y-105533598D01*
X70342133Y-105513893D01*
X70329520Y-105492849D01*
X70319030Y-105470671D01*
X70310765Y-105447571D01*
X70304804Y-105423773D01*
X70301204Y-105399504D01*
X70300000Y-105375000D01*
X70300000Y-104125000D01*
X70301204Y-104100496D01*
X70304804Y-104076227D01*
X70310765Y-104052429D01*
X70319030Y-104029329D01*
X70329520Y-104007151D01*
X70342133Y-103986107D01*
X70356747Y-103966402D01*
X70373223Y-103948223D01*
X70391402Y-103931747D01*
X70411107Y-103917133D01*
X70432151Y-103904520D01*
X70454329Y-103894030D01*
X70477429Y-103885765D01*
X70501227Y-103879804D01*
X70525496Y-103876204D01*
X70550000Y-103875000D01*
X71475000Y-103875000D01*
X71499504Y-103876204D01*
G37*
G36*
X74474504Y-103876204D02*
G01*
X74498773Y-103879804D01*
X74522571Y-103885765D01*
X74545671Y-103894030D01*
X74567849Y-103904520D01*
X74588893Y-103917133D01*
X74608598Y-103931747D01*
X74626777Y-103948223D01*
X74643253Y-103966402D01*
X74657867Y-103986107D01*
X74670480Y-104007151D01*
X74680970Y-104029329D01*
X74689235Y-104052429D01*
X74695196Y-104076227D01*
X74698796Y-104100496D01*
X74700000Y-104125000D01*
X74700000Y-105375000D01*
X74698796Y-105399504D01*
X74695196Y-105423773D01*
X74689235Y-105447571D01*
X74680970Y-105470671D01*
X74670480Y-105492849D01*
X74657867Y-105513893D01*
X74643253Y-105533598D01*
X74626777Y-105551777D01*
X74608598Y-105568253D01*
X74588893Y-105582867D01*
X74567849Y-105595480D01*
X74545671Y-105605970D01*
X74522571Y-105614235D01*
X74498773Y-105620196D01*
X74474504Y-105623796D01*
X74450000Y-105625000D01*
X73525000Y-105625000D01*
X73500496Y-105623796D01*
X73476227Y-105620196D01*
X73452429Y-105614235D01*
X73429329Y-105605970D01*
X73407151Y-105595480D01*
X73386107Y-105582867D01*
X73366402Y-105568253D01*
X73348223Y-105551777D01*
X73331747Y-105533598D01*
X73317133Y-105513893D01*
X73304520Y-105492849D01*
X73294030Y-105470671D01*
X73285765Y-105447571D01*
X73279804Y-105423773D01*
X73276204Y-105399504D01*
X73275000Y-105375000D01*
X73275000Y-104125000D01*
X73276204Y-104100496D01*
X73279804Y-104076227D01*
X73285765Y-104052429D01*
X73294030Y-104029329D01*
X73304520Y-104007151D01*
X73317133Y-103986107D01*
X73331747Y-103966402D01*
X73348223Y-103948223D01*
X73366402Y-103931747D01*
X73386107Y-103917133D01*
X73407151Y-103904520D01*
X73429329Y-103894030D01*
X73452429Y-103885765D01*
X73476227Y-103879804D01*
X73500496Y-103876204D01*
X73525000Y-103875000D01*
X74450000Y-103875000D01*
X74474504Y-103876204D01*
G37*
G36*
X99149504Y-96826204D02*
G01*
X99173773Y-96829804D01*
X99197571Y-96835765D01*
X99220671Y-96844030D01*
X99242849Y-96854520D01*
X99263893Y-96867133D01*
X99283598Y-96881747D01*
X99301777Y-96898223D01*
X99318253Y-96916402D01*
X99332867Y-96936107D01*
X99345480Y-96957151D01*
X99355970Y-96979329D01*
X99364235Y-97002429D01*
X99370196Y-97026227D01*
X99373796Y-97050496D01*
X99375000Y-97075000D01*
X99375000Y-98000000D01*
X99373796Y-98024504D01*
X99370196Y-98048773D01*
X99364235Y-98072571D01*
X99355970Y-98095671D01*
X99345480Y-98117849D01*
X99332867Y-98138893D01*
X99318253Y-98158598D01*
X99301777Y-98176777D01*
X99283598Y-98193253D01*
X99263893Y-98207867D01*
X99242849Y-98220480D01*
X99220671Y-98230970D01*
X99197571Y-98239235D01*
X99173773Y-98245196D01*
X99149504Y-98248796D01*
X99125000Y-98250000D01*
X97875000Y-98250000D01*
X97850496Y-98248796D01*
X97826227Y-98245196D01*
X97802429Y-98239235D01*
X97779329Y-98230970D01*
X97757151Y-98220480D01*
X97736107Y-98207867D01*
X97716402Y-98193253D01*
X97698223Y-98176777D01*
X97681747Y-98158598D01*
X97667133Y-98138893D01*
X97654520Y-98117849D01*
X97644030Y-98095671D01*
X97635765Y-98072571D01*
X97629804Y-98048773D01*
X97626204Y-98024504D01*
X97625000Y-98000000D01*
X97625000Y-97075000D01*
X97626204Y-97050496D01*
X97629804Y-97026227D01*
X97635765Y-97002429D01*
X97644030Y-96979329D01*
X97654520Y-96957151D01*
X97667133Y-96936107D01*
X97681747Y-96916402D01*
X97698223Y-96898223D01*
X97716402Y-96881747D01*
X97736107Y-96867133D01*
X97757151Y-96854520D01*
X97779329Y-96844030D01*
X97802429Y-96835765D01*
X97826227Y-96829804D01*
X97850496Y-96826204D01*
X97875000Y-96825000D01*
X99125000Y-96825000D01*
X99149504Y-96826204D01*
G37*
G36*
X99149504Y-99801204D02*
G01*
X99173773Y-99804804D01*
X99197571Y-99810765D01*
X99220671Y-99819030D01*
X99242849Y-99829520D01*
X99263893Y-99842133D01*
X99283598Y-99856747D01*
X99301777Y-99873223D01*
X99318253Y-99891402D01*
X99332867Y-99911107D01*
X99345480Y-99932151D01*
X99355970Y-99954329D01*
X99364235Y-99977429D01*
X99370196Y-100001227D01*
X99373796Y-100025496D01*
X99375000Y-100050000D01*
X99375000Y-100975000D01*
X99373796Y-100999504D01*
X99370196Y-101023773D01*
X99364235Y-101047571D01*
X99355970Y-101070671D01*
X99345480Y-101092849D01*
X99332867Y-101113893D01*
X99318253Y-101133598D01*
X99301777Y-101151777D01*
X99283598Y-101168253D01*
X99263893Y-101182867D01*
X99242849Y-101195480D01*
X99220671Y-101205970D01*
X99197571Y-101214235D01*
X99173773Y-101220196D01*
X99149504Y-101223796D01*
X99125000Y-101225000D01*
X97875000Y-101225000D01*
X97850496Y-101223796D01*
X97826227Y-101220196D01*
X97802429Y-101214235D01*
X97779329Y-101205970D01*
X97757151Y-101195480D01*
X97736107Y-101182867D01*
X97716402Y-101168253D01*
X97698223Y-101151777D01*
X97681747Y-101133598D01*
X97667133Y-101113893D01*
X97654520Y-101092849D01*
X97644030Y-101070671D01*
X97635765Y-101047571D01*
X97629804Y-101023773D01*
X97626204Y-100999504D01*
X97625000Y-100975000D01*
X97625000Y-100050000D01*
X97626204Y-100025496D01*
X97629804Y-100001227D01*
X97635765Y-99977429D01*
X97644030Y-99954329D01*
X97654520Y-99932151D01*
X97667133Y-99911107D01*
X97681747Y-99891402D01*
X97698223Y-99873223D01*
X97716402Y-99856747D01*
X97736107Y-99842133D01*
X97757151Y-99829520D01*
X97779329Y-99819030D01*
X97802429Y-99810765D01*
X97826227Y-99804804D01*
X97850496Y-99801204D01*
X97875000Y-99800000D01*
X99125000Y-99800000D01*
X99149504Y-99801204D01*
G37*
D13*
X110200000Y-91120000D03*
X89000000Y-91120000D03*
X89000000Y-134750000D03*
X110250000Y-134750000D03*
D14*
X101950000Y-106600000D03*
X100050000Y-106600000D03*
X100050000Y-104400000D03*
X101000000Y-104400000D03*
X101950000Y-104400000D03*
D10*
G36*
X76480142Y-121888674D02*
G01*
X76503803Y-121892184D01*
X76527007Y-121897996D01*
X76549529Y-121906054D01*
X76571153Y-121916282D01*
X76591670Y-121928579D01*
X76610883Y-121942829D01*
X76628607Y-121958893D01*
X76644671Y-121976617D01*
X76658921Y-121995830D01*
X76671218Y-122016347D01*
X76681446Y-122037971D01*
X76689504Y-122060493D01*
X76695316Y-122083697D01*
X76698826Y-122107358D01*
X76700000Y-122131250D01*
X76700000Y-122618750D01*
X76698826Y-122642642D01*
X76695316Y-122666303D01*
X76689504Y-122689507D01*
X76681446Y-122712029D01*
X76671218Y-122733653D01*
X76658921Y-122754170D01*
X76644671Y-122773383D01*
X76628607Y-122791107D01*
X76610883Y-122807171D01*
X76591670Y-122821421D01*
X76571153Y-122833718D01*
X76549529Y-122843946D01*
X76527007Y-122852004D01*
X76503803Y-122857816D01*
X76480142Y-122861326D01*
X76456250Y-122862500D01*
X75543750Y-122862500D01*
X75519858Y-122861326D01*
X75496197Y-122857816D01*
X75472993Y-122852004D01*
X75450471Y-122843946D01*
X75428847Y-122833718D01*
X75408330Y-122821421D01*
X75389117Y-122807171D01*
X75371393Y-122791107D01*
X75355329Y-122773383D01*
X75341079Y-122754170D01*
X75328782Y-122733653D01*
X75318554Y-122712029D01*
X75310496Y-122689507D01*
X75304684Y-122666303D01*
X75301174Y-122642642D01*
X75300000Y-122618750D01*
X75300000Y-122131250D01*
X75301174Y-122107358D01*
X75304684Y-122083697D01*
X75310496Y-122060493D01*
X75318554Y-122037971D01*
X75328782Y-122016347D01*
X75341079Y-121995830D01*
X75355329Y-121976617D01*
X75371393Y-121958893D01*
X75389117Y-121942829D01*
X75408330Y-121928579D01*
X75428847Y-121916282D01*
X75450471Y-121906054D01*
X75472993Y-121897996D01*
X75496197Y-121892184D01*
X75519858Y-121888674D01*
X75543750Y-121887500D01*
X76456250Y-121887500D01*
X76480142Y-121888674D01*
G37*
G36*
X76480142Y-120013674D02*
G01*
X76503803Y-120017184D01*
X76527007Y-120022996D01*
X76549529Y-120031054D01*
X76571153Y-120041282D01*
X76591670Y-120053579D01*
X76610883Y-120067829D01*
X76628607Y-120083893D01*
X76644671Y-120101617D01*
X76658921Y-120120830D01*
X76671218Y-120141347D01*
X76681446Y-120162971D01*
X76689504Y-120185493D01*
X76695316Y-120208697D01*
X76698826Y-120232358D01*
X76700000Y-120256250D01*
X76700000Y-120743750D01*
X76698826Y-120767642D01*
X76695316Y-120791303D01*
X76689504Y-120814507D01*
X76681446Y-120837029D01*
X76671218Y-120858653D01*
X76658921Y-120879170D01*
X76644671Y-120898383D01*
X76628607Y-120916107D01*
X76610883Y-120932171D01*
X76591670Y-120946421D01*
X76571153Y-120958718D01*
X76549529Y-120968946D01*
X76527007Y-120977004D01*
X76503803Y-120982816D01*
X76480142Y-120986326D01*
X76456250Y-120987500D01*
X75543750Y-120987500D01*
X75519858Y-120986326D01*
X75496197Y-120982816D01*
X75472993Y-120977004D01*
X75450471Y-120968946D01*
X75428847Y-120958718D01*
X75408330Y-120946421D01*
X75389117Y-120932171D01*
X75371393Y-120916107D01*
X75355329Y-120898383D01*
X75341079Y-120879170D01*
X75328782Y-120858653D01*
X75318554Y-120837029D01*
X75310496Y-120814507D01*
X75304684Y-120791303D01*
X75301174Y-120767642D01*
X75300000Y-120743750D01*
X75300000Y-120256250D01*
X75301174Y-120232358D01*
X75304684Y-120208697D01*
X75310496Y-120185493D01*
X75318554Y-120162971D01*
X75328782Y-120141347D01*
X75341079Y-120120830D01*
X75355329Y-120101617D01*
X75371393Y-120083893D01*
X75389117Y-120067829D01*
X75408330Y-120053579D01*
X75428847Y-120041282D01*
X75450471Y-120031054D01*
X75472993Y-120022996D01*
X75496197Y-120017184D01*
X75519858Y-120013674D01*
X75543750Y-120012500D01*
X76456250Y-120012500D01*
X76480142Y-120013674D01*
G37*
G36*
X81480142Y-121888674D02*
G01*
X81503803Y-121892184D01*
X81527007Y-121897996D01*
X81549529Y-121906054D01*
X81571153Y-121916282D01*
X81591670Y-121928579D01*
X81610883Y-121942829D01*
X81628607Y-121958893D01*
X81644671Y-121976617D01*
X81658921Y-121995830D01*
X81671218Y-122016347D01*
X81681446Y-122037971D01*
X81689504Y-122060493D01*
X81695316Y-122083697D01*
X81698826Y-122107358D01*
X81700000Y-122131250D01*
X81700000Y-122618750D01*
X81698826Y-122642642D01*
X81695316Y-122666303D01*
X81689504Y-122689507D01*
X81681446Y-122712029D01*
X81671218Y-122733653D01*
X81658921Y-122754170D01*
X81644671Y-122773383D01*
X81628607Y-122791107D01*
X81610883Y-122807171D01*
X81591670Y-122821421D01*
X81571153Y-122833718D01*
X81549529Y-122843946D01*
X81527007Y-122852004D01*
X81503803Y-122857816D01*
X81480142Y-122861326D01*
X81456250Y-122862500D01*
X80543750Y-122862500D01*
X80519858Y-122861326D01*
X80496197Y-122857816D01*
X80472993Y-122852004D01*
X80450471Y-122843946D01*
X80428847Y-122833718D01*
X80408330Y-122821421D01*
X80389117Y-122807171D01*
X80371393Y-122791107D01*
X80355329Y-122773383D01*
X80341079Y-122754170D01*
X80328782Y-122733653D01*
X80318554Y-122712029D01*
X80310496Y-122689507D01*
X80304684Y-122666303D01*
X80301174Y-122642642D01*
X80300000Y-122618750D01*
X80300000Y-122131250D01*
X80301174Y-122107358D01*
X80304684Y-122083697D01*
X80310496Y-122060493D01*
X80318554Y-122037971D01*
X80328782Y-122016347D01*
X80341079Y-121995830D01*
X80355329Y-121976617D01*
X80371393Y-121958893D01*
X80389117Y-121942829D01*
X80408330Y-121928579D01*
X80428847Y-121916282D01*
X80450471Y-121906054D01*
X80472993Y-121897996D01*
X80496197Y-121892184D01*
X80519858Y-121888674D01*
X80543750Y-121887500D01*
X81456250Y-121887500D01*
X81480142Y-121888674D01*
G37*
G36*
X81480142Y-120013674D02*
G01*
X81503803Y-120017184D01*
X81527007Y-120022996D01*
X81549529Y-120031054D01*
X81571153Y-120041282D01*
X81591670Y-120053579D01*
X81610883Y-120067829D01*
X81628607Y-120083893D01*
X81644671Y-120101617D01*
X81658921Y-120120830D01*
X81671218Y-120141347D01*
X81681446Y-120162971D01*
X81689504Y-120185493D01*
X81695316Y-120208697D01*
X81698826Y-120232358D01*
X81700000Y-120256250D01*
X81700000Y-120743750D01*
X81698826Y-120767642D01*
X81695316Y-120791303D01*
X81689504Y-120814507D01*
X81681446Y-120837029D01*
X81671218Y-120858653D01*
X81658921Y-120879170D01*
X81644671Y-120898383D01*
X81628607Y-120916107D01*
X81610883Y-120932171D01*
X81591670Y-120946421D01*
X81571153Y-120958718D01*
X81549529Y-120968946D01*
X81527007Y-120977004D01*
X81503803Y-120982816D01*
X81480142Y-120986326D01*
X81456250Y-120987500D01*
X80543750Y-120987500D01*
X80519858Y-120986326D01*
X80496197Y-120982816D01*
X80472993Y-120977004D01*
X80450471Y-120968946D01*
X80428847Y-120958718D01*
X80408330Y-120946421D01*
X80389117Y-120932171D01*
X80371393Y-120916107D01*
X80355329Y-120898383D01*
X80341079Y-120879170D01*
X80328782Y-120858653D01*
X80318554Y-120837029D01*
X80310496Y-120814507D01*
X80304684Y-120791303D01*
X80301174Y-120767642D01*
X80300000Y-120743750D01*
X80300000Y-120256250D01*
X80301174Y-120232358D01*
X80304684Y-120208697D01*
X80310496Y-120185493D01*
X80318554Y-120162971D01*
X80328782Y-120141347D01*
X80341079Y-120120830D01*
X80355329Y-120101617D01*
X80371393Y-120083893D01*
X80389117Y-120067829D01*
X80408330Y-120053579D01*
X80428847Y-120041282D01*
X80450471Y-120031054D01*
X80472993Y-120022996D01*
X80496197Y-120017184D01*
X80519858Y-120013674D01*
X80543750Y-120012500D01*
X81456250Y-120012500D01*
X81480142Y-120013674D01*
G37*
G36*
X103974505Y-97426204D02*
G01*
X103998773Y-97429804D01*
X104022572Y-97435765D01*
X104045671Y-97444030D01*
X104067850Y-97454520D01*
X104088893Y-97467132D01*
X104108599Y-97481747D01*
X104126777Y-97498223D01*
X104143253Y-97516401D01*
X104157868Y-97536107D01*
X104170480Y-97557150D01*
X104180970Y-97579329D01*
X104189235Y-97602428D01*
X104195196Y-97626227D01*
X104198796Y-97650495D01*
X104200000Y-97674999D01*
X104200000Y-98325001D01*
X104198796Y-98349505D01*
X104195196Y-98373773D01*
X104189235Y-98397572D01*
X104180970Y-98420671D01*
X104170480Y-98442850D01*
X104157868Y-98463893D01*
X104143253Y-98483599D01*
X104126777Y-98501777D01*
X104108599Y-98518253D01*
X104088893Y-98532868D01*
X104067850Y-98545480D01*
X104045671Y-98555970D01*
X104022572Y-98564235D01*
X103998773Y-98570196D01*
X103974505Y-98573796D01*
X103950001Y-98575000D01*
X103049999Y-98575000D01*
X103025495Y-98573796D01*
X103001227Y-98570196D01*
X102977428Y-98564235D01*
X102954329Y-98555970D01*
X102932150Y-98545480D01*
X102911107Y-98532868D01*
X102891401Y-98518253D01*
X102873223Y-98501777D01*
X102856747Y-98483599D01*
X102842132Y-98463893D01*
X102829520Y-98442850D01*
X102819030Y-98420671D01*
X102810765Y-98397572D01*
X102804804Y-98373773D01*
X102801204Y-98349505D01*
X102800000Y-98325001D01*
X102800000Y-97674999D01*
X102801204Y-97650495D01*
X102804804Y-97626227D01*
X102810765Y-97602428D01*
X102819030Y-97579329D01*
X102829520Y-97557150D01*
X102842132Y-97536107D01*
X102856747Y-97516401D01*
X102873223Y-97498223D01*
X102891401Y-97481747D01*
X102911107Y-97467132D01*
X102932150Y-97454520D01*
X102954329Y-97444030D01*
X102977428Y-97435765D01*
X103001227Y-97429804D01*
X103025495Y-97426204D01*
X103049999Y-97425000D01*
X103950001Y-97425000D01*
X103974505Y-97426204D01*
G37*
G36*
X103974505Y-99476204D02*
G01*
X103998773Y-99479804D01*
X104022572Y-99485765D01*
X104045671Y-99494030D01*
X104067850Y-99504520D01*
X104088893Y-99517132D01*
X104108599Y-99531747D01*
X104126777Y-99548223D01*
X104143253Y-99566401D01*
X104157868Y-99586107D01*
X104170480Y-99607150D01*
X104180970Y-99629329D01*
X104189235Y-99652428D01*
X104195196Y-99676227D01*
X104198796Y-99700495D01*
X104200000Y-99724999D01*
X104200000Y-100375001D01*
X104198796Y-100399505D01*
X104195196Y-100423773D01*
X104189235Y-100447572D01*
X104180970Y-100470671D01*
X104170480Y-100492850D01*
X104157868Y-100513893D01*
X104143253Y-100533599D01*
X104126777Y-100551777D01*
X104108599Y-100568253D01*
X104088893Y-100582868D01*
X104067850Y-100595480D01*
X104045671Y-100605970D01*
X104022572Y-100614235D01*
X103998773Y-100620196D01*
X103974505Y-100623796D01*
X103950001Y-100625000D01*
X103049999Y-100625000D01*
X103025495Y-100623796D01*
X103001227Y-100620196D01*
X102977428Y-100614235D01*
X102954329Y-100605970D01*
X102932150Y-100595480D01*
X102911107Y-100582868D01*
X102891401Y-100568253D01*
X102873223Y-100551777D01*
X102856747Y-100533599D01*
X102842132Y-100513893D01*
X102829520Y-100492850D01*
X102819030Y-100470671D01*
X102810765Y-100447572D01*
X102804804Y-100423773D01*
X102801204Y-100399505D01*
X102800000Y-100375001D01*
X102800000Y-99724999D01*
X102801204Y-99700495D01*
X102804804Y-99676227D01*
X102810765Y-99652428D01*
X102819030Y-99629329D01*
X102829520Y-99607150D01*
X102842132Y-99586107D01*
X102856747Y-99566401D01*
X102873223Y-99548223D01*
X102891401Y-99531747D01*
X102911107Y-99517132D01*
X102932150Y-99504520D01*
X102954329Y-99494030D01*
X102977428Y-99485765D01*
X103001227Y-99479804D01*
X103025495Y-99476204D01*
X103049999Y-99475000D01*
X103950001Y-99475000D01*
X103974505Y-99476204D01*
G37*
M02*
