G04 #@! TF.GenerationSoftware,KiCad,Pcbnew,5.1.5-52549c5~84~ubuntu18.04.1*
G04 #@! TF.CreationDate,2020-03-16T02:25:55+00:00*
G04 #@! TF.ProjectId,polariser_drive,706f6c61-7269-4736-9572-5f6472697665,rev?*
G04 #@! TF.SameCoordinates,Original*
G04 #@! TF.FileFunction,Paste,Top*
G04 #@! TF.FilePolarity,Positive*
%FSLAX46Y46*%
G04 Gerber Fmt 4.6, Leading zero omitted, Abs format (unit mm)*
G04 Created by KiCad (PCBNEW 5.1.5-52549c5~84~ubuntu18.04.1) date 2020-03-16 02:25:55*
%MOMM*%
%LPD*%
G04 APERTURE LIST*
%ADD10C,0.100000*%
%ADD11C,3.200000*%
%ADD12R,0.650000X1.060000*%
G04 APERTURE END LIST*
D10*
G36*
X51299505Y-53701204D02*
G01*
X51323773Y-53704804D01*
X51347572Y-53710765D01*
X51370671Y-53719030D01*
X51392850Y-53729520D01*
X51413893Y-53742132D01*
X51433599Y-53756747D01*
X51451777Y-53773223D01*
X51468253Y-53791401D01*
X51482868Y-53811107D01*
X51495480Y-53832150D01*
X51505970Y-53854329D01*
X51514235Y-53877428D01*
X51520196Y-53901227D01*
X51523796Y-53925495D01*
X51525000Y-53949999D01*
X51525000Y-54650001D01*
X51523796Y-54674505D01*
X51520196Y-54698773D01*
X51514235Y-54722572D01*
X51505970Y-54745671D01*
X51495480Y-54767850D01*
X51482868Y-54788893D01*
X51468253Y-54808599D01*
X51451777Y-54826777D01*
X51433599Y-54843253D01*
X51413893Y-54857868D01*
X51392850Y-54870480D01*
X51370671Y-54880970D01*
X51347572Y-54889235D01*
X51323773Y-54895196D01*
X51299505Y-54898796D01*
X51275001Y-54900000D01*
X49974999Y-54900000D01*
X49950495Y-54898796D01*
X49926227Y-54895196D01*
X49902428Y-54889235D01*
X49879329Y-54880970D01*
X49857150Y-54870480D01*
X49836107Y-54857868D01*
X49816401Y-54843253D01*
X49798223Y-54826777D01*
X49781747Y-54808599D01*
X49767132Y-54788893D01*
X49754520Y-54767850D01*
X49744030Y-54745671D01*
X49735765Y-54722572D01*
X49729804Y-54698773D01*
X49726204Y-54674505D01*
X49725000Y-54650001D01*
X49725000Y-53949999D01*
X49726204Y-53925495D01*
X49729804Y-53901227D01*
X49735765Y-53877428D01*
X49744030Y-53854329D01*
X49754520Y-53832150D01*
X49767132Y-53811107D01*
X49781747Y-53791401D01*
X49798223Y-53773223D01*
X49816401Y-53756747D01*
X49836107Y-53742132D01*
X49857150Y-53729520D01*
X49879329Y-53719030D01*
X49902428Y-53710765D01*
X49926227Y-53704804D01*
X49950495Y-53701204D01*
X49974999Y-53700000D01*
X51275001Y-53700000D01*
X51299505Y-53701204D01*
G37*
G36*
X51299505Y-43101204D02*
G01*
X51323773Y-43104804D01*
X51347572Y-43110765D01*
X51370671Y-43119030D01*
X51392850Y-43129520D01*
X51413893Y-43142132D01*
X51433599Y-43156747D01*
X51451777Y-43173223D01*
X51468253Y-43191401D01*
X51482868Y-43211107D01*
X51495480Y-43232150D01*
X51505970Y-43254329D01*
X51514235Y-43277428D01*
X51520196Y-43301227D01*
X51523796Y-43325495D01*
X51525000Y-43349999D01*
X51525000Y-44050001D01*
X51523796Y-44074505D01*
X51520196Y-44098773D01*
X51514235Y-44122572D01*
X51505970Y-44145671D01*
X51495480Y-44167850D01*
X51482868Y-44188893D01*
X51468253Y-44208599D01*
X51451777Y-44226777D01*
X51433599Y-44243253D01*
X51413893Y-44257868D01*
X51392850Y-44270480D01*
X51370671Y-44280970D01*
X51347572Y-44289235D01*
X51323773Y-44295196D01*
X51299505Y-44298796D01*
X51275001Y-44300000D01*
X49974999Y-44300000D01*
X49950495Y-44298796D01*
X49926227Y-44295196D01*
X49902428Y-44289235D01*
X49879329Y-44280970D01*
X49857150Y-44270480D01*
X49836107Y-44257868D01*
X49816401Y-44243253D01*
X49798223Y-44226777D01*
X49781747Y-44208599D01*
X49767132Y-44188893D01*
X49754520Y-44167850D01*
X49744030Y-44145671D01*
X49735765Y-44122572D01*
X49729804Y-44098773D01*
X49726204Y-44074505D01*
X49725000Y-44050001D01*
X49725000Y-43349999D01*
X49726204Y-43325495D01*
X49729804Y-43301227D01*
X49735765Y-43277428D01*
X49744030Y-43254329D01*
X49754520Y-43232150D01*
X49767132Y-43211107D01*
X49781747Y-43191401D01*
X49798223Y-43173223D01*
X49816401Y-43156747D01*
X49836107Y-43142132D01*
X49857150Y-43129520D01*
X49879329Y-43119030D01*
X49902428Y-43110765D01*
X49926227Y-43104804D01*
X49950495Y-43101204D01*
X49974999Y-43100000D01*
X51275001Y-43100000D01*
X51299505Y-43101204D01*
G37*
G36*
X55139703Y-52700722D02*
G01*
X55154264Y-52702882D01*
X55168543Y-52706459D01*
X55182403Y-52711418D01*
X55195710Y-52717712D01*
X55208336Y-52725280D01*
X55220159Y-52734048D01*
X55231066Y-52743934D01*
X55240952Y-52754841D01*
X55249720Y-52766664D01*
X55257288Y-52779290D01*
X55263582Y-52792597D01*
X55268541Y-52806457D01*
X55272118Y-52820736D01*
X55274278Y-52835297D01*
X55275000Y-52850000D01*
X55275000Y-53150000D01*
X55274278Y-53164703D01*
X55272118Y-53179264D01*
X55268541Y-53193543D01*
X55263582Y-53207403D01*
X55257288Y-53220710D01*
X55249720Y-53233336D01*
X55240952Y-53245159D01*
X55231066Y-53256066D01*
X55220159Y-53265952D01*
X55208336Y-53274720D01*
X55195710Y-53282288D01*
X55182403Y-53288582D01*
X55168543Y-53293541D01*
X55154264Y-53297118D01*
X55139703Y-53299278D01*
X55125000Y-53300000D01*
X53925000Y-53300000D01*
X53910297Y-53299278D01*
X53895736Y-53297118D01*
X53881457Y-53293541D01*
X53867597Y-53288582D01*
X53854290Y-53282288D01*
X53841664Y-53274720D01*
X53829841Y-53265952D01*
X53818934Y-53256066D01*
X53809048Y-53245159D01*
X53800280Y-53233336D01*
X53792712Y-53220710D01*
X53786418Y-53207403D01*
X53781459Y-53193543D01*
X53777882Y-53179264D01*
X53775722Y-53164703D01*
X53775000Y-53150000D01*
X53775000Y-52850000D01*
X53775722Y-52835297D01*
X53777882Y-52820736D01*
X53781459Y-52806457D01*
X53786418Y-52792597D01*
X53792712Y-52779290D01*
X53800280Y-52766664D01*
X53809048Y-52754841D01*
X53818934Y-52743934D01*
X53829841Y-52734048D01*
X53841664Y-52725280D01*
X53854290Y-52717712D01*
X53867597Y-52711418D01*
X53881457Y-52706459D01*
X53895736Y-52702882D01*
X53910297Y-52700722D01*
X53925000Y-52700000D01*
X55125000Y-52700000D01*
X55139703Y-52700722D01*
G37*
G36*
X55139703Y-51700722D02*
G01*
X55154264Y-51702882D01*
X55168543Y-51706459D01*
X55182403Y-51711418D01*
X55195710Y-51717712D01*
X55208336Y-51725280D01*
X55220159Y-51734048D01*
X55231066Y-51743934D01*
X55240952Y-51754841D01*
X55249720Y-51766664D01*
X55257288Y-51779290D01*
X55263582Y-51792597D01*
X55268541Y-51806457D01*
X55272118Y-51820736D01*
X55274278Y-51835297D01*
X55275000Y-51850000D01*
X55275000Y-52150000D01*
X55274278Y-52164703D01*
X55272118Y-52179264D01*
X55268541Y-52193543D01*
X55263582Y-52207403D01*
X55257288Y-52220710D01*
X55249720Y-52233336D01*
X55240952Y-52245159D01*
X55231066Y-52256066D01*
X55220159Y-52265952D01*
X55208336Y-52274720D01*
X55195710Y-52282288D01*
X55182403Y-52288582D01*
X55168543Y-52293541D01*
X55154264Y-52297118D01*
X55139703Y-52299278D01*
X55125000Y-52300000D01*
X53925000Y-52300000D01*
X53910297Y-52299278D01*
X53895736Y-52297118D01*
X53881457Y-52293541D01*
X53867597Y-52288582D01*
X53854290Y-52282288D01*
X53841664Y-52274720D01*
X53829841Y-52265952D01*
X53818934Y-52256066D01*
X53809048Y-52245159D01*
X53800280Y-52233336D01*
X53792712Y-52220710D01*
X53786418Y-52207403D01*
X53781459Y-52193543D01*
X53777882Y-52179264D01*
X53775722Y-52164703D01*
X53775000Y-52150000D01*
X53775000Y-51850000D01*
X53775722Y-51835297D01*
X53777882Y-51820736D01*
X53781459Y-51806457D01*
X53786418Y-51792597D01*
X53792712Y-51779290D01*
X53800280Y-51766664D01*
X53809048Y-51754841D01*
X53818934Y-51743934D01*
X53829841Y-51734048D01*
X53841664Y-51725280D01*
X53854290Y-51717712D01*
X53867597Y-51711418D01*
X53881457Y-51706459D01*
X53895736Y-51702882D01*
X53910297Y-51700722D01*
X53925000Y-51700000D01*
X55125000Y-51700000D01*
X55139703Y-51700722D01*
G37*
G36*
X55139703Y-50700722D02*
G01*
X55154264Y-50702882D01*
X55168543Y-50706459D01*
X55182403Y-50711418D01*
X55195710Y-50717712D01*
X55208336Y-50725280D01*
X55220159Y-50734048D01*
X55231066Y-50743934D01*
X55240952Y-50754841D01*
X55249720Y-50766664D01*
X55257288Y-50779290D01*
X55263582Y-50792597D01*
X55268541Y-50806457D01*
X55272118Y-50820736D01*
X55274278Y-50835297D01*
X55275000Y-50850000D01*
X55275000Y-51150000D01*
X55274278Y-51164703D01*
X55272118Y-51179264D01*
X55268541Y-51193543D01*
X55263582Y-51207403D01*
X55257288Y-51220710D01*
X55249720Y-51233336D01*
X55240952Y-51245159D01*
X55231066Y-51256066D01*
X55220159Y-51265952D01*
X55208336Y-51274720D01*
X55195710Y-51282288D01*
X55182403Y-51288582D01*
X55168543Y-51293541D01*
X55154264Y-51297118D01*
X55139703Y-51299278D01*
X55125000Y-51300000D01*
X53925000Y-51300000D01*
X53910297Y-51299278D01*
X53895736Y-51297118D01*
X53881457Y-51293541D01*
X53867597Y-51288582D01*
X53854290Y-51282288D01*
X53841664Y-51274720D01*
X53829841Y-51265952D01*
X53818934Y-51256066D01*
X53809048Y-51245159D01*
X53800280Y-51233336D01*
X53792712Y-51220710D01*
X53786418Y-51207403D01*
X53781459Y-51193543D01*
X53777882Y-51179264D01*
X53775722Y-51164703D01*
X53775000Y-51150000D01*
X53775000Y-50850000D01*
X53775722Y-50835297D01*
X53777882Y-50820736D01*
X53781459Y-50806457D01*
X53786418Y-50792597D01*
X53792712Y-50779290D01*
X53800280Y-50766664D01*
X53809048Y-50754841D01*
X53818934Y-50743934D01*
X53829841Y-50734048D01*
X53841664Y-50725280D01*
X53854290Y-50717712D01*
X53867597Y-50711418D01*
X53881457Y-50706459D01*
X53895736Y-50702882D01*
X53910297Y-50700722D01*
X53925000Y-50700000D01*
X55125000Y-50700000D01*
X55139703Y-50700722D01*
G37*
G36*
X55139703Y-49700722D02*
G01*
X55154264Y-49702882D01*
X55168543Y-49706459D01*
X55182403Y-49711418D01*
X55195710Y-49717712D01*
X55208336Y-49725280D01*
X55220159Y-49734048D01*
X55231066Y-49743934D01*
X55240952Y-49754841D01*
X55249720Y-49766664D01*
X55257288Y-49779290D01*
X55263582Y-49792597D01*
X55268541Y-49806457D01*
X55272118Y-49820736D01*
X55274278Y-49835297D01*
X55275000Y-49850000D01*
X55275000Y-50150000D01*
X55274278Y-50164703D01*
X55272118Y-50179264D01*
X55268541Y-50193543D01*
X55263582Y-50207403D01*
X55257288Y-50220710D01*
X55249720Y-50233336D01*
X55240952Y-50245159D01*
X55231066Y-50256066D01*
X55220159Y-50265952D01*
X55208336Y-50274720D01*
X55195710Y-50282288D01*
X55182403Y-50288582D01*
X55168543Y-50293541D01*
X55154264Y-50297118D01*
X55139703Y-50299278D01*
X55125000Y-50300000D01*
X53925000Y-50300000D01*
X53910297Y-50299278D01*
X53895736Y-50297118D01*
X53881457Y-50293541D01*
X53867597Y-50288582D01*
X53854290Y-50282288D01*
X53841664Y-50274720D01*
X53829841Y-50265952D01*
X53818934Y-50256066D01*
X53809048Y-50245159D01*
X53800280Y-50233336D01*
X53792712Y-50220710D01*
X53786418Y-50207403D01*
X53781459Y-50193543D01*
X53777882Y-50179264D01*
X53775722Y-50164703D01*
X53775000Y-50150000D01*
X53775000Y-49850000D01*
X53775722Y-49835297D01*
X53777882Y-49820736D01*
X53781459Y-49806457D01*
X53786418Y-49792597D01*
X53792712Y-49779290D01*
X53800280Y-49766664D01*
X53809048Y-49754841D01*
X53818934Y-49743934D01*
X53829841Y-49734048D01*
X53841664Y-49725280D01*
X53854290Y-49717712D01*
X53867597Y-49711418D01*
X53881457Y-49706459D01*
X53895736Y-49702882D01*
X53910297Y-49700722D01*
X53925000Y-49700000D01*
X55125000Y-49700000D01*
X55139703Y-49700722D01*
G37*
G36*
X55139703Y-48700722D02*
G01*
X55154264Y-48702882D01*
X55168543Y-48706459D01*
X55182403Y-48711418D01*
X55195710Y-48717712D01*
X55208336Y-48725280D01*
X55220159Y-48734048D01*
X55231066Y-48743934D01*
X55240952Y-48754841D01*
X55249720Y-48766664D01*
X55257288Y-48779290D01*
X55263582Y-48792597D01*
X55268541Y-48806457D01*
X55272118Y-48820736D01*
X55274278Y-48835297D01*
X55275000Y-48850000D01*
X55275000Y-49150000D01*
X55274278Y-49164703D01*
X55272118Y-49179264D01*
X55268541Y-49193543D01*
X55263582Y-49207403D01*
X55257288Y-49220710D01*
X55249720Y-49233336D01*
X55240952Y-49245159D01*
X55231066Y-49256066D01*
X55220159Y-49265952D01*
X55208336Y-49274720D01*
X55195710Y-49282288D01*
X55182403Y-49288582D01*
X55168543Y-49293541D01*
X55154264Y-49297118D01*
X55139703Y-49299278D01*
X55125000Y-49300000D01*
X53925000Y-49300000D01*
X53910297Y-49299278D01*
X53895736Y-49297118D01*
X53881457Y-49293541D01*
X53867597Y-49288582D01*
X53854290Y-49282288D01*
X53841664Y-49274720D01*
X53829841Y-49265952D01*
X53818934Y-49256066D01*
X53809048Y-49245159D01*
X53800280Y-49233336D01*
X53792712Y-49220710D01*
X53786418Y-49207403D01*
X53781459Y-49193543D01*
X53777882Y-49179264D01*
X53775722Y-49164703D01*
X53775000Y-49150000D01*
X53775000Y-48850000D01*
X53775722Y-48835297D01*
X53777882Y-48820736D01*
X53781459Y-48806457D01*
X53786418Y-48792597D01*
X53792712Y-48779290D01*
X53800280Y-48766664D01*
X53809048Y-48754841D01*
X53818934Y-48743934D01*
X53829841Y-48734048D01*
X53841664Y-48725280D01*
X53854290Y-48717712D01*
X53867597Y-48711418D01*
X53881457Y-48706459D01*
X53895736Y-48702882D01*
X53910297Y-48700722D01*
X53925000Y-48700000D01*
X55125000Y-48700000D01*
X55139703Y-48700722D01*
G37*
G36*
X55139703Y-47700722D02*
G01*
X55154264Y-47702882D01*
X55168543Y-47706459D01*
X55182403Y-47711418D01*
X55195710Y-47717712D01*
X55208336Y-47725280D01*
X55220159Y-47734048D01*
X55231066Y-47743934D01*
X55240952Y-47754841D01*
X55249720Y-47766664D01*
X55257288Y-47779290D01*
X55263582Y-47792597D01*
X55268541Y-47806457D01*
X55272118Y-47820736D01*
X55274278Y-47835297D01*
X55275000Y-47850000D01*
X55275000Y-48150000D01*
X55274278Y-48164703D01*
X55272118Y-48179264D01*
X55268541Y-48193543D01*
X55263582Y-48207403D01*
X55257288Y-48220710D01*
X55249720Y-48233336D01*
X55240952Y-48245159D01*
X55231066Y-48256066D01*
X55220159Y-48265952D01*
X55208336Y-48274720D01*
X55195710Y-48282288D01*
X55182403Y-48288582D01*
X55168543Y-48293541D01*
X55154264Y-48297118D01*
X55139703Y-48299278D01*
X55125000Y-48300000D01*
X53925000Y-48300000D01*
X53910297Y-48299278D01*
X53895736Y-48297118D01*
X53881457Y-48293541D01*
X53867597Y-48288582D01*
X53854290Y-48282288D01*
X53841664Y-48274720D01*
X53829841Y-48265952D01*
X53818934Y-48256066D01*
X53809048Y-48245159D01*
X53800280Y-48233336D01*
X53792712Y-48220710D01*
X53786418Y-48207403D01*
X53781459Y-48193543D01*
X53777882Y-48179264D01*
X53775722Y-48164703D01*
X53775000Y-48150000D01*
X53775000Y-47850000D01*
X53775722Y-47835297D01*
X53777882Y-47820736D01*
X53781459Y-47806457D01*
X53786418Y-47792597D01*
X53792712Y-47779290D01*
X53800280Y-47766664D01*
X53809048Y-47754841D01*
X53818934Y-47743934D01*
X53829841Y-47734048D01*
X53841664Y-47725280D01*
X53854290Y-47717712D01*
X53867597Y-47711418D01*
X53881457Y-47706459D01*
X53895736Y-47702882D01*
X53910297Y-47700722D01*
X53925000Y-47700000D01*
X55125000Y-47700000D01*
X55139703Y-47700722D01*
G37*
G36*
X55139703Y-46700722D02*
G01*
X55154264Y-46702882D01*
X55168543Y-46706459D01*
X55182403Y-46711418D01*
X55195710Y-46717712D01*
X55208336Y-46725280D01*
X55220159Y-46734048D01*
X55231066Y-46743934D01*
X55240952Y-46754841D01*
X55249720Y-46766664D01*
X55257288Y-46779290D01*
X55263582Y-46792597D01*
X55268541Y-46806457D01*
X55272118Y-46820736D01*
X55274278Y-46835297D01*
X55275000Y-46850000D01*
X55275000Y-47150000D01*
X55274278Y-47164703D01*
X55272118Y-47179264D01*
X55268541Y-47193543D01*
X55263582Y-47207403D01*
X55257288Y-47220710D01*
X55249720Y-47233336D01*
X55240952Y-47245159D01*
X55231066Y-47256066D01*
X55220159Y-47265952D01*
X55208336Y-47274720D01*
X55195710Y-47282288D01*
X55182403Y-47288582D01*
X55168543Y-47293541D01*
X55154264Y-47297118D01*
X55139703Y-47299278D01*
X55125000Y-47300000D01*
X53925000Y-47300000D01*
X53910297Y-47299278D01*
X53895736Y-47297118D01*
X53881457Y-47293541D01*
X53867597Y-47288582D01*
X53854290Y-47282288D01*
X53841664Y-47274720D01*
X53829841Y-47265952D01*
X53818934Y-47256066D01*
X53809048Y-47245159D01*
X53800280Y-47233336D01*
X53792712Y-47220710D01*
X53786418Y-47207403D01*
X53781459Y-47193543D01*
X53777882Y-47179264D01*
X53775722Y-47164703D01*
X53775000Y-47150000D01*
X53775000Y-46850000D01*
X53775722Y-46835297D01*
X53777882Y-46820736D01*
X53781459Y-46806457D01*
X53786418Y-46792597D01*
X53792712Y-46779290D01*
X53800280Y-46766664D01*
X53809048Y-46754841D01*
X53818934Y-46743934D01*
X53829841Y-46734048D01*
X53841664Y-46725280D01*
X53854290Y-46717712D01*
X53867597Y-46711418D01*
X53881457Y-46706459D01*
X53895736Y-46702882D01*
X53910297Y-46700722D01*
X53925000Y-46700000D01*
X55125000Y-46700000D01*
X55139703Y-46700722D01*
G37*
G36*
X55139703Y-45700722D02*
G01*
X55154264Y-45702882D01*
X55168543Y-45706459D01*
X55182403Y-45711418D01*
X55195710Y-45717712D01*
X55208336Y-45725280D01*
X55220159Y-45734048D01*
X55231066Y-45743934D01*
X55240952Y-45754841D01*
X55249720Y-45766664D01*
X55257288Y-45779290D01*
X55263582Y-45792597D01*
X55268541Y-45806457D01*
X55272118Y-45820736D01*
X55274278Y-45835297D01*
X55275000Y-45850000D01*
X55275000Y-46150000D01*
X55274278Y-46164703D01*
X55272118Y-46179264D01*
X55268541Y-46193543D01*
X55263582Y-46207403D01*
X55257288Y-46220710D01*
X55249720Y-46233336D01*
X55240952Y-46245159D01*
X55231066Y-46256066D01*
X55220159Y-46265952D01*
X55208336Y-46274720D01*
X55195710Y-46282288D01*
X55182403Y-46288582D01*
X55168543Y-46293541D01*
X55154264Y-46297118D01*
X55139703Y-46299278D01*
X55125000Y-46300000D01*
X53925000Y-46300000D01*
X53910297Y-46299278D01*
X53895736Y-46297118D01*
X53881457Y-46293541D01*
X53867597Y-46288582D01*
X53854290Y-46282288D01*
X53841664Y-46274720D01*
X53829841Y-46265952D01*
X53818934Y-46256066D01*
X53809048Y-46245159D01*
X53800280Y-46233336D01*
X53792712Y-46220710D01*
X53786418Y-46207403D01*
X53781459Y-46193543D01*
X53777882Y-46179264D01*
X53775722Y-46164703D01*
X53775000Y-46150000D01*
X53775000Y-45850000D01*
X53775722Y-45835297D01*
X53777882Y-45820736D01*
X53781459Y-45806457D01*
X53786418Y-45792597D01*
X53792712Y-45779290D01*
X53800280Y-45766664D01*
X53809048Y-45754841D01*
X53818934Y-45743934D01*
X53829841Y-45734048D01*
X53841664Y-45725280D01*
X53854290Y-45717712D01*
X53867597Y-45711418D01*
X53881457Y-45706459D01*
X53895736Y-45702882D01*
X53910297Y-45700722D01*
X53925000Y-45700000D01*
X55125000Y-45700000D01*
X55139703Y-45700722D01*
G37*
G36*
X55139703Y-44700722D02*
G01*
X55154264Y-44702882D01*
X55168543Y-44706459D01*
X55182403Y-44711418D01*
X55195710Y-44717712D01*
X55208336Y-44725280D01*
X55220159Y-44734048D01*
X55231066Y-44743934D01*
X55240952Y-44754841D01*
X55249720Y-44766664D01*
X55257288Y-44779290D01*
X55263582Y-44792597D01*
X55268541Y-44806457D01*
X55272118Y-44820736D01*
X55274278Y-44835297D01*
X55275000Y-44850000D01*
X55275000Y-45150000D01*
X55274278Y-45164703D01*
X55272118Y-45179264D01*
X55268541Y-45193543D01*
X55263582Y-45207403D01*
X55257288Y-45220710D01*
X55249720Y-45233336D01*
X55240952Y-45245159D01*
X55231066Y-45256066D01*
X55220159Y-45265952D01*
X55208336Y-45274720D01*
X55195710Y-45282288D01*
X55182403Y-45288582D01*
X55168543Y-45293541D01*
X55154264Y-45297118D01*
X55139703Y-45299278D01*
X55125000Y-45300000D01*
X53925000Y-45300000D01*
X53910297Y-45299278D01*
X53895736Y-45297118D01*
X53881457Y-45293541D01*
X53867597Y-45288582D01*
X53854290Y-45282288D01*
X53841664Y-45274720D01*
X53829841Y-45265952D01*
X53818934Y-45256066D01*
X53809048Y-45245159D01*
X53800280Y-45233336D01*
X53792712Y-45220710D01*
X53786418Y-45207403D01*
X53781459Y-45193543D01*
X53777882Y-45179264D01*
X53775722Y-45164703D01*
X53775000Y-45150000D01*
X53775000Y-44850000D01*
X53775722Y-44835297D01*
X53777882Y-44820736D01*
X53781459Y-44806457D01*
X53786418Y-44792597D01*
X53792712Y-44779290D01*
X53800280Y-44766664D01*
X53809048Y-44754841D01*
X53818934Y-44743934D01*
X53829841Y-44734048D01*
X53841664Y-44725280D01*
X53854290Y-44717712D01*
X53867597Y-44711418D01*
X53881457Y-44706459D01*
X53895736Y-44702882D01*
X53910297Y-44700722D01*
X53925000Y-44700000D01*
X55125000Y-44700000D01*
X55139703Y-44700722D01*
G37*
D11*
X109250000Y-74250000D03*
X88000000Y-74250000D03*
X88000000Y-30620000D03*
X109200000Y-30620000D03*
D12*
X100950000Y-46100000D03*
X99050000Y-46100000D03*
X99050000Y-43900000D03*
X100000000Y-43900000D03*
X100950000Y-43900000D03*
D10*
G36*
X75480142Y-59513674D02*
G01*
X75503803Y-59517184D01*
X75527007Y-59522996D01*
X75549529Y-59531054D01*
X75571153Y-59541282D01*
X75591670Y-59553579D01*
X75610883Y-59567829D01*
X75628607Y-59583893D01*
X75644671Y-59601617D01*
X75658921Y-59620830D01*
X75671218Y-59641347D01*
X75681446Y-59662971D01*
X75689504Y-59685493D01*
X75695316Y-59708697D01*
X75698826Y-59732358D01*
X75700000Y-59756250D01*
X75700000Y-60243750D01*
X75698826Y-60267642D01*
X75695316Y-60291303D01*
X75689504Y-60314507D01*
X75681446Y-60337029D01*
X75671218Y-60358653D01*
X75658921Y-60379170D01*
X75644671Y-60398383D01*
X75628607Y-60416107D01*
X75610883Y-60432171D01*
X75591670Y-60446421D01*
X75571153Y-60458718D01*
X75549529Y-60468946D01*
X75527007Y-60477004D01*
X75503803Y-60482816D01*
X75480142Y-60486326D01*
X75456250Y-60487500D01*
X74543750Y-60487500D01*
X74519858Y-60486326D01*
X74496197Y-60482816D01*
X74472993Y-60477004D01*
X74450471Y-60468946D01*
X74428847Y-60458718D01*
X74408330Y-60446421D01*
X74389117Y-60432171D01*
X74371393Y-60416107D01*
X74355329Y-60398383D01*
X74341079Y-60379170D01*
X74328782Y-60358653D01*
X74318554Y-60337029D01*
X74310496Y-60314507D01*
X74304684Y-60291303D01*
X74301174Y-60267642D01*
X74300000Y-60243750D01*
X74300000Y-59756250D01*
X74301174Y-59732358D01*
X74304684Y-59708697D01*
X74310496Y-59685493D01*
X74318554Y-59662971D01*
X74328782Y-59641347D01*
X74341079Y-59620830D01*
X74355329Y-59601617D01*
X74371393Y-59583893D01*
X74389117Y-59567829D01*
X74408330Y-59553579D01*
X74428847Y-59541282D01*
X74450471Y-59531054D01*
X74472993Y-59522996D01*
X74496197Y-59517184D01*
X74519858Y-59513674D01*
X74543750Y-59512500D01*
X75456250Y-59512500D01*
X75480142Y-59513674D01*
G37*
G36*
X75480142Y-61388674D02*
G01*
X75503803Y-61392184D01*
X75527007Y-61397996D01*
X75549529Y-61406054D01*
X75571153Y-61416282D01*
X75591670Y-61428579D01*
X75610883Y-61442829D01*
X75628607Y-61458893D01*
X75644671Y-61476617D01*
X75658921Y-61495830D01*
X75671218Y-61516347D01*
X75681446Y-61537971D01*
X75689504Y-61560493D01*
X75695316Y-61583697D01*
X75698826Y-61607358D01*
X75700000Y-61631250D01*
X75700000Y-62118750D01*
X75698826Y-62142642D01*
X75695316Y-62166303D01*
X75689504Y-62189507D01*
X75681446Y-62212029D01*
X75671218Y-62233653D01*
X75658921Y-62254170D01*
X75644671Y-62273383D01*
X75628607Y-62291107D01*
X75610883Y-62307171D01*
X75591670Y-62321421D01*
X75571153Y-62333718D01*
X75549529Y-62343946D01*
X75527007Y-62352004D01*
X75503803Y-62357816D01*
X75480142Y-62361326D01*
X75456250Y-62362500D01*
X74543750Y-62362500D01*
X74519858Y-62361326D01*
X74496197Y-62357816D01*
X74472993Y-62352004D01*
X74450471Y-62343946D01*
X74428847Y-62333718D01*
X74408330Y-62321421D01*
X74389117Y-62307171D01*
X74371393Y-62291107D01*
X74355329Y-62273383D01*
X74341079Y-62254170D01*
X74328782Y-62233653D01*
X74318554Y-62212029D01*
X74310496Y-62189507D01*
X74304684Y-62166303D01*
X74301174Y-62142642D01*
X74300000Y-62118750D01*
X74300000Y-61631250D01*
X74301174Y-61607358D01*
X74304684Y-61583697D01*
X74310496Y-61560493D01*
X74318554Y-61537971D01*
X74328782Y-61516347D01*
X74341079Y-61495830D01*
X74355329Y-61476617D01*
X74371393Y-61458893D01*
X74389117Y-61442829D01*
X74408330Y-61428579D01*
X74428847Y-61416282D01*
X74450471Y-61406054D01*
X74472993Y-61397996D01*
X74496197Y-61392184D01*
X74519858Y-61388674D01*
X74543750Y-61387500D01*
X75456250Y-61387500D01*
X75480142Y-61388674D01*
G37*
G36*
X80480142Y-59513674D02*
G01*
X80503803Y-59517184D01*
X80527007Y-59522996D01*
X80549529Y-59531054D01*
X80571153Y-59541282D01*
X80591670Y-59553579D01*
X80610883Y-59567829D01*
X80628607Y-59583893D01*
X80644671Y-59601617D01*
X80658921Y-59620830D01*
X80671218Y-59641347D01*
X80681446Y-59662971D01*
X80689504Y-59685493D01*
X80695316Y-59708697D01*
X80698826Y-59732358D01*
X80700000Y-59756250D01*
X80700000Y-60243750D01*
X80698826Y-60267642D01*
X80695316Y-60291303D01*
X80689504Y-60314507D01*
X80681446Y-60337029D01*
X80671218Y-60358653D01*
X80658921Y-60379170D01*
X80644671Y-60398383D01*
X80628607Y-60416107D01*
X80610883Y-60432171D01*
X80591670Y-60446421D01*
X80571153Y-60458718D01*
X80549529Y-60468946D01*
X80527007Y-60477004D01*
X80503803Y-60482816D01*
X80480142Y-60486326D01*
X80456250Y-60487500D01*
X79543750Y-60487500D01*
X79519858Y-60486326D01*
X79496197Y-60482816D01*
X79472993Y-60477004D01*
X79450471Y-60468946D01*
X79428847Y-60458718D01*
X79408330Y-60446421D01*
X79389117Y-60432171D01*
X79371393Y-60416107D01*
X79355329Y-60398383D01*
X79341079Y-60379170D01*
X79328782Y-60358653D01*
X79318554Y-60337029D01*
X79310496Y-60314507D01*
X79304684Y-60291303D01*
X79301174Y-60267642D01*
X79300000Y-60243750D01*
X79300000Y-59756250D01*
X79301174Y-59732358D01*
X79304684Y-59708697D01*
X79310496Y-59685493D01*
X79318554Y-59662971D01*
X79328782Y-59641347D01*
X79341079Y-59620830D01*
X79355329Y-59601617D01*
X79371393Y-59583893D01*
X79389117Y-59567829D01*
X79408330Y-59553579D01*
X79428847Y-59541282D01*
X79450471Y-59531054D01*
X79472993Y-59522996D01*
X79496197Y-59517184D01*
X79519858Y-59513674D01*
X79543750Y-59512500D01*
X80456250Y-59512500D01*
X80480142Y-59513674D01*
G37*
G36*
X80480142Y-61388674D02*
G01*
X80503803Y-61392184D01*
X80527007Y-61397996D01*
X80549529Y-61406054D01*
X80571153Y-61416282D01*
X80591670Y-61428579D01*
X80610883Y-61442829D01*
X80628607Y-61458893D01*
X80644671Y-61476617D01*
X80658921Y-61495830D01*
X80671218Y-61516347D01*
X80681446Y-61537971D01*
X80689504Y-61560493D01*
X80695316Y-61583697D01*
X80698826Y-61607358D01*
X80700000Y-61631250D01*
X80700000Y-62118750D01*
X80698826Y-62142642D01*
X80695316Y-62166303D01*
X80689504Y-62189507D01*
X80681446Y-62212029D01*
X80671218Y-62233653D01*
X80658921Y-62254170D01*
X80644671Y-62273383D01*
X80628607Y-62291107D01*
X80610883Y-62307171D01*
X80591670Y-62321421D01*
X80571153Y-62333718D01*
X80549529Y-62343946D01*
X80527007Y-62352004D01*
X80503803Y-62357816D01*
X80480142Y-62361326D01*
X80456250Y-62362500D01*
X79543750Y-62362500D01*
X79519858Y-62361326D01*
X79496197Y-62357816D01*
X79472993Y-62352004D01*
X79450471Y-62343946D01*
X79428847Y-62333718D01*
X79408330Y-62321421D01*
X79389117Y-62307171D01*
X79371393Y-62291107D01*
X79355329Y-62273383D01*
X79341079Y-62254170D01*
X79328782Y-62233653D01*
X79318554Y-62212029D01*
X79310496Y-62189507D01*
X79304684Y-62166303D01*
X79301174Y-62142642D01*
X79300000Y-62118750D01*
X79300000Y-61631250D01*
X79301174Y-61607358D01*
X79304684Y-61583697D01*
X79310496Y-61560493D01*
X79318554Y-61537971D01*
X79328782Y-61516347D01*
X79341079Y-61495830D01*
X79355329Y-61476617D01*
X79371393Y-61458893D01*
X79389117Y-61442829D01*
X79408330Y-61428579D01*
X79428847Y-61416282D01*
X79450471Y-61406054D01*
X79472993Y-61397996D01*
X79496197Y-61392184D01*
X79519858Y-61388674D01*
X79543750Y-61387500D01*
X80456250Y-61387500D01*
X80480142Y-61388674D01*
G37*
G36*
X52574505Y-29726204D02*
G01*
X52598773Y-29729804D01*
X52622572Y-29735765D01*
X52645671Y-29744030D01*
X52667850Y-29754520D01*
X52688893Y-29767132D01*
X52708599Y-29781747D01*
X52726777Y-29798223D01*
X52743253Y-29816401D01*
X52757868Y-29836107D01*
X52770480Y-29857150D01*
X52780970Y-29879329D01*
X52789235Y-29902428D01*
X52795196Y-29926227D01*
X52798796Y-29950495D01*
X52800000Y-29974999D01*
X52800000Y-31275001D01*
X52798796Y-31299505D01*
X52795196Y-31323773D01*
X52789235Y-31347572D01*
X52780970Y-31370671D01*
X52770480Y-31392850D01*
X52757868Y-31413893D01*
X52743253Y-31433599D01*
X52726777Y-31451777D01*
X52708599Y-31468253D01*
X52688893Y-31482868D01*
X52667850Y-31495480D01*
X52645671Y-31505970D01*
X52622572Y-31514235D01*
X52598773Y-31520196D01*
X52574505Y-31523796D01*
X52550001Y-31525000D01*
X51849999Y-31525000D01*
X51825495Y-31523796D01*
X51801227Y-31520196D01*
X51777428Y-31514235D01*
X51754329Y-31505970D01*
X51732150Y-31495480D01*
X51711107Y-31482868D01*
X51691401Y-31468253D01*
X51673223Y-31451777D01*
X51656747Y-31433599D01*
X51642132Y-31413893D01*
X51629520Y-31392850D01*
X51619030Y-31370671D01*
X51610765Y-31347572D01*
X51604804Y-31323773D01*
X51601204Y-31299505D01*
X51600000Y-31275001D01*
X51600000Y-29974999D01*
X51601204Y-29950495D01*
X51604804Y-29926227D01*
X51610765Y-29902428D01*
X51619030Y-29879329D01*
X51629520Y-29857150D01*
X51642132Y-29836107D01*
X51656747Y-29816401D01*
X51673223Y-29798223D01*
X51691401Y-29781747D01*
X51711107Y-29767132D01*
X51732150Y-29754520D01*
X51754329Y-29744030D01*
X51777428Y-29735765D01*
X51801227Y-29729804D01*
X51825495Y-29726204D01*
X51849999Y-29725000D01*
X52550001Y-29725000D01*
X52574505Y-29726204D01*
G37*
G36*
X63174505Y-29726204D02*
G01*
X63198773Y-29729804D01*
X63222572Y-29735765D01*
X63245671Y-29744030D01*
X63267850Y-29754520D01*
X63288893Y-29767132D01*
X63308599Y-29781747D01*
X63326777Y-29798223D01*
X63343253Y-29816401D01*
X63357868Y-29836107D01*
X63370480Y-29857150D01*
X63380970Y-29879329D01*
X63389235Y-29902428D01*
X63395196Y-29926227D01*
X63398796Y-29950495D01*
X63400000Y-29974999D01*
X63400000Y-31275001D01*
X63398796Y-31299505D01*
X63395196Y-31323773D01*
X63389235Y-31347572D01*
X63380970Y-31370671D01*
X63370480Y-31392850D01*
X63357868Y-31413893D01*
X63343253Y-31433599D01*
X63326777Y-31451777D01*
X63308599Y-31468253D01*
X63288893Y-31482868D01*
X63267850Y-31495480D01*
X63245671Y-31505970D01*
X63222572Y-31514235D01*
X63198773Y-31520196D01*
X63174505Y-31523796D01*
X63150001Y-31525000D01*
X62449999Y-31525000D01*
X62425495Y-31523796D01*
X62401227Y-31520196D01*
X62377428Y-31514235D01*
X62354329Y-31505970D01*
X62332150Y-31495480D01*
X62311107Y-31482868D01*
X62291401Y-31468253D01*
X62273223Y-31451777D01*
X62256747Y-31433599D01*
X62242132Y-31413893D01*
X62229520Y-31392850D01*
X62219030Y-31370671D01*
X62210765Y-31347572D01*
X62204804Y-31323773D01*
X62201204Y-31299505D01*
X62200000Y-31275001D01*
X62200000Y-29974999D01*
X62201204Y-29950495D01*
X62204804Y-29926227D01*
X62210765Y-29902428D01*
X62219030Y-29879329D01*
X62229520Y-29857150D01*
X62242132Y-29836107D01*
X62256747Y-29816401D01*
X62273223Y-29798223D01*
X62291401Y-29781747D01*
X62311107Y-29767132D01*
X62332150Y-29754520D01*
X62354329Y-29744030D01*
X62377428Y-29735765D01*
X62401227Y-29729804D01*
X62425495Y-29726204D01*
X62449999Y-29725000D01*
X63150001Y-29725000D01*
X63174505Y-29726204D01*
G37*
G36*
X53664703Y-33775722D02*
G01*
X53679264Y-33777882D01*
X53693543Y-33781459D01*
X53707403Y-33786418D01*
X53720710Y-33792712D01*
X53733336Y-33800280D01*
X53745159Y-33809048D01*
X53756066Y-33818934D01*
X53765952Y-33829841D01*
X53774720Y-33841664D01*
X53782288Y-33854290D01*
X53788582Y-33867597D01*
X53793541Y-33881457D01*
X53797118Y-33895736D01*
X53799278Y-33910297D01*
X53800000Y-33925000D01*
X53800000Y-35125000D01*
X53799278Y-35139703D01*
X53797118Y-35154264D01*
X53793541Y-35168543D01*
X53788582Y-35182403D01*
X53782288Y-35195710D01*
X53774720Y-35208336D01*
X53765952Y-35220159D01*
X53756066Y-35231066D01*
X53745159Y-35240952D01*
X53733336Y-35249720D01*
X53720710Y-35257288D01*
X53707403Y-35263582D01*
X53693543Y-35268541D01*
X53679264Y-35272118D01*
X53664703Y-35274278D01*
X53650000Y-35275000D01*
X53350000Y-35275000D01*
X53335297Y-35274278D01*
X53320736Y-35272118D01*
X53306457Y-35268541D01*
X53292597Y-35263582D01*
X53279290Y-35257288D01*
X53266664Y-35249720D01*
X53254841Y-35240952D01*
X53243934Y-35231066D01*
X53234048Y-35220159D01*
X53225280Y-35208336D01*
X53217712Y-35195710D01*
X53211418Y-35182403D01*
X53206459Y-35168543D01*
X53202882Y-35154264D01*
X53200722Y-35139703D01*
X53200000Y-35125000D01*
X53200000Y-33925000D01*
X53200722Y-33910297D01*
X53202882Y-33895736D01*
X53206459Y-33881457D01*
X53211418Y-33867597D01*
X53217712Y-33854290D01*
X53225280Y-33841664D01*
X53234048Y-33829841D01*
X53243934Y-33818934D01*
X53254841Y-33809048D01*
X53266664Y-33800280D01*
X53279290Y-33792712D01*
X53292597Y-33786418D01*
X53306457Y-33781459D01*
X53320736Y-33777882D01*
X53335297Y-33775722D01*
X53350000Y-33775000D01*
X53650000Y-33775000D01*
X53664703Y-33775722D01*
G37*
G36*
X54664703Y-33775722D02*
G01*
X54679264Y-33777882D01*
X54693543Y-33781459D01*
X54707403Y-33786418D01*
X54720710Y-33792712D01*
X54733336Y-33800280D01*
X54745159Y-33809048D01*
X54756066Y-33818934D01*
X54765952Y-33829841D01*
X54774720Y-33841664D01*
X54782288Y-33854290D01*
X54788582Y-33867597D01*
X54793541Y-33881457D01*
X54797118Y-33895736D01*
X54799278Y-33910297D01*
X54800000Y-33925000D01*
X54800000Y-35125000D01*
X54799278Y-35139703D01*
X54797118Y-35154264D01*
X54793541Y-35168543D01*
X54788582Y-35182403D01*
X54782288Y-35195710D01*
X54774720Y-35208336D01*
X54765952Y-35220159D01*
X54756066Y-35231066D01*
X54745159Y-35240952D01*
X54733336Y-35249720D01*
X54720710Y-35257288D01*
X54707403Y-35263582D01*
X54693543Y-35268541D01*
X54679264Y-35272118D01*
X54664703Y-35274278D01*
X54650000Y-35275000D01*
X54350000Y-35275000D01*
X54335297Y-35274278D01*
X54320736Y-35272118D01*
X54306457Y-35268541D01*
X54292597Y-35263582D01*
X54279290Y-35257288D01*
X54266664Y-35249720D01*
X54254841Y-35240952D01*
X54243934Y-35231066D01*
X54234048Y-35220159D01*
X54225280Y-35208336D01*
X54217712Y-35195710D01*
X54211418Y-35182403D01*
X54206459Y-35168543D01*
X54202882Y-35154264D01*
X54200722Y-35139703D01*
X54200000Y-35125000D01*
X54200000Y-33925000D01*
X54200722Y-33910297D01*
X54202882Y-33895736D01*
X54206459Y-33881457D01*
X54211418Y-33867597D01*
X54217712Y-33854290D01*
X54225280Y-33841664D01*
X54234048Y-33829841D01*
X54243934Y-33818934D01*
X54254841Y-33809048D01*
X54266664Y-33800280D01*
X54279290Y-33792712D01*
X54292597Y-33786418D01*
X54306457Y-33781459D01*
X54320736Y-33777882D01*
X54335297Y-33775722D01*
X54350000Y-33775000D01*
X54650000Y-33775000D01*
X54664703Y-33775722D01*
G37*
G36*
X55664703Y-33775722D02*
G01*
X55679264Y-33777882D01*
X55693543Y-33781459D01*
X55707403Y-33786418D01*
X55720710Y-33792712D01*
X55733336Y-33800280D01*
X55745159Y-33809048D01*
X55756066Y-33818934D01*
X55765952Y-33829841D01*
X55774720Y-33841664D01*
X55782288Y-33854290D01*
X55788582Y-33867597D01*
X55793541Y-33881457D01*
X55797118Y-33895736D01*
X55799278Y-33910297D01*
X55800000Y-33925000D01*
X55800000Y-35125000D01*
X55799278Y-35139703D01*
X55797118Y-35154264D01*
X55793541Y-35168543D01*
X55788582Y-35182403D01*
X55782288Y-35195710D01*
X55774720Y-35208336D01*
X55765952Y-35220159D01*
X55756066Y-35231066D01*
X55745159Y-35240952D01*
X55733336Y-35249720D01*
X55720710Y-35257288D01*
X55707403Y-35263582D01*
X55693543Y-35268541D01*
X55679264Y-35272118D01*
X55664703Y-35274278D01*
X55650000Y-35275000D01*
X55350000Y-35275000D01*
X55335297Y-35274278D01*
X55320736Y-35272118D01*
X55306457Y-35268541D01*
X55292597Y-35263582D01*
X55279290Y-35257288D01*
X55266664Y-35249720D01*
X55254841Y-35240952D01*
X55243934Y-35231066D01*
X55234048Y-35220159D01*
X55225280Y-35208336D01*
X55217712Y-35195710D01*
X55211418Y-35182403D01*
X55206459Y-35168543D01*
X55202882Y-35154264D01*
X55200722Y-35139703D01*
X55200000Y-35125000D01*
X55200000Y-33925000D01*
X55200722Y-33910297D01*
X55202882Y-33895736D01*
X55206459Y-33881457D01*
X55211418Y-33867597D01*
X55217712Y-33854290D01*
X55225280Y-33841664D01*
X55234048Y-33829841D01*
X55243934Y-33818934D01*
X55254841Y-33809048D01*
X55266664Y-33800280D01*
X55279290Y-33792712D01*
X55292597Y-33786418D01*
X55306457Y-33781459D01*
X55320736Y-33777882D01*
X55335297Y-33775722D01*
X55350000Y-33775000D01*
X55650000Y-33775000D01*
X55664703Y-33775722D01*
G37*
G36*
X56664703Y-33775722D02*
G01*
X56679264Y-33777882D01*
X56693543Y-33781459D01*
X56707403Y-33786418D01*
X56720710Y-33792712D01*
X56733336Y-33800280D01*
X56745159Y-33809048D01*
X56756066Y-33818934D01*
X56765952Y-33829841D01*
X56774720Y-33841664D01*
X56782288Y-33854290D01*
X56788582Y-33867597D01*
X56793541Y-33881457D01*
X56797118Y-33895736D01*
X56799278Y-33910297D01*
X56800000Y-33925000D01*
X56800000Y-35125000D01*
X56799278Y-35139703D01*
X56797118Y-35154264D01*
X56793541Y-35168543D01*
X56788582Y-35182403D01*
X56782288Y-35195710D01*
X56774720Y-35208336D01*
X56765952Y-35220159D01*
X56756066Y-35231066D01*
X56745159Y-35240952D01*
X56733336Y-35249720D01*
X56720710Y-35257288D01*
X56707403Y-35263582D01*
X56693543Y-35268541D01*
X56679264Y-35272118D01*
X56664703Y-35274278D01*
X56650000Y-35275000D01*
X56350000Y-35275000D01*
X56335297Y-35274278D01*
X56320736Y-35272118D01*
X56306457Y-35268541D01*
X56292597Y-35263582D01*
X56279290Y-35257288D01*
X56266664Y-35249720D01*
X56254841Y-35240952D01*
X56243934Y-35231066D01*
X56234048Y-35220159D01*
X56225280Y-35208336D01*
X56217712Y-35195710D01*
X56211418Y-35182403D01*
X56206459Y-35168543D01*
X56202882Y-35154264D01*
X56200722Y-35139703D01*
X56200000Y-35125000D01*
X56200000Y-33925000D01*
X56200722Y-33910297D01*
X56202882Y-33895736D01*
X56206459Y-33881457D01*
X56211418Y-33867597D01*
X56217712Y-33854290D01*
X56225280Y-33841664D01*
X56234048Y-33829841D01*
X56243934Y-33818934D01*
X56254841Y-33809048D01*
X56266664Y-33800280D01*
X56279290Y-33792712D01*
X56292597Y-33786418D01*
X56306457Y-33781459D01*
X56320736Y-33777882D01*
X56335297Y-33775722D01*
X56350000Y-33775000D01*
X56650000Y-33775000D01*
X56664703Y-33775722D01*
G37*
G36*
X57664703Y-33775722D02*
G01*
X57679264Y-33777882D01*
X57693543Y-33781459D01*
X57707403Y-33786418D01*
X57720710Y-33792712D01*
X57733336Y-33800280D01*
X57745159Y-33809048D01*
X57756066Y-33818934D01*
X57765952Y-33829841D01*
X57774720Y-33841664D01*
X57782288Y-33854290D01*
X57788582Y-33867597D01*
X57793541Y-33881457D01*
X57797118Y-33895736D01*
X57799278Y-33910297D01*
X57800000Y-33925000D01*
X57800000Y-35125000D01*
X57799278Y-35139703D01*
X57797118Y-35154264D01*
X57793541Y-35168543D01*
X57788582Y-35182403D01*
X57782288Y-35195710D01*
X57774720Y-35208336D01*
X57765952Y-35220159D01*
X57756066Y-35231066D01*
X57745159Y-35240952D01*
X57733336Y-35249720D01*
X57720710Y-35257288D01*
X57707403Y-35263582D01*
X57693543Y-35268541D01*
X57679264Y-35272118D01*
X57664703Y-35274278D01*
X57650000Y-35275000D01*
X57350000Y-35275000D01*
X57335297Y-35274278D01*
X57320736Y-35272118D01*
X57306457Y-35268541D01*
X57292597Y-35263582D01*
X57279290Y-35257288D01*
X57266664Y-35249720D01*
X57254841Y-35240952D01*
X57243934Y-35231066D01*
X57234048Y-35220159D01*
X57225280Y-35208336D01*
X57217712Y-35195710D01*
X57211418Y-35182403D01*
X57206459Y-35168543D01*
X57202882Y-35154264D01*
X57200722Y-35139703D01*
X57200000Y-35125000D01*
X57200000Y-33925000D01*
X57200722Y-33910297D01*
X57202882Y-33895736D01*
X57206459Y-33881457D01*
X57211418Y-33867597D01*
X57217712Y-33854290D01*
X57225280Y-33841664D01*
X57234048Y-33829841D01*
X57243934Y-33818934D01*
X57254841Y-33809048D01*
X57266664Y-33800280D01*
X57279290Y-33792712D01*
X57292597Y-33786418D01*
X57306457Y-33781459D01*
X57320736Y-33777882D01*
X57335297Y-33775722D01*
X57350000Y-33775000D01*
X57650000Y-33775000D01*
X57664703Y-33775722D01*
G37*
G36*
X58664703Y-33775722D02*
G01*
X58679264Y-33777882D01*
X58693543Y-33781459D01*
X58707403Y-33786418D01*
X58720710Y-33792712D01*
X58733336Y-33800280D01*
X58745159Y-33809048D01*
X58756066Y-33818934D01*
X58765952Y-33829841D01*
X58774720Y-33841664D01*
X58782288Y-33854290D01*
X58788582Y-33867597D01*
X58793541Y-33881457D01*
X58797118Y-33895736D01*
X58799278Y-33910297D01*
X58800000Y-33925000D01*
X58800000Y-35125000D01*
X58799278Y-35139703D01*
X58797118Y-35154264D01*
X58793541Y-35168543D01*
X58788582Y-35182403D01*
X58782288Y-35195710D01*
X58774720Y-35208336D01*
X58765952Y-35220159D01*
X58756066Y-35231066D01*
X58745159Y-35240952D01*
X58733336Y-35249720D01*
X58720710Y-35257288D01*
X58707403Y-35263582D01*
X58693543Y-35268541D01*
X58679264Y-35272118D01*
X58664703Y-35274278D01*
X58650000Y-35275000D01*
X58350000Y-35275000D01*
X58335297Y-35274278D01*
X58320736Y-35272118D01*
X58306457Y-35268541D01*
X58292597Y-35263582D01*
X58279290Y-35257288D01*
X58266664Y-35249720D01*
X58254841Y-35240952D01*
X58243934Y-35231066D01*
X58234048Y-35220159D01*
X58225280Y-35208336D01*
X58217712Y-35195710D01*
X58211418Y-35182403D01*
X58206459Y-35168543D01*
X58202882Y-35154264D01*
X58200722Y-35139703D01*
X58200000Y-35125000D01*
X58200000Y-33925000D01*
X58200722Y-33910297D01*
X58202882Y-33895736D01*
X58206459Y-33881457D01*
X58211418Y-33867597D01*
X58217712Y-33854290D01*
X58225280Y-33841664D01*
X58234048Y-33829841D01*
X58243934Y-33818934D01*
X58254841Y-33809048D01*
X58266664Y-33800280D01*
X58279290Y-33792712D01*
X58292597Y-33786418D01*
X58306457Y-33781459D01*
X58320736Y-33777882D01*
X58335297Y-33775722D01*
X58350000Y-33775000D01*
X58650000Y-33775000D01*
X58664703Y-33775722D01*
G37*
G36*
X59664703Y-33775722D02*
G01*
X59679264Y-33777882D01*
X59693543Y-33781459D01*
X59707403Y-33786418D01*
X59720710Y-33792712D01*
X59733336Y-33800280D01*
X59745159Y-33809048D01*
X59756066Y-33818934D01*
X59765952Y-33829841D01*
X59774720Y-33841664D01*
X59782288Y-33854290D01*
X59788582Y-33867597D01*
X59793541Y-33881457D01*
X59797118Y-33895736D01*
X59799278Y-33910297D01*
X59800000Y-33925000D01*
X59800000Y-35125000D01*
X59799278Y-35139703D01*
X59797118Y-35154264D01*
X59793541Y-35168543D01*
X59788582Y-35182403D01*
X59782288Y-35195710D01*
X59774720Y-35208336D01*
X59765952Y-35220159D01*
X59756066Y-35231066D01*
X59745159Y-35240952D01*
X59733336Y-35249720D01*
X59720710Y-35257288D01*
X59707403Y-35263582D01*
X59693543Y-35268541D01*
X59679264Y-35272118D01*
X59664703Y-35274278D01*
X59650000Y-35275000D01*
X59350000Y-35275000D01*
X59335297Y-35274278D01*
X59320736Y-35272118D01*
X59306457Y-35268541D01*
X59292597Y-35263582D01*
X59279290Y-35257288D01*
X59266664Y-35249720D01*
X59254841Y-35240952D01*
X59243934Y-35231066D01*
X59234048Y-35220159D01*
X59225280Y-35208336D01*
X59217712Y-35195710D01*
X59211418Y-35182403D01*
X59206459Y-35168543D01*
X59202882Y-35154264D01*
X59200722Y-35139703D01*
X59200000Y-35125000D01*
X59200000Y-33925000D01*
X59200722Y-33910297D01*
X59202882Y-33895736D01*
X59206459Y-33881457D01*
X59211418Y-33867597D01*
X59217712Y-33854290D01*
X59225280Y-33841664D01*
X59234048Y-33829841D01*
X59243934Y-33818934D01*
X59254841Y-33809048D01*
X59266664Y-33800280D01*
X59279290Y-33792712D01*
X59292597Y-33786418D01*
X59306457Y-33781459D01*
X59320736Y-33777882D01*
X59335297Y-33775722D01*
X59350000Y-33775000D01*
X59650000Y-33775000D01*
X59664703Y-33775722D01*
G37*
G36*
X60664703Y-33775722D02*
G01*
X60679264Y-33777882D01*
X60693543Y-33781459D01*
X60707403Y-33786418D01*
X60720710Y-33792712D01*
X60733336Y-33800280D01*
X60745159Y-33809048D01*
X60756066Y-33818934D01*
X60765952Y-33829841D01*
X60774720Y-33841664D01*
X60782288Y-33854290D01*
X60788582Y-33867597D01*
X60793541Y-33881457D01*
X60797118Y-33895736D01*
X60799278Y-33910297D01*
X60800000Y-33925000D01*
X60800000Y-35125000D01*
X60799278Y-35139703D01*
X60797118Y-35154264D01*
X60793541Y-35168543D01*
X60788582Y-35182403D01*
X60782288Y-35195710D01*
X60774720Y-35208336D01*
X60765952Y-35220159D01*
X60756066Y-35231066D01*
X60745159Y-35240952D01*
X60733336Y-35249720D01*
X60720710Y-35257288D01*
X60707403Y-35263582D01*
X60693543Y-35268541D01*
X60679264Y-35272118D01*
X60664703Y-35274278D01*
X60650000Y-35275000D01*
X60350000Y-35275000D01*
X60335297Y-35274278D01*
X60320736Y-35272118D01*
X60306457Y-35268541D01*
X60292597Y-35263582D01*
X60279290Y-35257288D01*
X60266664Y-35249720D01*
X60254841Y-35240952D01*
X60243934Y-35231066D01*
X60234048Y-35220159D01*
X60225280Y-35208336D01*
X60217712Y-35195710D01*
X60211418Y-35182403D01*
X60206459Y-35168543D01*
X60202882Y-35154264D01*
X60200722Y-35139703D01*
X60200000Y-35125000D01*
X60200000Y-33925000D01*
X60200722Y-33910297D01*
X60202882Y-33895736D01*
X60206459Y-33881457D01*
X60211418Y-33867597D01*
X60217712Y-33854290D01*
X60225280Y-33841664D01*
X60234048Y-33829841D01*
X60243934Y-33818934D01*
X60254841Y-33809048D01*
X60266664Y-33800280D01*
X60279290Y-33792712D01*
X60292597Y-33786418D01*
X60306457Y-33781459D01*
X60320736Y-33777882D01*
X60335297Y-33775722D01*
X60350000Y-33775000D01*
X60650000Y-33775000D01*
X60664703Y-33775722D01*
G37*
G36*
X61664703Y-33775722D02*
G01*
X61679264Y-33777882D01*
X61693543Y-33781459D01*
X61707403Y-33786418D01*
X61720710Y-33792712D01*
X61733336Y-33800280D01*
X61745159Y-33809048D01*
X61756066Y-33818934D01*
X61765952Y-33829841D01*
X61774720Y-33841664D01*
X61782288Y-33854290D01*
X61788582Y-33867597D01*
X61793541Y-33881457D01*
X61797118Y-33895736D01*
X61799278Y-33910297D01*
X61800000Y-33925000D01*
X61800000Y-35125000D01*
X61799278Y-35139703D01*
X61797118Y-35154264D01*
X61793541Y-35168543D01*
X61788582Y-35182403D01*
X61782288Y-35195710D01*
X61774720Y-35208336D01*
X61765952Y-35220159D01*
X61756066Y-35231066D01*
X61745159Y-35240952D01*
X61733336Y-35249720D01*
X61720710Y-35257288D01*
X61707403Y-35263582D01*
X61693543Y-35268541D01*
X61679264Y-35272118D01*
X61664703Y-35274278D01*
X61650000Y-35275000D01*
X61350000Y-35275000D01*
X61335297Y-35274278D01*
X61320736Y-35272118D01*
X61306457Y-35268541D01*
X61292597Y-35263582D01*
X61279290Y-35257288D01*
X61266664Y-35249720D01*
X61254841Y-35240952D01*
X61243934Y-35231066D01*
X61234048Y-35220159D01*
X61225280Y-35208336D01*
X61217712Y-35195710D01*
X61211418Y-35182403D01*
X61206459Y-35168543D01*
X61202882Y-35154264D01*
X61200722Y-35139703D01*
X61200000Y-35125000D01*
X61200000Y-33925000D01*
X61200722Y-33910297D01*
X61202882Y-33895736D01*
X61206459Y-33881457D01*
X61211418Y-33867597D01*
X61217712Y-33854290D01*
X61225280Y-33841664D01*
X61234048Y-33829841D01*
X61243934Y-33818934D01*
X61254841Y-33809048D01*
X61266664Y-33800280D01*
X61279290Y-33792712D01*
X61292597Y-33786418D01*
X61306457Y-33781459D01*
X61320736Y-33777882D01*
X61335297Y-33775722D01*
X61350000Y-33775000D01*
X61650000Y-33775000D01*
X61664703Y-33775722D01*
G37*
G36*
X102974505Y-36926204D02*
G01*
X102998773Y-36929804D01*
X103022572Y-36935765D01*
X103045671Y-36944030D01*
X103067850Y-36954520D01*
X103088893Y-36967132D01*
X103108599Y-36981747D01*
X103126777Y-36998223D01*
X103143253Y-37016401D01*
X103157868Y-37036107D01*
X103170480Y-37057150D01*
X103180970Y-37079329D01*
X103189235Y-37102428D01*
X103195196Y-37126227D01*
X103198796Y-37150495D01*
X103200000Y-37174999D01*
X103200000Y-37825001D01*
X103198796Y-37849505D01*
X103195196Y-37873773D01*
X103189235Y-37897572D01*
X103180970Y-37920671D01*
X103170480Y-37942850D01*
X103157868Y-37963893D01*
X103143253Y-37983599D01*
X103126777Y-38001777D01*
X103108599Y-38018253D01*
X103088893Y-38032868D01*
X103067850Y-38045480D01*
X103045671Y-38055970D01*
X103022572Y-38064235D01*
X102998773Y-38070196D01*
X102974505Y-38073796D01*
X102950001Y-38075000D01*
X102049999Y-38075000D01*
X102025495Y-38073796D01*
X102001227Y-38070196D01*
X101977428Y-38064235D01*
X101954329Y-38055970D01*
X101932150Y-38045480D01*
X101911107Y-38032868D01*
X101891401Y-38018253D01*
X101873223Y-38001777D01*
X101856747Y-37983599D01*
X101842132Y-37963893D01*
X101829520Y-37942850D01*
X101819030Y-37920671D01*
X101810765Y-37897572D01*
X101804804Y-37873773D01*
X101801204Y-37849505D01*
X101800000Y-37825001D01*
X101800000Y-37174999D01*
X101801204Y-37150495D01*
X101804804Y-37126227D01*
X101810765Y-37102428D01*
X101819030Y-37079329D01*
X101829520Y-37057150D01*
X101842132Y-37036107D01*
X101856747Y-37016401D01*
X101873223Y-36998223D01*
X101891401Y-36981747D01*
X101911107Y-36967132D01*
X101932150Y-36954520D01*
X101954329Y-36944030D01*
X101977428Y-36935765D01*
X102001227Y-36929804D01*
X102025495Y-36926204D01*
X102049999Y-36925000D01*
X102950001Y-36925000D01*
X102974505Y-36926204D01*
G37*
G36*
X102974505Y-38976204D02*
G01*
X102998773Y-38979804D01*
X103022572Y-38985765D01*
X103045671Y-38994030D01*
X103067850Y-39004520D01*
X103088893Y-39017132D01*
X103108599Y-39031747D01*
X103126777Y-39048223D01*
X103143253Y-39066401D01*
X103157868Y-39086107D01*
X103170480Y-39107150D01*
X103180970Y-39129329D01*
X103189235Y-39152428D01*
X103195196Y-39176227D01*
X103198796Y-39200495D01*
X103200000Y-39224999D01*
X103200000Y-39875001D01*
X103198796Y-39899505D01*
X103195196Y-39923773D01*
X103189235Y-39947572D01*
X103180970Y-39970671D01*
X103170480Y-39992850D01*
X103157868Y-40013893D01*
X103143253Y-40033599D01*
X103126777Y-40051777D01*
X103108599Y-40068253D01*
X103088893Y-40082868D01*
X103067850Y-40095480D01*
X103045671Y-40105970D01*
X103022572Y-40114235D01*
X102998773Y-40120196D01*
X102974505Y-40123796D01*
X102950001Y-40125000D01*
X102049999Y-40125000D01*
X102025495Y-40123796D01*
X102001227Y-40120196D01*
X101977428Y-40114235D01*
X101954329Y-40105970D01*
X101932150Y-40095480D01*
X101911107Y-40082868D01*
X101891401Y-40068253D01*
X101873223Y-40051777D01*
X101856747Y-40033599D01*
X101842132Y-40013893D01*
X101829520Y-39992850D01*
X101819030Y-39970671D01*
X101810765Y-39947572D01*
X101804804Y-39923773D01*
X101801204Y-39899505D01*
X101800000Y-39875001D01*
X101800000Y-39224999D01*
X101801204Y-39200495D01*
X101804804Y-39176227D01*
X101810765Y-39152428D01*
X101819030Y-39129329D01*
X101829520Y-39107150D01*
X101842132Y-39086107D01*
X101856747Y-39066401D01*
X101873223Y-39048223D01*
X101891401Y-39031747D01*
X101911107Y-39017132D01*
X101932150Y-39004520D01*
X101954329Y-38994030D01*
X101977428Y-38985765D01*
X102001227Y-38979804D01*
X102025495Y-38976204D01*
X102049999Y-38975000D01*
X102950001Y-38975000D01*
X102974505Y-38976204D01*
G37*
G36*
X97974505Y-36926204D02*
G01*
X97998773Y-36929804D01*
X98022572Y-36935765D01*
X98045671Y-36944030D01*
X98067850Y-36954520D01*
X98088893Y-36967132D01*
X98108599Y-36981747D01*
X98126777Y-36998223D01*
X98143253Y-37016401D01*
X98157868Y-37036107D01*
X98170480Y-37057150D01*
X98180970Y-37079329D01*
X98189235Y-37102428D01*
X98195196Y-37126227D01*
X98198796Y-37150495D01*
X98200000Y-37174999D01*
X98200000Y-37825001D01*
X98198796Y-37849505D01*
X98195196Y-37873773D01*
X98189235Y-37897572D01*
X98180970Y-37920671D01*
X98170480Y-37942850D01*
X98157868Y-37963893D01*
X98143253Y-37983599D01*
X98126777Y-38001777D01*
X98108599Y-38018253D01*
X98088893Y-38032868D01*
X98067850Y-38045480D01*
X98045671Y-38055970D01*
X98022572Y-38064235D01*
X97998773Y-38070196D01*
X97974505Y-38073796D01*
X97950001Y-38075000D01*
X97049999Y-38075000D01*
X97025495Y-38073796D01*
X97001227Y-38070196D01*
X96977428Y-38064235D01*
X96954329Y-38055970D01*
X96932150Y-38045480D01*
X96911107Y-38032868D01*
X96891401Y-38018253D01*
X96873223Y-38001777D01*
X96856747Y-37983599D01*
X96842132Y-37963893D01*
X96829520Y-37942850D01*
X96819030Y-37920671D01*
X96810765Y-37897572D01*
X96804804Y-37873773D01*
X96801204Y-37849505D01*
X96800000Y-37825001D01*
X96800000Y-37174999D01*
X96801204Y-37150495D01*
X96804804Y-37126227D01*
X96810765Y-37102428D01*
X96819030Y-37079329D01*
X96829520Y-37057150D01*
X96842132Y-37036107D01*
X96856747Y-37016401D01*
X96873223Y-36998223D01*
X96891401Y-36981747D01*
X96911107Y-36967132D01*
X96932150Y-36954520D01*
X96954329Y-36944030D01*
X96977428Y-36935765D01*
X97001227Y-36929804D01*
X97025495Y-36926204D01*
X97049999Y-36925000D01*
X97950001Y-36925000D01*
X97974505Y-36926204D01*
G37*
G36*
X97974505Y-38976204D02*
G01*
X97998773Y-38979804D01*
X98022572Y-38985765D01*
X98045671Y-38994030D01*
X98067850Y-39004520D01*
X98088893Y-39017132D01*
X98108599Y-39031747D01*
X98126777Y-39048223D01*
X98143253Y-39066401D01*
X98157868Y-39086107D01*
X98170480Y-39107150D01*
X98180970Y-39129329D01*
X98189235Y-39152428D01*
X98195196Y-39176227D01*
X98198796Y-39200495D01*
X98200000Y-39224999D01*
X98200000Y-39875001D01*
X98198796Y-39899505D01*
X98195196Y-39923773D01*
X98189235Y-39947572D01*
X98180970Y-39970671D01*
X98170480Y-39992850D01*
X98157868Y-40013893D01*
X98143253Y-40033599D01*
X98126777Y-40051777D01*
X98108599Y-40068253D01*
X98088893Y-40082868D01*
X98067850Y-40095480D01*
X98045671Y-40105970D01*
X98022572Y-40114235D01*
X97998773Y-40120196D01*
X97974505Y-40123796D01*
X97950001Y-40125000D01*
X97049999Y-40125000D01*
X97025495Y-40123796D01*
X97001227Y-40120196D01*
X96977428Y-40114235D01*
X96954329Y-40105970D01*
X96932150Y-40095480D01*
X96911107Y-40082868D01*
X96891401Y-40068253D01*
X96873223Y-40051777D01*
X96856747Y-40033599D01*
X96842132Y-40013893D01*
X96829520Y-39992850D01*
X96819030Y-39970671D01*
X96810765Y-39947572D01*
X96804804Y-39923773D01*
X96801204Y-39899505D01*
X96800000Y-39875001D01*
X96800000Y-39224999D01*
X96801204Y-39200495D01*
X96804804Y-39176227D01*
X96810765Y-39152428D01*
X96819030Y-39129329D01*
X96829520Y-39107150D01*
X96842132Y-39086107D01*
X96856747Y-39066401D01*
X96873223Y-39048223D01*
X96891401Y-39031747D01*
X96911107Y-39017132D01*
X96932150Y-39004520D01*
X96954329Y-38994030D01*
X96977428Y-38985765D01*
X97001227Y-38979804D01*
X97025495Y-38976204D01*
X97049999Y-38975000D01*
X97950001Y-38975000D01*
X97974505Y-38976204D01*
G37*
M02*
