G04 #@! TF.GenerationSoftware,KiCad,Pcbnew,5.1.5-52549c5~84~ubuntu18.04.1*
G04 #@! TF.CreationDate,2020-03-16T02:25:55+00:00*
G04 #@! TF.ProjectId,polariser_drive,706f6c61-7269-4736-9572-5f6472697665,rev?*
G04 #@! TF.SameCoordinates,Original*
G04 #@! TF.FileFunction,Soldermask,Bot*
G04 #@! TF.FilePolarity,Negative*
%FSLAX46Y46*%
G04 Gerber Fmt 4.6, Leading zero omitted, Abs format (unit mm)*
G04 Created by KiCad (PCBNEW 5.1.5-52549c5~84~ubuntu18.04.1) date 2020-03-16 02:25:55*
%MOMM*%
%LPD*%
G04 APERTURE LIST*
%ADD10C,0.100000*%
G04 APERTURE END LIST*
D10*
G36*
X110331694Y-69098633D02*
G01*
X110504095Y-69150931D01*
X110662983Y-69235858D01*
X110802249Y-69350151D01*
X110916542Y-69489417D01*
X111001469Y-69648305D01*
X111053767Y-69820706D01*
X111071425Y-70000000D01*
X111053767Y-70179294D01*
X111001469Y-70351695D01*
X110916542Y-70510583D01*
X110802249Y-70649849D01*
X110662983Y-70764142D01*
X110504095Y-70849069D01*
X110331694Y-70901367D01*
X110197331Y-70914600D01*
X109802669Y-70914600D01*
X109668306Y-70901367D01*
X109495905Y-70849069D01*
X109337017Y-70764142D01*
X109197751Y-70649849D01*
X109083458Y-70510583D01*
X108998531Y-70351695D01*
X108946233Y-70179294D01*
X108928575Y-70000000D01*
X108946233Y-69820706D01*
X108998531Y-69648305D01*
X109083458Y-69489417D01*
X109197751Y-69350151D01*
X109337017Y-69235858D01*
X109495905Y-69150931D01*
X109668306Y-69098633D01*
X109802669Y-69085400D01*
X110197331Y-69085400D01*
X110331694Y-69098633D01*
G37*
G36*
X87471694Y-69098633D02*
G01*
X87644095Y-69150931D01*
X87802983Y-69235858D01*
X87942249Y-69350151D01*
X88056542Y-69489417D01*
X88141469Y-69648305D01*
X88193767Y-69820706D01*
X88211425Y-70000000D01*
X88193767Y-70179294D01*
X88141469Y-70351695D01*
X88056542Y-70510583D01*
X87942249Y-70649849D01*
X87802983Y-70764142D01*
X87644095Y-70849069D01*
X87471694Y-70901367D01*
X87337331Y-70914600D01*
X86942669Y-70914600D01*
X86808306Y-70901367D01*
X86635905Y-70849069D01*
X86477017Y-70764142D01*
X86337751Y-70649849D01*
X86223458Y-70510583D01*
X86138531Y-70351695D01*
X86086233Y-70179294D01*
X86068575Y-70000000D01*
X86086233Y-69820706D01*
X86138531Y-69648305D01*
X86223458Y-69489417D01*
X86337751Y-69350151D01*
X86477017Y-69235858D01*
X86635905Y-69150931D01*
X86808306Y-69098633D01*
X86942669Y-69085400D01*
X87337331Y-69085400D01*
X87471694Y-69098633D01*
G37*
G36*
X87471694Y-66558633D02*
G01*
X87644095Y-66610931D01*
X87802983Y-66695858D01*
X87942249Y-66810151D01*
X88056542Y-66949417D01*
X88141469Y-67108305D01*
X88193767Y-67280706D01*
X88211425Y-67460000D01*
X88193767Y-67639294D01*
X88141469Y-67811695D01*
X88056542Y-67970583D01*
X87942249Y-68109849D01*
X87802983Y-68224142D01*
X87644095Y-68309069D01*
X87471694Y-68361367D01*
X87337331Y-68374600D01*
X86942669Y-68374600D01*
X86808306Y-68361367D01*
X86635905Y-68309069D01*
X86477017Y-68224142D01*
X86337751Y-68109849D01*
X86223458Y-67970583D01*
X86138531Y-67811695D01*
X86086233Y-67639294D01*
X86068575Y-67460000D01*
X86086233Y-67280706D01*
X86138531Y-67108305D01*
X86223458Y-66949417D01*
X86337751Y-66810151D01*
X86477017Y-66695858D01*
X86635905Y-66610931D01*
X86808306Y-66558633D01*
X86942669Y-66545400D01*
X87337331Y-66545400D01*
X87471694Y-66558633D01*
G37*
G36*
X110331694Y-66558633D02*
G01*
X110504095Y-66610931D01*
X110662983Y-66695858D01*
X110802249Y-66810151D01*
X110916542Y-66949417D01*
X111001469Y-67108305D01*
X111053767Y-67280706D01*
X111071425Y-67460000D01*
X111053767Y-67639294D01*
X111001469Y-67811695D01*
X110916542Y-67970583D01*
X110802249Y-68109849D01*
X110662983Y-68224142D01*
X110504095Y-68309069D01*
X110331694Y-68361367D01*
X110197331Y-68374600D01*
X109802669Y-68374600D01*
X109668306Y-68361367D01*
X109495905Y-68309069D01*
X109337017Y-68224142D01*
X109197751Y-68109849D01*
X109083458Y-67970583D01*
X108998531Y-67811695D01*
X108946233Y-67639294D01*
X108928575Y-67460000D01*
X108946233Y-67280706D01*
X108998531Y-67108305D01*
X109083458Y-66949417D01*
X109197751Y-66810151D01*
X109337017Y-66695858D01*
X109495905Y-66610931D01*
X109668306Y-66558633D01*
X109802669Y-66545400D01*
X110197331Y-66545400D01*
X110331694Y-66558633D01*
G37*
G36*
X110331694Y-64018633D02*
G01*
X110504095Y-64070931D01*
X110662983Y-64155858D01*
X110802249Y-64270151D01*
X110916542Y-64409417D01*
X111001469Y-64568305D01*
X111053767Y-64740706D01*
X111071425Y-64920000D01*
X111053767Y-65099294D01*
X111001469Y-65271695D01*
X110916542Y-65430583D01*
X110802249Y-65569849D01*
X110662983Y-65684142D01*
X110504095Y-65769069D01*
X110331694Y-65821367D01*
X110197331Y-65834600D01*
X109802669Y-65834600D01*
X109668306Y-65821367D01*
X109495905Y-65769069D01*
X109337017Y-65684142D01*
X109197751Y-65569849D01*
X109083458Y-65430583D01*
X108998531Y-65271695D01*
X108946233Y-65099294D01*
X108928575Y-64920000D01*
X108946233Y-64740706D01*
X108998531Y-64568305D01*
X109083458Y-64409417D01*
X109197751Y-64270151D01*
X109337017Y-64155858D01*
X109495905Y-64070931D01*
X109668306Y-64018633D01*
X109802669Y-64005400D01*
X110197331Y-64005400D01*
X110331694Y-64018633D01*
G37*
G36*
X87471694Y-64018633D02*
G01*
X87644095Y-64070931D01*
X87802983Y-64155858D01*
X87942249Y-64270151D01*
X88056542Y-64409417D01*
X88141469Y-64568305D01*
X88193767Y-64740706D01*
X88211425Y-64920000D01*
X88193767Y-65099294D01*
X88141469Y-65271695D01*
X88056542Y-65430583D01*
X87942249Y-65569849D01*
X87802983Y-65684142D01*
X87644095Y-65769069D01*
X87471694Y-65821367D01*
X87337331Y-65834600D01*
X86942669Y-65834600D01*
X86808306Y-65821367D01*
X86635905Y-65769069D01*
X86477017Y-65684142D01*
X86337751Y-65569849D01*
X86223458Y-65430583D01*
X86138531Y-65271695D01*
X86086233Y-65099294D01*
X86068575Y-64920000D01*
X86086233Y-64740706D01*
X86138531Y-64568305D01*
X86223458Y-64409417D01*
X86337751Y-64270151D01*
X86477017Y-64155858D01*
X86635905Y-64070931D01*
X86808306Y-64018633D01*
X86942669Y-64005400D01*
X87337331Y-64005400D01*
X87471694Y-64018633D01*
G37*
G36*
X55642007Y-60383582D02*
G01*
X56042563Y-60549498D01*
X56042565Y-60549499D01*
X56403056Y-60790371D01*
X56709629Y-61096944D01*
X56950501Y-61457435D01*
X56950502Y-61457437D01*
X57116418Y-61857993D01*
X57201000Y-62283219D01*
X57201000Y-62716781D01*
X57116418Y-63142007D01*
X56950502Y-63542563D01*
X56950501Y-63542565D01*
X56709629Y-63903056D01*
X56403056Y-64209629D01*
X56042565Y-64450501D01*
X56042564Y-64450502D01*
X56042563Y-64450502D01*
X55642007Y-64616418D01*
X55216781Y-64701000D01*
X54783219Y-64701000D01*
X54357993Y-64616418D01*
X53957437Y-64450502D01*
X53957436Y-64450502D01*
X53957435Y-64450501D01*
X53596944Y-64209629D01*
X53290371Y-63903056D01*
X53049499Y-63542565D01*
X53049498Y-63542563D01*
X52883582Y-63142007D01*
X52799000Y-62716781D01*
X52799000Y-62283219D01*
X52883582Y-61857993D01*
X53049498Y-61457437D01*
X53049499Y-61457435D01*
X53290371Y-61096944D01*
X53596944Y-60790371D01*
X53957435Y-60549499D01*
X53957437Y-60549498D01*
X54357993Y-60383582D01*
X54783219Y-60299000D01*
X55216781Y-60299000D01*
X55642007Y-60383582D01*
G37*
G36*
X65642007Y-60383582D02*
G01*
X66042563Y-60549498D01*
X66042565Y-60549499D01*
X66403056Y-60790371D01*
X66709629Y-61096944D01*
X66950501Y-61457435D01*
X66950502Y-61457437D01*
X67116418Y-61857993D01*
X67201000Y-62283219D01*
X67201000Y-62716781D01*
X67116418Y-63142007D01*
X66950502Y-63542563D01*
X66950501Y-63542565D01*
X66709629Y-63903056D01*
X66403056Y-64209629D01*
X66042565Y-64450501D01*
X66042564Y-64450502D01*
X66042563Y-64450502D01*
X65642007Y-64616418D01*
X65216781Y-64701000D01*
X64783219Y-64701000D01*
X64357993Y-64616418D01*
X63957437Y-64450502D01*
X63957436Y-64450502D01*
X63957435Y-64450501D01*
X63596944Y-64209629D01*
X63290371Y-63903056D01*
X63049499Y-63542565D01*
X63049498Y-63542563D01*
X62883582Y-63142007D01*
X62799000Y-62716781D01*
X62799000Y-62283219D01*
X62883582Y-61857993D01*
X63049498Y-61457437D01*
X63049499Y-61457435D01*
X63290371Y-61096944D01*
X63596944Y-60790371D01*
X63957435Y-60549499D01*
X63957437Y-60549498D01*
X64357993Y-60383582D01*
X64783219Y-60299000D01*
X65216781Y-60299000D01*
X65642007Y-60383582D01*
G37*
G36*
X110331694Y-61478633D02*
G01*
X110504095Y-61530931D01*
X110662983Y-61615858D01*
X110802249Y-61730151D01*
X110916542Y-61869417D01*
X111001469Y-62028305D01*
X111053767Y-62200706D01*
X111071425Y-62380000D01*
X111053767Y-62559294D01*
X111001469Y-62731695D01*
X110916542Y-62890583D01*
X110802249Y-63029849D01*
X110662983Y-63144142D01*
X110504095Y-63229069D01*
X110331694Y-63281367D01*
X110197331Y-63294600D01*
X109802669Y-63294600D01*
X109668306Y-63281367D01*
X109495905Y-63229069D01*
X109337017Y-63144142D01*
X109197751Y-63029849D01*
X109083458Y-62890583D01*
X108998531Y-62731695D01*
X108946233Y-62559294D01*
X108928575Y-62380000D01*
X108946233Y-62200706D01*
X108998531Y-62028305D01*
X109083458Y-61869417D01*
X109197751Y-61730151D01*
X109337017Y-61615858D01*
X109495905Y-61530931D01*
X109668306Y-61478633D01*
X109802669Y-61465400D01*
X110197331Y-61465400D01*
X110331694Y-61478633D01*
G37*
G36*
X87471694Y-61478633D02*
G01*
X87644095Y-61530931D01*
X87802983Y-61615858D01*
X87942249Y-61730151D01*
X88056542Y-61869417D01*
X88141469Y-62028305D01*
X88193767Y-62200706D01*
X88211425Y-62380000D01*
X88193767Y-62559294D01*
X88141469Y-62731695D01*
X88056542Y-62890583D01*
X87942249Y-63029849D01*
X87802983Y-63144142D01*
X87644095Y-63229069D01*
X87471694Y-63281367D01*
X87337331Y-63294600D01*
X86942669Y-63294600D01*
X86808306Y-63281367D01*
X86635905Y-63229069D01*
X86477017Y-63144142D01*
X86337751Y-63029849D01*
X86223458Y-62890583D01*
X86138531Y-62731695D01*
X86086233Y-62559294D01*
X86068575Y-62380000D01*
X86086233Y-62200706D01*
X86138531Y-62028305D01*
X86223458Y-61869417D01*
X86337751Y-61730151D01*
X86477017Y-61615858D01*
X86635905Y-61530931D01*
X86808306Y-61478633D01*
X86942669Y-61465400D01*
X87337331Y-61465400D01*
X87471694Y-61478633D01*
G37*
G36*
X110331694Y-58938633D02*
G01*
X110504095Y-58990931D01*
X110662983Y-59075858D01*
X110802249Y-59190151D01*
X110916542Y-59329417D01*
X111001469Y-59488305D01*
X111053767Y-59660706D01*
X111071425Y-59840000D01*
X111053767Y-60019294D01*
X111001469Y-60191695D01*
X110916542Y-60350583D01*
X110802249Y-60489849D01*
X110662983Y-60604142D01*
X110504095Y-60689069D01*
X110331694Y-60741367D01*
X110197331Y-60754600D01*
X109802669Y-60754600D01*
X109668306Y-60741367D01*
X109495905Y-60689069D01*
X109337017Y-60604142D01*
X109197751Y-60489849D01*
X109083458Y-60350583D01*
X108998531Y-60191695D01*
X108946233Y-60019294D01*
X108928575Y-59840000D01*
X108946233Y-59660706D01*
X108998531Y-59488305D01*
X109083458Y-59329417D01*
X109197751Y-59190151D01*
X109337017Y-59075858D01*
X109495905Y-58990931D01*
X109668306Y-58938633D01*
X109802669Y-58925400D01*
X110197331Y-58925400D01*
X110331694Y-58938633D01*
G37*
G36*
X87471694Y-58938633D02*
G01*
X87644095Y-58990931D01*
X87802983Y-59075858D01*
X87942249Y-59190151D01*
X88056542Y-59329417D01*
X88141469Y-59488305D01*
X88193767Y-59660706D01*
X88211425Y-59840000D01*
X88193767Y-60019294D01*
X88141469Y-60191695D01*
X88056542Y-60350583D01*
X87942249Y-60489849D01*
X87802983Y-60604142D01*
X87644095Y-60689069D01*
X87471694Y-60741367D01*
X87337331Y-60754600D01*
X86942669Y-60754600D01*
X86808306Y-60741367D01*
X86635905Y-60689069D01*
X86477017Y-60604142D01*
X86337751Y-60489849D01*
X86223458Y-60350583D01*
X86138531Y-60191695D01*
X86086233Y-60019294D01*
X86068575Y-59840000D01*
X86086233Y-59660706D01*
X86138531Y-59488305D01*
X86223458Y-59329417D01*
X86337751Y-59190151D01*
X86477017Y-59075858D01*
X86635905Y-58990931D01*
X86808306Y-58938633D01*
X86942669Y-58925400D01*
X87337331Y-58925400D01*
X87471694Y-58938633D01*
G37*
G36*
X87471694Y-56398633D02*
G01*
X87644095Y-56450931D01*
X87802983Y-56535858D01*
X87942249Y-56650151D01*
X88056542Y-56789417D01*
X88141469Y-56948305D01*
X88193767Y-57120706D01*
X88211425Y-57300000D01*
X88193767Y-57479294D01*
X88141469Y-57651695D01*
X88056542Y-57810583D01*
X87942249Y-57949849D01*
X87802983Y-58064142D01*
X87644095Y-58149069D01*
X87471694Y-58201367D01*
X87337331Y-58214600D01*
X86942669Y-58214600D01*
X86808306Y-58201367D01*
X86635905Y-58149069D01*
X86477017Y-58064142D01*
X86337751Y-57949849D01*
X86223458Y-57810583D01*
X86138531Y-57651695D01*
X86086233Y-57479294D01*
X86068575Y-57300000D01*
X86086233Y-57120706D01*
X86138531Y-56948305D01*
X86223458Y-56789417D01*
X86337751Y-56650151D01*
X86477017Y-56535858D01*
X86635905Y-56450931D01*
X86808306Y-56398633D01*
X86942669Y-56385400D01*
X87337331Y-56385400D01*
X87471694Y-56398633D01*
G37*
G36*
X110331694Y-56398633D02*
G01*
X110504095Y-56450931D01*
X110662983Y-56535858D01*
X110802249Y-56650151D01*
X110916542Y-56789417D01*
X111001469Y-56948305D01*
X111053767Y-57120706D01*
X111071425Y-57300000D01*
X111053767Y-57479294D01*
X111001469Y-57651695D01*
X110916542Y-57810583D01*
X110802249Y-57949849D01*
X110662983Y-58064142D01*
X110504095Y-58149069D01*
X110331694Y-58201367D01*
X110197331Y-58214600D01*
X109802669Y-58214600D01*
X109668306Y-58201367D01*
X109495905Y-58149069D01*
X109337017Y-58064142D01*
X109197751Y-57949849D01*
X109083458Y-57810583D01*
X108998531Y-57651695D01*
X108946233Y-57479294D01*
X108928575Y-57300000D01*
X108946233Y-57120706D01*
X108998531Y-56948305D01*
X109083458Y-56789417D01*
X109197751Y-56650151D01*
X109337017Y-56535858D01*
X109495905Y-56450931D01*
X109668306Y-56398633D01*
X109802669Y-56385400D01*
X110197331Y-56385400D01*
X110331694Y-56398633D01*
G37*
G36*
X87471694Y-53858633D02*
G01*
X87644095Y-53910931D01*
X87802983Y-53995858D01*
X87942249Y-54110151D01*
X88056542Y-54249417D01*
X88141469Y-54408305D01*
X88193767Y-54580706D01*
X88211425Y-54760000D01*
X88193767Y-54939294D01*
X88141469Y-55111695D01*
X88056542Y-55270583D01*
X87942249Y-55409849D01*
X87802983Y-55524142D01*
X87644095Y-55609069D01*
X87471694Y-55661367D01*
X87337331Y-55674600D01*
X86942669Y-55674600D01*
X86808306Y-55661367D01*
X86635905Y-55609069D01*
X86477017Y-55524142D01*
X86337751Y-55409849D01*
X86223458Y-55270583D01*
X86138531Y-55111695D01*
X86086233Y-54939294D01*
X86068575Y-54760000D01*
X86086233Y-54580706D01*
X86138531Y-54408305D01*
X86223458Y-54249417D01*
X86337751Y-54110151D01*
X86477017Y-53995858D01*
X86635905Y-53910931D01*
X86808306Y-53858633D01*
X86942669Y-53845400D01*
X87337331Y-53845400D01*
X87471694Y-53858633D01*
G37*
G36*
X110331694Y-53858633D02*
G01*
X110504095Y-53910931D01*
X110662983Y-53995858D01*
X110802249Y-54110151D01*
X110916542Y-54249417D01*
X111001469Y-54408305D01*
X111053767Y-54580706D01*
X111071425Y-54760000D01*
X111053767Y-54939294D01*
X111001469Y-55111695D01*
X110916542Y-55270583D01*
X110802249Y-55409849D01*
X110662983Y-55524142D01*
X110504095Y-55609069D01*
X110331694Y-55661367D01*
X110197331Y-55674600D01*
X109802669Y-55674600D01*
X109668306Y-55661367D01*
X109495905Y-55609069D01*
X109337017Y-55524142D01*
X109197751Y-55409849D01*
X109083458Y-55270583D01*
X108998531Y-55111695D01*
X108946233Y-54939294D01*
X108928575Y-54760000D01*
X108946233Y-54580706D01*
X108998531Y-54408305D01*
X109083458Y-54249417D01*
X109197751Y-54110151D01*
X109337017Y-53995858D01*
X109495905Y-53910931D01*
X109668306Y-53858633D01*
X109802669Y-53845400D01*
X110197331Y-53845400D01*
X110331694Y-53858633D01*
G37*
G36*
X110331694Y-51318633D02*
G01*
X110504095Y-51370931D01*
X110662983Y-51455858D01*
X110802249Y-51570151D01*
X110916542Y-51709417D01*
X111001469Y-51868305D01*
X111053767Y-52040706D01*
X111071425Y-52220000D01*
X111053767Y-52399294D01*
X111001469Y-52571695D01*
X110916542Y-52730583D01*
X110802249Y-52869849D01*
X110662983Y-52984142D01*
X110504095Y-53069069D01*
X110331694Y-53121367D01*
X110197331Y-53134600D01*
X109802669Y-53134600D01*
X109668306Y-53121367D01*
X109495905Y-53069069D01*
X109337017Y-52984142D01*
X109197751Y-52869849D01*
X109083458Y-52730583D01*
X108998531Y-52571695D01*
X108946233Y-52399294D01*
X108928575Y-52220000D01*
X108946233Y-52040706D01*
X108998531Y-51868305D01*
X109083458Y-51709417D01*
X109197751Y-51570151D01*
X109337017Y-51455858D01*
X109495905Y-51370931D01*
X109668306Y-51318633D01*
X109802669Y-51305400D01*
X110197331Y-51305400D01*
X110331694Y-51318633D01*
G37*
G36*
X87471694Y-51318633D02*
G01*
X87644095Y-51370931D01*
X87802983Y-51455858D01*
X87942249Y-51570151D01*
X88056542Y-51709417D01*
X88141469Y-51868305D01*
X88193767Y-52040706D01*
X88211425Y-52220000D01*
X88193767Y-52399294D01*
X88141469Y-52571695D01*
X88056542Y-52730583D01*
X87942249Y-52869849D01*
X87802983Y-52984142D01*
X87644095Y-53069069D01*
X87471694Y-53121367D01*
X87337331Y-53134600D01*
X86942669Y-53134600D01*
X86808306Y-53121367D01*
X86635905Y-53069069D01*
X86477017Y-52984142D01*
X86337751Y-52869849D01*
X86223458Y-52730583D01*
X86138531Y-52571695D01*
X86086233Y-52399294D01*
X86068575Y-52220000D01*
X86086233Y-52040706D01*
X86138531Y-51868305D01*
X86223458Y-51709417D01*
X86337751Y-51570151D01*
X86477017Y-51455858D01*
X86635905Y-51370931D01*
X86808306Y-51318633D01*
X86942669Y-51305400D01*
X87337331Y-51305400D01*
X87471694Y-51318633D01*
G37*
G36*
X87471694Y-48778633D02*
G01*
X87644095Y-48830931D01*
X87802983Y-48915858D01*
X87942249Y-49030151D01*
X88056542Y-49169417D01*
X88141469Y-49328305D01*
X88193767Y-49500706D01*
X88211425Y-49680000D01*
X88193767Y-49859294D01*
X88141469Y-50031695D01*
X88056542Y-50190583D01*
X87942249Y-50329849D01*
X87802983Y-50444142D01*
X87644095Y-50529069D01*
X87471694Y-50581367D01*
X87337331Y-50594600D01*
X86942669Y-50594600D01*
X86808306Y-50581367D01*
X86635905Y-50529069D01*
X86477017Y-50444142D01*
X86337751Y-50329849D01*
X86223458Y-50190583D01*
X86138531Y-50031695D01*
X86086233Y-49859294D01*
X86068575Y-49680000D01*
X86086233Y-49500706D01*
X86138531Y-49328305D01*
X86223458Y-49169417D01*
X86337751Y-49030151D01*
X86477017Y-48915858D01*
X86635905Y-48830931D01*
X86808306Y-48778633D01*
X86942669Y-48765400D01*
X87337331Y-48765400D01*
X87471694Y-48778633D01*
G37*
G36*
X110331694Y-48778633D02*
G01*
X110504095Y-48830931D01*
X110662983Y-48915858D01*
X110802249Y-49030151D01*
X110916542Y-49169417D01*
X111001469Y-49328305D01*
X111053767Y-49500706D01*
X111071425Y-49680000D01*
X111053767Y-49859294D01*
X111001469Y-50031695D01*
X110916542Y-50190583D01*
X110802249Y-50329849D01*
X110662983Y-50444142D01*
X110504095Y-50529069D01*
X110331694Y-50581367D01*
X110197331Y-50594600D01*
X109802669Y-50594600D01*
X109668306Y-50581367D01*
X109495905Y-50529069D01*
X109337017Y-50444142D01*
X109197751Y-50329849D01*
X109083458Y-50190583D01*
X108998531Y-50031695D01*
X108946233Y-49859294D01*
X108928575Y-49680000D01*
X108946233Y-49500706D01*
X108998531Y-49328305D01*
X109083458Y-49169417D01*
X109197751Y-49030151D01*
X109337017Y-48915858D01*
X109495905Y-48830931D01*
X109668306Y-48778633D01*
X109802669Y-48765400D01*
X110197331Y-48765400D01*
X110331694Y-48778633D01*
G37*
G36*
X110331694Y-46238633D02*
G01*
X110504095Y-46290931D01*
X110662983Y-46375858D01*
X110802249Y-46490151D01*
X110916542Y-46629417D01*
X111001469Y-46788305D01*
X111053767Y-46960706D01*
X111071425Y-47140000D01*
X111053767Y-47319294D01*
X111001469Y-47491695D01*
X110916542Y-47650583D01*
X110802249Y-47789849D01*
X110662983Y-47904142D01*
X110504095Y-47989069D01*
X110331694Y-48041367D01*
X110197331Y-48054600D01*
X109802669Y-48054600D01*
X109668306Y-48041367D01*
X109495905Y-47989069D01*
X109337017Y-47904142D01*
X109197751Y-47789849D01*
X109083458Y-47650583D01*
X108998531Y-47491695D01*
X108946233Y-47319294D01*
X108928575Y-47140000D01*
X108946233Y-46960706D01*
X108998531Y-46788305D01*
X109083458Y-46629417D01*
X109197751Y-46490151D01*
X109337017Y-46375858D01*
X109495905Y-46290931D01*
X109668306Y-46238633D01*
X109802669Y-46225400D01*
X110197331Y-46225400D01*
X110331694Y-46238633D01*
G37*
G36*
X87471694Y-46238633D02*
G01*
X87644095Y-46290931D01*
X87802983Y-46375858D01*
X87942249Y-46490151D01*
X88056542Y-46629417D01*
X88141469Y-46788305D01*
X88193767Y-46960706D01*
X88211425Y-47140000D01*
X88193767Y-47319294D01*
X88141469Y-47491695D01*
X88056542Y-47650583D01*
X87942249Y-47789849D01*
X87802983Y-47904142D01*
X87644095Y-47989069D01*
X87471694Y-48041367D01*
X87337331Y-48054600D01*
X86942669Y-48054600D01*
X86808306Y-48041367D01*
X86635905Y-47989069D01*
X86477017Y-47904142D01*
X86337751Y-47789849D01*
X86223458Y-47650583D01*
X86138531Y-47491695D01*
X86086233Y-47319294D01*
X86068575Y-47140000D01*
X86086233Y-46960706D01*
X86138531Y-46788305D01*
X86223458Y-46629417D01*
X86337751Y-46490151D01*
X86477017Y-46375858D01*
X86635905Y-46290931D01*
X86808306Y-46238633D01*
X86942669Y-46225400D01*
X87337331Y-46225400D01*
X87471694Y-46238633D01*
G37*
G36*
X110331694Y-43698633D02*
G01*
X110504095Y-43750931D01*
X110662983Y-43835858D01*
X110802249Y-43950151D01*
X110916542Y-44089417D01*
X111001469Y-44248305D01*
X111053767Y-44420706D01*
X111071425Y-44600000D01*
X111053767Y-44779294D01*
X111001469Y-44951695D01*
X110916542Y-45110583D01*
X110802249Y-45249849D01*
X110662983Y-45364142D01*
X110504095Y-45449069D01*
X110331694Y-45501367D01*
X110197331Y-45514600D01*
X109802669Y-45514600D01*
X109668306Y-45501367D01*
X109495905Y-45449069D01*
X109337017Y-45364142D01*
X109197751Y-45249849D01*
X109083458Y-45110583D01*
X108998531Y-44951695D01*
X108946233Y-44779294D01*
X108928575Y-44600000D01*
X108946233Y-44420706D01*
X108998531Y-44248305D01*
X109083458Y-44089417D01*
X109197751Y-43950151D01*
X109337017Y-43835858D01*
X109495905Y-43750931D01*
X109668306Y-43698633D01*
X109802669Y-43685400D01*
X110197331Y-43685400D01*
X110331694Y-43698633D01*
G37*
G36*
X87471694Y-43698633D02*
G01*
X87644095Y-43750931D01*
X87802983Y-43835858D01*
X87942249Y-43950151D01*
X88056542Y-44089417D01*
X88141469Y-44248305D01*
X88193767Y-44420706D01*
X88211425Y-44600000D01*
X88193767Y-44779294D01*
X88141469Y-44951695D01*
X88056542Y-45110583D01*
X87942249Y-45249849D01*
X87802983Y-45364142D01*
X87644095Y-45449069D01*
X87471694Y-45501367D01*
X87337331Y-45514600D01*
X86942669Y-45514600D01*
X86808306Y-45501367D01*
X86635905Y-45449069D01*
X86477017Y-45364142D01*
X86337751Y-45249849D01*
X86223458Y-45110583D01*
X86138531Y-44951695D01*
X86086233Y-44779294D01*
X86068575Y-44600000D01*
X86086233Y-44420706D01*
X86138531Y-44248305D01*
X86223458Y-44089417D01*
X86337751Y-43950151D01*
X86477017Y-43835858D01*
X86635905Y-43750931D01*
X86808306Y-43698633D01*
X86942669Y-43685400D01*
X87337331Y-43685400D01*
X87471694Y-43698633D01*
G37*
G36*
X110331694Y-41158633D02*
G01*
X110504095Y-41210931D01*
X110662983Y-41295858D01*
X110802249Y-41410151D01*
X110916542Y-41549417D01*
X111001469Y-41708305D01*
X111053767Y-41880706D01*
X111071425Y-42060000D01*
X111053767Y-42239294D01*
X111001469Y-42411695D01*
X110916542Y-42570583D01*
X110802249Y-42709849D01*
X110662983Y-42824142D01*
X110504095Y-42909069D01*
X110331694Y-42961367D01*
X110197331Y-42974600D01*
X109802669Y-42974600D01*
X109668306Y-42961367D01*
X109495905Y-42909069D01*
X109337017Y-42824142D01*
X109197751Y-42709849D01*
X109083458Y-42570583D01*
X108998531Y-42411695D01*
X108946233Y-42239294D01*
X108928575Y-42060000D01*
X108946233Y-41880706D01*
X108998531Y-41708305D01*
X109083458Y-41549417D01*
X109197751Y-41410151D01*
X109337017Y-41295858D01*
X109495905Y-41210931D01*
X109668306Y-41158633D01*
X109802669Y-41145400D01*
X110197331Y-41145400D01*
X110331694Y-41158633D01*
G37*
G36*
X87471694Y-41158633D02*
G01*
X87644095Y-41210931D01*
X87802983Y-41295858D01*
X87942249Y-41410151D01*
X88056542Y-41549417D01*
X88141469Y-41708305D01*
X88193767Y-41880706D01*
X88211425Y-42060000D01*
X88193767Y-42239294D01*
X88141469Y-42411695D01*
X88056542Y-42570583D01*
X87942249Y-42709849D01*
X87802983Y-42824142D01*
X87644095Y-42909069D01*
X87471694Y-42961367D01*
X87337331Y-42974600D01*
X86942669Y-42974600D01*
X86808306Y-42961367D01*
X86635905Y-42909069D01*
X86477017Y-42824142D01*
X86337751Y-42709849D01*
X86223458Y-42570583D01*
X86138531Y-42411695D01*
X86086233Y-42239294D01*
X86068575Y-42060000D01*
X86086233Y-41880706D01*
X86138531Y-41708305D01*
X86223458Y-41549417D01*
X86337751Y-41410151D01*
X86477017Y-41295858D01*
X86635905Y-41210931D01*
X86808306Y-41158633D01*
X86942669Y-41145400D01*
X87337331Y-41145400D01*
X87471694Y-41158633D01*
G37*
G36*
X76101000Y-41601000D02*
G01*
X73899000Y-41601000D01*
X73899000Y-39399000D01*
X76101000Y-39399000D01*
X76101000Y-41601000D01*
G37*
G36*
X87471694Y-38618633D02*
G01*
X87644095Y-38670931D01*
X87802983Y-38755858D01*
X87942249Y-38870151D01*
X88056542Y-39009417D01*
X88141469Y-39168305D01*
X88193767Y-39340706D01*
X88211425Y-39520000D01*
X88193767Y-39699294D01*
X88141469Y-39871695D01*
X88056542Y-40030583D01*
X87942249Y-40169849D01*
X87802983Y-40284142D01*
X87644095Y-40369069D01*
X87471694Y-40421367D01*
X87337331Y-40434600D01*
X86942669Y-40434600D01*
X86808306Y-40421367D01*
X86635905Y-40369069D01*
X86477017Y-40284142D01*
X86337751Y-40169849D01*
X86223458Y-40030583D01*
X86138531Y-39871695D01*
X86086233Y-39699294D01*
X86068575Y-39520000D01*
X86086233Y-39340706D01*
X86138531Y-39168305D01*
X86223458Y-39009417D01*
X86337751Y-38870151D01*
X86477017Y-38755858D01*
X86635905Y-38670931D01*
X86808306Y-38618633D01*
X86942669Y-38605400D01*
X87337331Y-38605400D01*
X87471694Y-38618633D01*
G37*
G36*
X110331694Y-38618633D02*
G01*
X110504095Y-38670931D01*
X110662983Y-38755858D01*
X110802249Y-38870151D01*
X110916542Y-39009417D01*
X111001469Y-39168305D01*
X111053767Y-39340706D01*
X111071425Y-39520000D01*
X111053767Y-39699294D01*
X111001469Y-39871695D01*
X110916542Y-40030583D01*
X110802249Y-40169849D01*
X110662983Y-40284142D01*
X110504095Y-40369069D01*
X110331694Y-40421367D01*
X110197331Y-40434600D01*
X109802669Y-40434600D01*
X109668306Y-40421367D01*
X109495905Y-40369069D01*
X109337017Y-40284142D01*
X109197751Y-40169849D01*
X109083458Y-40030583D01*
X108998531Y-39871695D01*
X108946233Y-39699294D01*
X108928575Y-39520000D01*
X108946233Y-39340706D01*
X108998531Y-39168305D01*
X109083458Y-39009417D01*
X109197751Y-38870151D01*
X109337017Y-38755858D01*
X109495905Y-38670931D01*
X109668306Y-38618633D01*
X109802669Y-38605400D01*
X110197331Y-38605400D01*
X110331694Y-38618633D01*
G37*
G36*
X70377618Y-37458420D02*
G01*
X70468404Y-37485960D01*
X70500336Y-37495646D01*
X70613425Y-37556094D01*
X70712554Y-37637446D01*
X70793906Y-37736575D01*
X70854354Y-37849664D01*
X70854355Y-37849668D01*
X70891580Y-37972382D01*
X70901000Y-38068027D01*
X70901000Y-39331973D01*
X70891580Y-39427618D01*
X70864040Y-39518404D01*
X70854354Y-39550336D01*
X70793906Y-39663425D01*
X70712554Y-39762553D01*
X70613424Y-39843906D01*
X70500335Y-39904354D01*
X70468403Y-39914040D01*
X70377617Y-39941580D01*
X70250000Y-39954149D01*
X70122382Y-39941580D01*
X70031596Y-39914040D01*
X69999664Y-39904354D01*
X69886575Y-39843906D01*
X69787447Y-39762554D01*
X69706094Y-39663424D01*
X69645646Y-39550335D01*
X69635960Y-39518403D01*
X69608420Y-39427617D01*
X69599000Y-39331972D01*
X69599001Y-38068027D01*
X69608421Y-37972382D01*
X69645646Y-37849668D01*
X69645647Y-37849664D01*
X69706095Y-37736575D01*
X69787447Y-37637446D01*
X69886576Y-37556094D01*
X69999665Y-37495646D01*
X70031597Y-37485960D01*
X70122383Y-37458420D01*
X70250000Y-37445851D01*
X70377618Y-37458420D01*
G37*
G36*
X79877618Y-37458420D02*
G01*
X79968404Y-37485960D01*
X80000336Y-37495646D01*
X80113425Y-37556094D01*
X80212554Y-37637446D01*
X80293906Y-37736575D01*
X80354354Y-37849664D01*
X80354355Y-37849668D01*
X80391580Y-37972382D01*
X80401000Y-38068027D01*
X80401000Y-39331973D01*
X80391580Y-39427618D01*
X80364040Y-39518404D01*
X80354354Y-39550336D01*
X80293906Y-39663425D01*
X80212554Y-39762553D01*
X80113424Y-39843906D01*
X80000335Y-39904354D01*
X79968403Y-39914040D01*
X79877617Y-39941580D01*
X79750000Y-39954149D01*
X79622382Y-39941580D01*
X79531596Y-39914040D01*
X79499664Y-39904354D01*
X79386575Y-39843906D01*
X79287447Y-39762554D01*
X79206094Y-39663424D01*
X79145646Y-39550335D01*
X79135960Y-39518403D01*
X79108420Y-39427617D01*
X79099000Y-39331972D01*
X79099001Y-38068027D01*
X79108421Y-37972382D01*
X79145646Y-37849668D01*
X79145647Y-37849664D01*
X79206095Y-37736575D01*
X79287447Y-37637446D01*
X79386576Y-37556094D01*
X79499665Y-37495646D01*
X79531597Y-37485960D01*
X79622383Y-37458420D01*
X79750000Y-37445851D01*
X79877618Y-37458420D01*
G37*
G36*
X110331694Y-36078633D02*
G01*
X110504095Y-36130931D01*
X110662983Y-36215858D01*
X110802249Y-36330151D01*
X110916542Y-36469417D01*
X111001469Y-36628305D01*
X111053767Y-36800706D01*
X111071425Y-36980000D01*
X111053767Y-37159294D01*
X111001469Y-37331695D01*
X110916542Y-37490583D01*
X110802249Y-37629849D01*
X110662983Y-37744142D01*
X110504095Y-37829069D01*
X110331694Y-37881367D01*
X110197331Y-37894600D01*
X109802669Y-37894600D01*
X109668306Y-37881367D01*
X109495905Y-37829069D01*
X109337017Y-37744142D01*
X109197751Y-37629849D01*
X109083458Y-37490583D01*
X108998531Y-37331695D01*
X108946233Y-37159294D01*
X108928575Y-36980000D01*
X108946233Y-36800706D01*
X108998531Y-36628305D01*
X109083458Y-36469417D01*
X109197751Y-36330151D01*
X109337017Y-36215858D01*
X109495905Y-36130931D01*
X109668306Y-36078633D01*
X109802669Y-36065400D01*
X110197331Y-36065400D01*
X110331694Y-36078633D01*
G37*
G36*
X87471694Y-36078633D02*
G01*
X87644095Y-36130931D01*
X87802983Y-36215858D01*
X87942249Y-36330151D01*
X88056542Y-36469417D01*
X88141469Y-36628305D01*
X88193767Y-36800706D01*
X88211425Y-36980000D01*
X88193767Y-37159294D01*
X88141469Y-37331695D01*
X88056542Y-37490583D01*
X87942249Y-37629849D01*
X87802983Y-37744142D01*
X87644095Y-37829069D01*
X87471694Y-37881367D01*
X87337331Y-37894600D01*
X86942669Y-37894600D01*
X86808306Y-37881367D01*
X86635905Y-37829069D01*
X86477017Y-37744142D01*
X86337751Y-37629849D01*
X86223458Y-37490583D01*
X86138531Y-37331695D01*
X86086233Y-37159294D01*
X86068575Y-36980000D01*
X86086233Y-36800706D01*
X86138531Y-36628305D01*
X86223458Y-36469417D01*
X86337751Y-36330151D01*
X86477017Y-36215858D01*
X86635905Y-36130931D01*
X86808306Y-36078633D01*
X86942669Y-36065400D01*
X87337331Y-36065400D01*
X87471694Y-36078633D01*
G37*
G36*
X75960443Y-33605519D02*
G01*
X76026627Y-33612037D01*
X76196466Y-33663557D01*
X76352991Y-33747222D01*
X76388729Y-33776552D01*
X76490186Y-33859814D01*
X76573448Y-33961271D01*
X76602778Y-33997009D01*
X76686443Y-34153534D01*
X76737963Y-34323373D01*
X76755359Y-34500000D01*
X76737963Y-34676627D01*
X76686443Y-34846466D01*
X76602778Y-35002991D01*
X76573448Y-35038729D01*
X76490186Y-35140186D01*
X76388729Y-35223448D01*
X76352991Y-35252778D01*
X76196466Y-35336443D01*
X76026627Y-35387963D01*
X75960443Y-35394481D01*
X75894260Y-35401000D01*
X74105740Y-35401000D01*
X74039557Y-35394481D01*
X73973373Y-35387963D01*
X73803534Y-35336443D01*
X73647009Y-35252778D01*
X73611271Y-35223448D01*
X73509814Y-35140186D01*
X73426552Y-35038729D01*
X73397222Y-35002991D01*
X73313557Y-34846466D01*
X73262037Y-34676627D01*
X73244641Y-34500000D01*
X73262037Y-34323373D01*
X73313557Y-34153534D01*
X73397222Y-33997009D01*
X73426552Y-33961271D01*
X73509814Y-33859814D01*
X73611271Y-33776552D01*
X73647009Y-33747222D01*
X73803534Y-33663557D01*
X73973373Y-33612037D01*
X74039557Y-33605519D01*
X74105740Y-33599000D01*
X75894260Y-33599000D01*
X75960443Y-33605519D01*
G37*
G36*
X110331694Y-33538633D02*
G01*
X110504095Y-33590931D01*
X110662983Y-33675858D01*
X110802249Y-33790151D01*
X110916542Y-33929417D01*
X111001469Y-34088305D01*
X111053767Y-34260706D01*
X111071425Y-34440000D01*
X111053767Y-34619294D01*
X111001469Y-34791695D01*
X110916542Y-34950583D01*
X110802249Y-35089849D01*
X110662983Y-35204142D01*
X110504095Y-35289069D01*
X110331694Y-35341367D01*
X110197331Y-35354600D01*
X109802669Y-35354600D01*
X109668306Y-35341367D01*
X109495905Y-35289069D01*
X109337017Y-35204142D01*
X109197751Y-35089849D01*
X109083458Y-34950583D01*
X108998531Y-34791695D01*
X108946233Y-34619294D01*
X108928575Y-34440000D01*
X108946233Y-34260706D01*
X108998531Y-34088305D01*
X109083458Y-33929417D01*
X109197751Y-33790151D01*
X109337017Y-33675858D01*
X109495905Y-33590931D01*
X109668306Y-33538633D01*
X109802669Y-33525400D01*
X110197331Y-33525400D01*
X110331694Y-33538633D01*
G37*
G36*
X87471694Y-33538633D02*
G01*
X87644095Y-33590931D01*
X87802983Y-33675858D01*
X87942249Y-33790151D01*
X88056542Y-33929417D01*
X88141469Y-34088305D01*
X88193767Y-34260706D01*
X88211425Y-34440000D01*
X88193767Y-34619294D01*
X88141469Y-34791695D01*
X88056542Y-34950583D01*
X87942249Y-35089849D01*
X87802983Y-35204142D01*
X87644095Y-35289069D01*
X87471694Y-35341367D01*
X87337331Y-35354600D01*
X86942669Y-35354600D01*
X86808306Y-35341367D01*
X86635905Y-35289069D01*
X86477017Y-35204142D01*
X86337751Y-35089849D01*
X86223458Y-34950583D01*
X86138531Y-34791695D01*
X86086233Y-34619294D01*
X86068575Y-34440000D01*
X86086233Y-34260706D01*
X86138531Y-34088305D01*
X86223458Y-33929417D01*
X86337751Y-33790151D01*
X86477017Y-33675858D01*
X86635905Y-33590931D01*
X86808306Y-33538633D01*
X86942669Y-33525400D01*
X87337331Y-33525400D01*
X87471694Y-33538633D01*
G37*
G36*
X70377618Y-32758420D02*
G01*
X70468404Y-32785960D01*
X70500336Y-32795646D01*
X70613425Y-32856094D01*
X70712554Y-32937446D01*
X70793906Y-33036575D01*
X70854354Y-33149664D01*
X70854355Y-33149668D01*
X70891580Y-33272382D01*
X70901000Y-33368027D01*
X70901000Y-34631973D01*
X70891580Y-34727618D01*
X70872142Y-34791695D01*
X70854354Y-34850336D01*
X70793906Y-34963425D01*
X70712554Y-35062553D01*
X70613424Y-35143906D01*
X70500335Y-35204354D01*
X70468403Y-35214040D01*
X70377617Y-35241580D01*
X70250000Y-35254149D01*
X70122382Y-35241580D01*
X70031596Y-35214040D01*
X69999664Y-35204354D01*
X69886575Y-35143906D01*
X69787447Y-35062554D01*
X69706094Y-34963424D01*
X69645646Y-34850335D01*
X69627858Y-34791695D01*
X69608420Y-34727617D01*
X69599000Y-34631972D01*
X69599001Y-33368027D01*
X69608421Y-33272382D01*
X69645646Y-33149668D01*
X69645647Y-33149664D01*
X69706095Y-33036575D01*
X69787447Y-32937446D01*
X69886576Y-32856094D01*
X69999665Y-32795646D01*
X70031597Y-32785960D01*
X70122383Y-32758420D01*
X70250000Y-32745851D01*
X70377618Y-32758420D01*
G37*
G36*
X79877618Y-32758420D02*
G01*
X79968404Y-32785960D01*
X80000336Y-32795646D01*
X80113425Y-32856094D01*
X80212554Y-32937446D01*
X80293906Y-33036575D01*
X80354354Y-33149664D01*
X80354355Y-33149668D01*
X80391580Y-33272382D01*
X80401000Y-33368027D01*
X80401000Y-34631973D01*
X80391580Y-34727618D01*
X80372142Y-34791695D01*
X80354354Y-34850336D01*
X80293906Y-34963425D01*
X80212554Y-35062553D01*
X80113424Y-35143906D01*
X80000335Y-35204354D01*
X79968403Y-35214040D01*
X79877617Y-35241580D01*
X79750000Y-35254149D01*
X79622382Y-35241580D01*
X79531596Y-35214040D01*
X79499664Y-35204354D01*
X79386575Y-35143906D01*
X79287447Y-35062554D01*
X79206094Y-34963424D01*
X79145646Y-34850335D01*
X79127858Y-34791695D01*
X79108420Y-34727617D01*
X79099000Y-34631972D01*
X79099001Y-33368027D01*
X79108421Y-33272382D01*
X79145646Y-33149668D01*
X79145647Y-33149664D01*
X79206095Y-33036575D01*
X79287447Y-32937446D01*
X79386576Y-32856094D01*
X79499665Y-32795646D01*
X79531597Y-32785960D01*
X79622383Y-32758420D01*
X79750000Y-32745851D01*
X79877618Y-32758420D01*
G37*
G36*
X75248228Y-30431703D02*
G01*
X75403100Y-30495853D01*
X75542481Y-30588985D01*
X75661015Y-30707519D01*
X75754147Y-30846900D01*
X75818297Y-31001772D01*
X75851000Y-31166184D01*
X75851000Y-31333816D01*
X75818297Y-31498228D01*
X75754147Y-31653100D01*
X75661015Y-31792481D01*
X75542481Y-31911015D01*
X75403100Y-32004147D01*
X75248228Y-32068297D01*
X75083816Y-32101000D01*
X74916184Y-32101000D01*
X74751772Y-32068297D01*
X74596900Y-32004147D01*
X74457519Y-31911015D01*
X74338985Y-31792481D01*
X74245853Y-31653100D01*
X74181703Y-31498228D01*
X74149000Y-31333816D01*
X74149000Y-31166184D01*
X74181703Y-31001772D01*
X74245853Y-30846900D01*
X74338985Y-30707519D01*
X74457519Y-30588985D01*
X74596900Y-30495853D01*
X74751772Y-30431703D01*
X74916184Y-30399000D01*
X75083816Y-30399000D01*
X75248228Y-30431703D01*
G37*
M02*
