M48
; DRILL file {KiCad 5.1.6-c6e7f7d~86~ubuntu18.04.1} date Thu May 28 18:46:42 2020
; FORMAT={-:-/ absolute / inch / decimal}
; #@! TF.CreationDate,2020-05-28T18:46:42+01:00
; #@! TF.GenerationSoftware,Kicad,Pcbnew,5.1.6-c6e7f7d~86~ubuntu18.04.1
; #@! TF.FileFunction,Plated,1,2,PTH
FMAT,2
INCH
T1C0.0157
T2C0.0315
T3C0.0394
T4C0.0400
T5C0.0551
%
G90
G05
T1
X2.126Y-4.5276
X2.1654Y-3.7008
X2.1654Y-3.7402
X2.1654Y-3.7795
X2.1654Y-4.5276
X2.2047Y-4.5276
X2.2441Y-1.6339
X2.2441Y-1.7323
X2.2441Y-2.3228
X2.2441Y-2.4213
X2.3031Y-2.9921
X2.3031Y-4.4094
X2.3425Y-2.9921
X2.3622Y-4.0453
X2.3819Y-2.9921
X2.4016Y-2.7559
X2.4114Y-3.9075
X2.4114Y-4.0453
X2.4154Y-3.8248
X2.4213Y-2.5
X2.4508Y-4.1732
X2.4606Y-4.0453
X2.4606Y-4.3504
X2.4705Y-3.8386
X2.4803Y-2.7559
X2.4902Y-4.1732
X2.5Y-2.9921
X2.5394Y-2.9921
X2.5787Y-2.9921
X2.5984Y-2.5197
X2.6378Y-4.0453
X2.6378Y-4.1929
X2.6378Y-4.3898
X2.6673Y-4.0748
X2.6673Y-4.5866
X2.6969Y-4.1043
X2.7165Y-3.7205
X2.7165Y-4.2717
X2.7362Y-1.6339
X2.7362Y-1.7323
X2.7362Y-2.3228
X2.7362Y-2.4213
X2.7461Y-4.6654
X2.7953Y-4.311
X2.7953Y-4.4685
X2.8937Y-5.0394
X2.9331Y-4.685
X2.9921Y-4.252
X2.9921Y-4.685
X2.9921Y-5.0394
X3.0709Y-1.9882
X3.0709Y-4.3307
X3.0709Y-4.8228
X3.0906Y-5.0394
X3.1299Y-1.7323
X3.189Y-5.0394
X3.2087Y-2.3031
X3.2087Y-4.4685
X3.2283Y-1.7323
X3.2874Y-5.0394
X3.3268Y-1.7323
X3.3465Y-1.9488
X3.3465Y-2.4409
X3.3465Y-4.7835
X3.4252Y-1.7323
X3.4252Y-2.0866
X3.4252Y-2.5197
X3.4843Y-2.0866
X3.5236Y-1.7323
X3.622Y-2.3031
X3.622Y-2.4606
X3.6713Y-2.1063
X3.6811Y-4.3504
X3.6811Y-4.4488
X3.6811Y-5.0394
X3.6811Y-5.1378
X3.7008Y-2.5
X3.7008Y-3.0512
X3.7205Y-2.6673
X3.75Y-2.185
X3.75Y-2.6969
X3.7795Y-2.3819
X3.7795Y-2.5787
X3.7795Y-2.7264
X3.8189Y-4.252
X3.8386Y-3.7795
X3.878Y-3.7795
X3.9173Y-3.7795
X3.9272Y-2.5984
X3.937Y-4.0157
X3.9469Y-2.9331
X3.9567Y-2.4213
X3.9567Y-2.7264
X3.9665Y-2.5984
X3.9961Y-4.2717
X4.0019Y-2.9469
X4.0059Y-2.7264
X4.0059Y-2.8642
X4.0157Y-4.0157
X4.0354Y-3.7795
X4.0551Y-2.7264
X4.0748Y-3.7795
X4.1142Y-2.3622
X4.1142Y-3.7795
X4.1732Y-4.3504
X4.1732Y-4.4488
X4.1732Y-5.0394
X4.1732Y-5.1378
X4.2126Y-2.2441
X4.252Y-2.2441
X4.252Y-2.9921
X4.252Y-3.0315
X4.252Y-3.0709
X4.2913Y-2.2441
T2
X2.7961Y-4.1937
X3.1496Y-4.5472
X3.2677Y-2.2244
X3.6213Y-2.578
T3
X3.9173Y-2.3622
X2.5Y-4.2913
X2.5Y-4.4094
X3.9173Y-2.4803
T4
X3.4701Y-3.7378
X3.4701Y-3.8378
X3.4701Y-3.9378
X3.4701Y-4.0378
X3.4701Y-4.1378
X3.4701Y-4.2378
X3.4701Y-4.3378
X3.4701Y-4.4378
X3.4701Y-4.5378
X3.4701Y-4.6378
X3.4701Y-4.7378
X3.4701Y-4.8378
X3.4701Y-4.9378
X3.4701Y-5.0378
X3.4701Y-5.1378
X4.3701Y-3.7378
X4.3701Y-3.8378
X4.3701Y-3.9378
X4.3701Y-4.0378
X4.3701Y-4.1378
X4.3701Y-4.2378
X4.3701Y-4.3378
X4.3701Y-4.4378
X4.3701Y-4.5378
X4.3701Y-4.6378
X4.3701Y-4.7378
X4.3701Y-4.8378
X4.3701Y-4.9378
X4.3701Y-5.0378
X4.3701Y-5.1378
X2.0472Y-1.6339
X2.0472Y-1.7339
X2.0472Y-1.8339
X2.0472Y-1.9339
X2.0472Y-2.0339
X2.0472Y-2.1339
X2.0472Y-2.2339
X2.0472Y-2.3339
X2.0472Y-2.4339
X2.0472Y-2.5339
X2.0472Y-2.6339
X2.0472Y-2.7339
X2.0472Y-2.8339
X2.0472Y-2.9339
X2.0472Y-3.0339
X2.9472Y-1.6339
X2.9472Y-1.7339
X2.9472Y-1.8339
X2.9472Y-1.9339
X2.9472Y-2.0339
X2.9472Y-2.1339
X2.9472Y-2.2339
X2.9472Y-2.3339
X2.9472Y-2.4339
X2.9472Y-2.5339
X2.9472Y-2.6339
X2.9472Y-2.7339
X2.9472Y-2.8339
X2.9472Y-2.9339
X2.9472Y-3.0339
T5
X2.9921Y-3.9764
X3.4252Y-2.7953
T2
G00X2.8051Y-3.6969
M15
G01X2.8051Y-3.7441
M16
G05
G00X2.8051Y-3.8819
M15
G01X2.8051Y-3.9291
M16
G05
G00X3.0354Y-3.7402
M15
G01X2.9488Y-3.7402
M16
G05
G00X3.1791Y-3.6969
M15
G01X3.1791Y-3.7441
M16
G05
G00X3.1791Y-3.8819
M15
G01X3.1791Y-3.9291
M16
G05
G00X3.2382Y-2.8898
M15
G01X3.2382Y-2.8425
M16
G05
G00X3.2382Y-3.0748
M15
G01X3.2382Y-3.0276
M16
G05
G00X3.3819Y-3.0315
M15
G01X3.4685Y-3.0315
M16
G05
G00X3.6122Y-2.8898
M15
G01X3.6122Y-2.8425
M16
G05
G00X3.6122Y-3.0748
M15
G01X3.6122Y-3.0276
M16
G05
T0
M30
