G04 #@! TF.GenerationSoftware,KiCad,Pcbnew,5.1.6-c6e7f7d~86~ubuntu18.04.1*
G04 #@! TF.CreationDate,2020-05-28T19:09:28+01:00*
G04 #@! TF.ProjectId,polariser_drive,706f6c61-7269-4736-9572-5f6472697665,rev?*
G04 #@! TF.SameCoordinates,Original*
G04 #@! TF.FileFunction,Copper,L2,Bot*
G04 #@! TF.FilePolarity,Positive*
%FSLAX46Y46*%
G04 Gerber Fmt 4.6, Leading zero omitted, Abs format (unit mm)*
G04 Created by KiCad (PCBNEW 5.1.6-c6e7f7d~86~ubuntu18.04.1) date 2020-05-28 19:09:28*
%MOMM*%
%LPD*%
G01*
G04 APERTURE LIST*
G04 #@! TA.AperFunction,ComponentPad*
%ADD10R,1.700000X1.700000*%
G04 #@! TD*
G04 #@! TA.AperFunction,ComponentPad*
%ADD11C,1.600000*%
G04 #@! TD*
G04 #@! TA.AperFunction,ComponentPad*
%ADD12O,1.200000X2.400000*%
G04 #@! TD*
G04 #@! TA.AperFunction,ComponentPad*
%ADD13O,3.400000X1.700000*%
G04 #@! TD*
G04 #@! TA.AperFunction,ComponentPad*
%ADD14R,2.100000X2.100000*%
G04 #@! TD*
G04 #@! TA.AperFunction,ComponentPad*
%ADD15O,2.032000X1.727200*%
G04 #@! TD*
G04 #@! TA.AperFunction,ViaPad*
%ADD16C,0.800000*%
G04 #@! TD*
G04 #@! TA.AperFunction,Conductor*
%ADD17C,0.250000*%
G04 #@! TD*
G04 #@! TA.AperFunction,Conductor*
%ADD18C,0.500000*%
G04 #@! TD*
G04 #@! TA.AperFunction,Conductor*
%ADD19C,0.254000*%
G04 #@! TD*
G04 APERTURE END LIST*
D10*
X63500000Y-109000000D03*
G04 #@! TA.AperFunction,ComponentPad*
G36*
G01*
X71585429Y-107085429D02*
X71585429Y-107085429D01*
G75*
G02*
X70454059Y-107085429I-565685J565685D01*
G01*
X70454059Y-107085429D01*
G75*
G02*
X70454059Y-105954059I565685J565685D01*
G01*
X70454059Y-105954059D01*
G75*
G02*
X71585429Y-105954059I565685J-565685D01*
G01*
X71585429Y-105954059D01*
G75*
G02*
X71585429Y-107085429I-565685J-565685D01*
G01*
G37*
G04 #@! TD.AperFunction*
D11*
X80000000Y-115500000D03*
D10*
X63500000Y-112000000D03*
D12*
X71250000Y-94500000D03*
X80750000Y-94500000D03*
X71250000Y-99200000D03*
X80750000Y-99200000D03*
D13*
X76000000Y-95000000D03*
D14*
X76000000Y-101000000D03*
D15*
X111000000Y-130500000D03*
X111000000Y-127960000D03*
X111000000Y-125420000D03*
X111000000Y-122880000D03*
X111000000Y-120340000D03*
X111000000Y-117800000D03*
X111000000Y-115260000D03*
X111000000Y-112720000D03*
X111000000Y-110180000D03*
X111000000Y-107640000D03*
X111000000Y-105100000D03*
X111000000Y-102560000D03*
X111000000Y-100020000D03*
X111000000Y-97480000D03*
X111000000Y-94940000D03*
X88140000Y-130500000D03*
X88140000Y-100020000D03*
X88140000Y-97480000D03*
X88140000Y-102560000D03*
X88140000Y-117800000D03*
X88140000Y-120340000D03*
X88140000Y-115260000D03*
X88140000Y-94940000D03*
X88140000Y-110180000D03*
X88140000Y-112720000D03*
X88140000Y-107640000D03*
X88140000Y-105100000D03*
X88140000Y-125420000D03*
X88140000Y-122880000D03*
X88140000Y-127960000D03*
D16*
X106000000Y-110500000D03*
X106000000Y-113000000D03*
X69750000Y-118500000D03*
X81500000Y-113500000D03*
X71000000Y-113500000D03*
X67000000Y-111500000D03*
X71000000Y-109500000D03*
X78000000Y-122500000D03*
X74500000Y-119000000D03*
X85000000Y-121500000D03*
X76000000Y-108000000D03*
X102500000Y-96000000D03*
X103500000Y-96000000D03*
X104500000Y-96000000D03*
X97500000Y-96000000D03*
X98500000Y-96000000D03*
X99500000Y-96000000D03*
X100000000Y-102000000D03*
X102000000Y-102000000D03*
X93500000Y-130500000D03*
X93500000Y-128000000D03*
X106000000Y-130500000D03*
X106000000Y-128000000D03*
X93500000Y-113000000D03*
X93500000Y-110500000D03*
X73500000Y-128000000D03*
X76000000Y-128000000D03*
X81000000Y-128000000D03*
X83500000Y-128000000D03*
X78500000Y-128000000D03*
X69000000Y-94500000D03*
X62250000Y-106000000D03*
X63250000Y-106000000D03*
X78000000Y-110000000D03*
X58500000Y-112000000D03*
X55000000Y-95000000D03*
X55000000Y-96000000D03*
X55000000Y-94000000D03*
X54000000Y-115000000D03*
X55000000Y-115000000D03*
X56000000Y-115000000D03*
X62750000Y-97500000D03*
X101500000Y-108500000D03*
X62500000Y-110500000D03*
X67750000Y-116500000D03*
X62500000Y-102750000D03*
X61250000Y-102750000D03*
X60000000Y-102750000D03*
X67750000Y-103500000D03*
X67000000Y-102750000D03*
X68500000Y-104250000D03*
X97000000Y-108000000D03*
X69000000Y-108500000D03*
X67000000Y-106500000D03*
X61250000Y-99250000D03*
X61351152Y-97148848D03*
X76000000Y-119000000D03*
D17*
X110480000Y-98000000D02*
X111000000Y-97480000D01*
X101008610Y-108991390D02*
X101500000Y-108500000D01*
X73500000Y-110500000D02*
X75008610Y-108991390D01*
X75008610Y-108991390D02*
X101008610Y-108991390D01*
X73500000Y-110500000D02*
X62500000Y-110500000D01*
D18*
X62500000Y-102750000D02*
X61250000Y-102750000D01*
X61250000Y-102750000D02*
X60000000Y-102750000D01*
X60000000Y-102750000D02*
X60000000Y-102750000D01*
X67000000Y-102750000D02*
X62500000Y-102750000D01*
X67750000Y-103500000D02*
X67000000Y-102750000D01*
X67750000Y-103500000D02*
X68500000Y-104250000D01*
X68500000Y-104250000D02*
X69000000Y-104750000D01*
X69000000Y-104750000D02*
X79750000Y-104750000D01*
X79750000Y-104750000D02*
X84000000Y-100500000D01*
X84000000Y-100500000D02*
X84000000Y-93750000D01*
X84000000Y-93750000D02*
X85750000Y-92000000D01*
X85750000Y-92000000D02*
X89750000Y-92000000D01*
X89750000Y-92000000D02*
X92500000Y-94750000D01*
X92500000Y-94750000D02*
X92500000Y-104250000D01*
X92500000Y-104250000D02*
X96250000Y-108000000D01*
X96250000Y-108000000D02*
X97000000Y-108000000D01*
D17*
X69000000Y-108500000D02*
X67000000Y-106500000D01*
X61250000Y-99250000D02*
X61250000Y-97250000D01*
X61250000Y-97250000D02*
X61351152Y-97148848D01*
X77200000Y-117800000D02*
X88140000Y-117800000D01*
X76000000Y-119000000D02*
X77200000Y-117800000D01*
D19*
G36*
X110994492Y-89502654D02*
G01*
X111470137Y-89646259D01*
X111908843Y-89879522D01*
X112293880Y-90193551D01*
X112610592Y-90576390D01*
X112846907Y-91013447D01*
X112993835Y-91488091D01*
X113048001Y-92003448D01*
X113048000Y-126022204D01*
X113048001Y-126022214D01*
X113048000Y-132477891D01*
X112997347Y-132994487D01*
X112853740Y-133470141D01*
X112620478Y-133908842D01*
X112306449Y-134293880D01*
X111923610Y-134610592D01*
X111486552Y-134846908D01*
X111011909Y-134993835D01*
X110496560Y-135048000D01*
X88022108Y-135048000D01*
X87505513Y-134997347D01*
X87029859Y-134853740D01*
X86591158Y-134620478D01*
X86206120Y-134306449D01*
X85889408Y-133923610D01*
X85653092Y-133486552D01*
X85506165Y-133011909D01*
X85451990Y-132496467D01*
X85451924Y-132477481D01*
X85449929Y-132457840D01*
X85450067Y-132438090D01*
X85449451Y-132431809D01*
X85388250Y-131849519D01*
X85380012Y-131809388D01*
X85372336Y-131769148D01*
X85370512Y-131763106D01*
X85197375Y-131203792D01*
X85181484Y-131165989D01*
X85166153Y-131128044D01*
X85163190Y-131122471D01*
X85163190Y-131122470D01*
X85163187Y-131122466D01*
X84884714Y-130607439D01*
X84861808Y-130573479D01*
X84839374Y-130539196D01*
X84835385Y-130534305D01*
X84462175Y-130083172D01*
X84433125Y-130054324D01*
X84404444Y-130025036D01*
X84399581Y-130021013D01*
X83945852Y-129650961D01*
X83911740Y-129628297D01*
X83877928Y-129605145D01*
X83872381Y-129602147D01*
X83872377Y-129602144D01*
X83872373Y-129602142D01*
X83355412Y-129327269D01*
X83317498Y-129311642D01*
X83279882Y-129295520D01*
X83273853Y-129293653D01*
X82713345Y-129124427D01*
X82673162Y-129116470D01*
X82633087Y-129107952D01*
X82626810Y-129107292D01*
X82044108Y-129050157D01*
X82044105Y-129050157D01*
X82022205Y-129048000D01*
X52522108Y-129048000D01*
X52005513Y-128997347D01*
X51529859Y-128853740D01*
X51091158Y-128620478D01*
X50706120Y-128306449D01*
X50389408Y-127923610D01*
X50153092Y-127486552D01*
X50006165Y-127011909D01*
X49952000Y-126496560D01*
X49952000Y-122529507D01*
X51223000Y-122529507D01*
X51223000Y-123470493D01*
X51406577Y-124393400D01*
X51766677Y-125262758D01*
X52289462Y-126045160D01*
X52954840Y-126710538D01*
X53737242Y-127233323D01*
X54606600Y-127593423D01*
X55529507Y-127777000D01*
X56470493Y-127777000D01*
X57393400Y-127593423D01*
X58262758Y-127233323D01*
X59045160Y-126710538D01*
X59710538Y-126045160D01*
X60233323Y-125262758D01*
X60593423Y-124393400D01*
X60777000Y-123470493D01*
X60777000Y-122529507D01*
X61223000Y-122529507D01*
X61223000Y-123470493D01*
X61406577Y-124393400D01*
X61766677Y-125262758D01*
X62289462Y-126045160D01*
X62954840Y-126710538D01*
X63737242Y-127233323D01*
X64606600Y-127593423D01*
X65529507Y-127777000D01*
X66470493Y-127777000D01*
X67393400Y-127593423D01*
X68262758Y-127233323D01*
X69045160Y-126710538D01*
X69710538Y-126045160D01*
X70233323Y-125262758D01*
X70593423Y-124393400D01*
X70777000Y-123470493D01*
X70777000Y-122529507D01*
X70593423Y-121606600D01*
X70233323Y-120737242D01*
X69710538Y-119954840D01*
X69045160Y-119289462D01*
X68490049Y-118918548D01*
X75173000Y-118918548D01*
X75173000Y-119081452D01*
X75204782Y-119241227D01*
X75267123Y-119391731D01*
X75357628Y-119527181D01*
X75472819Y-119642372D01*
X75608269Y-119732877D01*
X75758773Y-119795218D01*
X75918548Y-119827000D01*
X76081452Y-119827000D01*
X76241227Y-119795218D01*
X76391731Y-119732877D01*
X76527181Y-119642372D01*
X76642372Y-119527181D01*
X76732877Y-119391731D01*
X76795218Y-119241227D01*
X76827000Y-119081452D01*
X76827000Y-118953645D01*
X77428646Y-118352000D01*
X86819255Y-118352000D01*
X86909314Y-118520488D01*
X87070593Y-118717007D01*
X87267112Y-118878286D01*
X87491319Y-118998128D01*
X87728249Y-119070000D01*
X87491319Y-119141872D01*
X87267112Y-119261714D01*
X87070593Y-119422993D01*
X86909314Y-119619512D01*
X86789472Y-119843719D01*
X86715674Y-120086998D01*
X86690756Y-120340000D01*
X86715674Y-120593002D01*
X86789472Y-120836281D01*
X86909314Y-121060488D01*
X87070593Y-121257007D01*
X87267112Y-121418286D01*
X87491319Y-121538128D01*
X87728249Y-121610000D01*
X87491319Y-121681872D01*
X87267112Y-121801714D01*
X87070593Y-121962993D01*
X86909314Y-122159512D01*
X86789472Y-122383719D01*
X86715674Y-122626998D01*
X86690756Y-122880000D01*
X86715674Y-123133002D01*
X86789472Y-123376281D01*
X86909314Y-123600488D01*
X87070593Y-123797007D01*
X87267112Y-123958286D01*
X87491319Y-124078128D01*
X87728249Y-124150000D01*
X87491319Y-124221872D01*
X87267112Y-124341714D01*
X87070593Y-124502993D01*
X86909314Y-124699512D01*
X86789472Y-124923719D01*
X86715674Y-125166998D01*
X86690756Y-125420000D01*
X86715674Y-125673002D01*
X86789472Y-125916281D01*
X86909314Y-126140488D01*
X87070593Y-126337007D01*
X87267112Y-126498286D01*
X87491319Y-126618128D01*
X87728249Y-126690000D01*
X87491319Y-126761872D01*
X87267112Y-126881714D01*
X87070593Y-127042993D01*
X86909314Y-127239512D01*
X86789472Y-127463719D01*
X86715674Y-127706998D01*
X86690756Y-127960000D01*
X86715674Y-128213002D01*
X86789472Y-128456281D01*
X86909314Y-128680488D01*
X87070593Y-128877007D01*
X87267112Y-129038286D01*
X87491319Y-129158128D01*
X87728249Y-129230000D01*
X87491319Y-129301872D01*
X87267112Y-129421714D01*
X87070593Y-129582993D01*
X86909314Y-129779512D01*
X86789472Y-130003719D01*
X86715674Y-130246998D01*
X86690756Y-130500000D01*
X86715674Y-130753002D01*
X86789472Y-130996281D01*
X86909314Y-131220488D01*
X87070593Y-131417007D01*
X87267112Y-131578286D01*
X87491319Y-131698128D01*
X87734598Y-131771926D01*
X87924202Y-131790600D01*
X88355798Y-131790600D01*
X88545402Y-131771926D01*
X88788681Y-131698128D01*
X89012888Y-131578286D01*
X89209407Y-131417007D01*
X89370686Y-131220488D01*
X89490528Y-130996281D01*
X89564326Y-130753002D01*
X89589244Y-130500000D01*
X89564326Y-130246998D01*
X89490528Y-130003719D01*
X89370686Y-129779512D01*
X89209407Y-129582993D01*
X89012888Y-129421714D01*
X88788681Y-129301872D01*
X88551751Y-129230000D01*
X88788681Y-129158128D01*
X89012888Y-129038286D01*
X89209407Y-128877007D01*
X89370686Y-128680488D01*
X89490528Y-128456281D01*
X89564326Y-128213002D01*
X89589244Y-127960000D01*
X89564326Y-127706998D01*
X89490528Y-127463719D01*
X89370686Y-127239512D01*
X89209407Y-127042993D01*
X89012888Y-126881714D01*
X88788681Y-126761872D01*
X88551751Y-126690000D01*
X88788681Y-126618128D01*
X89012888Y-126498286D01*
X89209407Y-126337007D01*
X89370686Y-126140488D01*
X89490528Y-125916281D01*
X89564326Y-125673002D01*
X89589244Y-125420000D01*
X89564326Y-125166998D01*
X89490528Y-124923719D01*
X89370686Y-124699512D01*
X89209407Y-124502993D01*
X89012888Y-124341714D01*
X88788681Y-124221872D01*
X88551751Y-124150000D01*
X88788681Y-124078128D01*
X89012888Y-123958286D01*
X89209407Y-123797007D01*
X89370686Y-123600488D01*
X89490528Y-123376281D01*
X89564326Y-123133002D01*
X89589244Y-122880000D01*
X89564326Y-122626998D01*
X89490528Y-122383719D01*
X89370686Y-122159512D01*
X89209407Y-121962993D01*
X89012888Y-121801714D01*
X88788681Y-121681872D01*
X88551751Y-121610000D01*
X88788681Y-121538128D01*
X89012888Y-121418286D01*
X89209407Y-121257007D01*
X89370686Y-121060488D01*
X89490528Y-120836281D01*
X89564326Y-120593002D01*
X89589244Y-120340000D01*
X89564326Y-120086998D01*
X89490528Y-119843719D01*
X89370686Y-119619512D01*
X89209407Y-119422993D01*
X89012888Y-119261714D01*
X88788681Y-119141872D01*
X88551751Y-119070000D01*
X88788681Y-118998128D01*
X89012888Y-118878286D01*
X89209407Y-118717007D01*
X89370686Y-118520488D01*
X89490528Y-118296281D01*
X89564326Y-118053002D01*
X89589244Y-117800000D01*
X89564326Y-117546998D01*
X89490528Y-117303719D01*
X89370686Y-117079512D01*
X89209407Y-116882993D01*
X89012888Y-116721714D01*
X88862184Y-116641160D01*
X89054321Y-116551954D01*
X89291729Y-116378486D01*
X89490733Y-116162035D01*
X89643686Y-115910919D01*
X89744709Y-115634789D01*
X89747358Y-115619026D01*
X89626217Y-115387000D01*
X88267000Y-115387000D01*
X88267000Y-115407000D01*
X88013000Y-115407000D01*
X88013000Y-115387000D01*
X86653783Y-115387000D01*
X86532642Y-115619026D01*
X86535291Y-115634789D01*
X86636314Y-115910919D01*
X86789267Y-116162035D01*
X86988271Y-116378486D01*
X87225679Y-116551954D01*
X87417816Y-116641160D01*
X87267112Y-116721714D01*
X87070593Y-116882993D01*
X86909314Y-117079512D01*
X86819255Y-117248000D01*
X77227097Y-117248000D01*
X77199999Y-117245331D01*
X77172901Y-117248000D01*
X77172891Y-117248000D01*
X77091789Y-117255988D01*
X76987737Y-117287552D01*
X76957491Y-117303719D01*
X76891841Y-117338809D01*
X76834679Y-117385721D01*
X76807789Y-117407789D01*
X76790508Y-117428846D01*
X76046355Y-118173000D01*
X75918548Y-118173000D01*
X75758773Y-118204782D01*
X75608269Y-118267123D01*
X75472819Y-118357628D01*
X75357628Y-118472819D01*
X75267123Y-118608269D01*
X75204782Y-118758773D01*
X75173000Y-118918548D01*
X68490049Y-118918548D01*
X68262758Y-118766677D01*
X67393400Y-118406577D01*
X66470493Y-118223000D01*
X65529507Y-118223000D01*
X64606600Y-118406577D01*
X63737242Y-118766677D01*
X62954840Y-119289462D01*
X62289462Y-119954840D01*
X61766677Y-120737242D01*
X61406577Y-121606600D01*
X61223000Y-122529507D01*
X60777000Y-122529507D01*
X60593423Y-121606600D01*
X60233323Y-120737242D01*
X59710538Y-119954840D01*
X59045160Y-119289462D01*
X58262758Y-118766677D01*
X57393400Y-118406577D01*
X56470493Y-118223000D01*
X55529507Y-118223000D01*
X54606600Y-118406577D01*
X53737242Y-118766677D01*
X52954840Y-119289462D01*
X52289462Y-119954840D01*
X51766677Y-120737242D01*
X51406577Y-121606600D01*
X51223000Y-122529507D01*
X49952000Y-122529507D01*
X49952000Y-116418548D01*
X66923000Y-116418548D01*
X66923000Y-116581452D01*
X66954782Y-116741227D01*
X67017123Y-116891731D01*
X67107628Y-117027181D01*
X67222819Y-117142372D01*
X67358269Y-117232877D01*
X67508773Y-117295218D01*
X67668548Y-117327000D01*
X67831452Y-117327000D01*
X67991227Y-117295218D01*
X68141731Y-117232877D01*
X68277181Y-117142372D01*
X68392372Y-117027181D01*
X68482877Y-116891731D01*
X68545218Y-116741227D01*
X68577000Y-116581452D01*
X68577000Y-116418548D01*
X68545218Y-116258773D01*
X68482877Y-116108269D01*
X68392372Y-115972819D01*
X68277181Y-115857628D01*
X68141731Y-115767123D01*
X67991227Y-115704782D01*
X67831452Y-115673000D01*
X67668548Y-115673000D01*
X67508773Y-115704782D01*
X67358269Y-115767123D01*
X67222819Y-115857628D01*
X67107628Y-115972819D01*
X67017123Y-116108269D01*
X66954782Y-116258773D01*
X66923000Y-116418548D01*
X49952000Y-116418548D01*
X49952000Y-115379151D01*
X78773000Y-115379151D01*
X78773000Y-115620849D01*
X78820153Y-115857903D01*
X78912647Y-116081202D01*
X79046927Y-116282167D01*
X79217833Y-116453073D01*
X79418798Y-116587353D01*
X79642097Y-116679847D01*
X79879151Y-116727000D01*
X80120849Y-116727000D01*
X80357903Y-116679847D01*
X80581202Y-116587353D01*
X80782167Y-116453073D01*
X80953073Y-116282167D01*
X81087353Y-116081202D01*
X81179847Y-115857903D01*
X81227000Y-115620849D01*
X81227000Y-115379151D01*
X81179847Y-115142097D01*
X81087353Y-114918798D01*
X80953073Y-114717833D01*
X80782167Y-114546927D01*
X80581202Y-114412647D01*
X80357903Y-114320153D01*
X80120849Y-114273000D01*
X79879151Y-114273000D01*
X79642097Y-114320153D01*
X79418798Y-114412647D01*
X79217833Y-114546927D01*
X79046927Y-114717833D01*
X78912647Y-114918798D01*
X78820153Y-115142097D01*
X78773000Y-115379151D01*
X49952000Y-115379151D01*
X49952000Y-106418548D01*
X66173000Y-106418548D01*
X66173000Y-106581452D01*
X66204782Y-106741227D01*
X66267123Y-106891731D01*
X66357628Y-107027181D01*
X66472819Y-107142372D01*
X66608269Y-107232877D01*
X66758773Y-107295218D01*
X66918548Y-107327000D01*
X67046356Y-107327000D01*
X68173000Y-108453646D01*
X68173000Y-108581452D01*
X68204782Y-108741227D01*
X68267123Y-108891731D01*
X68357628Y-109027181D01*
X68472819Y-109142372D01*
X68608269Y-109232877D01*
X68758773Y-109295218D01*
X68918548Y-109327000D01*
X69081452Y-109327000D01*
X69241227Y-109295218D01*
X69391731Y-109232877D01*
X69527181Y-109142372D01*
X69642372Y-109027181D01*
X69732877Y-108891731D01*
X69795218Y-108741227D01*
X69827000Y-108581452D01*
X69827000Y-108418548D01*
X69795218Y-108258773D01*
X69732877Y-108108269D01*
X69642372Y-107972819D01*
X69527181Y-107857628D01*
X69391731Y-107767123D01*
X69241227Y-107704782D01*
X69081452Y-107673000D01*
X68953646Y-107673000D01*
X67827000Y-106546356D01*
X67827000Y-106418548D01*
X67795218Y-106258773D01*
X67732877Y-106108269D01*
X67642372Y-105972819D01*
X67527181Y-105857628D01*
X67391731Y-105767123D01*
X67241227Y-105704782D01*
X67081452Y-105673000D01*
X66918548Y-105673000D01*
X66758773Y-105704782D01*
X66608269Y-105767123D01*
X66472819Y-105857628D01*
X66357628Y-105972819D01*
X66267123Y-106108269D01*
X66204782Y-106258773D01*
X66173000Y-106418548D01*
X49952000Y-106418548D01*
X49952000Y-102668548D01*
X59173000Y-102668548D01*
X59173000Y-102831452D01*
X59204782Y-102991227D01*
X59267123Y-103141731D01*
X59357628Y-103277181D01*
X59472819Y-103392372D01*
X59608269Y-103482877D01*
X59758773Y-103545218D01*
X59918548Y-103577000D01*
X60081452Y-103577000D01*
X60241227Y-103545218D01*
X60391731Y-103482877D01*
X60475357Y-103427000D01*
X60774643Y-103427000D01*
X60858269Y-103482877D01*
X61008773Y-103545218D01*
X61168548Y-103577000D01*
X61331452Y-103577000D01*
X61491227Y-103545218D01*
X61641731Y-103482877D01*
X61725357Y-103427000D01*
X62024643Y-103427000D01*
X62108269Y-103482877D01*
X62258773Y-103545218D01*
X62418548Y-103577000D01*
X62581452Y-103577000D01*
X62741227Y-103545218D01*
X62891731Y-103482877D01*
X62975357Y-103427000D01*
X66524643Y-103427000D01*
X66608269Y-103482877D01*
X66758773Y-103545218D01*
X66857418Y-103564840D01*
X66935160Y-103642582D01*
X66954782Y-103741227D01*
X67017123Y-103891731D01*
X67107628Y-104027181D01*
X67222819Y-104142372D01*
X67358269Y-104232877D01*
X67508773Y-104295218D01*
X67607418Y-104314840D01*
X67685160Y-104392582D01*
X67704782Y-104491227D01*
X67767123Y-104641731D01*
X67857628Y-104777181D01*
X67972819Y-104892372D01*
X68108269Y-104982877D01*
X68258773Y-105045218D01*
X68357417Y-105064840D01*
X68497778Y-105205201D01*
X68518973Y-105231027D01*
X68544799Y-105252222D01*
X68544801Y-105252224D01*
X68622059Y-105315628D01*
X68739670Y-105378492D01*
X68867285Y-105417204D01*
X69000000Y-105430275D01*
X69033252Y-105427000D01*
X70451557Y-105427000D01*
X70438542Y-105432391D01*
X70237577Y-105566671D01*
X70066671Y-105737577D01*
X69932391Y-105938542D01*
X69839897Y-106161841D01*
X69792744Y-106398895D01*
X69792744Y-106640593D01*
X69839897Y-106877647D01*
X69932391Y-107100946D01*
X70066671Y-107301911D01*
X70237577Y-107472817D01*
X70438542Y-107607097D01*
X70661841Y-107699591D01*
X70898895Y-107746744D01*
X71140593Y-107746744D01*
X71377647Y-107699591D01*
X71600946Y-107607097D01*
X71801911Y-107472817D01*
X71972817Y-107301911D01*
X72107097Y-107100946D01*
X72199591Y-106877647D01*
X72246744Y-106640593D01*
X72246744Y-106398895D01*
X72199591Y-106161841D01*
X72107097Y-105938542D01*
X71972817Y-105737577D01*
X71801911Y-105566671D01*
X71600946Y-105432391D01*
X71587931Y-105427000D01*
X79716755Y-105427000D01*
X79750000Y-105430274D01*
X79783245Y-105427000D01*
X79783252Y-105427000D01*
X79882715Y-105417204D01*
X80010330Y-105378492D01*
X80127941Y-105315628D01*
X80231027Y-105231027D01*
X80252226Y-105205196D01*
X84455206Y-101002217D01*
X84481026Y-100981027D01*
X84502218Y-100955205D01*
X84502224Y-100955199D01*
X84565628Y-100877941D01*
X84628492Y-100760330D01*
X84667204Y-100632715D01*
X84680275Y-100500000D01*
X84677000Y-100466748D01*
X84677000Y-97120974D01*
X86532642Y-97120974D01*
X86653783Y-97353000D01*
X88013000Y-97353000D01*
X88013000Y-97333000D01*
X88267000Y-97333000D01*
X88267000Y-97353000D01*
X89626217Y-97353000D01*
X89747358Y-97120974D01*
X89744709Y-97105211D01*
X89643686Y-96829081D01*
X89490733Y-96577965D01*
X89291729Y-96361514D01*
X89054321Y-96188046D01*
X88862184Y-96098840D01*
X89012888Y-96018286D01*
X89209407Y-95857007D01*
X89370686Y-95660488D01*
X89490528Y-95436281D01*
X89564326Y-95193002D01*
X89589244Y-94940000D01*
X89564326Y-94686998D01*
X89490528Y-94443719D01*
X89370686Y-94219512D01*
X89209407Y-94022993D01*
X89012888Y-93861714D01*
X88788681Y-93741872D01*
X88545402Y-93668074D01*
X88355798Y-93649400D01*
X87924202Y-93649400D01*
X87734598Y-93668074D01*
X87491319Y-93741872D01*
X87267112Y-93861714D01*
X87070593Y-94022993D01*
X86909314Y-94219512D01*
X86789472Y-94443719D01*
X86715674Y-94686998D01*
X86690756Y-94940000D01*
X86715674Y-95193002D01*
X86789472Y-95436281D01*
X86909314Y-95660488D01*
X87070593Y-95857007D01*
X87267112Y-96018286D01*
X87417816Y-96098840D01*
X87225679Y-96188046D01*
X86988271Y-96361514D01*
X86789267Y-96577965D01*
X86636314Y-96829081D01*
X86535291Y-97105211D01*
X86532642Y-97120974D01*
X84677000Y-97120974D01*
X84677000Y-94030422D01*
X86030423Y-92677000D01*
X89469578Y-92677000D01*
X91823000Y-95030422D01*
X91823001Y-104216745D01*
X91819726Y-104250000D01*
X91832796Y-104382714D01*
X91871508Y-104510329D01*
X91934372Y-104627940D01*
X91997776Y-104705198D01*
X91997779Y-104705201D01*
X92018974Y-104731027D01*
X92044800Y-104752222D01*
X95731967Y-108439390D01*
X89305933Y-108439390D01*
X89370686Y-108360488D01*
X89490528Y-108136281D01*
X89564326Y-107893002D01*
X89589244Y-107640000D01*
X89564326Y-107386998D01*
X89490528Y-107143719D01*
X89370686Y-106919512D01*
X89209407Y-106722993D01*
X89012888Y-106561714D01*
X88788681Y-106441872D01*
X88551751Y-106370000D01*
X88788681Y-106298128D01*
X89012888Y-106178286D01*
X89209407Y-106017007D01*
X89370686Y-105820488D01*
X89490528Y-105596281D01*
X89564326Y-105353002D01*
X89589244Y-105100000D01*
X89564326Y-104846998D01*
X89490528Y-104603719D01*
X89370686Y-104379512D01*
X89209407Y-104182993D01*
X89012888Y-104021714D01*
X88788681Y-103901872D01*
X88551751Y-103830000D01*
X88788681Y-103758128D01*
X89012888Y-103638286D01*
X89209407Y-103477007D01*
X89370686Y-103280488D01*
X89490528Y-103056281D01*
X89564326Y-102813002D01*
X89589244Y-102560000D01*
X89564326Y-102306998D01*
X89490528Y-102063719D01*
X89370686Y-101839512D01*
X89209407Y-101642993D01*
X89012888Y-101481714D01*
X88788681Y-101361872D01*
X88551751Y-101290000D01*
X88788681Y-101218128D01*
X89012888Y-101098286D01*
X89209407Y-100937007D01*
X89370686Y-100740488D01*
X89490528Y-100516281D01*
X89564326Y-100273002D01*
X89589244Y-100020000D01*
X89564326Y-99766998D01*
X89490528Y-99523719D01*
X89370686Y-99299512D01*
X89209407Y-99102993D01*
X89012888Y-98941714D01*
X88862184Y-98861160D01*
X89054321Y-98771954D01*
X89291729Y-98598486D01*
X89490733Y-98382035D01*
X89643686Y-98130919D01*
X89744709Y-97854789D01*
X89747358Y-97839026D01*
X89626217Y-97607000D01*
X88267000Y-97607000D01*
X88267000Y-97627000D01*
X88013000Y-97627000D01*
X88013000Y-97607000D01*
X86653783Y-97607000D01*
X86532642Y-97839026D01*
X86535291Y-97854789D01*
X86636314Y-98130919D01*
X86789267Y-98382035D01*
X86988271Y-98598486D01*
X87225679Y-98771954D01*
X87417816Y-98861160D01*
X87267112Y-98941714D01*
X87070593Y-99102993D01*
X86909314Y-99299512D01*
X86789472Y-99523719D01*
X86715674Y-99766998D01*
X86690756Y-100020000D01*
X86715674Y-100273002D01*
X86789472Y-100516281D01*
X86909314Y-100740488D01*
X87070593Y-100937007D01*
X87267112Y-101098286D01*
X87491319Y-101218128D01*
X87728249Y-101290000D01*
X87491319Y-101361872D01*
X87267112Y-101481714D01*
X87070593Y-101642993D01*
X86909314Y-101839512D01*
X86789472Y-102063719D01*
X86715674Y-102306998D01*
X86690756Y-102560000D01*
X86715674Y-102813002D01*
X86789472Y-103056281D01*
X86909314Y-103280488D01*
X87070593Y-103477007D01*
X87267112Y-103638286D01*
X87491319Y-103758128D01*
X87728249Y-103830000D01*
X87491319Y-103901872D01*
X87267112Y-104021714D01*
X87070593Y-104182993D01*
X86909314Y-104379512D01*
X86789472Y-104603719D01*
X86715674Y-104846998D01*
X86690756Y-105100000D01*
X86715674Y-105353002D01*
X86789472Y-105596281D01*
X86909314Y-105820488D01*
X87070593Y-106017007D01*
X87267112Y-106178286D01*
X87491319Y-106298128D01*
X87728249Y-106370000D01*
X87491319Y-106441872D01*
X87267112Y-106561714D01*
X87070593Y-106722993D01*
X86909314Y-106919512D01*
X86789472Y-107143719D01*
X86715674Y-107386998D01*
X86690756Y-107640000D01*
X86715674Y-107893002D01*
X86789472Y-108136281D01*
X86909314Y-108360488D01*
X86974067Y-108439390D01*
X75035718Y-108439390D01*
X75008610Y-108436720D01*
X74900399Y-108447378D01*
X74796347Y-108478942D01*
X74700452Y-108530199D01*
X74638000Y-108581452D01*
X74616399Y-108599179D01*
X74599118Y-108620236D01*
X73271356Y-109948000D01*
X64766486Y-109948000D01*
X64770822Y-109933707D01*
X64779066Y-109850000D01*
X64779066Y-108150000D01*
X64770822Y-108066293D01*
X64746405Y-107985804D01*
X64706755Y-107911624D01*
X64653395Y-107846605D01*
X64588376Y-107793245D01*
X64514196Y-107753595D01*
X64433707Y-107729178D01*
X64350000Y-107720934D01*
X62650000Y-107720934D01*
X62566293Y-107729178D01*
X62485804Y-107753595D01*
X62411624Y-107793245D01*
X62346605Y-107846605D01*
X62293245Y-107911624D01*
X62253595Y-107985804D01*
X62229178Y-108066293D01*
X62220934Y-108150000D01*
X62220934Y-109720455D01*
X62108269Y-109767123D01*
X61972819Y-109857628D01*
X61857628Y-109972819D01*
X61767123Y-110108269D01*
X61704782Y-110258773D01*
X61673000Y-110418548D01*
X61673000Y-110581452D01*
X61704782Y-110741227D01*
X61767123Y-110891731D01*
X61857628Y-111027181D01*
X61972819Y-111142372D01*
X62108269Y-111232877D01*
X62220934Y-111279545D01*
X62220934Y-112850000D01*
X62229178Y-112933707D01*
X62253595Y-113014196D01*
X62293245Y-113088376D01*
X62346605Y-113153395D01*
X62411624Y-113206755D01*
X62485804Y-113246405D01*
X62566293Y-113270822D01*
X62650000Y-113279066D01*
X64350000Y-113279066D01*
X64433707Y-113270822D01*
X64514196Y-113246405D01*
X64588376Y-113206755D01*
X64653395Y-113153395D01*
X64706755Y-113088376D01*
X64746405Y-113014196D01*
X64770822Y-112933707D01*
X64779066Y-112850000D01*
X64779066Y-111150000D01*
X64770822Y-111066293D01*
X64766486Y-111052000D01*
X73472894Y-111052000D01*
X73500000Y-111054670D01*
X73527106Y-111052000D01*
X73527109Y-111052000D01*
X73608211Y-111044012D01*
X73712263Y-111012448D01*
X73808158Y-110961191D01*
X73892211Y-110892211D01*
X73909500Y-110871144D01*
X75237256Y-109543390D01*
X86864480Y-109543390D01*
X86789472Y-109683719D01*
X86715674Y-109926998D01*
X86690756Y-110180000D01*
X86715674Y-110433002D01*
X86789472Y-110676281D01*
X86909314Y-110900488D01*
X87070593Y-111097007D01*
X87267112Y-111258286D01*
X87491319Y-111378128D01*
X87728249Y-111450000D01*
X87491319Y-111521872D01*
X87267112Y-111641714D01*
X87070593Y-111802993D01*
X86909314Y-111999512D01*
X86789472Y-112223719D01*
X86715674Y-112466998D01*
X86690756Y-112720000D01*
X86715674Y-112973002D01*
X86789472Y-113216281D01*
X86909314Y-113440488D01*
X87070593Y-113637007D01*
X87267112Y-113798286D01*
X87417816Y-113878840D01*
X87225679Y-113968046D01*
X86988271Y-114141514D01*
X86789267Y-114357965D01*
X86636314Y-114609081D01*
X86535291Y-114885211D01*
X86532642Y-114900974D01*
X86653783Y-115133000D01*
X88013000Y-115133000D01*
X88013000Y-115113000D01*
X88267000Y-115113000D01*
X88267000Y-115133000D01*
X89626217Y-115133000D01*
X89747358Y-114900974D01*
X89744709Y-114885211D01*
X89643686Y-114609081D01*
X89490733Y-114357965D01*
X89291729Y-114141514D01*
X89054321Y-113968046D01*
X88862184Y-113878840D01*
X89012888Y-113798286D01*
X89209407Y-113637007D01*
X89370686Y-113440488D01*
X89490528Y-113216281D01*
X89564326Y-112973002D01*
X89589244Y-112720000D01*
X89564326Y-112466998D01*
X89490528Y-112223719D01*
X89370686Y-111999512D01*
X89209407Y-111802993D01*
X89012888Y-111641714D01*
X88788681Y-111521872D01*
X88551751Y-111450000D01*
X88788681Y-111378128D01*
X89012888Y-111258286D01*
X89209407Y-111097007D01*
X89370686Y-110900488D01*
X89490528Y-110676281D01*
X89564326Y-110433002D01*
X89589244Y-110180000D01*
X89564326Y-109926998D01*
X89490528Y-109683719D01*
X89415520Y-109543390D01*
X100981504Y-109543390D01*
X101008610Y-109546060D01*
X101035716Y-109543390D01*
X101035719Y-109543390D01*
X101116821Y-109535402D01*
X101220873Y-109503838D01*
X101316768Y-109452581D01*
X101400821Y-109383601D01*
X101418110Y-109362534D01*
X101453644Y-109327000D01*
X101581452Y-109327000D01*
X101741227Y-109295218D01*
X101891731Y-109232877D01*
X102027181Y-109142372D01*
X102142372Y-109027181D01*
X102232877Y-108891731D01*
X102295218Y-108741227D01*
X102327000Y-108581452D01*
X102327000Y-108418548D01*
X102295218Y-108258773D01*
X102232877Y-108108269D01*
X102159883Y-107999026D01*
X109392642Y-107999026D01*
X109395291Y-108014789D01*
X109496314Y-108290919D01*
X109649267Y-108542035D01*
X109848271Y-108758486D01*
X110085679Y-108931954D01*
X110277816Y-109021160D01*
X110127112Y-109101714D01*
X109930593Y-109262993D01*
X109769314Y-109459512D01*
X109649472Y-109683719D01*
X109575674Y-109926998D01*
X109550756Y-110180000D01*
X109575674Y-110433002D01*
X109649472Y-110676281D01*
X109769314Y-110900488D01*
X109930593Y-111097007D01*
X110127112Y-111258286D01*
X110351319Y-111378128D01*
X110588249Y-111450000D01*
X110351319Y-111521872D01*
X110127112Y-111641714D01*
X109930593Y-111802993D01*
X109769314Y-111999512D01*
X109649472Y-112223719D01*
X109575674Y-112466998D01*
X109550756Y-112720000D01*
X109575674Y-112973002D01*
X109649472Y-113216281D01*
X109769314Y-113440488D01*
X109930593Y-113637007D01*
X110127112Y-113798286D01*
X110351319Y-113918128D01*
X110588249Y-113990000D01*
X110351319Y-114061872D01*
X110127112Y-114181714D01*
X109930593Y-114342993D01*
X109769314Y-114539512D01*
X109649472Y-114763719D01*
X109575674Y-115006998D01*
X109550756Y-115260000D01*
X109575674Y-115513002D01*
X109649472Y-115756281D01*
X109769314Y-115980488D01*
X109930593Y-116177007D01*
X110127112Y-116338286D01*
X110351319Y-116458128D01*
X110588249Y-116530000D01*
X110351319Y-116601872D01*
X110127112Y-116721714D01*
X109930593Y-116882993D01*
X109769314Y-117079512D01*
X109649472Y-117303719D01*
X109575674Y-117546998D01*
X109550756Y-117800000D01*
X109575674Y-118053002D01*
X109649472Y-118296281D01*
X109769314Y-118520488D01*
X109930593Y-118717007D01*
X110127112Y-118878286D01*
X110351319Y-118998128D01*
X110588249Y-119070000D01*
X110351319Y-119141872D01*
X110127112Y-119261714D01*
X109930593Y-119422993D01*
X109769314Y-119619512D01*
X109649472Y-119843719D01*
X109575674Y-120086998D01*
X109550756Y-120340000D01*
X109575674Y-120593002D01*
X109649472Y-120836281D01*
X109769314Y-121060488D01*
X109930593Y-121257007D01*
X110127112Y-121418286D01*
X110351319Y-121538128D01*
X110588249Y-121610000D01*
X110351319Y-121681872D01*
X110127112Y-121801714D01*
X109930593Y-121962993D01*
X109769314Y-122159512D01*
X109649472Y-122383719D01*
X109575674Y-122626998D01*
X109550756Y-122880000D01*
X109575674Y-123133002D01*
X109649472Y-123376281D01*
X109769314Y-123600488D01*
X109930593Y-123797007D01*
X110127112Y-123958286D01*
X110351319Y-124078128D01*
X110588249Y-124150000D01*
X110351319Y-124221872D01*
X110127112Y-124341714D01*
X109930593Y-124502993D01*
X109769314Y-124699512D01*
X109649472Y-124923719D01*
X109575674Y-125166998D01*
X109550756Y-125420000D01*
X109575674Y-125673002D01*
X109649472Y-125916281D01*
X109769314Y-126140488D01*
X109930593Y-126337007D01*
X110127112Y-126498286D01*
X110351319Y-126618128D01*
X110588249Y-126690000D01*
X110351319Y-126761872D01*
X110127112Y-126881714D01*
X109930593Y-127042993D01*
X109769314Y-127239512D01*
X109649472Y-127463719D01*
X109575674Y-127706998D01*
X109550756Y-127960000D01*
X109575674Y-128213002D01*
X109649472Y-128456281D01*
X109769314Y-128680488D01*
X109930593Y-128877007D01*
X110127112Y-129038286D01*
X110351319Y-129158128D01*
X110588249Y-129230000D01*
X110351319Y-129301872D01*
X110127112Y-129421714D01*
X109930593Y-129582993D01*
X109769314Y-129779512D01*
X109649472Y-130003719D01*
X109575674Y-130246998D01*
X109550756Y-130500000D01*
X109575674Y-130753002D01*
X109649472Y-130996281D01*
X109769314Y-131220488D01*
X109930593Y-131417007D01*
X110127112Y-131578286D01*
X110351319Y-131698128D01*
X110594598Y-131771926D01*
X110784202Y-131790600D01*
X111215798Y-131790600D01*
X111405402Y-131771926D01*
X111648681Y-131698128D01*
X111872888Y-131578286D01*
X112069407Y-131417007D01*
X112230686Y-131220488D01*
X112350528Y-130996281D01*
X112424326Y-130753002D01*
X112449244Y-130500000D01*
X112424326Y-130246998D01*
X112350528Y-130003719D01*
X112230686Y-129779512D01*
X112069407Y-129582993D01*
X111872888Y-129421714D01*
X111648681Y-129301872D01*
X111411751Y-129230000D01*
X111648681Y-129158128D01*
X111872888Y-129038286D01*
X112069407Y-128877007D01*
X112230686Y-128680488D01*
X112350528Y-128456281D01*
X112424326Y-128213002D01*
X112449244Y-127960000D01*
X112424326Y-127706998D01*
X112350528Y-127463719D01*
X112230686Y-127239512D01*
X112069407Y-127042993D01*
X111872888Y-126881714D01*
X111648681Y-126761872D01*
X111411751Y-126690000D01*
X111648681Y-126618128D01*
X111872888Y-126498286D01*
X112069407Y-126337007D01*
X112230686Y-126140488D01*
X112350528Y-125916281D01*
X112424326Y-125673002D01*
X112449244Y-125420000D01*
X112424326Y-125166998D01*
X112350528Y-124923719D01*
X112230686Y-124699512D01*
X112069407Y-124502993D01*
X111872888Y-124341714D01*
X111648681Y-124221872D01*
X111411751Y-124150000D01*
X111648681Y-124078128D01*
X111872888Y-123958286D01*
X112069407Y-123797007D01*
X112230686Y-123600488D01*
X112350528Y-123376281D01*
X112424326Y-123133002D01*
X112449244Y-122880000D01*
X112424326Y-122626998D01*
X112350528Y-122383719D01*
X112230686Y-122159512D01*
X112069407Y-121962993D01*
X111872888Y-121801714D01*
X111648681Y-121681872D01*
X111411751Y-121610000D01*
X111648681Y-121538128D01*
X111872888Y-121418286D01*
X112069407Y-121257007D01*
X112230686Y-121060488D01*
X112350528Y-120836281D01*
X112424326Y-120593002D01*
X112449244Y-120340000D01*
X112424326Y-120086998D01*
X112350528Y-119843719D01*
X112230686Y-119619512D01*
X112069407Y-119422993D01*
X111872888Y-119261714D01*
X111648681Y-119141872D01*
X111411751Y-119070000D01*
X111648681Y-118998128D01*
X111872888Y-118878286D01*
X112069407Y-118717007D01*
X112230686Y-118520488D01*
X112350528Y-118296281D01*
X112424326Y-118053002D01*
X112449244Y-117800000D01*
X112424326Y-117546998D01*
X112350528Y-117303719D01*
X112230686Y-117079512D01*
X112069407Y-116882993D01*
X111872888Y-116721714D01*
X111648681Y-116601872D01*
X111411751Y-116530000D01*
X111648681Y-116458128D01*
X111872888Y-116338286D01*
X112069407Y-116177007D01*
X112230686Y-115980488D01*
X112350528Y-115756281D01*
X112424326Y-115513002D01*
X112449244Y-115260000D01*
X112424326Y-115006998D01*
X112350528Y-114763719D01*
X112230686Y-114539512D01*
X112069407Y-114342993D01*
X111872888Y-114181714D01*
X111648681Y-114061872D01*
X111411751Y-113990000D01*
X111648681Y-113918128D01*
X111872888Y-113798286D01*
X112069407Y-113637007D01*
X112230686Y-113440488D01*
X112350528Y-113216281D01*
X112424326Y-112973002D01*
X112449244Y-112720000D01*
X112424326Y-112466998D01*
X112350528Y-112223719D01*
X112230686Y-111999512D01*
X112069407Y-111802993D01*
X111872888Y-111641714D01*
X111648681Y-111521872D01*
X111411751Y-111450000D01*
X111648681Y-111378128D01*
X111872888Y-111258286D01*
X112069407Y-111097007D01*
X112230686Y-110900488D01*
X112350528Y-110676281D01*
X112424326Y-110433002D01*
X112449244Y-110180000D01*
X112424326Y-109926998D01*
X112350528Y-109683719D01*
X112230686Y-109459512D01*
X112069407Y-109262993D01*
X111872888Y-109101714D01*
X111722184Y-109021160D01*
X111914321Y-108931954D01*
X112151729Y-108758486D01*
X112350733Y-108542035D01*
X112503686Y-108290919D01*
X112604709Y-108014789D01*
X112607358Y-107999026D01*
X112486217Y-107767000D01*
X111127000Y-107767000D01*
X111127000Y-107787000D01*
X110873000Y-107787000D01*
X110873000Y-107767000D01*
X109513783Y-107767000D01*
X109392642Y-107999026D01*
X102159883Y-107999026D01*
X102142372Y-107972819D01*
X102027181Y-107857628D01*
X101891731Y-107767123D01*
X101741227Y-107704782D01*
X101581452Y-107673000D01*
X101418548Y-107673000D01*
X101258773Y-107704782D01*
X101108269Y-107767123D01*
X100972819Y-107857628D01*
X100857628Y-107972819D01*
X100767123Y-108108269D01*
X100704782Y-108258773D01*
X100673000Y-108418548D01*
X100673000Y-108439390D01*
X97701032Y-108439390D01*
X97732877Y-108391731D01*
X97795218Y-108241227D01*
X97827000Y-108081452D01*
X97827000Y-107918548D01*
X97795218Y-107758773D01*
X97732877Y-107608269D01*
X97642372Y-107472819D01*
X97527181Y-107357628D01*
X97391731Y-107267123D01*
X97241227Y-107204782D01*
X97081452Y-107173000D01*
X96918548Y-107173000D01*
X96758773Y-107204782D01*
X96608269Y-107267123D01*
X96528108Y-107320685D01*
X93177000Y-103969578D01*
X93177000Y-97839026D01*
X109392642Y-97839026D01*
X109395291Y-97854789D01*
X109496314Y-98130919D01*
X109649267Y-98382035D01*
X109848271Y-98598486D01*
X110085679Y-98771954D01*
X110277816Y-98861160D01*
X110127112Y-98941714D01*
X109930593Y-99102993D01*
X109769314Y-99299512D01*
X109649472Y-99523719D01*
X109575674Y-99766998D01*
X109550756Y-100020000D01*
X109575674Y-100273002D01*
X109649472Y-100516281D01*
X109769314Y-100740488D01*
X109930593Y-100937007D01*
X110127112Y-101098286D01*
X110351319Y-101218128D01*
X110588249Y-101290000D01*
X110351319Y-101361872D01*
X110127112Y-101481714D01*
X109930593Y-101642993D01*
X109769314Y-101839512D01*
X109649472Y-102063719D01*
X109575674Y-102306998D01*
X109550756Y-102560000D01*
X109575674Y-102813002D01*
X109649472Y-103056281D01*
X109769314Y-103280488D01*
X109930593Y-103477007D01*
X110127112Y-103638286D01*
X110351319Y-103758128D01*
X110588249Y-103830000D01*
X110351319Y-103901872D01*
X110127112Y-104021714D01*
X109930593Y-104182993D01*
X109769314Y-104379512D01*
X109649472Y-104603719D01*
X109575674Y-104846998D01*
X109550756Y-105100000D01*
X109575674Y-105353002D01*
X109649472Y-105596281D01*
X109769314Y-105820488D01*
X109930593Y-106017007D01*
X110127112Y-106178286D01*
X110277816Y-106258840D01*
X110085679Y-106348046D01*
X109848271Y-106521514D01*
X109649267Y-106737965D01*
X109496314Y-106989081D01*
X109395291Y-107265211D01*
X109392642Y-107280974D01*
X109513783Y-107513000D01*
X110873000Y-107513000D01*
X110873000Y-107493000D01*
X111127000Y-107493000D01*
X111127000Y-107513000D01*
X112486217Y-107513000D01*
X112607358Y-107280974D01*
X112604709Y-107265211D01*
X112503686Y-106989081D01*
X112350733Y-106737965D01*
X112151729Y-106521514D01*
X111914321Y-106348046D01*
X111722184Y-106258840D01*
X111872888Y-106178286D01*
X112069407Y-106017007D01*
X112230686Y-105820488D01*
X112350528Y-105596281D01*
X112424326Y-105353002D01*
X112449244Y-105100000D01*
X112424326Y-104846998D01*
X112350528Y-104603719D01*
X112230686Y-104379512D01*
X112069407Y-104182993D01*
X111872888Y-104021714D01*
X111648681Y-103901872D01*
X111411751Y-103830000D01*
X111648681Y-103758128D01*
X111872888Y-103638286D01*
X112069407Y-103477007D01*
X112230686Y-103280488D01*
X112350528Y-103056281D01*
X112424326Y-102813002D01*
X112449244Y-102560000D01*
X112424326Y-102306998D01*
X112350528Y-102063719D01*
X112230686Y-101839512D01*
X112069407Y-101642993D01*
X111872888Y-101481714D01*
X111648681Y-101361872D01*
X111411751Y-101290000D01*
X111648681Y-101218128D01*
X111872888Y-101098286D01*
X112069407Y-100937007D01*
X112230686Y-100740488D01*
X112350528Y-100516281D01*
X112424326Y-100273002D01*
X112449244Y-100020000D01*
X112424326Y-99766998D01*
X112350528Y-99523719D01*
X112230686Y-99299512D01*
X112069407Y-99102993D01*
X111872888Y-98941714D01*
X111722184Y-98861160D01*
X111914321Y-98771954D01*
X112151729Y-98598486D01*
X112350733Y-98382035D01*
X112503686Y-98130919D01*
X112604709Y-97854789D01*
X112607358Y-97839026D01*
X112486217Y-97607000D01*
X111127000Y-97607000D01*
X111127000Y-97627000D01*
X110873000Y-97627000D01*
X110873000Y-97607000D01*
X109513783Y-97607000D01*
X109392642Y-97839026D01*
X93177000Y-97839026D01*
X93177000Y-97120974D01*
X109392642Y-97120974D01*
X109513783Y-97353000D01*
X110873000Y-97353000D01*
X110873000Y-97333000D01*
X111127000Y-97333000D01*
X111127000Y-97353000D01*
X112486217Y-97353000D01*
X112607358Y-97120974D01*
X112604709Y-97105211D01*
X112503686Y-96829081D01*
X112350733Y-96577965D01*
X112151729Y-96361514D01*
X111914321Y-96188046D01*
X111722184Y-96098840D01*
X111872888Y-96018286D01*
X112069407Y-95857007D01*
X112230686Y-95660488D01*
X112350528Y-95436281D01*
X112424326Y-95193002D01*
X112449244Y-94940000D01*
X112424326Y-94686998D01*
X112350528Y-94443719D01*
X112230686Y-94219512D01*
X112069407Y-94022993D01*
X111872888Y-93861714D01*
X111648681Y-93741872D01*
X111405402Y-93668074D01*
X111215798Y-93649400D01*
X110784202Y-93649400D01*
X110594598Y-93668074D01*
X110351319Y-93741872D01*
X110127112Y-93861714D01*
X109930593Y-94022993D01*
X109769314Y-94219512D01*
X109649472Y-94443719D01*
X109575674Y-94686998D01*
X109550756Y-94940000D01*
X109575674Y-95193002D01*
X109649472Y-95436281D01*
X109769314Y-95660488D01*
X109930593Y-95857007D01*
X110127112Y-96018286D01*
X110277816Y-96098840D01*
X110085679Y-96188046D01*
X109848271Y-96361514D01*
X109649267Y-96577965D01*
X109496314Y-96829081D01*
X109395291Y-97105211D01*
X109392642Y-97120974D01*
X93177000Y-97120974D01*
X93177000Y-94783241D01*
X93180274Y-94749999D01*
X93177000Y-94716757D01*
X93177000Y-94716748D01*
X93167204Y-94617285D01*
X93128492Y-94489670D01*
X93065628Y-94372059D01*
X92981026Y-94268973D01*
X92955200Y-94247778D01*
X90252226Y-91544804D01*
X90231027Y-91518973D01*
X90127941Y-91434372D01*
X90010330Y-91371508D01*
X89882715Y-91332796D01*
X89783252Y-91323000D01*
X89783245Y-91323000D01*
X89750000Y-91319726D01*
X89716755Y-91323000D01*
X85783252Y-91323000D01*
X85750000Y-91319725D01*
X85716748Y-91323000D01*
X85617285Y-91332796D01*
X85489670Y-91371508D01*
X85372059Y-91434372D01*
X85268973Y-91518973D01*
X85247778Y-91544799D01*
X83544800Y-93247778D01*
X83518974Y-93268973D01*
X83497779Y-93294799D01*
X83497776Y-93294802D01*
X83434372Y-93372060D01*
X83371508Y-93489671D01*
X83332796Y-93617286D01*
X83319726Y-93750000D01*
X83323001Y-93783255D01*
X83323000Y-100219577D01*
X79469578Y-104073000D01*
X69307994Y-104073000D01*
X69295218Y-104008773D01*
X69232877Y-103858269D01*
X69142372Y-103722819D01*
X69027181Y-103607628D01*
X68891731Y-103517123D01*
X68741227Y-103454782D01*
X68642582Y-103435160D01*
X68564840Y-103357418D01*
X68545218Y-103258773D01*
X68482877Y-103108269D01*
X68392372Y-102972819D01*
X68277181Y-102857628D01*
X68141731Y-102767123D01*
X67991227Y-102704782D01*
X67892582Y-102685160D01*
X67814840Y-102607418D01*
X67795218Y-102508773D01*
X67732877Y-102358269D01*
X67642372Y-102222819D01*
X67527181Y-102107628D01*
X67391731Y-102017123D01*
X67241227Y-101954782D01*
X67081452Y-101923000D01*
X66918548Y-101923000D01*
X66758773Y-101954782D01*
X66608269Y-102017123D01*
X66524643Y-102073000D01*
X62975357Y-102073000D01*
X62891731Y-102017123D01*
X62741227Y-101954782D01*
X62581452Y-101923000D01*
X62418548Y-101923000D01*
X62258773Y-101954782D01*
X62108269Y-102017123D01*
X62024643Y-102073000D01*
X61725357Y-102073000D01*
X61641731Y-102017123D01*
X61491227Y-101954782D01*
X61331452Y-101923000D01*
X61168548Y-101923000D01*
X61008773Y-101954782D01*
X60858269Y-102017123D01*
X60774643Y-102073000D01*
X60475357Y-102073000D01*
X60391731Y-102017123D01*
X60241227Y-101954782D01*
X60081452Y-101923000D01*
X59918548Y-101923000D01*
X59758773Y-101954782D01*
X59608269Y-102017123D01*
X59472819Y-102107628D01*
X59357628Y-102222819D01*
X59267123Y-102358269D01*
X59204782Y-102508773D01*
X59173000Y-102668548D01*
X49952000Y-102668548D01*
X49952000Y-99168548D01*
X60423000Y-99168548D01*
X60423000Y-99331452D01*
X60454782Y-99491227D01*
X60517123Y-99641731D01*
X60607628Y-99777181D01*
X60722819Y-99892372D01*
X60858269Y-99982877D01*
X61008773Y-100045218D01*
X61168548Y-100077000D01*
X61331452Y-100077000D01*
X61491227Y-100045218D01*
X61641731Y-99982877D01*
X61777181Y-99892372D01*
X61819103Y-99850450D01*
X70223000Y-99850450D01*
X70237860Y-100001326D01*
X70296585Y-100194916D01*
X70391949Y-100373331D01*
X70520288Y-100529712D01*
X70676669Y-100658051D01*
X70855083Y-100753415D01*
X71048673Y-100812140D01*
X71250000Y-100831969D01*
X71451326Y-100812140D01*
X71644916Y-100753415D01*
X71823331Y-100658051D01*
X71979712Y-100529712D01*
X72108051Y-100373331D01*
X72203415Y-100194917D01*
X72262140Y-100001327D01*
X72267195Y-99950000D01*
X74520934Y-99950000D01*
X74520934Y-102050000D01*
X74529178Y-102133707D01*
X74553595Y-102214196D01*
X74593245Y-102288376D01*
X74646605Y-102353395D01*
X74711624Y-102406755D01*
X74785804Y-102446405D01*
X74866293Y-102470822D01*
X74950000Y-102479066D01*
X77050000Y-102479066D01*
X77133707Y-102470822D01*
X77214196Y-102446405D01*
X77288376Y-102406755D01*
X77353395Y-102353395D01*
X77406755Y-102288376D01*
X77446405Y-102214196D01*
X77470822Y-102133707D01*
X77479066Y-102050000D01*
X77479066Y-99950000D01*
X77470822Y-99866293D01*
X77466016Y-99850450D01*
X79723000Y-99850450D01*
X79737860Y-100001326D01*
X79796585Y-100194916D01*
X79891949Y-100373331D01*
X80020288Y-100529712D01*
X80176669Y-100658051D01*
X80355083Y-100753415D01*
X80548673Y-100812140D01*
X80750000Y-100831969D01*
X80951326Y-100812140D01*
X81144916Y-100753415D01*
X81323331Y-100658051D01*
X81479712Y-100529712D01*
X81608051Y-100373331D01*
X81703415Y-100194917D01*
X81762140Y-100001327D01*
X81777000Y-99850451D01*
X81777000Y-98549549D01*
X81762140Y-98398673D01*
X81703415Y-98205083D01*
X81608051Y-98026669D01*
X81479712Y-97870288D01*
X81323331Y-97741949D01*
X81144917Y-97646585D01*
X80951327Y-97587860D01*
X80750000Y-97568031D01*
X80548674Y-97587860D01*
X80355084Y-97646585D01*
X80176670Y-97741949D01*
X80020289Y-97870288D01*
X79891950Y-98026669D01*
X79796586Y-98205083D01*
X79737861Y-98398673D01*
X79723001Y-98549549D01*
X79723000Y-99850450D01*
X77466016Y-99850450D01*
X77446405Y-99785804D01*
X77406755Y-99711624D01*
X77353395Y-99646605D01*
X77288376Y-99593245D01*
X77214196Y-99553595D01*
X77133707Y-99529178D01*
X77050000Y-99520934D01*
X74950000Y-99520934D01*
X74866293Y-99529178D01*
X74785804Y-99553595D01*
X74711624Y-99593245D01*
X74646605Y-99646605D01*
X74593245Y-99711624D01*
X74553595Y-99785804D01*
X74529178Y-99866293D01*
X74520934Y-99950000D01*
X72267195Y-99950000D01*
X72277000Y-99850451D01*
X72277000Y-98549549D01*
X72262140Y-98398673D01*
X72203415Y-98205083D01*
X72108051Y-98026669D01*
X71979712Y-97870288D01*
X71823331Y-97741949D01*
X71644917Y-97646585D01*
X71451327Y-97587860D01*
X71250000Y-97568031D01*
X71048674Y-97587860D01*
X70855084Y-97646585D01*
X70676670Y-97741949D01*
X70520289Y-97870288D01*
X70391950Y-98026669D01*
X70296586Y-98205083D01*
X70237861Y-98398673D01*
X70223001Y-98549549D01*
X70223000Y-99850450D01*
X61819103Y-99850450D01*
X61892372Y-99777181D01*
X61982877Y-99641731D01*
X62045218Y-99491227D01*
X62077000Y-99331452D01*
X62077000Y-99168548D01*
X62045218Y-99008773D01*
X61982877Y-98858269D01*
X61892372Y-98722819D01*
X61802000Y-98632447D01*
X61802000Y-97842224D01*
X61878333Y-97791220D01*
X61993524Y-97676029D01*
X62084029Y-97540579D01*
X62146370Y-97390075D01*
X62178152Y-97230300D01*
X62178152Y-97067396D01*
X62146370Y-96907621D01*
X62084029Y-96757117D01*
X61993524Y-96621667D01*
X61878333Y-96506476D01*
X61742883Y-96415971D01*
X61592379Y-96353630D01*
X61432604Y-96321848D01*
X61269700Y-96321848D01*
X61109925Y-96353630D01*
X60959421Y-96415971D01*
X60823971Y-96506476D01*
X60708780Y-96621667D01*
X60618275Y-96757117D01*
X60555934Y-96907621D01*
X60524152Y-97067396D01*
X60524152Y-97230300D01*
X60555934Y-97390075D01*
X60618275Y-97540579D01*
X60698001Y-97659897D01*
X60698000Y-98632447D01*
X60607628Y-98722819D01*
X60517123Y-98858269D01*
X60454782Y-99008773D01*
X60423000Y-99168548D01*
X49952000Y-99168548D01*
X49952000Y-95150450D01*
X70223000Y-95150450D01*
X70237860Y-95301326D01*
X70296585Y-95494916D01*
X70391949Y-95673331D01*
X70520288Y-95829712D01*
X70676669Y-95958051D01*
X70855083Y-96053415D01*
X71048673Y-96112140D01*
X71250000Y-96131969D01*
X71451326Y-96112140D01*
X71644916Y-96053415D01*
X71823331Y-95958051D01*
X71979712Y-95829712D01*
X72108051Y-95673331D01*
X72203415Y-95494917D01*
X72245285Y-95356890D01*
X73708524Y-95356890D01*
X73729437Y-95450953D01*
X73844709Y-95719426D01*
X74010143Y-95960252D01*
X74219381Y-96164176D01*
X74464382Y-96323361D01*
X74735731Y-96431690D01*
X75023000Y-96485000D01*
X75873000Y-96485000D01*
X75873000Y-95127000D01*
X76127000Y-95127000D01*
X76127000Y-96485000D01*
X76977000Y-96485000D01*
X77264269Y-96431690D01*
X77535618Y-96323361D01*
X77780619Y-96164176D01*
X77989857Y-95960252D01*
X78155291Y-95719426D01*
X78270563Y-95450953D01*
X78291476Y-95356890D01*
X78182531Y-95150450D01*
X79723000Y-95150450D01*
X79737860Y-95301326D01*
X79796585Y-95494916D01*
X79891949Y-95673331D01*
X80020288Y-95829712D01*
X80176669Y-95958051D01*
X80355083Y-96053415D01*
X80548673Y-96112140D01*
X80750000Y-96131969D01*
X80951326Y-96112140D01*
X81144916Y-96053415D01*
X81323331Y-95958051D01*
X81479712Y-95829712D01*
X81608051Y-95673331D01*
X81703415Y-95494917D01*
X81762140Y-95301327D01*
X81777000Y-95150451D01*
X81777000Y-93849549D01*
X81762140Y-93698673D01*
X81703415Y-93505083D01*
X81608051Y-93326669D01*
X81479712Y-93170288D01*
X81323331Y-93041949D01*
X81144917Y-92946585D01*
X80951327Y-92887860D01*
X80750000Y-92868031D01*
X80548674Y-92887860D01*
X80355084Y-92946585D01*
X80176670Y-93041949D01*
X80020289Y-93170288D01*
X79891950Y-93326669D01*
X79796586Y-93505083D01*
X79737861Y-93698673D01*
X79723001Y-93849549D01*
X79723000Y-95150450D01*
X78182531Y-95150450D01*
X78170155Y-95127000D01*
X76127000Y-95127000D01*
X75873000Y-95127000D01*
X73829845Y-95127000D01*
X73708524Y-95356890D01*
X72245285Y-95356890D01*
X72262140Y-95301327D01*
X72277000Y-95150451D01*
X72277000Y-94643110D01*
X73708524Y-94643110D01*
X73829845Y-94873000D01*
X75873000Y-94873000D01*
X75873000Y-93515000D01*
X76127000Y-93515000D01*
X76127000Y-94873000D01*
X78170155Y-94873000D01*
X78291476Y-94643110D01*
X78270563Y-94549047D01*
X78155291Y-94280574D01*
X77989857Y-94039748D01*
X77780619Y-93835824D01*
X77535618Y-93676639D01*
X77264269Y-93568310D01*
X76977000Y-93515000D01*
X76127000Y-93515000D01*
X75873000Y-93515000D01*
X75023000Y-93515000D01*
X74735731Y-93568310D01*
X74464382Y-93676639D01*
X74219381Y-93835824D01*
X74010143Y-94039748D01*
X73844709Y-94280574D01*
X73729437Y-94549047D01*
X73708524Y-94643110D01*
X72277000Y-94643110D01*
X72277000Y-93849549D01*
X72262140Y-93698673D01*
X72203415Y-93505083D01*
X72108051Y-93326669D01*
X71979712Y-93170288D01*
X71823331Y-93041949D01*
X71644917Y-92946585D01*
X71451327Y-92887860D01*
X71250000Y-92868031D01*
X71048674Y-92887860D01*
X70855084Y-92946585D01*
X70676670Y-93041949D01*
X70520289Y-93170288D01*
X70391950Y-93326669D01*
X70296586Y-93505083D01*
X70237861Y-93698673D01*
X70223001Y-93849549D01*
X70223000Y-95150450D01*
X49952000Y-95150450D01*
X49952000Y-92022109D01*
X49990530Y-91629151D01*
X74773000Y-91629151D01*
X74773000Y-91870849D01*
X74820153Y-92107903D01*
X74912647Y-92331202D01*
X75046927Y-92532167D01*
X75217833Y-92703073D01*
X75418798Y-92837353D01*
X75642097Y-92929847D01*
X75879151Y-92977000D01*
X76120849Y-92977000D01*
X76357903Y-92929847D01*
X76581202Y-92837353D01*
X76782167Y-92703073D01*
X76953073Y-92532167D01*
X77087353Y-92331202D01*
X77179847Y-92107903D01*
X77227000Y-91870849D01*
X77227000Y-91629151D01*
X77179847Y-91392097D01*
X77087353Y-91168798D01*
X76953073Y-90967833D01*
X76782167Y-90796927D01*
X76581202Y-90662647D01*
X76357903Y-90570153D01*
X76120849Y-90523000D01*
X75879151Y-90523000D01*
X75642097Y-90570153D01*
X75418798Y-90662647D01*
X75217833Y-90796927D01*
X75046927Y-90967833D01*
X74912647Y-91168798D01*
X74820153Y-91392097D01*
X74773000Y-91629151D01*
X49990530Y-91629151D01*
X50002654Y-91505508D01*
X50146259Y-91029863D01*
X50379522Y-90591157D01*
X50693551Y-90206120D01*
X51076390Y-89889408D01*
X51513447Y-89653093D01*
X51988091Y-89506165D01*
X52503439Y-89452000D01*
X110477891Y-89452000D01*
X110994492Y-89502654D01*
G37*
X110994492Y-89502654D02*
X111470137Y-89646259D01*
X111908843Y-89879522D01*
X112293880Y-90193551D01*
X112610592Y-90576390D01*
X112846907Y-91013447D01*
X112993835Y-91488091D01*
X113048001Y-92003448D01*
X113048000Y-126022204D01*
X113048001Y-126022214D01*
X113048000Y-132477891D01*
X112997347Y-132994487D01*
X112853740Y-133470141D01*
X112620478Y-133908842D01*
X112306449Y-134293880D01*
X111923610Y-134610592D01*
X111486552Y-134846908D01*
X111011909Y-134993835D01*
X110496560Y-135048000D01*
X88022108Y-135048000D01*
X87505513Y-134997347D01*
X87029859Y-134853740D01*
X86591158Y-134620478D01*
X86206120Y-134306449D01*
X85889408Y-133923610D01*
X85653092Y-133486552D01*
X85506165Y-133011909D01*
X85451990Y-132496467D01*
X85451924Y-132477481D01*
X85449929Y-132457840D01*
X85450067Y-132438090D01*
X85449451Y-132431809D01*
X85388250Y-131849519D01*
X85380012Y-131809388D01*
X85372336Y-131769148D01*
X85370512Y-131763106D01*
X85197375Y-131203792D01*
X85181484Y-131165989D01*
X85166153Y-131128044D01*
X85163190Y-131122471D01*
X85163190Y-131122470D01*
X85163187Y-131122466D01*
X84884714Y-130607439D01*
X84861808Y-130573479D01*
X84839374Y-130539196D01*
X84835385Y-130534305D01*
X84462175Y-130083172D01*
X84433125Y-130054324D01*
X84404444Y-130025036D01*
X84399581Y-130021013D01*
X83945852Y-129650961D01*
X83911740Y-129628297D01*
X83877928Y-129605145D01*
X83872381Y-129602147D01*
X83872377Y-129602144D01*
X83872373Y-129602142D01*
X83355412Y-129327269D01*
X83317498Y-129311642D01*
X83279882Y-129295520D01*
X83273853Y-129293653D01*
X82713345Y-129124427D01*
X82673162Y-129116470D01*
X82633087Y-129107952D01*
X82626810Y-129107292D01*
X82044108Y-129050157D01*
X82044105Y-129050157D01*
X82022205Y-129048000D01*
X52522108Y-129048000D01*
X52005513Y-128997347D01*
X51529859Y-128853740D01*
X51091158Y-128620478D01*
X50706120Y-128306449D01*
X50389408Y-127923610D01*
X50153092Y-127486552D01*
X50006165Y-127011909D01*
X49952000Y-126496560D01*
X49952000Y-122529507D01*
X51223000Y-122529507D01*
X51223000Y-123470493D01*
X51406577Y-124393400D01*
X51766677Y-125262758D01*
X52289462Y-126045160D01*
X52954840Y-126710538D01*
X53737242Y-127233323D01*
X54606600Y-127593423D01*
X55529507Y-127777000D01*
X56470493Y-127777000D01*
X57393400Y-127593423D01*
X58262758Y-127233323D01*
X59045160Y-126710538D01*
X59710538Y-126045160D01*
X60233323Y-125262758D01*
X60593423Y-124393400D01*
X60777000Y-123470493D01*
X60777000Y-122529507D01*
X61223000Y-122529507D01*
X61223000Y-123470493D01*
X61406577Y-124393400D01*
X61766677Y-125262758D01*
X62289462Y-126045160D01*
X62954840Y-126710538D01*
X63737242Y-127233323D01*
X64606600Y-127593423D01*
X65529507Y-127777000D01*
X66470493Y-127777000D01*
X67393400Y-127593423D01*
X68262758Y-127233323D01*
X69045160Y-126710538D01*
X69710538Y-126045160D01*
X70233323Y-125262758D01*
X70593423Y-124393400D01*
X70777000Y-123470493D01*
X70777000Y-122529507D01*
X70593423Y-121606600D01*
X70233323Y-120737242D01*
X69710538Y-119954840D01*
X69045160Y-119289462D01*
X68490049Y-118918548D01*
X75173000Y-118918548D01*
X75173000Y-119081452D01*
X75204782Y-119241227D01*
X75267123Y-119391731D01*
X75357628Y-119527181D01*
X75472819Y-119642372D01*
X75608269Y-119732877D01*
X75758773Y-119795218D01*
X75918548Y-119827000D01*
X76081452Y-119827000D01*
X76241227Y-119795218D01*
X76391731Y-119732877D01*
X76527181Y-119642372D01*
X76642372Y-119527181D01*
X76732877Y-119391731D01*
X76795218Y-119241227D01*
X76827000Y-119081452D01*
X76827000Y-118953645D01*
X77428646Y-118352000D01*
X86819255Y-118352000D01*
X86909314Y-118520488D01*
X87070593Y-118717007D01*
X87267112Y-118878286D01*
X87491319Y-118998128D01*
X87728249Y-119070000D01*
X87491319Y-119141872D01*
X87267112Y-119261714D01*
X87070593Y-119422993D01*
X86909314Y-119619512D01*
X86789472Y-119843719D01*
X86715674Y-120086998D01*
X86690756Y-120340000D01*
X86715674Y-120593002D01*
X86789472Y-120836281D01*
X86909314Y-121060488D01*
X87070593Y-121257007D01*
X87267112Y-121418286D01*
X87491319Y-121538128D01*
X87728249Y-121610000D01*
X87491319Y-121681872D01*
X87267112Y-121801714D01*
X87070593Y-121962993D01*
X86909314Y-122159512D01*
X86789472Y-122383719D01*
X86715674Y-122626998D01*
X86690756Y-122880000D01*
X86715674Y-123133002D01*
X86789472Y-123376281D01*
X86909314Y-123600488D01*
X87070593Y-123797007D01*
X87267112Y-123958286D01*
X87491319Y-124078128D01*
X87728249Y-124150000D01*
X87491319Y-124221872D01*
X87267112Y-124341714D01*
X87070593Y-124502993D01*
X86909314Y-124699512D01*
X86789472Y-124923719D01*
X86715674Y-125166998D01*
X86690756Y-125420000D01*
X86715674Y-125673002D01*
X86789472Y-125916281D01*
X86909314Y-126140488D01*
X87070593Y-126337007D01*
X87267112Y-126498286D01*
X87491319Y-126618128D01*
X87728249Y-126690000D01*
X87491319Y-126761872D01*
X87267112Y-126881714D01*
X87070593Y-127042993D01*
X86909314Y-127239512D01*
X86789472Y-127463719D01*
X86715674Y-127706998D01*
X86690756Y-127960000D01*
X86715674Y-128213002D01*
X86789472Y-128456281D01*
X86909314Y-128680488D01*
X87070593Y-128877007D01*
X87267112Y-129038286D01*
X87491319Y-129158128D01*
X87728249Y-129230000D01*
X87491319Y-129301872D01*
X87267112Y-129421714D01*
X87070593Y-129582993D01*
X86909314Y-129779512D01*
X86789472Y-130003719D01*
X86715674Y-130246998D01*
X86690756Y-130500000D01*
X86715674Y-130753002D01*
X86789472Y-130996281D01*
X86909314Y-131220488D01*
X87070593Y-131417007D01*
X87267112Y-131578286D01*
X87491319Y-131698128D01*
X87734598Y-131771926D01*
X87924202Y-131790600D01*
X88355798Y-131790600D01*
X88545402Y-131771926D01*
X88788681Y-131698128D01*
X89012888Y-131578286D01*
X89209407Y-131417007D01*
X89370686Y-131220488D01*
X89490528Y-130996281D01*
X89564326Y-130753002D01*
X89589244Y-130500000D01*
X89564326Y-130246998D01*
X89490528Y-130003719D01*
X89370686Y-129779512D01*
X89209407Y-129582993D01*
X89012888Y-129421714D01*
X88788681Y-129301872D01*
X88551751Y-129230000D01*
X88788681Y-129158128D01*
X89012888Y-129038286D01*
X89209407Y-128877007D01*
X89370686Y-128680488D01*
X89490528Y-128456281D01*
X89564326Y-128213002D01*
X89589244Y-127960000D01*
X89564326Y-127706998D01*
X89490528Y-127463719D01*
X89370686Y-127239512D01*
X89209407Y-127042993D01*
X89012888Y-126881714D01*
X88788681Y-126761872D01*
X88551751Y-126690000D01*
X88788681Y-126618128D01*
X89012888Y-126498286D01*
X89209407Y-126337007D01*
X89370686Y-126140488D01*
X89490528Y-125916281D01*
X89564326Y-125673002D01*
X89589244Y-125420000D01*
X89564326Y-125166998D01*
X89490528Y-124923719D01*
X89370686Y-124699512D01*
X89209407Y-124502993D01*
X89012888Y-124341714D01*
X88788681Y-124221872D01*
X88551751Y-124150000D01*
X88788681Y-124078128D01*
X89012888Y-123958286D01*
X89209407Y-123797007D01*
X89370686Y-123600488D01*
X89490528Y-123376281D01*
X89564326Y-123133002D01*
X89589244Y-122880000D01*
X89564326Y-122626998D01*
X89490528Y-122383719D01*
X89370686Y-122159512D01*
X89209407Y-121962993D01*
X89012888Y-121801714D01*
X88788681Y-121681872D01*
X88551751Y-121610000D01*
X88788681Y-121538128D01*
X89012888Y-121418286D01*
X89209407Y-121257007D01*
X89370686Y-121060488D01*
X89490528Y-120836281D01*
X89564326Y-120593002D01*
X89589244Y-120340000D01*
X89564326Y-120086998D01*
X89490528Y-119843719D01*
X89370686Y-119619512D01*
X89209407Y-119422993D01*
X89012888Y-119261714D01*
X88788681Y-119141872D01*
X88551751Y-119070000D01*
X88788681Y-118998128D01*
X89012888Y-118878286D01*
X89209407Y-118717007D01*
X89370686Y-118520488D01*
X89490528Y-118296281D01*
X89564326Y-118053002D01*
X89589244Y-117800000D01*
X89564326Y-117546998D01*
X89490528Y-117303719D01*
X89370686Y-117079512D01*
X89209407Y-116882993D01*
X89012888Y-116721714D01*
X88862184Y-116641160D01*
X89054321Y-116551954D01*
X89291729Y-116378486D01*
X89490733Y-116162035D01*
X89643686Y-115910919D01*
X89744709Y-115634789D01*
X89747358Y-115619026D01*
X89626217Y-115387000D01*
X88267000Y-115387000D01*
X88267000Y-115407000D01*
X88013000Y-115407000D01*
X88013000Y-115387000D01*
X86653783Y-115387000D01*
X86532642Y-115619026D01*
X86535291Y-115634789D01*
X86636314Y-115910919D01*
X86789267Y-116162035D01*
X86988271Y-116378486D01*
X87225679Y-116551954D01*
X87417816Y-116641160D01*
X87267112Y-116721714D01*
X87070593Y-116882993D01*
X86909314Y-117079512D01*
X86819255Y-117248000D01*
X77227097Y-117248000D01*
X77199999Y-117245331D01*
X77172901Y-117248000D01*
X77172891Y-117248000D01*
X77091789Y-117255988D01*
X76987737Y-117287552D01*
X76957491Y-117303719D01*
X76891841Y-117338809D01*
X76834679Y-117385721D01*
X76807789Y-117407789D01*
X76790508Y-117428846D01*
X76046355Y-118173000D01*
X75918548Y-118173000D01*
X75758773Y-118204782D01*
X75608269Y-118267123D01*
X75472819Y-118357628D01*
X75357628Y-118472819D01*
X75267123Y-118608269D01*
X75204782Y-118758773D01*
X75173000Y-118918548D01*
X68490049Y-118918548D01*
X68262758Y-118766677D01*
X67393400Y-118406577D01*
X66470493Y-118223000D01*
X65529507Y-118223000D01*
X64606600Y-118406577D01*
X63737242Y-118766677D01*
X62954840Y-119289462D01*
X62289462Y-119954840D01*
X61766677Y-120737242D01*
X61406577Y-121606600D01*
X61223000Y-122529507D01*
X60777000Y-122529507D01*
X60593423Y-121606600D01*
X60233323Y-120737242D01*
X59710538Y-119954840D01*
X59045160Y-119289462D01*
X58262758Y-118766677D01*
X57393400Y-118406577D01*
X56470493Y-118223000D01*
X55529507Y-118223000D01*
X54606600Y-118406577D01*
X53737242Y-118766677D01*
X52954840Y-119289462D01*
X52289462Y-119954840D01*
X51766677Y-120737242D01*
X51406577Y-121606600D01*
X51223000Y-122529507D01*
X49952000Y-122529507D01*
X49952000Y-116418548D01*
X66923000Y-116418548D01*
X66923000Y-116581452D01*
X66954782Y-116741227D01*
X67017123Y-116891731D01*
X67107628Y-117027181D01*
X67222819Y-117142372D01*
X67358269Y-117232877D01*
X67508773Y-117295218D01*
X67668548Y-117327000D01*
X67831452Y-117327000D01*
X67991227Y-117295218D01*
X68141731Y-117232877D01*
X68277181Y-117142372D01*
X68392372Y-117027181D01*
X68482877Y-116891731D01*
X68545218Y-116741227D01*
X68577000Y-116581452D01*
X68577000Y-116418548D01*
X68545218Y-116258773D01*
X68482877Y-116108269D01*
X68392372Y-115972819D01*
X68277181Y-115857628D01*
X68141731Y-115767123D01*
X67991227Y-115704782D01*
X67831452Y-115673000D01*
X67668548Y-115673000D01*
X67508773Y-115704782D01*
X67358269Y-115767123D01*
X67222819Y-115857628D01*
X67107628Y-115972819D01*
X67017123Y-116108269D01*
X66954782Y-116258773D01*
X66923000Y-116418548D01*
X49952000Y-116418548D01*
X49952000Y-115379151D01*
X78773000Y-115379151D01*
X78773000Y-115620849D01*
X78820153Y-115857903D01*
X78912647Y-116081202D01*
X79046927Y-116282167D01*
X79217833Y-116453073D01*
X79418798Y-116587353D01*
X79642097Y-116679847D01*
X79879151Y-116727000D01*
X80120849Y-116727000D01*
X80357903Y-116679847D01*
X80581202Y-116587353D01*
X80782167Y-116453073D01*
X80953073Y-116282167D01*
X81087353Y-116081202D01*
X81179847Y-115857903D01*
X81227000Y-115620849D01*
X81227000Y-115379151D01*
X81179847Y-115142097D01*
X81087353Y-114918798D01*
X80953073Y-114717833D01*
X80782167Y-114546927D01*
X80581202Y-114412647D01*
X80357903Y-114320153D01*
X80120849Y-114273000D01*
X79879151Y-114273000D01*
X79642097Y-114320153D01*
X79418798Y-114412647D01*
X79217833Y-114546927D01*
X79046927Y-114717833D01*
X78912647Y-114918798D01*
X78820153Y-115142097D01*
X78773000Y-115379151D01*
X49952000Y-115379151D01*
X49952000Y-106418548D01*
X66173000Y-106418548D01*
X66173000Y-106581452D01*
X66204782Y-106741227D01*
X66267123Y-106891731D01*
X66357628Y-107027181D01*
X66472819Y-107142372D01*
X66608269Y-107232877D01*
X66758773Y-107295218D01*
X66918548Y-107327000D01*
X67046356Y-107327000D01*
X68173000Y-108453646D01*
X68173000Y-108581452D01*
X68204782Y-108741227D01*
X68267123Y-108891731D01*
X68357628Y-109027181D01*
X68472819Y-109142372D01*
X68608269Y-109232877D01*
X68758773Y-109295218D01*
X68918548Y-109327000D01*
X69081452Y-109327000D01*
X69241227Y-109295218D01*
X69391731Y-109232877D01*
X69527181Y-109142372D01*
X69642372Y-109027181D01*
X69732877Y-108891731D01*
X69795218Y-108741227D01*
X69827000Y-108581452D01*
X69827000Y-108418548D01*
X69795218Y-108258773D01*
X69732877Y-108108269D01*
X69642372Y-107972819D01*
X69527181Y-107857628D01*
X69391731Y-107767123D01*
X69241227Y-107704782D01*
X69081452Y-107673000D01*
X68953646Y-107673000D01*
X67827000Y-106546356D01*
X67827000Y-106418548D01*
X67795218Y-106258773D01*
X67732877Y-106108269D01*
X67642372Y-105972819D01*
X67527181Y-105857628D01*
X67391731Y-105767123D01*
X67241227Y-105704782D01*
X67081452Y-105673000D01*
X66918548Y-105673000D01*
X66758773Y-105704782D01*
X66608269Y-105767123D01*
X66472819Y-105857628D01*
X66357628Y-105972819D01*
X66267123Y-106108269D01*
X66204782Y-106258773D01*
X66173000Y-106418548D01*
X49952000Y-106418548D01*
X49952000Y-102668548D01*
X59173000Y-102668548D01*
X59173000Y-102831452D01*
X59204782Y-102991227D01*
X59267123Y-103141731D01*
X59357628Y-103277181D01*
X59472819Y-103392372D01*
X59608269Y-103482877D01*
X59758773Y-103545218D01*
X59918548Y-103577000D01*
X60081452Y-103577000D01*
X60241227Y-103545218D01*
X60391731Y-103482877D01*
X60475357Y-103427000D01*
X60774643Y-103427000D01*
X60858269Y-103482877D01*
X61008773Y-103545218D01*
X61168548Y-103577000D01*
X61331452Y-103577000D01*
X61491227Y-103545218D01*
X61641731Y-103482877D01*
X61725357Y-103427000D01*
X62024643Y-103427000D01*
X62108269Y-103482877D01*
X62258773Y-103545218D01*
X62418548Y-103577000D01*
X62581452Y-103577000D01*
X62741227Y-103545218D01*
X62891731Y-103482877D01*
X62975357Y-103427000D01*
X66524643Y-103427000D01*
X66608269Y-103482877D01*
X66758773Y-103545218D01*
X66857418Y-103564840D01*
X66935160Y-103642582D01*
X66954782Y-103741227D01*
X67017123Y-103891731D01*
X67107628Y-104027181D01*
X67222819Y-104142372D01*
X67358269Y-104232877D01*
X67508773Y-104295218D01*
X67607418Y-104314840D01*
X67685160Y-104392582D01*
X67704782Y-104491227D01*
X67767123Y-104641731D01*
X67857628Y-104777181D01*
X67972819Y-104892372D01*
X68108269Y-104982877D01*
X68258773Y-105045218D01*
X68357417Y-105064840D01*
X68497778Y-105205201D01*
X68518973Y-105231027D01*
X68544799Y-105252222D01*
X68544801Y-105252224D01*
X68622059Y-105315628D01*
X68739670Y-105378492D01*
X68867285Y-105417204D01*
X69000000Y-105430275D01*
X69033252Y-105427000D01*
X70451557Y-105427000D01*
X70438542Y-105432391D01*
X70237577Y-105566671D01*
X70066671Y-105737577D01*
X69932391Y-105938542D01*
X69839897Y-106161841D01*
X69792744Y-106398895D01*
X69792744Y-106640593D01*
X69839897Y-106877647D01*
X69932391Y-107100946D01*
X70066671Y-107301911D01*
X70237577Y-107472817D01*
X70438542Y-107607097D01*
X70661841Y-107699591D01*
X70898895Y-107746744D01*
X71140593Y-107746744D01*
X71377647Y-107699591D01*
X71600946Y-107607097D01*
X71801911Y-107472817D01*
X71972817Y-107301911D01*
X72107097Y-107100946D01*
X72199591Y-106877647D01*
X72246744Y-106640593D01*
X72246744Y-106398895D01*
X72199591Y-106161841D01*
X72107097Y-105938542D01*
X71972817Y-105737577D01*
X71801911Y-105566671D01*
X71600946Y-105432391D01*
X71587931Y-105427000D01*
X79716755Y-105427000D01*
X79750000Y-105430274D01*
X79783245Y-105427000D01*
X79783252Y-105427000D01*
X79882715Y-105417204D01*
X80010330Y-105378492D01*
X80127941Y-105315628D01*
X80231027Y-105231027D01*
X80252226Y-105205196D01*
X84455206Y-101002217D01*
X84481026Y-100981027D01*
X84502218Y-100955205D01*
X84502224Y-100955199D01*
X84565628Y-100877941D01*
X84628492Y-100760330D01*
X84667204Y-100632715D01*
X84680275Y-100500000D01*
X84677000Y-100466748D01*
X84677000Y-97120974D01*
X86532642Y-97120974D01*
X86653783Y-97353000D01*
X88013000Y-97353000D01*
X88013000Y-97333000D01*
X88267000Y-97333000D01*
X88267000Y-97353000D01*
X89626217Y-97353000D01*
X89747358Y-97120974D01*
X89744709Y-97105211D01*
X89643686Y-96829081D01*
X89490733Y-96577965D01*
X89291729Y-96361514D01*
X89054321Y-96188046D01*
X88862184Y-96098840D01*
X89012888Y-96018286D01*
X89209407Y-95857007D01*
X89370686Y-95660488D01*
X89490528Y-95436281D01*
X89564326Y-95193002D01*
X89589244Y-94940000D01*
X89564326Y-94686998D01*
X89490528Y-94443719D01*
X89370686Y-94219512D01*
X89209407Y-94022993D01*
X89012888Y-93861714D01*
X88788681Y-93741872D01*
X88545402Y-93668074D01*
X88355798Y-93649400D01*
X87924202Y-93649400D01*
X87734598Y-93668074D01*
X87491319Y-93741872D01*
X87267112Y-93861714D01*
X87070593Y-94022993D01*
X86909314Y-94219512D01*
X86789472Y-94443719D01*
X86715674Y-94686998D01*
X86690756Y-94940000D01*
X86715674Y-95193002D01*
X86789472Y-95436281D01*
X86909314Y-95660488D01*
X87070593Y-95857007D01*
X87267112Y-96018286D01*
X87417816Y-96098840D01*
X87225679Y-96188046D01*
X86988271Y-96361514D01*
X86789267Y-96577965D01*
X86636314Y-96829081D01*
X86535291Y-97105211D01*
X86532642Y-97120974D01*
X84677000Y-97120974D01*
X84677000Y-94030422D01*
X86030423Y-92677000D01*
X89469578Y-92677000D01*
X91823000Y-95030422D01*
X91823001Y-104216745D01*
X91819726Y-104250000D01*
X91832796Y-104382714D01*
X91871508Y-104510329D01*
X91934372Y-104627940D01*
X91997776Y-104705198D01*
X91997779Y-104705201D01*
X92018974Y-104731027D01*
X92044800Y-104752222D01*
X95731967Y-108439390D01*
X89305933Y-108439390D01*
X89370686Y-108360488D01*
X89490528Y-108136281D01*
X89564326Y-107893002D01*
X89589244Y-107640000D01*
X89564326Y-107386998D01*
X89490528Y-107143719D01*
X89370686Y-106919512D01*
X89209407Y-106722993D01*
X89012888Y-106561714D01*
X88788681Y-106441872D01*
X88551751Y-106370000D01*
X88788681Y-106298128D01*
X89012888Y-106178286D01*
X89209407Y-106017007D01*
X89370686Y-105820488D01*
X89490528Y-105596281D01*
X89564326Y-105353002D01*
X89589244Y-105100000D01*
X89564326Y-104846998D01*
X89490528Y-104603719D01*
X89370686Y-104379512D01*
X89209407Y-104182993D01*
X89012888Y-104021714D01*
X88788681Y-103901872D01*
X88551751Y-103830000D01*
X88788681Y-103758128D01*
X89012888Y-103638286D01*
X89209407Y-103477007D01*
X89370686Y-103280488D01*
X89490528Y-103056281D01*
X89564326Y-102813002D01*
X89589244Y-102560000D01*
X89564326Y-102306998D01*
X89490528Y-102063719D01*
X89370686Y-101839512D01*
X89209407Y-101642993D01*
X89012888Y-101481714D01*
X88788681Y-101361872D01*
X88551751Y-101290000D01*
X88788681Y-101218128D01*
X89012888Y-101098286D01*
X89209407Y-100937007D01*
X89370686Y-100740488D01*
X89490528Y-100516281D01*
X89564326Y-100273002D01*
X89589244Y-100020000D01*
X89564326Y-99766998D01*
X89490528Y-99523719D01*
X89370686Y-99299512D01*
X89209407Y-99102993D01*
X89012888Y-98941714D01*
X88862184Y-98861160D01*
X89054321Y-98771954D01*
X89291729Y-98598486D01*
X89490733Y-98382035D01*
X89643686Y-98130919D01*
X89744709Y-97854789D01*
X89747358Y-97839026D01*
X89626217Y-97607000D01*
X88267000Y-97607000D01*
X88267000Y-97627000D01*
X88013000Y-97627000D01*
X88013000Y-97607000D01*
X86653783Y-97607000D01*
X86532642Y-97839026D01*
X86535291Y-97854789D01*
X86636314Y-98130919D01*
X86789267Y-98382035D01*
X86988271Y-98598486D01*
X87225679Y-98771954D01*
X87417816Y-98861160D01*
X87267112Y-98941714D01*
X87070593Y-99102993D01*
X86909314Y-99299512D01*
X86789472Y-99523719D01*
X86715674Y-99766998D01*
X86690756Y-100020000D01*
X86715674Y-100273002D01*
X86789472Y-100516281D01*
X86909314Y-100740488D01*
X87070593Y-100937007D01*
X87267112Y-101098286D01*
X87491319Y-101218128D01*
X87728249Y-101290000D01*
X87491319Y-101361872D01*
X87267112Y-101481714D01*
X87070593Y-101642993D01*
X86909314Y-101839512D01*
X86789472Y-102063719D01*
X86715674Y-102306998D01*
X86690756Y-102560000D01*
X86715674Y-102813002D01*
X86789472Y-103056281D01*
X86909314Y-103280488D01*
X87070593Y-103477007D01*
X87267112Y-103638286D01*
X87491319Y-103758128D01*
X87728249Y-103830000D01*
X87491319Y-103901872D01*
X87267112Y-104021714D01*
X87070593Y-104182993D01*
X86909314Y-104379512D01*
X86789472Y-104603719D01*
X86715674Y-104846998D01*
X86690756Y-105100000D01*
X86715674Y-105353002D01*
X86789472Y-105596281D01*
X86909314Y-105820488D01*
X87070593Y-106017007D01*
X87267112Y-106178286D01*
X87491319Y-106298128D01*
X87728249Y-106370000D01*
X87491319Y-106441872D01*
X87267112Y-106561714D01*
X87070593Y-106722993D01*
X86909314Y-106919512D01*
X86789472Y-107143719D01*
X86715674Y-107386998D01*
X86690756Y-107640000D01*
X86715674Y-107893002D01*
X86789472Y-108136281D01*
X86909314Y-108360488D01*
X86974067Y-108439390D01*
X75035718Y-108439390D01*
X75008610Y-108436720D01*
X74900399Y-108447378D01*
X74796347Y-108478942D01*
X74700452Y-108530199D01*
X74638000Y-108581452D01*
X74616399Y-108599179D01*
X74599118Y-108620236D01*
X73271356Y-109948000D01*
X64766486Y-109948000D01*
X64770822Y-109933707D01*
X64779066Y-109850000D01*
X64779066Y-108150000D01*
X64770822Y-108066293D01*
X64746405Y-107985804D01*
X64706755Y-107911624D01*
X64653395Y-107846605D01*
X64588376Y-107793245D01*
X64514196Y-107753595D01*
X64433707Y-107729178D01*
X64350000Y-107720934D01*
X62650000Y-107720934D01*
X62566293Y-107729178D01*
X62485804Y-107753595D01*
X62411624Y-107793245D01*
X62346605Y-107846605D01*
X62293245Y-107911624D01*
X62253595Y-107985804D01*
X62229178Y-108066293D01*
X62220934Y-108150000D01*
X62220934Y-109720455D01*
X62108269Y-109767123D01*
X61972819Y-109857628D01*
X61857628Y-109972819D01*
X61767123Y-110108269D01*
X61704782Y-110258773D01*
X61673000Y-110418548D01*
X61673000Y-110581452D01*
X61704782Y-110741227D01*
X61767123Y-110891731D01*
X61857628Y-111027181D01*
X61972819Y-111142372D01*
X62108269Y-111232877D01*
X62220934Y-111279545D01*
X62220934Y-112850000D01*
X62229178Y-112933707D01*
X62253595Y-113014196D01*
X62293245Y-113088376D01*
X62346605Y-113153395D01*
X62411624Y-113206755D01*
X62485804Y-113246405D01*
X62566293Y-113270822D01*
X62650000Y-113279066D01*
X64350000Y-113279066D01*
X64433707Y-113270822D01*
X64514196Y-113246405D01*
X64588376Y-113206755D01*
X64653395Y-113153395D01*
X64706755Y-113088376D01*
X64746405Y-113014196D01*
X64770822Y-112933707D01*
X64779066Y-112850000D01*
X64779066Y-111150000D01*
X64770822Y-111066293D01*
X64766486Y-111052000D01*
X73472894Y-111052000D01*
X73500000Y-111054670D01*
X73527106Y-111052000D01*
X73527109Y-111052000D01*
X73608211Y-111044012D01*
X73712263Y-111012448D01*
X73808158Y-110961191D01*
X73892211Y-110892211D01*
X73909500Y-110871144D01*
X75237256Y-109543390D01*
X86864480Y-109543390D01*
X86789472Y-109683719D01*
X86715674Y-109926998D01*
X86690756Y-110180000D01*
X86715674Y-110433002D01*
X86789472Y-110676281D01*
X86909314Y-110900488D01*
X87070593Y-111097007D01*
X87267112Y-111258286D01*
X87491319Y-111378128D01*
X87728249Y-111450000D01*
X87491319Y-111521872D01*
X87267112Y-111641714D01*
X87070593Y-111802993D01*
X86909314Y-111999512D01*
X86789472Y-112223719D01*
X86715674Y-112466998D01*
X86690756Y-112720000D01*
X86715674Y-112973002D01*
X86789472Y-113216281D01*
X86909314Y-113440488D01*
X87070593Y-113637007D01*
X87267112Y-113798286D01*
X87417816Y-113878840D01*
X87225679Y-113968046D01*
X86988271Y-114141514D01*
X86789267Y-114357965D01*
X86636314Y-114609081D01*
X86535291Y-114885211D01*
X86532642Y-114900974D01*
X86653783Y-115133000D01*
X88013000Y-115133000D01*
X88013000Y-115113000D01*
X88267000Y-115113000D01*
X88267000Y-115133000D01*
X89626217Y-115133000D01*
X89747358Y-114900974D01*
X89744709Y-114885211D01*
X89643686Y-114609081D01*
X89490733Y-114357965D01*
X89291729Y-114141514D01*
X89054321Y-113968046D01*
X88862184Y-113878840D01*
X89012888Y-113798286D01*
X89209407Y-113637007D01*
X89370686Y-113440488D01*
X89490528Y-113216281D01*
X89564326Y-112973002D01*
X89589244Y-112720000D01*
X89564326Y-112466998D01*
X89490528Y-112223719D01*
X89370686Y-111999512D01*
X89209407Y-111802993D01*
X89012888Y-111641714D01*
X88788681Y-111521872D01*
X88551751Y-111450000D01*
X88788681Y-111378128D01*
X89012888Y-111258286D01*
X89209407Y-111097007D01*
X89370686Y-110900488D01*
X89490528Y-110676281D01*
X89564326Y-110433002D01*
X89589244Y-110180000D01*
X89564326Y-109926998D01*
X89490528Y-109683719D01*
X89415520Y-109543390D01*
X100981504Y-109543390D01*
X101008610Y-109546060D01*
X101035716Y-109543390D01*
X101035719Y-109543390D01*
X101116821Y-109535402D01*
X101220873Y-109503838D01*
X101316768Y-109452581D01*
X101400821Y-109383601D01*
X101418110Y-109362534D01*
X101453644Y-109327000D01*
X101581452Y-109327000D01*
X101741227Y-109295218D01*
X101891731Y-109232877D01*
X102027181Y-109142372D01*
X102142372Y-109027181D01*
X102232877Y-108891731D01*
X102295218Y-108741227D01*
X102327000Y-108581452D01*
X102327000Y-108418548D01*
X102295218Y-108258773D01*
X102232877Y-108108269D01*
X102159883Y-107999026D01*
X109392642Y-107999026D01*
X109395291Y-108014789D01*
X109496314Y-108290919D01*
X109649267Y-108542035D01*
X109848271Y-108758486D01*
X110085679Y-108931954D01*
X110277816Y-109021160D01*
X110127112Y-109101714D01*
X109930593Y-109262993D01*
X109769314Y-109459512D01*
X109649472Y-109683719D01*
X109575674Y-109926998D01*
X109550756Y-110180000D01*
X109575674Y-110433002D01*
X109649472Y-110676281D01*
X109769314Y-110900488D01*
X109930593Y-111097007D01*
X110127112Y-111258286D01*
X110351319Y-111378128D01*
X110588249Y-111450000D01*
X110351319Y-111521872D01*
X110127112Y-111641714D01*
X109930593Y-111802993D01*
X109769314Y-111999512D01*
X109649472Y-112223719D01*
X109575674Y-112466998D01*
X109550756Y-112720000D01*
X109575674Y-112973002D01*
X109649472Y-113216281D01*
X109769314Y-113440488D01*
X109930593Y-113637007D01*
X110127112Y-113798286D01*
X110351319Y-113918128D01*
X110588249Y-113990000D01*
X110351319Y-114061872D01*
X110127112Y-114181714D01*
X109930593Y-114342993D01*
X109769314Y-114539512D01*
X109649472Y-114763719D01*
X109575674Y-115006998D01*
X109550756Y-115260000D01*
X109575674Y-115513002D01*
X109649472Y-115756281D01*
X109769314Y-115980488D01*
X109930593Y-116177007D01*
X110127112Y-116338286D01*
X110351319Y-116458128D01*
X110588249Y-116530000D01*
X110351319Y-116601872D01*
X110127112Y-116721714D01*
X109930593Y-116882993D01*
X109769314Y-117079512D01*
X109649472Y-117303719D01*
X109575674Y-117546998D01*
X109550756Y-117800000D01*
X109575674Y-118053002D01*
X109649472Y-118296281D01*
X109769314Y-118520488D01*
X109930593Y-118717007D01*
X110127112Y-118878286D01*
X110351319Y-118998128D01*
X110588249Y-119070000D01*
X110351319Y-119141872D01*
X110127112Y-119261714D01*
X109930593Y-119422993D01*
X109769314Y-119619512D01*
X109649472Y-119843719D01*
X109575674Y-120086998D01*
X109550756Y-120340000D01*
X109575674Y-120593002D01*
X109649472Y-120836281D01*
X109769314Y-121060488D01*
X109930593Y-121257007D01*
X110127112Y-121418286D01*
X110351319Y-121538128D01*
X110588249Y-121610000D01*
X110351319Y-121681872D01*
X110127112Y-121801714D01*
X109930593Y-121962993D01*
X109769314Y-122159512D01*
X109649472Y-122383719D01*
X109575674Y-122626998D01*
X109550756Y-122880000D01*
X109575674Y-123133002D01*
X109649472Y-123376281D01*
X109769314Y-123600488D01*
X109930593Y-123797007D01*
X110127112Y-123958286D01*
X110351319Y-124078128D01*
X110588249Y-124150000D01*
X110351319Y-124221872D01*
X110127112Y-124341714D01*
X109930593Y-124502993D01*
X109769314Y-124699512D01*
X109649472Y-124923719D01*
X109575674Y-125166998D01*
X109550756Y-125420000D01*
X109575674Y-125673002D01*
X109649472Y-125916281D01*
X109769314Y-126140488D01*
X109930593Y-126337007D01*
X110127112Y-126498286D01*
X110351319Y-126618128D01*
X110588249Y-126690000D01*
X110351319Y-126761872D01*
X110127112Y-126881714D01*
X109930593Y-127042993D01*
X109769314Y-127239512D01*
X109649472Y-127463719D01*
X109575674Y-127706998D01*
X109550756Y-127960000D01*
X109575674Y-128213002D01*
X109649472Y-128456281D01*
X109769314Y-128680488D01*
X109930593Y-128877007D01*
X110127112Y-129038286D01*
X110351319Y-129158128D01*
X110588249Y-129230000D01*
X110351319Y-129301872D01*
X110127112Y-129421714D01*
X109930593Y-129582993D01*
X109769314Y-129779512D01*
X109649472Y-130003719D01*
X109575674Y-130246998D01*
X109550756Y-130500000D01*
X109575674Y-130753002D01*
X109649472Y-130996281D01*
X109769314Y-131220488D01*
X109930593Y-131417007D01*
X110127112Y-131578286D01*
X110351319Y-131698128D01*
X110594598Y-131771926D01*
X110784202Y-131790600D01*
X111215798Y-131790600D01*
X111405402Y-131771926D01*
X111648681Y-131698128D01*
X111872888Y-131578286D01*
X112069407Y-131417007D01*
X112230686Y-131220488D01*
X112350528Y-130996281D01*
X112424326Y-130753002D01*
X112449244Y-130500000D01*
X112424326Y-130246998D01*
X112350528Y-130003719D01*
X112230686Y-129779512D01*
X112069407Y-129582993D01*
X111872888Y-129421714D01*
X111648681Y-129301872D01*
X111411751Y-129230000D01*
X111648681Y-129158128D01*
X111872888Y-129038286D01*
X112069407Y-128877007D01*
X112230686Y-128680488D01*
X112350528Y-128456281D01*
X112424326Y-128213002D01*
X112449244Y-127960000D01*
X112424326Y-127706998D01*
X112350528Y-127463719D01*
X112230686Y-127239512D01*
X112069407Y-127042993D01*
X111872888Y-126881714D01*
X111648681Y-126761872D01*
X111411751Y-126690000D01*
X111648681Y-126618128D01*
X111872888Y-126498286D01*
X112069407Y-126337007D01*
X112230686Y-126140488D01*
X112350528Y-125916281D01*
X112424326Y-125673002D01*
X112449244Y-125420000D01*
X112424326Y-125166998D01*
X112350528Y-124923719D01*
X112230686Y-124699512D01*
X112069407Y-124502993D01*
X111872888Y-124341714D01*
X111648681Y-124221872D01*
X111411751Y-124150000D01*
X111648681Y-124078128D01*
X111872888Y-123958286D01*
X112069407Y-123797007D01*
X112230686Y-123600488D01*
X112350528Y-123376281D01*
X112424326Y-123133002D01*
X112449244Y-122880000D01*
X112424326Y-122626998D01*
X112350528Y-122383719D01*
X112230686Y-122159512D01*
X112069407Y-121962993D01*
X111872888Y-121801714D01*
X111648681Y-121681872D01*
X111411751Y-121610000D01*
X111648681Y-121538128D01*
X111872888Y-121418286D01*
X112069407Y-121257007D01*
X112230686Y-121060488D01*
X112350528Y-120836281D01*
X112424326Y-120593002D01*
X112449244Y-120340000D01*
X112424326Y-120086998D01*
X112350528Y-119843719D01*
X112230686Y-119619512D01*
X112069407Y-119422993D01*
X111872888Y-119261714D01*
X111648681Y-119141872D01*
X111411751Y-119070000D01*
X111648681Y-118998128D01*
X111872888Y-118878286D01*
X112069407Y-118717007D01*
X112230686Y-118520488D01*
X112350528Y-118296281D01*
X112424326Y-118053002D01*
X112449244Y-117800000D01*
X112424326Y-117546998D01*
X112350528Y-117303719D01*
X112230686Y-117079512D01*
X112069407Y-116882993D01*
X111872888Y-116721714D01*
X111648681Y-116601872D01*
X111411751Y-116530000D01*
X111648681Y-116458128D01*
X111872888Y-116338286D01*
X112069407Y-116177007D01*
X112230686Y-115980488D01*
X112350528Y-115756281D01*
X112424326Y-115513002D01*
X112449244Y-115260000D01*
X112424326Y-115006998D01*
X112350528Y-114763719D01*
X112230686Y-114539512D01*
X112069407Y-114342993D01*
X111872888Y-114181714D01*
X111648681Y-114061872D01*
X111411751Y-113990000D01*
X111648681Y-113918128D01*
X111872888Y-113798286D01*
X112069407Y-113637007D01*
X112230686Y-113440488D01*
X112350528Y-113216281D01*
X112424326Y-112973002D01*
X112449244Y-112720000D01*
X112424326Y-112466998D01*
X112350528Y-112223719D01*
X112230686Y-111999512D01*
X112069407Y-111802993D01*
X111872888Y-111641714D01*
X111648681Y-111521872D01*
X111411751Y-111450000D01*
X111648681Y-111378128D01*
X111872888Y-111258286D01*
X112069407Y-111097007D01*
X112230686Y-110900488D01*
X112350528Y-110676281D01*
X112424326Y-110433002D01*
X112449244Y-110180000D01*
X112424326Y-109926998D01*
X112350528Y-109683719D01*
X112230686Y-109459512D01*
X112069407Y-109262993D01*
X111872888Y-109101714D01*
X111722184Y-109021160D01*
X111914321Y-108931954D01*
X112151729Y-108758486D01*
X112350733Y-108542035D01*
X112503686Y-108290919D01*
X112604709Y-108014789D01*
X112607358Y-107999026D01*
X112486217Y-107767000D01*
X111127000Y-107767000D01*
X111127000Y-107787000D01*
X110873000Y-107787000D01*
X110873000Y-107767000D01*
X109513783Y-107767000D01*
X109392642Y-107999026D01*
X102159883Y-107999026D01*
X102142372Y-107972819D01*
X102027181Y-107857628D01*
X101891731Y-107767123D01*
X101741227Y-107704782D01*
X101581452Y-107673000D01*
X101418548Y-107673000D01*
X101258773Y-107704782D01*
X101108269Y-107767123D01*
X100972819Y-107857628D01*
X100857628Y-107972819D01*
X100767123Y-108108269D01*
X100704782Y-108258773D01*
X100673000Y-108418548D01*
X100673000Y-108439390D01*
X97701032Y-108439390D01*
X97732877Y-108391731D01*
X97795218Y-108241227D01*
X97827000Y-108081452D01*
X97827000Y-107918548D01*
X97795218Y-107758773D01*
X97732877Y-107608269D01*
X97642372Y-107472819D01*
X97527181Y-107357628D01*
X97391731Y-107267123D01*
X97241227Y-107204782D01*
X97081452Y-107173000D01*
X96918548Y-107173000D01*
X96758773Y-107204782D01*
X96608269Y-107267123D01*
X96528108Y-107320685D01*
X93177000Y-103969578D01*
X93177000Y-97839026D01*
X109392642Y-97839026D01*
X109395291Y-97854789D01*
X109496314Y-98130919D01*
X109649267Y-98382035D01*
X109848271Y-98598486D01*
X110085679Y-98771954D01*
X110277816Y-98861160D01*
X110127112Y-98941714D01*
X109930593Y-99102993D01*
X109769314Y-99299512D01*
X109649472Y-99523719D01*
X109575674Y-99766998D01*
X109550756Y-100020000D01*
X109575674Y-100273002D01*
X109649472Y-100516281D01*
X109769314Y-100740488D01*
X109930593Y-100937007D01*
X110127112Y-101098286D01*
X110351319Y-101218128D01*
X110588249Y-101290000D01*
X110351319Y-101361872D01*
X110127112Y-101481714D01*
X109930593Y-101642993D01*
X109769314Y-101839512D01*
X109649472Y-102063719D01*
X109575674Y-102306998D01*
X109550756Y-102560000D01*
X109575674Y-102813002D01*
X109649472Y-103056281D01*
X109769314Y-103280488D01*
X109930593Y-103477007D01*
X110127112Y-103638286D01*
X110351319Y-103758128D01*
X110588249Y-103830000D01*
X110351319Y-103901872D01*
X110127112Y-104021714D01*
X109930593Y-104182993D01*
X109769314Y-104379512D01*
X109649472Y-104603719D01*
X109575674Y-104846998D01*
X109550756Y-105100000D01*
X109575674Y-105353002D01*
X109649472Y-105596281D01*
X109769314Y-105820488D01*
X109930593Y-106017007D01*
X110127112Y-106178286D01*
X110277816Y-106258840D01*
X110085679Y-106348046D01*
X109848271Y-106521514D01*
X109649267Y-106737965D01*
X109496314Y-106989081D01*
X109395291Y-107265211D01*
X109392642Y-107280974D01*
X109513783Y-107513000D01*
X110873000Y-107513000D01*
X110873000Y-107493000D01*
X111127000Y-107493000D01*
X111127000Y-107513000D01*
X112486217Y-107513000D01*
X112607358Y-107280974D01*
X112604709Y-107265211D01*
X112503686Y-106989081D01*
X112350733Y-106737965D01*
X112151729Y-106521514D01*
X111914321Y-106348046D01*
X111722184Y-106258840D01*
X111872888Y-106178286D01*
X112069407Y-106017007D01*
X112230686Y-105820488D01*
X112350528Y-105596281D01*
X112424326Y-105353002D01*
X112449244Y-105100000D01*
X112424326Y-104846998D01*
X112350528Y-104603719D01*
X112230686Y-104379512D01*
X112069407Y-104182993D01*
X111872888Y-104021714D01*
X111648681Y-103901872D01*
X111411751Y-103830000D01*
X111648681Y-103758128D01*
X111872888Y-103638286D01*
X112069407Y-103477007D01*
X112230686Y-103280488D01*
X112350528Y-103056281D01*
X112424326Y-102813002D01*
X112449244Y-102560000D01*
X112424326Y-102306998D01*
X112350528Y-102063719D01*
X112230686Y-101839512D01*
X112069407Y-101642993D01*
X111872888Y-101481714D01*
X111648681Y-101361872D01*
X111411751Y-101290000D01*
X111648681Y-101218128D01*
X111872888Y-101098286D01*
X112069407Y-100937007D01*
X112230686Y-100740488D01*
X112350528Y-100516281D01*
X112424326Y-100273002D01*
X112449244Y-100020000D01*
X112424326Y-99766998D01*
X112350528Y-99523719D01*
X112230686Y-99299512D01*
X112069407Y-99102993D01*
X111872888Y-98941714D01*
X111722184Y-98861160D01*
X111914321Y-98771954D01*
X112151729Y-98598486D01*
X112350733Y-98382035D01*
X112503686Y-98130919D01*
X112604709Y-97854789D01*
X112607358Y-97839026D01*
X112486217Y-97607000D01*
X111127000Y-97607000D01*
X111127000Y-97627000D01*
X110873000Y-97627000D01*
X110873000Y-97607000D01*
X109513783Y-97607000D01*
X109392642Y-97839026D01*
X93177000Y-97839026D01*
X93177000Y-97120974D01*
X109392642Y-97120974D01*
X109513783Y-97353000D01*
X110873000Y-97353000D01*
X110873000Y-97333000D01*
X111127000Y-97333000D01*
X111127000Y-97353000D01*
X112486217Y-97353000D01*
X112607358Y-97120974D01*
X112604709Y-97105211D01*
X112503686Y-96829081D01*
X112350733Y-96577965D01*
X112151729Y-96361514D01*
X111914321Y-96188046D01*
X111722184Y-96098840D01*
X111872888Y-96018286D01*
X112069407Y-95857007D01*
X112230686Y-95660488D01*
X112350528Y-95436281D01*
X112424326Y-95193002D01*
X112449244Y-94940000D01*
X112424326Y-94686998D01*
X112350528Y-94443719D01*
X112230686Y-94219512D01*
X112069407Y-94022993D01*
X111872888Y-93861714D01*
X111648681Y-93741872D01*
X111405402Y-93668074D01*
X111215798Y-93649400D01*
X110784202Y-93649400D01*
X110594598Y-93668074D01*
X110351319Y-93741872D01*
X110127112Y-93861714D01*
X109930593Y-94022993D01*
X109769314Y-94219512D01*
X109649472Y-94443719D01*
X109575674Y-94686998D01*
X109550756Y-94940000D01*
X109575674Y-95193002D01*
X109649472Y-95436281D01*
X109769314Y-95660488D01*
X109930593Y-95857007D01*
X110127112Y-96018286D01*
X110277816Y-96098840D01*
X110085679Y-96188046D01*
X109848271Y-96361514D01*
X109649267Y-96577965D01*
X109496314Y-96829081D01*
X109395291Y-97105211D01*
X109392642Y-97120974D01*
X93177000Y-97120974D01*
X93177000Y-94783241D01*
X93180274Y-94749999D01*
X93177000Y-94716757D01*
X93177000Y-94716748D01*
X93167204Y-94617285D01*
X93128492Y-94489670D01*
X93065628Y-94372059D01*
X92981026Y-94268973D01*
X92955200Y-94247778D01*
X90252226Y-91544804D01*
X90231027Y-91518973D01*
X90127941Y-91434372D01*
X90010330Y-91371508D01*
X89882715Y-91332796D01*
X89783252Y-91323000D01*
X89783245Y-91323000D01*
X89750000Y-91319726D01*
X89716755Y-91323000D01*
X85783252Y-91323000D01*
X85750000Y-91319725D01*
X85716748Y-91323000D01*
X85617285Y-91332796D01*
X85489670Y-91371508D01*
X85372059Y-91434372D01*
X85268973Y-91518973D01*
X85247778Y-91544799D01*
X83544800Y-93247778D01*
X83518974Y-93268973D01*
X83497779Y-93294799D01*
X83497776Y-93294802D01*
X83434372Y-93372060D01*
X83371508Y-93489671D01*
X83332796Y-93617286D01*
X83319726Y-93750000D01*
X83323001Y-93783255D01*
X83323000Y-100219577D01*
X79469578Y-104073000D01*
X69307994Y-104073000D01*
X69295218Y-104008773D01*
X69232877Y-103858269D01*
X69142372Y-103722819D01*
X69027181Y-103607628D01*
X68891731Y-103517123D01*
X68741227Y-103454782D01*
X68642582Y-103435160D01*
X68564840Y-103357418D01*
X68545218Y-103258773D01*
X68482877Y-103108269D01*
X68392372Y-102972819D01*
X68277181Y-102857628D01*
X68141731Y-102767123D01*
X67991227Y-102704782D01*
X67892582Y-102685160D01*
X67814840Y-102607418D01*
X67795218Y-102508773D01*
X67732877Y-102358269D01*
X67642372Y-102222819D01*
X67527181Y-102107628D01*
X67391731Y-102017123D01*
X67241227Y-101954782D01*
X67081452Y-101923000D01*
X66918548Y-101923000D01*
X66758773Y-101954782D01*
X66608269Y-102017123D01*
X66524643Y-102073000D01*
X62975357Y-102073000D01*
X62891731Y-102017123D01*
X62741227Y-101954782D01*
X62581452Y-101923000D01*
X62418548Y-101923000D01*
X62258773Y-101954782D01*
X62108269Y-102017123D01*
X62024643Y-102073000D01*
X61725357Y-102073000D01*
X61641731Y-102017123D01*
X61491227Y-101954782D01*
X61331452Y-101923000D01*
X61168548Y-101923000D01*
X61008773Y-101954782D01*
X60858269Y-102017123D01*
X60774643Y-102073000D01*
X60475357Y-102073000D01*
X60391731Y-102017123D01*
X60241227Y-101954782D01*
X60081452Y-101923000D01*
X59918548Y-101923000D01*
X59758773Y-101954782D01*
X59608269Y-102017123D01*
X59472819Y-102107628D01*
X59357628Y-102222819D01*
X59267123Y-102358269D01*
X59204782Y-102508773D01*
X59173000Y-102668548D01*
X49952000Y-102668548D01*
X49952000Y-99168548D01*
X60423000Y-99168548D01*
X60423000Y-99331452D01*
X60454782Y-99491227D01*
X60517123Y-99641731D01*
X60607628Y-99777181D01*
X60722819Y-99892372D01*
X60858269Y-99982877D01*
X61008773Y-100045218D01*
X61168548Y-100077000D01*
X61331452Y-100077000D01*
X61491227Y-100045218D01*
X61641731Y-99982877D01*
X61777181Y-99892372D01*
X61819103Y-99850450D01*
X70223000Y-99850450D01*
X70237860Y-100001326D01*
X70296585Y-100194916D01*
X70391949Y-100373331D01*
X70520288Y-100529712D01*
X70676669Y-100658051D01*
X70855083Y-100753415D01*
X71048673Y-100812140D01*
X71250000Y-100831969D01*
X71451326Y-100812140D01*
X71644916Y-100753415D01*
X71823331Y-100658051D01*
X71979712Y-100529712D01*
X72108051Y-100373331D01*
X72203415Y-100194917D01*
X72262140Y-100001327D01*
X72267195Y-99950000D01*
X74520934Y-99950000D01*
X74520934Y-102050000D01*
X74529178Y-102133707D01*
X74553595Y-102214196D01*
X74593245Y-102288376D01*
X74646605Y-102353395D01*
X74711624Y-102406755D01*
X74785804Y-102446405D01*
X74866293Y-102470822D01*
X74950000Y-102479066D01*
X77050000Y-102479066D01*
X77133707Y-102470822D01*
X77214196Y-102446405D01*
X77288376Y-102406755D01*
X77353395Y-102353395D01*
X77406755Y-102288376D01*
X77446405Y-102214196D01*
X77470822Y-102133707D01*
X77479066Y-102050000D01*
X77479066Y-99950000D01*
X77470822Y-99866293D01*
X77466016Y-99850450D01*
X79723000Y-99850450D01*
X79737860Y-100001326D01*
X79796585Y-100194916D01*
X79891949Y-100373331D01*
X80020288Y-100529712D01*
X80176669Y-100658051D01*
X80355083Y-100753415D01*
X80548673Y-100812140D01*
X80750000Y-100831969D01*
X80951326Y-100812140D01*
X81144916Y-100753415D01*
X81323331Y-100658051D01*
X81479712Y-100529712D01*
X81608051Y-100373331D01*
X81703415Y-100194917D01*
X81762140Y-100001327D01*
X81777000Y-99850451D01*
X81777000Y-98549549D01*
X81762140Y-98398673D01*
X81703415Y-98205083D01*
X81608051Y-98026669D01*
X81479712Y-97870288D01*
X81323331Y-97741949D01*
X81144917Y-97646585D01*
X80951327Y-97587860D01*
X80750000Y-97568031D01*
X80548674Y-97587860D01*
X80355084Y-97646585D01*
X80176670Y-97741949D01*
X80020289Y-97870288D01*
X79891950Y-98026669D01*
X79796586Y-98205083D01*
X79737861Y-98398673D01*
X79723001Y-98549549D01*
X79723000Y-99850450D01*
X77466016Y-99850450D01*
X77446405Y-99785804D01*
X77406755Y-99711624D01*
X77353395Y-99646605D01*
X77288376Y-99593245D01*
X77214196Y-99553595D01*
X77133707Y-99529178D01*
X77050000Y-99520934D01*
X74950000Y-99520934D01*
X74866293Y-99529178D01*
X74785804Y-99553595D01*
X74711624Y-99593245D01*
X74646605Y-99646605D01*
X74593245Y-99711624D01*
X74553595Y-99785804D01*
X74529178Y-99866293D01*
X74520934Y-99950000D01*
X72267195Y-99950000D01*
X72277000Y-99850451D01*
X72277000Y-98549549D01*
X72262140Y-98398673D01*
X72203415Y-98205083D01*
X72108051Y-98026669D01*
X71979712Y-97870288D01*
X71823331Y-97741949D01*
X71644917Y-97646585D01*
X71451327Y-97587860D01*
X71250000Y-97568031D01*
X71048674Y-97587860D01*
X70855084Y-97646585D01*
X70676670Y-97741949D01*
X70520289Y-97870288D01*
X70391950Y-98026669D01*
X70296586Y-98205083D01*
X70237861Y-98398673D01*
X70223001Y-98549549D01*
X70223000Y-99850450D01*
X61819103Y-99850450D01*
X61892372Y-99777181D01*
X61982877Y-99641731D01*
X62045218Y-99491227D01*
X62077000Y-99331452D01*
X62077000Y-99168548D01*
X62045218Y-99008773D01*
X61982877Y-98858269D01*
X61892372Y-98722819D01*
X61802000Y-98632447D01*
X61802000Y-97842224D01*
X61878333Y-97791220D01*
X61993524Y-97676029D01*
X62084029Y-97540579D01*
X62146370Y-97390075D01*
X62178152Y-97230300D01*
X62178152Y-97067396D01*
X62146370Y-96907621D01*
X62084029Y-96757117D01*
X61993524Y-96621667D01*
X61878333Y-96506476D01*
X61742883Y-96415971D01*
X61592379Y-96353630D01*
X61432604Y-96321848D01*
X61269700Y-96321848D01*
X61109925Y-96353630D01*
X60959421Y-96415971D01*
X60823971Y-96506476D01*
X60708780Y-96621667D01*
X60618275Y-96757117D01*
X60555934Y-96907621D01*
X60524152Y-97067396D01*
X60524152Y-97230300D01*
X60555934Y-97390075D01*
X60618275Y-97540579D01*
X60698001Y-97659897D01*
X60698000Y-98632447D01*
X60607628Y-98722819D01*
X60517123Y-98858269D01*
X60454782Y-99008773D01*
X60423000Y-99168548D01*
X49952000Y-99168548D01*
X49952000Y-95150450D01*
X70223000Y-95150450D01*
X70237860Y-95301326D01*
X70296585Y-95494916D01*
X70391949Y-95673331D01*
X70520288Y-95829712D01*
X70676669Y-95958051D01*
X70855083Y-96053415D01*
X71048673Y-96112140D01*
X71250000Y-96131969D01*
X71451326Y-96112140D01*
X71644916Y-96053415D01*
X71823331Y-95958051D01*
X71979712Y-95829712D01*
X72108051Y-95673331D01*
X72203415Y-95494917D01*
X72245285Y-95356890D01*
X73708524Y-95356890D01*
X73729437Y-95450953D01*
X73844709Y-95719426D01*
X74010143Y-95960252D01*
X74219381Y-96164176D01*
X74464382Y-96323361D01*
X74735731Y-96431690D01*
X75023000Y-96485000D01*
X75873000Y-96485000D01*
X75873000Y-95127000D01*
X76127000Y-95127000D01*
X76127000Y-96485000D01*
X76977000Y-96485000D01*
X77264269Y-96431690D01*
X77535618Y-96323361D01*
X77780619Y-96164176D01*
X77989857Y-95960252D01*
X78155291Y-95719426D01*
X78270563Y-95450953D01*
X78291476Y-95356890D01*
X78182531Y-95150450D01*
X79723000Y-95150450D01*
X79737860Y-95301326D01*
X79796585Y-95494916D01*
X79891949Y-95673331D01*
X80020288Y-95829712D01*
X80176669Y-95958051D01*
X80355083Y-96053415D01*
X80548673Y-96112140D01*
X80750000Y-96131969D01*
X80951326Y-96112140D01*
X81144916Y-96053415D01*
X81323331Y-95958051D01*
X81479712Y-95829712D01*
X81608051Y-95673331D01*
X81703415Y-95494917D01*
X81762140Y-95301327D01*
X81777000Y-95150451D01*
X81777000Y-93849549D01*
X81762140Y-93698673D01*
X81703415Y-93505083D01*
X81608051Y-93326669D01*
X81479712Y-93170288D01*
X81323331Y-93041949D01*
X81144917Y-92946585D01*
X80951327Y-92887860D01*
X80750000Y-92868031D01*
X80548674Y-92887860D01*
X80355084Y-92946585D01*
X80176670Y-93041949D01*
X80020289Y-93170288D01*
X79891950Y-93326669D01*
X79796586Y-93505083D01*
X79737861Y-93698673D01*
X79723001Y-93849549D01*
X79723000Y-95150450D01*
X78182531Y-95150450D01*
X78170155Y-95127000D01*
X76127000Y-95127000D01*
X75873000Y-95127000D01*
X73829845Y-95127000D01*
X73708524Y-95356890D01*
X72245285Y-95356890D01*
X72262140Y-95301327D01*
X72277000Y-95150451D01*
X72277000Y-94643110D01*
X73708524Y-94643110D01*
X73829845Y-94873000D01*
X75873000Y-94873000D01*
X75873000Y-93515000D01*
X76127000Y-93515000D01*
X76127000Y-94873000D01*
X78170155Y-94873000D01*
X78291476Y-94643110D01*
X78270563Y-94549047D01*
X78155291Y-94280574D01*
X77989857Y-94039748D01*
X77780619Y-93835824D01*
X77535618Y-93676639D01*
X77264269Y-93568310D01*
X76977000Y-93515000D01*
X76127000Y-93515000D01*
X75873000Y-93515000D01*
X75023000Y-93515000D01*
X74735731Y-93568310D01*
X74464382Y-93676639D01*
X74219381Y-93835824D01*
X74010143Y-94039748D01*
X73844709Y-94280574D01*
X73729437Y-94549047D01*
X73708524Y-94643110D01*
X72277000Y-94643110D01*
X72277000Y-93849549D01*
X72262140Y-93698673D01*
X72203415Y-93505083D01*
X72108051Y-93326669D01*
X71979712Y-93170288D01*
X71823331Y-93041949D01*
X71644917Y-92946585D01*
X71451327Y-92887860D01*
X71250000Y-92868031D01*
X71048674Y-92887860D01*
X70855084Y-92946585D01*
X70676670Y-93041949D01*
X70520289Y-93170288D01*
X70391950Y-93326669D01*
X70296586Y-93505083D01*
X70237861Y-93698673D01*
X70223001Y-93849549D01*
X70223000Y-95150450D01*
X49952000Y-95150450D01*
X49952000Y-92022109D01*
X49990530Y-91629151D01*
X74773000Y-91629151D01*
X74773000Y-91870849D01*
X74820153Y-92107903D01*
X74912647Y-92331202D01*
X75046927Y-92532167D01*
X75217833Y-92703073D01*
X75418798Y-92837353D01*
X75642097Y-92929847D01*
X75879151Y-92977000D01*
X76120849Y-92977000D01*
X76357903Y-92929847D01*
X76581202Y-92837353D01*
X76782167Y-92703073D01*
X76953073Y-92532167D01*
X77087353Y-92331202D01*
X77179847Y-92107903D01*
X77227000Y-91870849D01*
X77227000Y-91629151D01*
X77179847Y-91392097D01*
X77087353Y-91168798D01*
X76953073Y-90967833D01*
X76782167Y-90796927D01*
X76581202Y-90662647D01*
X76357903Y-90570153D01*
X76120849Y-90523000D01*
X75879151Y-90523000D01*
X75642097Y-90570153D01*
X75418798Y-90662647D01*
X75217833Y-90796927D01*
X75046927Y-90967833D01*
X74912647Y-91168798D01*
X74820153Y-91392097D01*
X74773000Y-91629151D01*
X49990530Y-91629151D01*
X50002654Y-91505508D01*
X50146259Y-91029863D01*
X50379522Y-90591157D01*
X50693551Y-90206120D01*
X51076390Y-89889408D01*
X51513447Y-89653093D01*
X51988091Y-89506165D01*
X52503439Y-89452000D01*
X110477891Y-89452000D01*
X110994492Y-89502654D01*
M02*
