G04 #@! TF.GenerationSoftware,KiCad,Pcbnew,5.1.6-c6e7f7d~86~ubuntu18.04.1*
G04 #@! TF.CreationDate,2020-05-28T19:09:28+01:00*
G04 #@! TF.ProjectId,polariser_drive,706f6c61-7269-4736-9572-5f6472697665,rev?*
G04 #@! TF.SameCoordinates,Original*
G04 #@! TF.FileFunction,Soldermask,Top*
G04 #@! TF.FilePolarity,Negative*
%FSLAX46Y46*%
G04 Gerber Fmt 4.6, Leading zero omitted, Abs format (unit mm)*
G04 Created by KiCad (PCBNEW 5.1.6-c6e7f7d~86~ubuntu18.04.1) date 2020-05-28 19:09:28*
%MOMM*%
%LPD*%
G01*
G04 APERTURE LIST*
%ADD10C,0.100000*%
G04 APERTURE END LIST*
D10*
G36*
X110716703Y-133211486D02*
G01*
X111007883Y-133332097D01*
X111269940Y-133507198D01*
X111492802Y-133730060D01*
X111667903Y-133992117D01*
X111788514Y-134283297D01*
X111850000Y-134592412D01*
X111850000Y-134907588D01*
X111788514Y-135216703D01*
X111667903Y-135507883D01*
X111492802Y-135769940D01*
X111269940Y-135992802D01*
X111007883Y-136167903D01*
X110716703Y-136288514D01*
X110407588Y-136350000D01*
X110092412Y-136350000D01*
X109783297Y-136288514D01*
X109492117Y-136167903D01*
X109230060Y-135992802D01*
X109007198Y-135769940D01*
X108832097Y-135507883D01*
X108711486Y-135216703D01*
X108650000Y-134907588D01*
X108650000Y-134592412D01*
X108711486Y-134283297D01*
X108832097Y-133992117D01*
X109007198Y-133730060D01*
X109230060Y-133507198D01*
X109492117Y-133332097D01*
X109783297Y-133211486D01*
X110092412Y-133150000D01*
X110407588Y-133150000D01*
X110716703Y-133211486D01*
G37*
G36*
X89466703Y-133211486D02*
G01*
X89757883Y-133332097D01*
X90019940Y-133507198D01*
X90242802Y-133730060D01*
X90417903Y-133992117D01*
X90538514Y-134283297D01*
X90600000Y-134592412D01*
X90600000Y-134907588D01*
X90538514Y-135216703D01*
X90417903Y-135507883D01*
X90242802Y-135769940D01*
X90019940Y-135992802D01*
X89757883Y-136167903D01*
X89466703Y-136288514D01*
X89157588Y-136350000D01*
X88842412Y-136350000D01*
X88533297Y-136288514D01*
X88242117Y-136167903D01*
X87980060Y-135992802D01*
X87757198Y-135769940D01*
X87582097Y-135507883D01*
X87461486Y-135216703D01*
X87400000Y-134907588D01*
X87400000Y-134592412D01*
X87461486Y-134283297D01*
X87582097Y-133992117D01*
X87757198Y-133730060D01*
X87980060Y-133507198D01*
X88242117Y-133332097D01*
X88533297Y-133211486D01*
X88842412Y-133150000D01*
X89157588Y-133150000D01*
X89466703Y-133211486D01*
G37*
G36*
X88471694Y-129598633D02*
G01*
X88644095Y-129650931D01*
X88802983Y-129735858D01*
X88942249Y-129850151D01*
X89056542Y-129989417D01*
X89141469Y-130148305D01*
X89193767Y-130320706D01*
X89211425Y-130500000D01*
X89193767Y-130679294D01*
X89141469Y-130851695D01*
X89056542Y-131010583D01*
X88942249Y-131149849D01*
X88802983Y-131264142D01*
X88644095Y-131349069D01*
X88471694Y-131401367D01*
X88337331Y-131414600D01*
X87942669Y-131414600D01*
X87808306Y-131401367D01*
X87635905Y-131349069D01*
X87477017Y-131264142D01*
X87337751Y-131149849D01*
X87223458Y-131010583D01*
X87138531Y-130851695D01*
X87086233Y-130679294D01*
X87068575Y-130500000D01*
X87086233Y-130320706D01*
X87138531Y-130148305D01*
X87223458Y-129989417D01*
X87337751Y-129850151D01*
X87477017Y-129735858D01*
X87635905Y-129650931D01*
X87808306Y-129598633D01*
X87942669Y-129585400D01*
X88337331Y-129585400D01*
X88471694Y-129598633D01*
G37*
G36*
X111331694Y-129598633D02*
G01*
X111504095Y-129650931D01*
X111662983Y-129735858D01*
X111802249Y-129850151D01*
X111916542Y-129989417D01*
X112001469Y-130148305D01*
X112053767Y-130320706D01*
X112071425Y-130500000D01*
X112053767Y-130679294D01*
X112001469Y-130851695D01*
X111916542Y-131010583D01*
X111802249Y-131149849D01*
X111662983Y-131264142D01*
X111504095Y-131349069D01*
X111331694Y-131401367D01*
X111197331Y-131414600D01*
X110802669Y-131414600D01*
X110668306Y-131401367D01*
X110495905Y-131349069D01*
X110337017Y-131264142D01*
X110197751Y-131149849D01*
X110083458Y-131010583D01*
X109998531Y-130851695D01*
X109946233Y-130679294D01*
X109928575Y-130500000D01*
X109946233Y-130320706D01*
X109998531Y-130148305D01*
X110083458Y-129989417D01*
X110197751Y-129850151D01*
X110337017Y-129735858D01*
X110495905Y-129650931D01*
X110668306Y-129598633D01*
X110802669Y-129585400D01*
X111197331Y-129585400D01*
X111331694Y-129598633D01*
G37*
G36*
X88471694Y-127058633D02*
G01*
X88644095Y-127110931D01*
X88802983Y-127195858D01*
X88942249Y-127310151D01*
X89056542Y-127449417D01*
X89141469Y-127608305D01*
X89193767Y-127780706D01*
X89211425Y-127960000D01*
X89193767Y-128139294D01*
X89141469Y-128311695D01*
X89056542Y-128470583D01*
X88942249Y-128609849D01*
X88802983Y-128724142D01*
X88644095Y-128809069D01*
X88471694Y-128861367D01*
X88337331Y-128874600D01*
X87942669Y-128874600D01*
X87808306Y-128861367D01*
X87635905Y-128809069D01*
X87477017Y-128724142D01*
X87337751Y-128609849D01*
X87223458Y-128470583D01*
X87138531Y-128311695D01*
X87086233Y-128139294D01*
X87068575Y-127960000D01*
X87086233Y-127780706D01*
X87138531Y-127608305D01*
X87223458Y-127449417D01*
X87337751Y-127310151D01*
X87477017Y-127195858D01*
X87635905Y-127110931D01*
X87808306Y-127058633D01*
X87942669Y-127045400D01*
X88337331Y-127045400D01*
X88471694Y-127058633D01*
G37*
G36*
X111331694Y-127058633D02*
G01*
X111504095Y-127110931D01*
X111662983Y-127195858D01*
X111802249Y-127310151D01*
X111916542Y-127449417D01*
X112001469Y-127608305D01*
X112053767Y-127780706D01*
X112071425Y-127960000D01*
X112053767Y-128139294D01*
X112001469Y-128311695D01*
X111916542Y-128470583D01*
X111802249Y-128609849D01*
X111662983Y-128724142D01*
X111504095Y-128809069D01*
X111331694Y-128861367D01*
X111197331Y-128874600D01*
X110802669Y-128874600D01*
X110668306Y-128861367D01*
X110495905Y-128809069D01*
X110337017Y-128724142D01*
X110197751Y-128609849D01*
X110083458Y-128470583D01*
X109998531Y-128311695D01*
X109946233Y-128139294D01*
X109928575Y-127960000D01*
X109946233Y-127780706D01*
X109998531Y-127608305D01*
X110083458Y-127449417D01*
X110197751Y-127310151D01*
X110337017Y-127195858D01*
X110495905Y-127110931D01*
X110668306Y-127058633D01*
X110802669Y-127045400D01*
X111197331Y-127045400D01*
X111331694Y-127058633D01*
G37*
G36*
X88471694Y-124518633D02*
G01*
X88644095Y-124570931D01*
X88802983Y-124655858D01*
X88942249Y-124770151D01*
X89056542Y-124909417D01*
X89141469Y-125068305D01*
X89193767Y-125240706D01*
X89211425Y-125420000D01*
X89193767Y-125599294D01*
X89141469Y-125771695D01*
X89056542Y-125930583D01*
X88942249Y-126069849D01*
X88802983Y-126184142D01*
X88644095Y-126269069D01*
X88471694Y-126321367D01*
X88337331Y-126334600D01*
X87942669Y-126334600D01*
X87808306Y-126321367D01*
X87635905Y-126269069D01*
X87477017Y-126184142D01*
X87337751Y-126069849D01*
X87223458Y-125930583D01*
X87138531Y-125771695D01*
X87086233Y-125599294D01*
X87068575Y-125420000D01*
X87086233Y-125240706D01*
X87138531Y-125068305D01*
X87223458Y-124909417D01*
X87337751Y-124770151D01*
X87477017Y-124655858D01*
X87635905Y-124570931D01*
X87808306Y-124518633D01*
X87942669Y-124505400D01*
X88337331Y-124505400D01*
X88471694Y-124518633D01*
G37*
G36*
X111331694Y-124518633D02*
G01*
X111504095Y-124570931D01*
X111662983Y-124655858D01*
X111802249Y-124770151D01*
X111916542Y-124909417D01*
X112001469Y-125068305D01*
X112053767Y-125240706D01*
X112071425Y-125420000D01*
X112053767Y-125599294D01*
X112001469Y-125771695D01*
X111916542Y-125930583D01*
X111802249Y-126069849D01*
X111662983Y-126184142D01*
X111504095Y-126269069D01*
X111331694Y-126321367D01*
X111197331Y-126334600D01*
X110802669Y-126334600D01*
X110668306Y-126321367D01*
X110495905Y-126269069D01*
X110337017Y-126184142D01*
X110197751Y-126069849D01*
X110083458Y-125930583D01*
X109998531Y-125771695D01*
X109946233Y-125599294D01*
X109928575Y-125420000D01*
X109946233Y-125240706D01*
X109998531Y-125068305D01*
X110083458Y-124909417D01*
X110197751Y-124770151D01*
X110337017Y-124655858D01*
X110495905Y-124570931D01*
X110668306Y-124518633D01*
X110802669Y-124505400D01*
X111197331Y-124505400D01*
X111331694Y-124518633D01*
G37*
G36*
X66642007Y-120883582D02*
G01*
X67042563Y-121049498D01*
X67042565Y-121049499D01*
X67403056Y-121290371D01*
X67709629Y-121596944D01*
X67910442Y-121897483D01*
X67950502Y-121957437D01*
X68116418Y-122357993D01*
X68201000Y-122783219D01*
X68201000Y-123216781D01*
X68116418Y-123642007D01*
X67950502Y-124042563D01*
X67950501Y-124042565D01*
X67709629Y-124403056D01*
X67403056Y-124709629D01*
X67042565Y-124950501D01*
X67042564Y-124950502D01*
X67042563Y-124950502D01*
X66642007Y-125116418D01*
X66216781Y-125201000D01*
X65783219Y-125201000D01*
X65357993Y-125116418D01*
X64957437Y-124950502D01*
X64957436Y-124950502D01*
X64957435Y-124950501D01*
X64596944Y-124709629D01*
X64290371Y-124403056D01*
X64049499Y-124042565D01*
X64049498Y-124042563D01*
X63883582Y-123642007D01*
X63799000Y-123216781D01*
X63799000Y-122783219D01*
X63883582Y-122357993D01*
X64049498Y-121957437D01*
X64089558Y-121897483D01*
X64290371Y-121596944D01*
X64596944Y-121290371D01*
X64957435Y-121049499D01*
X64957437Y-121049498D01*
X65357993Y-120883582D01*
X65783219Y-120799000D01*
X66216781Y-120799000D01*
X66642007Y-120883582D01*
G37*
G36*
X56642007Y-120883582D02*
G01*
X57042563Y-121049498D01*
X57042565Y-121049499D01*
X57403056Y-121290371D01*
X57709629Y-121596944D01*
X57910442Y-121897483D01*
X57950502Y-121957437D01*
X58116418Y-122357993D01*
X58201000Y-122783219D01*
X58201000Y-123216781D01*
X58116418Y-123642007D01*
X57950502Y-124042563D01*
X57950501Y-124042565D01*
X57709629Y-124403056D01*
X57403056Y-124709629D01*
X57042565Y-124950501D01*
X57042564Y-124950502D01*
X57042563Y-124950502D01*
X56642007Y-125116418D01*
X56216781Y-125201000D01*
X55783219Y-125201000D01*
X55357993Y-125116418D01*
X54957437Y-124950502D01*
X54957436Y-124950502D01*
X54957435Y-124950501D01*
X54596944Y-124709629D01*
X54290371Y-124403056D01*
X54049499Y-124042565D01*
X54049498Y-124042563D01*
X53883582Y-123642007D01*
X53799000Y-123216781D01*
X53799000Y-122783219D01*
X53883582Y-122357993D01*
X54049498Y-121957437D01*
X54089558Y-121897483D01*
X54290371Y-121596944D01*
X54596944Y-121290371D01*
X54957435Y-121049499D01*
X54957437Y-121049498D01*
X55357993Y-120883582D01*
X55783219Y-120799000D01*
X56216781Y-120799000D01*
X56642007Y-120883582D01*
G37*
G36*
X111331694Y-121978633D02*
G01*
X111504095Y-122030931D01*
X111662983Y-122115858D01*
X111802249Y-122230151D01*
X111916542Y-122369417D01*
X112001469Y-122528305D01*
X112053767Y-122700706D01*
X112071425Y-122880000D01*
X112053767Y-123059294D01*
X112001469Y-123231695D01*
X111916542Y-123390583D01*
X111802249Y-123529849D01*
X111662983Y-123644142D01*
X111504095Y-123729069D01*
X111331694Y-123781367D01*
X111197331Y-123794600D01*
X110802669Y-123794600D01*
X110668306Y-123781367D01*
X110495905Y-123729069D01*
X110337017Y-123644142D01*
X110197751Y-123529849D01*
X110083458Y-123390583D01*
X109998531Y-123231695D01*
X109946233Y-123059294D01*
X109928575Y-122880000D01*
X109946233Y-122700706D01*
X109998531Y-122528305D01*
X110083458Y-122369417D01*
X110197751Y-122230151D01*
X110337017Y-122115858D01*
X110495905Y-122030931D01*
X110668306Y-121978633D01*
X110802669Y-121965400D01*
X111197331Y-121965400D01*
X111331694Y-121978633D01*
G37*
G36*
X88471694Y-121978633D02*
G01*
X88644095Y-122030931D01*
X88802983Y-122115858D01*
X88942249Y-122230151D01*
X89056542Y-122369417D01*
X89141469Y-122528305D01*
X89193767Y-122700706D01*
X89211425Y-122880000D01*
X89193767Y-123059294D01*
X89141469Y-123231695D01*
X89056542Y-123390583D01*
X88942249Y-123529849D01*
X88802983Y-123644142D01*
X88644095Y-123729069D01*
X88471694Y-123781367D01*
X88337331Y-123794600D01*
X87942669Y-123794600D01*
X87808306Y-123781367D01*
X87635905Y-123729069D01*
X87477017Y-123644142D01*
X87337751Y-123529849D01*
X87223458Y-123390583D01*
X87138531Y-123231695D01*
X87086233Y-123059294D01*
X87068575Y-122880000D01*
X87086233Y-122700706D01*
X87138531Y-122528305D01*
X87223458Y-122369417D01*
X87337751Y-122230151D01*
X87477017Y-122115858D01*
X87635905Y-122030931D01*
X87808306Y-121978633D01*
X87942669Y-121965400D01*
X88337331Y-121965400D01*
X88471694Y-121978633D01*
G37*
G36*
X81584468Y-121841065D02*
G01*
X81623138Y-121852796D01*
X81658777Y-121871846D01*
X81690017Y-121897483D01*
X81715654Y-121928723D01*
X81734704Y-121964362D01*
X81746435Y-122003032D01*
X81751000Y-122049388D01*
X81751000Y-122700612D01*
X81746435Y-122746968D01*
X81734704Y-122785638D01*
X81715654Y-122821277D01*
X81690017Y-122852517D01*
X81658777Y-122878154D01*
X81623138Y-122897204D01*
X81584468Y-122908935D01*
X81538112Y-122913500D01*
X80461888Y-122913500D01*
X80415532Y-122908935D01*
X80376862Y-122897204D01*
X80341223Y-122878154D01*
X80309983Y-122852517D01*
X80284346Y-122821277D01*
X80265296Y-122785638D01*
X80253565Y-122746968D01*
X80249000Y-122700612D01*
X80249000Y-122049388D01*
X80253565Y-122003032D01*
X80265296Y-121964362D01*
X80284346Y-121928723D01*
X80309983Y-121897483D01*
X80341223Y-121871846D01*
X80376862Y-121852796D01*
X80415532Y-121841065D01*
X80461888Y-121836500D01*
X81538112Y-121836500D01*
X81584468Y-121841065D01*
G37*
G36*
X76584468Y-121841065D02*
G01*
X76623138Y-121852796D01*
X76658777Y-121871846D01*
X76690017Y-121897483D01*
X76715654Y-121928723D01*
X76734704Y-121964362D01*
X76746435Y-122003032D01*
X76751000Y-122049388D01*
X76751000Y-122700612D01*
X76746435Y-122746968D01*
X76734704Y-122785638D01*
X76715654Y-122821277D01*
X76690017Y-122852517D01*
X76658777Y-122878154D01*
X76623138Y-122897204D01*
X76584468Y-122908935D01*
X76538112Y-122913500D01*
X75461888Y-122913500D01*
X75415532Y-122908935D01*
X75376862Y-122897204D01*
X75341223Y-122878154D01*
X75309983Y-122852517D01*
X75284346Y-122821277D01*
X75265296Y-122785638D01*
X75253565Y-122746968D01*
X75249000Y-122700612D01*
X75249000Y-122049388D01*
X75253565Y-122003032D01*
X75265296Y-121964362D01*
X75284346Y-121928723D01*
X75309983Y-121897483D01*
X75341223Y-121871846D01*
X75376862Y-121852796D01*
X75415532Y-121841065D01*
X75461888Y-121836500D01*
X76538112Y-121836500D01*
X76584468Y-121841065D01*
G37*
G36*
X88471694Y-119438633D02*
G01*
X88644095Y-119490931D01*
X88802983Y-119575858D01*
X88942249Y-119690151D01*
X89056542Y-119829417D01*
X89141469Y-119988305D01*
X89193767Y-120160706D01*
X89211425Y-120340000D01*
X89193767Y-120519294D01*
X89141469Y-120691695D01*
X89056542Y-120850583D01*
X88942249Y-120989849D01*
X88802983Y-121104142D01*
X88644095Y-121189069D01*
X88471694Y-121241367D01*
X88337331Y-121254600D01*
X87942669Y-121254600D01*
X87808306Y-121241367D01*
X87635905Y-121189069D01*
X87477017Y-121104142D01*
X87337751Y-120989849D01*
X87223458Y-120850583D01*
X87138531Y-120691695D01*
X87086233Y-120519294D01*
X87068575Y-120340000D01*
X87086233Y-120160706D01*
X87138531Y-119988305D01*
X87223458Y-119829417D01*
X87337751Y-119690151D01*
X87477017Y-119575858D01*
X87635905Y-119490931D01*
X87808306Y-119438633D01*
X87942669Y-119425400D01*
X88337331Y-119425400D01*
X88471694Y-119438633D01*
G37*
G36*
X111331694Y-119438633D02*
G01*
X111504095Y-119490931D01*
X111662983Y-119575858D01*
X111802249Y-119690151D01*
X111916542Y-119829417D01*
X112001469Y-119988305D01*
X112053767Y-120160706D01*
X112071425Y-120340000D01*
X112053767Y-120519294D01*
X112001469Y-120691695D01*
X111916542Y-120850583D01*
X111802249Y-120989849D01*
X111662983Y-121104142D01*
X111504095Y-121189069D01*
X111331694Y-121241367D01*
X111197331Y-121254600D01*
X110802669Y-121254600D01*
X110668306Y-121241367D01*
X110495905Y-121189069D01*
X110337017Y-121104142D01*
X110197751Y-120989849D01*
X110083458Y-120850583D01*
X109998531Y-120691695D01*
X109946233Y-120519294D01*
X109928575Y-120340000D01*
X109946233Y-120160706D01*
X109998531Y-119988305D01*
X110083458Y-119829417D01*
X110197751Y-119690151D01*
X110337017Y-119575858D01*
X110495905Y-119490931D01*
X110668306Y-119438633D01*
X110802669Y-119425400D01*
X111197331Y-119425400D01*
X111331694Y-119438633D01*
G37*
G36*
X81584468Y-119966065D02*
G01*
X81623138Y-119977796D01*
X81658777Y-119996846D01*
X81690017Y-120022483D01*
X81715654Y-120053723D01*
X81734704Y-120089362D01*
X81746435Y-120128032D01*
X81751000Y-120174388D01*
X81751000Y-120825612D01*
X81746435Y-120871968D01*
X81734704Y-120910638D01*
X81715654Y-120946277D01*
X81690017Y-120977517D01*
X81658777Y-121003154D01*
X81623138Y-121022204D01*
X81584468Y-121033935D01*
X81538112Y-121038500D01*
X80461888Y-121038500D01*
X80415532Y-121033935D01*
X80376862Y-121022204D01*
X80341223Y-121003154D01*
X80309983Y-120977517D01*
X80284346Y-120946277D01*
X80265296Y-120910638D01*
X80253565Y-120871968D01*
X80249000Y-120825612D01*
X80249000Y-120174388D01*
X80253565Y-120128032D01*
X80265296Y-120089362D01*
X80284346Y-120053723D01*
X80309983Y-120022483D01*
X80341223Y-119996846D01*
X80376862Y-119977796D01*
X80415532Y-119966065D01*
X80461888Y-119961500D01*
X81538112Y-119961500D01*
X81584468Y-119966065D01*
G37*
G36*
X76584468Y-119966065D02*
G01*
X76623138Y-119977796D01*
X76658777Y-119996846D01*
X76690017Y-120022483D01*
X76715654Y-120053723D01*
X76734704Y-120089362D01*
X76746435Y-120128032D01*
X76751000Y-120174388D01*
X76751000Y-120825612D01*
X76746435Y-120871968D01*
X76734704Y-120910638D01*
X76715654Y-120946277D01*
X76690017Y-120977517D01*
X76658777Y-121003154D01*
X76623138Y-121022204D01*
X76584468Y-121033935D01*
X76538112Y-121038500D01*
X75461888Y-121038500D01*
X75415532Y-121033935D01*
X75376862Y-121022204D01*
X75341223Y-121003154D01*
X75309983Y-120977517D01*
X75284346Y-120946277D01*
X75265296Y-120910638D01*
X75253565Y-120871968D01*
X75249000Y-120825612D01*
X75249000Y-120174388D01*
X75253565Y-120128032D01*
X75265296Y-120089362D01*
X75284346Y-120053723D01*
X75309983Y-120022483D01*
X75341223Y-119996846D01*
X75376862Y-119977796D01*
X75415532Y-119966065D01*
X75461888Y-119961500D01*
X76538112Y-119961500D01*
X76584468Y-119966065D01*
G37*
G36*
X53196505Y-116263803D02*
G01*
X53325366Y-116302893D01*
X53444117Y-116366367D01*
X53548209Y-116451791D01*
X53633633Y-116555883D01*
X53697107Y-116674634D01*
X53736197Y-116803495D01*
X53750000Y-116943640D01*
X53750000Y-118556360D01*
X53736197Y-118696505D01*
X53697107Y-118825366D01*
X53633633Y-118944117D01*
X53548209Y-119048209D01*
X53444117Y-119133633D01*
X53325366Y-119197107D01*
X53196505Y-119236197D01*
X53056360Y-119250000D01*
X51443640Y-119250000D01*
X51303495Y-119236197D01*
X51174634Y-119197107D01*
X51055883Y-119133633D01*
X50951791Y-119048209D01*
X50866367Y-118944117D01*
X50802893Y-118825366D01*
X50763803Y-118696505D01*
X50750000Y-118556360D01*
X50750000Y-116943640D01*
X50763803Y-116803495D01*
X50802893Y-116674634D01*
X50866367Y-116555883D01*
X50951791Y-116451791D01*
X51055883Y-116366367D01*
X51174634Y-116302893D01*
X51303495Y-116263803D01*
X51443640Y-116250000D01*
X53056360Y-116250000D01*
X53196505Y-116263803D01*
G37*
G36*
X111331694Y-116898633D02*
G01*
X111504095Y-116950931D01*
X111662983Y-117035858D01*
X111802249Y-117150151D01*
X111916542Y-117289417D01*
X112001469Y-117448305D01*
X112053767Y-117620706D01*
X112071425Y-117800000D01*
X112053767Y-117979294D01*
X112001469Y-118151695D01*
X111916542Y-118310583D01*
X111802249Y-118449849D01*
X111662983Y-118564142D01*
X111504095Y-118649069D01*
X111331694Y-118701367D01*
X111197331Y-118714600D01*
X110802669Y-118714600D01*
X110668306Y-118701367D01*
X110495905Y-118649069D01*
X110337017Y-118564142D01*
X110197751Y-118449849D01*
X110083458Y-118310583D01*
X109998531Y-118151695D01*
X109946233Y-117979294D01*
X109928575Y-117800000D01*
X109946233Y-117620706D01*
X109998531Y-117448305D01*
X110083458Y-117289417D01*
X110197751Y-117150151D01*
X110337017Y-117035858D01*
X110495905Y-116950931D01*
X110668306Y-116898633D01*
X110802669Y-116885400D01*
X111197331Y-116885400D01*
X111331694Y-116898633D01*
G37*
G36*
X88471694Y-116898633D02*
G01*
X88644095Y-116950931D01*
X88802983Y-117035858D01*
X88942249Y-117150151D01*
X89056542Y-117289417D01*
X89141469Y-117448305D01*
X89193767Y-117620706D01*
X89211425Y-117800000D01*
X89193767Y-117979294D01*
X89141469Y-118151695D01*
X89056542Y-118310583D01*
X88942249Y-118449849D01*
X88802983Y-118564142D01*
X88644095Y-118649069D01*
X88471694Y-118701367D01*
X88337331Y-118714600D01*
X87942669Y-118714600D01*
X87808306Y-118701367D01*
X87635905Y-118649069D01*
X87477017Y-118564142D01*
X87337751Y-118449849D01*
X87223458Y-118310583D01*
X87138531Y-118151695D01*
X87086233Y-117979294D01*
X87068575Y-117800000D01*
X87086233Y-117620706D01*
X87138531Y-117448305D01*
X87223458Y-117289417D01*
X87337751Y-117150151D01*
X87477017Y-117035858D01*
X87635905Y-116950931D01*
X87808306Y-116898633D01*
X87942669Y-116885400D01*
X88337331Y-116885400D01*
X88471694Y-116898633D01*
G37*
G36*
X80248228Y-114681703D02*
G01*
X80403100Y-114745853D01*
X80542481Y-114838985D01*
X80661015Y-114957519D01*
X80754147Y-115096900D01*
X80818297Y-115251772D01*
X80851000Y-115416184D01*
X80851000Y-115583816D01*
X80818297Y-115748228D01*
X80754147Y-115903100D01*
X80661015Y-116042481D01*
X80542481Y-116161015D01*
X80403100Y-116254147D01*
X80248228Y-116318297D01*
X80083816Y-116351000D01*
X79916184Y-116351000D01*
X79751772Y-116318297D01*
X79596900Y-116254147D01*
X79457519Y-116161015D01*
X79338985Y-116042481D01*
X79245853Y-115903100D01*
X79181703Y-115748228D01*
X79149000Y-115583816D01*
X79149000Y-115416184D01*
X79181703Y-115251772D01*
X79245853Y-115096900D01*
X79338985Y-114957519D01*
X79457519Y-114838985D01*
X79596900Y-114745853D01*
X79751772Y-114681703D01*
X79916184Y-114649000D01*
X80083816Y-114649000D01*
X80248228Y-114681703D01*
G37*
G36*
X88471694Y-114358633D02*
G01*
X88644095Y-114410931D01*
X88802983Y-114495858D01*
X88942249Y-114610151D01*
X89056542Y-114749417D01*
X89141469Y-114908305D01*
X89193767Y-115080706D01*
X89211425Y-115260000D01*
X89193767Y-115439294D01*
X89141469Y-115611695D01*
X89056542Y-115770583D01*
X88942249Y-115909849D01*
X88802983Y-116024142D01*
X88644095Y-116109069D01*
X88471694Y-116161367D01*
X88337331Y-116174600D01*
X87942669Y-116174600D01*
X87808306Y-116161367D01*
X87635905Y-116109069D01*
X87477017Y-116024142D01*
X87337751Y-115909849D01*
X87223458Y-115770583D01*
X87138531Y-115611695D01*
X87086233Y-115439294D01*
X87068575Y-115260000D01*
X87086233Y-115080706D01*
X87138531Y-114908305D01*
X87223458Y-114749417D01*
X87337751Y-114610151D01*
X87477017Y-114495858D01*
X87635905Y-114410931D01*
X87808306Y-114358633D01*
X87942669Y-114345400D01*
X88337331Y-114345400D01*
X88471694Y-114358633D01*
G37*
G36*
X111331694Y-114358633D02*
G01*
X111504095Y-114410931D01*
X111662983Y-114495858D01*
X111802249Y-114610151D01*
X111916542Y-114749417D01*
X112001469Y-114908305D01*
X112053767Y-115080706D01*
X112071425Y-115260000D01*
X112053767Y-115439294D01*
X112001469Y-115611695D01*
X111916542Y-115770583D01*
X111802249Y-115909849D01*
X111662983Y-116024142D01*
X111504095Y-116109069D01*
X111331694Y-116161367D01*
X111197331Y-116174600D01*
X110802669Y-116174600D01*
X110668306Y-116161367D01*
X110495905Y-116109069D01*
X110337017Y-116024142D01*
X110197751Y-115909849D01*
X110083458Y-115770583D01*
X109998531Y-115611695D01*
X109946233Y-115439294D01*
X109928575Y-115260000D01*
X109946233Y-115080706D01*
X109998531Y-114908305D01*
X110083458Y-114749417D01*
X110197751Y-114610151D01*
X110337017Y-114495858D01*
X110495905Y-114410931D01*
X110668306Y-114358633D01*
X110802669Y-114345400D01*
X111197331Y-114345400D01*
X111331694Y-114358633D01*
G37*
G36*
X61233642Y-112729781D02*
G01*
X61379414Y-112790162D01*
X61379416Y-112790163D01*
X61510608Y-112877822D01*
X61622178Y-112989392D01*
X61677171Y-113071696D01*
X61709838Y-113120586D01*
X61770219Y-113266358D01*
X61801000Y-113421107D01*
X61801000Y-113578893D01*
X61770219Y-113733642D01*
X61709838Y-113879414D01*
X61709837Y-113879416D01*
X61622178Y-114010608D01*
X61510608Y-114122178D01*
X61379416Y-114209837D01*
X61379415Y-114209838D01*
X61379414Y-114209838D01*
X61233642Y-114270219D01*
X61078893Y-114301000D01*
X60921107Y-114301000D01*
X60766358Y-114270219D01*
X60620586Y-114209838D01*
X60620585Y-114209838D01*
X60620584Y-114209837D01*
X60489392Y-114122178D01*
X60377822Y-114010608D01*
X60290163Y-113879416D01*
X60290162Y-113879414D01*
X60229781Y-113733642D01*
X60199000Y-113578893D01*
X60199000Y-113421107D01*
X60229781Y-113266358D01*
X60290162Y-113120586D01*
X60322829Y-113071696D01*
X60377822Y-112989392D01*
X60489392Y-112877822D01*
X60620584Y-112790163D01*
X60620586Y-112790162D01*
X60766358Y-112729781D01*
X60921107Y-112699000D01*
X61078893Y-112699000D01*
X61233642Y-112729781D01*
G37*
G36*
X56801000Y-114151000D02*
G01*
X53699000Y-114151000D01*
X53699000Y-105349000D01*
X56801000Y-105349000D01*
X56801000Y-114151000D01*
G37*
G36*
X88471694Y-111818633D02*
G01*
X88644095Y-111870931D01*
X88802983Y-111955858D01*
X88942249Y-112070151D01*
X89056542Y-112209417D01*
X89141469Y-112368305D01*
X89193767Y-112540706D01*
X89211425Y-112720000D01*
X89193767Y-112899294D01*
X89141469Y-113071695D01*
X89056542Y-113230583D01*
X88942249Y-113369849D01*
X88802983Y-113484142D01*
X88644095Y-113569069D01*
X88471694Y-113621367D01*
X88337331Y-113634600D01*
X87942669Y-113634600D01*
X87808306Y-113621367D01*
X87635905Y-113569069D01*
X87477017Y-113484142D01*
X87337751Y-113369849D01*
X87223458Y-113230583D01*
X87138531Y-113071695D01*
X87086233Y-112899294D01*
X87068575Y-112720000D01*
X87086233Y-112540706D01*
X87138531Y-112368305D01*
X87223458Y-112209417D01*
X87337751Y-112070151D01*
X87477017Y-111955858D01*
X87635905Y-111870931D01*
X87808306Y-111818633D01*
X87942669Y-111805400D01*
X88337331Y-111805400D01*
X88471694Y-111818633D01*
G37*
G36*
X111331694Y-111818633D02*
G01*
X111504095Y-111870931D01*
X111662983Y-111955858D01*
X111802249Y-112070151D01*
X111916542Y-112209417D01*
X112001469Y-112368305D01*
X112053767Y-112540706D01*
X112071425Y-112720000D01*
X112053767Y-112899294D01*
X112001469Y-113071695D01*
X111916542Y-113230583D01*
X111802249Y-113369849D01*
X111662983Y-113484142D01*
X111504095Y-113569069D01*
X111331694Y-113621367D01*
X111197331Y-113634600D01*
X110802669Y-113634600D01*
X110668306Y-113621367D01*
X110495905Y-113569069D01*
X110337017Y-113484142D01*
X110197751Y-113369849D01*
X110083458Y-113230583D01*
X109998531Y-113071695D01*
X109946233Y-112899294D01*
X109928575Y-112720000D01*
X109946233Y-112540706D01*
X109998531Y-112368305D01*
X110083458Y-112209417D01*
X110197751Y-112070151D01*
X110337017Y-111955858D01*
X110495905Y-111870931D01*
X110668306Y-111818633D01*
X110802669Y-111805400D01*
X111197331Y-111805400D01*
X111331694Y-111818633D01*
G37*
G36*
X64401000Y-112901000D02*
G01*
X62599000Y-112901000D01*
X62599000Y-111099000D01*
X64401000Y-111099000D01*
X64401000Y-112901000D01*
G37*
G36*
X61233642Y-109729781D02*
G01*
X61379414Y-109790162D01*
X61379416Y-109790163D01*
X61510608Y-109877822D01*
X61622178Y-109989392D01*
X61629738Y-110000707D01*
X61709838Y-110120586D01*
X61770219Y-110266358D01*
X61801000Y-110421107D01*
X61801000Y-110578893D01*
X61770219Y-110733642D01*
X61709838Y-110879414D01*
X61709837Y-110879416D01*
X61622178Y-111010608D01*
X61510608Y-111122178D01*
X61379416Y-111209837D01*
X61379415Y-111209838D01*
X61379414Y-111209838D01*
X61233642Y-111270219D01*
X61078893Y-111301000D01*
X60921107Y-111301000D01*
X60766358Y-111270219D01*
X60620586Y-111209838D01*
X60620585Y-111209838D01*
X60620584Y-111209837D01*
X60489392Y-111122178D01*
X60377822Y-111010608D01*
X60290163Y-110879416D01*
X60290162Y-110879414D01*
X60229781Y-110733642D01*
X60199000Y-110578893D01*
X60199000Y-110421107D01*
X60229781Y-110266358D01*
X60290162Y-110120586D01*
X60370262Y-110000707D01*
X60377822Y-109989392D01*
X60489392Y-109877822D01*
X60620584Y-109790163D01*
X60620586Y-109790162D01*
X60766358Y-109729781D01*
X60921107Y-109699000D01*
X61078893Y-109699000D01*
X61233642Y-109729781D01*
G37*
G36*
X111331694Y-109278633D02*
G01*
X111504095Y-109330931D01*
X111662983Y-109415858D01*
X111802249Y-109530151D01*
X111916542Y-109669417D01*
X112001469Y-109828305D01*
X112053767Y-110000706D01*
X112071425Y-110180000D01*
X112053767Y-110359294D01*
X112001469Y-110531695D01*
X111916542Y-110690583D01*
X111802249Y-110829849D01*
X111662983Y-110944142D01*
X111504095Y-111029069D01*
X111331694Y-111081367D01*
X111197331Y-111094600D01*
X110802669Y-111094600D01*
X110668306Y-111081367D01*
X110495905Y-111029069D01*
X110337017Y-110944142D01*
X110197751Y-110829849D01*
X110083458Y-110690583D01*
X109998531Y-110531695D01*
X109946233Y-110359294D01*
X109928575Y-110180000D01*
X109946233Y-110000706D01*
X109998531Y-109828305D01*
X110083458Y-109669417D01*
X110197751Y-109530151D01*
X110337017Y-109415858D01*
X110495905Y-109330931D01*
X110668306Y-109278633D01*
X110802669Y-109265400D01*
X111197331Y-109265400D01*
X111331694Y-109278633D01*
G37*
G36*
X88471694Y-109278633D02*
G01*
X88644095Y-109330931D01*
X88802983Y-109415858D01*
X88942249Y-109530151D01*
X89056542Y-109669417D01*
X89141469Y-109828305D01*
X89193767Y-110000706D01*
X89211425Y-110180000D01*
X89193767Y-110359294D01*
X89141469Y-110531695D01*
X89056542Y-110690583D01*
X88942249Y-110829849D01*
X88802983Y-110944142D01*
X88644095Y-111029069D01*
X88471694Y-111081367D01*
X88337331Y-111094600D01*
X87942669Y-111094600D01*
X87808306Y-111081367D01*
X87635905Y-111029069D01*
X87477017Y-110944142D01*
X87337751Y-110829849D01*
X87223458Y-110690583D01*
X87138531Y-110531695D01*
X87086233Y-110359294D01*
X87068575Y-110180000D01*
X87086233Y-110000706D01*
X87138531Y-109828305D01*
X87223458Y-109669417D01*
X87337751Y-109530151D01*
X87477017Y-109415858D01*
X87635905Y-109330931D01*
X87808306Y-109278633D01*
X87942669Y-109265400D01*
X88337331Y-109265400D01*
X88471694Y-109278633D01*
G37*
G36*
X64401000Y-109901000D02*
G01*
X62599000Y-109901000D01*
X62599000Y-108099000D01*
X64401000Y-108099000D01*
X64401000Y-109901000D01*
G37*
G36*
X88471694Y-106738633D02*
G01*
X88644095Y-106790931D01*
X88802983Y-106875858D01*
X88942249Y-106990151D01*
X89056542Y-107129417D01*
X89141469Y-107288305D01*
X89193767Y-107460706D01*
X89211425Y-107640000D01*
X89193767Y-107819294D01*
X89141469Y-107991695D01*
X89056542Y-108150583D01*
X88942249Y-108289849D01*
X88802983Y-108404142D01*
X88644095Y-108489069D01*
X88471694Y-108541367D01*
X88337331Y-108554600D01*
X87942669Y-108554600D01*
X87808306Y-108541367D01*
X87635905Y-108489069D01*
X87477017Y-108404142D01*
X87337751Y-108289849D01*
X87223458Y-108150583D01*
X87138531Y-107991695D01*
X87086233Y-107819294D01*
X87068575Y-107640000D01*
X87086233Y-107460706D01*
X87138531Y-107288305D01*
X87223458Y-107129417D01*
X87337751Y-106990151D01*
X87477017Y-106875858D01*
X87635905Y-106790931D01*
X87808306Y-106738633D01*
X87942669Y-106725400D01*
X88337331Y-106725400D01*
X88471694Y-106738633D01*
G37*
G36*
X111331694Y-106738633D02*
G01*
X111504095Y-106790931D01*
X111662983Y-106875858D01*
X111802249Y-106990151D01*
X111916542Y-107129417D01*
X112001469Y-107288305D01*
X112053767Y-107460706D01*
X112071425Y-107640000D01*
X112053767Y-107819294D01*
X112001469Y-107991695D01*
X111916542Y-108150583D01*
X111802249Y-108289849D01*
X111662983Y-108404142D01*
X111504095Y-108489069D01*
X111331694Y-108541367D01*
X111197331Y-108554600D01*
X110802669Y-108554600D01*
X110668306Y-108541367D01*
X110495905Y-108489069D01*
X110337017Y-108404142D01*
X110197751Y-108289849D01*
X110083458Y-108150583D01*
X109998531Y-107991695D01*
X109946233Y-107819294D01*
X109928575Y-107640000D01*
X109946233Y-107460706D01*
X109998531Y-107288305D01*
X110083458Y-107129417D01*
X110197751Y-106990151D01*
X110337017Y-106875858D01*
X110495905Y-106790931D01*
X110668306Y-106738633D01*
X110802669Y-106725400D01*
X111197331Y-106725400D01*
X111331694Y-106738633D01*
G37*
G36*
X61233642Y-106729781D02*
G01*
X61379414Y-106790162D01*
X61379416Y-106790163D01*
X61510608Y-106877822D01*
X61622178Y-106989392D01*
X61670842Y-107062224D01*
X61709838Y-107120586D01*
X61770219Y-107266358D01*
X61801000Y-107421107D01*
X61801000Y-107578893D01*
X61770219Y-107733642D01*
X61709838Y-107879414D01*
X61709837Y-107879416D01*
X61622178Y-108010608D01*
X61510608Y-108122178D01*
X61379416Y-108209837D01*
X61379415Y-108209838D01*
X61379414Y-108209838D01*
X61233642Y-108270219D01*
X61078893Y-108301000D01*
X60921107Y-108301000D01*
X60766358Y-108270219D01*
X60620586Y-108209838D01*
X60620585Y-108209838D01*
X60620584Y-108209837D01*
X60489392Y-108122178D01*
X60377822Y-108010608D01*
X60290163Y-107879416D01*
X60290162Y-107879414D01*
X60229781Y-107733642D01*
X60199000Y-107578893D01*
X60199000Y-107421107D01*
X60229781Y-107266358D01*
X60290162Y-107120586D01*
X60329158Y-107062224D01*
X60377822Y-106989392D01*
X60489392Y-106877822D01*
X60620584Y-106790163D01*
X60620586Y-106790162D01*
X60766358Y-106729781D01*
X60921107Y-106699000D01*
X61078893Y-106699000D01*
X61233642Y-106729781D01*
G37*
G36*
X71267972Y-105701447D02*
G01*
X71422844Y-105765597D01*
X71562225Y-105858729D01*
X71680759Y-105977263D01*
X71773891Y-106116644D01*
X71838041Y-106271516D01*
X71870744Y-106435928D01*
X71870744Y-106603560D01*
X71838041Y-106767972D01*
X71773891Y-106922844D01*
X71680759Y-107062225D01*
X71562225Y-107180759D01*
X71422844Y-107273891D01*
X71267972Y-107338041D01*
X71103560Y-107370744D01*
X70935928Y-107370744D01*
X70771516Y-107338041D01*
X70616644Y-107273891D01*
X70477263Y-107180759D01*
X70358729Y-107062225D01*
X70265597Y-106922844D01*
X70201447Y-106767972D01*
X70168744Y-106603560D01*
X70168744Y-106435928D01*
X70201447Y-106271516D01*
X70265597Y-106116644D01*
X70358729Y-105977263D01*
X70477263Y-105858729D01*
X70616644Y-105765597D01*
X70771516Y-105701447D01*
X70935928Y-105668744D01*
X71103560Y-105668744D01*
X71267972Y-105701447D01*
G37*
G36*
X100426000Y-107181000D02*
G01*
X99674000Y-107181000D01*
X99674000Y-106019000D01*
X100426000Y-106019000D01*
X100426000Y-107181000D01*
G37*
G36*
X102326000Y-107181000D02*
G01*
X101574000Y-107181000D01*
X101574000Y-106019000D01*
X102326000Y-106019000D01*
X102326000Y-107181000D01*
G37*
G36*
X111331694Y-104198633D02*
G01*
X111504095Y-104250931D01*
X111662983Y-104335858D01*
X111802249Y-104450151D01*
X111916542Y-104589417D01*
X112001469Y-104748305D01*
X112053767Y-104920706D01*
X112071425Y-105100000D01*
X112053767Y-105279294D01*
X112001469Y-105451695D01*
X111916542Y-105610583D01*
X111802249Y-105749849D01*
X111662983Y-105864142D01*
X111504095Y-105949069D01*
X111331694Y-106001367D01*
X111197331Y-106014600D01*
X110802669Y-106014600D01*
X110668306Y-106001367D01*
X110495905Y-105949069D01*
X110337017Y-105864142D01*
X110197751Y-105749849D01*
X110083458Y-105610583D01*
X109998531Y-105451695D01*
X109946233Y-105279294D01*
X109928575Y-105100000D01*
X109946233Y-104920706D01*
X109998531Y-104748305D01*
X110083458Y-104589417D01*
X110197751Y-104450151D01*
X110337017Y-104335858D01*
X110495905Y-104250931D01*
X110668306Y-104198633D01*
X110802669Y-104185400D01*
X111197331Y-104185400D01*
X111331694Y-104198633D01*
G37*
G36*
X88471694Y-104198633D02*
G01*
X88644095Y-104250931D01*
X88802983Y-104335858D01*
X88942249Y-104450151D01*
X89056542Y-104589417D01*
X89141469Y-104748305D01*
X89193767Y-104920706D01*
X89211425Y-105100000D01*
X89193767Y-105279294D01*
X89141469Y-105451695D01*
X89056542Y-105610583D01*
X88942249Y-105749849D01*
X88802983Y-105864142D01*
X88644095Y-105949069D01*
X88471694Y-106001367D01*
X88337331Y-106014600D01*
X87942669Y-106014600D01*
X87808306Y-106001367D01*
X87635905Y-105949069D01*
X87477017Y-105864142D01*
X87337751Y-105749849D01*
X87223458Y-105610583D01*
X87138531Y-105451695D01*
X87086233Y-105279294D01*
X87068575Y-105100000D01*
X87086233Y-104920706D01*
X87138531Y-104748305D01*
X87223458Y-104589417D01*
X87337751Y-104450151D01*
X87477017Y-104335858D01*
X87635905Y-104250931D01*
X87808306Y-104198633D01*
X87942669Y-104185400D01*
X88337331Y-104185400D01*
X88471694Y-104198633D01*
G37*
G36*
X102326000Y-104981000D02*
G01*
X99674000Y-104981000D01*
X99674000Y-103819000D01*
X102326000Y-103819000D01*
X102326000Y-104981000D01*
G37*
G36*
X88471694Y-101658633D02*
G01*
X88644095Y-101710931D01*
X88802983Y-101795858D01*
X88942249Y-101910151D01*
X89056542Y-102049417D01*
X89141469Y-102208305D01*
X89193767Y-102380706D01*
X89211425Y-102560000D01*
X89193767Y-102739294D01*
X89141469Y-102911695D01*
X89056542Y-103070583D01*
X88942249Y-103209849D01*
X88802983Y-103324142D01*
X88644095Y-103409069D01*
X88471694Y-103461367D01*
X88337331Y-103474600D01*
X87942669Y-103474600D01*
X87808306Y-103461367D01*
X87635905Y-103409069D01*
X87477017Y-103324142D01*
X87337751Y-103209849D01*
X87223458Y-103070583D01*
X87138531Y-102911695D01*
X87086233Y-102739294D01*
X87068575Y-102560000D01*
X87086233Y-102380706D01*
X87138531Y-102208305D01*
X87223458Y-102049417D01*
X87337751Y-101910151D01*
X87477017Y-101795858D01*
X87635905Y-101710931D01*
X87808306Y-101658633D01*
X87942669Y-101645400D01*
X88337331Y-101645400D01*
X88471694Y-101658633D01*
G37*
G36*
X111331694Y-101658633D02*
G01*
X111504095Y-101710931D01*
X111662983Y-101795858D01*
X111802249Y-101910151D01*
X111916542Y-102049417D01*
X112001469Y-102208305D01*
X112053767Y-102380706D01*
X112071425Y-102560000D01*
X112053767Y-102739294D01*
X112001469Y-102911695D01*
X111916542Y-103070583D01*
X111802249Y-103209849D01*
X111662983Y-103324142D01*
X111504095Y-103409069D01*
X111331694Y-103461367D01*
X111197331Y-103474600D01*
X110802669Y-103474600D01*
X110668306Y-103461367D01*
X110495905Y-103409069D01*
X110337017Y-103324142D01*
X110197751Y-103209849D01*
X110083458Y-103070583D01*
X109998531Y-102911695D01*
X109946233Y-102739294D01*
X109928575Y-102560000D01*
X109946233Y-102380706D01*
X109998531Y-102208305D01*
X110083458Y-102049417D01*
X110197751Y-101910151D01*
X110337017Y-101795858D01*
X110495905Y-101710931D01*
X110668306Y-101658633D01*
X110802669Y-101645400D01*
X111197331Y-101645400D01*
X111331694Y-101658633D01*
G37*
G36*
X53196505Y-100263803D02*
G01*
X53325366Y-100302893D01*
X53444117Y-100366367D01*
X53548209Y-100451791D01*
X53633633Y-100555883D01*
X53697107Y-100674634D01*
X53736197Y-100803495D01*
X53750000Y-100943640D01*
X53750000Y-102556360D01*
X53736197Y-102696505D01*
X53697107Y-102825366D01*
X53633633Y-102944117D01*
X53548209Y-103048209D01*
X53444117Y-103133633D01*
X53325366Y-103197107D01*
X53196505Y-103236197D01*
X53056360Y-103250000D01*
X51443640Y-103250000D01*
X51303495Y-103236197D01*
X51174634Y-103197107D01*
X51055883Y-103133633D01*
X50951791Y-103048209D01*
X50866367Y-102944117D01*
X50802893Y-102825366D01*
X50763803Y-102696505D01*
X50750000Y-102556360D01*
X50750000Y-100943640D01*
X50763803Y-100803495D01*
X50802893Y-100674634D01*
X50866367Y-100555883D01*
X50951791Y-100451791D01*
X51055883Y-100366367D01*
X51174634Y-100302893D01*
X51303495Y-100263803D01*
X51443640Y-100250000D01*
X53056360Y-100250000D01*
X53196505Y-100263803D01*
G37*
G36*
X77101000Y-102101000D02*
G01*
X74899000Y-102101000D01*
X74899000Y-99899000D01*
X77101000Y-99899000D01*
X77101000Y-102101000D01*
G37*
G36*
X99275562Y-99753181D02*
G01*
X99310481Y-99763774D01*
X99342663Y-99780976D01*
X99370873Y-99804127D01*
X99394024Y-99832337D01*
X99411226Y-99864519D01*
X99421819Y-99899438D01*
X99426000Y-99941895D01*
X99426000Y-101083105D01*
X99421819Y-101125562D01*
X99411226Y-101160481D01*
X99394024Y-101192663D01*
X99370873Y-101220873D01*
X99342663Y-101244024D01*
X99310481Y-101261226D01*
X99275562Y-101271819D01*
X99233105Y-101276000D01*
X97766895Y-101276000D01*
X97724438Y-101271819D01*
X97689519Y-101261226D01*
X97657337Y-101244024D01*
X97629127Y-101220873D01*
X97605976Y-101192663D01*
X97588774Y-101160481D01*
X97578181Y-101125562D01*
X97574000Y-101083105D01*
X97574000Y-99941895D01*
X97578181Y-99899438D01*
X97588774Y-99864519D01*
X97605976Y-99832337D01*
X97629127Y-99804127D01*
X97657337Y-99780976D01*
X97689519Y-99763774D01*
X97724438Y-99753181D01*
X97766895Y-99749000D01*
X99233105Y-99749000D01*
X99275562Y-99753181D01*
G37*
G36*
X111331694Y-99118633D02*
G01*
X111504095Y-99170931D01*
X111662983Y-99255858D01*
X111802249Y-99370151D01*
X111916542Y-99509417D01*
X112001469Y-99668305D01*
X112053767Y-99840706D01*
X112071425Y-100020000D01*
X112053767Y-100199294D01*
X112001469Y-100371695D01*
X111916542Y-100530583D01*
X111802249Y-100669849D01*
X111662983Y-100784142D01*
X111504095Y-100869069D01*
X111331694Y-100921367D01*
X111197331Y-100934600D01*
X110802669Y-100934600D01*
X110668306Y-100921367D01*
X110495905Y-100869069D01*
X110337017Y-100784142D01*
X110197751Y-100669849D01*
X110083458Y-100530583D01*
X109998531Y-100371695D01*
X109946233Y-100199294D01*
X109928575Y-100020000D01*
X109946233Y-99840706D01*
X109998531Y-99668305D01*
X110083458Y-99509417D01*
X110197751Y-99370151D01*
X110337017Y-99255858D01*
X110495905Y-99170931D01*
X110668306Y-99118633D01*
X110802669Y-99105400D01*
X111197331Y-99105400D01*
X111331694Y-99118633D01*
G37*
G36*
X88471694Y-99118633D02*
G01*
X88644095Y-99170931D01*
X88802983Y-99255858D01*
X88942249Y-99370151D01*
X89056542Y-99509417D01*
X89141469Y-99668305D01*
X89193767Y-99840706D01*
X89211425Y-100020000D01*
X89193767Y-100199294D01*
X89141469Y-100371695D01*
X89056542Y-100530583D01*
X88942249Y-100669849D01*
X88802983Y-100784142D01*
X88644095Y-100869069D01*
X88471694Y-100921367D01*
X88337331Y-100934600D01*
X87942669Y-100934600D01*
X87808306Y-100921367D01*
X87635905Y-100869069D01*
X87477017Y-100784142D01*
X87337751Y-100669849D01*
X87223458Y-100530583D01*
X87138531Y-100371695D01*
X87086233Y-100199294D01*
X87068575Y-100020000D01*
X87086233Y-99840706D01*
X87138531Y-99668305D01*
X87223458Y-99509417D01*
X87337751Y-99370151D01*
X87477017Y-99255858D01*
X87635905Y-99170931D01*
X87808306Y-99118633D01*
X87942669Y-99105400D01*
X88337331Y-99105400D01*
X88471694Y-99118633D01*
G37*
G36*
X104088674Y-99428465D02*
G01*
X104126367Y-99439899D01*
X104161103Y-99458466D01*
X104191548Y-99483452D01*
X104216534Y-99513897D01*
X104235101Y-99548633D01*
X104246535Y-99586326D01*
X104251000Y-99631661D01*
X104251000Y-100468339D01*
X104246535Y-100513674D01*
X104235101Y-100551367D01*
X104216534Y-100586103D01*
X104191548Y-100616548D01*
X104161103Y-100641534D01*
X104126367Y-100660101D01*
X104088674Y-100671535D01*
X104043339Y-100676000D01*
X102956661Y-100676000D01*
X102911326Y-100671535D01*
X102873633Y-100660101D01*
X102838897Y-100641534D01*
X102808452Y-100616548D01*
X102783466Y-100586103D01*
X102764899Y-100551367D01*
X102753465Y-100513674D01*
X102749000Y-100468339D01*
X102749000Y-99631661D01*
X102753465Y-99586326D01*
X102764899Y-99548633D01*
X102783466Y-99513897D01*
X102808452Y-99483452D01*
X102838897Y-99458466D01*
X102873633Y-99439899D01*
X102911326Y-99428465D01*
X102956661Y-99424000D01*
X104043339Y-99424000D01*
X104088674Y-99428465D01*
G37*
G36*
X80877618Y-97958420D02*
G01*
X80968404Y-97985960D01*
X81000336Y-97995646D01*
X81113425Y-98056094D01*
X81212554Y-98137446D01*
X81293906Y-98236575D01*
X81354354Y-98349664D01*
X81354355Y-98349668D01*
X81391580Y-98472382D01*
X81401000Y-98568027D01*
X81401000Y-99831973D01*
X81391580Y-99927618D01*
X81387249Y-99941895D01*
X81354354Y-100050336D01*
X81293906Y-100163425D01*
X81212554Y-100262553D01*
X81113424Y-100343906D01*
X81000335Y-100404354D01*
X80968403Y-100414040D01*
X80877617Y-100441580D01*
X80750000Y-100454149D01*
X80622382Y-100441580D01*
X80531596Y-100414040D01*
X80499664Y-100404354D01*
X80386575Y-100343906D01*
X80287447Y-100262554D01*
X80206094Y-100163424D01*
X80145646Y-100050335D01*
X80119648Y-99964631D01*
X80108420Y-99927617D01*
X80099000Y-99831972D01*
X80099001Y-98568027D01*
X80108421Y-98472382D01*
X80145646Y-98349668D01*
X80145647Y-98349664D01*
X80206095Y-98236575D01*
X80287447Y-98137446D01*
X80386576Y-98056094D01*
X80499665Y-97995646D01*
X80531597Y-97985960D01*
X80622383Y-97958420D01*
X80750000Y-97945851D01*
X80877618Y-97958420D01*
G37*
G36*
X71377618Y-97958420D02*
G01*
X71468404Y-97985960D01*
X71500336Y-97995646D01*
X71613425Y-98056094D01*
X71712554Y-98137446D01*
X71793906Y-98236575D01*
X71854354Y-98349664D01*
X71854355Y-98349668D01*
X71891580Y-98472382D01*
X71901000Y-98568027D01*
X71901000Y-99831973D01*
X71891580Y-99927618D01*
X71887249Y-99941895D01*
X71854354Y-100050336D01*
X71793906Y-100163425D01*
X71712554Y-100262553D01*
X71613424Y-100343906D01*
X71500335Y-100404354D01*
X71468403Y-100414040D01*
X71377617Y-100441580D01*
X71250000Y-100454149D01*
X71122382Y-100441580D01*
X71031596Y-100414040D01*
X70999664Y-100404354D01*
X70886575Y-100343906D01*
X70787447Y-100262554D01*
X70706094Y-100163424D01*
X70645646Y-100050335D01*
X70619648Y-99964631D01*
X70608420Y-99927617D01*
X70599000Y-99831972D01*
X70599001Y-98568027D01*
X70608421Y-98472382D01*
X70645646Y-98349668D01*
X70645647Y-98349664D01*
X70706095Y-98236575D01*
X70787447Y-98137446D01*
X70886576Y-98056094D01*
X70999665Y-97995646D01*
X71031597Y-97985960D01*
X71122383Y-97958420D01*
X71250000Y-97945851D01*
X71377618Y-97958420D01*
G37*
G36*
X104088674Y-97378465D02*
G01*
X104126367Y-97389899D01*
X104161103Y-97408466D01*
X104191548Y-97433452D01*
X104216534Y-97463897D01*
X104235101Y-97498633D01*
X104246535Y-97536326D01*
X104251000Y-97581661D01*
X104251000Y-98418339D01*
X104246535Y-98463674D01*
X104235101Y-98501367D01*
X104216534Y-98536103D01*
X104191548Y-98566548D01*
X104161103Y-98591534D01*
X104126367Y-98610101D01*
X104088674Y-98621535D01*
X104043339Y-98626000D01*
X102956661Y-98626000D01*
X102911326Y-98621535D01*
X102873633Y-98610101D01*
X102838897Y-98591534D01*
X102808452Y-98566548D01*
X102783466Y-98536103D01*
X102764899Y-98501367D01*
X102753465Y-98463674D01*
X102749000Y-98418339D01*
X102749000Y-97581661D01*
X102753465Y-97536326D01*
X102764899Y-97498633D01*
X102783466Y-97463897D01*
X102808452Y-97433452D01*
X102838897Y-97408466D01*
X102873633Y-97389899D01*
X102911326Y-97378465D01*
X102956661Y-97374000D01*
X104043339Y-97374000D01*
X104088674Y-97378465D01*
G37*
G36*
X88471694Y-96578633D02*
G01*
X88644095Y-96630931D01*
X88802983Y-96715858D01*
X88942249Y-96830151D01*
X89056542Y-96969417D01*
X89141469Y-97128305D01*
X89193767Y-97300706D01*
X89211425Y-97480000D01*
X89193767Y-97659294D01*
X89141469Y-97831695D01*
X89056542Y-97990583D01*
X88942249Y-98129849D01*
X88802983Y-98244142D01*
X88644095Y-98329069D01*
X88471694Y-98381367D01*
X88337331Y-98394600D01*
X87942669Y-98394600D01*
X87808306Y-98381367D01*
X87635905Y-98329069D01*
X87477017Y-98244142D01*
X87337751Y-98129849D01*
X87223458Y-97990583D01*
X87138531Y-97831695D01*
X87086233Y-97659294D01*
X87068575Y-97480000D01*
X87086233Y-97300706D01*
X87138531Y-97128305D01*
X87223458Y-96969417D01*
X87337751Y-96830151D01*
X87477017Y-96715858D01*
X87635905Y-96630931D01*
X87808306Y-96578633D01*
X87942669Y-96565400D01*
X88337331Y-96565400D01*
X88471694Y-96578633D01*
G37*
G36*
X111331694Y-96578633D02*
G01*
X111504095Y-96630931D01*
X111662983Y-96715858D01*
X111802249Y-96830151D01*
X111916542Y-96969417D01*
X112001469Y-97128305D01*
X112053767Y-97300706D01*
X112071425Y-97480000D01*
X112053767Y-97659294D01*
X112001469Y-97831695D01*
X111916542Y-97990583D01*
X111802249Y-98129849D01*
X111662983Y-98244142D01*
X111504095Y-98329069D01*
X111331694Y-98381367D01*
X111197331Y-98394600D01*
X110802669Y-98394600D01*
X110668306Y-98381367D01*
X110495905Y-98329069D01*
X110337017Y-98244142D01*
X110197751Y-98129849D01*
X110083458Y-97990583D01*
X109998531Y-97831695D01*
X109946233Y-97659294D01*
X109928575Y-97480000D01*
X109946233Y-97300706D01*
X109998531Y-97128305D01*
X110083458Y-96969417D01*
X110197751Y-96830151D01*
X110337017Y-96715858D01*
X110495905Y-96630931D01*
X110668306Y-96578633D01*
X110802669Y-96565400D01*
X111197331Y-96565400D01*
X111331694Y-96578633D01*
G37*
G36*
X99275562Y-96778181D02*
G01*
X99310481Y-96788774D01*
X99342663Y-96805976D01*
X99370873Y-96829127D01*
X99394024Y-96857337D01*
X99411226Y-96889519D01*
X99421819Y-96924438D01*
X99426000Y-96966895D01*
X99426000Y-98108105D01*
X99421819Y-98150562D01*
X99411226Y-98185481D01*
X99394024Y-98217663D01*
X99370873Y-98245873D01*
X99342663Y-98269024D01*
X99310481Y-98286226D01*
X99275562Y-98296819D01*
X99233105Y-98301000D01*
X97766895Y-98301000D01*
X97724438Y-98296819D01*
X97689519Y-98286226D01*
X97657337Y-98269024D01*
X97629127Y-98245873D01*
X97605976Y-98217663D01*
X97588774Y-98185481D01*
X97578181Y-98150562D01*
X97574000Y-98108105D01*
X97574000Y-96966895D01*
X97578181Y-96924438D01*
X97588774Y-96889519D01*
X97605976Y-96857337D01*
X97629127Y-96829127D01*
X97657337Y-96805976D01*
X97689519Y-96788774D01*
X97724438Y-96778181D01*
X97766895Y-96774000D01*
X99233105Y-96774000D01*
X99275562Y-96778181D01*
G37*
G36*
X64651000Y-96551000D02*
G01*
X55849000Y-96551000D01*
X55849000Y-93449000D01*
X64651000Y-93449000D01*
X64651000Y-96551000D01*
G37*
G36*
X76960443Y-94105519D02*
G01*
X77026627Y-94112037D01*
X77196466Y-94163557D01*
X77352991Y-94247222D01*
X77388729Y-94276552D01*
X77490186Y-94359814D01*
X77573448Y-94461271D01*
X77602778Y-94497009D01*
X77686443Y-94653534D01*
X77737963Y-94823373D01*
X77755359Y-95000000D01*
X77737963Y-95176627D01*
X77686443Y-95346466D01*
X77602778Y-95502991D01*
X77573448Y-95538729D01*
X77490186Y-95640186D01*
X77388729Y-95723448D01*
X77352991Y-95752778D01*
X77196466Y-95836443D01*
X77026627Y-95887963D01*
X76960443Y-95894481D01*
X76894260Y-95901000D01*
X75105740Y-95901000D01*
X75039557Y-95894481D01*
X74973373Y-95887963D01*
X74803534Y-95836443D01*
X74647009Y-95752778D01*
X74611271Y-95723448D01*
X74509814Y-95640186D01*
X74426552Y-95538729D01*
X74397222Y-95502991D01*
X74313557Y-95346466D01*
X74262037Y-95176627D01*
X74244641Y-95000000D01*
X74262037Y-94823373D01*
X74313557Y-94653534D01*
X74397222Y-94497009D01*
X74426552Y-94461271D01*
X74509814Y-94359814D01*
X74611271Y-94276552D01*
X74647009Y-94247222D01*
X74803534Y-94163557D01*
X74973373Y-94112037D01*
X75039557Y-94105519D01*
X75105740Y-94099000D01*
X76894260Y-94099000D01*
X76960443Y-94105519D01*
G37*
G36*
X88471694Y-94038633D02*
G01*
X88644095Y-94090931D01*
X88802983Y-94175858D01*
X88942249Y-94290151D01*
X89056542Y-94429417D01*
X89141469Y-94588305D01*
X89193767Y-94760706D01*
X89211425Y-94940000D01*
X89193767Y-95119294D01*
X89141469Y-95291695D01*
X89056542Y-95450583D01*
X88942249Y-95589849D01*
X88802983Y-95704142D01*
X88644095Y-95789069D01*
X88471694Y-95841367D01*
X88337331Y-95854600D01*
X87942669Y-95854600D01*
X87808306Y-95841367D01*
X87635905Y-95789069D01*
X87477017Y-95704142D01*
X87337751Y-95589849D01*
X87223458Y-95450583D01*
X87138531Y-95291695D01*
X87086233Y-95119294D01*
X87068575Y-94940000D01*
X87086233Y-94760706D01*
X87138531Y-94588305D01*
X87223458Y-94429417D01*
X87337751Y-94290151D01*
X87477017Y-94175858D01*
X87635905Y-94090931D01*
X87808306Y-94038633D01*
X87942669Y-94025400D01*
X88337331Y-94025400D01*
X88471694Y-94038633D01*
G37*
G36*
X111331694Y-94038633D02*
G01*
X111504095Y-94090931D01*
X111662983Y-94175858D01*
X111802249Y-94290151D01*
X111916542Y-94429417D01*
X112001469Y-94588305D01*
X112053767Y-94760706D01*
X112071425Y-94940000D01*
X112053767Y-95119294D01*
X112001469Y-95291695D01*
X111916542Y-95450583D01*
X111802249Y-95589849D01*
X111662983Y-95704142D01*
X111504095Y-95789069D01*
X111331694Y-95841367D01*
X111197331Y-95854600D01*
X110802669Y-95854600D01*
X110668306Y-95841367D01*
X110495905Y-95789069D01*
X110337017Y-95704142D01*
X110197751Y-95589849D01*
X110083458Y-95450583D01*
X109998531Y-95291695D01*
X109946233Y-95119294D01*
X109928575Y-94940000D01*
X109946233Y-94760706D01*
X109998531Y-94588305D01*
X110083458Y-94429417D01*
X110197751Y-94290151D01*
X110337017Y-94175858D01*
X110495905Y-94090931D01*
X110668306Y-94038633D01*
X110802669Y-94025400D01*
X111197331Y-94025400D01*
X111331694Y-94038633D01*
G37*
G36*
X80877618Y-93258420D02*
G01*
X80949845Y-93280330D01*
X81000336Y-93295646D01*
X81113425Y-93356094D01*
X81212554Y-93437446D01*
X81293906Y-93536575D01*
X81354354Y-93649664D01*
X81354355Y-93649668D01*
X81391580Y-93772382D01*
X81401000Y-93868027D01*
X81401000Y-95131973D01*
X81391580Y-95227618D01*
X81372142Y-95291695D01*
X81354354Y-95350336D01*
X81293906Y-95463425D01*
X81212554Y-95562553D01*
X81113424Y-95643906D01*
X81000335Y-95704354D01*
X80968403Y-95714040D01*
X80877617Y-95741580D01*
X80750000Y-95754149D01*
X80622382Y-95741580D01*
X80531596Y-95714040D01*
X80499664Y-95704354D01*
X80386575Y-95643906D01*
X80287447Y-95562554D01*
X80206094Y-95463424D01*
X80145646Y-95350335D01*
X80127858Y-95291695D01*
X80108420Y-95227617D01*
X80099000Y-95131972D01*
X80099001Y-93868027D01*
X80108421Y-93772382D01*
X80145646Y-93649668D01*
X80145647Y-93649664D01*
X80206095Y-93536575D01*
X80287447Y-93437446D01*
X80386576Y-93356094D01*
X80499665Y-93295646D01*
X80550156Y-93280330D01*
X80622383Y-93258420D01*
X80750000Y-93245851D01*
X80877618Y-93258420D01*
G37*
G36*
X71377618Y-93258420D02*
G01*
X71449845Y-93280330D01*
X71500336Y-93295646D01*
X71613425Y-93356094D01*
X71712554Y-93437446D01*
X71793906Y-93536575D01*
X71854354Y-93649664D01*
X71854355Y-93649668D01*
X71891580Y-93772382D01*
X71901000Y-93868027D01*
X71901000Y-95131973D01*
X71891580Y-95227618D01*
X71872142Y-95291695D01*
X71854354Y-95350336D01*
X71793906Y-95463425D01*
X71712554Y-95562553D01*
X71613424Y-95643906D01*
X71500335Y-95704354D01*
X71468403Y-95714040D01*
X71377617Y-95741580D01*
X71250000Y-95754149D01*
X71122382Y-95741580D01*
X71031596Y-95714040D01*
X70999664Y-95704354D01*
X70886575Y-95643906D01*
X70787447Y-95562554D01*
X70706094Y-95463424D01*
X70645646Y-95350335D01*
X70627858Y-95291695D01*
X70608420Y-95227617D01*
X70599000Y-95131972D01*
X70599001Y-93868027D01*
X70608421Y-93772382D01*
X70645646Y-93649668D01*
X70645647Y-93649664D01*
X70706095Y-93536575D01*
X70787447Y-93437446D01*
X70886576Y-93356094D01*
X70999665Y-93295646D01*
X71050156Y-93280330D01*
X71122383Y-93258420D01*
X71250000Y-93245851D01*
X71377618Y-93258420D01*
G37*
G36*
X69196505Y-90513803D02*
G01*
X69325366Y-90552893D01*
X69444117Y-90616367D01*
X69548209Y-90701791D01*
X69633633Y-90805883D01*
X69697107Y-90924634D01*
X69736197Y-91053495D01*
X69750000Y-91193640D01*
X69750000Y-92806360D01*
X69736197Y-92946505D01*
X69697107Y-93075366D01*
X69633633Y-93194117D01*
X69548209Y-93298209D01*
X69444117Y-93383633D01*
X69325366Y-93447107D01*
X69196505Y-93486197D01*
X69056360Y-93500000D01*
X67443640Y-93500000D01*
X67303495Y-93486197D01*
X67174634Y-93447107D01*
X67055883Y-93383633D01*
X66951791Y-93298209D01*
X66866367Y-93194117D01*
X66802893Y-93075366D01*
X66763803Y-92946505D01*
X66750000Y-92806360D01*
X66750000Y-91193640D01*
X66763803Y-91053495D01*
X66802893Y-90924634D01*
X66866367Y-90805883D01*
X66951791Y-90701791D01*
X67055883Y-90616367D01*
X67174634Y-90552893D01*
X67303495Y-90513803D01*
X67443640Y-90500000D01*
X69056360Y-90500000D01*
X69196505Y-90513803D01*
G37*
G36*
X53196505Y-90513803D02*
G01*
X53325366Y-90552893D01*
X53444117Y-90616367D01*
X53548209Y-90701791D01*
X53633633Y-90805883D01*
X53697107Y-90924634D01*
X53736197Y-91053495D01*
X53750000Y-91193640D01*
X53750000Y-92806360D01*
X53736197Y-92946505D01*
X53697107Y-93075366D01*
X53633633Y-93194117D01*
X53548209Y-93298209D01*
X53444117Y-93383633D01*
X53325366Y-93447107D01*
X53196505Y-93486197D01*
X53056360Y-93500000D01*
X51443640Y-93500000D01*
X51303495Y-93486197D01*
X51174634Y-93447107D01*
X51055883Y-93383633D01*
X50951791Y-93298209D01*
X50866367Y-93194117D01*
X50802893Y-93075366D01*
X50763803Y-92946505D01*
X50750000Y-92806360D01*
X50750000Y-91193640D01*
X50763803Y-91053495D01*
X50802893Y-90924634D01*
X50866367Y-90805883D01*
X50951791Y-90701791D01*
X51055883Y-90616367D01*
X51174634Y-90552893D01*
X51303495Y-90513803D01*
X51443640Y-90500000D01*
X53056360Y-90500000D01*
X53196505Y-90513803D01*
G37*
G36*
X89466703Y-89581486D02*
G01*
X89757883Y-89702097D01*
X90019940Y-89877198D01*
X90242802Y-90100060D01*
X90417903Y-90362117D01*
X90538514Y-90653297D01*
X90600000Y-90962412D01*
X90600000Y-91277588D01*
X90538514Y-91586703D01*
X90417903Y-91877883D01*
X90242802Y-92139940D01*
X90019940Y-92362802D01*
X89757883Y-92537903D01*
X89466703Y-92658514D01*
X89157588Y-92720000D01*
X88842412Y-92720000D01*
X88533297Y-92658514D01*
X88242117Y-92537903D01*
X87980060Y-92362802D01*
X87757198Y-92139940D01*
X87582097Y-91877883D01*
X87461486Y-91586703D01*
X87400000Y-91277588D01*
X87400000Y-90962412D01*
X87461486Y-90653297D01*
X87582097Y-90362117D01*
X87757198Y-90100060D01*
X87980060Y-89877198D01*
X88242117Y-89702097D01*
X88533297Y-89581486D01*
X88842412Y-89520000D01*
X89157588Y-89520000D01*
X89466703Y-89581486D01*
G37*
G36*
X110666703Y-89581486D02*
G01*
X110957883Y-89702097D01*
X111219940Y-89877198D01*
X111442802Y-90100060D01*
X111617903Y-90362117D01*
X111738514Y-90653297D01*
X111800000Y-90962412D01*
X111800000Y-91277588D01*
X111738514Y-91586703D01*
X111617903Y-91877883D01*
X111442802Y-92139940D01*
X111219940Y-92362802D01*
X110957883Y-92537903D01*
X110666703Y-92658514D01*
X110357588Y-92720000D01*
X110042412Y-92720000D01*
X109733297Y-92658514D01*
X109442117Y-92537903D01*
X109180060Y-92362802D01*
X108957198Y-92139940D01*
X108782097Y-91877883D01*
X108661486Y-91586703D01*
X108600000Y-91277588D01*
X108600000Y-90962412D01*
X108661486Y-90653297D01*
X108782097Y-90362117D01*
X108957198Y-90100060D01*
X109180060Y-89877198D01*
X109442117Y-89702097D01*
X109733297Y-89581486D01*
X110042412Y-89520000D01*
X110357588Y-89520000D01*
X110666703Y-89581486D01*
G37*
G36*
X76248228Y-90931703D02*
G01*
X76403100Y-90995853D01*
X76542481Y-91088985D01*
X76661015Y-91207519D01*
X76754147Y-91346900D01*
X76818297Y-91501772D01*
X76851000Y-91666184D01*
X76851000Y-91833816D01*
X76818297Y-91998228D01*
X76754147Y-92153100D01*
X76661015Y-92292481D01*
X76542481Y-92411015D01*
X76403100Y-92504147D01*
X76248228Y-92568297D01*
X76083816Y-92601000D01*
X75916184Y-92601000D01*
X75751772Y-92568297D01*
X75596900Y-92504147D01*
X75457519Y-92411015D01*
X75338985Y-92292481D01*
X75245853Y-92153100D01*
X75181703Y-91998228D01*
X75149000Y-91833816D01*
X75149000Y-91666184D01*
X75181703Y-91501772D01*
X75245853Y-91346900D01*
X75338985Y-91207519D01*
X75457519Y-91088985D01*
X75596900Y-90995853D01*
X75751772Y-90931703D01*
X75916184Y-90899000D01*
X76083816Y-90899000D01*
X76248228Y-90931703D01*
G37*
M02*
