G04 #@! TF.GenerationSoftware,KiCad,Pcbnew,5.1.6-c6e7f7d~86~ubuntu18.04.1*
G04 #@! TF.CreationDate,2020-05-28T19:09:28+01:00*
G04 #@! TF.ProjectId,polariser_drive,706f6c61-7269-4736-9572-5f6472697665,rev?*
G04 #@! TF.SameCoordinates,Original*
G04 #@! TF.FileFunction,Paste,Top*
G04 #@! TF.FilePolarity,Positive*
%FSLAX46Y46*%
G04 Gerber Fmt 4.6, Leading zero omitted, Abs format (unit mm)*
G04 Created by KiCad (PCBNEW 5.1.6-c6e7f7d~86~ubuntu18.04.1) date 2020-05-28 19:09:28*
%MOMM*%
%LPD*%
G01*
G04 APERTURE LIST*
%ADD10R,3.000000X0.700000*%
%ADD11R,0.700000X3.000000*%
%ADD12C,3.200000*%
%ADD13R,0.650000X1.060000*%
G04 APERTURE END LIST*
D10*
X55250000Y-113750000D03*
X55250000Y-112750000D03*
X55250000Y-111750000D03*
X55250000Y-110750000D03*
X55250000Y-109750000D03*
X55250000Y-108750000D03*
X55250000Y-107750000D03*
X55250000Y-106750000D03*
X55250000Y-105750000D03*
D11*
X56250000Y-95000000D03*
X57250000Y-95000000D03*
X58250000Y-95000000D03*
X59250000Y-95000000D03*
X60250000Y-95000000D03*
X61250000Y-95000000D03*
X62250000Y-95000000D03*
X63250000Y-95000000D03*
X64250000Y-95000000D03*
G36*
G01*
X99125000Y-98250000D02*
X97875000Y-98250000D01*
G75*
G02*
X97625000Y-98000000I0J250000D01*
G01*
X97625000Y-97075000D01*
G75*
G02*
X97875000Y-96825000I250000J0D01*
G01*
X99125000Y-96825000D01*
G75*
G02*
X99375000Y-97075000I0J-250000D01*
G01*
X99375000Y-98000000D01*
G75*
G02*
X99125000Y-98250000I-250000J0D01*
G01*
G37*
G36*
G01*
X99125000Y-101225000D02*
X97875000Y-101225000D01*
G75*
G02*
X97625000Y-100975000I0J250000D01*
G01*
X97625000Y-100050000D01*
G75*
G02*
X97875000Y-99800000I250000J0D01*
G01*
X99125000Y-99800000D01*
G75*
G02*
X99375000Y-100050000I0J-250000D01*
G01*
X99375000Y-100975000D01*
G75*
G02*
X99125000Y-101225000I-250000J0D01*
G01*
G37*
D12*
X110200000Y-91120000D03*
X89000000Y-91120000D03*
X89000000Y-134750000D03*
X110250000Y-134750000D03*
D13*
X101950000Y-106600000D03*
X100050000Y-106600000D03*
X100050000Y-104400000D03*
X101000000Y-104400000D03*
X101950000Y-104400000D03*
G36*
G01*
X76456250Y-122862500D02*
X75543750Y-122862500D01*
G75*
G02*
X75300000Y-122618750I0J243750D01*
G01*
X75300000Y-122131250D01*
G75*
G02*
X75543750Y-121887500I243750J0D01*
G01*
X76456250Y-121887500D01*
G75*
G02*
X76700000Y-122131250I0J-243750D01*
G01*
X76700000Y-122618750D01*
G75*
G02*
X76456250Y-122862500I-243750J0D01*
G01*
G37*
G36*
G01*
X76456250Y-120987500D02*
X75543750Y-120987500D01*
G75*
G02*
X75300000Y-120743750I0J243750D01*
G01*
X75300000Y-120256250D01*
G75*
G02*
X75543750Y-120012500I243750J0D01*
G01*
X76456250Y-120012500D01*
G75*
G02*
X76700000Y-120256250I0J-243750D01*
G01*
X76700000Y-120743750D01*
G75*
G02*
X76456250Y-120987500I-243750J0D01*
G01*
G37*
G36*
G01*
X81456250Y-122862500D02*
X80543750Y-122862500D01*
G75*
G02*
X80300000Y-122618750I0J243750D01*
G01*
X80300000Y-122131250D01*
G75*
G02*
X80543750Y-121887500I243750J0D01*
G01*
X81456250Y-121887500D01*
G75*
G02*
X81700000Y-122131250I0J-243750D01*
G01*
X81700000Y-122618750D01*
G75*
G02*
X81456250Y-122862500I-243750J0D01*
G01*
G37*
G36*
G01*
X81456250Y-120987500D02*
X80543750Y-120987500D01*
G75*
G02*
X80300000Y-120743750I0J243750D01*
G01*
X80300000Y-120256250D01*
G75*
G02*
X80543750Y-120012500I243750J0D01*
G01*
X81456250Y-120012500D01*
G75*
G02*
X81700000Y-120256250I0J-243750D01*
G01*
X81700000Y-120743750D01*
G75*
G02*
X81456250Y-120987500I-243750J0D01*
G01*
G37*
G36*
G01*
X103950001Y-98575000D02*
X103049999Y-98575000D01*
G75*
G02*
X102800000Y-98325001I0J249999D01*
G01*
X102800000Y-97674999D01*
G75*
G02*
X103049999Y-97425000I249999J0D01*
G01*
X103950001Y-97425000D01*
G75*
G02*
X104200000Y-97674999I0J-249999D01*
G01*
X104200000Y-98325001D01*
G75*
G02*
X103950001Y-98575000I-249999J0D01*
G01*
G37*
G36*
G01*
X103950001Y-100625000D02*
X103049999Y-100625000D01*
G75*
G02*
X102800000Y-100375001I0J249999D01*
G01*
X102800000Y-99724999D01*
G75*
G02*
X103049999Y-99475000I249999J0D01*
G01*
X103950001Y-99475000D01*
G75*
G02*
X104200000Y-99724999I0J-249999D01*
G01*
X104200000Y-100375001D01*
G75*
G02*
X103950001Y-100625000I-249999J0D01*
G01*
G37*
M02*
