M48
; DRILL file {KiCad 5.1.6-c6e7f7d~86~ubuntu18.04.1} date Thu May 28 18:46:42 2020
; FORMAT={-:-/ absolute / inch / decimal}
; #@! TF.CreationDate,2020-05-28T18:46:42+01:00
; #@! TF.GenerationSoftware,Kicad,Pcbnew,5.1.6-c6e7f7d~86~ubuntu18.04.1
; #@! TF.FileFunction,NonPlated,1,2,NPTH
FMAT,2
INCH
T1C0.0197
T2C0.0630
T3C0.1693
%
G90
G05
T1
X3.1791Y-3.2677
X3.1791Y-3.5039
X3.2087Y-3.2677
X3.2087Y-3.5039
X3.2382Y-3.2677
X3.2382Y-3.5039
X4.2618Y-3.2677
X4.2618Y-3.5039
X4.2913Y-3.2677
X4.2913Y-3.5039
X4.3209Y-3.2677
X4.3209Y-3.5039
X2.0965Y-3.2677
X2.0965Y-3.5039
X2.126Y-3.2677
X2.126Y-3.5039
X2.1555Y-3.2677
X2.1555Y-3.5039
T2
X2.9921Y-3.6122
X3.4252Y-3.1594
T3
X3.8189Y-1.9291
X2.2047Y-4.8425
X4.2126Y-1.9291
X2.5984Y-4.8425
T0
M30
