G04 #@! TF.GenerationSoftware,KiCad,Pcbnew,5.1.6-c6e7f7d~86~ubuntu18.04.1*
G04 #@! TF.CreationDate,2020-05-28T18:46:40+01:00*
G04 #@! TF.ProjectId,polariser_drive,706f6c61-7269-4736-9572-5f6472697665,rev?*
G04 #@! TF.SameCoordinates,Original*
G04 #@! TF.FileFunction,Profile,NP*
%FSLAX46Y46*%
G04 Gerber Fmt 4.6, Leading zero omitted, Abs format (unit mm)*
G04 Created by KiCad (PCBNEW 5.1.6-c6e7f7d~86~ubuntu18.04.1) date 2020-05-28 18:46:40*
%MOMM*%
%LPD*%
G01*
G04 APERTURE LIST*
G04 #@! TA.AperFunction,Profile*
%ADD10C,0.050000*%
G04 #@! TD*
G04 APERTURE END LIST*
D10*
X107500000Y-83000000D02*
X83000000Y-83000000D01*
X75000000Y-36500000D02*
X52500000Y-36500000D01*
X49500000Y-39500000D02*
G75*
G02*
X52500000Y-36500000I3000000J0D01*
G01*
X75000000Y-36500000D02*
G75*
G02*
X78000000Y-39500000I0J-3000000D01*
G01*
X81000000Y-42500000D02*
G75*
G02*
X78000000Y-39500000I0J3000000D01*
G01*
X49500000Y-46000000D02*
X49500000Y-80000000D01*
X52500000Y-83000000D02*
G75*
G02*
X49500000Y-80000000I0J3000000D01*
G01*
X110500000Y-42500000D02*
G75*
G02*
X113500000Y-45500000I0J-3000000D01*
G01*
X102500000Y-42500000D02*
X110500000Y-42500000D01*
X49500000Y-39500000D02*
X49500000Y-46000000D01*
X80000000Y-83000000D02*
X55500000Y-83000000D01*
X113500000Y-80000000D02*
G75*
G02*
X110500000Y-83000000I-3000000J0D01*
G01*
X81000000Y-42500000D02*
X102500000Y-42500000D01*
X113500000Y-45500000D02*
X113500000Y-80000000D01*
X82500000Y-83500000D02*
X82500000Y-88500000D01*
X80500000Y-88500000D02*
X80500000Y-83500000D01*
X80500000Y-88500000D02*
G75*
G02*
X80000000Y-89000000I-500000J0D01*
G01*
X80000000Y-83000000D02*
G75*
G02*
X80500000Y-83500000I0J-500000D01*
G01*
X83000000Y-89000000D02*
G75*
G02*
X82500000Y-88500000I0J500000D01*
G01*
X82500000Y-83500000D02*
G75*
G02*
X83000000Y-83000000I500000J0D01*
G01*
X55000000Y-83500000D02*
X55000000Y-88500000D01*
X53000000Y-88500000D02*
X53000000Y-83500000D01*
X53000000Y-88500000D02*
G75*
G02*
X52500000Y-89000000I-500000J0D01*
G01*
X52500000Y-83000000D02*
G75*
G02*
X53000000Y-83500000I0J-500000D01*
G01*
X55500000Y-89000000D02*
G75*
G02*
X55000000Y-88500000I0J500000D01*
G01*
X55000000Y-83500000D02*
G75*
G02*
X55500000Y-83000000I500000J0D01*
G01*
X108000000Y-88500000D02*
X108000000Y-83500000D01*
X110000000Y-83500000D02*
X110000000Y-88500000D01*
X107500000Y-83000000D02*
G75*
G02*
X108000000Y-83500000I0J-500000D01*
G01*
X110000000Y-83500000D02*
G75*
G02*
X110500000Y-83000000I500000J0D01*
G01*
X108000000Y-88500000D02*
G75*
G02*
X107500000Y-89000000I-500000J0D01*
G01*
X110500000Y-89000000D02*
G75*
G02*
X110000000Y-88500000I0J500000D01*
G01*
X113500000Y-132500000D02*
X113500000Y-126000000D01*
X83000000Y-89000000D02*
X107500000Y-89000000D01*
X49500000Y-126500000D02*
X49500000Y-92000000D01*
X82000000Y-129500000D02*
X60500000Y-129500000D01*
X60500000Y-129500000D02*
X52500000Y-129500000D01*
X52500000Y-129500000D02*
G75*
G02*
X49500000Y-126500000I0J3000000D01*
G01*
X82000000Y-129500000D02*
G75*
G02*
X85000000Y-132500000I0J-3000000D01*
G01*
X88000000Y-135500000D02*
G75*
G02*
X85000000Y-132500000I0J3000000D01*
G01*
X55500000Y-89000000D02*
X80000000Y-89000000D01*
X110500000Y-89000000D02*
G75*
G02*
X113500000Y-92000000I0J-3000000D01*
G01*
X113500000Y-126000000D02*
X113500000Y-92000000D01*
X113500000Y-132500000D02*
G75*
G02*
X110500000Y-135500000I-3000000J0D01*
G01*
X88000000Y-135500000D02*
X110500000Y-135500000D01*
X49500000Y-92000000D02*
G75*
G02*
X52500000Y-89000000I3000000J0D01*
G01*
M02*
